<svg width="335" height="89" viewBox="0 0 335 89" fill="none" xmlns="http://www.w3.org/2000/svg">
<path d="M26.168 3.6H27.404L23.66 7.548L27.596 12H26.288L22.484 7.62L26.168 3.6ZM22.28 12H21.26V3.6H22.28V12ZM33.2895 12H32.3295V7.56H30.4335L30.3735 8.472C30.3095 9.216 30.2135 9.836 30.0855 10.332C29.9655 10.82 29.8055 11.188 29.6055 11.436C29.4135 11.676 29.2095 11.844 28.9935 11.94C28.7775 12.028 28.5135 12.072 28.2015 12.072L28.1295 11.136C28.2175 11.144 28.3095 11.132 28.4055 11.1C28.5015 11.06 28.6055 10.98 28.7175 10.86C28.8375 10.74 28.9415 10.58 29.0295 10.38C29.1255 10.18 29.2095 9.9 29.2815 9.54C29.3615 9.172 29.4135 8.752 29.4375 8.28L29.5335 6.6H33.2895V12ZM36.0403 12H35.0203V6.6H36.0403V8.76H37.2163C37.3283 8.072 37.6283 7.52 38.1163 7.104C38.6123 6.688 39.2203 6.48 39.9403 6.48C40.7883 6.48 41.4683 6.748 41.9803 7.284C42.5003 7.82 42.7603 8.492 42.7603 9.3C42.7603 10.108 42.4963 10.784 41.9683 11.328C41.4483 11.856 40.7723 12.12 39.9403 12.12C39.1803 12.12 38.5563 11.9 38.0683 11.46C37.5803 11.02 37.2923 10.44 37.2043 9.72H36.0403V12ZM38.7403 7.956C38.4203 8.3 38.2603 8.748 38.2603 9.3C38.2603 9.852 38.4203 10.3 38.7403 10.644C39.0603 10.988 39.4723 11.16 39.9763 11.16C40.4803 11.16 40.8883 10.992 41.2003 10.656C41.5203 10.312 41.6803 9.86 41.6803 9.3C41.6803 8.748 41.5243 8.3 41.2122 7.956C40.9003 7.612 40.4883 7.44 39.9763 7.44C39.4723 7.44 39.0603 7.612 38.7403 7.956ZM47.2334 6.6H48.1934V12H47.2334V9.9C46.8174 10.164 46.3174 10.296 45.7334 10.296C44.4534 10.296 43.8134 9.608 43.8134 8.232V6.6H44.8334V8.124C44.8334 8.972 45.2214 9.396 45.9974 9.396C46.5014 9.396 46.9134 9.284 47.2334 9.06V6.6ZM54.1865 10.656L54.4865 11.412C53.9665 11.884 53.2905 12.12 52.4585 12.12C51.5785 12.12 50.8785 11.864 50.3585 11.352C49.8305 10.84 49.5665 10.156 49.5665 9.3C49.5665 8.492 49.8145 7.82 50.3105 7.284C50.7985 6.748 51.4785 6.48 52.3505 6.48C53.0705 6.48 53.6665 6.712 54.1385 7.176C54.6185 7.632 54.8585 8.224 54.8585 8.952C54.8585 9.184 54.8385 9.4 54.7985 9.6H50.6465C50.6865 10.104 50.8745 10.5 51.2105 10.788C51.5545 11.076 51.9945 11.22 52.5305 11.22C53.2345 11.22 53.7865 11.032 54.1865 10.656ZM52.3025 7.38C51.8305 7.38 51.4385 7.512 51.1265 7.776C50.8225 8.04 50.6425 8.388 50.5865 8.82H53.8625C53.8385 8.372 53.6865 8.02 53.4065 7.764C53.1345 7.508 52.7665 7.38 52.3025 7.38ZM56.1609 12V6.6C56.2009 6.6 56.2569 6.6 56.3289 6.6C56.4009 6.592 56.5049 6.588 56.6409 6.588C56.7769 6.58 56.9009 6.576 57.0129 6.576C57.6049 6.56 57.9729 6.552 58.1169 6.552C59.6689 6.552 60.4449 7.016 60.4449 7.944C60.4449 8.264 60.3449 8.54 60.1449 8.772C59.9449 8.996 59.6849 9.132 59.3649 9.18V9.204C60.2049 9.356 60.6249 9.78 60.6249 10.476C60.6249 11.524 59.7969 12.048 58.1409 12.048C58.0609 12.048 57.7089 12.04 57.0849 12.024C56.9649 12.024 56.8329 12.02 56.6889 12.012C56.5449 12.012 56.4329 12.008 56.3529 12C56.2729 12 56.2089 12 56.1609 12ZM58.2729 9.576H57.1209V11.232C57.6969 11.256 58.0649 11.268 58.2249 11.268C59.1449 11.268 59.6049 10.98 59.6049 10.404C59.6049 9.852 59.1609 9.576 58.2729 9.576ZM58.1889 7.332C57.9569 7.332 57.6009 7.344 57.1209 7.368V8.976H58.3329C58.6609 8.976 58.9249 8.9 59.1249 8.748C59.3249 8.596 59.4249 8.392 59.4249 8.136C59.4249 7.6 59.0129 7.332 58.1889 7.332ZM63.8306 12H62.0906V6.6H63.0506V8.22H63.9386C64.6746 8.22 65.2146 8.388 65.5586 8.724C65.9026 9.052 66.0746 9.504 66.0746 10.08C66.0746 10.624 65.8946 11.08 65.5346 11.448C65.1906 11.816 64.6226 12 63.8306 12ZM68.0666 12H67.1066V6.6H68.0666V12ZM63.7586 9.12H63.0506V11.1H63.7466C64.2026 11.1 64.5346 11.02 64.7426 10.86C64.9506 10.7 65.0546 10.452 65.0546 10.116C65.0546 9.452 64.6226 9.12 63.7586 9.12ZM74.0498 10.656L74.3498 11.412C73.8298 11.884 73.1538 12.12 72.3218 12.12C71.4418 12.12 70.7418 11.864 70.2218 11.352C69.6938 10.84 69.4298 10.156 69.4298 9.3C69.4298 8.492 69.6778 7.82 70.1738 7.284C70.6618 6.748 71.3418 6.48 72.2138 6.48C72.9338 6.48 73.5298 6.712 74.0018 7.176C74.4818 7.632 74.7218 8.224 74.7218 8.952C74.7218 9.184 74.7018 9.4 74.6618 9.6H70.5098C70.5498 10.104 70.7378 10.5 71.0738 10.788C71.4178 11.076 71.8578 11.22 72.3938 11.22C73.0978 11.22 73.6498 11.032 74.0498 10.656ZM72.1658 7.38C71.6938 7.38 71.3018 7.512 70.9898 7.776C70.6858 8.04 70.5058 8.388 70.4498 8.82H73.7258C73.7018 8.372 73.5498 8.02 73.2698 7.764C72.9978 7.508 72.6298 7.38 72.1658 7.38ZM75.8082 11.448C75.8082 11.256 75.8682 11.104 75.9882 10.992C76.1082 10.872 76.2762 10.812 76.4922 10.812C76.7482 10.812 76.9562 10.92 77.1162 11.136C77.2762 11.344 77.3562 11.624 77.3562 11.976C77.3562 12.408 77.2362 12.78 76.9962 13.092C76.7642 13.412 76.4442 13.632 76.0362 13.752L75.7722 13.296C76.1882 13.168 76.4442 12.9 76.5402 12.492C76.5962 12.22 76.5922 12.02 76.5282 11.892C76.4802 11.964 76.3922 12 76.2642 12C76.1442 12 76.0362 11.948 75.9402 11.844C75.8522 11.732 75.8082 11.6 75.8082 11.448ZM85.7123 12H84.7523V7.5H81.8123V12H80.8523V6.6H85.7123V12ZM87.8819 11.328C87.3539 10.784 87.0899 10.108 87.0899 9.3C87.0899 8.484 87.3539 7.812 87.8819 7.284C88.4179 6.748 89.1139 6.48 89.9699 6.48C90.8259 6.48 91.5179 6.748 92.0459 7.284C92.5819 7.812 92.8499 8.484 92.8499 9.3C92.8499 10.116 92.5819 10.792 92.0459 11.328C91.5179 11.856 90.8259 12.12 89.9699 12.12C89.1219 12.12 88.4259 11.856 87.8819 11.328ZM88.6379 7.92C88.2859 8.272 88.1099 8.732 88.1099 9.3C88.1099 9.868 88.2819 10.328 88.6259 10.68C88.9779 11.04 89.4259 11.22 89.9699 11.22C90.5139 11.22 90.9579 11.044 91.3019 10.692C91.6539 10.332 91.8299 9.868 91.8299 9.3C91.8299 8.748 91.6539 8.288 91.3019 7.92C90.9579 7.56 90.5139 7.38 89.9699 7.38C89.4259 7.38 88.9819 7.56 88.6379 7.92ZM101.082 10.524L101.538 11.22C101.074 11.82 100.382 12.12 99.4624 12.12C98.5984 12.12 97.8984 11.864 97.3624 11.352C96.8344 10.84 96.5704 10.156 96.5704 9.3C96.5704 8.508 96.8304 7.84 97.3504 7.296C97.8704 6.752 98.5224 6.48 99.3064 6.48C100.25 6.48 100.958 6.716 101.43 7.188L100.986 7.944C100.57 7.568 100.054 7.38 99.4384 7.38C98.9344 7.38 98.4984 7.564 98.1304 7.932C97.7704 8.292 97.5904 8.748 97.5904 9.3C97.5904 9.884 97.7744 10.348 98.1424 10.692C98.5184 11.044 98.9824 11.22 99.5344 11.22C100.158 11.22 100.674 10.988 101.082 10.524ZM107.65 12H106.69V7.5H103.75V12H102.79V6.6H107.65V12ZM113.467 7.98L110.347 12H109.387V6.6H110.347V10.62L113.467 6.6H114.427V12H113.467V7.98ZM120.325 10.524L120.781 11.22C120.317 11.82 119.625 12.12 118.705 12.12C117.841 12.12 117.141 11.864 116.605 11.352C116.077 10.84 115.813 10.156 115.813 9.3C115.813 8.508 116.073 7.84 116.593 7.296C117.113 6.752 117.765 6.48 118.549 6.48C119.493 6.48 120.201 6.716 120.673 7.188L120.229 7.944C119.813 7.568 119.297 7.38 118.681 7.38C118.177 7.38 117.741 7.564 117.373 7.932C117.013 8.292 116.833 8.748 116.833 9.3C116.833 9.884 117.017 10.348 117.385 10.692C117.761 11.044 118.225 11.22 118.777 11.22C119.401 11.22 119.917 10.988 120.325 10.524ZM125.5 6.6H126.76L124.396 9.18L126.988 12H125.656L123.22 9.24L125.5 6.6ZM122.992 12H122.032V6.6H122.992V12ZM128.297 7.74L128.045 6.972C128.581 6.644 129.181 6.48 129.845 6.48C130.573 6.48 131.101 6.66 131.429 7.02C131.757 7.38 131.921 7.936 131.921 8.688V12H131.009V11.304C130.585 11.824 130.009 12.084 129.281 12.084C128.785 12.084 128.385 11.936 128.081 11.64C127.777 11.336 127.625 10.928 127.625 10.416C127.625 9.888 127.813 9.472 128.189 9.168C128.565 8.856 129.057 8.7 129.665 8.7C130.233 8.7 130.681 8.816 131.009 9.048C131.009 8.44 130.925 8.004 130.757 7.74C130.589 7.476 130.265 7.344 129.785 7.344C129.297 7.344 128.801 7.476 128.297 7.74ZM129.617 11.22C130.153 11.22 130.617 10.988 131.009 10.524V9.84C130.673 9.6 130.269 9.48 129.797 9.48C129.469 9.48 129.193 9.56 128.969 9.72C128.753 9.872 128.645 10.088 128.645 10.368C128.645 10.632 128.729 10.84 128.897 10.992C129.073 11.144 129.313 11.22 129.617 11.22ZM134.488 12H133.528V6.6H134.404L136.48 9.276L138.448 6.6H139.3V12H138.34V8.064L136.468 10.572H136.432L134.488 8.064V12ZM140.824 11.448C140.824 11.256 140.884 11.104 141.004 10.992C141.124 10.872 141.292 10.812 141.508 10.812C141.764 10.812 141.972 10.92 142.132 11.136C142.292 11.344 142.372 11.624 142.372 11.976C142.372 12.408 142.252 12.78 142.012 13.092C141.78 13.412 141.46 13.632 141.052 13.752L140.788 13.296C141.204 13.168 141.46 12.9 141.556 12.492C141.612 12.22 141.608 12.02 141.544 11.892C141.496 11.964 141.408 12 141.28 12C141.16 12 141.052 11.948 140.956 11.844C140.868 11.732 140.824 11.6 140.824 11.448ZM147.164 7.56H145.184V6.6H150.104V7.56H148.124V12H147.164V7.56ZM152.113 14.4H151.153V6.6H152.113V7.236C152.305 7.012 152.569 6.832 152.905 6.696C153.241 6.552 153.589 6.48 153.949 6.48C154.717 6.48 155.321 6.736 155.761 7.248C156.217 7.752 156.445 8.408 156.445 9.216C156.445 10.04 156.185 10.732 155.665 11.292C155.153 11.844 154.477 12.12 153.637 12.12C152.989 12.12 152.481 11.996 152.113 11.748V14.4ZM153.673 7.38C153.033 7.38 152.513 7.628 152.113 8.124V10.8C152.537 11.08 153.017 11.22 153.553 11.22C154.121 11.22 154.573 11.04 154.909 10.68C155.253 10.312 155.425 9.836 155.425 9.252C155.425 8.684 155.269 8.232 154.957 7.896C154.645 7.552 154.217 7.38 153.673 7.38ZM158.109 7.74L157.857 6.972C158.393 6.644 158.993 6.48 159.657 6.48C160.385 6.48 160.913 6.66 161.241 7.02C161.569 7.38 161.733 7.936 161.733 8.688V12H160.821V11.304C160.397 11.824 159.821 12.084 159.093 12.084C158.597 12.084 158.197 11.936 157.893 11.64C157.589 11.336 157.437 10.928 157.437 10.416C157.437 9.888 157.625 9.472 158.001 9.168C158.377 8.856 158.869 8.7 159.477 8.7C160.045 8.7 160.493 8.816 160.821 9.048C160.821 8.44 160.737 8.004 160.569 7.74C160.401 7.476 160.077 7.344 159.597 7.344C159.109 7.344 158.613 7.476 158.109 7.74ZM159.429 11.22C159.965 11.22 160.429 10.988 160.821 10.524V9.84C160.485 9.6 160.081 9.48 159.609 9.48C159.281 9.48 159.005 9.56 158.781 9.72C158.565 9.872 158.457 10.088 158.457 10.368C158.457 10.632 158.541 10.84 158.709 10.992C158.885 11.144 159.125 11.22 159.429 11.22ZM168.261 12H167.301V9.72H164.301V12H163.341V6.6H164.301V8.82H167.301V6.6H168.261V12ZM174.149 10.524L174.605 11.22C174.141 11.82 173.449 12.12 172.529 12.12C171.665 12.12 170.965 11.864 170.429 11.352C169.901 10.84 169.637 10.156 169.637 9.3C169.637 8.508 169.897 7.84 170.417 7.296C170.937 6.752 171.589 6.48 172.373 6.48C173.317 6.48 174.025 6.716 174.497 7.188L174.053 7.944C173.637 7.568 173.121 7.38 172.505 7.38C172.001 7.38 171.565 7.564 171.197 7.932C170.837 8.292 170.657 8.748 170.657 9.3C170.657 9.884 170.841 10.348 171.209 10.692C171.585 11.044 172.049 11.22 172.601 11.22C173.225 11.22 173.741 10.988 174.149 10.524ZM180.407 12H179.447V7.56H177.551L177.491 8.472C177.427 9.216 177.331 9.836 177.203 10.332C177.083 10.82 176.923 11.188 176.723 11.436C176.531 11.676 176.327 11.844 176.111 11.94C175.895 12.028 175.631 12.072 175.319 12.072L175.247 11.136C175.335 11.144 175.427 11.132 175.523 11.1C175.619 11.06 175.723 10.98 175.835 10.86C175.955 10.74 176.059 10.58 176.147 10.38C176.243 10.18 176.327 9.9 176.399 9.54C176.479 9.172 176.531 8.752 176.555 8.28L176.651 6.6H180.407V12ZM186.217 7.98L183.097 12H182.137V6.6H183.097V10.62L186.217 6.6H187.177V12H186.217V7.98ZM189.883 14.4H188.923V6.6H189.883V7.236C190.075 7.012 190.339 6.832 190.675 6.696C191.011 6.552 191.359 6.48 191.719 6.48C192.487 6.48 193.091 6.736 193.531 7.248C193.987 7.752 194.215 8.408 194.215 9.216C194.215 10.04 193.955 10.732 193.435 11.292C192.923 11.844 192.247 12.12 191.407 12.12C190.759 12.12 190.251 11.996 189.883 11.748V14.4ZM191.443 7.38C190.803 7.38 190.283 7.628 189.883 8.124V10.8C190.307 11.08 190.787 11.22 191.323 11.22C191.891 11.22 192.343 11.04 192.679 10.68C193.023 10.312 193.195 9.836 193.195 9.252C193.195 8.684 193.039 8.232 192.727 7.896C192.415 7.552 191.987 7.38 191.443 7.38ZM199.196 6.6H200.288L198.128 12C197.736 12.952 197.396 13.584 197.108 13.896C196.804 14.232 196.456 14.4 196.064 14.4C195.712 14.4 195.372 14.288 195.044 14.064L195.356 13.332C195.612 13.452 195.812 13.512 195.956 13.512C196.18 13.512 196.38 13.416 196.556 13.224C196.74 13.032 196.924 12.72 197.108 12.288L197.228 12L194.636 6.6H195.788L197.372 10.032C197.404 10.088 197.512 10.36 197.696 10.848C197.768 10.584 197.852 10.308 197.948 10.02L199.196 6.6ZM205.323 10.656L205.623 11.412C205.103 11.884 204.427 12.12 203.595 12.12C202.715 12.12 202.015 11.864 201.495 11.352C200.967 10.84 200.703 10.156 200.703 9.3C200.703 8.492 200.951 7.82 201.447 7.284C201.935 6.748 202.615 6.48 203.487 6.48C204.207 6.48 204.803 6.712 205.275 7.176C205.755 7.632 205.995 8.224 205.995 8.952C205.995 9.184 205.975 9.4 205.935 9.6H201.783C201.823 10.104 202.011 10.5 202.347 10.788C202.691 11.076 203.131 11.22 203.667 11.22C204.371 11.22 204.923 11.032 205.323 10.656ZM203.439 7.38C202.967 7.38 202.575 7.512 202.263 7.776C201.959 8.04 201.779 8.388 201.723 8.82H204.999C204.975 8.372 204.823 8.02 204.543 7.764C204.271 7.508 203.903 7.38 203.439 7.38ZM208.258 12H207.298V6.6H208.174L210.25 9.276L212.218 6.6H213.07V12H212.11V8.064L210.238 10.572H210.202L208.258 8.064V12ZM216.549 12H214.809V6.6H215.769V8.22H216.657C217.393 8.22 217.933 8.388 218.277 8.724C218.621 9.052 218.793 9.504 218.793 10.08C218.793 10.624 218.613 11.08 218.253 11.448C217.909 11.816 217.341 12 216.549 12ZM220.785 12H219.825V6.6H220.785V12ZM216.477 9.12H215.769V11.1H216.465C216.921 11.1 217.253 11.02 217.461 10.86C217.669 10.7 217.773 10.452 217.773 10.116C217.773 9.452 217.341 9.12 216.477 9.12ZM226.769 10.656L227.069 11.412C226.549 11.884 225.873 12.12 225.041 12.12C224.161 12.12 223.461 11.864 222.941 11.352C222.413 10.84 222.149 10.156 222.149 9.3C222.149 8.492 222.397 7.82 222.893 7.284C223.381 6.748 224.061 6.48 224.933 6.48C225.653 6.48 226.249 6.712 226.721 7.176C227.201 7.632 227.441 8.224 227.441 8.952C227.441 9.184 227.421 9.4 227.381 9.6H223.229C223.269 10.104 223.457 10.5 223.793 10.788C224.137 11.076 224.577 11.22 225.113 11.22C225.817 11.22 226.369 11.032 226.769 10.656ZM224.885 7.38C224.413 7.38 224.021 7.512 223.709 7.776C223.405 8.04 223.225 8.388 223.169 8.82H226.445C226.421 8.372 226.269 8.02 225.989 7.764C225.717 7.508 225.349 7.38 224.885 7.38Z" fill="#EC1C24"/>
<circle cx="6" cy="8" r="6" fill="#EC1C24"/>
<path d="M23.228 37.12C22.644 37.12 22.1 36.996 21.596 36.748C21.1 36.5 20.728 36.184 20.48 35.8L21.044 35.116C21.308 35.428 21.636 35.68 22.028 35.872C22.428 36.064 22.808 36.16 23.168 36.16C23.744 36.16 24.204 36.016 24.548 35.728C24.9 35.44 25.076 35.048 25.076 34.552C25.076 34.136 24.932 33.804 24.644 33.556C24.356 33.308 23.952 33.184 23.432 33.184H22.46V32.224H23.36C23.728 32.224 24.052 32.092 24.332 31.828C24.612 31.548 24.752 31.208 24.752 30.808C24.752 30.376 24.612 30.04 24.332 29.8C24.052 29.56 23.684 29.44 23.228 29.44C22.484 29.44 21.848 29.752 21.32 30.376L20.72 29.704C21.008 29.32 21.384 29.02 21.848 28.804C22.312 28.588 22.808 28.48 23.336 28.48C24.08 28.48 24.672 28.68 25.112 29.08C25.552 29.472 25.772 30.016 25.772 30.712C25.772 31.104 25.664 31.476 25.448 31.828C25.24 32.172 24.944 32.44 24.56 32.632V32.668C25.048 32.764 25.424 32.992 25.688 33.352C25.96 33.704 26.096 34.136 26.096 34.648C26.096 35.408 25.816 36.008 25.256 36.448C24.696 36.896 24.02 37.12 23.228 37.12ZM28.0895 32.74L27.8375 31.972C28.3735 31.644 28.9735 31.48 29.6375 31.48C30.3655 31.48 30.8935 31.66 31.2215 32.02C31.5495 32.38 31.7135 32.936 31.7135 33.688V37H30.8015V36.304C30.3775 36.824 29.8015 37.084 29.0735 37.084C28.5775 37.084 28.1775 36.936 27.8735 36.64C27.5695 36.336 27.4175 35.928 27.4175 35.416C27.4175 34.888 27.6055 34.472 27.9815 34.168C28.3575 33.856 28.8495 33.7 29.4575 33.7C30.0255 33.7 30.4735 33.816 30.8015 34.048C30.8015 33.44 30.7175 33.004 30.5495 32.74C30.3815 32.476 30.0575 32.344 29.5775 32.344C29.0895 32.344 28.5935 32.476 28.0895 32.74ZM29.4095 36.22C29.9455 36.22 30.4095 35.988 30.8015 35.524V34.84C30.4655 34.6 30.0615 34.48 29.5895 34.48C29.2615 34.48 28.9855 34.56 28.7615 34.72C28.5455 34.872 28.4375 35.088 28.4375 35.368C28.4375 35.632 28.5215 35.84 28.6895 35.992C28.8655 36.144 29.1055 36.22 29.4095 36.22ZM36.789 31.6H38.049L35.685 34.18L38.277 37H36.945L34.509 34.24L36.789 31.6ZM34.281 37H33.321V31.6H34.281V37ZM40.2576 39.4H39.2976V31.6H40.2576V32.236C40.4496 32.012 40.7136 31.832 41.0496 31.696C41.3856 31.552 41.7336 31.48 42.0936 31.48C42.8616 31.48 43.4656 31.736 43.9056 32.248C44.3616 32.752 44.5896 33.408 44.5896 34.216C44.5896 35.04 44.3296 35.732 43.8096 36.292C43.2976 36.844 42.6216 37.12 41.7816 37.12C41.1336 37.12 40.6256 36.996 40.2576 36.748V39.4ZM41.8176 32.38C41.1776 32.38 40.6576 32.628 40.2576 33.124V35.8C40.6816 36.08 41.1616 36.22 41.6976 36.22C42.2656 36.22 42.7176 36.04 43.0536 35.68C43.3976 35.312 43.5696 34.836 43.5696 34.252C43.5696 33.684 43.4136 33.232 43.1016 32.896C42.7896 32.552 42.3616 32.38 41.8176 32.38ZM47.7056 37H45.9656V31.6H46.9256V33.22H47.8136C48.5496 33.22 49.0896 33.388 49.4336 33.724C49.7776 34.052 49.9496 34.504 49.9496 35.08C49.9496 35.624 49.7696 36.08 49.4096 36.448C49.0656 36.816 48.4976 37 47.7056 37ZM51.9416 37H50.9816V31.6H51.9416V37ZM47.6336 34.12H46.9256V36.1H47.6216C48.0776 36.1 48.4096 36.02 48.6176 35.86C48.8256 35.7 48.9296 35.452 48.9296 35.116C48.9296 34.452 48.4976 34.12 47.6336 34.12ZM54.9608 32.56H52.9808V31.6H57.9008V32.56H55.9208V37H54.9608V32.56ZM60.6899 37H58.9499V31.6H59.9099V33.22H60.7979C61.5339 33.22 62.0739 33.388 62.4179 33.724C62.7619 34.052 62.9339 34.504 62.9339 35.08C62.9339 35.624 62.7539 36.08 62.3939 36.448C62.0499 36.816 61.4819 37 60.6899 37ZM64.9259 37H63.9659V31.6H64.9259V37ZM60.6179 34.12H59.9099V36.1H60.6059C61.0619 36.1 61.3939 36.02 61.6019 35.86C61.8099 35.7 61.9139 35.452 61.9139 35.116C61.9139 34.452 61.4819 34.12 60.6179 34.12ZM70.9092 35.656L71.2092 36.412C70.6892 36.884 70.0132 37.12 69.1812 37.12C68.3012 37.12 67.6012 36.864 67.0812 36.352C66.5532 35.84 66.2892 35.156 66.2892 34.3C66.2892 33.492 66.5372 32.82 67.0332 32.284C67.5212 31.748 68.2012 31.48 69.0732 31.48C69.7932 31.48 70.3892 31.712 70.8612 32.176C71.3412 32.632 71.5812 33.224 71.5812 33.952C71.5812 34.184 71.5612 34.4 71.5212 34.6H67.3692C67.4092 35.104 67.5972 35.5 67.9332 35.788C68.2772 36.076 68.7172 36.22 69.2532 36.22C69.9572 36.22 70.5092 36.032 70.9092 35.656ZM69.0252 32.38C68.5532 32.38 68.1612 32.512 67.8492 32.776C67.5452 33.04 67.3652 33.388 67.3092 33.82H70.5852C70.5612 33.372 70.4092 33.02 70.1292 32.764C69.8572 32.508 69.4892 32.38 69.0252 32.38ZM72.6675 36.448C72.6675 36.256 72.7275 36.104 72.8475 35.992C72.9675 35.872 73.1355 35.812 73.3515 35.812C73.6075 35.812 73.8155 35.92 73.9755 36.136C74.1355 36.344 74.2155 36.624 74.2155 36.976C74.2155 37.408 74.0955 37.78 73.8555 38.092C73.6235 38.412 73.3035 38.632 72.8955 38.752L72.6315 38.296C73.0475 38.168 73.3035 37.9 73.3995 37.492C73.4555 37.22 73.4515 37.02 73.3875 36.892C73.3395 36.964 73.2515 37 73.1235 37C73.0035 37 72.8955 36.948 72.7995 36.844C72.7115 36.732 72.6675 36.6 72.6675 36.448ZM82.5717 37H81.6117V32.5H78.6717V37H77.7117V31.6H82.5717V37ZM84.7413 36.328C84.2133 35.784 83.9493 35.108 83.9493 34.3C83.9493 33.484 84.2133 32.812 84.7413 32.284C85.2773 31.748 85.9733 31.48 86.8293 31.48C87.6853 31.48 88.3773 31.748 88.9053 32.284C89.4413 32.812 89.7093 33.484 89.7093 34.3C89.7093 35.116 89.4413 35.792 88.9053 36.328C88.3773 36.856 87.6853 37.12 86.8293 37.12C85.9813 37.12 85.2853 36.856 84.7413 36.328ZM85.4973 32.92C85.1453 33.272 84.9693 33.732 84.9693 34.3C84.9693 34.868 85.1413 35.328 85.4853 35.68C85.8373 36.04 86.2853 36.22 86.8293 36.22C87.3733 36.22 87.8173 36.044 88.1613 35.692C88.5133 35.332 88.6893 34.868 88.6893 34.3C88.6893 33.748 88.5133 33.288 88.1613 32.92C87.8173 32.56 87.3733 32.38 86.8293 32.38C86.2853 32.38 85.8413 32.56 85.4973 32.92ZM97.9418 35.524L98.3978 36.22C97.9338 36.82 97.2418 37.12 96.3218 37.12C95.4578 37.12 94.7578 36.864 94.2218 36.352C93.6938 35.84 93.4298 35.156 93.4298 34.3C93.4298 33.508 93.6898 32.84 94.2098 32.296C94.7298 31.752 95.3818 31.48 96.1658 31.48C97.1098 31.48 97.8178 31.716 98.2898 32.188L97.8458 32.944C97.4298 32.568 96.9138 32.38 96.2978 32.38C95.7938 32.38 95.3578 32.564 94.9898 32.932C94.6298 33.292 94.4498 33.748 94.4498 34.3C94.4498 34.884 94.6338 35.348 95.0018 35.692C95.3778 36.044 95.8418 36.22 96.3938 36.22C97.0178 36.22 97.5338 35.988 97.9418 35.524ZM104.509 37H103.549V32.5H100.609V37H99.6492V31.6H104.509V37ZM110.327 32.98L107.207 37H106.247V31.6H107.207V35.62L110.327 31.6H111.287V37H110.327V32.98ZM117.184 35.524L117.64 36.22C117.176 36.82 116.484 37.12 115.564 37.12C114.7 37.12 114 36.864 113.464 36.352C112.936 35.84 112.672 35.156 112.672 34.3C112.672 33.508 112.932 32.84 113.452 32.296C113.972 31.752 114.624 31.48 115.408 31.48C116.352 31.48 117.06 31.716 117.532 32.188L117.088 32.944C116.672 32.568 116.156 32.38 115.54 32.38C115.036 32.38 114.6 32.564 114.232 32.932C113.872 33.292 113.692 33.748 113.692 34.3C113.692 34.884 113.876 35.348 114.244 35.692C114.62 36.044 115.084 36.22 115.636 36.22C116.26 36.22 116.776 35.988 117.184 35.524ZM122.359 31.6H123.619L121.255 34.18L123.847 37H122.515L120.079 34.24L122.359 31.6ZM119.851 37H118.891V31.6H119.851V37ZM125.156 32.74L124.904 31.972C125.44 31.644 126.04 31.48 126.704 31.48C127.432 31.48 127.96 31.66 128.288 32.02C128.616 32.38 128.78 32.936 128.78 33.688V37H127.868V36.304C127.444 36.824 126.868 37.084 126.14 37.084C125.644 37.084 125.244 36.936 124.94 36.64C124.636 36.336 124.484 35.928 124.484 35.416C124.484 34.888 124.672 34.472 125.048 34.168C125.424 33.856 125.916 33.7 126.524 33.7C127.092 33.7 127.54 33.816 127.868 34.048C127.868 33.44 127.784 33.004 127.616 32.74C127.448 32.476 127.124 32.344 126.644 32.344C126.156 32.344 125.66 32.476 125.156 32.74ZM126.476 36.22C127.012 36.22 127.476 35.988 127.868 35.524V34.84C127.532 34.6 127.128 34.48 126.656 34.48C126.328 34.48 126.052 34.56 125.828 34.72C125.612 34.872 125.504 35.088 125.504 35.368C125.504 35.632 125.588 35.84 125.756 35.992C125.932 36.144 126.172 36.22 126.476 36.22ZM131.347 37H130.387V31.6H131.263L133.339 34.276L135.307 31.6H136.159V37H135.199V33.064L133.327 35.572H133.291L131.347 33.064V37Z" fill="#333333"/>
<circle cx="6" cy="33" r="6" fill="#333333"/>
<path d="M20.6 55.8C20.6 54.584 21.004 53.56 21.812 52.728C22.62 51.896 23.644 51.48 24.884 51.48C26.116 51.48 27.136 51.884 27.944 52.692C28.76 53.5 29.168 54.536 29.168 55.8C29.168 57.032 28.76 58.064 27.944 58.896C27.128 59.712 26.108 60.12 24.884 60.12C23.66 60.12 22.636 59.716 21.812 58.908C21.004 58.1 20.6 57.064 20.6 55.8ZM21.68 55.8C21.68 56.744 21.988 57.544 22.604 58.2C23.22 58.84 23.98 59.16 24.884 59.16C25.828 59.16 26.596 58.84 27.188 58.2C27.788 57.56 28.088 56.76 28.088 55.8C28.088 54.84 27.78 54.04 27.164 53.4C26.548 52.76 25.788 52.44 24.884 52.44C23.964 52.44 23.2 52.756 22.592 53.388C21.984 54.02 21.68 54.824 21.68 55.8ZM34.8134 51.48L35.3294 52.236C35.1374 52.5 34.9054 52.68 34.6334 52.776C34.3374 52.88 34.0014 52.96 33.6254 53.016C33.2574 53.072 32.9094 53.172 32.5814 53.316C31.7654 53.692 31.3094 54.56 31.2134 55.92H31.2374C31.4134 55.544 31.6974 55.24 32.0894 55.008C32.4894 54.776 32.9174 54.66 33.3734 54.66C34.1414 54.66 34.7494 54.904 35.1974 55.392C35.6534 55.88 35.8814 56.532 35.8814 57.348C35.8814 58.116 35.6214 58.772 35.1014 59.316C34.5894 59.852 33.9254 60.12 33.1094 60.12C32.2294 60.12 31.5334 59.82 31.0214 59.22C30.5094 58.628 30.2534 57.808 30.2534 56.76C30.2534 54.424 30.9214 52.972 32.2574 52.404C32.5614 52.268 32.9134 52.168 33.3134 52.104C33.6254 52.048 33.8494 52.004 33.9854 51.972C34.1214 51.94 34.2654 51.884 34.4174 51.804C34.5774 51.724 34.7094 51.616 34.8134 51.48ZM31.2734 56.94C31.2734 57.628 31.4414 58.18 31.7774 58.596C32.1134 59.012 32.5494 59.22 33.0854 59.22C33.6054 59.22 34.0294 59.044 34.3574 58.692C34.6934 58.348 34.8614 57.916 34.8614 57.396C34.8614 56.844 34.7054 56.4 34.3934 56.064C34.0894 55.728 33.6694 55.56 33.1334 55.56C32.6454 55.56 32.2374 55.696 31.9094 55.968C31.5654 56.248 31.3534 56.572 31.2734 56.94ZM38.2185 62.4H37.2585V54.6H38.2185V55.236C38.4105 55.012 38.6745 54.832 39.0105 54.696C39.3465 54.552 39.6945 54.48 40.0545 54.48C40.8225 54.48 41.4265 54.736 41.8665 55.248C42.3225 55.752 42.5505 56.408 42.5505 57.216C42.5505 58.04 42.2905 58.732 41.7705 59.292C41.2585 59.844 40.5825 60.12 39.7425 60.12C39.0945 60.12 38.5865 59.996 38.2185 59.748V62.4ZM39.7785 55.38C39.1385 55.38 38.6185 55.628 38.2185 56.124V58.8C38.6425 59.08 39.1225 59.22 39.6585 59.22C40.2265 59.22 40.6785 59.04 41.0145 58.68C41.3585 58.312 41.5305 57.836 41.5305 57.252C41.5305 56.684 41.3745 56.232 41.0625 55.896C40.7505 55.552 40.3225 55.38 39.7785 55.38ZM44.2145 55.74L43.9625 54.972C44.4985 54.644 45.0985 54.48 45.7625 54.48C46.4905 54.48 47.0185 54.66 47.3465 55.02C47.6745 55.38 47.8385 55.936 47.8385 56.688V60H46.9265V59.304C46.5025 59.824 45.9265 60.084 45.1985 60.084C44.7025 60.084 44.3025 59.936 43.9985 59.64C43.6945 59.336 43.5425 58.928 43.5425 58.416C43.5425 57.888 43.7305 57.472 44.1065 57.168C44.4825 56.856 44.9745 56.7 45.5825 56.7C46.1505 56.7 46.5985 56.816 46.9265 57.048C46.9265 56.44 46.8425 56.004 46.6745 55.74C46.5065 55.476 46.1825 55.344 45.7025 55.344C45.2145 55.344 44.7185 55.476 44.2145 55.74ZM45.5345 59.22C46.0705 59.22 46.5345 58.988 46.9265 58.524V57.84C46.5905 57.6 46.1865 57.48 45.7145 57.48C45.3865 57.48 45.1105 57.56 44.8865 57.72C44.6705 57.872 44.5625 58.088 44.5625 58.368C44.5625 58.632 44.6465 58.84 44.8145 58.992C44.9905 59.144 45.2305 59.22 45.5345 59.22ZM51.234 60.12C50.826 60.12 50.394 60.052 49.938 59.916C49.498 59.772 49.186 59.596 49.002 59.388L49.494 58.668C49.71 58.844 49.966 58.988 50.262 59.1C50.566 59.204 50.842 59.256 51.09 59.256C51.506 59.256 51.846 59.176 52.11 59.016C52.374 58.848 52.506 58.632 52.506 58.368C52.506 58.144 52.41 57.972 52.218 57.852C52.034 57.732 51.778 57.672 51.45 57.672H50.538V56.892H51.39C51.662 56.892 51.886 56.82 52.062 56.676C52.238 56.524 52.326 56.34 52.326 56.124C52.326 55.884 52.222 55.696 52.014 55.56C51.806 55.416 51.526 55.344 51.174 55.344C50.606 55.344 50.066 55.544 49.554 55.944L49.182 55.2C49.398 54.976 49.698 54.8 50.082 54.672C50.474 54.544 50.886 54.48 51.318 54.48C51.958 54.48 52.454 54.608 52.806 54.864C53.166 55.12 53.346 55.476 53.346 55.932C53.346 56.556 53.03 56.98 52.398 57.204V57.228C52.75 57.268 53.026 57.408 53.226 57.648C53.426 57.88 53.526 58.164 53.526 58.5C53.526 58.996 53.314 59.392 52.89 59.688C52.474 59.976 51.922 60.12 51.234 60.12ZM55.421 59.328C54.893 58.784 54.629 58.108 54.629 57.3C54.629 56.484 54.893 55.812 55.421 55.284C55.957 54.748 56.653 54.48 57.509 54.48C58.365 54.48 59.057 54.748 59.585 55.284C60.121 55.812 60.389 56.484 60.389 57.3C60.389 58.116 60.121 58.792 59.585 59.328C59.057 59.856 58.365 60.12 57.509 60.12C56.661 60.12 55.965 59.856 55.421 59.328ZM56.177 55.92C55.825 56.272 55.649 56.732 55.649 57.3C55.649 57.868 55.821 58.328 56.165 58.68C56.517 59.04 56.965 59.22 57.509 59.22C58.053 59.22 58.497 59.044 58.841 58.692C59.193 58.332 59.369 57.868 59.369 57.3C59.369 56.748 59.193 56.288 58.841 55.92C58.497 55.56 58.053 55.38 57.509 55.38C56.965 55.38 56.521 55.56 56.177 55.92ZM61.7742 60V54.6C61.8142 54.6 61.8702 54.6 61.9422 54.6C62.0142 54.592 62.1182 54.588 62.2542 54.588C62.3902 54.58 62.5142 54.576 62.6262 54.576C63.2182 54.56 63.5862 54.552 63.7302 54.552C65.2822 54.552 66.0582 55.016 66.0582 55.944C66.0582 56.264 65.9582 56.54 65.7582 56.772C65.5582 56.996 65.2982 57.132 64.9782 57.18V57.204C65.8182 57.356 66.2382 57.78 66.2382 58.476C66.2382 59.524 65.4102 60.048 63.7542 60.048C63.6742 60.048 63.3222 60.04 62.6982 60.024C62.5782 60.024 62.4462 60.02 62.3022 60.012C62.1582 60.012 62.0462 60.008 61.9662 60C61.8862 60 61.8222 60 61.7742 60ZM63.8862 57.576H62.7342V59.232C63.3102 59.256 63.6782 59.268 63.8382 59.268C64.7582 59.268 65.2182 58.98 65.2182 58.404C65.2182 57.852 64.7742 57.576 63.8862 57.576ZM63.8022 55.332C63.5702 55.332 63.2142 55.344 62.7342 55.368V56.976H63.9462C64.2742 56.976 64.5382 56.9 64.7382 56.748C64.9382 56.596 65.0382 56.392 65.0382 56.136C65.0382 55.6 64.6262 55.332 63.8022 55.332ZM67.9918 55.74L67.7398 54.972C68.2758 54.644 68.8758 54.48 69.5398 54.48C70.2678 54.48 70.7958 54.66 71.1238 55.02C71.4518 55.38 71.6158 55.936 71.6158 56.688V60H70.7038V59.304C70.2798 59.824 69.7038 60.084 68.9758 60.084C68.4798 60.084 68.0798 59.936 67.7758 59.64C67.4718 59.336 67.3198 58.928 67.3198 58.416C67.3198 57.888 67.5078 57.472 67.8838 57.168C68.2598 56.856 68.7518 56.7 69.3598 56.7C69.9278 56.7 70.3758 56.816 70.7038 57.048C70.7038 56.44 70.6198 56.004 70.4518 55.74C70.2838 55.476 69.9598 55.344 69.4798 55.344C68.9918 55.344 68.4958 55.476 67.9918 55.74ZM69.3118 59.22C69.8478 59.22 70.3118 58.988 70.7038 58.524V57.84C70.3678 57.6 69.9638 57.48 69.4918 57.48C69.1638 57.48 68.8878 57.56 68.6638 57.72C68.4478 57.872 68.3398 58.088 68.3398 58.368C68.3398 58.632 68.4238 58.84 68.5918 58.992C68.7678 59.144 69.0078 59.22 69.3118 59.22ZM74.5194 55.56H72.5394V54.6H77.4594V55.56H75.4794V60H74.5194V55.56ZM82.5928 58.656L82.8928 59.412C82.3728 59.884 81.6968 60.12 80.8648 60.12C79.9848 60.12 79.2848 59.864 78.7648 59.352C78.2368 58.84 77.9728 58.156 77.9728 57.3C77.9728 56.492 78.2208 55.82 78.7168 55.284C79.2048 54.748 79.8848 54.48 80.7568 54.48C81.4768 54.48 82.0728 54.712 82.5448 55.176C83.0248 55.632 83.2648 56.224 83.2648 56.952C83.2648 57.184 83.2448 57.4 83.2048 57.6H79.0527C79.0928 58.104 79.2808 58.5 79.6168 58.788C79.9608 59.076 80.4008 59.22 80.9368 59.22C81.6408 59.22 82.1928 59.032 82.5928 58.656ZM80.7088 55.38C80.2368 55.38 79.8448 55.512 79.5328 55.776C79.2288 56.04 79.0488 56.388 78.9928 56.82H82.2688C82.2448 56.372 82.0928 56.02 81.8128 55.764C81.5408 55.508 81.1728 55.38 80.7088 55.38ZM89.0122 60H88.0522V55.56H86.1562L86.0962 56.472C86.0322 57.216 85.9362 57.836 85.8082 58.332C85.6882 58.82 85.5282 59.188 85.3282 59.436C85.1362 59.676 84.9322 59.844 84.7162 59.94C84.5002 60.028 84.2362 60.072 83.9242 60.072L83.8522 59.136C83.9402 59.144 84.0322 59.132 84.1282 59.1C84.2242 59.06 84.3282 58.98 84.4402 58.86C84.5602 58.74 84.6642 58.58 84.7522 58.38C84.8482 58.18 84.9322 57.9 85.0042 57.54C85.0842 57.172 85.1362 56.752 85.1602 56.28L85.2562 54.6H89.0122V60ZM92.5669 60H90.7429V54.6H91.7029V56.22H92.6869C93.4229 56.22 93.9629 56.388 94.3069 56.724C94.6509 57.052 94.8229 57.504 94.8229 58.08C94.8229 58.624 94.6429 59.08 94.2829 59.448C93.9229 59.816 93.3509 60 92.5669 60ZM92.5069 57.12H91.7029V59.1H92.4949C93.3669 59.1 93.8029 58.772 93.8029 58.116C93.8029 57.452 93.3709 57.12 92.5069 57.12ZM101.03 60H100.07V57.72H97.0701V60H96.1101V54.6H97.0701V56.82H100.07V54.6H101.03V60ZM104.506 60H102.766V54.6H103.726V56.22H104.614C105.35 56.22 105.89 56.388 106.234 56.724C106.578 57.052 106.75 57.504 106.75 58.08C106.75 58.624 106.57 59.08 106.21 59.448C105.866 59.816 105.298 60 104.506 60ZM108.742 60H107.782V54.6H108.742V60ZM104.434 57.12H103.726V59.1H104.422C104.878 59.1 105.21 59.02 105.418 58.86C105.626 58.7 105.73 58.452 105.73 58.116C105.73 57.452 105.298 57.12 104.434 57.12ZM114.726 58.656L115.026 59.412C114.506 59.884 113.83 60.12 112.998 60.12C112.118 60.12 111.418 59.864 110.898 59.352C110.37 58.84 110.106 58.156 110.106 57.3C110.106 56.492 110.354 55.82 110.85 55.284C111.338 54.748 112.018 54.48 112.89 54.48C113.61 54.48 114.206 54.712 114.678 55.176C115.158 55.632 115.398 56.224 115.398 56.952C115.398 57.184 115.378 57.4 115.338 57.6H111.186C111.226 58.104 111.414 58.5 111.75 58.788C112.094 59.076 112.534 59.22 113.07 59.22C113.774 59.22 114.326 59.032 114.726 58.656ZM112.842 55.38C112.37 55.38 111.978 55.512 111.666 55.776C111.362 56.04 111.182 56.388 111.126 56.82H114.402C114.378 56.372 114.226 56.02 113.946 55.764C113.674 55.508 113.306 55.38 112.842 55.38ZM124.255 60H123.295V55.5H120.355V60H119.395V54.6H124.255V60ZM126.425 59.328C125.897 58.784 125.633 58.108 125.633 57.3C125.633 56.484 125.897 55.812 126.425 55.284C126.961 54.748 127.657 54.48 128.513 54.48C129.369 54.48 130.061 54.748 130.589 55.284C131.125 55.812 131.393 56.484 131.393 57.3C131.393 58.116 131.125 58.792 130.589 59.328C130.061 59.856 129.369 60.12 128.513 60.12C127.665 60.12 126.969 59.856 126.425 59.328ZM127.181 55.92C126.829 56.272 126.653 56.732 126.653 57.3C126.653 57.868 126.825 58.328 127.169 58.68C127.521 59.04 127.969 59.22 128.513 59.22C129.057 59.22 129.501 59.044 129.845 58.692C130.197 58.332 130.373 57.868 130.373 57.3C130.373 56.748 130.197 56.288 129.845 55.92C129.501 55.56 129.057 55.38 128.513 55.38C127.969 55.38 127.525 55.56 127.181 55.92ZM140.333 60H139.373V55.5H136.433V60H135.473V54.6H140.333V60ZM143.031 62.4H142.071V54.6H143.031V55.236C143.223 55.012 143.487 54.832 143.823 54.696C144.159 54.552 144.507 54.48 144.867 54.48C145.635 54.48 146.239 54.736 146.679 55.248C147.135 55.752 147.363 56.408 147.363 57.216C147.363 58.04 147.103 58.732 146.583 59.292C146.071 59.844 145.395 60.12 144.555 60.12C143.907 60.12 143.399 59.996 143.031 59.748V62.4ZM144.591 55.38C143.951 55.38 143.431 55.628 143.031 56.124V58.8C143.455 59.08 143.935 59.22 144.471 59.22C145.039 59.22 145.491 59.04 145.827 58.68C146.171 58.312 146.343 57.836 146.343 57.252C146.343 56.684 146.187 56.232 145.875 55.896C145.563 55.552 145.135 55.38 144.591 55.38ZM152.999 58.656L153.299 59.412C152.779 59.884 152.103 60.12 151.271 60.12C150.391 60.12 149.691 59.864 149.171 59.352C148.643 58.84 148.379 58.156 148.379 57.3C148.379 56.492 148.627 55.82 149.123 55.284C149.611 54.748 150.291 54.48 151.163 54.48C151.883 54.48 152.479 54.712 152.951 55.176C153.431 55.632 153.671 56.224 153.671 56.952C153.671 57.184 153.651 57.4 153.611 57.6H149.459C149.499 58.104 149.687 58.5 150.023 58.788C150.367 59.076 150.807 59.22 151.343 59.22C152.047 59.22 152.599 59.032 152.999 58.656ZM151.115 55.38C150.643 55.38 150.251 55.512 149.939 55.776C149.635 56.04 149.455 56.388 149.399 56.82H152.675C152.651 56.372 152.499 56.02 152.219 55.764C151.947 55.508 151.579 55.38 151.115 55.38ZM154.918 61.32H154.018V59.1H154.69C154.89 58.852 155.066 58.452 155.218 57.9C155.37 57.34 155.47 56.716 155.518 56.028L155.602 54.6H159.286V59.1H160.186V61.32H159.286V60H154.918V61.32ZM156.502 55.5L156.442 56.4C156.394 57 156.298 57.548 156.154 58.044C156.01 58.54 155.862 58.892 155.71 59.1H158.326V55.5H156.502ZM161.231 60V54.6C161.271 54.6 161.327 54.6 161.399 54.6C161.471 54.592 161.575 54.588 161.711 54.588C161.847 54.58 161.971 54.576 162.083 54.576C162.675 54.56 163.043 54.552 163.187 54.552C164.739 54.552 165.515 55.016 165.515 55.944C165.515 56.264 165.415 56.54 165.215 56.772C165.015 56.996 164.755 57.132 164.435 57.18V57.204C165.275 57.356 165.695 57.78 165.695 58.476C165.695 59.524 164.867 60.048 163.211 60.048C163.131 60.048 162.779 60.04 162.155 60.024C162.035 60.024 161.903 60.02 161.759 60.012C161.615 60.012 161.503 60.008 161.423 60C161.343 60 161.279 60 161.231 60ZM163.343 57.576H162.191V59.232C162.767 59.256 163.135 59.268 163.295 59.268C164.215 59.268 164.675 58.98 164.675 58.404C164.675 57.852 164.231 57.576 163.343 57.576ZM163.259 55.332C163.027 55.332 162.671 55.344 162.191 55.368V56.976H163.403C163.731 56.976 163.995 56.9 164.195 56.748C164.395 56.596 164.495 56.392 164.495 56.136C164.495 55.6 164.083 55.332 163.259 55.332ZM167.449 55.74L167.197 54.972C167.733 54.644 168.333 54.48 168.997 54.48C169.725 54.48 170.253 54.66 170.581 55.02C170.909 55.38 171.073 55.936 171.073 56.688V60H170.161V59.304C169.737 59.824 169.161 60.084 168.433 60.084C167.937 60.084 167.537 59.936 167.233 59.64C166.929 59.336 166.777 58.928 166.777 58.416C166.777 57.888 166.965 57.472 167.341 57.168C167.717 56.856 168.209 56.7 168.817 56.7C169.385 56.7 169.833 56.816 170.161 57.048C170.161 56.44 170.077 56.004 169.909 55.74C169.741 55.476 169.417 55.344 168.937 55.344C168.449 55.344 167.953 55.476 167.449 55.74ZM168.769 59.22C169.305 59.22 169.769 58.988 170.161 58.524V57.84C169.825 57.6 169.421 57.48 168.949 57.48C168.621 57.48 168.345 57.56 168.121 57.72C167.905 57.872 167.797 58.088 167.797 58.368C167.797 58.632 167.881 58.84 168.049 58.992C168.225 59.144 168.465 59.22 168.769 59.22ZM173.64 62.4H172.68V54.6H173.64V55.236C173.832 55.012 174.096 54.832 174.432 54.696C174.768 54.552 175.116 54.48 175.476 54.48C176.244 54.48 176.848 54.736 177.288 55.248C177.744 55.752 177.972 56.408 177.972 57.216C177.972 58.04 177.712 58.732 177.192 59.292C176.68 59.844 176.004 60.12 175.164 60.12C174.516 60.12 174.008 59.996 173.64 59.748V62.4ZM175.2 55.38C174.56 55.38 174.04 55.628 173.64 56.124V58.8C174.064 59.08 174.544 59.22 175.08 59.22C175.648 59.22 176.1 59.04 176.436 58.68C176.78 58.312 176.952 57.836 176.952 57.252C176.952 56.684 176.796 56.232 176.484 55.896C176.172 55.552 175.744 55.38 175.2 55.38ZM183.428 55.98L180.308 60H179.348V54.6H180.308V58.62L183.428 54.6H184.388V60H183.428V55.98ZM187.43 55.56H185.45V54.6H190.37V55.56H188.39V60H187.43V55.56ZM195.503 58.656L195.803 59.412C195.283 59.884 194.607 60.12 193.775 60.12C192.895 60.12 192.195 59.864 191.675 59.352C191.147 58.84 190.883 58.156 190.883 57.3C190.883 56.492 191.131 55.82 191.627 55.284C192.115 54.748 192.795 54.48 193.667 54.48C194.387 54.48 194.983 54.712 195.455 55.176C195.935 55.632 196.175 56.224 196.175 56.952C196.175 57.184 196.155 57.4 196.115 57.6H191.963C192.003 58.104 192.191 58.5 192.527 58.788C192.871 59.076 193.311 59.22 193.847 59.22C194.551 59.22 195.103 59.032 195.503 58.656ZM193.619 55.38C193.147 55.38 192.755 55.512 192.443 55.776C192.139 56.04 191.959 56.388 191.903 56.82H195.179C195.155 56.372 195.003 56.02 194.723 55.764C194.451 55.508 194.083 55.38 193.619 55.38ZM201.922 60H200.962V55.56H199.066L199.006 56.472C198.942 57.216 198.846 57.836 198.718 58.332C198.598 58.82 198.438 59.188 198.238 59.436C198.046 59.676 197.842 59.844 197.626 59.94C197.41 60.028 197.146 60.072 196.834 60.072L196.762 59.136C196.85 59.144 196.942 59.132 197.038 59.1C197.134 59.06 197.238 58.98 197.35 58.86C197.47 58.74 197.574 58.58 197.662 58.38C197.758 58.18 197.842 57.9 197.914 57.54C197.994 57.172 198.046 56.752 198.07 56.28L198.166 54.6H201.922V60ZM205.477 60H203.653V54.6H204.613V56.22H205.597C206.333 56.22 206.873 56.388 207.217 56.724C207.561 57.052 207.733 57.504 207.733 58.08C207.733 58.624 207.553 59.08 207.193 59.448C206.833 59.816 206.261 60 205.477 60ZM205.417 57.12H204.613V59.1H205.405C206.277 59.1 206.713 58.772 206.713 58.116C206.713 57.452 206.281 57.12 205.417 57.12ZM213.94 60H212.98V57.72H209.98V60H209.02V54.6H209.98V56.82H212.98V54.6H213.94V60ZM216.109 59.328C215.581 58.784 215.317 58.108 215.317 57.3C215.317 56.484 215.581 55.812 216.109 55.284C216.645 54.748 217.341 54.48 218.197 54.48C219.053 54.48 219.745 54.748 220.273 55.284C220.809 55.812 221.077 56.484 221.077 57.3C221.077 58.116 220.809 58.792 220.273 59.328C219.745 59.856 219.053 60.12 218.197 60.12C217.349 60.12 216.653 59.856 216.109 59.328ZM216.865 55.92C216.513 56.272 216.337 56.732 216.337 57.3C216.337 57.868 216.509 58.328 216.853 58.68C217.205 59.04 217.653 59.22 218.197 59.22C218.741 59.22 219.185 59.044 219.529 58.692C219.881 58.332 220.057 57.868 220.057 57.3C220.057 56.748 219.881 56.288 219.529 55.92C219.185 55.56 218.741 55.38 218.197 55.38C217.653 55.38 217.209 55.56 216.865 55.92ZM226.542 55.98L223.422 60H222.462V54.6H223.422V58.62L226.542 54.6H227.502V60H226.542V55.98ZM223.23 51.84H224.13C224.178 52.472 224.486 52.788 225.054 52.788C225.59 52.788 225.882 52.472 225.93 51.84H226.83C226.83 52.328 226.662 52.732 226.326 53.052C225.998 53.364 225.574 53.52 225.054 53.52C224.486 53.52 224.038 53.368 223.71 53.064C223.39 52.752 223.23 52.344 223.23 51.84ZM232.902 62.4H231.942V54.6H232.902V55.236C233.094 55.012 233.358 54.832 233.694 54.696C234.03 54.552 234.378 54.48 234.738 54.48C235.506 54.48 236.11 54.736 236.55 55.248C237.006 55.752 237.234 56.408 237.234 57.216C237.234 58.04 236.974 58.732 236.454 59.292C235.942 59.844 235.266 60.12 234.426 60.12C233.778 60.12 233.27 59.996 232.902 59.748V62.4ZM234.462 55.38C233.822 55.38 233.302 55.628 232.902 56.124V58.8C233.326 59.08 233.806 59.22 234.342 59.22C234.91 59.22 235.362 59.04 235.698 58.68C236.042 58.312 236.214 57.836 236.214 57.252C236.214 56.684 236.058 56.232 235.746 55.896C235.434 55.552 235.006 55.38 234.462 55.38ZM242.87 58.656L243.17 59.412C242.65 59.884 241.974 60.12 241.142 60.12C240.262 60.12 239.562 59.864 239.042 59.352C238.514 58.84 238.25 58.156 238.25 57.3C238.25 56.492 238.498 55.82 238.994 55.284C239.482 54.748 240.162 54.48 241.034 54.48C241.754 54.48 242.35 54.712 242.822 55.176C243.302 55.632 243.542 56.224 243.542 56.952C243.542 57.184 243.522 57.4 243.482 57.6H239.33C239.37 58.104 239.558 58.5 239.894 58.788C240.238 59.076 240.678 59.22 241.214 59.22C241.918 59.22 242.47 59.032 242.87 58.656ZM240.986 55.38C240.514 55.38 240.122 55.512 239.81 55.776C239.506 56.04 239.326 56.388 239.27 56.82H242.546C242.522 56.372 242.37 56.02 242.09 55.764C241.818 55.508 241.45 55.38 240.986 55.38ZM245.804 60H244.844V54.6H248.264V55.5H245.804V60ZM253.272 55.98L250.152 60H249.192V54.6H250.152V58.62L253.272 54.6H254.232V60H253.272V55.98ZM260.129 58.524L260.585 59.22C260.121 59.82 259.429 60.12 258.509 60.12C257.645 60.12 256.945 59.864 256.409 59.352C255.881 58.84 255.617 58.156 255.617 57.3C255.617 56.508 255.877 55.84 256.397 55.296C256.917 54.752 257.569 54.48 258.353 54.48C259.297 54.48 260.005 54.716 260.477 55.188L260.033 55.944C259.617 55.568 259.101 55.38 258.485 55.38C257.981 55.38 257.545 55.564 257.177 55.932C256.817 56.292 256.637 56.748 256.637 57.3C256.637 57.884 256.821 58.348 257.189 58.692C257.565 59.044 258.029 59.22 258.581 59.22C259.205 59.22 259.721 58.988 260.129 58.524ZM263.062 55.56H261.082V54.6H266.002V55.56H264.022V60H263.062V55.56ZM268.012 62.4H267.052V54.6H268.012V55.236C268.204 55.012 268.468 54.832 268.804 54.696C269.14 54.552 269.488 54.48 269.848 54.48C270.616 54.48 271.22 54.736 271.66 55.248C272.116 55.752 272.344 56.408 272.344 57.216C272.344 58.04 272.084 58.732 271.564 59.292C271.052 59.844 270.376 60.12 269.536 60.12C268.888 60.12 268.38 59.996 268.012 59.748V62.4ZM269.572 55.38C268.932 55.38 268.412 55.628 268.012 56.124V58.8C268.436 59.08 268.916 59.22 269.452 59.22C270.02 59.22 270.472 59.04 270.808 58.68C271.152 58.312 271.324 57.836 271.324 57.252C271.324 56.684 271.168 56.232 270.856 55.896C270.544 55.552 270.116 55.38 269.572 55.38ZM274.007 55.74L273.755 54.972C274.291 54.644 274.891 54.48 275.555 54.48C276.283 54.48 276.811 54.66 277.139 55.02C277.467 55.38 277.631 55.936 277.631 56.688V60H276.719V59.304C276.295 59.824 275.719 60.084 274.991 60.084C274.495 60.084 274.095 59.936 273.791 59.64C273.487 59.336 273.335 58.928 273.335 58.416C273.335 57.888 273.523 57.472 273.899 57.168C274.275 56.856 274.767 56.7 275.375 56.7C275.943 56.7 276.391 56.816 276.719 57.048C276.719 56.44 276.635 56.004 276.467 55.74C276.299 55.476 275.975 55.344 275.495 55.344C275.007 55.344 274.511 55.476 274.007 55.74ZM275.327 59.22C275.863 59.22 276.327 58.988 276.719 58.524V57.84C276.383 57.6 275.979 57.48 275.507 57.48C275.179 57.48 274.903 57.56 274.679 57.72C274.463 57.872 274.355 58.088 274.355 58.368C274.355 58.632 274.439 58.84 274.607 58.992C274.783 59.144 275.023 59.22 275.327 59.22ZM284.039 60H279.239V54.6H280.199V59.1H283.079V54.6H284.039V59.1H284.939V61.32H284.039V60ZM290.057 55.98L286.937 60H285.977V54.6H286.937V58.62L290.057 54.6H291.017V60H290.057V55.98ZM296.842 55.98L293.722 60H292.762V54.6H293.722V58.62L296.842 54.6H297.802V60H296.842V55.98Z" fill="#0073B8"/>
<circle cx="6" cy="56" r="6" fill="#0073B8"/>
<path d="M20.6 79.8C20.6 78.584 21.004 77.56 21.812 76.728C22.62 75.896 23.644 75.48 24.884 75.48C26.116 75.48 27.136 75.884 27.944 76.692C28.76 77.5 29.168 78.536 29.168 79.8C29.168 81.032 28.76 82.064 27.944 82.896C27.128 83.712 26.108 84.12 24.884 84.12C23.66 84.12 22.636 83.716 21.812 82.908C21.004 82.1 20.6 81.064 20.6 79.8ZM21.68 79.8C21.68 80.744 21.988 81.544 22.604 82.2C23.22 82.84 23.98 83.16 24.884 83.16C25.828 83.16 26.596 82.84 27.188 82.2C27.788 81.56 28.088 80.76 28.088 79.8C28.088 78.84 27.78 78.04 27.164 77.4C26.548 76.76 25.788 76.44 24.884 76.44C23.964 76.44 23.2 76.756 22.592 77.388C21.984 78.02 21.68 78.824 21.68 79.8ZM31.9334 79.56H29.9534V78.6H34.8734V79.56H32.8934V84H31.9334V79.56ZM39.3906 78.6H40.6506L38.2866 81.18L40.8786 84H39.5466L37.1106 81.24L39.3906 78.6ZM36.8826 84H35.9226V78.6H36.8826V84ZM42.8592 86.4H41.8992V78.6H42.8592V79.236C43.0512 79.012 43.3152 78.832 43.6512 78.696C43.9872 78.552 44.3352 78.48 44.6952 78.48C45.4632 78.48 46.0672 78.736 46.5072 79.248C46.9632 79.752 47.1912 80.408 47.1912 81.216C47.1912 82.04 46.9312 82.732 46.4112 83.292C45.8992 83.844 45.2232 84.12 44.3832 84.12C43.7352 84.12 43.2272 83.996 42.8592 83.748V86.4ZM44.4192 79.38C43.7792 79.38 43.2592 79.628 42.8592 80.124V82.8C43.2832 83.08 43.7632 83.22 44.2992 83.22C44.8672 83.22 45.3192 83.04 45.6552 82.68C45.9992 82.312 46.1712 81.836 46.1712 81.252C46.1712 80.684 46.0152 80.232 45.7032 79.896C45.3912 79.552 44.9632 79.38 44.4192 79.38ZM50.3071 84H48.5671V78.6H49.5271V80.22H50.4151C51.1511 80.22 51.6911 80.388 52.0351 80.724C52.3791 81.052 52.5511 81.504 52.5511 82.08C52.5511 82.624 52.3711 83.08 52.0111 83.448C51.6671 83.816 51.0991 84 50.3071 84ZM54.5431 84H53.5831V78.6H54.5431V84ZM50.2351 81.12H49.5271V83.1H50.2231C50.6791 83.1 51.0111 83.02 51.2191 82.86C51.4271 82.7 51.5311 82.452 51.5311 82.116C51.5311 81.452 51.0991 81.12 50.2351 81.12ZM57.5623 79.56H55.5823V78.6H60.5023V79.56H58.5223V84H57.5623V79.56ZM63.2915 84H61.5515V78.6H62.5115V80.22H63.3995C64.1355 80.22 64.6755 80.388 65.0195 80.724C65.3635 81.052 65.5355 81.504 65.5355 82.08C65.5355 82.624 65.3555 83.08 64.9955 83.448C64.6515 83.816 64.0835 84 63.2915 84ZM67.5275 84H66.5675V78.6H67.5275V84ZM63.2195 81.12H62.5115V83.1H63.2075C63.6635 83.1 63.9955 83.02 64.2035 82.86C64.4115 82.7 64.5155 82.452 64.5155 82.116C64.5155 81.452 64.0835 81.12 63.2195 81.12ZM73.5107 82.656L73.8107 83.412C73.2907 83.884 72.6147 84.12 71.7827 84.12C70.9027 84.12 70.2027 83.864 69.6827 83.352C69.1547 82.84 68.8907 82.156 68.8907 81.3C68.8907 80.492 69.1387 79.82 69.6347 79.284C70.1227 78.748 70.8027 78.48 71.6747 78.48C72.3947 78.48 72.9907 78.712 73.4627 79.176C73.9427 79.632 74.1827 80.224 74.1827 80.952C74.1827 81.184 74.1627 81.4 74.1227 81.6H69.9707C70.0107 82.104 70.1987 82.5 70.5347 82.788C70.8787 83.076 71.3187 83.22 71.8547 83.22C72.5587 83.22 73.1107 83.032 73.5107 82.656ZM71.6267 79.38C71.1547 79.38 70.7627 79.512 70.4507 79.776C70.1467 80.04 69.9667 80.388 69.9107 80.82H73.1867C73.1627 80.372 73.0107 80.02 72.7307 79.764C72.4587 79.508 72.0907 79.38 71.6267 79.38ZM75.2691 83.448C75.2691 83.256 75.3291 83.104 75.4491 82.992C75.5691 82.872 75.7371 82.812 75.9531 82.812C76.2091 82.812 76.4171 82.92 76.5771 83.136C76.7371 83.344 76.8171 83.624 76.8171 83.976C76.8171 84.408 76.6971 84.78 76.4571 85.092C76.2251 85.412 75.9051 85.632 75.4971 85.752L75.2331 85.296C75.6491 85.168 75.9051 84.9 76.0011 84.492C76.0571 84.22 76.0531 84.02 75.9891 83.892C75.9411 83.964 75.8531 84 75.7251 84C75.6051 84 75.4971 83.948 75.4011 83.844C75.3131 83.732 75.2691 83.6 75.2691 83.448ZM81.6092 79.56H79.6292V78.6H84.5492V79.56H82.5692V84H81.6092V79.56ZM86.5584 86.4H85.5984V78.6H86.5584V79.236C86.7504 79.012 87.0144 78.832 87.3504 78.696C87.6864 78.552 88.0344 78.48 88.3944 78.48C89.1624 78.48 89.7664 78.736 90.2064 79.248C90.6624 79.752 90.8904 80.408 90.8904 81.216C90.8904 82.04 90.6304 82.732 90.1104 83.292C89.5984 83.844 88.9224 84.12 88.0824 84.12C87.4344 84.12 86.9264 83.996 86.5584 83.748V86.4ZM88.1184 79.38C87.4784 79.38 86.9584 79.628 86.5584 80.124V82.8C86.9824 83.08 87.4624 83.22 87.9984 83.22C88.5664 83.22 89.0184 83.04 89.3544 82.68C89.6984 82.312 89.8704 81.836 89.8704 81.252C89.8704 80.684 89.7144 80.232 89.4024 79.896C89.0904 79.552 88.6624 79.38 88.1184 79.38ZM92.5543 79.74L92.3023 78.972C92.8383 78.644 93.4383 78.48 94.1023 78.48C94.8303 78.48 95.3583 78.66 95.6863 79.02C96.0143 79.38 96.1783 79.936 96.1783 80.688V84H95.2663V83.304C94.8423 83.824 94.2663 84.084 93.5383 84.084C93.0423 84.084 92.6423 83.936 92.3383 83.64C92.0343 83.336 91.8823 82.928 91.8823 82.416C91.8823 81.888 92.0703 81.472 92.4463 81.168C92.8223 80.856 93.3143 80.7 93.9223 80.7C94.4903 80.7 94.9383 80.816 95.2663 81.048C95.2663 80.44 95.1823 80.004 95.0143 79.74C94.8463 79.476 94.5223 79.344 94.0423 79.344C93.5543 79.344 93.0583 79.476 92.5543 79.74ZM93.8743 83.22C94.4103 83.22 94.8743 82.988 95.2663 82.524V81.84C94.9303 81.6 94.5263 81.48 94.0543 81.48C93.7263 81.48 93.4503 81.56 93.2263 81.72C93.0103 81.872 92.9023 82.088 92.9023 82.368C92.9023 82.632 92.9863 82.84 93.1543 82.992C93.3303 83.144 93.5703 83.22 93.8743 83.22ZM102.706 84H101.746V81.72H98.7459V84H97.7859V78.6H98.7459V80.82H101.746V78.6H102.706V84ZM108.594 82.524L109.05 83.22C108.586 83.82 107.894 84.12 106.974 84.12C106.11 84.12 105.41 83.864 104.874 83.352C104.346 82.84 104.082 82.156 104.082 81.3C104.082 80.508 104.342 79.84 104.862 79.296C105.382 78.752 106.034 78.48 106.818 78.48C107.762 78.48 108.47 78.716 108.942 79.188L108.498 79.944C108.082 79.568 107.566 79.38 106.95 79.38C106.446 79.38 106.01 79.564 105.642 79.932C105.282 80.292 105.102 80.748 105.102 81.3C105.102 81.884 105.286 82.348 105.654 82.692C106.03 83.044 106.494 83.22 107.046 83.22C107.67 83.22 108.186 82.988 108.594 82.524ZM114.852 84H113.892V79.56H111.996L111.936 80.472C111.872 81.216 111.776 81.836 111.648 82.332C111.528 82.82 111.368 83.188 111.168 83.436C110.976 83.676 110.772 83.844 110.556 83.94C110.34 84.028 110.076 84.072 109.764 84.072L109.692 83.136C109.78 83.144 109.872 83.132 109.968 83.1C110.064 83.06 110.168 82.98 110.28 82.86C110.4 82.74 110.504 82.58 110.592 82.38C110.688 82.18 110.772 81.9 110.844 81.54C110.924 81.172 110.976 80.752 111 80.28L111.096 78.6H114.852V84ZM120.663 79.98L117.543 84H116.583V78.6H117.543V82.62L120.663 78.6H121.623V84H120.663V79.98ZM124.328 86.4H123.368V78.6H124.328V79.236C124.52 79.012 124.784 78.832 125.12 78.696C125.456 78.552 125.804 78.48 126.164 78.48C126.932 78.48 127.536 78.736 127.976 79.248C128.432 79.752 128.66 80.408 128.66 81.216C128.66 82.04 128.4 82.732 127.88 83.292C127.368 83.844 126.692 84.12 125.852 84.12C125.204 84.12 124.696 83.996 124.328 83.748V86.4ZM125.888 79.38C125.248 79.38 124.728 79.628 124.328 80.124V82.8C124.752 83.08 125.232 83.22 125.768 83.22C126.336 83.22 126.788 83.04 127.124 82.68C127.468 82.312 127.64 81.836 127.64 81.252C127.64 80.684 127.484 80.232 127.172 79.896C126.86 79.552 126.432 79.38 125.888 79.38ZM133.641 78.6H134.733L132.573 84C132.181 84.952 131.841 85.584 131.553 85.896C131.249 86.232 130.901 86.4 130.509 86.4C130.157 86.4 129.817 86.288 129.489 86.064L129.801 85.332C130.057 85.452 130.257 85.512 130.401 85.512C130.625 85.512 130.825 85.416 131.001 85.224C131.185 85.032 131.369 84.72 131.553 84.288L131.673 84L129.081 78.6H130.233L131.817 82.032C131.849 82.088 131.957 82.36 132.141 82.848C132.213 82.584 132.297 82.308 132.393 82.02L133.641 78.6ZM139.769 82.656L140.069 83.412C139.549 83.884 138.873 84.12 138.041 84.12C137.161 84.12 136.461 83.864 135.941 83.352C135.413 82.84 135.149 82.156 135.149 81.3C135.149 80.492 135.397 79.82 135.893 79.284C136.381 78.748 137.061 78.48 137.933 78.48C138.653 78.48 139.249 78.712 139.721 79.176C140.201 79.632 140.441 80.224 140.441 80.952C140.441 81.184 140.421 81.4 140.381 81.6H136.229C136.269 82.104 136.457 82.5 136.793 82.788C137.137 83.076 137.577 83.22 138.113 83.22C138.817 83.22 139.369 83.032 139.769 82.656ZM137.885 79.38C137.413 79.38 137.021 79.512 136.709 79.776C136.405 80.04 136.225 80.388 136.169 80.82H139.445C139.421 80.372 139.269 80.02 138.989 79.764C138.717 79.508 138.349 79.38 137.885 79.38ZM142.703 84H141.743V78.6H142.619L144.695 81.276L146.663 78.6H147.515V84H146.555V80.064L144.683 82.572H144.647L142.703 80.064V84ZM150.995 84H149.255V78.6H150.215V80.22H151.103C151.839 80.22 152.379 80.388 152.723 80.724C153.067 81.052 153.239 81.504 153.239 82.08C153.239 82.624 153.059 83.08 152.699 83.448C152.355 83.816 151.787 84 150.995 84ZM155.231 84H154.271V78.6H155.231V84ZM150.923 81.12H150.215V83.1H150.911C151.367 83.1 151.699 83.02 151.907 82.86C152.115 82.7 152.219 82.452 152.219 82.116C152.219 81.452 151.787 81.12 150.923 81.12ZM161.214 82.656L161.514 83.412C160.994 83.884 160.318 84.12 159.486 84.12C158.606 84.12 157.906 83.864 157.386 83.352C156.858 82.84 156.594 82.156 156.594 81.3C156.594 80.492 156.842 79.82 157.338 79.284C157.826 78.748 158.506 78.48 159.378 78.48C160.098 78.48 160.694 78.712 161.166 79.176C161.646 79.632 161.886 80.224 161.886 80.952C161.886 81.184 161.866 81.4 161.826 81.6H157.674C157.714 82.104 157.902 82.5 158.238 82.788C158.582 83.076 159.022 83.22 159.558 83.22C160.262 83.22 160.814 83.032 161.214 82.656ZM159.33 79.38C158.858 79.38 158.466 79.512 158.154 79.776C157.85 80.04 157.67 80.388 157.614 80.82H160.89C160.866 80.372 160.714 80.02 160.434 79.764C160.162 79.508 159.794 79.38 159.33 79.38Z" fill="#002E5E"/>
<circle cx="6" cy="80" r="6" fill="#002E5E"/>
</svg>
