<svg width="56" height="8" viewBox="0 0 56 8" fill="none" xmlns="http://www.w3.org/2000/svg">
<path d="M4.00002 -1.98875e-05C1.7909 -2.00737e-05 5.53597e-05 1.79082 5.51734e-05 3.99993C5.49872e-05 6.20904 1.7909 7.99988 4.00002 7.99988C6.20914 7.99988 8 6.20904 8 3.99993C8 1.79082 6.20914 -1.97013e-05 4.00002 -1.98875e-05Z" fill="white"/>
<path d="M28.0001 -1.98875e-05C25.791 -2.00737e-05 24.0001 1.79082 24.0001 3.99993C24.0001 6.20904 25.791 7.99988 28.0001 7.99988C30.2092 7.99988 32 6.20904 32 3.99993C32 1.79082 30.2092 -1.97013e-05 28.0001 -1.98875e-05Z" fill="white"/>
<path d="M52 0.000102183C49.7909 0.000101997 48.0001 1.79094 48.0001 4.00005C48.0001 6.20916 49.7909 8 52 8C54.2091 8 56 6.20916 56 4.00005C56 1.79094 54.2091 0.000102369 52 0.000102183Z" fill="white"/>
</svg>
