<svg width="92" height="12" viewBox="0 0 92 12" fill="none" xmlns="http://www.w3.org/2000/svg">
<path d="M5.99984 -0.000194102C2.68618 -0.000194381 -5.83427e-05 2.68606 -5.86221e-05 5.99972C-5.89014e-05 9.31338 2.68618 11.9996 5.99984 11.9996C9.31349 11.9996 11.9998 9.31338 11.9998 5.99972C11.9998 2.68606 9.3135 -0.000193822 5.99984 -0.000194102Z" fill="#F41921"/>
<path d="M45.9996 -0.000194102C42.6859 -0.000194381 39.9996 2.68606 39.9996 5.99972C39.9996 9.31338 42.6859 11.9996 45.9996 11.9996C49.3132 11.9996 51.9995 9.31338 51.9995 5.99972C51.9995 2.68606 49.3132 -0.000193822 45.9996 -0.000194102Z" fill="#F41921"/>
<path d="M85.9991 -7.20313e-05C82.6854 -7.23106e-05 79.9992 2.68618 79.9992 5.99984C79.9992 9.3135 82.6854 11.9998 85.9991 11.9998C89.3128 11.9998 91.999 9.3135 91.999 5.99984C91.999 2.68618 89.3128 -7.1752e-05 85.9991 -7.20313e-05Z" fill="#F41921"/>
</svg>
