<svg width="335" height="44" viewBox="0 0 335 44" fill="none" xmlns="http://www.w3.org/2000/svg">
<rect x="335" y="44" width="335" height="44" rx="5" transform="rotate(180 335 44)" fill="url(#paint0_linear)"/>
<path d="M10.4827 13.128C10.8094 13.128 11.0894 13.2447 11.3227 13.478C11.5654 13.7113 11.6867 13.9913 11.6867 14.318C11.6867 14.6447 11.5654 14.9247 11.3227 15.158C11.0894 15.3913 10.8094 15.508 10.4827 15.508C10.1654 15.508 9.89005 15.3913 9.65672 15.158C9.42339 14.9247 9.30672 14.6447 9.30672 14.318C9.30672 13.9913 9.42339 13.7113 9.65672 13.478C9.89005 13.2447 10.1654 13.128 10.4827 13.128ZM27.44 8.2H28.63V18H27.44V13.716C26.74 14.22 25.8767 14.472 24.85 14.472C23.982 14.472 23.2773 14.22 22.736 13.716C22.1853 13.212 21.91 12.4233 21.91 11.35V8.2H23.1V11.028C23.1 12.5773 23.786 13.352 25.158 13.352C25.942 13.352 26.7027 13.1047 27.44 12.61V8.2ZM32.6255 12.82H30.3155V11.7H36.0555V12.82H33.7455V18H32.6255V12.82ZM37.5784 17.216C36.9624 16.5813 36.6544 15.7927 36.6544 14.85C36.6544 13.898 36.9624 13.114 37.5784 12.498C38.2037 11.8727 39.0157 11.56 40.0144 11.56C41.0131 11.56 41.8204 11.8727 42.4364 12.498C43.0617 13.114 43.3744 13.898 43.3744 14.85C43.3744 15.802 43.0617 16.5907 42.4364 17.216C41.8204 17.832 41.0131 18.14 40.0144 18.14C39.0251 18.14 38.2131 17.832 37.5784 17.216ZM38.4604 13.24C38.0497 13.6507 37.8444 14.1873 37.8444 14.85C37.8444 15.5127 38.0451 16.0493 38.4464 16.46C38.8571 16.88 39.3797 17.09 40.0144 17.09C40.6491 17.09 41.1671 16.8847 41.5684 16.474C41.9791 16.054 42.1844 15.5127 42.1844 14.85C42.1844 14.206 41.9791 13.6693 41.5684 13.24C41.1671 12.82 40.6491 12.61 40.0144 12.61C39.3797 12.61 38.8617 12.82 38.4604 13.24ZM53.875 18H52.755V15.34H49.255V18H48.135V11.7H49.255V14.29H52.755V11.7H53.875V18ZM60.8706 16.432L61.2206 17.314C60.6139 17.8647 59.8252 18.14 58.8546 18.14C57.8279 18.14 57.0112 17.8413 56.4046 17.244C55.7886 16.6467 55.4806 15.8487 55.4806 14.85C55.4806 13.9073 55.7699 13.1233 56.3486 12.498C56.9179 11.8727 57.7112 11.56 58.7286 11.56C59.5686 11.56 60.2639 11.8307 60.8146 12.372C61.3746 12.904 61.6546 13.5947 61.6546 14.444C61.6546 14.7147 61.6312 14.9667 61.5846 15.2H56.7406C56.7872 15.788 57.0066 16.25 57.3986 16.586C57.7999 16.922 58.3132 17.09 58.9386 17.09C59.7599 17.09 60.4039 16.8707 60.8706 16.432ZM58.6726 12.61C58.1219 12.61 57.6646 12.764 57.3006 13.072C56.9459 13.38 56.7359 13.786 56.6706 14.29H60.4926C60.4646 13.7673 60.2872 13.3567 59.9606 13.058C59.6432 12.7593 59.2139 12.61 58.6726 12.61ZM63.596 17.216C62.98 16.5813 62.672 15.7927 62.672 14.85C62.672 13.898 62.98 13.114 63.596 12.498C64.2213 11.8727 65.0333 11.56 66.032 11.56C67.0307 11.56 67.838 11.8727 68.454 12.498C69.0793 13.114 69.392 13.898 69.392 14.85C69.392 15.802 69.0793 16.5907 68.454 17.216C67.838 17.832 67.0307 18.14 66.032 18.14C65.0427 18.14 64.2307 17.832 63.596 17.216ZM64.478 13.24C64.0673 13.6507 63.862 14.1873 63.862 14.85C63.862 15.5127 64.0627 16.0493 64.464 16.46C64.8747 16.88 65.3973 17.09 66.032 17.09C66.6667 17.09 67.1847 16.8847 67.586 16.474C67.9967 16.054 68.202 15.5127 68.202 14.85C68.202 14.206 67.9967 13.6693 67.586 13.24C67.1847 12.82 66.6667 12.61 66.032 12.61C65.3973 12.61 64.8793 12.82 64.478 13.24ZM75.88 8.06L76.482 8.942C76.258 9.25 75.9873 9.46 75.67 9.572C75.3247 9.69333 74.9327 9.78667 74.494 9.852C74.0647 9.91733 73.6587 10.034 73.276 10.202C72.324 10.6407 71.792 11.6533 71.68 13.24H71.708C71.9133 12.8013 72.2447 12.4467 72.702 12.176C73.1687 11.9053 73.668 11.77 74.2 11.77C75.096 11.77 75.8053 12.0547 76.328 12.624C76.86 13.1933 77.126 13.954 77.126 14.906C77.126 15.802 76.8227 16.5673 76.216 17.202C75.6187 17.8273 74.844 18.14 73.892 18.14C72.8653 18.14 72.0533 17.79 71.456 17.09C70.8587 16.3993 70.56 15.4427 70.56 14.22C70.56 11.4947 71.3393 9.80067 72.898 9.138C73.2527 8.97933 73.6633 8.86267 74.13 8.788C74.494 8.72267 74.7553 8.67133 74.914 8.634C75.0727 8.59667 75.2407 8.53133 75.418 8.438C75.6047 8.34467 75.7587 8.21867 75.88 8.06ZM71.75 14.43C71.75 15.2327 71.946 15.8767 72.338 16.362C72.73 16.8473 73.2387 17.09 73.864 17.09C74.4707 17.09 74.9653 16.8847 75.348 16.474C75.74 16.0727 75.936 15.5687 75.936 14.962C75.936 14.318 75.754 13.8 75.39 13.408C75.0353 13.016 74.5453 12.82 73.92 12.82C73.3507 12.82 72.8747 12.9787 72.492 13.296C72.0907 13.6227 71.8433 14.0007 71.75 14.43ZM82.6888 11.7H83.9908L81.7368 14.738L84.1308 18H82.7588L80.9108 15.452L79.0348 18H77.7328L80.1128 14.794L77.8728 11.7H79.2448L80.9528 14.08L82.6888 11.7ZM85.6487 17.216C85.0327 16.5813 84.7247 15.7927 84.7247 14.85C84.7247 13.898 85.0327 13.114 85.6487 12.498C86.2741 11.8727 87.0861 11.56 88.0847 11.56C89.0834 11.56 89.8907 11.8727 90.5067 12.498C91.1321 13.114 91.4447 13.898 91.4447 14.85C91.4447 15.802 91.1321 16.5907 90.5067 17.216C89.8907 17.832 89.0834 18.14 88.0847 18.14C87.0954 18.14 86.2834 17.832 85.6487 17.216ZM86.5307 13.24C86.1201 13.6507 85.9147 14.1873 85.9147 14.85C85.9147 15.5127 86.1154 16.0493 86.5167 16.46C86.9274 16.88 87.4501 17.09 88.0847 17.09C88.7194 17.09 89.2374 16.8847 89.6387 16.474C90.0494 16.054 90.2547 15.5127 90.2547 14.85C90.2547 14.206 90.0494 13.6693 89.6387 13.24C89.2374 12.82 88.7194 12.61 88.0847 12.61C87.4501 12.61 86.9321 12.82 86.5307 13.24ZM92.9966 19.54H91.9466V16.95H92.7306C92.964 16.6607 93.1693 16.194 93.3466 15.55C93.524 14.8967 93.6406 14.1687 93.6966 13.366L93.7946 11.7H98.0926V16.95H99.1426V19.54H98.0926V18H92.9966V19.54ZM94.8446 12.75L94.7746 13.8C94.7186 14.5 94.6066 15.1393 94.4386 15.718C94.2706 16.2967 94.098 16.7073 93.9206 16.95H96.9726V12.75H94.8446ZM105.122 13.31L101.482 18H100.362V11.7H101.482V16.39L105.122 11.7H106.242V18H105.122V13.31ZM109.398 18H108.278V11.7H109.3L111.722 14.822L114.018 11.7H115.012V18H113.892V13.408L111.708 16.334H111.666L109.398 13.408V18ZM117.545 17.216C116.929 16.5813 116.621 15.7927 116.621 14.85C116.621 13.898 116.929 13.114 117.545 12.498C118.171 11.8727 118.983 11.56 119.981 11.56C120.98 11.56 121.787 11.8727 122.403 12.498C123.029 13.114 123.341 13.898 123.341 14.85C123.341 15.802 123.029 16.5907 122.403 17.216C121.787 17.832 120.98 18.14 119.981 18.14C118.992 18.14 118.18 17.832 117.545 17.216ZM118.427 13.24C118.017 13.6507 117.811 14.1873 117.811 14.85C117.811 15.5127 118.012 16.0493 118.413 16.46C118.824 16.88 119.347 17.09 119.981 17.09C120.616 17.09 121.134 16.8847 121.535 16.474C121.946 16.054 122.151 15.5127 122.151 14.85C122.151 14.206 121.946 13.6693 121.535 13.24C121.134 12.82 120.616 12.61 119.981 12.61C119.347 12.61 118.829 12.82 118.427 13.24ZM133.772 18H132.652V12.75H129.222V18H128.102V11.7H133.772V18ZM136.919 20.8H135.799V11.7H136.919V12.442C137.143 12.1807 137.451 11.9707 137.843 11.812C138.235 11.644 138.641 11.56 139.061 11.56C139.957 11.56 140.662 11.8587 141.175 12.456C141.707 13.044 141.973 13.8093 141.973 14.752C141.973 15.7133 141.67 16.5207 141.063 17.174C140.466 17.818 139.677 18.14 138.697 18.14C137.941 18.14 137.348 17.9953 136.919 17.706V20.8ZM138.739 12.61C137.992 12.61 137.386 12.8993 136.919 13.478V16.6C137.414 16.9267 137.974 17.09 138.599 17.09C139.262 17.09 139.789 16.88 140.181 16.46C140.582 16.0307 140.783 15.4753 140.783 14.794C140.783 14.1313 140.601 13.604 140.237 13.212C139.873 12.8107 139.374 12.61 138.739 12.61ZM148.548 16.432L148.898 17.314C148.292 17.8647 147.503 18.14 146.532 18.14C145.506 18.14 144.689 17.8413 144.082 17.244C143.466 16.6467 143.158 15.8487 143.158 14.85C143.158 13.9073 143.448 13.1233 144.026 12.498C144.596 11.8727 145.389 11.56 146.406 11.56C147.246 11.56 147.942 11.8307 148.492 12.372C149.052 12.904 149.332 13.5947 149.332 14.444C149.332 14.7147 149.309 14.9667 149.262 15.2H144.418C144.465 15.788 144.684 16.25 145.076 16.586C145.478 16.922 145.991 17.09 146.616 17.09C147.438 17.09 148.082 16.8707 148.548 16.432ZM146.35 12.61C145.8 12.61 145.342 12.764 144.978 13.072C144.624 13.38 144.414 13.786 144.348 14.29H148.17C148.142 13.7673 147.965 13.3567 147.638 13.058C147.321 12.7593 146.892 12.61 146.35 12.61ZM150.788 19.54H149.738V16.95H150.522C150.755 16.6607 150.96 16.194 151.138 15.55C151.315 14.8967 151.432 14.1687 151.488 13.366L151.586 11.7H155.884V16.95H156.934V19.54H155.884V18H150.788V19.54ZM152.636 12.75L152.566 13.8C152.51 14.5 152.398 15.1393 152.23 15.718C152.062 16.2967 151.889 16.7073 151.712 16.95H154.764V12.75H152.636ZM163.823 18H162.703V12.75H159.273V18H158.153V11.7H163.823V18ZM166.97 20.8H165.85V11.7H166.97V12.442C167.194 12.1807 167.502 11.9707 167.894 11.812C168.286 11.644 168.692 11.56 169.112 11.56C170.008 11.56 170.712 11.8587 171.226 12.456C171.758 13.044 172.024 13.8093 172.024 14.752C172.024 15.7133 171.72 16.5207 171.114 17.174C170.516 17.818 169.728 18.14 168.748 18.14C167.992 18.14 167.399 17.9953 166.97 17.706V20.8ZM168.79 12.61C168.043 12.61 167.436 12.8993 166.97 13.478V16.6C167.464 16.9267 168.024 17.09 168.65 17.09C169.312 17.09 169.84 16.88 170.232 16.46C170.633 16.0307 170.834 15.4753 170.834 14.794C170.834 14.1313 170.652 13.604 170.288 13.212C169.924 12.8107 169.424 12.61 168.79 12.61ZM178.389 13.31L174.749 18H173.629V11.7H174.749V16.39L178.389 11.7H179.509V18H178.389V13.31ZM187.285 18H186.165V15.34H182.665V18H181.545V11.7H182.665V14.29H186.165V11.7H187.285V18ZM192.069 11.7H194.029V18H192.909V15.9H191.691L190.151 18H188.793L190.613 15.62C190.23 15.536 189.908 15.3307 189.647 15.004C189.385 14.668 189.255 14.2667 189.255 13.8C189.255 13.156 189.488 12.6473 189.955 12.274C190.421 11.8913 191.126 11.7 192.069 11.7ZM190.445 13.828C190.445 14.1267 190.561 14.374 190.795 14.57C191.028 14.7567 191.303 14.85 191.621 14.85H192.909V12.75H191.887C191.411 12.75 191.051 12.848 190.809 13.044C190.566 13.24 190.445 13.5013 190.445 13.828ZM197.577 12.82H195.267V11.7H201.007V12.82H198.697V18H197.577V12.82ZM204.359 18H202.231V11.7H203.351V13.59H204.499C205.357 13.59 205.987 13.786 206.389 14.178C206.79 14.5607 206.991 15.088 206.991 15.76C206.991 16.3947 206.781 16.9267 206.361 17.356C205.941 17.7853 205.273 18 204.359 18ZM204.289 14.64H203.351V16.95H204.275C205.292 16.95 205.801 16.5673 205.801 15.802C205.801 15.0273 205.297 14.64 204.289 14.64ZM208.363 17.356C208.363 17.132 208.433 16.9547 208.573 16.824C208.713 16.684 208.909 16.614 209.161 16.614C209.46 16.614 209.703 16.74 209.889 16.992C210.076 17.2347 210.169 17.5613 210.169 17.972C210.169 18.476 210.029 18.91 209.749 19.274C209.479 19.6473 209.105 19.904 208.629 20.044L208.321 19.512C208.807 19.3627 209.105 19.05 209.217 18.574C209.283 18.2567 209.278 18.0233 209.203 17.874C209.147 17.958 209.045 18 208.895 18C208.755 18 208.629 17.9393 208.517 17.818C208.415 17.6873 208.363 17.5333 208.363 17.356ZM217.86 11.7H218.98V18H217.86V15.55C217.375 15.858 216.792 16.012 216.11 16.012C214.617 16.012 213.87 15.2093 213.87 13.604V11.7H215.06V13.478C215.06 14.4673 215.513 14.962 216.418 14.962C217.006 14.962 217.487 14.8313 217.86 14.57V11.7ZM222.514 12.82H220.204V11.7H225.944V12.82H223.634V18H222.514V12.82ZM227.467 17.216C226.851 16.5813 226.543 15.7927 226.543 14.85C226.543 13.898 226.851 13.114 227.467 12.498C228.092 11.8727 228.904 11.56 229.903 11.56C230.902 11.56 231.709 11.8727 232.325 12.498C232.95 13.114 233.263 13.898 233.263 14.85C233.263 15.802 232.95 16.5907 232.325 17.216C231.709 17.832 230.902 18.14 229.903 18.14C228.914 18.14 228.102 17.832 227.467 17.216ZM228.349 13.24C227.938 13.6507 227.733 14.1873 227.733 14.85C227.733 15.5127 227.934 16.0493 228.335 16.46C228.746 16.88 229.268 17.09 229.903 17.09C230.538 17.09 231.056 16.8847 231.457 16.474C231.868 16.054 232.073 15.5127 232.073 14.85C232.073 14.206 231.868 13.6693 231.457 13.24C231.056 12.82 230.538 12.61 229.903 12.61C229.268 12.61 228.75 12.82 228.349 13.24ZM239.751 8.06L240.353 8.942C240.129 9.25 239.858 9.46 239.541 9.572C239.196 9.69333 238.804 9.78667 238.365 9.852C237.936 9.91733 237.53 10.034 237.147 10.202C236.195 10.6407 235.663 11.6533 235.551 13.24H235.579C235.784 12.8013 236.116 12.4467 236.573 12.176C237.04 11.9053 237.539 11.77 238.071 11.77C238.967 11.77 239.676 12.0547 240.199 12.624C240.731 13.1933 240.997 13.954 240.997 14.906C240.997 15.802 240.694 16.5673 240.087 17.202C239.49 17.8273 238.715 18.14 237.763 18.14C236.736 18.14 235.924 17.79 235.327 17.09C234.73 16.3993 234.431 15.4427 234.431 14.22C234.431 11.4947 235.21 9.80067 236.769 9.138C237.124 8.97933 237.534 8.86267 238.001 8.788C238.365 8.72267 238.626 8.67133 238.785 8.634C238.944 8.59667 239.112 8.53133 239.289 8.438C239.476 8.34467 239.63 8.21867 239.751 8.06ZM235.621 14.43C235.621 15.2327 235.817 15.8767 236.209 16.362C236.601 16.8473 237.11 17.09 237.735 17.09C238.342 17.09 238.836 16.8847 239.219 16.474C239.611 16.0727 239.807 15.5687 239.807 14.962C239.807 14.318 239.625 13.8 239.261 13.408C238.906 13.016 238.416 12.82 237.791 12.82C237.222 12.82 236.746 12.9787 236.363 13.296C235.962 13.6227 235.714 14.0007 235.621 14.43ZM244.634 18H242.604V11.7H243.724V13.59H244.76C245.618 13.59 246.248 13.786 246.65 14.178C247.051 14.5607 247.252 15.088 247.252 15.76C247.252 16.3947 247.042 16.9267 246.622 17.356C246.22 17.7853 245.558 18 244.634 18ZM249.576 18H248.456V11.7H249.576V18ZM244.55 14.64H243.724V16.95H244.536C245.068 16.95 245.455 16.8567 245.698 16.67C245.94 16.4833 246.062 16.194 246.062 15.802C246.062 15.0273 245.558 14.64 244.55 14.64ZM260.331 18H254.353V17.09C255.622 15.8487 256.555 14.8593 257.153 14.122C258.207 12.7967 258.735 11.686 258.735 10.79C258.735 10.3233 258.59 9.94533 258.301 9.656C258.021 9.35733 257.633 9.208 257.139 9.208C256.709 9.208 256.331 9.348 256.005 9.628C255.687 9.89867 255.482 10.2813 255.389 10.776L254.437 10.384C254.549 9.684 254.861 9.12867 255.375 8.718C255.897 8.298 256.518 8.088 257.237 8.088C258.095 8.088 258.758 8.33533 259.225 8.83C259.691 9.32467 259.925 9.90333 259.925 10.566C259.925 11.826 259.323 13.1653 258.119 14.584C257.577 15.2187 257.143 15.6947 256.817 16.012C256.537 16.292 256.201 16.6047 255.809 16.95H260.331V18ZM268.231 13.1C268.231 14.6867 267.965 15.9187 267.433 16.796C266.911 17.6733 266.127 18.112 265.081 18.112C264.027 18.112 263.224 17.664 262.673 16.768C262.141 15.8627 261.875 14.64 261.875 13.1C261.875 11.5693 262.137 10.3513 262.659 9.446C263.191 8.54067 263.989 8.088 265.053 8.088C266.127 8.088 266.92 8.54067 267.433 9.446C267.965 10.342 268.231 11.56 268.231 13.1ZM265.081 17.062C265.763 17.062 266.257 16.7353 266.565 16.082C266.883 15.4287 267.041 14.4347 267.041 13.1C267.041 11.7747 266.878 10.7853 266.551 10.132C266.234 9.46933 265.735 9.138 265.053 9.138C263.728 9.138 263.065 10.4587 263.065 13.1C263.065 15.7413 263.737 17.062 265.081 17.062ZM272.466 18.14C271.775 18.14 271.168 17.9953 270.646 17.706C270.132 17.4167 269.75 17.0013 269.498 16.46L270.142 15.662C270.366 16.0913 270.683 16.4273 271.094 16.67C271.504 16.9033 271.948 17.02 272.424 17.02C273.012 17.02 273.478 16.8567 273.824 16.53C274.178 16.2033 274.356 15.7787 274.356 15.256C274.356 14.7333 274.169 14.318 273.796 14.01C273.432 13.702 272.951 13.548 272.354 13.548H271.584V12.428H272.284C272.741 12.428 273.133 12.2693 273.46 11.952C273.805 11.6347 273.978 11.2287 273.978 10.734C273.978 10.2487 273.833 9.87067 273.544 9.6C273.264 9.32 272.876 9.18 272.382 9.18C271.495 9.18 270.823 9.586 270.366 10.398L269.736 9.628C269.96 9.13333 270.31 8.75067 270.786 8.48C271.271 8.2 271.831 8.06 272.466 8.06C273.287 8.06 273.94 8.284 274.426 8.732C274.92 9.18 275.168 9.782 275.168 10.538C275.168 11.0793 275.037 11.5553 274.776 11.966C274.514 12.3767 274.136 12.6847 273.642 12.89V12.932C274.22 13.0253 274.682 13.2913 275.028 13.73C275.373 14.1687 275.546 14.6913 275.546 15.298C275.546 16.1567 275.256 16.8473 274.678 17.37C274.108 17.8833 273.371 18.14 272.466 18.14ZM283.585 13.1C283.585 14.6867 283.319 15.9187 282.787 16.796C282.264 17.6733 281.48 18.112 280.435 18.112C279.38 18.112 278.578 17.664 278.027 16.768C277.495 15.8627 277.229 14.64 277.229 13.1C277.229 11.5693 277.49 10.3513 278.013 9.446C278.545 8.54067 279.343 8.088 280.407 8.088C281.48 8.088 282.274 8.54067 282.787 9.446C283.319 10.342 283.585 11.56 283.585 13.1ZM280.435 17.062C281.116 17.062 281.611 16.7353 281.919 16.082C282.236 15.4287 282.395 14.4347 282.395 13.1C282.395 11.7747 282.232 10.7853 281.905 10.132C281.588 9.46933 281.088 9.138 280.407 9.138C279.082 9.138 278.419 10.4587 278.419 13.1C278.419 15.7413 279.091 17.062 280.435 17.062ZM27.748 35H26.628V32.34H23.128V35H22.008V28.7H23.128V31.29H26.628V28.7H27.748V35ZM34.7436 33.432L35.0936 34.314C34.487 34.8647 33.6983 35.14 32.7276 35.14C31.701 35.14 30.8843 34.8413 30.2776 34.244C29.6616 33.6467 29.3536 32.8487 29.3536 31.85C29.3536 30.9073 29.643 30.1233 30.2216 29.498C30.791 28.8727 31.5843 28.56 32.6016 28.56C33.4416 28.56 34.137 28.8307 34.6876 29.372C35.2476 29.904 35.5276 30.5947 35.5276 31.444C35.5276 31.7147 35.5043 31.9667 35.4576 32.2H30.6136C30.6603 32.788 30.8796 33.25 31.2716 33.586C31.673 33.922 32.1863 34.09 32.8116 34.09C33.633 34.09 34.277 33.8707 34.7436 33.432ZM32.5456 29.61C31.995 29.61 31.5376 29.764 31.1736 30.072C30.819 30.38 30.609 30.786 30.5436 31.29H34.3656C34.3376 30.7673 34.1603 30.3567 33.8336 30.058C33.5163 29.7593 33.087 29.61 32.5456 29.61ZM41.3116 37.8H40.1916V28.7H41.3116V29.442C41.5356 29.1807 41.8436 28.9707 42.2356 28.812C42.6276 28.644 43.0336 28.56 43.4536 28.56C44.3496 28.56 45.0543 28.8587 45.5676 29.456C46.0996 30.044 46.3656 30.8093 46.3656 31.752C46.3656 32.7133 46.0623 33.5207 45.4556 34.174C44.8583 34.818 44.0696 35.14 43.0896 35.14C42.3336 35.14 41.7409 34.9953 41.3116 34.706V37.8ZM43.1316 29.61C42.3849 29.61 41.7783 29.8993 41.3116 30.478V33.6C41.8063 33.9267 42.3663 34.09 42.9916 34.09C43.6543 34.09 44.1816 33.88 44.5736 33.46C44.9749 33.0307 45.1756 32.4753 45.1756 31.794C45.1756 31.1313 44.9936 30.604 44.6296 30.212C44.2656 29.8107 43.7663 29.61 43.1316 29.61ZM48.3069 30.03L48.0129 29.134C48.6382 28.7513 49.3382 28.56 50.1129 28.56C50.9622 28.56 51.5782 28.77 51.9609 29.19C52.3436 29.61 52.5349 30.2587 52.5349 31.136V35H51.4709V34.188C50.9762 34.7947 50.3042 35.098 49.4549 35.098C48.8762 35.098 48.4096 34.9253 48.0549 34.58C47.7002 34.2253 47.5229 33.7493 47.5229 33.152C47.5229 32.536 47.7422 32.0507 48.1809 31.696C48.6196 31.332 49.1936 31.15 49.9029 31.15C50.5656 31.15 51.0882 31.2853 51.4709 31.556C51.4709 30.8467 51.3729 30.338 51.1769 30.03C50.9809 29.722 50.6029 29.568 50.0429 29.568C49.4736 29.568 48.8949 29.722 48.3069 30.03ZM49.8469 34.09C50.4722 34.09 51.0136 33.8193 51.4709 33.278V32.48C51.0789 32.2 50.6076 32.06 50.0569 32.06C49.6742 32.06 49.3522 32.1533 49.0909 32.34C48.8389 32.5173 48.7129 32.7693 48.7129 33.096C48.7129 33.404 48.8109 33.6467 49.0069 33.824C49.2122 34.0013 49.4922 34.09 49.8469 34.09ZM56.4963 35.14C56.0203 35.14 55.5163 35.0607 54.9843 34.902C54.471 34.734 54.107 34.5287 53.8923 34.286L54.4663 33.446C54.7183 33.6513 55.017 33.8193 55.3623 33.95C55.717 34.0713 56.039 34.132 56.3283 34.132C56.8137 34.132 57.2103 34.0387 57.5183 33.852C57.8263 33.656 57.9803 33.404 57.9803 33.096C57.9803 32.8347 57.8683 32.634 57.6443 32.494C57.4297 32.354 57.131 32.284 56.7483 32.284H55.6843V31.374H56.6783C56.9957 31.374 57.257 31.29 57.4623 31.122C57.6677 30.9447 57.7703 30.73 57.7703 30.478C57.7703 30.198 57.649 29.9787 57.4063 29.82C57.1637 29.652 56.837 29.568 56.4263 29.568C55.7637 29.568 55.1337 29.8013 54.5363 30.268L54.1023 29.4C54.3543 29.1387 54.7043 28.9333 55.1523 28.784C55.6097 28.6347 56.0903 28.56 56.5943 28.56C57.341 28.56 57.9197 28.7093 58.3303 29.008C58.7503 29.3067 58.9603 29.722 58.9603 30.254C58.9603 30.982 58.5917 31.4767 57.8543 31.738V31.766C58.265 31.8127 58.587 31.976 58.8203 32.256C59.0537 32.5267 59.1703 32.858 59.1703 33.25C59.1703 33.8287 58.923 34.2907 58.4283 34.636C57.943 34.972 57.299 35.14 56.4963 35.14ZM61.3811 34.216C60.7651 33.5813 60.4571 32.7927 60.4571 31.85C60.4571 30.898 60.7651 30.114 61.3811 29.498C62.0065 28.8727 62.8185 28.56 63.8171 28.56C64.8158 28.56 65.6231 28.8727 66.2391 29.498C66.8645 30.114 67.1771 30.898 67.1771 31.85C67.1771 32.802 66.8645 33.5907 66.2391 34.216C65.6231 34.832 64.8158 35.14 63.8171 35.14C62.8278 35.14 62.0158 34.832 61.3811 34.216ZM62.2631 30.24C61.8525 30.6507 61.6471 31.1873 61.6471 31.85C61.6471 32.5127 61.8478 33.0493 62.2491 33.46C62.6598 33.88 63.1825 34.09 63.8171 34.09C64.4518 34.09 64.9698 33.8847 65.3711 33.474C65.7818 33.054 65.9871 32.5127 65.9871 31.85C65.9871 31.206 65.7818 30.6693 65.3711 30.24C64.9698 29.82 64.4518 29.61 63.8171 29.61C63.1825 29.61 62.6645 29.82 62.2631 30.24ZM72.4052 28.7H73.5252V35H72.4052V32.55C71.9198 32.858 71.3365 33.012 70.6552 33.012C69.1618 33.012 68.4152 32.2093 68.4152 30.604V28.7H69.6052V30.478C69.6052 31.4673 70.0578 31.962 70.9632 31.962C71.5512 31.962 72.0318 31.8313 72.4052 31.57V28.7ZM75.8831 30.03L75.5891 29.134C76.2144 28.7513 76.9144 28.56 77.6891 28.56C78.5384 28.56 79.1544 28.77 79.5371 29.19C79.9197 29.61 80.1111 30.2587 80.1111 31.136V35H79.0471V34.188C78.5524 34.7947 77.8804 35.098 77.0311 35.098C76.4524 35.098 75.9857 34.9253 75.6311 34.58C75.2764 34.2253 75.0991 33.7493 75.0991 33.152C75.0991 32.536 75.3184 32.0507 75.7571 31.696C76.1957 31.332 76.7697 31.15 77.4791 31.15C78.1417 31.15 78.6644 31.2853 79.0471 31.556C79.0471 30.8467 78.9491 30.338 78.7531 30.03C78.5571 29.722 78.1791 29.568 77.6191 29.568C77.0497 29.568 76.4711 29.722 75.8831 30.03ZM77.4231 34.09C78.0484 34.09 78.5897 33.8193 79.0471 33.278V32.48C78.6551 32.2 78.1837 32.06 77.6331 32.06C77.2504 32.06 76.9284 32.1533 76.6671 32.34C76.4151 32.5173 76.2891 32.7693 76.2891 33.096C76.2891 33.404 76.3871 33.6467 76.5831 33.824C76.7884 34.0013 77.0684 34.09 77.4231 34.09ZM83.1065 37.8H81.9865V28.7H83.1065V29.442C83.3305 29.1807 83.6385 28.9707 84.0305 28.812C84.4225 28.644 84.8285 28.56 85.2485 28.56C86.1445 28.56 86.8492 28.8587 87.3625 29.456C87.8945 30.044 88.1605 30.8093 88.1605 31.752C88.1605 32.7133 87.8572 33.5207 87.2505 34.174C86.6532 34.818 85.8645 35.14 84.8845 35.14C84.1285 35.14 83.5358 34.9953 83.1065 34.706V37.8ZM84.9265 29.61C84.1798 29.61 83.5732 29.8993 83.1065 30.478V33.6C83.6012 33.9267 84.1612 34.09 84.7865 34.09C85.4492 34.09 85.9765 33.88 86.3685 33.46C86.7698 33.0307 86.9705 32.4753 86.9705 31.794C86.9705 31.1313 86.7885 30.604 86.4245 30.212C86.0605 29.8107 85.5612 29.61 84.9265 29.61ZM90.2698 34.216C89.6538 33.5813 89.3458 32.7927 89.3458 31.85C89.3458 30.898 89.6538 30.114 90.2698 29.498C90.8951 28.8727 91.7071 28.56 92.7058 28.56C93.7045 28.56 94.5118 28.8727 95.1278 29.498C95.7531 30.114 96.0658 30.898 96.0658 31.85C96.0658 32.802 95.7531 33.5907 95.1278 34.216C94.5118 34.832 93.7045 35.14 92.7058 35.14C91.7165 35.14 90.9045 34.832 90.2698 34.216ZM91.1518 30.24C90.7411 30.6507 90.5358 31.1873 90.5358 31.85C90.5358 32.5127 90.7365 33.0493 91.1378 33.46C91.5485 33.88 92.0711 34.09 92.7058 34.09C93.3405 34.09 93.8585 33.8847 94.2598 33.474C94.6705 33.054 94.8758 32.5127 94.8758 31.85C94.8758 31.206 94.6705 30.6693 94.2598 30.24C93.8585 29.82 93.3405 29.61 92.7058 29.61C92.0711 29.61 91.5531 29.82 91.1518 30.24ZM97.6818 35V28.7C97.7285 28.7 97.7938 28.7 97.8778 28.7C97.9618 28.6907 98.0832 28.686 98.2418 28.686C98.4005 28.6767 98.5452 28.672 98.6758 28.672C99.3665 28.6533 99.7958 28.644 99.9638 28.644C101.774 28.644 102.68 29.1853 102.68 30.268C102.68 30.6413 102.563 30.9633 102.33 31.234C102.096 31.4953 101.793 31.654 101.42 31.71V31.738C102.4 31.9153 102.89 32.41 102.89 33.222C102.89 34.4447 101.924 35.056 99.9918 35.056C99.8985 35.056 99.4878 35.0467 98.7598 35.028C98.6198 35.028 98.4658 35.0233 98.2978 35.014C98.1298 35.014 97.9992 35.0093 97.9058 35C97.8125 35 97.7378 35 97.6818 35ZM100.146 32.172H98.8018V34.104C99.4738 34.132 99.9032 34.146 100.09 34.146C101.163 34.146 101.7 33.81 101.7 33.138C101.7 32.494 101.182 32.172 100.146 32.172ZM100.048 29.554C99.7772 29.554 99.3618 29.568 98.8018 29.596V31.472H100.216C100.598 31.472 100.906 31.3833 101.14 31.206C101.373 31.0287 101.49 30.7907 101.49 30.492C101.49 29.8667 101.009 29.554 100.048 29.554ZM104.936 30.03L104.642 29.134C105.267 28.7513 105.967 28.56 106.742 28.56C107.591 28.56 108.207 28.77 108.59 29.19C108.972 29.61 109.164 30.2587 109.164 31.136V35H108.1V34.188C107.605 34.7947 106.933 35.098 106.084 35.098C105.505 35.098 105.038 34.9253 104.684 34.58C104.329 34.2253 104.152 33.7493 104.152 33.152C104.152 32.536 104.371 32.0507 104.81 31.696C105.248 31.332 105.822 31.15 106.532 31.15C107.194 31.15 107.717 31.2853 108.1 31.556C108.1 30.8467 108.002 30.338 107.806 30.03C107.61 29.722 107.232 29.568 106.672 29.568C106.102 29.568 105.524 29.722 104.936 30.03ZM106.476 34.09C107.101 34.09 107.642 33.8193 108.1 33.278V32.48C107.708 32.2 107.236 32.06 106.686 32.06C106.303 32.06 105.981 32.1533 105.72 32.34C105.468 32.5173 105.342 32.7693 105.342 33.096C105.342 33.404 105.44 33.6467 105.636 33.824C105.841 34.0013 106.121 34.09 106.476 34.09ZM116.471 35H115.351V29.82H113.139L113.069 30.884C112.995 31.752 112.883 32.4753 112.733 33.054C112.593 33.6233 112.407 34.0527 112.173 34.342C111.949 34.622 111.711 34.818 111.459 34.93C111.207 35.0327 110.899 35.084 110.535 35.084L110.451 33.992C110.554 34.0013 110.661 33.9873 110.773 33.95C110.885 33.9033 111.007 33.81 111.137 33.67C111.277 33.53 111.399 33.3433 111.501 33.11C111.613 32.8767 111.711 32.55 111.795 32.13C111.889 31.7007 111.949 31.2107 111.977 30.66L112.089 28.7H116.471V35ZM122.382 27.72C122.382 27.2907 122.219 26.9267 121.892 26.628C121.575 26.3293 121.169 26.18 120.674 26.18C119.872 26.18 119.218 26.5253 118.714 27.216L118.042 26.474C118.304 26.0447 118.677 25.704 119.162 25.452C119.648 25.1907 120.175 25.06 120.744 25.06C121.612 25.06 122.303 25.2933 122.816 25.76C123.33 26.2173 123.586 26.7913 123.586 27.482C123.586 27.9207 123.512 28.308 123.362 28.644C123.325 28.7373 123.283 28.826 123.236 28.91C123.19 28.994 123.134 29.078 123.068 29.162C123.003 29.2367 122.947 29.302 122.9 29.358C122.863 29.4047 122.798 29.47 122.704 29.554C122.611 29.6287 122.546 29.6847 122.508 29.722C122.48 29.75 122.41 29.8107 122.298 29.904C122.186 29.988 122.116 30.0393 122.088 30.058C122.032 30.1047 121.953 30.17 121.85 30.254C121.757 30.3287 121.682 30.3893 121.626 30.436C121.58 30.4827 121.514 30.5433 121.43 30.618C121.346 30.6927 121.281 30.758 121.234 30.814C121.188 30.87 121.136 30.94 121.08 31.024C121.024 31.108 120.982 31.1873 120.954 31.262C120.936 31.3367 120.912 31.4207 120.884 31.514C120.866 31.6073 120.856 31.71 120.856 31.822C120.866 31.9247 120.88 32.0367 120.898 32.158L119.89 32.172C119.722 31.2853 119.942 30.59 120.548 30.086C120.642 30.0113 120.796 29.8947 121.01 29.736C121.234 29.568 121.407 29.4327 121.528 29.33C121.65 29.218 121.785 29.078 121.934 28.91C122.093 28.742 122.205 28.56 122.27 28.364C122.345 28.168 122.382 27.9533 122.382 27.72ZM119.61 34.244C119.61 34.0387 119.685 33.866 119.834 33.726C119.984 33.5767 120.18 33.502 120.422 33.502C120.618 33.502 120.791 33.5767 120.94 33.726C121.09 33.8753 121.164 34.048 121.164 34.244C121.164 34.468 121.094 34.6593 120.954 34.818C120.814 34.9673 120.637 35.042 120.422 35.042C120.18 35.042 119.984 34.9673 119.834 34.818C119.685 34.6593 119.61 34.468 119.61 34.244Z" fill="white"/>
<defs>
<linearGradient id="paint0_linear" x1="335" y1="82.1334" x2="600.619" y2="-43.0173" gradientUnits="userSpaceOnUse">
<stop stop-color="#1B75BB"/>
<stop offset="1" stop-color="#289DDE"/>
</linearGradient>
</defs>
</svg>
