<svg width="335" height="44" viewBox="0 0 335 44" fill="none" xmlns="http://www.w3.org/2000/svg">
<rect x="335" y="44" width="335" height="44" rx="5" transform="rotate(180 335 44)" fill="url(#paint0_linear)"/>
<path d="M10.4827 13.128C10.8094 13.128 11.0894 13.2447 11.3227 13.478C11.5654 13.7113 11.6867 13.9913 11.6867 14.318C11.6867 14.6447 11.5654 14.9247 11.3227 15.158C11.0894 15.3913 10.8094 15.508 10.4827 15.508C10.1654 15.508 9.89005 15.3913 9.65672 15.158C9.42339 14.9247 9.30672 14.6447 9.30672 14.318C9.30672 13.9913 9.42339 13.7113 9.65672 13.478C9.89005 13.2447 10.1654 13.128 10.4827 13.128ZM28.196 8.2H29.638L25.27 12.806L29.862 18H28.336L23.898 12.89L28.196 8.2ZM23.66 18H22.47V8.2H23.66V18ZM31.4905 13.03L31.1965 12.134C31.8218 11.7513 32.5218 11.56 33.2965 11.56C34.1458 11.56 34.7618 11.77 35.1445 12.19C35.5272 12.61 35.7185 13.2587 35.7185 14.136V18H34.6545V17.188C34.1598 17.7947 33.4878 18.098 32.6385 18.098C32.0598 18.098 31.5932 17.9253 31.2385 17.58C30.8838 17.2253 30.7065 16.7493 30.7065 16.152C30.7065 15.536 30.9258 15.0507 31.3645 14.696C31.8032 14.332 32.3772 14.15 33.0865 14.15C33.7492 14.15 34.2718 14.2853 34.6545 14.556C34.6545 13.8467 34.5565 13.338 34.3605 13.03C34.1645 12.722 33.7865 12.568 33.2265 12.568C32.6572 12.568 32.0785 12.722 31.4905 13.03ZM33.0305 17.09C33.6558 17.09 34.1972 16.8193 34.6545 16.278V15.48C34.2625 15.2 33.7912 15.06 33.2405 15.06C32.8578 15.06 32.5358 15.1533 32.2745 15.34C32.0225 15.5173 31.8965 15.7693 31.8965 16.096C31.8965 16.404 31.9945 16.6467 32.1905 16.824C32.3958 17.0013 32.6758 17.09 33.0305 17.09ZM41.6399 11.7H43.1099L40.3519 14.71L43.3759 18H41.8219L38.9799 14.78L41.6399 11.7ZM38.7139 18H37.5939V11.7H38.7139V18ZM49.3266 13.31L45.6866 18H44.5666V11.7H45.6866V16.39L49.3266 11.7H50.4466V18H49.3266V13.31ZM53.6026 18H52.4826V11.7H53.5046L55.9266 14.822L58.2226 11.7H59.2166V18H58.0966V13.408L55.9126 16.334H55.8706L53.6026 13.408V18ZM64.3908 18V11.7C64.4375 11.7 64.5028 11.7 64.5868 11.7C64.6708 11.6907 64.7921 11.686 64.9508 11.686C65.1095 11.6767 65.2541 11.672 65.3848 11.672C66.0755 11.6533 66.5048 11.644 66.6728 11.644C68.4835 11.644 69.3888 12.1853 69.3888 13.268C69.3888 13.6413 69.2721 13.9633 69.0388 14.234C68.8055 14.4953 68.5021 14.654 68.1288 14.71V14.738C69.1088 14.9153 69.5988 15.41 69.5988 16.222C69.5988 17.4447 68.6328 18.056 66.7008 18.056C66.6075 18.056 66.1968 18.0467 65.4688 18.028C65.3288 18.028 65.1748 18.0233 65.0068 18.014C64.8388 18.014 64.7081 18.0093 64.6148 18C64.5215 18 64.4468 18 64.3908 18ZM66.8548 15.172H65.5108V17.104C66.1828 17.132 66.6121 17.146 66.7988 17.146C67.8721 17.146 68.4088 16.81 68.4088 16.138C68.4088 15.494 67.8908 15.172 66.8548 15.172ZM66.7568 12.554C66.4861 12.554 66.0708 12.568 65.5108 12.596V14.472H66.9248C67.3075 14.472 67.6155 14.3833 67.8488 14.206C68.0821 14.0287 68.1988 13.7907 68.1988 13.492C68.1988 12.8667 67.7181 12.554 66.7568 12.554ZM76.0688 13.31L72.4288 18H71.3088V11.7H72.4288V16.39L76.0688 11.7H77.1888V18H76.0688V13.31ZM79.4068 19.54H78.3568V16.95H79.1408C79.3741 16.6607 79.5795 16.194 79.7568 15.55C79.9341 14.8967 80.0508 14.1687 80.1068 13.366L80.2048 11.7H84.5028V16.95H85.5528V19.54H84.5028V18H79.4068V19.54ZM81.2548 12.75L81.1848 13.8C81.1288 14.5 81.0168 15.1393 80.8488 15.718C80.6808 16.2967 80.5081 16.7073 80.3308 16.95H83.3828V12.75H81.2548ZM91.5317 13.31L87.8917 18H86.7717V11.7H87.8917V16.39L91.5317 11.7H92.6517V18H91.5317V13.31ZM96.1997 12.82H93.8897V11.7H99.6297V12.82H97.3197V18H96.1997V12.82ZM105.493 16.278L106.025 17.09C105.483 17.79 104.676 18.14 103.603 18.14C102.595 18.14 101.778 17.8413 101.153 17.244C100.537 16.6467 100.229 15.8487 100.229 14.85C100.229 13.926 100.532 13.1467 101.139 12.512C101.745 11.8773 102.506 11.56 103.421 11.56C104.522 11.56 105.348 11.8353 105.899 12.386L105.381 13.268C104.895 12.8293 104.293 12.61 103.575 12.61C102.987 12.61 102.478 12.8247 102.049 13.254C101.629 13.674 101.419 14.206 101.419 14.85C101.419 15.5313 101.633 16.0727 102.063 16.474C102.501 16.8847 103.043 17.09 103.687 17.09C104.415 17.09 105.017 16.8193 105.493 16.278ZM109.942 11.7H111.902V18H110.782V15.9H109.564L108.024 18H106.666L108.486 15.62C108.103 15.536 107.781 15.3307 107.52 15.004C107.258 14.668 107.128 14.2667 107.128 13.8C107.128 13.156 107.361 12.6473 107.828 12.274C108.294 11.8913 108.999 11.7 109.942 11.7ZM108.318 13.828C108.318 14.1267 108.434 14.374 108.668 14.57C108.901 14.7567 109.176 14.85 109.494 14.85H110.782V12.75H109.76C109.284 12.75 108.924 12.848 108.682 13.044C108.439 13.24 108.318 13.5013 108.318 13.828ZM121.954 8.06L122.556 8.942C122.332 9.25 122.062 9.46 121.744 9.572C121.399 9.69333 121.007 9.78667 120.568 9.852C120.139 9.91733 119.733 10.034 119.35 10.202C118.398 10.6407 117.866 11.6533 117.754 13.24H117.782C117.988 12.8013 118.319 12.4467 118.776 12.176C119.243 11.9053 119.742 11.77 120.274 11.77C121.17 11.77 121.88 12.0547 122.402 12.624C122.934 13.1933 123.2 13.954 123.2 14.906C123.2 15.802 122.897 16.5673 122.29 17.202C121.693 17.8273 120.918 18.14 119.966 18.14C118.94 18.14 118.128 17.79 117.53 17.09C116.933 16.3993 116.634 15.4427 116.634 14.22C116.634 11.4947 117.414 9.80067 118.972 9.138C119.327 8.97933 119.738 8.86267 120.204 8.788C120.568 8.72267 120.83 8.67133 120.988 8.634C121.147 8.59667 121.315 8.53133 121.492 8.438C121.679 8.34467 121.833 8.21867 121.954 8.06ZM117.824 14.43C117.824 15.2327 118.02 15.8767 118.412 16.362C118.804 16.8473 119.313 17.09 119.938 17.09C120.545 17.09 121.04 16.8847 121.422 16.474C121.814 16.0727 122.01 15.5687 122.01 14.962C122.01 14.318 121.828 13.8 121.464 13.408C121.11 13.016 120.62 12.82 119.994 12.82C119.425 12.82 118.949 12.9787 118.566 13.296C118.165 13.6227 117.918 14.0007 117.824 14.43ZM129.013 11.7H130.287L127.767 18C127.309 19.1107 126.913 19.848 126.577 20.212C126.222 20.604 125.816 20.8 125.359 20.8C124.948 20.8 124.551 20.6693 124.169 20.408L124.533 19.554C124.831 19.694 125.065 19.764 125.233 19.764C125.494 19.764 125.727 19.652 125.933 19.428C126.147 19.204 126.362 18.84 126.577 18.336L126.717 18L123.693 11.7H125.037L126.885 15.704C126.922 15.7693 127.048 16.0867 127.263 16.656C127.347 16.348 127.445 16.026 127.557 15.69L129.013 11.7ZM131.169 19.54H130.119V16.95H130.903C131.136 16.6607 131.341 16.194 131.519 15.55C131.696 14.8967 131.813 14.1687 131.869 13.366L131.967 11.7H136.265V16.95H137.315V19.54H136.265V18H131.169V19.54ZM133.017 12.75L132.947 13.8C132.891 14.5 132.779 15.1393 132.611 15.718C132.443 16.2967 132.27 16.7073 132.093 16.95H135.145V12.75H133.017ZM142.985 11.7H144.259L141.739 18C141.282 19.1107 140.885 19.848 140.549 20.212C140.195 20.604 139.789 20.8 139.331 20.8C138.921 20.8 138.524 20.6693 138.141 20.408L138.505 19.554C138.804 19.694 139.037 19.764 139.205 19.764C139.467 19.764 139.7 19.652 139.905 19.428C140.12 19.204 140.335 18.84 140.549 18.336L140.689 18L137.665 11.7H139.009L140.857 15.704C140.895 15.7693 141.021 16.0867 141.235 16.656C141.319 16.348 141.417 16.026 141.529 15.69L142.985 11.7ZM153.39 18H145.41V11.7H146.53V16.95H148.84V11.7H149.96V16.95H152.27V11.7H153.39V16.95H154.44V19.54H153.39V18ZM160.634 16.432L160.984 17.314C160.378 17.8647 159.589 18.14 158.618 18.14C157.592 18.14 156.775 17.8413 156.168 17.244C155.552 16.6467 155.244 15.8487 155.244 14.85C155.244 13.9073 155.534 13.1233 156.112 12.498C156.682 11.8727 157.475 11.56 158.492 11.56C159.332 11.56 160.028 11.8307 160.578 12.372C161.138 12.904 161.418 13.5947 161.418 14.444C161.418 14.7147 161.395 14.9667 161.348 15.2H156.504C156.551 15.788 156.77 16.25 157.162 16.586C157.564 16.922 158.077 17.09 158.702 17.09C159.524 17.09 160.168 16.8707 160.634 16.432ZM158.436 12.61C157.886 12.61 157.428 12.764 157.064 13.072C156.71 13.38 156.5 13.786 156.434 14.29H160.256C160.228 13.7673 160.051 13.3567 159.724 13.058C159.407 12.7593 158.978 12.61 158.436 12.61ZM167.826 16.432L168.176 17.314C167.569 17.8647 166.78 18.14 165.81 18.14C164.783 18.14 163.966 17.8413 163.36 17.244C162.744 16.6467 162.436 15.8487 162.436 14.85C162.436 13.9073 162.725 13.1233 163.304 12.498C163.873 11.8727 164.666 11.56 165.684 11.56C166.524 11.56 167.219 11.8307 167.77 12.372C168.33 12.904 168.61 13.5947 168.61 14.444C168.61 14.7147 168.586 14.9667 168.54 15.2H163.696C163.742 15.788 163.962 16.25 164.354 16.586C164.755 16.922 165.268 17.09 165.894 17.09C166.715 17.09 167.359 16.8707 167.826 16.432ZM165.628 12.61C165.077 12.61 164.62 12.764 164.256 13.072C163.901 13.38 163.691 13.786 163.626 14.29H167.448C167.42 13.7673 167.242 13.3567 166.916 13.058C166.598 12.7593 166.169 12.61 165.628 12.61ZM174.394 20.8H173.274V11.7H174.394V12.442C174.618 12.1807 174.926 11.9707 175.318 11.812C175.71 11.644 176.116 11.56 176.536 11.56C177.432 11.56 178.136 11.8587 178.65 12.456C179.182 13.044 179.448 13.8093 179.448 14.752C179.448 15.7133 179.144 16.5207 178.538 17.174C177.94 17.818 177.152 18.14 176.172 18.14C175.416 18.14 174.823 17.9953 174.394 17.706V20.8ZM176.214 12.61C175.467 12.61 174.86 12.8993 174.394 13.478V16.6C174.888 16.9267 175.448 17.09 176.074 17.09C176.736 17.09 177.264 16.88 177.656 16.46C178.057 16.0307 178.258 15.4753 178.258 14.794C178.258 14.1313 178.076 13.604 177.712 13.212C177.348 12.8107 176.848 12.61 176.214 12.61ZM181.557 17.216C180.941 16.5813 180.633 15.7927 180.633 14.85C180.633 13.898 180.941 13.114 181.557 12.498C182.182 11.8727 182.994 11.56 183.993 11.56C184.992 11.56 185.799 11.8727 186.415 12.498C187.04 13.114 187.353 13.898 187.353 14.85C187.353 15.802 187.04 16.5907 186.415 17.216C185.799 17.832 184.992 18.14 183.993 18.14C183.004 18.14 182.192 17.832 181.557 17.216ZM182.439 13.24C182.028 13.6507 181.823 14.1873 181.823 14.85C181.823 15.5127 182.024 16.0493 182.425 16.46C182.836 16.88 183.358 17.09 183.993 17.09C184.628 17.09 185.146 16.8847 185.547 16.474C185.958 16.054 186.163 15.5127 186.163 14.85C186.163 14.206 185.958 13.6693 185.547 13.24C185.146 12.82 184.628 12.61 183.993 12.61C183.358 12.61 182.84 12.82 182.439 13.24ZM193.813 16.278L194.345 17.09C193.804 17.79 192.996 18.14 191.923 18.14C190.915 18.14 190.098 17.8413 189.473 17.244C188.857 16.6467 188.549 15.8487 188.549 14.85C188.549 13.926 188.852 13.1467 189.459 12.512C190.066 11.8773 190.826 11.56 191.741 11.56C192.842 11.56 193.668 11.8353 194.219 12.386L193.701 13.268C193.216 12.8293 192.614 12.61 191.895 12.61C191.307 12.61 190.798 12.8247 190.369 13.254C189.949 13.674 189.739 14.206 189.739 14.85C189.739 15.5313 189.954 16.0727 190.383 16.474C190.822 16.8847 191.363 17.09 192.007 17.09C192.735 17.09 193.337 16.8193 193.813 16.278ZM200.307 16.278L200.839 17.09C200.298 17.79 199.49 18.14 198.417 18.14C197.409 18.14 196.592 17.8413 195.967 17.244C195.351 16.6467 195.043 15.8487 195.043 14.85C195.043 13.926 195.346 13.1467 195.953 12.512C196.56 11.8773 197.32 11.56 198.235 11.56C199.336 11.56 200.162 11.8353 200.713 12.386L200.195 13.268C199.71 12.8293 199.108 12.61 198.389 12.61C197.801 12.61 197.292 12.8247 196.863 13.254C196.443 13.674 196.233 14.206 196.233 14.85C196.233 15.5313 196.448 16.0727 196.877 16.474C197.316 16.8847 197.857 17.09 198.501 17.09C199.229 17.09 199.831 16.8193 200.307 16.278ZM207.059 13.31L203.419 18H202.299V11.7H203.419V16.39L207.059 11.7H208.179V18H207.059V13.31ZM214.975 13.31L211.335 18H210.215V11.7H211.335V16.39L214.975 11.7H216.095V18H214.975V13.31ZM211.111 8.48H212.161C212.217 9.21733 212.576 9.586 213.239 9.586C213.864 9.586 214.205 9.21733 214.261 8.48H215.311C215.311 9.04933 215.115 9.52067 214.723 9.894C214.34 10.258 213.846 10.44 213.239 10.44C212.576 10.44 212.054 10.2627 211.671 9.908C211.298 9.544 211.111 9.068 211.111 8.48ZM222.975 16.278L223.507 17.09C222.966 17.79 222.158 18.14 221.085 18.14C220.077 18.14 219.26 17.8413 218.635 17.244C218.019 16.6467 217.711 15.8487 217.711 14.85C217.711 13.926 218.014 13.1467 218.621 12.512C219.228 11.8773 219.988 11.56 220.903 11.56C222.004 11.56 222.83 11.8353 223.381 12.386L222.863 13.268C222.378 12.8293 221.776 12.61 221.057 12.61C220.469 12.61 219.96 12.8247 219.531 13.254C219.111 13.674 218.901 14.206 218.901 14.85C218.901 15.5313 219.116 16.0727 219.545 16.474C219.984 16.8847 220.525 17.09 221.169 17.09C221.897 17.09 222.499 16.8193 222.975 16.278ZM229.013 11.7H230.483L227.725 14.71L230.749 18H229.195L226.353 14.78L229.013 11.7ZM226.087 18H224.967V11.7H226.087V18ZM232.102 17.216C231.486 16.5813 231.178 15.7927 231.178 14.85C231.178 13.898 231.486 13.114 232.102 12.498C232.727 11.8727 233.539 11.56 234.538 11.56C235.537 11.56 236.344 11.8727 236.96 12.498C237.585 13.114 237.898 13.898 237.898 14.85C237.898 15.802 237.585 16.5907 236.96 17.216C236.344 17.832 235.537 18.14 234.538 18.14C233.549 18.14 232.737 17.832 232.102 17.216ZM232.984 13.24C232.573 13.6507 232.368 14.1873 232.368 14.85C232.368 15.5127 232.569 16.0493 232.97 16.46C233.381 16.88 233.903 17.09 234.538 17.09C235.173 17.09 235.691 16.8847 236.092 16.474C236.503 16.054 236.708 15.5127 236.708 14.85C236.708 14.206 236.503 13.6693 236.092 13.24C235.691 12.82 235.173 12.61 234.538 12.61C233.903 12.61 233.385 12.82 232.984 13.24ZM240.634 18H239.514V11.7H243.504V12.75H240.634V18ZM244.885 17.216C244.269 16.5813 243.961 15.7927 243.961 14.85C243.961 13.898 244.269 13.114 244.885 12.498C245.51 11.8727 246.322 11.56 247.321 11.56C248.32 11.56 249.127 11.8727 249.743 12.498C250.368 13.114 250.681 13.898 250.681 14.85C250.681 15.802 250.368 16.5907 249.743 17.216C249.127 17.832 248.32 18.14 247.321 18.14C246.332 18.14 245.52 17.832 244.885 17.216ZM245.767 13.24C245.356 13.6507 245.151 14.1873 245.151 14.85C245.151 15.5127 245.352 16.0493 245.753 16.46C246.164 16.88 246.686 17.09 247.321 17.09C247.956 17.09 248.474 16.8847 248.875 16.474C249.286 16.054 249.491 15.5127 249.491 14.85C249.491 14.206 249.286 13.6693 248.875 13.24C248.474 12.82 247.956 12.61 247.321 12.61C246.686 12.61 246.168 12.82 245.767 13.24ZM259.53 15.256H256.422V14.346H259.516C259.432 13.786 259.194 13.3567 258.802 13.058C258.419 12.7593 257.929 12.61 257.332 12.61C256.557 12.61 255.913 12.8387 255.4 13.296L254.924 12.456C255.194 12.1853 255.554 11.9707 256.002 11.812C256.45 11.644 256.888 11.56 257.318 11.56C258.326 11.56 259.133 11.8587 259.74 12.456C260.365 13.0533 260.678 13.8513 260.678 14.85C260.678 15.774 260.374 16.5533 259.768 17.188C259.161 17.8227 258.4 18.14 257.486 18.14C256.347 18.14 255.502 17.874 254.952 17.342L255.484 16.516C255.913 16.8987 256.557 17.09 257.416 17.09C258.004 17.09 258.484 16.9313 258.858 16.614C259.231 16.2873 259.455 15.8347 259.53 15.256ZM266.337 11.7H267.807L265.049 14.71L268.073 18H266.519L263.677 14.78L266.337 11.7ZM263.411 18H262.291V11.7H263.411V18ZM273.766 16.278L274.298 17.09C273.757 17.79 272.949 18.14 271.876 18.14C270.868 18.14 270.051 17.8413 269.426 17.244C268.81 16.6467 268.502 15.8487 268.502 14.85C268.502 13.926 268.805 13.1467 269.412 12.512C270.019 11.8773 270.779 11.56 271.694 11.56C272.795 11.56 273.621 11.8353 274.172 12.386L273.654 13.268C273.169 12.8293 272.567 12.61 271.848 12.61C271.26 12.61 270.751 12.8247 270.322 13.254C269.902 13.674 269.692 14.206 269.692 14.85C269.692 15.5313 269.907 16.0727 270.336 16.474C270.775 16.8847 271.316 17.09 271.96 17.09C272.688 17.09 273.29 16.8193 273.766 16.278ZM281.428 18H280.308V12.75H276.878V18H275.758V11.7H281.428V18ZM283.959 17.216C283.343 16.5813 283.035 15.7927 283.035 14.85C283.035 13.898 283.343 13.114 283.959 12.498C284.585 11.8727 285.397 11.56 286.395 11.56C287.394 11.56 288.201 11.8727 288.817 12.498C289.443 13.114 289.755 13.898 289.755 14.85C289.755 15.802 289.443 16.5907 288.817 17.216C288.201 17.832 287.394 18.14 286.395 18.14C285.406 18.14 284.594 17.832 283.959 17.216ZM284.841 13.24C284.431 13.6507 284.225 14.1873 284.225 14.85C284.225 15.5127 284.426 16.0493 284.827 16.46C285.238 16.88 285.761 17.09 286.395 17.09C287.03 17.09 287.548 16.8847 287.949 16.474C288.36 16.054 288.565 15.5127 288.565 14.85C288.565 14.206 288.36 13.6693 287.949 13.24C287.548 12.82 287.03 12.61 286.395 12.61C285.761 12.61 285.243 12.82 284.841 13.24ZM292.491 20.8H291.371V11.7H292.491V12.442C292.715 12.1807 293.023 11.9707 293.415 11.812C293.807 11.644 294.213 11.56 294.633 11.56C295.529 11.56 296.234 11.8587 296.747 12.456C297.279 13.044 297.545 13.8093 297.545 14.752C297.545 15.7133 297.242 16.5207 296.635 17.174C296.038 17.818 295.249 18.14 294.269 18.14C293.513 18.14 292.921 17.9953 292.491 17.706V20.8ZM294.311 12.61C293.565 12.61 292.958 12.8993 292.491 13.478V16.6C292.986 16.9267 293.546 17.09 294.171 17.09C294.834 17.09 295.361 16.88 295.753 16.46C296.155 16.0307 296.355 15.4753 296.355 14.794C296.355 14.1313 296.173 13.604 295.809 13.212C295.445 12.8107 294.946 12.61 294.311 12.61ZM300.416 12.82H298.106V11.7H303.846V12.82H301.536V18H300.416V12.82ZM305.407 13.03L305.113 12.134C305.738 11.7513 306.438 11.56 307.213 11.56C308.062 11.56 308.678 11.77 309.061 12.19C309.443 12.61 309.635 13.2587 309.635 14.136V18H308.571V17.188C308.076 17.7947 307.404 18.098 306.555 18.098C305.976 18.098 305.509 17.9253 305.155 17.58C304.8 17.2253 304.623 16.7493 304.623 16.152C304.623 15.536 304.842 15.0507 305.281 14.696C305.719 14.332 306.293 14.15 307.003 14.15C307.665 14.15 308.188 14.2853 308.571 14.556C308.571 13.8467 308.473 13.338 308.277 13.03C308.081 12.722 307.703 12.568 307.143 12.568C306.573 12.568 305.995 12.722 305.407 13.03ZM306.947 17.09C307.572 17.09 308.113 16.8193 308.571 16.278V15.48C308.179 15.2 307.707 15.06 307.157 15.06C306.774 15.06 306.452 15.1533 306.191 15.34C305.939 15.5173 305.812 15.7693 305.812 16.096C305.812 16.404 305.911 16.6467 306.107 16.824C306.312 17.0013 306.592 17.09 306.947 17.09ZM26.768 30.31L23.128 35H22.008V28.7H23.128V33.39L26.768 28.7H27.888V35H26.768V30.31ZM38.0385 33.432L38.3885 34.314C37.7819 34.8647 36.9932 35.14 36.0225 35.14C34.9959 35.14 34.1792 34.8413 33.5725 34.244C32.9565 33.6467 32.6485 32.8487 32.6485 31.85C32.6485 30.9073 32.9379 30.1233 33.5165 29.498C34.0859 28.8727 34.8792 28.56 35.8965 28.56C36.7365 28.56 37.4319 28.8307 37.9825 29.372C38.5425 29.904 38.8225 30.5947 38.8225 31.444C38.8225 31.7147 38.7992 31.9667 38.7525 32.2H33.9085C33.9552 32.788 34.1745 33.25 34.5665 33.586C34.9679 33.922 35.4812 34.09 36.1065 34.09C36.9279 34.09 37.5719 33.8707 38.0385 33.432ZM35.8405 29.61C35.2899 29.61 34.8325 29.764 34.4685 30.072C34.1139 30.38 33.9039 30.786 33.8385 31.29H37.6605C37.6325 30.7673 37.4552 30.3567 37.1285 30.058C36.8112 29.7593 36.3819 29.61 35.8405 29.61ZM41.462 35H40.342V28.7H44.332V29.75H41.462V35ZM45.7132 34.216C45.0972 33.5813 44.7892 32.7927 44.7892 31.85C44.7892 30.898 45.0972 30.114 45.7132 29.498C46.3385 28.8727 47.1505 28.56 48.1492 28.56C49.1478 28.56 49.9552 28.8727 50.5712 29.498C51.1965 30.114 51.5092 30.898 51.5092 31.85C51.5092 32.802 51.1965 33.5907 50.5712 34.216C49.9552 34.832 49.1478 35.14 48.1492 35.14C47.1598 35.14 46.3478 34.832 45.7132 34.216ZM46.5952 30.24C46.1845 30.6507 45.9792 31.1873 45.9792 31.85C45.9792 32.5127 46.1798 33.0493 46.5812 33.46C46.9918 33.88 47.5145 34.09 48.1492 34.09C48.7838 34.09 49.3018 33.8847 49.7032 33.474C50.1138 33.054 50.3192 32.5127 50.3192 31.85C50.3192 31.206 50.1138 30.6693 49.7032 30.24C49.3018 29.82 48.7838 29.61 48.1492 29.61C47.5145 29.61 46.9965 29.82 46.5952 30.24ZM57.3897 35H56.2697V28.7H57.2917L59.7137 31.822L62.0097 28.7H63.0037V35H61.8837V30.408L59.6997 33.334H59.6577L57.3897 30.408V35ZM70.0034 33.432L70.3534 34.314C69.7467 34.8647 68.9581 35.14 67.9874 35.14C66.9607 35.14 66.1441 34.8413 65.5374 34.244C64.9214 33.6467 64.6134 32.8487 64.6134 31.85C64.6134 30.9073 64.9027 30.1233 65.4814 29.498C66.0507 28.8727 66.8441 28.56 67.8614 28.56C68.7014 28.56 69.3967 28.8307 69.9474 29.372C70.5074 29.904 70.7874 30.5947 70.7874 31.444C70.7874 31.7147 70.7641 31.9667 70.7174 32.2H65.8734C65.9201 32.788 66.1394 33.25 66.5314 33.586C66.9327 33.922 67.4461 34.09 68.0714 34.09C68.8927 34.09 69.5367 33.8707 70.0034 33.432ZM67.8054 29.61C67.2547 29.61 66.7974 29.764 66.4334 30.072C66.0787 30.38 65.8687 30.786 65.8034 31.29H69.6254C69.5974 30.7673 69.4201 30.3567 69.0934 30.058C68.7761 29.7593 68.3467 29.61 67.8054 29.61ZM77.0688 33.278L77.6008 34.09C77.0595 34.79 76.2521 35.14 75.1788 35.14C74.1708 35.14 73.3541 34.8413 72.7288 34.244C72.1128 33.6467 71.8048 32.8487 71.8048 31.85C71.8048 30.926 72.1081 30.1467 72.7148 29.512C73.3215 28.8773 74.0821 28.56 74.9968 28.56C76.0981 28.56 76.9241 28.8353 77.4748 29.386L76.9568 30.268C76.4715 29.8293 75.8695 29.61 75.1508 29.61C74.5628 29.61 74.0541 29.8247 73.6248 30.254C73.2048 30.674 72.9948 31.206 72.9948 31.85C72.9948 32.5313 73.2095 33.0727 73.6388 33.474C74.0775 33.8847 74.6188 34.09 75.2628 34.09C75.9908 34.09 76.5928 33.8193 77.0688 33.278ZM80.4907 29.82H78.1807V28.7H83.9207V29.82H81.6107V35H80.4907V29.82ZM85.4436 34.216C84.8276 33.5813 84.5196 32.7927 84.5196 31.85C84.5196 30.898 84.8276 30.114 85.4436 29.498C86.069 28.8727 86.881 28.56 87.8796 28.56C88.8783 28.56 89.6856 28.8727 90.3016 29.498C90.927 30.114 91.2396 30.898 91.2396 31.85C91.2396 32.802 90.927 33.5907 90.3016 34.216C89.6856 34.832 88.8783 35.14 87.8796 35.14C86.8903 35.14 86.0783 34.832 85.4436 34.216ZM86.3256 30.24C85.915 30.6507 85.7096 31.1873 85.7096 31.85C85.7096 32.5127 85.9103 33.0493 86.3116 33.46C86.7223 33.88 87.245 34.09 87.8796 34.09C88.5143 34.09 89.0323 33.8847 89.4336 33.474C89.8443 33.054 90.0496 32.5127 90.0496 31.85C90.0496 31.206 89.8443 30.6693 89.4336 30.24C89.0323 29.82 88.5143 29.61 87.8796 29.61C87.245 29.61 86.727 29.82 86.3256 30.24ZM101.74 35H100.62V32.34H97.1202V35H96.0002V28.7H97.1202V31.29H100.62V28.7H101.74V35ZM104.102 30.03L103.808 29.134C104.433 28.7513 105.133 28.56 105.908 28.56C106.757 28.56 107.373 28.77 107.756 29.19C108.138 29.61 108.33 30.2587 108.33 31.136V35H107.266V34.188C106.771 34.7947 106.099 35.098 105.25 35.098C104.671 35.098 104.204 34.9253 103.85 34.58C103.495 34.2253 103.318 33.7493 103.318 33.152C103.318 32.536 103.537 32.0507 103.976 31.696C104.414 31.332 104.988 31.15 105.698 31.15C106.36 31.15 106.883 31.2853 107.266 31.556C107.266 30.8467 107.168 30.338 106.972 30.03C106.776 29.722 106.398 29.568 105.838 29.568C105.268 29.568 104.69 29.722 104.102 30.03ZM105.642 34.09C106.267 34.09 106.808 33.8193 107.266 33.278V32.48C106.874 32.2 106.402 32.06 105.852 32.06C105.469 32.06 105.147 32.1533 104.886 32.34C104.634 32.5173 104.508 32.7693 104.508 33.096C104.508 33.404 104.606 33.6467 104.802 33.824C105.007 34.0013 105.287 34.09 105.642 34.09ZM114.47 35H113.35V28.7H117.34V29.75H114.47V35ZM123.43 35H122.31V29.82H120.098L120.028 30.884C119.954 31.752 119.842 32.4753 119.692 33.054C119.552 33.6233 119.366 34.0527 119.132 34.342C118.908 34.622 118.67 34.818 118.418 34.93C118.166 35.0327 117.858 35.084 117.494 35.084L117.41 33.992C117.513 34.0013 117.62 33.9873 117.732 33.95C117.844 33.9033 117.966 33.81 118.096 33.67C118.236 33.53 118.358 33.3433 118.46 33.11C118.572 32.8767 118.67 32.55 118.754 32.13C118.848 31.7007 118.908 31.2107 118.936 30.66L119.048 28.7H123.43V35ZM125.953 34.216C125.337 33.5813 125.029 32.7927 125.029 31.85C125.029 30.898 125.337 30.114 125.953 29.498C126.579 28.8727 127.391 28.56 128.389 28.56C129.388 28.56 130.195 28.8727 130.811 29.498C131.437 30.114 131.749 30.898 131.749 31.85C131.749 32.802 131.437 33.5907 130.811 34.216C130.195 34.832 129.388 35.14 128.389 35.14C127.4 35.14 126.588 34.832 125.953 34.216ZM126.835 30.24C126.425 30.6507 126.219 31.1873 126.219 31.85C126.219 32.5127 126.42 33.0493 126.821 33.46C127.232 33.88 127.755 34.09 128.389 34.09C129.024 34.09 129.542 33.8847 129.943 33.474C130.354 33.054 130.559 32.5127 130.559 31.85C130.559 31.206 130.354 30.6693 129.943 30.24C129.542 29.82 129.024 29.61 128.389 29.61C127.755 29.61 127.237 29.82 126.835 30.24ZM138.237 25.06L138.839 25.942C138.615 26.25 138.345 26.46 138.027 26.572C137.682 26.6933 137.29 26.7867 136.851 26.852C136.422 26.9173 136.016 27.034 135.633 27.202C134.681 27.6407 134.149 28.6533 134.037 30.24H134.065C134.271 29.8013 134.602 29.4467 135.059 29.176C135.526 28.9053 136.025 28.77 136.557 28.77C137.453 28.77 138.163 29.0547 138.685 29.624C139.217 30.1933 139.483 30.954 139.483 31.906C139.483 32.802 139.18 33.5673 138.573 34.202C137.976 34.8273 137.201 35.14 136.249 35.14C135.223 35.14 134.411 34.79 133.813 34.09C133.216 33.3993 132.917 32.4427 132.917 31.22C132.917 28.4947 133.697 26.8007 135.255 26.138C135.61 25.9793 136.021 25.8627 136.487 25.788C136.851 25.7227 137.113 25.6713 137.271 25.634C137.43 25.5967 137.598 25.5313 137.775 25.438C137.962 25.3447 138.116 25.2187 138.237 25.06ZM134.107 31.43C134.107 32.2327 134.303 32.8767 134.695 33.362C135.087 33.8473 135.596 34.09 136.221 34.09C136.828 34.09 137.323 33.8847 137.705 33.474C138.097 33.0727 138.293 32.5687 138.293 31.962C138.293 31.318 138.111 30.8 137.747 30.408C137.393 30.016 136.903 29.82 136.277 29.82C135.708 29.82 135.232 29.9787 134.849 30.296C134.448 30.6227 134.201 31.0007 134.107 31.43ZM141.426 30.03L141.132 29.134C141.757 28.7513 142.457 28.56 143.232 28.56C144.081 28.56 144.697 28.77 145.08 29.19C145.463 29.61 145.654 30.2587 145.654 31.136V35H144.59V34.188C144.095 34.7947 143.423 35.098 142.574 35.098C141.995 35.098 141.529 34.9253 141.174 34.58C140.819 34.2253 140.642 33.7493 140.642 33.152C140.642 32.536 140.861 32.0507 141.3 31.696C141.739 31.332 142.313 31.15 143.022 31.15C143.685 31.15 144.207 31.2853 144.59 31.556C144.59 30.8467 144.492 30.338 144.296 30.03C144.1 29.722 143.722 29.568 143.162 29.568C142.593 29.568 142.014 29.722 141.426 30.03ZM142.966 34.09C143.591 34.09 144.133 33.8193 144.59 33.278V32.48C144.198 32.2 143.727 32.06 143.176 32.06C142.793 32.06 142.471 32.1533 142.21 32.34C141.958 32.5173 141.832 32.7693 141.832 33.096C141.832 33.404 141.93 33.6467 142.126 33.824C142.331 34.0013 142.611 34.09 142.966 34.09ZM152.961 35H151.841V29.82H149.629L149.559 30.884C149.485 31.752 149.373 32.4753 149.223 33.054C149.083 33.6233 148.897 34.0527 148.663 34.342C148.439 34.622 148.201 34.818 147.949 34.93C147.697 35.0327 147.389 35.084 147.025 35.084L146.941 33.992C147.044 34.0013 147.151 33.9873 147.263 33.95C147.375 33.9033 147.497 33.81 147.627 33.67C147.767 33.53 147.889 33.3433 147.991 33.11C148.103 32.8767 148.201 32.55 148.285 32.13C148.379 31.7007 148.439 31.2107 148.467 30.66L148.579 28.7H152.961V35ZM157.109 35H154.981V28.7H156.101V30.59H157.249C158.107 30.59 158.737 30.786 159.139 31.178C159.54 31.5607 159.741 32.088 159.741 32.76C159.741 33.3947 159.531 33.9267 159.111 34.356C158.691 34.7853 158.023 35 157.109 35ZM157.039 31.64H156.101V33.95H157.025C158.042 33.95 158.551 33.5673 158.551 32.802C158.551 32.0273 158.047 31.64 157.039 31.64ZM166.982 35H165.862V32.34H162.362V35H161.242V28.7H162.362V31.29H165.862V28.7H166.982V35ZM169.512 34.216C168.896 33.5813 168.588 32.7927 168.588 31.85C168.588 30.898 168.896 30.114 169.512 29.498C170.137 28.8727 170.949 28.56 171.948 28.56C172.947 28.56 173.754 28.8727 174.37 29.498C174.995 30.114 175.308 30.898 175.308 31.85C175.308 32.802 174.995 33.5907 174.37 34.216C173.754 34.832 172.947 35.14 171.948 35.14C170.959 35.14 170.147 34.832 169.512 34.216ZM170.394 30.24C169.983 30.6507 169.778 31.1873 169.778 31.85C169.778 32.5127 169.979 33.0493 170.38 33.46C170.791 33.88 171.313 34.09 171.948 34.09C172.583 34.09 173.101 33.8847 173.502 33.474C173.913 33.054 174.118 32.5127 174.118 31.85C174.118 31.206 173.913 30.6693 173.502 30.24C173.101 29.82 172.583 29.61 171.948 29.61C171.313 29.61 170.795 29.82 170.394 30.24ZM178.044 35H176.924V28.7H177.946L180.368 31.822L182.664 28.7H183.658V35H182.538V30.408L180.354 33.334H180.312L178.044 30.408V35ZM189.952 37.8H188.832V28.7H189.952V29.442C190.176 29.1807 190.484 28.9707 190.876 28.812C191.268 28.644 191.674 28.56 192.094 28.56C192.99 28.56 193.695 28.8587 194.208 29.456C194.74 30.044 195.006 30.8093 195.006 31.752C195.006 32.7133 194.703 33.5207 194.096 34.174C193.499 34.818 192.71 35.14 191.73 35.14C190.974 35.14 190.382 34.9953 189.952 34.706V37.8ZM191.772 29.61C191.026 29.61 190.419 29.8993 189.952 30.478V33.6C190.447 33.9267 191.007 34.09 191.632 34.09C192.295 34.09 192.822 33.88 193.214 33.46C193.616 33.0307 193.816 32.4753 193.816 31.794C193.816 31.1313 193.634 30.604 193.27 30.212C192.906 29.8107 192.407 29.61 191.772 29.61ZM198.642 35H196.612V28.7H197.732V30.59H198.768C199.626 30.59 200.256 30.786 200.658 31.178C201.059 31.5607 201.26 32.088 201.26 32.76C201.26 33.3947 201.05 33.9267 200.63 34.356C200.228 34.7853 199.566 35 198.642 35ZM203.584 35H202.464V28.7H203.584V35ZM198.558 31.64H197.732V33.95H198.544C199.076 33.95 199.463 33.8567 199.706 33.67C199.948 33.4833 200.07 33.194 200.07 32.802C200.07 32.0273 199.566 31.64 198.558 31.64ZM211.334 35H210.214V32.34H206.714V35H205.594V28.7H206.714V31.29H210.214V28.7H211.334V35ZM217.406 28.7H218.876L216.118 31.71L219.142 35H217.588L214.746 31.78L217.406 28.7ZM214.48 35H213.36V28.7H214.48V35ZM224.96 33.432L225.31 34.314C224.704 34.8647 223.915 35.14 222.944 35.14C221.918 35.14 221.101 34.8413 220.494 34.244C219.878 33.6467 219.57 32.8487 219.57 31.85C219.57 30.9073 219.86 30.1233 220.438 29.498C221.008 28.8727 221.801 28.56 222.818 28.56C223.658 28.56 224.354 28.8307 224.904 29.372C225.464 29.904 225.744 30.5947 225.744 31.444C225.744 31.7147 225.721 31.9667 225.674 32.2H220.83C220.877 32.788 221.096 33.25 221.488 33.586C221.89 33.922 222.403 34.09 223.028 34.09C223.85 34.09 224.494 33.8707 224.96 33.432ZM222.762 29.61C222.212 29.61 221.754 29.764 221.39 30.072C221.036 30.38 220.826 30.786 220.76 31.29H224.582C224.554 30.7673 224.377 30.3567 224.05 30.058C223.733 29.7593 223.304 29.61 222.762 29.61ZM231.156 27.72C231.156 27.2907 230.993 26.9267 230.666 26.628C230.349 26.3293 229.943 26.18 229.448 26.18C228.645 26.18 227.992 26.5253 227.488 27.216L226.816 26.474C227.077 26.0447 227.451 25.704 227.936 25.452C228.421 25.1907 228.949 25.06 229.518 25.06C230.386 25.06 231.077 25.2933 231.59 25.76C232.103 26.2173 232.36 26.7913 232.36 27.482C232.36 27.9207 232.285 28.308 232.136 28.644C232.099 28.7373 232.057 28.826 232.01 28.91C231.963 28.994 231.907 29.078 231.842 29.162C231.777 29.2367 231.721 29.302 231.674 29.358C231.637 29.4047 231.571 29.47 231.478 29.554C231.385 29.6287 231.319 29.6847 231.282 29.722C231.254 29.75 231.184 29.8107 231.072 29.904C230.96 29.988 230.89 30.0393 230.862 30.058C230.806 30.1047 230.727 30.17 230.624 30.254C230.531 30.3287 230.456 30.3893 230.4 30.436C230.353 30.4827 230.288 30.5433 230.204 30.618C230.12 30.6927 230.055 30.758 230.008 30.814C229.961 30.87 229.91 30.94 229.854 31.024C229.798 31.108 229.756 31.1873 229.728 31.262C229.709 31.3367 229.686 31.4207 229.658 31.514C229.639 31.6073 229.63 31.71 229.63 31.822C229.639 31.9247 229.653 32.0367 229.672 32.158L228.664 32.172C228.496 31.2853 228.715 30.59 229.322 30.086C229.415 30.0113 229.569 29.8947 229.784 29.736C230.008 29.568 230.181 29.4327 230.302 29.33C230.423 29.218 230.559 29.078 230.708 28.91C230.867 28.742 230.979 28.56 231.044 28.364C231.119 28.168 231.156 27.9533 231.156 27.72ZM228.384 34.244C228.384 34.0387 228.459 33.866 228.608 33.726C228.757 33.5767 228.953 33.502 229.196 33.502C229.392 33.502 229.565 33.5767 229.714 33.726C229.863 33.8753 229.938 34.048 229.938 34.244C229.938 34.468 229.868 34.6593 229.728 34.818C229.588 34.9673 229.411 35.042 229.196 35.042C228.953 35.042 228.757 34.9673 228.608 34.818C228.459 34.6593 228.384 34.468 228.384 34.244Z" fill="white"/>
<defs>
<linearGradient id="paint0_linear" x1="335" y1="82.1334" x2="600.619" y2="-43.0173" gradientUnits="userSpaceOnUse">
<stop stop-color="#1B75BB"/>
<stop offset="1" stop-color="#289DDE"/>
</linearGradient>
</defs>
</svg>
