<svg width="335" height="44" viewBox="0 0 335 44" fill="none" xmlns="http://www.w3.org/2000/svg">
<rect x="335" y="44" width="335" height="44" rx="5" transform="rotate(180 335 44)" fill="url(#paint0_linear)"/>
<path d="M10.4827 13.128C10.8094 13.128 11.0894 13.2447 11.3227 13.478C11.5654 13.7113 11.6867 13.9913 11.6867 14.318C11.6867 14.6447 11.5654 14.9247 11.3227 15.158C11.0894 15.3913 10.8094 15.508 10.4827 15.508C10.1654 15.508 9.89005 15.3913 9.65672 15.158C9.42339 14.9247 9.30672 14.6447 9.30672 14.318C9.30672 13.9913 9.42339 13.7113 9.65672 13.478C9.89005 13.2447 10.1654 13.128 10.4827 13.128ZM30.24 18H29.05V13.562H23.66V18H22.47V8.2H23.66V12.442H29.05V8.2H30.24V18ZM33.0491 13.03L32.7551 12.134C33.3804 11.7513 34.0804 11.56 34.8551 11.56C35.7044 11.56 36.3204 11.77 36.7031 12.19C37.0857 12.61 37.2771 13.2587 37.2771 14.136V18H36.2131V17.188C35.7184 17.7947 35.0464 18.098 34.1971 18.098C33.6184 18.098 33.1517 17.9253 32.7971 17.58C32.4424 17.2253 32.2651 16.7493 32.2651 16.152C32.2651 15.536 32.4844 15.0507 32.9231 14.696C33.3617 14.332 33.9357 14.15 34.6451 14.15C35.3077 14.15 35.8304 14.2853 36.2131 14.556C36.2131 13.8467 36.1151 13.338 35.9191 13.03C35.7231 12.722 35.3451 12.568 34.7851 12.568C34.2157 12.568 33.6371 12.722 33.0491 13.03ZM34.5891 17.09C35.2144 17.09 35.7557 16.8193 36.2131 16.278V15.48C35.8211 15.2 35.3497 15.06 34.7991 15.06C34.4164 15.06 34.0944 15.1533 33.8331 15.34C33.5811 15.5173 33.4551 15.7693 33.4551 16.096C33.4551 16.404 33.5531 16.6467 33.7491 16.824C33.9544 17.0013 34.2344 17.09 34.5891 17.09ZM45.9091 11.7H47.0291V18H45.9091V15.55C45.4237 15.858 44.8404 16.012 44.1591 16.012C42.6657 16.012 41.9191 15.2093 41.9191 13.604V11.7H43.1091V13.478C43.1091 14.4673 43.5617 14.962 44.4671 14.962C45.0551 14.962 45.5357 14.8313 45.9091 14.57V11.7ZM54.021 16.432L54.371 17.314C53.7643 17.8647 52.9756 18.14 52.005 18.14C50.9783 18.14 50.1616 17.8413 49.555 17.244C48.939 16.6467 48.631 15.8487 48.631 14.85C48.631 13.9073 48.9203 13.1233 49.499 12.498C50.0683 11.8727 50.8616 11.56 51.879 11.56C52.719 11.56 53.4143 11.8307 53.965 12.372C54.525 12.904 54.805 13.5947 54.805 14.444C54.805 14.7147 54.7816 14.9667 54.735 15.2H49.891C49.9376 15.788 50.157 16.25 50.549 16.586C50.9503 16.922 51.4636 17.09 52.089 17.09C52.9103 17.09 53.5543 16.8707 54.021 16.432ZM51.823 12.61C51.2723 12.61 50.815 12.764 50.451 13.072C50.0963 13.38 49.8863 13.786 49.821 14.29H53.643C53.615 13.7673 53.4376 13.3567 53.111 13.058C52.7936 12.7593 52.3643 12.61 51.823 12.61ZM57.4444 18H56.3244V11.7H57.3464L59.7684 14.822L62.0644 11.7H63.0584V18H61.9384V13.408L59.7544 16.334H59.7124L57.4444 13.408V18ZM73.9726 18H72.8526V15.34H69.3526V18H68.2326V11.7H69.3526V14.29H72.8526V11.7H73.9726V18ZM80.9682 16.432L81.3182 17.314C80.7116 17.8647 79.9229 18.14 78.9522 18.14C77.9256 18.14 77.1089 17.8413 76.5022 17.244C75.8862 16.6467 75.5782 15.8487 75.5782 14.85C75.5782 13.9073 75.8676 13.1233 76.4462 12.498C77.0156 11.8727 77.8089 11.56 78.8262 11.56C79.6662 11.56 80.3616 11.8307 80.9122 12.372C81.4722 12.904 81.7522 13.5947 81.7522 14.444C81.7522 14.7147 81.7289 14.9667 81.6822 15.2H76.8382C76.8849 15.788 77.1042 16.25 77.4962 16.586C77.8976 16.922 78.4109 17.09 79.0362 17.09C79.8576 17.09 80.5016 16.8707 80.9682 16.432ZM78.7702 12.61C78.2196 12.61 77.7622 12.764 77.3982 13.072C77.0436 13.38 76.8336 13.786 76.7682 14.29H80.5902C80.5622 13.7673 80.3849 13.3567 80.0582 13.058C79.7409 12.7593 79.3116 12.61 78.7702 12.61ZM83.6936 17.216C83.0776 16.5813 82.7696 15.7927 82.7696 14.85C82.7696 13.898 83.0776 13.114 83.6936 12.498C84.319 11.8727 85.131 11.56 86.1296 11.56C87.1283 11.56 87.9356 11.8727 88.5516 12.498C89.177 13.114 89.4896 13.898 89.4896 14.85C89.4896 15.802 89.177 16.5907 88.5516 17.216C87.9356 17.832 87.1283 18.14 86.1296 18.14C85.1403 18.14 84.3283 17.832 83.6936 17.216ZM84.5756 13.24C84.165 13.6507 83.9596 14.1873 83.9596 14.85C83.9596 15.5127 84.1603 16.0493 84.5616 16.46C84.9723 16.88 85.495 17.09 86.1296 17.09C86.7643 17.09 87.2823 16.8847 87.6836 16.474C88.0943 16.054 88.2996 15.5127 88.2996 14.85C88.2996 14.206 88.0943 13.6693 87.6836 13.24C87.2823 12.82 86.7643 12.61 86.1296 12.61C85.495 12.61 84.977 12.82 84.5756 13.24ZM95.9777 8.06L96.5797 8.942C96.3557 9.25 96.085 9.46 95.7677 9.572C95.4223 9.69333 95.0303 9.78667 94.5917 9.852C94.1623 9.91733 93.7563 10.034 93.3737 10.202C92.4217 10.6407 91.8897 11.6533 91.7777 13.24H91.8057C92.011 12.8013 92.3423 12.4467 92.7997 12.176C93.2663 11.9053 93.7657 11.77 94.2977 11.77C95.1937 11.77 95.903 12.0547 96.4257 12.624C96.9577 13.1933 97.2237 13.954 97.2237 14.906C97.2237 15.802 96.9203 16.5673 96.3137 17.202C95.7163 17.8273 94.9417 18.14 93.9897 18.14C92.963 18.14 92.151 17.79 91.5537 17.09C90.9563 16.3993 90.6577 15.4427 90.6577 14.22C90.6577 11.4947 91.437 9.80067 92.9957 9.138C93.3503 8.97933 93.761 8.86267 94.2277 8.788C94.5917 8.72267 94.853 8.67133 95.0117 8.634C95.1703 8.59667 95.3383 8.53133 95.5157 8.438C95.7023 8.34467 95.8563 8.21867 95.9777 8.06ZM91.8477 14.43C91.8477 15.2327 92.0437 15.8767 92.4357 16.362C92.8277 16.8473 93.3363 17.09 93.9617 17.09C94.5683 17.09 95.063 16.8847 95.4457 16.474C95.8377 16.0727 96.0337 15.5687 96.0337 14.962C96.0337 14.318 95.8517 13.8 95.4877 13.408C95.133 13.016 94.643 12.82 94.0177 12.82C93.4483 12.82 92.9723 12.9787 92.5897 13.296C92.1883 13.6227 91.941 14.0007 91.8477 14.43ZM102.786 11.7H104.088L101.834 14.738L104.228 18H102.856L101.008 15.452L99.1325 18H97.8305L100.21 14.794L97.9705 11.7H99.3425L101.05 14.08L102.786 11.7ZM105.746 17.216C105.13 16.5813 104.822 15.7927 104.822 14.85C104.822 13.898 105.13 13.114 105.746 12.498C106.372 11.8727 107.184 11.56 108.182 11.56C109.181 11.56 109.988 11.8727 110.604 12.498C111.23 13.114 111.542 13.898 111.542 14.85C111.542 15.802 111.23 16.5907 110.604 17.216C109.988 17.832 109.181 18.14 108.182 18.14C107.193 18.14 106.381 17.832 105.746 17.216ZM106.628 13.24C106.218 13.6507 106.012 14.1873 106.012 14.85C106.012 15.5127 106.213 16.0493 106.614 16.46C107.025 16.88 107.548 17.09 108.182 17.09C108.817 17.09 109.335 16.8847 109.736 16.474C110.147 16.054 110.352 15.5127 110.352 14.85C110.352 14.206 110.147 13.6693 109.736 13.24C109.335 12.82 108.817 12.61 108.182 12.61C107.548 12.61 107.03 12.82 106.628 13.24ZM113.094 19.54H112.044V16.95H112.828C113.062 16.6607 113.267 16.194 113.444 15.55C113.622 14.8967 113.738 14.1687 113.794 13.366L113.892 11.7H118.19V16.95H119.24V19.54H118.19V18H113.094V19.54ZM114.942 12.75L114.872 13.8C114.816 14.5 114.704 15.1393 114.536 15.718C114.368 16.2967 114.196 16.7073 114.018 16.95H117.07V12.75H114.942ZM125.219 13.31L121.579 18H120.459V11.7H121.579V16.39L125.219 11.7H126.339V18H125.219V13.31ZM129.495 18H128.375V11.7H129.397L131.819 14.822L134.115 11.7H135.109V18H133.989V13.408L131.805 16.334H131.763L129.495 13.408V18ZM137.643 17.216C137.027 16.5813 136.719 15.7927 136.719 14.85C136.719 13.898 137.027 13.114 137.643 12.498C138.268 11.8727 139.08 11.56 140.079 11.56C141.078 11.56 141.885 11.8727 142.501 12.498C143.126 13.114 143.439 13.898 143.439 14.85C143.439 15.802 143.126 16.5907 142.501 17.216C141.885 17.832 141.078 18.14 140.079 18.14C139.09 18.14 138.278 17.832 137.643 17.216ZM138.525 13.24C138.114 13.6507 137.909 14.1873 137.909 14.85C137.909 15.5127 138.11 16.0493 138.511 16.46C138.922 16.88 139.444 17.09 140.079 17.09C140.714 17.09 141.232 16.8847 141.633 16.474C142.044 16.054 142.249 15.5127 142.249 14.85C142.249 14.206 142.044 13.6693 141.633 13.24C141.232 12.82 140.714 12.61 140.079 12.61C139.444 12.61 138.926 12.82 138.525 13.24ZM153.043 16.278L153.575 17.09C153.034 17.79 152.227 18.14 151.153 18.14C150.145 18.14 149.329 17.8413 148.703 17.244C148.087 16.6467 147.779 15.8487 147.779 14.85C147.779 13.926 148.083 13.1467 148.689 12.512C149.296 11.8773 150.057 11.56 150.971 11.56C152.073 11.56 152.899 11.8353 153.449 12.386L152.931 13.268C152.446 12.8293 151.844 12.61 151.125 12.61C150.537 12.61 150.029 12.8247 149.599 13.254C149.179 13.674 148.969 14.206 148.969 14.85C148.969 15.5313 149.184 16.0727 149.613 16.474C150.052 16.8847 150.593 17.09 151.237 17.09C151.965 17.09 152.567 16.8193 153.043 16.278ZM158.964 20.8H157.844V18.14H157.69C156.635 18.14 155.8 17.832 155.184 17.216C154.577 16.5907 154.274 15.802 154.274 14.85C154.274 13.9447 154.582 13.17 155.198 12.526C155.814 11.882 156.64 11.56 157.676 11.56H157.844V8.2H158.964V11.56H159.146C160.172 11.56 160.994 11.8727 161.61 12.498C162.226 13.1233 162.534 13.9073 162.534 14.85C162.534 15.83 162.235 16.6233 161.638 17.23C161.05 17.8367 160.219 18.14 159.146 18.14H158.964V20.8ZM155.464 14.85C155.464 15.5313 155.664 16.0773 156.066 16.488C156.476 16.8893 157.032 17.09 157.732 17.09H157.844V12.61H157.662C156.98 12.61 156.444 12.82 156.052 13.24C155.66 13.6507 155.464 14.1873 155.464 14.85ZM159.146 12.61H158.964V17.09H159.09C159.799 17.09 160.35 16.8893 160.742 16.488C161.143 16.0773 161.344 15.5313 161.344 14.85C161.344 14.234 161.148 13.7067 160.756 13.268C160.364 12.8293 159.827 12.61 159.146 12.61ZM164.645 17.216C164.029 16.5813 163.721 15.7927 163.721 14.85C163.721 13.898 164.029 13.114 164.645 12.498C165.27 11.8727 166.082 11.56 167.081 11.56C168.079 11.56 168.887 11.8727 169.503 12.498C170.128 13.114 170.441 13.898 170.441 14.85C170.441 15.802 170.128 16.5907 169.503 17.216C168.887 17.832 168.079 18.14 167.081 18.14C166.091 18.14 165.279 17.832 164.645 17.216ZM165.527 13.24C165.116 13.6507 164.911 14.1873 164.911 14.85C164.911 15.5127 165.111 16.0493 165.513 16.46C165.923 16.88 166.446 17.09 167.081 17.09C167.715 17.09 168.233 16.8847 168.635 16.474C169.045 16.054 169.251 15.5127 169.251 14.85C169.251 14.206 169.045 13.6693 168.635 13.24C168.233 12.82 167.715 12.61 167.081 12.61C166.446 12.61 165.928 12.82 165.527 13.24ZM176.103 11.7H177.573L174.815 14.71L177.839 18H176.285L173.443 14.78L176.103 11.7ZM173.177 18H172.057V11.7H173.177V18ZM183.358 11.7H184.632L182.112 18C181.655 19.1107 181.258 19.848 180.922 20.212C180.568 20.604 180.162 20.8 179.704 20.8C179.294 20.8 178.897 20.6693 178.514 20.408L178.878 19.554C179.177 19.694 179.41 19.764 179.578 19.764C179.84 19.764 180.073 19.652 180.278 19.428C180.493 19.204 180.708 18.84 180.922 18.336L181.062 18L178.038 11.7H179.382L181.23 15.704C181.268 15.7693 181.394 16.0867 181.608 16.656C181.692 16.348 181.79 16.026 181.902 15.69L183.358 11.7ZM190.381 16.278L190.913 17.09C190.372 17.79 189.565 18.14 188.491 18.14C187.483 18.14 186.667 17.8413 186.041 17.244C185.425 16.6467 185.117 15.8487 185.117 14.85C185.117 13.926 185.421 13.1467 186.027 12.512C186.634 11.8773 187.395 11.56 188.309 11.56C189.411 11.56 190.237 11.8353 190.787 12.386L190.269 13.268C189.784 12.8293 189.182 12.61 188.463 12.61C187.875 12.61 187.367 12.8247 186.937 13.254C186.517 13.674 186.307 14.206 186.307 14.85C186.307 15.5313 186.522 16.0727 186.951 16.474C187.39 16.8847 187.931 17.09 188.575 17.09C189.303 17.09 189.905 16.8193 190.381 16.278ZM197.133 13.31L193.493 18H192.373V11.7H193.493V16.39L197.133 11.7H198.253V18H197.133V13.31ZM201.409 20.8H200.289V11.7H201.409V12.442C201.633 12.1807 201.941 11.9707 202.333 11.812C202.725 11.644 203.131 11.56 203.551 11.56C204.447 11.56 205.152 11.8587 205.665 12.456C206.197 13.044 206.463 13.8093 206.463 14.752C206.463 15.7133 206.16 16.5207 205.553 17.174C204.956 17.818 204.167 18.14 203.187 18.14C202.431 18.14 201.839 17.9953 201.409 17.706V20.8ZM203.229 12.61C202.483 12.61 201.876 12.8993 201.409 13.478V16.6C201.904 16.9267 202.464 17.09 203.089 17.09C203.752 17.09 204.279 16.88 204.671 16.46C205.073 16.0307 205.273 15.4753 205.273 14.794C205.273 14.1313 205.091 13.604 204.727 13.212C204.363 12.8107 203.864 12.61 203.229 12.61ZM208.573 17.216C207.957 16.5813 207.649 15.7927 207.649 14.85C207.649 13.898 207.957 13.114 208.573 12.498C209.198 11.8727 210.01 11.56 211.009 11.56C212.007 11.56 212.815 11.8727 213.431 12.498C214.056 13.114 214.369 13.898 214.369 14.85C214.369 15.802 214.056 16.5907 213.431 17.216C212.815 17.832 212.007 18.14 211.009 18.14C210.019 18.14 209.207 17.832 208.573 17.216ZM209.455 13.24C209.044 13.6507 208.839 14.1873 208.839 14.85C208.839 15.5127 209.039 16.0493 209.441 16.46C209.851 16.88 210.374 17.09 211.009 17.09C211.643 17.09 212.161 16.8847 212.563 16.474C212.973 16.054 213.179 15.5127 213.179 14.85C213.179 14.206 212.973 13.6693 212.563 13.24C212.161 12.82 211.643 12.61 211.009 12.61C210.374 12.61 209.856 12.82 209.455 13.24ZM215.985 18V11.7C216.031 11.7 216.097 11.7 216.181 11.7C216.265 11.6907 216.386 11.686 216.545 11.686C216.703 11.6767 216.848 11.672 216.979 11.672C217.669 11.6533 218.099 11.644 218.267 11.644C220.077 11.644 220.983 12.1853 220.983 13.268C220.983 13.6413 220.866 13.9633 220.633 14.234C220.399 14.4953 220.096 14.654 219.723 14.71V14.738C220.703 14.9153 221.193 15.41 221.193 16.222C221.193 17.4447 220.227 18.056 218.295 18.056C218.201 18.056 217.791 18.0467 217.063 18.028C216.923 18.028 216.769 18.0233 216.601 18.014C216.433 18.014 216.302 18.0093 216.209 18C216.115 18 216.041 18 215.985 18ZM218.449 15.172H217.105V17.104C217.777 17.132 218.206 17.146 218.393 17.146C219.466 17.146 220.003 16.81 220.003 16.138C220.003 15.494 219.485 15.172 218.449 15.172ZM218.351 12.554C218.08 12.554 217.665 12.568 217.105 12.596V14.472H218.519C218.901 14.472 219.209 14.3833 219.443 14.206C219.676 14.0287 219.793 13.7907 219.793 13.492C219.793 12.8667 219.312 12.554 218.351 12.554ZM223.239 13.03L222.945 12.134C223.57 11.7513 224.27 11.56 225.045 11.56C225.894 11.56 226.51 11.77 226.893 12.19C227.275 12.61 227.467 13.2587 227.467 14.136V18H226.403V17.188C225.908 17.7947 225.236 18.098 224.387 18.098C223.808 18.098 223.341 17.9253 222.987 17.58C222.632 17.2253 222.455 16.7493 222.455 16.152C222.455 15.536 222.674 15.0507 223.113 14.696C223.551 14.332 224.125 14.15 224.835 14.15C225.497 14.15 226.02 14.2853 226.403 14.556C226.403 13.8467 226.305 13.338 226.109 13.03C225.913 12.722 225.535 12.568 224.975 12.568C224.405 12.568 223.827 12.722 223.239 13.03ZM224.779 17.09C225.404 17.09 225.945 16.8193 226.403 16.278V15.48C226.011 15.2 225.539 15.06 224.989 15.06C224.606 15.06 224.284 15.1533 224.023 15.34C223.771 15.5173 223.645 15.7693 223.645 16.096C223.645 16.404 223.743 16.6467 223.939 16.824C224.144 17.0013 224.424 17.09 224.779 17.09ZM230.854 12.82H228.544V11.7H234.284V12.82H231.974V18H230.854V12.82ZM237.636 18H235.508V11.7H236.628V13.59H237.776C238.635 13.59 239.265 13.786 239.666 14.178C240.067 14.5607 240.268 15.088 240.268 15.76C240.268 16.3947 240.058 16.9267 239.638 17.356C239.218 17.7853 238.551 18 237.636 18ZM237.566 14.64H236.628V16.95H237.552C238.569 16.95 239.078 16.5673 239.078 15.802C239.078 15.0273 238.574 14.64 237.566 14.64ZM244.914 18V11.7C244.961 11.7 245.026 11.7 245.11 11.7C245.194 11.6907 245.316 11.686 245.474 11.686C245.633 11.6767 245.778 11.672 245.908 11.672C246.599 11.6533 247.028 11.644 247.196 11.644C249.007 11.644 249.912 12.1853 249.912 13.268C249.912 13.6413 249.796 13.9633 249.562 14.234C249.329 14.4953 249.026 14.654 248.652 14.71V14.738C249.632 14.9153 250.122 15.41 250.122 16.222C250.122 17.4447 249.156 18.056 247.224 18.056C247.131 18.056 246.72 18.0467 245.992 18.028C245.852 18.028 245.698 18.0233 245.53 18.014C245.362 18.014 245.232 18.0093 245.138 18C245.045 18 244.97 18 244.914 18ZM247.378 15.172H246.034V17.104C246.706 17.132 247.136 17.146 247.322 17.146C248.396 17.146 248.932 16.81 248.932 16.138C248.932 15.494 248.414 15.172 247.378 15.172ZM247.28 12.554C247.01 12.554 246.594 12.568 246.034 12.596V14.472H247.448C247.831 14.472 248.139 14.3833 248.372 14.206C248.606 14.0287 248.722 13.7907 248.722 13.492C248.722 12.8667 248.242 12.554 247.28 12.554ZM257.572 18H256.452V15.34H252.952V18H251.832V11.7H252.952V14.29H256.452V11.7H257.572V18ZM264.358 13.31L260.718 18H259.598V11.7H260.718V16.39L264.358 11.7H265.478V18H264.358V13.31ZM268.634 18H267.514V11.7H268.536L270.958 14.822L273.254 11.7H274.248V18H273.128V13.408L270.944 16.334H270.902L268.634 13.408V18ZM276.614 13.03L276.32 12.134C276.945 11.7513 277.645 11.56 278.42 11.56C279.269 11.56 279.885 11.77 280.268 12.19C280.65 12.61 280.842 13.2587 280.842 14.136V18H279.778V17.188C279.283 17.7947 278.611 18.098 277.762 18.098C277.183 18.098 276.716 17.9253 276.362 17.58C276.007 17.2253 275.83 16.7493 275.83 16.152C275.83 15.536 276.049 15.0507 276.488 14.696C276.926 14.332 277.5 14.15 278.21 14.15C278.872 14.15 279.395 14.2853 279.778 14.556C279.778 13.8467 279.68 13.338 279.484 13.03C279.288 12.722 278.91 12.568 278.35 12.568C277.78 12.568 277.202 12.722 276.614 13.03ZM278.154 17.09C278.779 17.09 279.32 16.8193 279.778 16.278V15.48C279.386 15.2 278.914 15.06 278.364 15.06C277.981 15.06 277.659 15.1533 277.398 15.34C277.146 15.5173 277.02 15.7693 277.02 16.096C277.02 16.404 277.118 16.6467 277.314 16.824C277.519 17.0013 277.799 17.09 278.154 17.09ZM288.457 18H287.337V15.34H283.837V18H282.717V11.7H283.837V14.29H287.337V11.7H288.457V18ZM295.243 13.31L291.603 18H290.483V11.7H291.603V16.39L295.243 11.7H296.363V18H295.243V13.31ZM303.369 16.432L303.719 17.314C303.112 17.8647 302.323 18.14 301.353 18.14C300.326 18.14 299.509 17.8413 298.903 17.244C298.287 16.6467 297.979 15.8487 297.979 14.85C297.979 13.9073 298.268 13.1233 298.847 12.498C299.416 11.8727 300.209 11.56 301.227 11.56C302.067 11.56 302.762 11.8307 303.313 12.372C303.873 12.904 304.153 13.5947 304.153 14.444C304.153 14.7147 304.129 14.9667 304.083 15.2H299.239C299.285 15.788 299.505 16.25 299.897 16.586C300.298 16.922 300.811 17.09 301.437 17.09C302.258 17.09 302.902 16.8707 303.369 16.432ZM301.171 12.61C300.62 12.61 300.163 12.764 299.799 13.072C299.444 13.38 299.234 13.786 299.169 14.29H302.991C302.963 13.7673 302.785 13.3567 302.459 13.058C302.141 12.7593 301.712 12.61 301.171 12.61ZM305.42 17.356C305.42 17.132 305.49 16.9547 305.63 16.824C305.77 16.684 305.966 16.614 306.218 16.614C306.517 16.614 306.759 16.74 306.946 16.992C307.133 17.2347 307.226 17.5613 307.226 17.972C307.226 18.476 307.086 18.91 306.806 19.274C306.535 19.6473 306.162 19.904 305.686 20.044L305.378 19.512C305.863 19.3627 306.162 19.05 306.274 18.574C306.339 18.2567 306.335 18.0233 306.26 17.874C306.204 17.958 306.101 18 305.952 18C305.812 18 305.686 17.9393 305.574 17.818C305.471 17.6873 305.42 17.5333 305.42 17.356ZM22.344 30.03L22.05 29.134C22.6753 28.7513 23.3753 28.56 24.15 28.56C24.9993 28.56 25.6153 28.77 25.998 29.19C26.3807 29.61 26.572 30.2587 26.572 31.136V35H25.508V34.188C25.0133 34.7947 24.3413 35.098 23.492 35.098C22.9133 35.098 22.4467 34.9253 22.092 34.58C21.7373 34.2253 21.56 33.7493 21.56 33.152C21.56 32.536 21.7793 32.0507 22.218 31.696C22.6567 31.332 23.2307 31.15 23.94 31.15C24.6027 31.15 25.1253 31.2853 25.508 31.556C25.508 30.8467 25.41 30.338 25.214 30.03C25.018 29.722 24.64 29.568 24.08 29.568C23.5107 29.568 22.932 29.722 22.344 30.03ZM23.884 34.09C24.5093 34.09 25.0507 33.8193 25.508 33.278V32.48C25.116 32.2 24.6447 32.06 24.094 32.06C23.7113 32.06 23.3893 32.1533 23.128 32.34C22.876 32.5173 22.75 32.7693 22.75 33.096C22.75 33.404 22.848 33.6467 23.044 33.824C23.2493 34.0013 23.5293 34.09 23.884 34.09ZM35.638 28.7H37.108L34.35 31.71L37.374 35H35.82L32.978 31.78L35.638 28.7ZM32.712 35H31.592V28.7H32.712V35ZM38.9006 30.03L38.6066 29.134C39.232 28.7513 39.932 28.56 40.7066 28.56C41.556 28.56 42.172 28.77 42.5546 29.19C42.9373 29.61 43.1286 30.2587 43.1286 31.136V35H42.0646V34.188C41.57 34.7947 40.898 35.098 40.0486 35.098C39.47 35.098 39.0033 34.9253 38.6486 34.58C38.294 34.2253 38.1166 33.7493 38.1166 33.152C38.1166 32.536 38.336 32.0507 38.7746 31.696C39.2133 31.332 39.7873 31.15 40.4966 31.15C41.1593 31.15 41.682 31.2853 42.0646 31.556C42.0646 30.8467 41.9666 30.338 41.7706 30.03C41.5746 29.722 41.1966 29.568 40.6366 29.568C40.0673 29.568 39.4886 29.722 38.9006 30.03ZM40.4406 34.09C41.066 34.09 41.6073 33.8193 42.0646 33.278V32.48C41.6726 32.2 41.2013 32.06 40.6506 32.06C40.268 32.06 39.946 32.1533 39.6846 32.34C39.4326 32.5173 39.3066 32.7693 39.3066 33.096C39.3066 33.404 39.4046 33.6467 39.6006 33.824C39.806 34.0013 40.086 34.09 40.4406 34.09ZM49.0501 28.7H50.5201L47.7621 31.71L50.7861 35H49.2321L46.3901 31.78L49.0501 28.7ZM46.1241 35H45.0041V28.7H46.1241V35ZM56.7368 30.31L53.0968 35H51.9768V28.7H53.0968V33.39L56.7368 28.7H57.8568V35H56.7368V30.31ZM61.0128 35H59.8928V28.7H60.9148L63.3368 31.822L65.6328 28.7H66.6268V35H65.5068V30.408L63.3228 33.334H63.2808L61.0128 30.408V35ZM73.4164 30.31L69.7764 35H68.6564V28.7H69.7764V33.39L73.4164 28.7H74.5364V35H73.4164V30.31ZM83.987 37.8H82.867V35.14H82.713C81.6583 35.14 80.823 34.832 80.207 34.216C79.6003 33.5907 79.297 32.802 79.297 31.85C79.297 30.9447 79.605 30.17 80.221 29.526C80.837 28.882 81.663 28.56 82.699 28.56H82.867V25.2H83.987V28.56H84.169C85.1957 28.56 86.017 28.8727 86.633 29.498C87.249 30.1233 87.557 30.9073 87.557 31.85C87.557 32.83 87.2583 33.6233 86.661 34.23C86.073 34.8367 85.2423 35.14 84.169 35.14H83.987V37.8ZM80.487 31.85C80.487 32.5313 80.6877 33.0773 81.089 33.488C81.4997 33.8893 82.055 34.09 82.755 34.09H82.867V29.61H82.685C82.0037 29.61 81.467 29.82 81.075 30.24C80.683 30.6507 80.487 31.1873 80.487 31.85ZM84.169 29.61H83.987V34.09H84.113C84.8223 34.09 85.373 33.8893 85.765 33.488C86.1663 33.0773 86.367 32.5313 86.367 31.85C86.367 31.234 86.171 30.7067 85.779 30.268C85.387 29.8293 84.8503 29.61 84.169 29.61ZM89.5003 30.03L89.2063 29.134C89.8316 28.7513 90.5316 28.56 91.3063 28.56C92.1556 28.56 92.7716 28.77 93.1543 29.19C93.5369 29.61 93.7283 30.2587 93.7283 31.136V35H92.6643V34.188C92.1696 34.7947 91.4976 35.098 90.6483 35.098C90.0696 35.098 89.6029 34.9253 89.2483 34.58C88.8936 34.2253 88.7163 33.7493 88.7163 33.152C88.7163 32.536 88.9356 32.0507 89.3743 31.696C89.8129 31.332 90.3869 31.15 91.0963 31.15C91.7589 31.15 92.2816 31.2853 92.6643 31.556C92.6643 30.8467 92.5663 30.338 92.3703 30.03C92.1743 29.722 91.7963 29.568 91.2363 29.568C90.6669 29.568 90.0883 29.722 89.5003 30.03ZM91.0403 34.09C91.6656 34.09 92.2069 33.8193 92.6643 33.278V32.48C92.2723 32.2 91.8009 32.06 91.2503 32.06C90.8676 32.06 90.5456 32.1533 90.2843 32.34C90.0323 32.5173 89.9062 32.7693 89.9062 33.096C89.9062 33.404 90.0043 33.6467 90.2003 33.824C90.4056 34.0013 90.6856 34.09 91.0403 34.09ZM99.6497 28.7H101.12L98.3617 31.71L101.386 35H99.8317L96.9897 31.78L99.6497 28.7ZM96.7237 35H95.6037V28.7H96.7237V35ZM104.088 29.82H101.778V28.7H107.518V29.82H105.208V35H104.088V29.82ZM109.041 34.216C108.425 33.5813 108.117 32.7927 108.117 31.85C108.117 30.898 108.425 30.114 109.041 29.498C109.667 28.8727 110.479 28.56 111.477 28.56C112.476 28.56 113.283 28.8727 113.899 29.498C114.525 30.114 114.837 30.898 114.837 31.85C114.837 32.802 114.525 33.5907 113.899 34.216C113.283 34.832 112.476 35.14 111.477 35.14C110.488 35.14 109.676 34.832 109.041 34.216ZM109.923 30.24C109.513 30.6507 109.307 31.1873 109.307 31.85C109.307 32.5127 109.508 33.0493 109.909 33.46C110.32 33.88 110.843 34.09 111.477 34.09C112.112 34.09 112.63 33.8847 113.031 33.474C113.442 33.054 113.647 32.5127 113.647 31.85C113.647 31.206 113.442 30.6693 113.031 30.24C112.63 29.82 112.112 29.61 111.477 29.61C110.843 29.61 110.325 29.82 109.923 30.24ZM117.573 37.8H116.453V28.7H117.573V29.442C117.797 29.1807 118.105 28.9707 118.497 28.812C118.889 28.644 119.295 28.56 119.715 28.56C120.611 28.56 121.316 28.8587 121.829 29.456C122.361 30.044 122.627 30.8093 122.627 31.752C122.627 32.7133 122.324 33.5207 121.717 34.174C121.12 34.818 120.331 35.14 119.351 35.14C118.595 35.14 118.003 34.9953 117.573 34.706V37.8ZM119.393 29.61C118.647 29.61 118.04 29.8993 117.573 30.478V33.6C118.068 33.9267 118.628 34.09 119.253 34.09C119.916 34.09 120.443 33.88 120.835 33.46C121.237 33.0307 121.437 32.4753 121.437 31.794C121.437 31.1313 121.255 30.604 120.891 30.212C120.527 29.8107 120.028 29.61 119.393 29.61ZM124.569 30.03L124.275 29.134C124.9 28.7513 125.6 28.56 126.375 28.56C127.224 28.56 127.84 28.77 128.223 29.19C128.605 29.61 128.797 30.2587 128.797 31.136V35H127.733V34.188C127.238 34.7947 126.566 35.098 125.717 35.098C125.138 35.098 124.671 34.9253 124.317 34.58C123.962 34.2253 123.785 33.7493 123.785 33.152C123.785 32.536 124.004 32.0507 124.443 31.696C124.881 31.332 125.455 31.15 126.165 31.15C126.827 31.15 127.35 31.2853 127.733 31.556C127.733 30.8467 127.635 30.338 127.439 30.03C127.243 29.722 126.865 29.568 126.305 29.568C125.735 29.568 125.157 29.722 124.569 30.03ZM126.109 34.09C126.734 34.09 127.275 33.8193 127.733 33.278V32.48C127.341 32.2 126.869 32.06 126.319 32.06C125.936 32.06 125.614 32.1533 125.353 32.34C125.101 32.5173 124.975 32.7693 124.975 33.096C124.975 33.404 125.073 33.6467 125.269 33.824C125.474 34.0013 125.754 34.09 126.109 34.09ZM131.792 35H130.672V28.7H131.694L134.116 31.822L136.412 28.7H137.406V35H136.286V30.408L134.102 33.334H134.06L131.792 30.408V35ZM144.196 30.31L140.556 35H139.436V28.7H140.556V33.39L144.196 28.7H145.316V35H144.196V30.31ZM151.616 35H150.496V28.7H151.518L153.94 31.822L156.236 28.7H157.23V35H156.11V30.408L153.926 33.334H153.884L151.616 30.408V35ZM159.764 34.216C159.148 33.5813 158.84 32.7927 158.84 31.85C158.84 30.898 159.148 30.114 159.764 29.498C160.389 28.8727 161.201 28.56 162.2 28.56C163.199 28.56 164.006 28.8727 164.622 29.498C165.247 30.114 165.56 30.898 165.56 31.85C165.56 32.802 165.247 33.5907 164.622 34.216C164.006 34.832 163.199 35.14 162.2 35.14C161.211 35.14 160.399 34.832 159.764 34.216ZM160.646 30.24C160.235 30.6507 160.03 31.1873 160.03 31.85C160.03 32.5127 160.231 33.0493 160.632 33.46C161.043 33.88 161.565 34.09 162.2 34.09C162.835 34.09 163.353 33.8847 163.754 33.474C164.165 33.054 164.37 32.5127 164.37 31.85C164.37 31.206 164.165 30.6693 163.754 30.24C163.353 29.82 162.835 29.61 162.2 29.61C161.565 29.61 161.047 29.82 160.646 30.24ZM173.568 28.7H174.954L172.672 31.738L175.122 35H173.736L171.398 31.738L173.568 28.7ZM171.118 35H169.998V28.7H171.118V35ZM166.036 35L168.444 31.738L166.162 28.7H167.562L169.718 31.738L167.408 35H166.036ZM182.076 35H180.956V32.34H177.456V35H176.336V28.7H177.456V31.29H180.956V28.7H182.076V35ZM184.606 34.216C183.99 33.5813 183.682 32.7927 183.682 31.85C183.682 30.898 183.99 30.114 184.606 29.498C185.231 28.8727 186.043 28.56 187.042 28.56C188.04 28.56 188.848 28.8727 189.464 29.498C190.089 30.114 190.402 30.898 190.402 31.85C190.402 32.802 190.089 33.5907 189.464 34.216C188.848 34.832 188.04 35.14 187.042 35.14C186.052 35.14 185.24 34.832 184.606 34.216ZM185.488 30.24C185.077 30.6507 184.872 31.1873 184.872 31.85C184.872 32.5127 185.072 33.0493 185.474 33.46C185.884 33.88 186.407 34.09 187.042 34.09C187.676 34.09 188.194 33.8847 188.596 33.474C189.006 33.054 189.212 32.5127 189.212 31.85C189.212 31.206 189.006 30.6693 188.596 30.24C188.194 29.82 187.676 29.61 187.042 29.61C186.407 29.61 185.889 29.82 185.488 30.24ZM200.832 35H199.712V29.75H196.282V35H195.162V28.7H200.832V35ZM203.98 37.8H202.86V28.7H203.98V29.442C204.204 29.1807 204.512 28.9707 204.904 28.812C205.296 28.644 205.702 28.56 206.122 28.56C207.018 28.56 207.722 28.8587 208.236 29.456C208.768 30.044 209.034 30.8093 209.034 31.752C209.034 32.7133 208.73 33.5207 208.124 34.174C207.526 34.818 206.738 35.14 205.758 35.14C205.002 35.14 204.409 34.9953 203.98 34.706V37.8ZM205.8 29.61C205.053 29.61 204.446 29.8993 203.98 30.478V33.6C204.474 33.9267 205.034 34.09 205.66 34.09C206.322 34.09 206.85 33.88 207.242 33.46C207.643 33.0307 207.844 32.4753 207.844 31.794C207.844 31.1313 207.662 30.604 207.298 30.212C206.934 29.8107 206.434 29.61 205.8 29.61ZM215.609 33.432L215.959 34.314C215.352 34.8647 214.564 35.14 213.593 35.14C212.566 35.14 211.75 34.8413 211.143 34.244C210.527 33.6467 210.219 32.8487 210.219 31.85C210.219 30.9073 210.508 30.1233 211.087 29.498C211.656 28.8727 212.45 28.56 213.467 28.56C214.307 28.56 215.002 28.8307 215.553 29.372C216.113 29.904 216.393 30.5947 216.393 31.444C216.393 31.7147 216.37 31.9667 216.323 32.2H211.479C211.526 32.788 211.745 33.25 212.137 33.586C212.538 33.922 213.052 34.09 213.677 34.09C214.498 34.09 215.142 33.8707 215.609 33.432ZM213.411 29.61C212.86 29.61 212.403 29.764 212.039 30.072C211.684 30.38 211.474 30.786 211.409 31.29H215.231C215.203 30.7673 215.026 30.3567 214.699 30.058C214.382 29.7593 213.952 29.61 213.411 29.61ZM223.652 35H222.532V32.34H219.032V35H217.912V28.7H219.032V31.29H222.532V28.7H223.652V35ZM230.648 33.432L230.998 34.314C230.391 34.8647 229.603 35.14 228.632 35.14C227.605 35.14 226.789 34.8413 226.182 34.244C225.566 33.6467 225.258 32.8487 225.258 31.85C225.258 30.9073 225.547 30.1233 226.126 29.498C226.695 28.8727 227.489 28.56 228.506 28.56C229.346 28.56 230.041 28.8307 230.592 29.372C231.152 29.904 231.432 30.5947 231.432 31.444C231.432 31.7147 231.409 31.9667 231.362 32.2H226.518C226.565 32.788 226.784 33.25 227.176 33.586C227.577 33.922 228.091 34.09 228.716 34.09C229.537 34.09 230.181 33.8707 230.648 33.432ZM228.45 29.61C227.899 29.61 227.442 29.764 227.078 30.072C226.723 30.38 226.513 30.786 226.448 31.29H230.27C230.242 30.7673 230.065 30.3567 229.738 30.058C229.421 29.7593 228.991 29.61 228.45 29.61ZM237.823 25.06L238.425 25.942C238.201 26.25 237.931 26.46 237.613 26.572C237.268 26.6933 236.876 26.7867 236.437 26.852C236.008 26.9173 235.602 27.034 235.219 27.202C234.267 27.6407 233.735 28.6533 233.623 30.24H233.651C233.857 29.8013 234.188 29.4467 234.645 29.176C235.112 28.9053 235.611 28.77 236.143 28.77C237.039 28.77 237.749 29.0547 238.271 29.624C238.803 30.1933 239.069 30.954 239.069 31.906C239.069 32.802 238.766 33.5673 238.159 34.202C237.562 34.8273 236.787 35.14 235.835 35.14C234.809 35.14 233.997 34.79 233.399 34.09C232.802 33.3993 232.503 32.4427 232.503 31.22C232.503 28.4947 233.283 26.8007 234.841 26.138C235.196 25.9793 235.607 25.8627 236.073 25.788C236.437 25.7227 236.699 25.6713 236.857 25.634C237.016 25.5967 237.184 25.5313 237.361 25.438C237.548 25.3447 237.702 25.2187 237.823 25.06ZM233.693 31.43C233.693 32.2327 233.889 32.8767 234.281 33.362C234.673 33.8473 235.182 34.09 235.807 34.09C236.414 34.09 236.909 33.8847 237.291 33.474C237.683 33.0727 237.879 32.5687 237.879 31.962C237.879 31.318 237.697 30.8 237.333 30.408C236.979 30.016 236.489 29.82 235.863 29.82C235.294 29.82 234.818 29.9787 234.435 30.296C234.034 30.6227 233.787 31.0007 233.693 31.43ZM241.796 37.8H240.676V28.7H241.796V29.442C242.02 29.1807 242.328 28.9707 242.72 28.812C243.112 28.644 243.518 28.56 243.938 28.56C244.834 28.56 245.539 28.8587 246.052 29.456C246.584 30.044 246.85 30.8093 246.85 31.752C246.85 32.7133 246.547 33.5207 245.94 34.174C245.343 34.818 244.554 35.14 243.574 35.14C242.818 35.14 242.225 34.9953 241.796 34.706V37.8ZM243.616 29.61C242.869 29.61 242.263 29.8993 241.796 30.478V33.6C242.291 33.9267 242.851 34.09 243.476 34.09C244.139 34.09 244.666 33.88 245.058 33.46C245.459 33.0307 245.66 32.4753 245.66 31.794C245.66 31.1313 245.478 30.604 245.114 30.212C244.75 29.8107 244.251 29.61 243.616 29.61ZM253.425 33.432L253.775 34.314C253.169 34.8647 252.38 35.14 251.409 35.14C250.383 35.14 249.566 34.8413 248.959 34.244C248.343 33.6467 248.035 32.8487 248.035 31.85C248.035 30.9073 248.325 30.1233 248.903 29.498C249.473 28.8727 250.266 28.56 251.283 28.56C252.123 28.56 252.819 28.8307 253.369 29.372C253.929 29.904 254.209 30.5947 254.209 31.444C254.209 31.7147 254.186 31.9667 254.139 32.2H249.295C249.342 32.788 249.561 33.25 249.953 33.586C250.355 33.922 250.868 34.09 251.493 34.09C252.315 34.09 252.959 33.8707 253.425 33.432ZM251.227 29.61C250.677 29.61 250.219 29.764 249.855 30.072C249.501 30.38 249.291 30.786 249.225 31.29H253.047C253.019 30.7673 252.842 30.3567 252.515 30.058C252.198 29.7593 251.769 29.61 251.227 29.61ZM259.341 28.7H260.461V35H259.341V32.55C258.855 32.858 258.272 33.012 257.591 33.012C256.097 33.012 255.351 32.2093 255.351 30.604V28.7H256.541V30.478C256.541 31.4673 256.993 31.962 257.899 31.962C258.487 31.962 258.967 31.8313 259.341 31.57V28.7ZM264.611 35H262.483V28.7H263.603V30.59H264.751C265.609 30.59 266.239 30.786 266.641 31.178C267.042 31.5607 267.243 32.088 267.243 32.76C267.243 33.3947 267.033 33.9267 266.613 34.356C266.193 34.7853 265.525 35 264.611 35ZM264.541 31.64H263.603V33.95H264.527C265.544 33.95 266.053 33.5673 266.053 32.802C266.053 32.0273 265.549 31.64 264.541 31.64ZM272.636 27.72C272.636 27.2907 272.473 26.9267 272.146 26.628C271.829 26.3293 271.423 26.18 270.928 26.18C270.126 26.18 269.472 26.5253 268.968 27.216L268.296 26.474C268.558 26.0447 268.931 25.704 269.416 25.452C269.902 25.1907 270.429 25.06 270.998 25.06C271.866 25.06 272.557 25.2933 273.07 25.76C273.584 26.2173 273.84 26.7913 273.84 27.482C273.84 27.9207 273.766 28.308 273.616 28.644C273.579 28.7373 273.537 28.826 273.49 28.91C273.444 28.994 273.388 29.078 273.322 29.162C273.257 29.2367 273.201 29.302 273.154 29.358C273.117 29.4047 273.052 29.47 272.958 29.554C272.865 29.6287 272.8 29.6847 272.762 29.722C272.734 29.75 272.664 29.8107 272.552 29.904C272.44 29.988 272.37 30.0393 272.342 30.058C272.286 30.1047 272.207 30.17 272.104 30.254C272.011 30.3287 271.936 30.3893 271.88 30.436C271.834 30.4827 271.768 30.5433 271.684 30.618C271.6 30.6927 271.535 30.758 271.488 30.814C271.442 30.87 271.39 30.94 271.334 31.024C271.278 31.108 271.236 31.1873 271.208 31.262C271.19 31.3367 271.166 31.4207 271.138 31.514C271.12 31.6073 271.11 31.71 271.11 31.822C271.12 31.9247 271.134 32.0367 271.152 32.158L270.144 32.172C269.976 31.2853 270.196 30.59 270.802 30.086C270.896 30.0113 271.05 29.8947 271.264 29.736C271.488 29.568 271.661 29.4327 271.782 29.33C271.904 29.218 272.039 29.078 272.188 28.91C272.347 28.742 272.459 28.56 272.524 28.364C272.599 28.168 272.636 27.9533 272.636 27.72ZM269.864 34.244C269.864 34.0387 269.939 33.866 270.088 33.726C270.238 33.5767 270.434 33.502 270.676 33.502C270.872 33.502 271.045 33.5767 271.194 33.726C271.344 33.8753 271.418 34.048 271.418 34.244C271.418 34.468 271.348 34.6593 271.208 34.818C271.068 34.9673 270.891 35.042 270.676 35.042C270.434 35.042 270.238 34.9673 270.088 34.818C269.939 34.6593 269.864 34.468 269.864 34.244Z" fill="white"/>
<defs>
<linearGradient id="paint0_linear" x1="335" y1="82.1334" x2="600.619" y2="-43.0173" gradientUnits="userSpaceOnUse">
<stop stop-color="#1B75BB"/>
<stop offset="1" stop-color="#289DDE"/>
</linearGradient>
</defs>
</svg>
