<svg width="32" height="32" viewBox="0 0 32 32" fill="none" xmlns="http://www.w3.org/2000/svg">
<path d="M16 30.9998C7.70588 30.9998 1 24.2939 1 15.9998C1 7.70564 7.70588 0.999756 16 0.999756C24.2941 0.999756 31 7.70564 31 15.9998C31 24.2939 24.2941 30.9998 16 30.9998ZM16 2.76446C8.67647 2.76446 2.76471 8.67623 2.76471 15.9998C2.76471 23.3233 8.67647 29.2351 16 29.2351C23.3235 29.2351 29.2353 23.3233 29.2353 15.9998C29.2353 8.67623 23.3235 2.76446 16 2.76446Z" fill="#F41921"/>
<path d="M10.6653 22.939C10.3689 23.1135 10 22.8929 10 22.5412V9.45884C10 9.10705 10.3689 8.88651 10.6653 9.06104L21.7759 15.6022C22.0747 15.7781 22.0747 16.2219 21.7759 16.3978L10.6653 22.939ZM11.6602 11.5342V20.3815L19.1312 15.9157L11.6602 11.5342Z" fill="#F41921"/>
</svg>
