<svg width="260" height="52" viewBox="0 0 260 52" fill="none" xmlns="http://www.w3.org/2000/svg">
<path d="M197.19 6.75195C197.297 8.02874 198.397 8.89183 200.203 8.89183C201.86 8.89183 203.095 8.02874 203.145 6.75195H201.41C201.346 7.40105 200.882 7.62217 200.203 7.62217C199.525 7.62217 199.047 7.33685 198.925 6.75195H197.19ZM197.147 19.848L202.674 12.3656V19.8409H204.531V9.30554H202.903L197.369 16.8022V9.30554H195.519V19.8409L197.147 19.848ZM185.208 19.848L190.742 12.3656V19.8409H192.591V9.30554H190.971L185.437 16.8022V9.30554H183.587V19.8409L185.208 19.848ZM173.454 19.848H175.311V14.4056L179.595 19.8409H181.952L177.339 14.213L181.68 9.30554H179.445L175.29 14.2986V9.30554H173.433L173.454 19.848ZM170.912 17.4513C170.192 17.9989 169.311 18.2946 168.406 18.293C167.917 18.3127 167.429 18.23 166.974 18.0501C166.519 17.8701 166.107 17.597 165.764 17.2483C165.421 16.8996 165.154 16.483 164.982 16.0254C164.81 15.5677 164.736 15.0791 164.764 14.591C164.764 12.3085 166.242 10.889 168.199 10.889C169.047 10.8668 169.881 11.1168 170.577 11.6023L171.412 10.2328C170.504 9.50388 169.363 9.12653 168.199 9.17001C164.721 9.17001 162.801 11.5738 162.801 14.5982C162.759 15.3228 162.871 16.0479 163.13 16.7261C163.389 17.4043 163.788 18.0202 164.302 18.5334C164.816 19.0466 165.432 19.4456 166.111 19.7041C166.79 19.9626 167.516 20.0748 168.242 20.0334C169.479 20.0823 170.687 19.656 171.619 18.8422L170.912 17.4513ZM153.325 6.75195C153.432 8.02874 154.532 8.89183 156.338 8.89183C157.995 8.89183 159.194 8.02874 159.28 6.75195H157.545C157.488 7.40105 157.017 7.62217 156.338 7.62217C155.66 7.62217 155.181 7.33685 155.06 6.75195H153.325ZM153.282 19.848L158.809 12.3656V19.8409H160.665V9.30554H159.037L153.51 16.8022V9.30554H151.654V19.8409L153.282 19.848ZM141.35 19.848L146.877 12.3656V19.8409H148.726V9.30554H147.098L141.586 16.8022V9.30554H139.736V19.8409L141.35 19.848ZM137.173 17.4513C136.455 17.9988 135.576 18.2946 134.673 18.293C134.184 18.3137 133.696 18.2319 133.241 18.0528C132.786 17.8738 132.373 17.6015 132.029 17.2534C131.685 16.9054 131.418 16.4894 131.245 16.032C131.072 15.5747 130.997 15.0863 131.024 14.5982C131.024 12.3156 132.503 10.8962 134.459 10.8962C135.31 10.8754 136.145 11.1252 136.844 11.6095L137.672 10.2399C136.765 9.50986 135.624 9.13237 134.459 9.17715C130.982 9.17715 129.068 11.5809 129.068 14.6053C129.025 15.3302 129.137 16.0559 129.395 16.7346C129.654 17.4133 130.053 18.0297 130.567 18.5431C131.081 19.0566 131.698 19.4555 132.377 19.7136C133.057 19.9717 133.783 20.0831 134.509 20.0406C135.744 20.0898 136.95 19.6634 137.88 18.8494L137.173 17.4513ZM127.304 17.4513C126.586 17.9988 125.708 18.2946 124.805 18.293C124.316 18.3137 123.828 18.2319 123.373 18.0528C122.917 17.8738 122.504 17.6015 122.161 17.2534C121.817 16.9054 121.55 16.4894 121.377 16.032C121.204 15.5747 121.129 15.0863 121.156 14.5982C121.156 12.3156 122.634 10.8962 124.591 10.8962C125.439 10.8739 126.273 11.1239 126.969 11.6095L127.804 10.2399C126.896 9.51101 125.755 9.13366 124.591 9.17715C121.113 9.17715 119.199 11.5809 119.199 14.6053C119.157 15.3295 119.268 16.0546 119.526 16.7328C119.784 17.411 120.183 18.027 120.696 18.5403C121.209 19.0536 121.826 19.4527 122.504 19.7113C123.183 19.9698 123.908 20.0821 124.634 20.0406C125.878 20.0815 127.09 19.6421 128.018 18.8137L127.304 17.4513ZM108.817 14.5982C108.741 14.0909 108.775 13.5732 108.918 13.0804C109.061 12.5876 109.308 12.1313 109.643 11.7427C109.978 11.3541 110.393 11.0423 110.86 10.8286C111.327 10.6148 111.834 10.5042 112.348 10.5042C112.861 10.5042 113.369 10.6148 113.836 10.8286C114.303 11.0423 114.718 11.3541 115.053 11.7427C115.388 12.1313 115.635 12.5876 115.778 13.0804C115.92 13.5732 115.955 14.0909 115.879 14.5982C115.879 16.681 114.558 18.3001 112.309 18.3001C111.835 18.2901 111.368 18.1859 110.935 17.9936C110.501 17.8013 110.111 17.5248 109.786 17.1802C109.461 16.8356 109.208 16.4299 109.042 15.9865C108.875 15.5432 108.799 15.0713 108.817 14.5982ZM106.853 14.5982C106.828 15.3186 106.952 16.0365 107.218 16.7068C107.484 17.377 107.885 17.9851 108.398 18.4929C108.91 19.0007 109.522 19.3971 110.195 19.6573C110.868 19.9175 111.588 20.0358 112.309 20.0049C113.033 20.0342 113.756 19.9153 114.432 19.6555C115.109 19.3957 115.725 19.0006 116.244 18.4942C116.762 17.9879 117.171 17.3812 117.446 16.7112C117.721 16.0412 117.856 15.3221 117.843 14.5982C117.875 13.8669 117.753 13.1371 117.485 12.4557C117.218 11.7744 116.81 11.1567 116.288 10.6425C115.767 10.1283 115.143 9.72908 114.458 9.47053C113.772 9.21199 113.04 9.09989 112.309 9.14148C111.586 9.1197 110.866 9.24601 110.194 9.51262C109.522 9.77922 108.911 10.1805 108.4 10.6917C107.889 11.2029 107.488 11.8132 107.222 12.4851C106.956 13.1569 106.83 13.876 106.853 14.5982ZM101.598 11.0317C102.862 11.0317 103.54 11.5738 103.54 12.6723C103.54 13.7707 102.683 14.377 101.583 14.377C101.144 14.3754 100.706 14.3492 100.269 14.2986V11.0317C100.769 11.0317 101.219 10.996 101.598 10.996V11.0317ZM100.269 19.8337V16.0247C100.719 16.0675 101.326 16.0675 101.64 16.0675C104.161 16.0675 105.496 14.4412 105.496 12.6509C105.496 10.8605 104.518 9.26987 101.419 9.26987H98.42V19.8409L100.269 19.8337Z" fill="white"/>
<path d="M107.182 34.9485C107.182 31.6673 104.982 29.5275 101.883 29.5275C100.573 29.4814 99.2883 29.8925 98.2488 30.6901L98.9629 32.0739C99.6767 31.543 100.544 31.2577 101.434 31.2607C103.426 31.2607 104.868 32.238 105.232 33.9998H100.534V35.7331H105.275C105.151 36.5908 104.707 37.3699 104.031 37.9137C103.356 38.4576 102.499 38.7259 101.634 38.6647C100.652 38.6637 99.699 38.3404 98.9201 37.7446L98.1203 39.2995C99.1535 40.055 100.411 40.4419 101.691 40.398C105.068 40.398 107.203 38.2581 107.203 34.9485H107.182ZM117.857 40.2268L113.223 34.5704L117.564 29.663H115.337L111.173 34.656V29.663H109.324V40.1983H111.173V34.7701L115.458 40.1983L117.857 40.2268ZM120.649 34.9627C120.649 32.6731 122.12 31.2607 124.084 31.2607C124.932 31.241 125.765 31.4907 126.462 31.974L127.304 30.5974C126.402 29.8617 125.262 29.4812 124.098 29.5275C120.613 29.5275 118.7 31.9384 118.7 34.9627C118.657 35.6876 118.769 36.4133 119.027 37.092C119.286 37.7707 119.685 38.3871 120.199 38.9005C120.713 39.414 121.33 39.8129 122.009 40.071C122.689 40.3291 123.415 40.4405 124.141 40.398C125.377 40.4432 126.585 40.0174 127.519 39.2068L126.804 37.823C126.084 38.3706 125.203 38.6663 124.298 38.6647C123.809 38.6855 123.321 38.6036 122.865 38.424C122.409 38.2445 121.997 37.9714 121.653 37.6225C121.31 37.2735 121.044 36.8565 120.872 36.3983C120.7 35.9401 120.627 35.4511 120.656 34.9627H120.649ZM135.873 40.2268H137.73V29.6915H129.318V40.2268H131.175V31.4248H135.873V40.2268ZM148.891 34.9627C148.891 37.0384 147.57 38.6647 145.32 38.6647C144.844 38.6584 144.374 38.5569 143.937 38.3663C143.501 38.1757 143.107 37.8998 142.779 37.5548C142.451 37.2098 142.195 36.8028 142.027 36.3576C141.859 35.9125 141.782 35.4382 141.8 34.9627C141.724 34.4554 141.758 33.9377 141.901 33.4449C142.044 32.9522 142.291 32.4959 142.626 32.1073C142.961 31.7187 143.376 31.4069 143.843 31.1931C144.31 30.9794 144.817 30.8687 145.331 30.8687C145.845 30.8687 146.352 30.9794 146.819 31.1931C147.286 31.4069 147.701 31.7187 148.036 32.1073C148.371 32.4959 148.618 32.9522 148.761 33.4449C148.904 33.9377 148.938 34.4554 148.862 34.9627H148.891ZM150.826 34.9627C150.853 34.2361 150.729 33.5116 150.462 32.8354C150.194 32.1592 149.788 31.546 149.27 31.0348C148.753 30.5236 148.134 30.1257 147.454 29.8662C146.774 29.6067 146.047 29.4913 145.32 29.5275C144.597 29.5029 143.877 29.6263 143.203 29.8902C142.529 30.1541 141.917 30.5529 141.403 31.062C140.889 31.5711 140.485 32.1797 140.216 32.8506C139.947 33.5214 139.817 34.2402 139.836 34.9627C139.807 35.6881 139.929 36.4116 140.194 37.0873C140.46 37.763 140.864 38.376 141.379 38.8873C141.895 39.3986 142.512 39.7969 143.191 40.057C143.869 40.3171 144.594 40.4333 145.32 40.398C146.045 40.4235 146.767 40.3008 147.442 40.0375C148.117 39.7742 148.731 39.3758 149.247 38.8668C149.762 38.3579 150.168 37.749 150.44 37.0776C150.711 36.4063 150.843 35.6866 150.826 34.9627ZM158.088 33.0368C158.088 34.2066 157.224 34.7345 156.124 34.7345C155.703 34.7345 155.253 34.7345 154.817 34.6631V31.4248C155.317 31.4248 155.767 31.4248 156.138 31.4248C157.409 31.4248 158.088 31.9669 158.088 33.0654V33.0368ZM160.044 33.0654C160.044 31.3321 159.066 29.6772 155.96 29.6772H152.961V40.2125H154.817V36.425C155.267 36.4678 155.867 36.4678 156.188 36.4678C158.702 36.4678 160.044 34.8415 160.044 33.0511V33.0654ZM166.15 31.4248H169.57V29.6915H160.901V31.4248H164.322V40.2268H166.178L166.15 31.4248ZM177.853 40.2268H179.696V29.6915H177.853V33.9713H173.033V29.6915H171.177V40.2268H173.033V35.7331H177.853V40.2268ZM187.543 36.6604C187.543 37.8943 186.829 38.5149 185.465 38.5149C185.101 38.5149 184.801 38.5149 184.473 38.4721V35.0198C184.894 34.977 185.187 34.9485 185.494 34.9485C186.793 34.9485 187.543 35.5334 187.543 36.6604ZM189.507 36.6176C189.507 34.5561 188.25 33.2152 185.644 33.2152C185.252 33.2145 184.861 33.2408 184.473 33.2936V29.6915H182.616V40.2268C183.237 40.2268 184.244 40.2268 185.237 40.2268C187.936 40.2268 189.521 38.8002 189.521 36.5962L189.507 36.6176ZM190.892 40.1626H192.727V29.6915H190.892V40.1626ZM203.274 27.0737H201.568C201.51 27.7157 201.046 27.9439 200.368 27.9439C199.69 27.9439 199.204 27.6586 199.083 27.0737H197.355C197.454 28.3505 198.554 29.2136 200.368 29.2136C202.025 29.2136 203.26 28.3577 203.303 27.0737H203.274ZM202.839 40.1626H204.688V29.6915H203.06L197.533 37.1882V29.6915H195.676V40.2268H197.283L202.817 32.7515L202.839 40.1626Z" fill="white"/>
<path d="M220.255 42.1099H221.983V38.5007H220.555V29.6915H218.705V38.5007H214.078V29.6915H212.229V40.234H220.262L220.255 42.1099ZM223.825 40.234H230.073V38.5007H225.675V35.7759H229.473V34.0426H225.675V31.4248H229.923V29.6915H223.825V40.234ZM239.163 40.234H240.999V29.6915H239.163V33.9713H234.343V29.6915H232.487V40.234H234.343V35.7331H239.163V40.234ZM247.889 31.4248H251.31V29.6915H242.612V31.4248H246.033V40.234H247.889V31.4248ZM258.043 33.0368C258.043 34.2066 257.187 34.7345 256.087 34.7345C255.658 34.7345 255.209 34.7345 254.773 34.6631V31.4248C255.273 31.4248 255.723 31.4248 256.101 31.4248C257.365 31.4248 258.043 31.9669 258.043 33.0654V33.0368ZM260 33.0654C260 31.3321 259.022 29.6772 255.915 29.6772H252.916V40.2197H254.773V36.425C255.223 36.4678 255.83 36.4678 256.144 36.4678C258.657 36.4678 260 34.8415 260 33.0511" fill="white"/>
<path d="M42.1306 0.553521L37.1107 2.42234L36.2181 0.546387L42.1306 0.553521Z" fill="#1B75BB"/>
<path d="M36.2106 0.546387L37.1103 2.42234L32.8116 4.01299L36.2106 0.546387Z" fill="#EC1C24"/>
<path d="M57.3472 0.988281L61.4673 6.75167L46.0006 5.35362L57.3472 0.988281Z" fill="#1B75BB"/>
<path d="M82.7181 0.553223L76.5771 2.97128L73.2852 0.553223H82.7181Z" fill="#1B75BB"/>
<path d="M32.8118 10.2979L27.9133 16.154L21.7866 15.4977L32.8118 10.2979Z" fill="#1B75BB"/>
<path d="M27.9133 16.1457L21.7866 23.3642V15.4966L27.9133 16.1457Z" fill="#EC1C24"/>
<path d="M82.8108 0.553223L80.3115 5.70318L76.577 2.97128L82.718 0.553223H82.8108Z" fill="#EC1C24"/>
<path d="M9.68993 28.0435L9.18294 33.9067L0.0214233 38.8641L9.68993 28.0435Z" fill="#1B75BB"/>
<path d="M9.18293 33.9072L8.49742 40.5408L0 38.886L9.18293 33.9072Z" fill="#EC1C24"/>
<path d="M64.7163 12.0654L73.3851 22.5865L58.9467 21.06L64.7163 12.0654Z" fill="#1B75BB"/>
<path d="M73.3851 22.5875L52.3344 31.3538L58.9466 21.061L73.3851 22.5875Z" fill="#EC1C24"/>
<path d="M42.0517 35.1417L21.7079 43.6584V30.541L42.0517 35.1417Z" fill="#EC1C24"/>
<path d="M66.9511 38.9922L61.0029 51.1467L57.8395 42.7584L66.9511 38.9922Z" fill="#1B75BB"/>
<path d="M57.8397 42.7593L61.003 51.1476L45.6505 48.0305L57.8397 42.7593Z" fill="#EC1C24"/>
<path d="M35.8676 17.2733L47.8283 12.6084L51.113 18.8283L35.8676 17.2733Z" fill="#1B75BB"/>
<path d="M35.8676 17.2734L51.113 18.8284L37.7599 24.2066L35.8676 17.2734Z" fill="#EC1C24"/>
</svg>
