<svg width="401" height="46" viewBox="0 0 401 46" fill="none" xmlns="http://www.w3.org/2000/svg">
<g opacity="0.85">
<path d="M42.1414 0.00648573L37.1203 1.70538L36.2275 0L42.1414 0.00648573Z" fill="#1B75BB"/>
<path d="M36.2191 0L37.119 1.70538L32.8193 3.15139L36.2191 0Z" fill="#EC1C24"/>
<path d="M57.3609 0.4021L61.4821 5.64144L46.0117 4.37051L57.3609 0.4021Z" fill="#1B75BB"/>
<path d="M82.7378 0.00634766L76.5954 2.20454L73.3027 0.00634766H82.7378Z" fill="#1B75BB"/>
<path d="M32.8188 8.86426L27.9192 14.1879L21.791 13.5913L32.8188 8.86426Z" fill="#1B75BB"/>
<path d="M27.9192 14.1811L21.791 20.7433V13.5911L27.9192 14.1811Z" fill="#EC1C24"/>
<path d="M82.829 0.00634766L80.3292 4.68804L76.5938 2.20454L82.7362 0.00634766H82.829Z" fill="#EC1C24"/>
<path d="M9.69226 24.9968L9.18516 30.327L0.0214844 34.8336L9.69226 24.9968Z" fill="#1B75BB"/>
<path d="M9.18509 30.3274L8.49942 36.3578L0 34.8535L9.18509 30.3274Z" fill="#EC1C24"/>
<path d="M64.732 10.4722L73.4028 20.0366L58.9609 18.6489L64.732 10.4722Z" fill="#1B75BB"/>
<path d="M73.4005 20.0366L52.3447 28.0058L58.9586 18.6489L73.4005 20.0366Z" fill="#EC1C24"/>
<path d="M42.0644 31.4495L21.7158 39.1918V27.2671L42.0644 31.4495Z" fill="#EC1C24"/>
<path d="M66.9682 34.9507L61.0186 46L57.8545 38.3744L66.9682 34.9507Z" fill="#1B75BB"/>
<path d="M57.8532 38.374L61.0172 45.9996L45.6611 43.166L57.8532 38.374Z" fill="#EC1C24"/>
<path d="M35.877 15.2056L47.8404 10.9648L51.1259 16.6192L35.877 15.2056Z" fill="#1B75BB"/>
<path d="M35.877 15.2056L51.1259 16.6192L37.7697 21.5083L35.877 15.2056Z" fill="#EC1C24"/>
<path d="M98.1885 36.0833H104.555V34.4889H100.091V31.9751H103.947V30.3807H100.091V27.9634H104.399V26.369H98.2168V36.0833H98.1885ZM115.413 26.369H113.192L110.61 29.8792L107.979 26.369H105.779L109.358 31.1265L105.616 36.0833H107.809L110.56 32.4316L113.326 36.0833H115.526L111.813 31.1072L115.413 26.3497V26.369ZM119.07 36.0833V32.573C119.523 32.6116 120.138 32.6116 120.485 32.6116C123.039 32.6116 124.397 31.1136 124.397 29.4614C124.397 27.8091 123.399 26.3368 120.259 26.3368C119.509 26.3368 117.811 26.369 117.217 26.369V36.0833H119.07ZM120.414 27.9377C121.695 27.9377 122.381 28.4327 122.381 29.4485C122.381 30.4643 121.511 31.0172 120.393 31.0172C119.951 31.0157 119.509 30.9921 119.07 30.9465V27.9634C119.572 27.9634 120.032 27.9634 120.414 27.9634V27.9377ZM125.741 31.2229C125.708 31.8932 125.83 32.5622 126.099 33.1872C126.367 33.8122 126.776 34.3794 127.299 34.8526C127.822 35.3258 128.449 35.6945 129.138 35.9352C129.827 36.1759 130.563 36.2833 131.301 36.2504C132.035 36.2743 132.767 36.1614 133.451 35.9185C134.136 35.6756 134.758 35.308 135.28 34.8382C135.803 34.3684 136.213 33.8064 136.488 33.1869C136.762 32.5673 136.894 31.9033 136.875 31.2358C136.902 30.5665 136.776 29.8993 136.505 29.2766C136.234 28.6539 135.823 28.0892 135.299 27.6183C134.775 27.1474 134.149 26.7807 133.46 26.5413C132.772 26.3019 132.037 26.195 131.301 26.2276C130.568 26.2045 129.838 26.318 129.155 26.5609C128.472 26.8039 127.851 27.1712 127.331 27.6403C126.81 28.1094 126.4 28.6704 126.127 29.2887C125.853 29.907 125.722 30.5696 125.741 31.2358V31.2229ZM127.728 31.2229C127.707 30.7831 127.784 30.3439 127.954 29.9318C128.124 29.5197 128.385 29.1432 128.72 28.8251C129.054 28.507 129.457 28.2538 129.902 28.0808C130.348 27.9078 130.827 27.8187 131.311 27.8187C131.796 27.8187 132.275 27.9078 132.72 28.0808C133.166 28.2538 133.568 28.507 133.903 28.8251C134.238 29.1432 134.498 29.5197 134.669 29.9318C134.839 30.3439 134.916 30.7831 134.894 31.2229C134.894 33.1516 133.55 34.6432 131.301 34.6432C130.82 34.6341 130.346 34.538 129.906 34.3603C129.467 34.1826 129.071 33.9271 128.741 33.6085C128.412 33.29 128.156 32.9149 127.988 32.5053C127.82 32.0956 127.744 31.6597 127.764 31.2229H127.728ZM140.921 36.0833V32.4444H142.237L145.186 36.0833H147.464L144.118 32.1166C144.743 31.9148 145.281 31.5361 145.651 31.0362C146.022 30.5362 146.206 29.9414 146.177 29.3392C146.177 27.6612 145.215 26.3368 142.3 26.3368L139.046 26.369V36.0833H140.921ZM142.194 27.9377C143.722 27.9377 144.182 28.5806 144.182 29.3521C144.182 30.3486 143.22 30.85 142.131 30.85H140.921V27.9634C141.43 27.9634 141.855 27.9634 142.208 27.9634L142.194 27.9377ZM147.754 27.9377H151.22V36.0833H153.102V27.9634H156.568V26.369H147.768V27.9634L147.754 27.9377ZM168.862 33.8395C168.135 34.345 167.245 34.6185 166.33 34.6174C165.832 34.6392 165.335 34.5652 164.871 34.4003C164.407 34.2353 163.987 33.9831 163.637 33.6602C163.288 33.3373 163.018 32.9509 162.844 32.5265C162.671 32.102 162.598 31.6491 162.63 31.1972C162.63 29.0885 164.13 27.7834 166.111 27.7834C166.97 27.7572 167.815 27.9826 168.523 28.4263L169.365 27.1405C168.447 26.4652 167.291 26.1156 166.111 26.1568C162.574 26.1568 160.643 28.3748 160.643 31.1651C160.599 31.8338 160.712 32.5034 160.974 33.1296C161.236 33.7558 161.641 34.3245 162.163 34.7982C162.684 35.2719 163.31 35.64 163.999 35.8781C164.688 36.1162 165.424 36.219 166.16 36.1797C167.412 36.2234 168.634 35.83 169.577 35.0803L168.869 33.7945L168.862 33.8395ZM171.444 36.0576H177.811V34.4889H173.319V31.9751H177.174V30.3807H173.319V27.9634H177.627V26.369H171.444V36.0833V36.0576ZM189.362 36.0576V26.369H187.601V33.1259L181.736 26.369H180.237V36.0833H181.998V29.3521L187.876 36.0833L189.362 36.0576ZM191.003 27.9634H194.469V36.0833H196.351V27.9634H199.817V26.369H191.003V27.9634ZM201.451 36.0833H207.817V34.4889H203.354V31.9751H207.202V30.3807H203.354V27.9634H207.662V26.369H201.479V36.0833H201.451ZM212.111 36.0833V32.4444H213.427L216.37 36.0833H218.647L215.301 32.1166C215.927 31.915 216.465 31.5366 216.837 31.0368C217.209 30.5369 217.394 29.942 217.367 29.3392C217.367 27.6612 216.405 26.3368 213.483 26.3368L210.23 26.369V36.0833H212.111ZM213.391 27.9377C214.919 27.9377 215.379 28.5806 215.379 29.3521C215.379 30.3486 214.417 30.85 213.335 30.85H212.111V27.9634C212.613 27.9634 213.045 27.9634 213.391 27.9634V27.9377Z" fill="white"/>
<path d="M100.062 17.2394V13.607H101.378L104.328 17.2394H106.605L103.288 13.2727C103.913 13.0719 104.451 12.6934 104.822 12.1932C105.193 11.6931 105.376 11.0978 105.346 10.4954C105.346 8.8174 104.384 7.49301 101.47 7.49301L98.2158 7.52516V17.2394H100.062ZM101.349 9.09385C102.877 9.09385 103.33 9.73675 103.33 10.5082C103.33 11.5112 102.368 12.0062 101.286 12.0062H100.062V9.11956C100.571 9.11956 100.996 9.11956 101.349 9.11956V9.09385ZM116.912 7.52516H115.044V12.8677C115.044 14.7578 114.28 15.7993 112.66 15.7993C110.814 15.7993 109.994 14.5778 109.994 12.7584V7.52516H108.112V13.1056C108.112 15.9536 110.008 17.3809 112.66 17.3809C114.91 17.3809 116.905 16.1722 116.905 13.202V7.52516H116.912ZM124.028 14.6614C124.028 15.3943 123.356 15.7993 122.472 15.7993C121.998 15.7926 121.531 15.6906 121.105 15.5005C120.68 15.3104 120.306 15.037 120.01 14.7L118.942 15.8701C119.458 16.8537 121.064 17.3937 122.436 17.3937C124.438 17.3937 126.016 16.2815 126.016 14.6485C126.016 11.434 121.17 12.0769 121.17 10.0389C121.17 9.39601 121.736 8.96526 122.67 8.96526C123.015 8.96267 123.357 9.026 123.674 9.15114C123.991 9.27628 124.275 9.46045 124.509 9.69175L125.513 8.40594C125.109 8.0525 124.629 7.77784 124.104 7.59875C123.578 7.41967 123.018 7.33994 122.458 7.36443C120.385 7.36443 119.126 8.58595 119.126 10.0453C119.126 13.2084 123.971 12.7391 123.971 14.655L124.028 14.6614ZM132.474 14.6614C132.474 15.3943 131.802 15.7993 130.918 15.7993C130.444 15.7926 129.977 15.6906 129.551 15.5005C129.126 15.3104 128.752 15.037 128.456 14.7L127.338 15.8701C127.855 16.8537 129.461 17.3937 130.833 17.3937C132.835 17.3937 134.412 16.2815 134.412 14.6485C134.412 11.434 129.567 12.0769 129.567 10.0389C129.567 9.39601 130.133 8.96526 131.066 8.96526C131.427 8.95062 131.787 9.00809 132.121 9.13361C132.454 9.25913 132.754 9.44966 132.997 9.69175L134.002 8.40594C133.597 8.0525 133.118 7.77784 132.592 7.59875C132.067 7.41967 131.507 7.33994 130.946 7.36443C128.873 7.36443 127.621 8.58595 127.621 10.0453C127.621 13.2084 132.46 12.7391 132.46 14.655L132.474 14.6614ZM136.86 17.233H138.734V7.52516H136.86V17.2394V17.233ZM140.552 17.233H142.448L143.566 14.7514H148.128L149.246 17.233H151.248L146.728 7.48659H145.023L140.503 17.233H140.552ZM145.857 9.69818L147.414 13.1506H144.28L145.857 9.69818ZM161.986 17.233V7.52516H160.224V14.2821L154.346 7.52516H152.804V17.2394H154.558V10.5339L160.436 17.2652L161.986 17.233Z" fill="white"/>
</g>
<path d="M286.824 16.3556H281.046V7.76892H286.688V9.60892H283.221V11.1177H286.28V12.9577H283.221V14.5156H286.824V16.3556Z" fill="white"/>
<path d="M294.127 7.76892H296.682L293.637 11.9764L296.805 16.3556H294.249L292.21 13.4729L290.198 16.3556H287.642L290.81 11.9764L287.791 7.76892H290.347L292.278 10.5289L294.127 7.76892Z" fill="white"/>
<path d="M300.337 16.3556H298.162V7.76892H300.337V16.3556Z" fill="white"/>
<path d="M303.89 16.3556H301.701L305.657 7.76892H307.601L311.557 16.3556H309.233L308.444 14.5524H304.678L303.89 16.3556ZM307.629 12.7124L306.568 10.2836L305.494 12.7124H307.629Z" fill="white"/>
<path d="M314.951 13.3503V16.3556H312.776V7.76892C313.292 7.76892 313.863 7.76483 314.489 7.75665C315.114 7.74847 315.621 7.74438 316.011 7.74438C318.358 7.74438 319.532 8.6603 319.532 10.4921C319.532 11.6697 318.997 12.4957 317.928 12.97L320.701 16.3556H318.064L315.753 13.3503H314.951ZM315.902 9.58438C315.893 9.58438 315.853 9.58847 315.78 9.59665C315.708 9.59665 315.594 9.60074 315.44 9.60892C315.286 9.60892 315.123 9.60892 314.951 9.60892V11.5103H315.739C316.727 11.5103 317.221 11.1791 317.221 10.5167C317.221 9.89514 316.781 9.58438 315.902 9.58438Z" fill="white"/>
<path d="M285.622 34.7555H280.921V27.6H285.509V28.7755H282.314V30.5542H285.169V31.7298H282.314V33.58H285.622V34.7555Z" fill="white"/>
<path d="M292.071 27.6H293.702L291.028 31.1062L293.804 34.7555H292.173L290.122 32.0671L288.083 34.7555H286.452L289.227 31.1062L286.576 27.6H288.208L290.156 30.1862L292.071 27.6Z" fill="white"/>
<path d="M296.579 34.7555H295.186V27.6H296.579V34.7555Z" fill="white"/>
<path d="M300.337 34.7555H298.943V27.6H300.348L303.055 30.9427L305.638 27.6H306.953V34.7555H305.57V29.5831L303.067 32.7622H302.863L300.337 29.6138V34.7555Z" fill="white"/>
<path d="M309.155 34.7453V27.6204C309.97 27.5864 310.733 27.5693 311.443 27.5693C312.319 27.5693 312.972 27.7261 313.403 28.0395C313.833 28.353 314.049 28.7858 314.049 29.3378C314.049 30.1078 313.671 30.6496 312.916 30.9631V30.9835C313.346 31.0858 313.686 31.28 313.935 31.5662C314.185 31.8456 314.309 32.2068 314.309 32.6498C314.309 33.3449 314.045 33.8764 313.516 34.2444C312.988 34.6124 312.27 34.7964 311.364 34.7964C310.457 34.7964 309.721 34.7794 309.155 34.7453ZM311.534 31.6787H310.548V33.5698C310.903 33.6038 311.209 33.6209 311.466 33.6209C312.432 33.6209 312.916 33.2767 312.916 32.5884C312.916 32.2886 312.795 32.0637 312.553 31.9138C312.312 31.757 311.972 31.6787 311.534 31.6787ZM311.42 28.7449C311.088 28.7449 310.797 28.7551 310.548 28.7755V30.5849H311.488C311.843 30.5849 312.127 30.5031 312.338 30.3395C312.557 30.176 312.667 29.9409 312.667 29.6342C312.667 29.348 312.557 29.1299 312.338 28.98C312.119 28.8233 311.813 28.7449 311.42 28.7449Z" fill="white"/>
<path d="M316.532 34.7555H315.127L318.48 27.5795H319.704L323.057 34.7555H321.573L320.746 32.9258H317.359L316.532 34.7555ZM320.214 31.7502L319.058 29.2049L317.891 31.7502H320.214Z" fill="white"/>
<path d="M331.02 27.6V34.7555H329.909L325.548 29.7978V34.7555H324.245V27.6H325.355L329.717 32.5782V27.6H331.02Z" fill="white"/>
<path d="M334.611 34.7555H333.217V27.6H334.611V30.9938L337.738 27.6H339.414L336.152 30.9324L339.618 34.7555H337.851L334.611 31.0653V34.7555Z" fill="white"/>
<path d="M342.641 31.1778C342.641 30.1351 343.026 29.2594 343.796 28.5507C344.582 27.8419 345.571 27.4875 346.764 27.4875C347.958 27.4875 348.943 27.8283 349.721 28.5098C350.507 29.1981 350.899 30.0874 350.899 31.1778C350.899 32.2477 350.507 33.1302 349.721 33.8253C348.936 34.5204 347.95 34.868 346.764 34.868C345.571 34.868 344.585 34.5273 343.807 33.8458C343.03 33.1643 342.641 32.275 342.641 31.1778ZM344.113 31.1778C344.113 31.9001 344.366 32.4998 344.872 32.9769C345.378 33.4539 346.009 33.6924 346.764 33.6924C347.58 33.6924 348.226 33.4539 348.702 32.9769C349.185 32.4998 349.427 31.9001 349.427 31.1778C349.427 30.4486 349.17 29.8455 348.656 29.3684C348.143 28.8982 347.512 28.6631 346.764 28.6631C346.002 28.6631 345.367 28.8982 344.861 29.3684C344.363 29.8387 344.113 30.4418 344.113 31.1778Z" fill="white"/>
<path d="M353.905 34.7555H352.512V27.6H357.043V28.7755H353.905V30.7995H356.704V31.9751H353.905V34.7555Z" fill="white"/>
<path d="M362.391 32.0773V34.7555H360.997V27.6C361.39 27.6 361.817 27.5966 362.278 27.5898C362.738 27.583 363.116 27.5795 363.41 27.5795C365.329 27.5795 366.288 28.3155 366.288 29.7875C366.288 30.3327 366.133 30.7825 365.824 31.1369C365.514 31.4776 365.159 31.7093 364.759 31.832L367.24 34.7555H365.552L363.365 32.0773H362.391ZM363.343 28.7551C363.305 28.7551 363.244 28.7585 363.161 28.7653C363.078 28.7653 362.961 28.7687 362.81 28.7755C362.659 28.7755 362.519 28.7755 362.391 28.7755V30.9018H363.297C363.743 30.9018 364.105 30.803 364.385 30.6053C364.672 30.4077 364.815 30.1385 364.815 29.7978C364.815 29.1027 364.324 28.7551 363.343 28.7551Z" fill="white"/>
<path d="M373.484 27.6H374.866V31.7911C374.866 32.8201 374.568 33.5902 373.971 34.1013C373.367 34.6124 372.616 34.868 371.717 34.868C370.697 34.868 369.878 34.5988 369.258 34.0604C368.647 33.5221 368.341 32.7418 368.341 31.7195V27.6H369.734V31.4538C369.734 32.1625 369.9 32.7145 370.233 33.1098C370.573 33.4982 371.067 33.6924 371.717 33.6924C372.895 33.6924 373.484 32.9735 373.484 31.5355V27.6Z" fill="white"/>
<path d="M380.145 32.8542C380.145 32.6361 380.055 32.4453 379.873 32.2818C379.7 32.1114 379.481 31.9751 379.216 31.8729C378.952 31.7638 378.661 31.6412 378.344 31.5049C378.034 31.3618 377.747 31.2153 377.483 31.0653C377.219 30.9086 376.996 30.6939 376.815 30.4213C376.641 30.1419 376.554 29.8216 376.554 29.4604C376.554 28.9084 376.777 28.4416 377.222 28.06C377.683 27.6784 378.284 27.4875 379.024 27.4875C380.028 27.4875 380.783 27.7431 381.289 28.2542L380.542 29.1947C380.142 28.8403 379.673 28.6631 379.137 28.6631C378.797 28.6631 378.525 28.7347 378.321 28.8778C378.125 29.0209 378.027 29.2117 378.027 29.4502C378.027 29.5729 378.053 29.6887 378.106 29.7978C378.159 29.9 378.216 29.9852 378.276 30.0533C378.344 30.1215 378.45 30.1964 378.593 30.2782C378.744 30.36 378.861 30.4213 378.944 30.4622C379.035 30.4963 379.182 30.5542 379.386 30.636C379.59 30.7178 379.734 30.7757 379.817 30.8098C380.149 30.9461 380.44 31.0892 380.689 31.2391C380.969 31.389 381.191 31.6037 381.357 31.8831C381.531 32.1625 381.618 32.4828 381.618 32.844C381.618 33.4437 381.365 33.931 380.859 34.3058C380.353 34.6806 379.722 34.868 378.967 34.868C378.438 34.868 377.913 34.7692 377.392 34.5715C376.894 34.3671 376.554 34.0911 376.373 33.7435L377.166 32.8849C377.377 33.137 377.649 33.3347 377.981 33.4778C378.321 33.6209 378.657 33.6924 378.99 33.6924C379.337 33.6924 379.617 33.6175 379.828 33.4675C380.04 33.3176 380.145 33.1132 380.145 32.8542Z" fill="white"/>
<path d="M386.407 32.8542C386.407 32.6361 386.317 32.4453 386.135 32.2818C385.962 32.1114 385.743 31.9751 385.478 31.8729C385.214 31.7638 384.923 31.6412 384.606 31.5049C384.296 31.3618 384.009 31.2153 383.745 31.0653C383.481 30.9086 383.258 30.6939 383.076 30.4213C382.903 30.1419 382.816 29.8216 382.816 29.4604C382.816 28.9084 383.039 28.4416 383.484 28.06C383.945 27.6784 384.545 27.4875 385.286 27.4875C386.29 27.4875 387.045 27.7431 387.551 28.2542L386.804 29.1947C386.403 28.8403 385.935 28.6631 385.399 28.6631C385.059 28.6631 384.787 28.7347 384.583 28.8778C384.387 29.0209 384.289 29.2117 384.289 29.4502C384.289 29.5729 384.315 29.6887 384.368 29.7978C384.421 29.9 384.477 29.9852 384.538 30.0533C384.606 30.1215 384.712 30.1964 384.855 30.2782C385.006 30.36 385.123 30.4213 385.206 30.4622C385.297 30.4963 385.444 30.5542 385.648 30.636C385.852 30.7178 385.996 30.7757 386.079 30.8098C386.411 30.9461 386.702 31.0892 386.951 31.2391C387.23 31.389 387.453 31.6037 387.619 31.8831C387.793 32.1625 387.88 32.4828 387.88 32.844C387.88 33.4437 387.627 33.931 387.121 34.3058C386.615 34.6806 385.984 34.868 385.229 34.868C384.7 34.868 384.175 34.7692 383.654 34.5715C383.156 34.3671 382.816 34.0911 382.635 33.7435L383.428 32.8849C383.639 33.137 383.911 33.3347 384.243 33.4778C384.583 33.6209 384.919 33.6924 385.252 33.6924C385.599 33.6924 385.878 33.6175 386.09 33.4675C386.301 33.3176 386.407 33.1132 386.407 32.8542Z" fill="white"/>
<path d="M391.049 34.7555H389.656V27.6H391.049V34.7555Z" fill="white"/>
<path d="M393.798 34.7555H392.393L395.747 27.5795H396.97L400.324 34.7555H398.84L398.013 32.9258H394.625L393.798 34.7555ZM397.48 31.7502L396.325 29.2049L395.158 31.7502H397.48Z" fill="white"/>
<path d="M271.786 7.31201L259.507 11.6533L252.936 7.31201H271.786Z" fill="#C64A5F"/>
<path d="M271.977 7.31201L266.967 16.5619L259.508 11.6533L271.786 7.31201H271.977Z" fill="#004F87"/>
<path d="M271.786 26.8318L259.507 31.1667L252.936 26.8318H271.786Z" fill="#0054A5"/>
<path d="M271.977 26.8318L266.967 36.0817L259.508 31.1667L271.786 26.8318H271.977Z" fill="#0090D0"/>
<path d="M238.15 40.1809H237.653V21.7385L234.523 19.4244V0.739746H235.027V19.2141L238.15 21.5281V40.1809Z" fill="white"/>
</svg>
