<svg width="220" height="48" viewBox="0 0 220 48" fill="none" xmlns="http://www.w3.org/2000/svg">
<path d="M166.853 8.25073C166.944 9.33109 167.874 10.0614 169.403 10.0614C170.805 10.0614 171.85 9.33109 171.892 8.25073H170.424C170.37 8.79997 169.977 8.98707 169.403 8.98707C168.829 8.98707 168.424 8.74565 168.322 8.25073H166.853ZM166.817 19.332L171.494 13.0007V19.326H173.065V10.4115H171.687L167.004 16.7548V10.4115H165.439V19.326L166.817 19.332ZM156.715 19.332L161.397 13.0007V19.326H162.962V10.4115H161.591L156.908 16.7548V10.4115H155.343V19.326L156.715 19.332ZM146.769 19.332H148.34V14.7269L151.965 19.326H153.959L150.056 14.5639L153.73 10.4115H151.839L148.322 14.6363V10.4115H146.751L146.769 19.332ZM144.618 17.304C144.009 17.7673 143.263 18.0176 142.497 18.0162C142.084 18.0329 141.671 17.9629 141.286 17.8107C140.901 17.6584 140.552 17.4273 140.262 17.1323C139.971 16.8372 139.746 16.4847 139.601 16.0975C139.455 15.7102 139.392 15.2968 139.416 14.8838C139.416 12.9524 140.667 11.7513 142.322 11.7513C143.04 11.7325 143.745 11.944 144.334 12.3549L145.041 11.1961C144.273 10.5793 143.307 10.26 142.322 10.2968C139.38 10.2968 137.754 12.3308 137.754 14.8898C137.719 15.503 137.814 16.1166 138.033 16.6904C138.252 17.2643 138.59 17.7854 139.025 18.2197C139.46 18.6539 139.981 18.9915 140.556 19.2102C141.13 19.429 141.745 19.5239 142.358 19.4889C143.405 19.5303 144.428 19.1696 145.216 18.481L144.618 17.304ZM129.737 8.25073C129.827 9.33109 130.758 10.0614 132.286 10.0614C133.688 10.0614 134.703 9.33109 134.776 8.25073H133.307C133.259 8.79997 132.86 8.98707 132.286 8.98707C131.712 8.98707 131.307 8.74565 131.205 8.25073H129.737ZM129.7 19.332L134.377 13.0007V19.326H135.948V10.4115H134.57L129.894 16.7548V10.4115H128.323V19.326L129.7 19.332ZM119.604 19.332L124.28 13.0007V19.326H125.845V10.4115H124.468L119.803 16.7548V10.4115H118.238V19.326L119.604 19.332ZM116.069 17.304C115.462 17.7673 114.719 18.0176 113.954 18.0162C113.541 18.0337 113.128 17.9645 112.743 17.813C112.357 17.6615 112.008 17.4311 111.717 17.1366C111.426 16.8421 111.2 16.4901 111.054 16.1031C110.907 15.7161 110.844 15.3029 110.867 14.8898C110.867 12.9585 112.118 11.7574 113.773 11.7574C114.493 11.7398 115.2 11.9511 115.791 12.3609L116.492 11.2021C115.724 10.5843 114.758 10.2649 113.773 10.3028C110.831 10.3028 109.211 12.3368 109.211 14.8959C109.175 15.5092 109.27 16.1233 109.488 16.6976C109.707 17.2719 110.045 17.7934 110.48 18.2279C110.915 18.6623 111.437 18.9999 112.012 19.2182C112.587 19.4366 113.201 19.5309 113.816 19.4949C114.86 19.5366 115.881 19.1758 116.667 18.487L116.069 17.304ZM107.719 17.304C107.112 17.7673 106.368 18.0176 105.604 18.0162C105.191 18.0337 104.778 17.9645 104.392 17.813C104.007 17.6615 103.658 17.4311 103.367 17.1366C103.076 16.8421 102.85 16.4901 102.704 16.1031C102.557 15.7161 102.494 15.3029 102.517 14.8898C102.517 12.9585 103.767 11.7574 105.423 11.7574C106.141 11.7385 106.846 11.9501 107.435 12.3609L108.142 11.2021C107.373 10.5853 106.408 10.266 105.423 10.3028C102.48 10.3028 100.861 12.3368 100.861 14.8959C100.825 15.5087 100.92 16.1222 101.138 16.696C101.356 17.2699 101.693 17.7911 102.128 18.2255C102.562 18.6599 103.083 18.9975 103.657 19.2163C104.232 19.4351 104.846 19.5301 105.459 19.4949C106.512 19.5296 107.538 19.1578 108.323 18.4568L107.719 17.304ZM92.076 14.8898C92.0117 14.4606 92.0409 14.0225 92.1615 13.6056C92.2822 13.1886 92.4914 12.8025 92.775 12.4737C93.0586 12.1449 93.4099 11.881 93.8049 11.7002C94.1999 11.5193 94.6293 11.4257 95.0638 11.4257C95.4983 11.4257 95.9277 11.5193 96.3227 11.7002C96.7176 11.881 97.0689 12.1449 97.3525 12.4737C97.6362 12.8025 97.8454 13.1886 97.9661 13.6056C98.0867 14.0225 98.1159 14.4606 98.0516 14.8898C98.0516 16.6522 96.9338 18.0223 95.0306 18.0223C94.6296 18.0138 94.2344 17.9256 93.8679 17.7629C93.5014 17.6002 93.171 17.3662 92.896 17.0746C92.621 16.7831 92.4068 16.4397 92.266 16.0646C92.1252 15.6895 92.0606 15.2901 92.076 14.8898ZM90.4144 14.8898C90.393 15.4995 90.498 16.1069 90.7229 16.6741C90.9478 17.2412 91.2877 17.7557 91.7212 18.1854C92.1547 18.615 92.6725 18.9505 93.242 19.1706C93.8115 19.3908 94.4204 19.4909 95.0306 19.4648C95.6434 19.4895 96.2549 19.3889 96.8275 19.1691C97.4 18.9493 97.9215 18.6149 98.36 18.1865C98.7985 17.7581 99.1448 17.2447 99.3775 16.6778C99.6102 16.1109 99.7244 15.5024 99.7132 14.8898C99.7404 14.2711 99.6374 13.6535 99.4109 13.077C99.1843 12.5005 98.8393 11.9778 98.3981 11.5427C97.9568 11.1077 97.4292 10.7698 96.8491 10.5511C96.2691 10.3323 95.6496 10.2374 95.0306 10.2726C94.4188 10.2542 93.8098 10.3611 93.241 10.5867C92.6722 10.8123 92.1557 11.1518 91.7232 11.5844C91.2907 12.0169 90.9515 12.5333 90.7264 13.1018C90.5013 13.6703 90.3951 14.2788 90.4144 14.8898ZM85.9674 11.8721C87.0368 11.8721 87.6108 12.3308 87.6108 13.2602C87.6108 14.1897 86.8858 14.7027 85.9553 14.7027C85.5837 14.7013 85.2126 14.6791 84.8435 14.6363V11.8721C85.2665 11.8721 85.6471 11.8419 85.9674 11.8419V11.8721ZM84.8435 19.3199V16.0969C85.2242 16.1332 85.7378 16.1332 86.0036 16.1332C88.1365 16.1332 89.2664 14.757 89.2664 13.2421C89.2664 11.7272 88.4386 10.3813 85.8163 10.3813H83.2786V19.326L84.8435 19.3199Z" fill="#002E5E"/>
<path d="M90.6924 32.1092C90.6924 29.3328 88.8314 27.5221 86.2091 27.5221C85.1007 27.4832 84.0132 27.8311 83.1337 28.5059L83.7379 29.6768C84.3419 29.2276 85.0754 28.9862 85.8284 28.9888C87.5142 28.9888 88.7347 29.8156 89.0429 31.3064H85.0671V32.7731H89.0791C88.9741 33.4989 88.598 34.1581 88.0264 34.6182C87.4547 35.0784 86.7299 35.3054 85.9976 35.2537C85.1675 35.2529 84.3607 34.9793 83.7016 34.4751L83.0249 35.7908C83.8992 36.4301 84.9631 36.7575 86.046 36.7203C88.9039 36.7203 90.7105 34.9096 90.7105 32.1092H90.6924ZM99.7253 36.5754L95.804 31.7893L99.4776 27.6368H97.5925L94.0699 31.8617V27.6368H92.505V36.5513H94.0699V31.9583L97.6952 36.5513L99.7253 36.5754ZM102.088 32.1212C102.088 30.1838 103.332 28.9888 104.994 28.9888C105.712 28.972 106.416 29.1834 107.006 29.5923L107.719 28.4275C106.956 27.805 105.991 27.483 105.006 27.5221C102.058 27.5221 100.438 29.5622 100.438 32.1212C100.402 32.7346 100.497 33.3486 100.715 33.9229C100.934 34.4972 101.272 35.0188 101.707 35.4532C102.142 35.8877 102.664 36.2252 103.239 36.4436C103.814 36.662 104.428 36.7563 105.042 36.7203C106.089 36.7586 107.11 36.3983 107.9 35.7124L107.296 34.5415C106.687 35.0048 105.941 35.255 105.175 35.2537C104.761 35.2713 104.348 35.2019 103.963 35.05C103.577 34.8981 103.228 34.667 102.937 34.3718C102.647 34.0765 102.422 33.7236 102.276 33.3359C102.131 32.9483 102.069 32.5344 102.094 32.1212H102.088ZM114.97 36.5754H116.541V27.661H109.423V36.5754H110.994V29.1276H114.97V36.5754ZM125.984 32.1212C125.984 33.8776 124.867 35.2537 122.963 35.2537C122.56 35.2483 122.162 35.1625 121.793 35.0012C121.424 34.8399 121.091 34.6064 120.813 34.3145C120.535 34.0226 120.319 33.6782 120.177 33.3015C120.035 32.9248 119.969 32.5235 119.985 32.1212C119.92 31.692 119.949 31.2539 120.07 30.8369C120.191 30.42 120.4 30.0339 120.684 29.7051C120.967 29.3763 121.319 29.1124 121.714 28.9316C122.109 28.7507 122.538 28.6571 122.972 28.6571C123.407 28.6571 123.836 28.7507 124.231 28.9316C124.626 29.1124 124.978 29.3763 125.261 29.7051C125.545 30.0339 125.754 30.42 125.875 30.8369C125.995 31.2539 126.025 31.692 125.96 32.1212H125.984ZM127.622 32.1212C127.645 31.5064 127.54 30.8933 127.314 30.3212C127.087 29.749 126.744 29.2301 126.306 28.7976C125.868 28.3651 125.344 28.0283 124.769 27.8087C124.193 27.5892 123.579 27.4916 122.963 27.5221C122.351 27.5014 121.742 27.6058 121.172 27.8291C120.602 28.0524 120.083 28.3898 119.649 28.8206C119.214 29.2514 118.872 29.7664 118.644 30.334C118.416 30.9016 118.307 31.5098 118.323 32.1212C118.298 32.735 118.401 33.3472 118.626 33.9189C118.851 34.4907 119.192 35.0094 119.629 35.442C120.065 35.8746 120.587 36.2117 121.161 36.4318C121.735 36.6519 122.349 36.7501 122.963 36.7203C123.576 36.7418 124.187 36.638 124.759 36.4153C125.33 36.1925 125.85 35.8554 126.286 35.4247C126.722 34.994 127.066 34.4789 127.295 33.9108C127.525 33.3427 127.636 32.7337 127.622 32.1212ZM133.767 30.4916C133.767 31.4815 133.036 31.9281 132.105 31.9281C131.749 31.9281 131.368 31.9281 130.999 31.8677V29.1276C131.422 29.1276 131.803 29.1276 132.117 29.1276C133.193 29.1276 133.767 29.5863 133.767 30.5158V30.4916ZM135.422 30.5158C135.422 29.0491 134.594 27.6489 131.966 27.6489H129.428V36.5634H130.999V33.3585C131.38 33.3947 131.888 33.3947 132.159 33.3947C134.286 33.3947 135.422 32.0186 135.422 30.5037V30.5158ZM140.588 29.1276H143.482V27.661H136.147V29.1276H139.041V36.5754H140.612L140.588 29.1276ZM150.491 36.5754H152.05V27.661H150.491V31.2823H146.413V27.661H144.842V36.5754H146.413V32.7731H150.491V36.5754ZM158.69 33.5577C158.69 34.6018 158.086 35.1269 156.932 35.1269C156.624 35.1269 156.37 35.1269 156.092 35.0907V32.1695C156.449 32.1333 156.697 32.1092 156.956 32.1092C158.056 32.1092 158.69 32.6041 158.69 33.5577ZM160.352 33.5215C160.352 31.7772 159.289 30.6425 157.083 30.6425C156.752 30.642 156.421 30.6642 156.092 30.7089V27.661H154.521V36.5754C155.047 36.5754 155.899 36.5754 156.739 36.5754C159.023 36.5754 160.364 35.3683 160.364 33.5034L160.352 33.5215ZM161.524 36.5211H163.077V27.661H161.524V36.5211ZM172.001 25.4459H170.557C170.509 25.9891 170.116 26.1823 169.542 26.1823C168.968 26.1823 168.557 25.9408 168.455 25.4459H166.992C167.077 26.5263 168.007 27.2566 169.542 27.2566C170.944 27.2566 171.989 26.5323 172.025 25.4459H172.001ZM171.633 36.5211H173.198V27.661H171.82L167.143 34.0043V27.661H165.572V36.5754H166.932L171.615 30.2502L171.633 36.5211Z" fill="#002E5E"/>
<path d="M186.369 38.1689H187.832V35.1149H186.623V27.661H185.058V35.1149H181.143V27.661H179.578V36.5815H186.376L186.369 38.1689ZM189.391 36.5815H194.677V35.1149H190.955V32.8093H194.17V31.3427H190.955V29.1276H194.551V27.661H189.391V36.5815ZM202.369 36.5815H203.922V27.661H202.369V31.2823H198.291V27.661H196.72V36.5815H198.291V32.7731H202.369V36.5815ZM209.753 29.1276H212.647V27.661H205.287V29.1276H208.182V36.5815H209.753V29.1276ZM218.344 30.4917C218.344 31.4815 217.619 31.9281 216.689 31.9281C216.326 31.9281 215.946 31.9281 215.577 31.8678V29.1276C216 29.1276 216.381 29.1276 216.701 29.1276C217.77 29.1276 218.344 29.5863 218.344 30.5158V30.4917ZM220 30.5158C220 29.0492 219.172 27.6489 216.544 27.6489H214.006V36.5694H215.577V33.3585C215.958 33.3948 216.471 33.3948 216.737 33.3948C218.864 33.3948 220 32.0187 220 30.5037" fill="#002E5E"/>
<path d="M35.6487 3.00579L31.4011 4.5871L30.6459 2.99976L35.6487 3.00579Z" fill="#1B75BB"/>
<path d="M30.6397 2.99976L31.401 4.5871L27.7636 5.93303L30.6397 2.99976Z" fill="#EC1C24"/>
<path d="M48.5246 3.37402L52.0109 8.25074L38.9236 7.06777L48.5246 3.37402Z" fill="#1B75BB"/>
<path d="M69.9921 3.0058L64.7959 5.05185L62.0104 3.0058H69.9921Z" fill="#1B75BB"/>
<path d="M27.7637 11.2505L23.6188 16.2057L18.4347 15.6504L27.7637 11.2505Z" fill="#1B75BB"/>
<path d="M23.6188 16.1996L18.4347 22.3076V15.6504L23.6188 16.1996Z" fill="#EC1C24"/>
<path d="M70.0706 3.0058L67.9559 7.36345L64.7958 5.05184L69.9921 3.0058H70.0706Z" fill="#EC1C24"/>
<path d="M8.19917 26.2667L7.77018 31.2279L0.0181274 35.4226L8.19917 26.2667Z" fill="#1B75BB"/>
<path d="M7.77017 31.2281L7.19013 36.8412L0 35.441L7.77017 31.2281Z" fill="#EC1C24"/>
<path d="M54.7601 12.7472L62.0952 21.6496L49.8781 20.358L54.7601 12.7472Z" fill="#1B75BB"/>
<path d="M62.095 21.6495L44.2828 29.0672L49.8778 20.3579L62.095 21.6495Z" fill="#EC1C24"/>
<path d="M35.5822 32.2721L18.3682 39.4785V28.3792L35.5822 32.2721Z" fill="#EC1C24"/>
<path d="M56.651 35.5314L51.6179 45.8159L48.9412 38.7181L56.651 35.5314Z" fill="#1B75BB"/>
<path d="M48.9413 38.7181L51.6179 45.8159L38.6274 43.1784L48.9413 38.7181Z" fill="#EC1C24"/>
<path d="M30.3497 17.1532L40.4702 13.2059L43.2496 18.4689L30.3497 17.1532Z" fill="#1B75BB"/>
<path d="M30.3497 17.1531L43.2496 18.4689L31.9508 23.0197L30.3497 17.1531Z" fill="#EC1C24"/>
</svg>
