<svg width="385" height="45" viewBox="0 0 385 45" fill="none" xmlns="http://www.w3.org/2000/svg">
<path d="M274.905 7.15308L264.068 11.4L258.267 7.15308H274.905Z" fill="#C64A5F"/>
<path d="M275.074 7.15308L270.652 16.2019L264.067 11.4L274.905 7.15308H275.074Z" fill="#004F87"/>
<path d="M284.315 12.4227H287.854C287.761 13.0619 287.428 13.6422 286.922 14.0471C286.417 14.452 285.776 14.6515 285.129 14.6054C284.399 14.6055 283.689 14.3642 283.112 13.9194L282.485 15.0731C283.249 15.6348 284.18 15.9247 285.129 15.8963C287.635 15.8963 289.245 14.2873 289.245 11.8427C289.28 11.3121 289.202 10.7802 289.016 10.2816C288.831 9.78296 288.542 9.32882 288.169 8.94875C287.795 8.56868 287.345 8.2712 286.848 8.0757C286.352 7.8802 285.819 7.79107 285.286 7.8141C284.309 7.7828 283.351 8.08664 282.573 8.6747L283.118 9.70369C283.648 9.30293 284.294 9.08411 284.96 9.08006C286.445 9.08006 287.528 9.80347 287.791 11.1193H284.29L284.315 12.4227ZM291.538 15.7716H292.922V11.7305L296.136 15.7716H297.89L294.451 11.5808L297.683 7.92012H296.029L292.897 11.6619V7.92012H291.513L291.538 15.7716ZM304.794 13.9818C304.253 14.3903 303.593 14.6095 302.914 14.6054C302.549 14.6208 302.185 14.5598 301.845 14.4266C301.504 14.2933 301.196 14.0906 300.939 13.8316C300.683 13.5725 300.483 13.2628 300.354 12.9224C300.225 12.582 300.169 12.2185 300.189 11.8552C300.189 10.1527 301.298 9.09877 302.758 9.09877C303.391 9.08068 304.012 9.26661 304.531 9.62885L305.157 8.61234C304.483 8.06267 303.629 7.77862 302.758 7.8141C300.158 7.8141 298.73 9.60391 298.73 11.8552C298.699 12.3939 298.782 12.9331 298.976 13.4373C299.169 13.9415 299.467 14.3995 299.85 14.781C300.233 15.1626 300.693 15.4592 301.2 15.6514C301.706 15.8436 302.248 15.9271 302.789 15.8963C303.707 15.9263 304.602 15.61 305.295 15.0108L304.794 13.9818ZM306.291 15.7716H307.682L308.502 13.7697H311.866L312.681 15.7716H314.153L310.833 7.92012H309.649L306.291 15.7716ZM310.188 9.69121L311.334 12.4788H309.022L310.188 9.69121ZM317.392 15.7716V12.9091C317.736 12.9465 318.181 12.9465 318.413 12.9465C320.292 12.9465 321.295 11.7367 321.295 10.4022C321.295 9.06759 320.568 7.90764 318.25 7.90764H316.014V15.7716H317.392ZM318.382 9.20478C319.328 9.20478 319.835 9.60391 319.835 10.452C319.835 11.3002 319.209 11.6993 318.369 11.6993C318.056 11.6993 317.743 11.6993 317.392 11.6432V9.22349H318.382" fill="#231F20"/>
<path d="M302.801 16.1522C302.226 16.1856 301.649 16.0975 301.11 15.8935C300.571 15.6894 300.081 15.3742 299.673 14.9684C299.264 14.5627 298.947 14.0755 298.741 13.539C298.535 13.0025 298.446 12.4287 298.479 11.8554C298.443 11.2841 298.528 10.7117 298.73 10.1758C298.932 9.63993 299.246 9.15269 299.651 8.74619C300.056 8.33969 300.542 8.02314 301.079 7.81737C301.615 7.6116 302.19 7.52129 302.764 7.55237C303.7 7.51803 304.616 7.82643 305.339 8.41921L305.502 8.56264L304.624 9.99698L304.399 9.84107C303.92 9.51066 303.347 9.34231 302.764 9.36088C301.392 9.36088 300.465 10.3587 300.465 11.8554C300.443 12.1848 300.492 12.515 300.607 12.8245C300.723 13.1339 300.903 13.4156 301.135 13.651C301.367 13.8865 301.647 14.0705 301.956 14.1909C302.265 14.3113 302.596 14.3655 302.927 14.3499C303.543 14.3499 304.141 14.1483 304.631 13.7762L304.881 13.5828L305.639 15.0546L305.514 15.1855C304.769 15.8437 303.797 16.19 302.801 16.1522ZM302.764 8.04503C302.259 8.01239 301.752 8.08808 301.279 8.26699C300.805 8.44589 300.376 8.72384 300.02 9.08207C299.663 9.4403 299.388 9.87046 299.213 10.3435C299.038 10.8166 298.967 11.3215 299.005 11.8242C299.005 12.5183 299.196 13.1991 299.557 13.7928C299.918 14.3865 300.436 14.8703 301.054 15.1917C301.672 15.5131 302.366 15.6598 303.062 15.6158C303.758 15.5719 304.428 15.3389 305 14.9423L304.693 14.3187C304.165 14.6505 303.552 14.8257 302.927 14.8238C302.527 14.8391 302.129 14.7714 301.757 14.6248C301.386 14.4783 301.049 14.2562 300.768 13.9727C300.488 13.6893 300.269 13.3507 300.128 12.9786C299.986 12.6065 299.924 12.2091 299.945 11.8117C299.945 10.0344 301.104 8.79338 302.764 8.79338C303.358 8.78169 303.945 8.93038 304.462 9.22368L304.825 8.60005C304.222 8.17943 303.5 7.96099 302.764 7.97643V8.04503ZM285.154 16.0836C284.144 16.1124 283.153 15.8027 282.341 15.2043L282.185 15.0733L283.024 13.5329L283.268 13.7263C283.807 14.1369 284.469 14.3564 285.148 14.3499C285.68 14.3927 286.21 14.2499 286.648 13.9461C287.085 13.6423 287.403 13.1964 287.547 12.6848H284.07V10.8763H287.497C287.165 9.90967 286.275 9.36088 284.991 9.36088C284.385 9.35728 283.793 9.54987 283.306 9.90967L283.055 10.0968L282.279 8.61253L282.435 8.47533C283.259 7.84455 284.278 7.5183 285.317 7.55237C285.884 7.53241 286.45 7.63043 286.977 7.84016C287.504 8.04989 287.982 8.36672 288.379 8.77045C288.776 9.17417 289.085 9.65591 289.284 10.1849C289.484 10.7139 289.571 11.2786 289.539 11.8429C289.539 14.4621 287.823 16.1522 285.154 16.1522V16.0836ZM282.842 15.0047C283.537 15.4284 284.339 15.6448 285.154 15.6283C287.497 15.6283 289.007 14.1379 289.007 11.8367C289.038 11.3425 288.964 10.8473 288.791 10.3834C288.617 9.91948 288.347 9.49723 287.998 9.14418C287.649 8.79113 287.23 8.51522 286.767 8.33443C286.304 8.15363 285.807 8.07202 285.311 8.09492C284.469 8.07467 283.641 8.30956 282.936 8.76844L283.237 9.34217C283.764 9.02458 284.369 8.85638 284.985 8.85574C286.632 8.85574 287.791 9.69764 288.073 11.107L288.136 11.4188H284.59V12.161H288.18L288.13 12.4665C288.027 13.1668 287.663 13.8028 287.111 14.2478C286.558 14.6929 285.857 14.9141 285.148 14.8675C284.466 14.8688 283.798 14.6739 283.225 14.3062L282.842 15.0047ZM317.655 16.0274H315.776V7.67709H316.039H317.028H318.281C321.263 7.67709 321.583 9.61656 321.583 10.4522C321.583 11.8055 320.606 13.2585 318.451 13.2585C318.269 13.2585 317.968 13.2585 317.686 13.2585L317.655 16.0274ZM316.277 15.5098H317.129V12.6474H317.417C317.749 12.6786 318.181 12.6786 318.419 12.6786C320.223 12.6786 321.032 11.5373 321.032 10.3961C321.032 9.36712 320.549 8.14481 318.25 8.14481H316.997H316.264L316.277 15.5098ZM314.548 16.0274H312.505L311.691 14.0256H308.678L307.857 16.0274H305.89L309.436 7.65214H311.002L314.548 16.0274ZM312.856 15.5098H313.758L310.657 8.17599H309.787L306.654 15.5098H307.475L308.327 13.5329H312.042L312.856 15.5098ZM298.448 16.0274H296.011L293.185 12.479V16.0274H291.306V7.67709H293.185V10.9324L295.91 7.67709H298.272L294.795 11.5872L298.448 16.0274ZM296.267 15.5098H297.345L294.112 11.5748L297.119 8.20093H296.167L293.242 11.6932L296.267 15.5098ZM291.807 15.5098H292.665V8.20093H291.807V15.5098ZM311.735 12.7409H308.646L310.194 8.99918L311.735 12.7409ZM309.429 12.2171H310.952L310.194 10.3462L309.429 12.2171ZM318.375 11.9489C318.04 11.9459 317.706 11.9251 317.373 11.8866H317.135V8.97423H317.392H318.388C319.879 8.97423 320.098 9.90343 320.098 10.4522C320.098 11.3939 319.472 11.9801 318.375 11.9801V11.9489ZM317.661 11.4251C317.943 11.4251 318.175 11.4563 318.375 11.4563C318.82 11.4563 319.578 11.3253 319.578 10.4522C319.578 10.0406 319.453 9.49184 318.388 9.49184H317.661V11.4251Z" fill="#231F20"/>
<path d="M274.905 26.2485L264.068 30.4892L258.267 26.2485H274.905Z" fill="#0054A5"/>
<path d="M275.074 26.2485L270.652 35.2974L264.067 30.4892L274.905 26.2485H275.074Z" fill="#0090D0"/>
<path d="M284.722 34.861V32.036C285.06 32.036 285.511 32.036 285.743 32.036C287.622 32.036 288.625 30.8261 288.625 29.4978C288.625 28.1695 287.892 27.0033 285.58 27.0033H283.344V34.861H284.722ZM285.712 28.2942C286.658 28.2942 287.165 28.6996 287.165 29.5415C287.165 30.3834 286.539 30.7887 285.699 30.7887C285.373 30.7862 285.046 30.7654 284.722 30.7264V28.3129H285.712V28.2942ZM290.254 30.9633C290.231 31.5029 290.322 32.0412 290.52 32.544C290.718 33.0468 291.019 33.503 291.404 33.8837C291.789 34.2644 292.249 34.5612 292.755 34.7552C293.261 34.9492 293.803 35.0362 294.344 35.0107C294.885 35.0296 295.424 34.9381 295.928 34.7419C296.432 34.5457 296.89 34.2489 297.275 33.8697C297.659 33.4906 297.961 33.0371 298.163 32.5373C298.365 32.0375 298.462 31.5018 298.448 30.9633C298.468 30.4237 298.376 29.8857 298.177 29.3835C297.977 28.8813 297.675 28.426 297.289 28.0465C296.903 27.6669 296.442 27.3716 295.935 27.1791C295.428 26.9866 294.886 26.9013 294.344 26.9285C293.805 26.9096 293.268 27.0007 292.766 27.1963C292.263 27.3919 291.806 27.6878 291.423 28.0658C291.04 28.4438 290.738 28.8958 290.537 29.3942C290.336 29.8925 290.24 30.4265 290.254 30.9633ZM291.72 30.9633C291.745 30.4499 291.922 29.9553 292.228 29.5409C292.533 29.1264 292.954 28.8104 293.438 28.632C293.923 28.4536 294.449 28.4207 294.952 28.5373C295.455 28.6539 295.912 28.915 296.268 29.2881C296.623 29.6612 296.86 30.1299 296.951 30.6361C297.041 31.1423 296.98 31.6636 296.775 32.1356C296.57 32.6075 296.231 33.0092 295.799 33.2908C295.366 33.5724 294.861 33.7216 294.344 33.7198C293.989 33.7159 293.637 33.6409 293.311 33.4992C292.985 33.3575 292.691 33.152 292.446 32.8949C292.201 32.6378 292.01 32.3343 291.886 32.0025C291.761 31.6707 291.704 31.3173 291.72 30.9633ZM306.178 33.0899C305.641 33.5031 304.978 33.7229 304.299 33.7135C303.933 33.73 303.568 33.6696 303.227 33.5362C302.885 33.4029 302.576 33.1997 302.319 32.9398C302.062 32.6798 301.863 32.369 301.735 32.0274C301.606 31.6858 301.551 31.3212 301.574 30.9571C301.574 29.2609 302.67 28.2069 304.136 28.2069C304.771 28.1888 305.395 28.3747 305.915 28.737L306.542 27.7143C305.866 27.1708 305.016 26.8894 304.149 26.9223C301.549 26.9223 300.12 28.7121 300.12 30.9571C300.089 31.4964 300.172 32.0362 300.364 32.5412C300.557 33.0462 300.855 33.5048 301.238 33.8871C301.622 34.2693 302.082 34.5665 302.589 34.7591C303.096 34.9517 303.638 35.0353 304.18 35.0044C305.098 35.0344 305.993 34.7181 306.686 34.1189L306.178 33.0899ZM309.724 31.5371H313.264C313.172 32.1746 312.841 32.754 312.338 33.1588C311.835 33.5637 311.197 33.7641 310.551 33.7198C309.817 33.7222 309.102 33.4808 308.521 33.0338L307.895 34.1875C308.658 34.7505 309.589 35.0405 310.539 35.0107C313.044 35.0107 314.648 33.408 314.648 30.9571C314.684 30.4269 314.607 29.895 314.422 29.3964C314.237 28.8978 313.949 28.4436 313.576 28.0634C313.203 27.6832 312.754 27.3856 312.257 27.1901C311.761 26.9945 311.229 26.9054 310.695 26.9285C309.72 26.8956 308.764 27.1996 307.989 27.7891L308.528 28.8181C309.055 28.4166 309.699 28.1976 310.363 28.1945C311.854 28.1945 312.925 28.9241 313.201 30.2275H309.693L309.724 31.5371ZM316.954 34.8797H318.332V30.8449L321.552 34.861H323.3L319.86 30.6827L323.099 27.0283H321.439L318.307 30.77V27.0283H316.928L316.954 34.8797ZM330.203 33.0899C329.664 33.501 329.003 33.7205 328.324 33.7135C327.958 33.729 327.593 33.6679 327.253 33.5342C326.912 33.4006 326.603 33.1973 326.347 32.9376C326.09 32.6779 325.891 32.3674 325.762 32.0263C325.633 31.6852 325.577 31.3209 325.599 30.9571C325.568 30.6046 325.612 30.2496 325.728 29.9151C325.843 29.5805 326.028 29.2738 326.27 29.0146C326.512 28.7555 326.806 28.5498 327.133 28.4106C327.459 28.2715 327.812 28.2021 328.167 28.2069C328.8 28.1879 329.422 28.3739 329.94 28.737L330.567 27.7143C329.888 27.1719 329.037 26.8908 328.167 26.9223C325.567 26.9223 324.145 28.7121 324.145 30.9571C324.113 31.4966 324.195 32.0369 324.387 32.5423C324.58 33.0478 324.877 33.5069 325.261 33.8893C325.645 34.2718 326.105 34.5689 326.613 34.7612C327.12 34.9534 327.663 35.0363 328.205 35.0044C329.123 35.0363 330.018 34.7198 330.711 34.1189L330.203 33.0899ZM333.993 34.8797L338.115 29.3232V34.8797H339.5V27.0283H338.291L334.163 32.6035V27.0283H332.778V34.861L333.993 34.8797ZM342.35 34.8797H343.741V29.2671L346.247 32.7095H346.454L348.96 29.2359V34.8922H350.325V27.0283H349.022L346.46 30.6952L343.772 27.0283H342.35V34.8797ZM353.157 34.8797C353.614 34.8797 354.291 34.9296 355.199 34.9296C357.135 34.9296 358.238 33.9942 358.238 32.379C358.238 30.9322 357.241 30.0154 355.594 30.0154C355.24 30.0171 354.886 30.0401 354.535 30.084V28.3129H357.755V27.0283H353.157V34.8797ZM355.481 31.3063C356.446 31.3063 356.866 31.8052 356.866 32.4725C356.866 33.1398 356.44 33.6387 355.412 33.6387C355.124 33.6387 354.855 33.6387 354.535 33.595V31.3687C354.849 31.3263 355.165 31.3055 355.481 31.3063ZM359.716 34.8797H361.113L361.94 32.8779H365.291L366.118 34.8797H367.591L364.258 27.0283H363.049L359.716 34.8797ZM363.619 28.8056L364.772 31.5932H362.466L363.619 28.8056ZM374.425 34.8797H375.791V27.0283H374.425V30.2275H370.829V27.0283H369.439V34.861H370.829V31.5184H374.425V34.8797ZM378.648 34.8797H380.032V30.8449L383.246 34.8797H385L381.561 30.7014L384.825 27.0283H383.164L380.032 30.77V27.0283H378.648V34.8797Z" fill="#0054A5"/>
<path d="M245.216 39.3074H244.777V21.2659L242.015 19.0021V0.723633H242.459V18.7963L245.216 21.0601V39.3074Z" fill="#002E5E"/>
<path d="M172.997 5.42554C173.091 6.54183 174.056 7.29642 175.641 7.29642C177.094 7.29642 178.178 6.54183 178.222 5.42554H176.7C176.643 5.99304 176.236 6.18636 175.641 6.18636C175.046 6.18636 174.626 5.93691 174.519 5.42554H172.997ZM172.96 16.8753L177.808 10.3335V16.8691H179.437V7.65812H178.009L173.154 14.2124V7.65812H171.531V16.8691L172.96 16.8753ZM162.485 16.8753L167.34 10.3335V16.8691H168.963V7.65812H167.541L162.686 14.2124V7.65812H161.063V16.8691L162.485 16.8753ZM152.174 16.8753H153.802V12.1171L157.561 16.8691H159.628L155.581 11.9487L159.39 7.65812H157.43L153.784 12.0235V7.65812H152.155L152.174 16.8753ZM149.943 14.7799C149.311 15.2587 148.539 15.5172 147.744 15.5158C147.315 15.5331 146.887 15.4607 146.488 15.3034C146.089 15.1461 145.727 14.9073 145.426 14.6025C145.125 14.2976 144.892 13.9334 144.741 13.5332C144.59 13.1331 144.525 12.7059 144.549 12.2792C144.549 10.2836 145.846 9.04258 147.563 9.04258C148.307 9.0231 149.038 9.24167 149.649 9.6662L150.382 8.46884C149.585 7.83153 148.584 7.50162 147.563 7.53963C144.512 7.53963 142.827 9.64126 142.827 12.2854C142.79 12.919 142.889 13.553 143.116 14.1459C143.343 14.7389 143.693 15.2773 144.144 15.726C144.595 16.1747 145.136 16.5235 145.731 16.7495C146.327 16.9755 146.964 17.0737 147.6 17.0375C148.685 17.0802 149.746 16.7075 150.563 15.996L149.943 14.7799ZM134.514 5.42554C134.607 6.54183 135.572 7.29642 137.157 7.29642C138.611 7.29642 139.663 6.54183 139.738 5.42554H138.216C138.166 5.99304 137.752 6.18636 137.157 6.18636C136.562 6.18636 136.142 5.93691 136.036 5.42554H134.514ZM134.476 16.8753L139.325 10.3335V16.8691H140.954V7.65812H139.525L134.676 14.2124V7.65812H133.048V16.8691L134.476 16.8753ZM124.008 16.8753L128.857 10.3335V16.8691H130.479V7.65812H129.051L124.214 14.2124V7.65812H122.592V16.8691L124.008 16.8753ZM120.343 14.7799C119.713 15.2586 118.943 15.5172 118.15 15.5158C117.721 15.5339 117.293 15.4624 116.894 15.3058C116.494 15.1493 116.132 14.9112 115.83 14.6069C115.529 14.3027 115.295 13.9389 115.143 13.5391C114.991 13.1392 114.925 12.7122 114.949 12.2854C114.949 10.2898 116.246 9.04881 117.962 9.04881C118.709 9.03062 119.441 9.24901 120.055 9.67244L120.781 8.47507C119.985 7.83676 118.984 7.50673 117.962 7.54587C114.911 7.54587 113.233 9.64749 113.233 12.2917C113.195 12.9254 113.293 13.5599 113.52 14.1533C113.746 14.7467 114.097 15.2856 114.548 15.7345C114.999 16.1834 115.54 16.5322 116.136 16.7578C116.732 16.9835 117.37 17.0809 118.006 17.0437C119.089 17.0867 120.148 16.7139 120.963 16.0023L120.343 14.7799ZM111.685 14.7799C111.055 15.2586 110.285 15.5172 109.493 15.5158C109.064 15.5339 108.636 15.4624 108.236 15.3058C107.836 15.1493 107.474 14.9112 107.173 14.6069C106.871 14.3027 106.637 13.9389 106.485 13.5391C106.333 13.1392 106.267 12.7122 106.291 12.2854C106.291 10.2898 107.588 9.04881 109.305 9.04881C110.049 9.02933 110.78 9.2479 111.391 9.67244L112.124 8.47507C111.327 7.83777 110.326 7.50786 109.305 7.54587C106.254 7.54587 104.575 9.64749 104.575 12.2917C104.538 12.9249 104.635 13.5588 104.862 14.1517C105.088 14.7447 105.438 15.2832 105.888 15.732C106.338 16.1808 106.879 16.5297 107.474 16.7558C108.069 16.9819 108.706 17.08 109.342 17.0437C110.434 17.0795 111.497 16.6954 112.312 15.9711L111.685 14.7799ZM95.466 12.2854C95.3994 11.8419 95.4297 11.3893 95.5547 10.9584C95.6798 10.5276 95.8968 10.1287 96.1909 9.78895C96.4849 9.44919 96.8491 9.17657 97.2587 8.9897C97.6682 8.80282 98.1134 8.70608 98.5639 8.70608C99.0144 8.70608 99.4596 8.80282 99.8691 8.9897C100.279 9.17657 100.643 9.44919 100.937 9.78895C101.231 10.1287 101.448 10.5276 101.573 10.9584C101.698 11.3893 101.728 11.8419 101.662 12.2854C101.662 14.1064 100.503 15.5221 98.5294 15.5221C98.1137 15.5133 97.7039 15.4221 97.3239 15.254C96.944 15.0859 96.6014 14.8442 96.3163 14.5429C96.0311 14.2416 95.8091 13.8869 95.6631 13.4993C95.5171 13.1117 95.4501 12.6991 95.466 12.2854ZM93.7433 12.2854C93.7211 12.9153 93.83 13.543 94.0632 14.129C94.2964 14.715 94.6488 15.2467 95.0982 15.6906C95.5477 16.1345 96.0845 16.4811 96.675 16.7086C97.2655 16.9361 97.8969 17.0396 98.5294 17.0125C99.1649 17.0381 99.7989 16.9342 100.393 16.7071C100.986 16.4799 101.527 16.1344 101.982 15.6918C102.436 15.2491 102.795 14.7186 103.036 14.1328C103.278 13.5471 103.396 12.9184 103.385 12.2854C103.413 11.6461 103.306 11.008 103.071 10.4123C102.836 9.81664 102.478 9.27659 102.021 8.82704C101.563 8.37749 101.016 8.02842 100.415 7.80238C99.8136 7.57633 99.1712 7.47833 98.5294 7.51469C97.8952 7.49565 97.2637 7.60608 96.674 7.83917C96.0842 8.07227 95.5487 8.42309 95.1003 8.87004C94.6519 9.31698 94.3002 9.85058 94.0668 10.438C93.8334 11.0254 93.7233 11.6541 93.7433 12.2854ZM89.1325 9.1673C90.2413 9.1673 90.8365 9.64126 90.8365 10.6016C90.8365 11.562 90.0847 12.0921 89.12 12.0921C88.7347 12.0906 88.3499 12.0677 87.9673 12.0235V9.1673C88.4058 9.1673 88.8005 9.13612 89.1325 9.13612V9.1673ZM87.9673 16.8629V13.5327C88.3619 13.5701 88.8944 13.5701 89.1701 13.5701C91.3815 13.5701 92.553 12.1482 92.553 10.5829C92.553 9.01763 91.6947 7.62694 88.9759 7.62694H86.3447V16.8691L87.9673 16.8629Z" fill="#002E5E"/>
<path d="M94.0319 30.0775C94.0319 27.2088 92.1023 25.3379 89.3835 25.3379C88.2342 25.2977 87.1068 25.6571 86.1948 26.3544L86.8213 27.5642C87.4475 27.1001 88.2081 26.8506 88.9888 26.8533C90.7367 26.8533 92.0021 27.7077 92.3216 29.248H88.1995V30.7634H92.3592C92.2503 31.5134 91.8604 32.1945 91.2677 32.67C90.675 33.1455 89.9235 33.38 89.1642 33.3266C88.3035 33.3257 87.467 33.043 86.7837 32.5221L86.082 33.8816C86.9885 34.5421 88.0916 34.8804 89.2144 34.842C92.1775 34.842 94.0507 32.9711 94.0507 30.0775H94.0319ZM103.397 34.6923L99.3317 29.7469L103.141 25.4564H101.186L97.5338 29.8218V25.4564H95.9112V34.6673H97.5338V29.9216L101.293 34.6673L103.397 34.6923ZM105.847 30.0899C105.847 28.0881 107.137 26.8533 108.86 26.8533C109.604 26.836 110.335 27.0544 110.946 27.4769L111.686 26.2733C110.894 25.6302 109.894 25.2974 108.873 25.3379C105.816 25.3379 104.137 27.4458 104.137 30.0899C104.099 30.7237 104.197 31.3582 104.424 31.9515C104.651 32.5449 105.001 33.0838 105.452 33.5327C105.903 33.9816 106.444 34.3304 107.04 34.5561C107.636 34.7817 108.274 34.8792 108.91 34.842C109.995 34.8815 111.054 34.5092 111.874 33.8005L111.247 32.5907C110.615 33.0694 109.842 33.3279 109.048 33.3266C108.619 33.3448 108.191 33.2731 107.791 33.1161C107.391 32.9592 107.029 32.7204 106.728 32.4153C106.427 32.1103 106.193 31.7456 106.043 31.3451C105.892 30.9445 105.827 30.5169 105.853 30.0899H105.847ZM119.203 34.6923H120.832V25.4813H113.452V34.6923H115.081V26.9967H119.203V34.6923ZM130.624 30.0899C130.624 31.9047 129.465 33.3266 127.491 33.3266C127.073 33.321 126.661 33.2323 126.278 33.0657C125.895 32.899 125.55 32.6578 125.262 32.3562C124.974 32.0546 124.75 31.6987 124.602 31.3095C124.455 30.9203 124.387 30.5056 124.403 30.0899C124.336 29.6464 124.366 29.1938 124.492 28.7629C124.617 28.3321 124.834 27.9332 125.128 27.5935C125.422 27.2537 125.786 26.9811 126.195 26.7942C126.605 26.6073 127.05 26.5106 127.501 26.5106C127.951 26.5106 128.396 26.6073 128.806 26.7942C129.215 26.9811 129.58 27.2537 129.874 27.5935C130.168 27.9332 130.385 28.3321 130.51 28.7629C130.635 29.1938 130.665 29.6464 130.599 30.0899H130.624ZM132.321 30.0899C132.346 29.4546 132.237 28.8212 132.002 28.23C131.767 27.6388 131.411 27.1027 130.957 26.6558C130.503 26.2089 129.96 25.8609 129.363 25.634C128.767 25.4072 128.129 25.3063 127.491 25.3379C126.857 25.3164 126.225 25.4244 125.634 25.6551C125.043 25.8858 124.505 26.2344 124.055 26.6795C123.604 27.1246 123.25 27.6568 123.013 28.2433C122.777 28.8298 122.663 29.4582 122.68 30.0899C122.654 30.7241 122.761 31.3567 122.994 31.9474C123.227 32.5382 123.581 33.0741 124.034 33.5211C124.487 33.9682 125.028 34.3165 125.623 34.5439C126.218 34.7713 126.854 34.8728 127.491 34.842C128.127 34.8642 128.76 34.757 129.353 34.5268C129.945 34.2966 130.484 33.9483 130.936 33.5033C131.388 33.0583 131.745 32.526 131.983 31.939C132.221 31.352 132.336 30.7228 132.321 30.0899ZM138.692 28.4061C138.692 29.4289 137.934 29.8904 136.97 29.8904C136.6 29.8904 136.205 29.8904 135.823 29.828V26.9967C136.262 26.9967 136.656 26.9967 136.982 26.9967C138.097 26.9967 138.692 27.4707 138.692 28.4311V28.4061ZM140.409 28.4311C140.409 26.9157 139.551 25.4689 136.826 25.4689H134.194V34.6798H135.823V31.3684C136.218 31.4058 136.744 31.4058 137.026 31.4058C139.231 31.4058 140.409 29.9839 140.409 28.4186V28.4311ZM145.765 26.9967H148.766V25.4813H141.161V26.9967H144.161V34.6923H145.79L145.765 26.9967ZM156.033 34.6923H157.649V25.4813H156.033V29.2231H151.804V25.4813H150.176V34.6923H151.804V30.7634H156.033V34.6923ZM164.534 31.5742C164.534 32.653 163.908 33.1956 162.711 33.1956C162.392 33.1956 162.128 33.1956 161.84 33.1582V30.1398C162.21 30.1024 162.467 30.0775 162.736 30.0775C163.876 30.0775 164.534 30.5888 164.534 31.5742ZM166.257 31.5367C166.257 29.7345 165.154 28.562 162.868 28.562C162.524 28.5615 162.181 28.5844 161.84 28.6306V25.4813H160.211V34.6923C160.757 34.6923 161.64 34.6923 162.511 34.6923C164.879 34.6923 166.269 33.445 166.269 31.518L166.257 31.5367ZM167.472 34.6362H169.082V25.4813H167.472V34.6362ZM178.335 23.1926H176.838C176.788 23.7539 176.381 23.9535 175.785 23.9535C175.19 23.9535 174.764 23.704 174.658 23.1926H173.142C173.229 24.3089 174.194 25.0635 175.785 25.0635C177.239 25.0635 178.323 24.3152 178.36 23.1926H178.335ZM177.953 34.6362H179.575V25.4813H178.147L173.298 32.0356V25.4813H171.67V34.6923H173.079L177.934 28.1567L177.953 34.6362Z" fill="#002E5E"/>
<path d="M193.234 36.3388H194.75V33.1833H193.497V25.4815H191.874V33.1833H187.815V25.4815H186.192V34.6987H193.24L193.234 36.3388ZM196.366 34.6987H201.848V33.1833H197.989V30.801H201.321V29.2856H197.989V26.9969H201.716V25.4815H196.366V34.6987ZM209.823 34.6987H211.433V25.4815H209.823V29.2232H205.594V25.4815H203.965V34.6987H205.594V30.7636H209.823V34.6987ZM217.478 26.9969H220.479V25.4815H212.848V26.9969H215.849V34.6987H217.478V26.9969ZM226.386 28.4063C226.386 29.429 225.635 29.8905 224.67 29.8905C224.294 29.8905 223.899 29.8905 223.517 29.8281V26.9969C223.956 26.9969 224.35 26.9969 224.682 26.9969C225.791 26.9969 226.386 27.4708 226.386 28.4312V28.4063ZM228.103 28.4312C228.103 26.9158 227.245 25.469 224.519 25.469H221.888V34.6862H223.517V31.3685C223.912 31.4059 224.444 31.4059 224.72 31.4059C226.925 31.4059 228.103 29.9841 228.103 28.4187" fill="#002E5E"/>
<path d="M36.9615 0.0062376L32.5575 1.64014L31.7744 0L36.9615 0.0062376Z" fill="#1B75BB"/>
<path d="M31.7681 0L32.5574 1.64014L28.7861 3.03083L31.7681 0Z" fill="#EC1C24"/>
<path d="M50.3109 0.386719L53.9256 5.42562L40.3564 4.20331L50.3109 0.386719Z" fill="#1B75BB"/>
<path d="M72.5705 0.00683594L67.1829 2.12093L64.2949 0.00683594H72.5705Z" fill="#1B75BB"/>
<path d="M28.7859 8.52515L24.4883 13.6451L19.1133 13.0714L28.7859 8.52515Z" fill="#1B75BB"/>
<path d="M24.4883 13.6388L19.1133 19.9499V13.0713L24.4883 13.6388Z" fill="#EC1C24"/>
<path d="M72.6516 0.00683594L70.459 4.50942L67.1826 2.12093L72.5702 0.00683594H72.6516Z" fill="#EC1C24"/>
<path d="M8.4999 24.0408L8.05511 29.167L0.0175781 33.5012L8.4999 24.0408Z" fill="#1B75BB"/>
<path d="M8.05632 29.1672L7.45492 34.967L0 33.5201L8.05632 29.1672Z" fill="#EC1C24"/>
<path d="M56.7757 10.0715L64.381 19.27L51.7139 17.9355L56.7757 10.0715Z" fill="#1B75BB"/>
<path d="M64.3822 19.2701L45.9141 26.9345L51.7151 17.9355L64.3822 19.2701Z" fill="#EC1C24"/>
<path d="M36.8929 30.246L19.0449 37.6921V26.2236L36.8929 30.246Z" fill="#EC1C24"/>
<path d="M58.7378 33.6135L53.5194 44.2401L50.7441 36.9063L58.7378 33.6135Z" fill="#1B75BB"/>
<path d="M50.7435 36.9065L53.5188 44.2404L40.0498 41.5151L50.7435 36.9065Z" fill="#EC1C24"/>
<path d="M31.4678 14.6242L41.961 10.5457L44.8428 15.9837L31.4678 14.6242Z" fill="#1B75BB"/>
<path d="M31.4678 14.624L44.8428 15.9835L33.1279 20.6857L31.4678 14.624Z" fill="#EC1C24"/>
</svg>
