<svg width="220" height="48" viewBox="0 0 220 48" fill="none" xmlns="http://www.w3.org/2000/svg">
<path d="M85.3908 20.2455L86.0365 21.5106C85.7343 21.8314 85.2992 22.0927 84.7314 22.2943C84.1728 22.496 83.582 22.5969 82.9593 22.5969C81.4939 22.5969 80.2988 22.1431 79.3738 21.2355C78.4579 20.328 78 19.1271 78 17.6329C78 16.2028 78.435 15.0157 79.3051 14.0715C80.166 13.1365 81.3703 12.6689 82.9181 12.6689C84.1453 12.6689 85.1207 12.9944 85.8442 13.6452L85.0886 14.8965C84.4384 14.4657 83.7148 14.2503 82.9181 14.2503C82.0022 14.2503 81.2512 14.5574 80.6651 15.1715C80.079 15.7857 79.7859 16.6062 79.7859 17.6329C79.7859 18.6413 80.0927 19.4571 80.7063 20.0805C81.3291 20.7039 82.1304 21.0155 83.1104 21.0155C83.953 21.0155 84.7131 20.7589 85.3908 20.2455Z" fill="#002E5E"/>
<path d="M88.021 24.1644H86.4412V20.8643H87.4715C87.7463 20.5434 88.0439 19.833 88.3645 18.7329C88.6942 17.6054 88.8911 16.2762 88.9552 14.7453L89.0514 12.8202H95.0135V20.8643H96.3185V24.1644H94.7387V22.4456H88.021V24.1644ZM90.6861 14.4015L90.535 16.0791C90.4526 17.2341 90.2832 18.2471 90.0267 19.118C89.7611 20.0255 89.5276 20.6076 89.3261 20.8643H93.3375V14.4015H90.6861Z" fill="#002E5E"/>
<path d="M103.694 22.4456H97.9926V12.8202H103.556V14.4015H99.6823V16.7941H103.144V18.3754H99.6823V20.8643H103.694V22.4456Z" fill="#002E5E"/>
<path d="M113.244 22.4456H111.568V14.4015H108.766L108.573 16.2166C108.463 17.3166 108.321 18.2563 108.147 19.0355C107.973 19.8147 107.781 20.438 107.57 20.9055C107.36 21.3731 107.108 21.7306 106.815 21.9781C106.531 22.2256 106.233 22.3814 105.922 22.4456C105.62 22.5006 105.267 22.5006 104.864 22.4456L104.905 20.768C105.107 20.7955 105.272 20.7864 105.4 20.7405C105.528 20.6947 105.679 20.5664 105.853 20.3555C106.046 20.1172 106.201 19.8009 106.32 19.4067C106.65 18.4258 106.893 16.872 107.048 14.7453L107.186 12.8202H113.244V22.4456Z" fill="#002E5E"/>
<path d="M116.37 22.4456H114.666L118.732 12.7927H120.216L124.282 22.4456H122.483L121.48 19.9842H117.372L116.37 22.4456ZM120.834 18.4029L119.433 14.979L118.018 18.4029H120.834Z" fill="#002E5E"/>
<path d="M133.484 22.4456H131.808V18.3342H127.412V22.4456H125.723V12.8202H127.412V16.7529H131.808V12.8202H133.484V22.4456Z" fill="#002E5E"/>
<path d="M135.432 17.6329C135.432 16.2303 135.899 15.0524 136.833 14.099C137.786 13.1456 138.986 12.6689 140.433 12.6689C141.88 12.6689 143.075 13.1273 144.018 14.044C144.971 14.9699 145.447 16.1662 145.447 17.6329C145.447 19.0721 144.971 20.2593 144.018 21.1943C143.066 22.1293 141.871 22.5969 140.433 22.5969C138.986 22.5969 137.791 22.1385 136.847 21.2218C135.904 20.3051 135.432 19.1088 135.432 17.6329ZM137.218 17.6329C137.218 18.6046 137.525 19.4113 138.139 20.053C138.752 20.6947 139.517 21.0155 140.433 21.0155C141.422 21.0155 142.205 20.6947 142.782 20.053C143.368 19.4113 143.661 18.6046 143.661 17.6329C143.661 16.652 143.35 15.8407 142.727 15.199C142.104 14.5665 141.339 14.2503 140.433 14.2503C139.508 14.2503 138.738 14.5665 138.125 15.199C137.52 15.8316 137.218 16.6429 137.218 17.6329Z" fill="#002E5E"/>
<path d="M150.313 22.4318V12.8477C151.303 12.8019 152.228 12.7789 153.089 12.7789C154.151 12.7789 154.943 12.9898 155.465 13.4115C155.987 13.8332 156.248 14.4153 156.248 15.1578C156.248 16.1937 155.79 16.9225 154.874 17.3441V17.3716C155.396 17.5091 155.809 17.7704 156.111 18.1554C156.413 18.5313 156.564 19.0171 156.564 19.613C156.564 20.548 156.244 21.2631 155.602 21.7581C154.961 22.2531 154.091 22.5006 152.992 22.5006C151.893 22.5006 151 22.4777 150.313 22.4318ZM153.198 18.3067H152.003V20.8505C152.434 20.8964 152.805 20.9193 153.116 20.9193C154.288 20.9193 154.874 20.4564 154.874 19.5305C154.874 19.1271 154.728 18.8246 154.435 18.6229C154.142 18.4121 153.73 18.3067 153.198 18.3067ZM153.061 14.3603C152.658 14.3603 152.305 14.374 152.003 14.4015V16.8354H153.143C153.574 16.8354 153.917 16.7254 154.174 16.5054C154.439 16.2853 154.572 15.9691 154.572 15.5566C154.572 15.1715 154.439 14.8782 154.174 14.6765C153.908 14.4657 153.537 14.3603 153.061 14.3603Z" fill="#002E5E"/>
<path d="M163.393 18.9667V22.4456H161.703V12.8202C162.106 12.8202 162.541 12.8156 163.008 12.8065C163.485 12.7973 163.961 12.7927 164.437 12.7927C165.115 12.7927 165.701 12.8798 166.196 13.054C166.699 13.219 167.089 13.4527 167.363 13.7552C167.638 14.0486 167.839 14.374 167.968 14.7315C168.096 15.0799 168.16 15.4649 168.16 15.8866C168.16 16.7574 167.849 17.4954 167.226 18.1004C166.612 18.7054 165.751 19.008 164.643 19.008C164.085 19.008 163.668 18.9942 163.393 18.9667ZM164.602 14.374L163.393 14.4015V17.3579C163.878 17.4037 164.277 17.4266 164.588 17.4266C165.129 17.4266 165.559 17.2937 165.88 17.0279C166.209 16.762 166.374 16.377 166.374 15.8728C166.374 14.8736 165.783 14.374 164.602 14.374Z" fill="#002E5E"/>
<path d="M169.334 17.6329C169.334 16.2303 169.801 15.0524 170.735 14.099C171.687 13.1456 172.887 12.6689 174.334 12.6689C175.781 12.6689 176.976 13.1273 177.92 14.044C178.872 14.9699 179.348 16.1662 179.348 17.6329C179.348 19.0721 178.872 20.2593 177.92 21.1943C176.967 22.1293 175.772 22.5969 174.334 22.5969C172.887 22.5969 171.692 22.1385 170.748 21.2218C169.805 20.3051 169.334 19.1088 169.334 17.6329ZM171.119 17.6329C171.119 18.6046 171.426 19.4113 172.04 20.053C172.653 20.6947 173.418 21.0155 174.334 21.0155C175.323 21.0155 176.106 20.6947 176.683 20.053C177.269 19.4113 177.562 18.6046 177.562 17.6329C177.562 16.652 177.251 15.8407 176.628 15.199C176.005 14.5665 175.241 14.2503 174.334 14.2503C173.409 14.2503 172.64 14.5665 172.026 15.199C171.422 15.8316 171.119 16.6429 171.119 17.6329Z" fill="#002E5E"/>
<path d="M187.98 20.2455L188.626 21.5106C188.323 21.8314 187.888 22.0927 187.321 22.2943C186.762 22.496 186.171 22.5969 185.548 22.5969C184.083 22.5969 182.888 22.1431 181.963 21.2355C181.047 20.328 180.589 19.1271 180.589 17.6329C180.589 16.2028 181.024 15.0157 181.894 14.0715C182.755 13.1365 183.96 12.6689 185.507 12.6689C186.735 12.6689 187.71 12.9944 188.433 13.6452L187.678 14.8965C187.028 14.4657 186.304 14.2503 185.507 14.2503C184.591 14.2503 183.84 14.5574 183.254 15.1715C182.668 15.7857 182.375 16.6062 182.375 17.6329C182.375 18.6413 182.682 19.4571 183.296 20.0805C183.918 20.7039 184.72 21.0155 185.7 21.0155C186.542 21.0155 187.302 20.7589 187.98 20.2455Z" fill="#002E5E"/>
<path d="M196.579 20.2455L197.225 21.5106C196.923 21.8314 196.488 22.0927 195.92 22.2943C195.361 22.496 194.771 22.5969 194.148 22.5969C192.683 22.5969 191.487 22.1431 190.562 21.2355C189.647 20.328 189.189 19.1271 189.189 17.6329C189.189 16.2028 189.624 15.0157 190.494 14.0715C191.355 13.1365 192.559 12.6689 194.107 12.6689C195.334 12.6689 196.309 12.9944 197.033 13.6452L196.277 14.8965C195.627 14.4657 194.903 14.2503 194.107 14.2503C193.191 14.2503 192.44 14.5574 191.854 15.1715C191.268 15.7857 190.975 16.6062 190.975 17.6329C190.975 18.6413 191.281 19.4571 191.895 20.0805C192.518 20.7039 193.319 21.0155 194.299 21.0155C195.142 21.0155 195.902 20.7589 196.579 20.2455Z" fill="#002E5E"/>
<path d="M205.43 15.6116L200.389 22.4456H198.905V12.8202H200.595V19.668L205.636 12.8202H207.12V22.4456H205.43V15.6116Z" fill="#002E5E"/>
<path d="M216.31 15.6116L211.269 22.4456H209.785V12.8202H211.475V19.668L216.516 12.8202H218V22.4456H216.31V15.6116Z" fill="#002E5E"/>
<path d="M80.4041 38.5177H78.7144V28.8923H80.4178L83.7011 33.3887L86.8333 28.8923H88.4268V38.5177H86.7508V31.5599L83.7148 35.8363H83.4676L80.4041 31.6012V38.5177Z" fill="#002E5E"/>
<path d="M91.1244 33.925L90.7261 32.77C91.3946 32.3758 92.1227 32.1787 92.9103 32.1787C93.7712 32.1787 94.3986 32.3895 94.7924 32.8112C95.1862 33.2329 95.3831 33.8792 95.3831 34.75V38.5177H94.0093V37.8027C93.643 38.3343 93.034 38.6002 92.1822 38.6002C91.5961 38.6002 91.1244 38.4306 90.7673 38.0914C90.4192 37.7431 90.2452 37.2801 90.2452 36.7026C90.2452 36.0609 90.4513 35.5659 90.8634 35.2176C91.2756 34.8692 91.8205 34.695 92.4982 34.695C93.0569 34.695 93.5239 34.828 93.8994 35.0938C93.9178 34.5438 93.8353 34.1404 93.6522 33.8837C93.4782 33.6271 93.1759 33.4987 92.7455 33.4987C92.2692 33.4987 91.7289 33.6408 91.1244 33.925ZM92.7043 37.2664C93.2355 37.2664 93.6338 37.0785 93.8994 36.7026V36.0701C93.643 35.8684 93.2812 35.7676 92.8142 35.7676C92.5211 35.7676 92.283 35.8363 92.0998 35.9738C91.9166 36.1113 91.8251 36.2993 91.8251 36.5376C91.8251 36.7576 91.9075 36.9364 92.0723 37.0739C92.2372 37.2022 92.4478 37.2664 92.7043 37.2664Z" fill="#002E5E"/>
<path d="M102.882 38.5177H101.302V37.8714C100.826 38.3756 100.236 38.6277 99.5303 38.6277C98.6603 38.6277 97.9551 38.3435 97.4148 37.7752C96.8836 37.2068 96.618 36.4459 96.618 35.4926C96.618 34.5209 96.9339 33.7279 97.5659 33.1137C98.207 32.4904 99.0221 32.1787 100.011 32.1787C100.533 32.1787 100.964 32.2795 101.302 32.4812V28.8923H102.882V38.5177ZM99.86 37.1564C100.4 37.1564 100.881 36.9455 101.302 36.5239V34.035C100.909 33.7875 100.501 33.6637 100.08 33.6637C99.5761 33.6637 99.1549 33.8242 98.816 34.145C98.4771 34.4659 98.3077 34.8967 98.3077 35.4376C98.3077 35.9601 98.4542 36.3772 98.7473 36.6889C99.0404 37.0005 99.4113 37.1564 99.86 37.1564Z" fill="#002E5E"/>
<path d="M109.485 36.7851L109.939 37.8989C109.325 38.4123 108.538 38.6689 107.576 38.6689C106.587 38.6689 105.781 38.371 105.158 37.7752C104.554 37.1885 104.251 36.4047 104.251 35.4238C104.251 34.5071 104.549 33.7371 105.144 33.1137C105.74 32.4904 106.532 32.1787 107.521 32.1787C108.336 32.1787 109.028 32.4491 109.595 32.99C110.163 33.5308 110.447 34.2183 110.447 35.0525C110.447 35.4192 110.415 35.7034 110.351 35.9051H105.886C105.95 36.3543 106.147 36.7072 106.477 36.9639C106.816 37.2206 107.237 37.3489 107.741 37.3489C108.428 37.3489 109.009 37.161 109.485 36.7851ZM107.452 33.4987C106.555 33.4987 106.014 33.9479 105.831 34.8463H108.867C108.876 34.4521 108.748 34.1313 108.483 33.8837C108.226 33.6271 107.883 33.4987 107.452 33.4987Z" fill="#002E5E"/>
<path d="M116.444 38.5177H114.864V32.3299H116.444V38.5177ZM114.699 30.1023C114.699 29.8273 114.791 29.6073 114.974 29.4423C115.167 29.2681 115.405 29.1811 115.689 29.1811C115.936 29.1811 116.146 29.2681 116.32 29.4423C116.504 29.6165 116.595 29.8365 116.595 30.1023C116.595 30.3957 116.504 30.634 116.32 30.8174C116.146 31.0007 115.936 31.0924 115.689 31.0924C115.405 31.0924 115.167 31.0007 114.974 30.8174C114.791 30.634 114.699 30.3957 114.699 30.1023Z" fill="#002E5E"/>
<path d="M120.021 38.5177H118.441V32.3299H120.021V32.9487C120.479 32.4629 121.069 32.2199 121.793 32.2199C123.487 32.2199 124.334 33.1091 124.334 34.8875V38.5177H122.754V35.1626C122.754 34.1908 122.292 33.705 121.367 33.705C120.863 33.705 120.414 33.9021 120.021 34.2963V38.5177Z" fill="#002E5E"/>
<path d="M130.994 34.915V38.5177H129.305V28.8923C129.781 28.8923 130.298 28.8877 130.857 28.8785C131.416 28.8694 131.874 28.8648 132.231 28.8648C134.557 28.8648 135.72 29.8548 135.72 31.8349C135.72 32.5683 135.532 33.1733 135.157 33.65C134.781 34.1083 134.351 34.42 133.866 34.585L136.874 38.5177H134.827L132.176 34.915H130.994ZM132.148 30.4461C132.103 30.4461 132.029 30.4507 131.929 30.4599C131.828 30.4599 131.686 30.4644 131.503 30.4736C131.319 30.4736 131.15 30.4736 130.994 30.4736V33.3337H132.093C132.634 33.3337 133.073 33.2008 133.412 32.935C133.76 32.6691 133.934 32.307 133.934 31.8487C133.934 30.9136 133.339 30.4461 132.148 30.4461Z" fill="#002E5E"/>
<path d="M141.905 32.3299H143.485V38.5177H141.905V37.7614C141.41 38.3664 140.751 38.6689 139.927 38.6689C139.267 38.6689 138.741 38.4489 138.347 38.0089C137.953 37.5689 137.756 36.9364 137.756 36.1113V32.3299H139.336V35.7813C139.336 36.7255 139.73 37.1976 140.517 37.1976C141.058 37.1976 141.52 36.9455 141.905 36.4414V32.3299Z" fill="#002E5E"/>
<path d="M145.039 34.0625C145.039 33.485 145.25 33.0266 145.671 32.6875C146.092 32.3483 146.637 32.1787 147.306 32.1787C148.313 32.1787 149.096 32.4399 149.655 32.9625L149.064 34.09C148.561 33.6958 148.002 33.4987 147.388 33.4987C147.168 33.4987 146.985 33.5537 146.839 33.6637C146.692 33.7646 146.619 33.8883 146.619 34.035C146.619 34.3375 147.008 34.5896 147.787 34.7913C148.071 34.8555 148.322 34.9288 148.542 35.0113C148.762 35.0846 148.986 35.1946 149.215 35.3413C149.453 35.4788 149.637 35.6622 149.765 35.8913C149.893 36.1205 149.957 36.3864 149.957 36.6889C149.957 37.2939 149.728 37.7752 149.27 38.1327C148.822 38.4902 148.217 38.6689 147.457 38.6689C146.917 38.6689 146.39 38.5544 145.877 38.3252C145.355 38.0868 145.021 37.8485 144.874 37.6102L145.644 36.5789C145.818 36.7897 146.106 36.9685 146.509 37.1151C146.921 37.271 147.274 37.3489 147.567 37.3489C147.924 37.3856 148.176 37.271 148.322 37.0051C148.469 36.7301 148.373 36.5055 148.034 36.3314C147.897 36.258 147.681 36.1801 147.388 36.0976C147.104 36.0151 146.839 35.9326 146.591 35.8501C146.353 35.7584 146.106 35.6438 145.85 35.5063C145.602 35.3688 145.405 35.1809 145.259 34.9425C145.112 34.695 145.039 34.4017 145.039 34.0625Z" fill="#002E5E"/>
<path d="M151.143 34.0625C151.143 33.485 151.354 33.0266 151.775 32.6875C152.196 32.3483 152.741 32.1787 153.41 32.1787C154.417 32.1787 155.2 32.4399 155.759 32.9625L155.168 34.09C154.665 33.6958 154.106 33.4987 153.492 33.4987C153.273 33.4987 153.089 33.5537 152.943 33.6637C152.796 33.7646 152.723 33.8883 152.723 34.035C152.723 34.3375 153.112 34.5896 153.891 34.7913C154.175 34.8555 154.427 34.9288 154.646 35.0113C154.866 35.0846 155.09 35.1946 155.319 35.3413C155.558 35.4788 155.741 35.6622 155.869 35.8913C155.997 36.1205 156.061 36.3864 156.061 36.6889C156.061 37.2939 155.832 37.7752 155.374 38.1327C154.926 38.4902 154.321 38.6689 153.561 38.6689C153.021 38.6689 152.494 38.5544 151.981 38.3252C151.459 38.0868 151.125 37.8485 150.978 37.6102L151.748 36.5789C151.922 36.7897 152.21 36.9685 152.613 37.1151C153.025 37.271 153.378 37.3489 153.671 37.3489C154.028 37.3856 154.28 37.271 154.427 37.0051C154.573 36.7301 154.477 36.5055 154.138 36.3314C154.001 36.258 153.785 36.1801 153.492 36.0976C153.208 36.0151 152.943 35.9326 152.696 35.8501C152.457 35.7584 152.21 35.6438 151.954 35.5063C151.706 35.3688 151.51 35.1809 151.363 34.9425C151.216 34.695 151.143 34.4017 151.143 34.0625Z" fill="#002E5E"/>
<path d="M159.267 38.5177H157.687V32.3299H159.267V38.5177ZM157.522 30.1023C157.522 29.8273 157.614 29.6073 157.797 29.4423C157.989 29.2681 158.227 29.1811 158.511 29.1811C158.758 29.1811 158.969 29.2681 159.143 29.4423C159.326 29.6165 159.418 29.8365 159.418 30.1023C159.418 30.3957 159.326 30.634 159.143 30.8174C158.969 31.0007 158.758 31.0924 158.511 31.0924C158.227 31.0924 157.989 31.0007 157.797 30.8174C157.614 30.634 157.522 30.3957 157.522 30.1023Z" fill="#002E5E"/>
<path d="M161.744 33.925L161.346 32.77C162.014 32.3758 162.743 32.1787 163.53 32.1787C164.391 32.1787 165.018 32.3895 165.412 32.8112C165.806 33.2329 166.003 33.8792 166.003 34.75V38.5177H164.629V37.8027C164.263 38.3343 163.654 38.6002 162.802 38.6002C162.216 38.6002 161.744 38.4306 161.387 38.0914C161.039 37.7431 160.865 37.2801 160.865 36.7026C160.865 36.0609 161.071 35.5659 161.483 35.2176C161.895 34.8692 162.44 34.695 163.118 34.695C163.677 34.695 164.144 34.828 164.519 35.0938C164.538 34.5438 164.455 34.1404 164.272 33.8837C164.098 33.6271 163.796 33.4987 163.365 33.4987C162.889 33.4987 162.349 33.6408 161.744 33.925ZM163.324 37.2664C163.855 37.2664 164.254 37.0785 164.519 36.7026V36.0701C164.263 35.8684 163.901 35.7676 163.434 35.7676C163.141 35.7676 162.903 35.8363 162.72 35.9738C162.536 36.1113 162.445 36.2993 162.445 36.5376C162.445 36.7576 162.527 36.9364 162.692 37.0739C162.857 37.2022 163.068 37.2664 163.324 37.2664Z" fill="#002E5E"/>
<path d="M17.7539 14.7411C25.0455 15.1779 30.5578 25.6939 38.8421 33.4256C41.9157 36.2927 51.8502 25.3437 50.1214 23.7735C45.452 19.5652 35.5756 11.7643 26.4166 11.7643C23.3823 11.7643 20.4229 12.6187 17.7614 14.7411" fill="url(#paint0_linear)"/>
<path d="M7.97168 18.2066C17.6139 18.2028 24.7314 34.7186 38.9831 39.9622L43.6881 27.7317C43.6881 27.7317 29.7548 14.6795 17.451 14.6814C14.059 14.6814 10.7906 15.6724 7.97168 18.2028" fill="url(#paint1_linear)"/>
<path d="M36.7186 26.5251C31.8488 27.1024 27.0071 24.4508 22.2084 21.7626C32.8584 33.693 45.8271 38.9327 56.4527 28.9978C62.2309 20.2078 65.1004 9.70525 70.0001 9.11643C68.1646 7.62706 66.4414 6.99976 64.7763 6.99976C55.8908 6.99976 48.8557 25.0723 36.7186 26.5309" fill="url(#paint2_linear)"/>
<path d="M5.98797 17.2405C4.7447 17.6428 3.57776 18.2611 2.53789 19.0685C2.33279 19.2224 2.1756 19.4342 2.08543 19.6781C1.99525 19.922 1.97598 20.1875 2.02993 20.4425C2.08389 20.6975 2.20876 20.9308 2.38938 21.1143C2.56999 21.2977 2.79857 21.4233 3.04734 21.4758C13.0024 23.7964 21.7774 42.9831 39.7003 40.8318C47.5182 39.8909 52.624 34.8205 56.4487 28.9977C45.8231 38.9326 35.6864 30.4563 22.2045 21.7625C18.4472 19.6593 14.7237 17.5387 11.0526 16.9403C10.4383 16.8592 9.81956 16.8181 9.20019 16.8171C8.11597 16.8121 7.03586 16.9545 5.98797 17.2405" fill="url(#paint3_linear)"/>
<defs>
<linearGradient id="paint0_linear" x1="44.7627" y1="7.88114" x2="16.9024" y2="38.3069" gradientUnits="userSpaceOnUse">
<stop stop-color="#ECECEC"/>
<stop offset="1" stop-color="#C6C6C5"/>
</linearGradient>
<linearGradient id="paint1_linear" x1="36.7486" y1="11.4217" x2="10.6019" y2="44.396" gradientUnits="userSpaceOnUse">
<stop stop-color="#04BAEE"/>
<stop offset="1" stop-color="#0080C8"/>
</linearGradient>
<linearGradient id="paint2_linear" x1="58.6947" y1="1.10385" x2="22.5984" y2="43.9713" gradientUnits="userSpaceOnUse">
<stop stop-color="#009EE2"/>
<stop offset="1" stop-color="#005CA8"/>
</linearGradient>
<linearGradient id="paint3_linear" x1="55.0552" y1="50.659" x2="-2.03106" y2="-3.3692" gradientUnits="userSpaceOnUse">
<stop stop-color="#E74E0F"/>
<stop offset="1" stop-color="#A71815"/>
</linearGradient>
</defs>
</svg>
