<svg width="168" height="39" viewBox="0 0 168 39" fill="none" xmlns="http://www.w3.org/2000/svg">
<g clip-path="url(#clip0_407:530)">
<path d="M32.1723 2.58054L28.5894 3.8386L28.0586 2.58054H32.1723Z" fill="#2873B9"/>
<path d="M28.0585 2.58054L28.5894 3.8386L25.6699 4.84505L28.0585 2.58054Z" fill="#E31E24"/>
<path d="M42.6565 2.83215L45.576 6.60635L34.8271 5.7257L42.6565 2.83215Z" fill="#2873B9"/>
<path d="M60.3051 2.58054L56.0587 4.21602L53.8027 2.58054H60.3051Z" fill="#2873B9"/>
<path d="M25.6703 8.99667L22.2201 12.8967L17.9736 12.3934L25.6703 8.99667Z" fill="#2873B9"/>
<path d="M22.2201 12.8967L17.9736 17.6773V12.3934L22.2201 12.8967Z" fill="#E31E24"/>
<path d="M60.4378 2.58054L58.7126 5.97731L56.0586 4.21602L60.3051 2.58054H60.4378Z" fill="#E31E24"/>
<path d="M9.61347 20.6967L9.21537 24.5967L2.8457 27.8676L9.61347 20.6967Z" fill="#2873B9"/>
<path d="M9.21537 24.5966L8.81727 28.9999L2.8457 27.8676L9.21537 24.5966Z" fill="#E31E24"/>
<path d="M47.8316 10.1289L53.8032 17.1741L43.8506 16.1676L47.8316 10.1289Z" fill="#2873B9"/>
<path d="M53.8032 17.1741L39.2061 22.8354L43.8506 16.1676L53.8032 17.1741Z" fill="#E31E24"/>
<path d="M32.04 25.3515L17.9736 31.0128V22.3322L32.04 25.3515Z" fill="#E31E24"/>
<path d="M49.4244 27.9934L45.3106 35.9192L43.0547 30.3838L49.4244 27.9934Z" fill="#2873B9"/>
<path d="M43.0544 30.3838L45.3103 35.9192L34.5615 33.9063L43.0544 30.3838Z" fill="#E31E24"/>
<path d="M27.7939 13.6515L36.1541 10.5063L38.4101 14.658L27.7939 13.6515Z" fill="#2873B9"/>
<path d="M27.7939 13.6515L38.4101 14.658L29.121 18.1806L27.7939 13.6515Z" fill="#E31E24"/>
<path d="M71.3193 28.7483H75.5658V27.616H72.5136V25.8547H75.1677V24.5967H72.5136V22.9612H75.5658V21.8289H71.3193V28.7483ZM83.1298 21.8289H81.5374L79.8122 24.3451L77.9544 21.8289H76.4947L78.8833 25.2257L76.362 28.7483H77.8217L79.8122 26.1063L81.6701 28.7483H83.1298L80.6084 25.2257L83.1298 21.8289ZM85.5184 28.7483V26.2321C85.9165 26.2321 86.3146 26.2321 86.58 26.2321C88.3051 26.2321 89.234 25.2257 89.234 23.9676C89.234 22.8354 88.5705 21.8289 86.3146 21.8289C85.9165 21.8289 84.7222 21.8289 84.3241 21.8289V28.7483H85.5184ZM86.4473 22.9612C87.3762 22.9612 87.907 23.2128 87.907 23.9676C87.907 24.7225 87.2435 25.0999 86.4473 25.0999C86.1819 25.0999 85.9165 25.0999 85.5184 25.0999V22.9612C85.9165 22.9612 86.1819 22.9612 86.4473 22.9612ZM90.163 25.2257C90.163 27.4902 91.7554 28.8741 94.0113 28.8741C96.1345 28.8741 97.7269 27.3644 97.7269 25.2257C97.7269 23.087 96.1345 21.7031 94.0113 21.7031C91.7554 21.7031 90.163 23.2128 90.163 25.2257ZM91.49 25.2257C91.49 23.8418 92.5516 22.8354 94.0113 22.8354C95.3383 22.8354 96.3999 23.8418 96.3999 25.2257C96.3999 26.6096 95.471 27.7418 94.0113 27.7418C92.5516 27.7418 91.49 26.6096 91.49 25.2257ZM100.514 28.7483V26.1063H101.443L103.433 28.7483H105.026L102.77 25.8547C103.3 25.7289 104.229 25.0999 104.229 23.9676C104.229 22.7096 103.566 21.8289 101.443 21.8289C101.31 21.8289 99.7175 21.8289 99.3194 21.8289V28.7483H100.514ZM101.443 22.9612C102.504 22.9612 102.77 23.3386 102.77 23.9676C102.77 24.5967 102.106 24.9741 101.443 24.9741H100.514V22.9612C100.912 22.9612 101.177 22.9612 101.443 22.9612ZM105.291 22.9612H107.68V28.7483H108.874V22.9612H111.262V21.8289H105.291V22.9612ZM119.755 27.1128C119.225 27.4902 118.561 27.7418 118.03 27.7418C116.438 27.7418 115.509 26.7354 115.509 25.2257C115.509 23.716 116.438 22.8354 117.898 22.8354C118.561 22.8354 119.092 22.9612 119.49 23.3386L120.021 22.3322C119.623 21.9547 118.826 21.7031 117.898 21.7031C115.376 21.7031 114.049 23.2128 114.049 25.2257C114.049 27.4902 115.642 28.8741 117.898 28.8741C118.826 28.8741 119.755 28.4967 120.286 28.1192L119.755 27.1128ZM121.481 28.7483H125.86V27.616H122.808V25.8547H125.462V24.5967H122.808V22.9612H125.727V21.8289H121.481V28.7483ZM133.822 28.7483V21.8289H132.627V26.6096L128.514 21.8289H127.585V28.7483H128.779V23.9676L132.76 28.7483H133.822ZM134.883 22.9612H137.272V28.7483H138.599V22.9612H140.988V21.8289H134.883V22.9612ZM142.049 28.7483H146.428V27.616H143.376V25.8547H146.03V24.5967H143.376V22.9612H146.296V21.8289H142.049V28.7483ZM149.348 28.7483V26.1063H150.277L152.267 28.7483H153.86L151.604 25.8547C152.135 25.7289 152.931 25.0999 152.931 23.9676C152.931 22.7096 152.267 21.8289 150.277 21.8289C150.144 21.8289 148.552 21.8289 148.154 21.8289V28.7483H149.348ZM150.277 22.9612C151.338 22.9612 151.604 23.3386 151.604 23.9676C151.604 24.5967 150.94 24.9741 150.277 24.9741H149.348V22.9612C149.746 22.9612 150.011 22.9612 150.277 22.9612Z" fill="#0F385F"/>
<path d="M72.5136 15.287V12.645H73.4426L75.4331 15.287H77.0255L74.7696 12.3934C75.3004 12.2676 76.0966 11.6386 76.0966 10.3805C76.0966 9.24827 75.4331 8.24182 73.4426 8.24182C73.3099 8.24182 71.7174 8.36763 71.3193 8.36763V15.287H72.5136ZM73.4426 9.37408C74.5042 9.37408 74.7696 9.8773 74.7696 10.5063C74.7696 11.1354 74.1061 11.5128 73.4426 11.5128H72.5136V9.49989C72.9118 9.49989 73.1772 9.37408 73.4426 9.37408ZM84.0587 8.36763H82.8644V12.1418C82.8644 13.5257 82.3336 14.2805 81.1392 14.2805C79.9449 14.2805 79.2814 13.3999 79.2814 12.016V8.36763H78.0871V12.2676C78.0871 14.4063 79.2814 15.4128 81.1392 15.4128C82.7317 15.4128 84.0587 14.5321 84.0587 12.3934V8.36763ZM88.9686 13.3999C88.9686 13.9031 88.4378 14.2805 87.907 14.2805C87.3762 14.2805 86.58 14.0289 86.1819 13.3999L85.5184 14.2805C85.7838 15.0354 86.9781 15.4128 87.907 15.4128C89.234 15.4128 90.2956 14.5321 90.2956 13.3999C90.2956 11.1354 86.9781 11.5128 86.9781 10.1289C86.9781 9.62569 87.3762 9.37408 88.0397 9.37408C88.5705 9.37408 88.9686 9.49989 89.3667 9.8773L90.0302 8.99666C89.6321 8.49343 88.8359 8.24182 87.907 8.24182C86.4473 8.24182 85.6511 9.12247 85.6511 10.1289C85.6511 12.3934 88.9686 12.016 88.9686 13.3999ZM94.8075 13.3999C94.8075 13.9031 94.2767 14.2805 93.7459 14.2805C93.0824 14.2805 92.4189 14.0289 92.0208 13.3999L91.2245 14.2805C91.6226 15.0354 92.6843 15.4128 93.6132 15.4128C95.0729 15.4128 96.1345 14.5321 96.1345 13.3999C96.1345 11.1354 92.817 11.5128 92.817 10.1289C92.817 9.62569 93.2151 9.37408 93.8786 9.37408C94.4094 9.37408 94.8075 9.49989 95.0729 9.8773L95.8691 8.99666C95.3383 8.49343 94.6748 8.24182 93.7459 8.24182C92.2862 8.24182 91.4899 9.12247 91.4899 10.1289C91.4899 12.3934 94.8075 12.016 94.8075 13.3999ZM97.7269 15.287H99.0539V8.36763H97.7269V15.287ZM100.248 15.287H101.575L102.371 13.5257H105.424L106.22 15.287H107.68L104.495 8.24182H103.433L100.248 15.287ZM103.964 9.8773L105.025 12.3934H102.902L103.964 9.8773ZM114.978 15.287V8.36763H113.784V13.1483L109.803 8.36763H108.741V15.287H109.935V10.5063L113.916 15.287H114.978Z" fill="#0F385F"/>
</g>
<defs>
<clipPath id="clip0_407:530">
<rect width="168" height="39" fill="white"/>
</clipPath>
</defs>
</svg>
