<svg width="354" height="45" viewBox="0 0 354 45" fill="none" xmlns="http://www.w3.org/2000/svg">
<g opacity="0.85">
<path d="M37.1977 0.00634473L32.7656 1.66831L31.9775 0L37.1977 0.00634473Z" fill="#1B75BB"/>
<path d="M31.9707 0L32.7651 1.66831L28.9697 3.08289L31.9707 0Z" fill="#EC1C24"/>
<path d="M50.6332 0.393341L54.2709 5.51879L40.6152 4.27549L50.6332 0.393341Z" fill="#1B75BB"/>
<path d="M73.0324 0.00640869L67.6105 2.15681L64.7041 0.00640869H73.0324Z" fill="#1B75BB"/>
<path d="M28.9686 8.6713L24.6437 13.8792L19.2344 13.2956L28.9686 8.6713Z" fill="#1B75BB"/>
<path d="M24.6437 13.8729L19.2344 20.2924V13.2956L24.6437 13.8729Z" fill="#EC1C24"/>
<path d="M73.1133 0.00640869L70.9067 4.58632L67.6094 2.15681L73.0313 0.00640869H73.1133Z" fill="#EC1C24"/>
<path d="M8.55398 24.4536L8.10635 29.6678L0.0175781 34.0765L8.55398 24.4536Z" fill="#1B75BB"/>
<path d="M8.10768 29.6683L7.50244 35.5676L0 34.096L8.10768 29.6683Z" fill="#EC1C24"/>
<path d="M57.139 10.2446L64.7928 19.601L52.0449 18.2436L57.139 10.2446Z" fill="#1B75BB"/>
<path d="M64.791 19.6008L46.2051 27.3968L52.0431 18.2433L64.791 19.6008Z" fill="#EC1C24"/>
<path d="M37.1297 30.7655L19.168 38.3395V26.674L37.1297 30.7655Z" fill="#EC1C24"/>
<path d="M59.113 34.1909L53.8613 45L51.0684 37.5402L59.113 34.1909Z" fill="#1B75BB"/>
<path d="M51.0676 37.5399L53.8605 44.9997L40.3057 42.2276L51.0676 37.5399Z" fill="#EC1C24"/>
<path d="M31.668 14.875L42.2281 10.7265L45.1282 16.2579L31.668 14.875Z" fill="#1B75BB"/>
<path d="M31.668 14.8749L45.1282 16.2578L33.3387 21.0407L31.668 14.8749Z" fill="#EC1C24"/>
<path d="M86.6709 35.2988H92.2905V33.7391H88.3505V31.28H91.7535V29.7202H88.3505V27.3554H92.1531V25.7957H86.6959V35.2988H86.6709ZM101.875 25.7957H99.9144L97.6354 29.2296L95.3126 25.7957H93.3707L96.5302 30.4498L93.2271 35.2988H95.1627L97.5917 31.7265L100.033 35.2988H101.975L98.6968 30.4309L101.875 25.7768V25.7957ZM105.103 35.2988V31.8649C105.503 31.9026 106.046 31.9026 106.352 31.9026C108.606 31.9026 109.805 30.4372 109.805 28.8208C109.805 27.2045 108.925 25.7643 106.152 25.7643C105.49 25.7643 103.992 25.7957 103.467 25.7957V35.2988H105.103ZM106.29 27.3303C107.42 27.3303 108.025 27.8146 108.025 28.8083C108.025 29.802 107.257 30.3429 106.271 30.3429C105.881 30.3414 105.491 30.3183 105.103 30.2737V27.3554C105.547 27.3554 105.952 27.3554 106.29 27.3554V27.3303ZM110.991 30.5441C110.963 31.1998 111.07 31.8543 111.307 32.4657C111.544 33.0771 111.905 33.632 112.367 34.0949C112.829 34.5578 113.381 34.9185 113.99 35.154C114.598 35.3894 115.248 35.4945 115.899 35.4623C116.547 35.4857 117.193 35.3752 117.797 35.1376C118.402 34.9 118.951 34.5404 119.412 34.0808C119.873 33.6212 120.236 33.0715 120.478 32.4654C120.72 31.8593 120.836 31.2097 120.819 30.5567C120.843 29.9019 120.732 29.2493 120.493 28.6401C120.253 28.0309 119.891 27.4785 119.428 27.0179C118.966 26.5572 118.413 26.1984 117.805 25.9642C117.198 25.73 116.549 25.6255 115.899 25.6573C115.252 25.6348 114.608 25.7458 114.005 25.9835C113.402 26.2212 112.854 26.5805 112.395 27.0394C111.935 27.4983 111.573 28.047 111.332 28.6519C111.091 29.2568 110.975 29.905 110.991 30.5567V30.5441ZM112.746 30.5441C112.727 30.1139 112.795 29.6842 112.945 29.2811C113.095 28.8779 113.325 28.5096 113.621 28.1984C113.916 27.8872 114.271 27.6395 114.665 27.4703C115.058 27.3011 115.481 27.2139 115.908 27.2139C116.336 27.2139 116.759 27.3011 117.152 27.4703C117.545 27.6395 117.901 27.8872 118.196 28.1984C118.492 28.5096 118.721 28.8779 118.872 29.2811C119.022 29.6842 119.09 30.1139 119.071 30.5441C119.071 32.4309 117.885 33.89 115.899 33.89C115.475 33.8812 115.056 33.7871 114.668 33.6133C114.28 33.4395 113.931 33.1895 113.64 32.8779C113.349 32.5663 113.123 32.1993 112.975 31.7986C112.827 31.3979 112.76 30.9714 112.777 30.5441H112.746ZM124.391 35.2988V31.7391H125.552L128.156 35.2988H130.167L127.213 31.4183C127.765 31.221 128.239 30.8505 128.566 30.3614C128.893 29.8724 129.056 29.2905 129.03 28.7013C129.03 27.0598 128.181 25.7643 125.608 25.7643L122.736 25.7957V35.2988H124.391ZM125.515 27.3303C126.864 27.3303 127.269 27.9592 127.269 28.7139C127.269 29.6888 126.42 30.1793 125.459 30.1793H124.391V27.3554C124.84 27.3554 125.215 27.3554 125.527 27.3554L125.515 27.3303ZM130.423 27.3303H133.482V35.2988H135.143V27.3554H138.203V25.7957H130.435V27.3554L130.423 27.3303ZM149.055 33.1038C148.413 33.5983 147.627 33.8658 146.819 33.8648C146.38 33.8862 145.941 33.8138 145.532 33.6524C145.122 33.491 144.751 33.2443 144.443 32.9284C144.134 32.6125 143.896 32.2346 143.743 31.8193C143.589 31.4041 143.525 30.961 143.554 30.5189C143.554 28.4561 144.877 27.1793 146.626 27.1793C147.384 27.1538 148.13 27.3742 148.755 27.8083L149.498 26.5504C148.688 25.8898 147.667 25.5479 146.626 25.5882C143.504 25.5882 141.799 27.758 141.799 30.4875C141.761 31.1418 141.861 31.7967 142.092 32.4093C142.323 33.0219 142.681 33.5782 143.141 34.0417C143.601 34.5051 144.153 34.8651 144.761 35.0981C145.37 35.331 146.02 35.4316 146.669 35.3931C147.774 35.4359 148.853 35.0511 149.685 34.3177L149.061 33.0598L149.055 33.1038ZM151.334 35.2736H156.953V33.7391H152.988V31.28H156.391V29.7202H152.988V27.3554H156.791V25.7957H151.334V35.2988V35.2736ZM167.15 35.2736V25.7957H165.595V32.4057L160.419 25.7957H159.095V35.2988H160.65V28.7139L165.839 35.2988L167.15 35.2736ZM168.598 27.3554H171.658V35.2988H173.319V27.3554H176.378V25.7957H168.598V27.3554ZM177.821 35.2988H183.44V33.7391H179.5V31.28H182.897V29.7202H179.5V27.3554H183.303V25.7957H177.846V35.2988H177.821ZM187.23 35.2988V31.7391H188.392L190.989 35.2988H193L190.047 31.4183C190.599 31.2212 191.074 30.851 191.402 30.362C191.73 29.8731 191.894 29.291 191.87 28.7013C191.87 27.0598 191.021 25.7643 188.442 25.7643L185.57 25.7957V35.2988H187.23ZM188.361 27.3303C189.709 27.3303 190.115 27.9592 190.115 28.7139C190.115 29.6888 189.266 30.1793 188.311 30.1793H187.23V27.3554C187.674 27.3554 188.055 27.3554 188.361 27.3554V27.3303Z" fill="#002E5E"/>
<path d="M88.326 16.8648V13.3114H89.4874L92.0911 16.8648H94.1017L91.1732 12.9844C91.7255 12.7879 92.2003 12.4176 92.5275 11.9283C92.8547 11.4391 93.017 10.8567 92.9902 10.2674C92.9902 8.6259 92.141 7.33031 89.5685 7.33031L86.6963 7.36175V16.8648H88.326ZM89.4624 8.89633C90.8111 8.89633 91.2107 9.52526 91.2107 10.28C91.2107 11.2611 90.3615 11.7454 89.4062 11.7454H88.326V8.92149C88.7755 8.92149 89.1502 8.92149 89.4624 8.92149V8.89633ZM103.199 7.36175H101.551V12.5881C101.551 14.4372 100.876 15.456 99.4465 15.456C97.8168 15.456 97.0925 14.2611 97.0925 12.4812V7.36175H95.4316V12.8208C95.4316 15.607 97.105 17.0032 99.4465 17.0032C101.432 17.0032 103.193 15.8208 103.193 12.9152V7.36175H103.199ZM109.481 14.3428C109.481 15.0598 108.887 15.456 108.107 15.456C107.688 15.4495 107.276 15.3497 106.901 15.1637C106.525 14.9778 106.195 14.7103 105.934 14.3806L104.991 15.5252C105.447 16.4875 106.864 17.0158 108.076 17.0158C109.843 17.0158 111.235 15.9277 111.235 14.3303C111.235 11.1856 106.958 11.8146 106.958 9.82086C106.958 9.19193 107.458 8.77055 108.282 8.77055C108.587 8.76801 108.889 8.82996 109.168 8.95238C109.448 9.0748 109.699 9.25497 109.905 9.48124L110.792 8.22338C110.435 7.87763 110.011 7.60894 109.547 7.43375C109.084 7.25855 108.589 7.18055 108.094 7.20452C106.265 7.20452 105.154 8.39948 105.154 9.82715C105.154 12.9215 109.431 12.4624 109.431 14.3366L109.481 14.3428ZM116.936 14.3428C116.936 15.0598 116.343 15.456 115.562 15.456C115.144 15.4495 114.732 15.3497 114.356 15.1637C113.98 14.9778 113.65 14.7103 113.389 14.3806L112.403 15.5252C112.859 16.4875 114.276 17.0158 115.487 17.0158C117.254 17.0158 118.647 15.9277 118.647 14.3303C118.647 11.1856 114.37 11.8146 114.37 9.82086C114.37 9.19193 114.869 8.77055 115.693 8.77055C116.012 8.75622 116.33 8.81244 116.624 8.93523C116.919 9.05803 117.183 9.24441 117.398 9.48124L118.285 8.22338C117.928 7.87763 117.504 7.60894 117.04 7.43375C116.576 7.25855 116.082 7.18055 115.587 7.20452C113.758 7.20452 112.653 8.39948 112.653 9.82715C112.653 12.9215 116.923 12.4624 116.923 14.3366L116.936 14.3428ZM120.807 16.8586H122.462V7.36175H120.807V16.8648V16.8586ZM124.067 16.8586H125.74L126.727 14.4309H130.754L131.74 16.8586H133.508L129.518 7.32402H128.013L124.023 16.8586H124.067ZM128.75 9.48753L130.123 12.8649H127.357L128.75 9.48753ZM142.986 16.8586V7.36175H141.431V13.9718L136.242 7.36175H134.881V16.8648H136.43V10.3051L141.618 16.89L142.986 16.8586Z" fill="#002E5E"/>
</g>
<path d="M253.18 16H248.08V7.59999H253.06V9.39999H250V10.876H252.7V12.676H250V14.2H253.18V16Z" fill="black"/>
<path d="M259.626 7.59999H261.882L259.194 11.716L261.99 16H259.734L257.934 13.18L256.158 16H253.902L256.698 11.716L254.034 7.59999H256.29L257.994 10.3L259.626 7.59999Z" fill="black"/>
<path d="M265.108 16H263.188V7.59999H265.108V16Z" fill="black"/>
<path d="M268.245 16H266.313L269.805 7.59999H271.521L275.013 16H272.961L272.265 14.236H268.941L268.245 16ZM271.545 12.436L270.609 10.06L269.661 12.436H271.545Z" fill="black"/>
<path d="M278.008 13.06V16H276.088V7.59999C276.544 7.59999 277.048 7.59599 277.6 7.58799C278.152 7.57999 278.6 7.57599 278.944 7.57599C281.016 7.57599 282.052 8.47199 282.052 10.264C282.052 11.416 281.58 12.224 280.636 12.688L283.084 16H280.756L278.716 13.06H278.008ZM278.848 9.37599C278.84 9.37599 278.804 9.37999 278.74 9.38799C278.676 9.38799 278.576 9.39199 278.44 9.39999C278.304 9.39999 278.16 9.39999 278.008 9.39999V11.26H278.704C279.576 11.26 280.012 10.936 280.012 10.288C280.012 9.67999 279.624 9.37599 278.848 9.37599Z" fill="black"/>
<path d="M252.12 34H247.97V27H252.02V28.15H249.2V29.89H251.72V31.04H249.2V32.85H252.12V34Z" fill="#0054A5"/>
<path d="M257.812 27H259.252L256.892 30.43L259.342 34H257.902L256.092 31.37L254.292 34H252.852L255.302 30.43L252.962 27H254.402L256.122 29.53L257.812 27Z" fill="#0054A5"/>
<path d="M261.791 34H260.561V27H261.791V34Z" fill="#0054A5"/>
<path d="M265.108 34H263.878V27H265.118L267.508 30.27L269.788 27H270.948V34H269.728V28.94L267.518 32.05H267.338L265.108 28.97V34Z" fill="#0054A5"/>
<path d="M272.892 33.99V27.02C273.612 26.9867 274.285 26.97 274.912 26.97C275.685 26.97 276.262 27.1233 276.642 27.43C277.022 27.7367 277.212 28.16 277.212 28.7C277.212 29.4533 276.878 29.9833 276.212 30.29V30.31C276.592 30.41 276.892 30.6 277.112 30.88C277.332 31.1533 277.442 31.5067 277.442 31.94C277.442 32.62 277.208 33.14 276.742 33.5C276.275 33.86 275.642 34.04 274.842 34.04C274.042 34.04 273.392 34.0233 272.892 33.99ZM274.992 30.99H274.122V32.84C274.435 32.8733 274.705 32.89 274.932 32.89C275.785 32.89 276.212 32.5533 276.212 31.88C276.212 31.5867 276.105 31.3667 275.892 31.22C275.678 31.0667 275.378 30.99 274.992 30.99ZM274.892 28.12C274.598 28.12 274.342 28.13 274.122 28.15V29.92H274.952C275.265 29.92 275.515 29.84 275.702 29.68C275.895 29.52 275.992 29.29 275.992 28.99C275.992 28.71 275.895 28.4967 275.702 28.35C275.508 28.1967 275.238 28.12 274.892 28.12Z" fill="#0054A5"/>
<path d="M279.403 34H278.163L281.123 26.98H282.203L285.163 34H283.853L283.123 32.21H280.133L279.403 34ZM282.653 31.06L281.633 28.57L280.603 31.06H282.653Z" fill="#0054A5"/>
<path d="M292.192 27V34H291.212L287.362 29.15V34H286.212V27H287.192L291.042 31.87V27H292.192Z" fill="#0054A5"/>
<path d="M295.362 34H294.132V27H295.362V30.32L298.122 27H299.602L296.722 30.26L299.782 34H298.222L295.362 30.39V34Z" fill="#0054A5"/>
<path d="M302.45 30.5C302.45 29.48 302.79 28.6233 303.47 27.93C304.163 27.2367 305.036 26.89 306.09 26.89C307.143 26.89 308.013 27.2233 308.7 27.89C309.393 28.5633 309.74 29.4333 309.74 30.5C309.74 31.5467 309.393 32.41 308.7 33.09C308.006 33.77 307.136 34.11 306.09 34.11C305.036 34.11 304.166 33.7767 303.48 33.11C302.793 32.4433 302.45 31.5733 302.45 30.5ZM303.75 30.5C303.75 31.2067 303.973 31.7933 304.42 32.26C304.866 32.7267 305.423 32.96 306.09 32.96C306.81 32.96 307.38 32.7267 307.8 32.26C308.226 31.7933 308.44 31.2067 308.44 30.5C308.44 29.7867 308.213 29.1967 307.76 28.73C307.306 28.27 306.75 28.04 306.09 28.04C305.416 28.04 304.856 28.27 304.41 28.73C303.97 29.19 303.75 29.78 303.75 30.5Z" fill="#0054A5"/>
<path d="M312.393 34H311.163V27H315.163V28.15H312.393V30.13H314.863V31.28H312.393V34Z" fill="#0054A5"/>
<path d="M319.883 31.38V34H318.653V27C319 27 319.377 26.9967 319.783 26.99C320.19 26.9833 320.523 26.98 320.783 26.98C322.477 26.98 323.323 27.7 323.323 29.14C323.323 29.6733 323.187 30.1133 322.913 30.46C322.64 30.7933 322.327 31.02 321.973 31.14L324.163 34H322.673L320.743 31.38H319.883ZM320.723 28.13C320.69 28.13 320.637 28.1333 320.563 28.14C320.49 28.14 320.387 28.1433 320.253 28.15C320.12 28.15 319.997 28.15 319.883 28.15V30.23H320.683C321.077 30.23 321.397 30.1333 321.643 29.94C321.897 29.7467 322.023 29.4833 322.023 29.15C322.023 28.47 321.59 28.13 320.723 28.13Z" fill="#0054A5"/>
<path d="M329.675 27H330.895V31.1C330.895 32.1067 330.632 32.86 330.105 33.36C329.572 33.86 328.909 34.11 328.115 34.11C327.215 34.11 326.492 33.8467 325.945 33.32C325.405 32.7933 325.135 32.03 325.135 31.03V27H326.365V30.77C326.365 31.4633 326.512 32.0033 326.805 32.39C327.105 32.77 327.542 32.96 328.115 32.96C329.155 32.96 329.675 32.2567 329.675 30.85V27Z" fill="#0054A5"/>
<path d="M335.555 32.14C335.555 31.9267 335.475 31.74 335.315 31.58C335.162 31.4133 334.968 31.28 334.735 31.18C334.502 31.0733 334.245 30.9533 333.965 30.82C333.692 30.68 333.438 30.5367 333.205 30.39C332.972 30.2367 332.775 30.0267 332.615 29.76C332.462 29.4867 332.385 29.1733 332.385 28.82C332.385 28.28 332.582 27.8233 332.975 27.45C333.382 27.0767 333.912 26.89 334.565 26.89C335.452 26.89 336.118 27.14 336.565 27.64L335.905 28.56C335.552 28.2133 335.138 28.04 334.665 28.04C334.365 28.04 334.125 28.11 333.945 28.25C333.772 28.39 333.685 28.5767 333.685 28.81C333.685 28.93 333.708 29.0433 333.755 29.15C333.802 29.25 333.852 29.3333 333.905 29.4C333.965 29.4667 334.058 29.54 334.185 29.62C334.318 29.7 334.422 29.76 334.495 29.8C334.575 29.8333 334.705 29.89 334.885 29.97C335.065 30.05 335.192 30.1067 335.265 30.14C335.558 30.2733 335.815 30.4133 336.035 30.56C336.282 30.7067 336.478 30.9167 336.625 31.19C336.778 31.4633 336.855 31.7767 336.855 32.13C336.855 32.7167 336.632 33.1933 336.185 33.56C335.738 33.9267 335.182 34.11 334.515 34.11C334.048 34.11 333.585 34.0133 333.125 33.82C332.685 33.62 332.385 33.35 332.225 33.01L332.925 32.17C333.112 32.4167 333.352 32.61 333.645 32.75C333.945 32.89 334.242 32.96 334.535 32.96C334.842 32.96 335.088 32.8867 335.275 32.74C335.462 32.5933 335.555 32.3933 335.555 32.14Z" fill="#0054A5"/>
<path d="M341.082 32.14C341.082 31.9267 341.002 31.74 340.842 31.58C340.689 31.4133 340.496 31.28 340.262 31.18C340.029 31.0733 339.772 30.9533 339.492 30.82C339.219 30.68 338.966 30.5367 338.732 30.39C338.499 30.2367 338.302 30.0267 338.142 29.76C337.989 29.4867 337.912 29.1733 337.912 28.82C337.912 28.28 338.109 27.8233 338.502 27.45C338.909 27.0767 339.439 26.89 340.092 26.89C340.979 26.89 341.646 27.14 342.092 27.64L341.432 28.56C341.079 28.2133 340.666 28.04 340.192 28.04C339.892 28.04 339.652 28.11 339.472 28.25C339.299 28.39 339.212 28.5767 339.212 28.81C339.212 28.93 339.236 29.0433 339.282 29.15C339.329 29.25 339.379 29.3333 339.432 29.4C339.492 29.4667 339.586 29.54 339.712 29.62C339.846 29.7 339.949 29.76 340.022 29.8C340.102 29.8333 340.232 29.89 340.412 29.97C340.592 30.05 340.719 30.1067 340.792 30.14C341.086 30.2733 341.342 30.4133 341.562 30.56C341.809 30.7067 342.006 30.9167 342.152 31.19C342.306 31.4633 342.382 31.7767 342.382 32.13C342.382 32.7167 342.159 33.1933 341.712 33.56C341.266 33.9267 340.709 34.11 340.042 34.11C339.576 34.11 339.112 34.0133 338.652 33.82C338.212 33.62 337.912 33.35 337.752 33.01L338.452 32.17C338.639 32.4167 338.879 32.61 339.172 32.75C339.472 32.89 339.769 32.96 340.062 32.96C340.369 32.96 340.616 32.8867 340.802 32.74C340.989 32.5933 341.082 32.3933 341.082 32.14Z" fill="#0054A5"/>
<path d="M345.18 34H343.95V27H345.18V34Z" fill="#0054A5"/>
<path d="M347.607 34H346.367L349.327 26.98H350.407L353.367 34H352.057L351.327 32.21H348.337L347.607 34ZM350.857 31.06L349.837 28.57L348.807 31.06H350.857Z" fill="#0054A5"/>
<path d="M239.905 7.15305L229.068 11.3999L223.267 7.15305H239.905Z" fill="#C64A5F"/>
<path d="M240.074 7.15305L235.652 16.2019L229.067 11.3999L239.905 7.15305H240.074Z" fill="#004F87"/>
<path d="M239.905 26.2486L229.068 30.4893L223.267 26.2486H239.905Z" fill="#0054A5"/>
<path d="M240.074 26.2486L235.652 35.2974L229.067 30.4893L239.905 26.2486H240.074Z" fill="#0090D0"/>
<path d="M210.216 39.3073H209.777V21.2658L207.015 19.0021V0.723572H207.459V18.7963L210.216 21.06V39.3073Z" fill="#002E5E"/>
</svg>
