<svg width="156" height="32" viewBox="0 0 156 32" fill="none" xmlns="http://www.w3.org/2000/svg">
<path d="M108.454 5.41299C108.513 6.11523 109.118 6.58993 110.112 6.58993C111.023 6.58993 111.702 6.11523 111.73 5.41299H110.775C110.74 5.77 110.485 5.89161 110.112 5.89161C109.739 5.89161 109.475 5.73469 109.409 5.41299H108.454ZM108.431 12.6158L111.471 8.50048V12.6119H112.492V6.81747H111.596L108.553 10.9406V6.81747H107.535V12.6119L108.431 12.6158ZM101.864 12.6158L104.908 8.50048V12.6119H105.925V6.81747H105.034L101.99 10.9406V6.81747H100.973V12.6119L101.864 12.6158ZM95.3998 12.6158H96.4209V9.62249L98.7773 12.6119H100.073L97.5363 9.51656L99.9241 6.81747H98.6948L96.4091 9.56364V6.81747H95.388L95.3998 12.6158ZM94.0016 11.2976C93.6054 11.5988 93.121 11.7615 92.6231 11.7606C92.3541 11.7714 92.0859 11.7259 91.8356 11.627C91.5853 11.528 91.3585 11.3778 91.1698 11.186C90.9812 10.9942 90.8348 10.7651 90.7401 10.5134C90.6454 10.2617 90.6046 9.99293 90.6201 9.72448C90.6201 8.46909 91.4331 7.6884 92.5092 7.6884C92.9759 7.67614 93.4343 7.81364 93.817 8.08071L94.2765 7.32747C93.777 6.92655 93.1495 6.71901 92.5092 6.74293C90.5966 6.74293 89.5401 8.06501 89.5401 9.72841C89.5173 10.1269 89.5791 10.5258 89.7215 10.8988C89.8638 11.2718 90.0834 11.6105 90.366 11.8928C90.6486 12.1751 90.9877 12.3945 91.3611 12.5367C91.7345 12.6788 92.1338 12.7406 92.5328 12.7178C93.2131 12.7447 93.8778 12.5102 94.3904 12.0627L94.0016 11.2976ZM84.3285 5.41299C84.3874 6.11523 84.9922 6.58993 85.9858 6.58993C86.897 6.58993 87.5568 6.11523 87.6039 5.41299H86.6496C86.6181 5.77 86.3589 5.89161 85.9858 5.89161C85.6127 5.89161 85.3496 5.73469 85.2828 5.41299H84.3285ZM84.3049 12.6158L87.3447 8.50048V12.6119H88.3658V6.81747H87.4704L84.4306 10.9406V6.81747H83.4095V12.6119L84.3049 12.6158ZM77.7423 12.6158L80.7821 8.50048V12.6119H81.7993V6.81747H80.9038L77.8719 10.9406V6.81747H76.8547V12.6119L77.7423 12.6158ZM75.4448 11.2976C75.05 11.5988 74.5669 11.7615 74.0702 11.7606C73.8012 11.7719 73.5329 11.727 73.2824 11.6285C73.0319 11.53 72.8049 11.3802 72.6158 11.1888C72.4268 10.9974 72.2799 10.7686 72.1848 10.517C72.0896 10.2655 72.0482 9.99687 72.0633 9.72841C72.0633 8.47301 72.8762 7.69232 73.9523 7.69232C74.4202 7.68087 74.8795 7.81826 75.2641 8.08463L75.7197 7.33139C75.2205 6.92985 74.5928 6.72222 73.9523 6.74685C72.0397 6.74685 70.9872 8.06894 70.9872 9.73233C70.9638 10.131 71.0251 10.5301 71.1672 10.9034C71.3093 11.2767 71.529 11.6157 71.8117 11.8981C72.0944 12.1805 72.4338 12.3999 72.8075 12.5419C73.1812 12.6838 73.5807 12.7451 73.9798 12.7217C74.659 12.7488 75.3226 12.5143 75.8336 12.0666L75.4448 11.2976ZM70.0171 11.2976C69.6223 11.5988 69.1392 11.7615 68.6425 11.7606C68.3736 11.7719 68.1052 11.727 67.8548 11.6285C67.6043 11.53 67.3772 11.3802 67.1882 11.1888C66.9991 10.9974 66.8523 10.7686 66.7572 10.517C66.662 10.2655 66.6206 9.99687 66.6356 9.72841C66.6356 8.47301 67.4486 7.69232 68.5247 7.69232C68.9914 7.68007 69.4498 7.81756 69.8325 8.08463L70.292 7.33139C69.7925 6.93048 69.165 6.72294 68.5247 6.74685C66.6121 6.74685 65.5595 8.06894 65.5595 9.73233C65.5362 10.1307 65.5974 10.5294 65.7393 10.9024C65.8812 11.2754 66.1005 11.6143 66.3827 11.8966C66.665 12.1789 67.0039 12.3984 67.3771 12.5406C67.7503 12.6828 68.1495 12.7446 68.5483 12.7217C69.2326 12.7442 69.8992 12.5026 70.4098 12.047L70.0171 11.2976ZM59.8491 9.72841C59.8073 9.44939 59.8263 9.16465 59.9047 8.89363C59.9832 8.6226 60.1192 8.37166 60.3035 8.15792C60.4879 7.94419 60.7162 7.77269 60.9729 7.65513C61.2297 7.53757 61.5088 7.47671 61.7912 7.47671C62.0736 7.47671 62.3527 7.53757 62.6095 7.65513C62.8662 7.77269 63.0946 7.94419 63.2789 8.15792C63.4633 8.37166 63.5993 8.6226 63.6777 8.89363C63.7561 9.16465 63.7751 9.44939 63.7333 9.72841C63.7333 10.874 63.0067 11.7645 61.7696 11.7645C61.509 11.759 61.2521 11.7016 61.0139 11.5959C60.7757 11.4901 60.5609 11.3381 60.3821 11.1485C60.2034 10.959 60.0642 10.7358 59.9727 10.492C59.8812 10.2482 59.8392 9.98861 59.8491 9.72841ZM58.7691 9.72841C58.7552 10.1247 58.8235 10.5195 58.9697 10.8882C59.1158 11.2568 59.3368 11.5913 59.6185 11.8705C59.9003 12.1498 60.2369 12.3678 60.6071 12.5109C60.9772 12.654 61.373 12.7191 61.7696 12.7021C62.168 12.7182 62.5654 12.6528 62.9376 12.51C63.3098 12.3671 63.6487 12.1497 63.9338 11.8713C64.2188 11.5928 64.4439 11.2591 64.5951 10.8906C64.7464 10.5221 64.8206 10.1266 64.8133 9.72841C64.831 9.32623 64.7641 8.92482 64.6168 8.55008C64.4696 8.17534 64.2453 7.83561 63.9585 7.55281C63.6717 7.27 63.3287 7.05041 62.9517 6.90821C62.5747 6.76601 62.172 6.70436 61.7696 6.72723C61.372 6.71525 60.9761 6.78472 60.6064 6.93136C60.2367 7.07799 59.9009 7.29869 59.6198 7.57985C59.3387 7.86102 59.1182 8.19669 58.9719 8.56621C58.8256 8.93572 58.7566 9.33124 58.7691 9.72841ZM55.8785 7.76686C56.5737 7.76686 56.9468 8.06501 56.9468 8.66917C56.9468 9.27333 56.4755 9.60679 55.8707 9.60679C55.6292 9.60587 55.3879 9.59146 55.148 9.56364V7.76686C55.423 7.76686 55.6704 7.74724 55.8785 7.74724V7.76686ZM55.148 12.608V10.513C55.3955 10.5366 55.7293 10.5366 55.9021 10.5366C57.2885 10.5366 58.0229 9.6421 58.0229 8.6574C58.0229 7.6727 57.4848 6.79785 55.7804 6.79785H54.1309V12.6119L55.148 12.608Z" fill="#002E5E"/>
<path d="M58.9502 20.921C58.9502 19.1164 57.7405 17.9395 56.036 17.9395C55.3156 17.9142 54.6087 18.1403 54.037 18.5789L54.4297 19.34C54.8223 19.048 55.2991 18.8911 55.7886 18.8928C56.8844 18.8928 57.6777 19.4303 57.878 20.3993H55.2938V21.3526H57.9015C57.8333 21.8243 57.5888 22.2528 57.2173 22.5519C56.8457 22.8511 56.3746 22.9986 55.8986 22.965C55.359 22.9644 54.8346 22.7866 54.4062 22.4589L53.9663 23.3141C54.5346 23.7297 55.2261 23.9424 55.93 23.9183C57.7877 23.9183 58.9619 22.7414 58.9619 20.921H58.9502ZM64.8216 23.8241L62.2727 20.7131L64.6606 18.014H63.4352L61.1456 20.7602V18.014H60.1284V23.8084H61.1456V20.823L63.502 23.8084L64.8216 23.8241ZM66.3572 20.9289C66.3572 19.6696 67.1662 18.8928 68.2463 18.8928C68.7128 18.8819 69.1707 19.0193 69.5541 19.2851L70.0175 18.5279C69.5213 18.1233 68.8941 17.914 68.2541 17.9395C66.3376 17.9395 65.285 19.2655 65.285 20.9289C65.2616 21.3276 65.323 21.7267 65.4651 22.1C65.6072 22.4733 65.8268 22.8123 66.1095 23.0947C66.3922 23.3771 66.7316 23.5965 67.1053 23.7384C67.479 23.8804 67.8786 23.9417 68.2777 23.9183C68.9577 23.9432 69.6217 23.709 70.1353 23.2631L69.7426 22.502C69.3464 22.8032 68.862 22.9658 68.3641 22.965C68.095 22.9764 67.8264 22.9313 67.5759 22.8326C67.3253 22.7339 67.0982 22.5837 66.9094 22.3917C66.7206 22.1998 66.5743 21.9704 66.4798 21.7185C66.3854 21.4665 66.3449 21.1975 66.3611 20.9289H66.3572ZM74.7304 23.8241H75.7515V18.0297H71.125V23.8241H72.1462V18.983H74.7304V23.8241ZM81.89 20.9289C81.89 22.0705 81.1634 22.965 79.9263 22.965C79.6643 22.9615 79.4057 22.9057 79.1657 22.8009C78.9257 22.696 78.7091 22.5443 78.5286 22.3545C78.3482 22.1648 78.2076 21.9409 78.1151 21.6961C78.0226 21.4512 77.9801 21.1904 77.9901 20.9289C77.9483 20.6499 77.9673 20.3651 78.0457 20.0941C78.1241 19.8231 78.2602 19.5721 78.4445 19.3584C78.6288 19.1447 78.8572 18.9732 79.1139 18.8556C79.3707 18.738 79.6498 18.6772 79.9322 18.6772C80.2146 18.6772 80.4937 18.738 80.7505 18.8556C81.0072 18.9732 81.2355 19.1447 81.4199 19.3584C81.6042 19.5721 81.7403 19.8231 81.8187 20.0941C81.8971 20.3651 81.9161 20.6499 81.8743 20.9289H81.89ZM82.9543 20.9289C82.9695 20.5292 82.9013 20.1308 82.7541 19.7588C82.6068 19.3869 82.3837 19.0497 82.0989 18.7685C81.8141 18.4874 81.4739 18.2685 81.0999 18.1258C80.7259 17.983 80.3262 17.9196 79.9263 17.9395C79.5286 17.926 79.1322 17.9939 78.7617 18.139C78.3912 18.2842 78.0544 18.5035 77.7719 18.7835C77.4893 19.0635 77.2672 19.3982 77.1189 19.7672C76.9707 20.1361 76.8997 20.5315 76.9101 20.9289C76.8938 21.3278 76.9608 21.7258 77.107 22.0974C77.2531 22.469 77.4751 22.8062 77.7588 23.0874C78.0426 23.3686 78.3818 23.5877 78.755 23.7308C79.1282 23.8738 79.5271 23.9377 79.9263 23.9183C80.3247 23.9323 80.7218 23.8648 81.0932 23.72C81.4646 23.5752 81.8024 23.3561 82.086 23.0761C82.3695 22.7962 82.5928 22.4613 82.7421 22.0921C82.8915 21.7228 82.9637 21.327 82.9543 20.9289ZM86.9485 19.8696C86.9485 20.513 86.4732 20.8033 85.8684 20.8033C85.6367 20.8033 85.3893 20.8033 85.1497 20.7641V18.983C85.4246 18.983 85.6721 18.983 85.8763 18.983C86.5754 18.983 86.9485 19.2812 86.9485 19.8853V19.8696ZM88.0246 19.8853C88.0246 18.932 87.4865 18.0219 85.7781 18.0219H84.1286V23.8163H85.1497V21.7331C85.3971 21.7567 85.727 21.7567 85.9038 21.7567C87.2862 21.7567 88.0246 20.8622 88.0246 19.8775V19.8853ZM91.3825 18.983H93.2637V18.0297H88.4958V18.983H90.3771V23.8241H91.3982L91.3825 18.983ZM97.8195 23.8241H98.8327V18.0297H97.8195V20.3836H95.1685V18.0297H94.1474V23.8241H95.1685V21.3526H97.8195V23.8241ZM103.149 21.8626C103.149 22.5413 102.756 22.8826 102.006 22.8826C101.806 22.8826 101.641 22.8826 101.46 22.859V20.9603C101.692 20.9367 101.853 20.921 102.022 20.921C102.737 20.921 103.149 21.2427 103.149 21.8626ZM104.229 21.839C104.229 20.7053 103.538 19.9677 102.104 19.9677C101.889 19.9674 101.674 19.9818 101.46 20.0109V18.0297H100.439V23.8241C100.781 23.8241 101.334 23.8241 101.88 23.8241C103.365 23.8241 104.237 23.0395 104.237 21.8273L104.229 21.839ZM104.991 23.7888H106V18.0297H104.991V23.7888ZM111.801 16.5899H110.862C110.831 16.943 110.576 17.0686 110.202 17.0686C109.829 17.0686 109.562 16.9116 109.496 16.5899H108.545C108.6 17.2922 109.205 17.7669 110.202 17.7669C111.114 17.7669 111.793 17.2961 111.817 16.5899H111.801ZM111.561 23.7888H112.579V18.0297H111.683L108.643 22.1529V18.0297H107.622V23.8241H108.506L111.55 19.7127L111.561 23.7888Z" fill="#002E5E"/>
<path d="M121.14 24.8598H122.09V22.8747H121.305V18.0296H120.288V22.8747H117.743V18.0296H116.726V23.828H121.144L121.14 24.8598ZM123.104 23.828H126.54V22.8747H124.121V21.376H126.21V20.4227H124.121V18.9829H126.458V18.0296H123.104V23.828ZM131.54 23.828H132.549V18.0296H131.54V20.3835H128.889V18.0296H127.868V23.828H128.889V21.3525H131.54V23.828ZM136.339 18.9829H138.22V18.0296H133.437V18.9829H135.318V23.828H136.339V18.9829ZM141.924 19.8696C141.924 20.513 141.452 20.8033 140.848 20.8033C140.612 20.8033 140.365 20.8033 140.125 20.764V18.9829C140.4 18.9829 140.647 18.9829 140.855 18.9829C141.551 18.9829 141.924 19.2811 141.924 19.8853V19.8696ZM143 19.8853C143 18.9319 142.462 18.0218 140.753 18.0218H139.104V23.8201H140.125V21.733C140.372 21.7566 140.706 21.7566 140.879 21.7566C142.261 21.7566 143 20.8621 143 19.8774" fill="#002E5E"/>
<path d="M23.1718 2.0038L20.4108 3.03165L19.9199 1.99988L23.1718 2.0038Z" fill="#1B75BB"/>
<path d="M19.9158 1.99988L20.4107 3.03165L18.0464 3.90651L19.9158 1.99988Z" fill="#EC1C24"/>
<path d="M31.5409 2.24304L33.807 5.41291L25.3003 4.64398L31.5409 2.24304Z" fill="#1B75BB"/>
<path d="M45.4952 2.00375L42.1177 3.33368L40.3071 2.00375H45.4952Z" fill="#1B75BB"/>
<path d="M18.0463 7.36276L15.3521 10.5836L11.9824 10.2227L18.0463 7.36276Z" fill="#1B75BB"/>
<path d="M15.3521 10.5798L11.9824 14.55V10.2228L15.3521 10.5798Z" fill="#EC1C24"/>
<path d="M45.5458 2.00375L44.1712 4.83623L42.1172 3.33368L45.4947 2.00375H45.5458Z" fill="#EC1C24"/>
<path d="M5.3294 17.1234L5.05055 20.3481L0.0117188 23.0747L5.3294 17.1234Z" fill="#1B75BB"/>
<path d="M5.05061 20.3483L4.67358 23.9968L0 23.0866L5.05061 20.3483Z" fill="#EC1C24"/>
<path d="M35.5937 8.33566L40.3616 14.1222L32.4204 13.2827L35.5937 8.33566Z" fill="#1B75BB"/>
<path d="M40.3616 14.1222L28.7837 18.9437L32.4204 13.2827L40.3616 14.1222Z" fill="#EC1C24"/>
<path d="M23.1286 21.0268L11.9395 25.711V18.4964L23.1286 21.0268Z" fill="#EC1C24"/>
<path d="M36.8233 23.1454L33.5518 29.8303L31.812 25.2168L36.8233 23.1454Z" fill="#1B75BB"/>
<path d="M31.812 25.2168L33.5518 29.8303L25.1079 28.1159L31.812 25.2168Z" fill="#EC1C24"/>
<path d="M19.7271 11.1994L26.3054 8.63373L28.112 12.0547L19.7271 11.1994Z" fill="#1B75BB"/>
<path d="M19.7271 11.1996L28.112 12.0548L20.7678 15.0128L19.7271 11.1996Z" fill="#EC1C24"/>
</svg>
