<svg width="56" height="8" viewBox="0 0 56 8" fill="none" xmlns="http://www.w3.org/2000/svg">
<path d="M4.00002 1.06301e-05C1.7909 1.04439e-05 5.53597e-05 1.79085 5.51734e-05 3.99996C5.49872e-05 6.20907 1.7909 7.99991 4.00002 7.99991C6.20914 7.99991 8 6.20907 8 3.99996C8 1.79085 6.20914 1.08163e-05 4.00002 1.06301e-05Z" fill="#F41921"/>
<path d="M28.0001 1.06301e-05C25.791 1.04439e-05 24.0001 1.79085 24.0001 3.99996C24.0001 6.20907 25.791 7.99991 28.0001 7.99991C30.2092 7.99991 32 6.20907 32 3.99996C32 1.79085 30.2092 1.08163e-05 28.0001 1.06301e-05Z" fill="#F41921"/>
<path d="M52 0.0001327C49.7909 0.000132514 48.0001 1.79097 48.0001 4.00008C48.0001 6.20919 49.7909 8.00003 52 8.00003C54.2091 8.00003 56 6.20919 56 4.00008C56 1.79097 54.2091 0.000132887 52 0.0001327Z" fill="#F41921"/>
</svg>
