<svg width="337" height="110" viewBox="0 0 337 110" fill="none" xmlns="http://www.w3.org/2000/svg">
<path d="M92.2199 63.6462V67.5762H90.3749V57.0762C90.8949 57.0762 91.4599 57.0712 92.0699 57.0612C92.6799 57.0512 93.1799 57.0462 93.5699 57.0462C96.1099 57.0462 97.3799 58.1262 97.3799 60.2862C97.3799 61.0862 97.1749 61.7462 96.7649 62.2662C96.3549 62.7662 95.8849 63.1062 95.3549 63.2862L98.6399 67.5762H96.4049L93.5099 63.6462H92.2199ZM93.4799 58.7712C93.4299 58.7712 93.3499 58.7762 93.2399 58.7862C93.1299 58.7862 92.9749 58.7912 92.7749 58.8012C92.5749 58.8012 92.3899 58.8012 92.2199 58.8012V61.9212H93.4199C94.0099 61.9212 94.4899 61.7762 94.8599 61.4862C95.2399 61.1962 95.4299 60.8012 95.4299 60.3012C95.4299 59.2812 94.7799 58.7712 93.4799 58.7712ZM106.908 57.0762H108.738V63.2262C108.738 64.7362 108.343 65.8662 107.553 66.6162C106.753 67.3662 105.758 67.7412 104.568 67.7412C103.218 67.7412 102.133 67.3462 101.313 66.5562C100.503 65.7662 100.098 64.6212 100.098 63.1212V57.0762H101.943V62.7312C101.943 63.7712 102.163 64.5812 102.603 65.1612C103.053 65.7312 103.708 66.0162 104.568 66.0162C106.128 66.0162 106.908 64.9612 106.908 62.8512V57.0762ZM115.728 64.7862C115.728 64.4662 115.608 64.1862 115.368 63.9462C115.138 63.6962 114.848 63.4962 114.498 63.3462C114.148 63.1862 113.763 63.0062 113.343 62.8062C112.933 62.5962 112.553 62.3812 112.203 62.1612C111.853 61.9312 111.558 61.6162 111.318 61.2162C111.088 60.8062 110.973 60.3362 110.973 59.8062C110.973 58.9962 111.268 58.3112 111.858 57.7512C112.468 57.1912 113.263 56.9112 114.243 56.9112C115.573 56.9112 116.573 57.2862 117.243 58.0362L116.253 59.4162C115.723 58.8962 115.103 58.6362 114.393 58.6362C113.943 58.6362 113.583 58.7412 113.313 58.9512C113.053 59.1612 112.923 59.4412 112.923 59.7912C112.923 59.9712 112.958 60.1412 113.028 60.3012C113.098 60.4512 113.173 60.5762 113.253 60.6762C113.343 60.7762 113.483 60.8862 113.673 61.0062C113.873 61.1262 114.028 61.2162 114.138 61.2762C114.258 61.3262 114.453 61.4112 114.723 61.5312C114.993 61.6512 115.183 61.7362 115.293 61.7862C115.733 61.9862 116.118 62.1962 116.448 62.4162C116.818 62.6362 117.113 62.9512 117.333 63.3612C117.563 63.7712 117.678 64.2412 117.678 64.7712C117.678 65.6512 117.343 66.3662 116.673 66.9162C116.003 67.4662 115.168 67.7412 114.168 67.7412C113.468 67.7412 112.773 67.5962 112.083 67.3062C111.423 67.0062 110.973 66.6012 110.733 66.0912L111.783 64.8312C112.063 65.2012 112.423 65.4912 112.863 65.7012C113.313 65.9112 113.758 66.0162 114.198 66.0162C114.658 66.0162 115.028 65.9062 115.308 65.6862C115.588 65.4662 115.728 65.1662 115.728 64.7862ZM124.019 64.7862C124.019 64.4662 123.899 64.1862 123.659 63.9462C123.429 63.6962 123.139 63.4962 122.789 63.3462C122.439 63.1862 122.054 63.0062 121.634 62.8062C121.224 62.5962 120.844 62.3812 120.494 62.1612C120.144 61.9312 119.849 61.6162 119.609 61.2162C119.379 60.8062 119.264 60.3362 119.264 59.8062C119.264 58.9962 119.559 58.3112 120.149 57.7512C120.759 57.1912 121.554 56.9112 122.534 56.9112C123.864 56.9112 124.864 57.2862 125.534 58.0362L124.544 59.4162C124.014 58.8962 123.394 58.6362 122.684 58.6362C122.234 58.6362 121.874 58.7412 121.604 58.9512C121.344 59.1612 121.214 59.4412 121.214 59.7912C121.214 59.9712 121.249 60.1412 121.319 60.3012C121.389 60.4512 121.464 60.5762 121.544 60.6762C121.634 60.7762 121.774 60.8862 121.964 61.0062C122.164 61.1262 122.319 61.2162 122.429 61.2762C122.549 61.3262 122.744 61.4112 123.014 61.5312C123.284 61.6512 123.474 61.7362 123.584 61.7862C124.024 61.9862 124.409 62.1962 124.739 62.4162C125.109 62.6362 125.404 62.9512 125.624 63.3612C125.854 63.7712 125.969 64.2412 125.969 64.7712C125.969 65.6512 125.634 66.3662 124.964 66.9162C124.294 67.4662 123.459 67.7412 122.459 67.7412C121.759 67.7412 121.064 67.5962 120.374 67.3062C119.714 67.0062 119.264 66.6012 119.024 66.0912L120.074 64.8312C120.354 65.2012 120.714 65.4912 121.154 65.7012C121.604 65.9112 122.049 66.0162 122.489 66.0162C122.949 66.0162 123.319 65.9062 123.599 65.6862C123.879 65.4662 124.019 65.1662 124.019 64.7862ZM130.165 67.5762H128.32V57.0762H130.165V67.5762ZM133.805 67.5762H131.945L136.385 57.0462H138.005L142.445 67.5762H140.48L139.385 64.8912H134.9L133.805 67.5762ZM138.68 63.1662L137.15 59.4312L135.605 63.1662H138.68ZM152.988 57.0762V67.5762H151.518L145.743 60.3012V67.5762H144.018V57.0762H145.488L151.263 64.3812V57.0762H152.988ZM96.5999 88.5762H90.3749V78.0762H96.4499V79.8012H92.2199V82.4112H95.9999V84.1362H92.2199V86.8512H96.5999V88.5762ZM105.138 78.0762H107.298L103.758 83.2212L107.433 88.5762H105.273L102.558 84.6312L99.8579 88.5762H97.6979L101.373 83.2212L97.8629 78.0762H100.023L102.603 81.8712L105.138 78.0762ZM110.882 84.7812V88.5762H109.037V78.0762C109.477 78.0762 109.952 78.0712 110.462 78.0612C110.982 78.0512 111.502 78.0462 112.022 78.0462C112.762 78.0462 113.402 78.1412 113.942 78.3312C114.492 78.5112 114.917 78.7662 115.217 79.0962C115.517 79.4162 115.737 79.7712 115.877 80.1612C116.017 80.5412 116.087 80.9612 116.087 81.4212C116.087 82.3712 115.747 83.1762 115.067 83.8362C114.397 84.4962 113.457 84.8262 112.247 84.8262C111.637 84.8262 111.182 84.8112 110.882 84.7812ZM112.202 79.7712L110.882 79.8012V83.0262C111.412 83.0762 111.847 83.1012 112.187 83.1012C112.777 83.1012 113.247 82.9562 113.597 82.6662C113.957 82.3762 114.137 81.9562 114.137 81.4062C114.137 80.3162 113.492 79.7712 112.202 79.7712ZM117.237 83.3262C117.237 81.7962 117.747 80.5112 118.767 79.4712C119.807 78.4312 121.117 77.9112 122.697 77.9112C124.277 77.9112 125.582 78.4112 126.612 79.4112C127.652 80.4212 128.172 81.7262 128.172 83.3262C128.172 84.8962 127.652 86.1912 126.612 87.2112C125.572 88.2312 124.267 88.7412 122.697 88.7412C121.117 88.7412 119.812 88.2412 118.782 87.2412C117.752 86.2412 117.237 84.9362 117.237 83.3262ZM119.187 83.3262C119.187 84.3862 119.522 85.2662 120.192 85.9662C120.862 86.6662 121.697 87.0162 122.697 87.0162C123.777 87.0162 124.632 86.6662 125.262 85.9662C125.902 85.2662 126.222 84.3862 126.222 83.3262C126.222 82.2562 125.882 81.3712 125.202 80.6712C124.522 79.9812 123.687 79.6362 122.697 79.6362C121.687 79.6362 120.847 79.9812 120.177 80.6712C119.517 81.3612 119.187 82.2462 119.187 83.3262ZM132.152 84.6462V88.5762H130.307V78.0762C130.827 78.0762 131.392 78.0712 132.002 78.0612C132.612 78.0512 133.112 78.0462 133.502 78.0462C136.042 78.0462 137.312 79.1262 137.312 81.2862C137.312 82.0862 137.107 82.7462 136.697 83.2662C136.287 83.7662 135.817 84.1062 135.287 84.2862L138.572 88.5762H136.337L133.442 84.6462H132.152ZM133.412 79.7712C133.362 79.7712 133.282 79.7762 133.172 79.7862C133.062 79.7862 132.907 79.7912 132.707 79.8012C132.507 79.8012 132.322 79.8012 132.152 79.8012V82.9212H133.352C133.942 82.9212 134.422 82.7762 134.792 82.4862C135.172 82.1962 135.362 81.8012 135.362 81.3012C135.362 80.2812 134.712 79.7712 133.412 79.7712ZM141.738 79.8012H138.333V78.0762H146.988V79.8012H143.583V88.5762H141.738V79.8012ZM159.057 86.1762L159.762 87.5562C159.432 87.9062 158.957 88.1912 158.337 88.4112C157.727 88.6312 157.082 88.7412 156.402 88.7412C154.802 88.7412 153.497 88.2462 152.487 87.2562C151.487 86.2662 150.987 84.9562 150.987 83.3262C150.987 81.7662 151.462 80.4712 152.412 79.4412C153.352 78.4212 154.667 77.9112 156.357 77.9112C157.697 77.9112 158.762 78.2662 159.552 78.9762L158.727 80.3412C158.017 79.8712 157.227 79.6362 156.357 79.6362C155.357 79.6362 154.537 79.9712 153.897 80.6412C153.257 81.3112 152.937 82.2062 152.937 83.3262C152.937 84.4262 153.272 85.3162 153.942 85.9962C154.622 86.6762 155.497 87.0162 156.567 87.0162C157.487 87.0162 158.317 86.7362 159.057 86.1762ZM167.821 88.5762H161.596V78.0762H167.671V79.8012H163.441V82.4112H167.221V84.1362H163.441V86.8512H167.821V88.5762ZM179.194 78.0762V88.5762H177.724L171.949 81.3012V88.5762H170.224V78.0762H171.694L177.469 85.3812V78.0762H179.194ZM184.203 79.8012H180.798V78.0762H189.453V79.8012H186.048V88.5762H184.203V79.8012ZM197.279 88.5762H191.054V78.0762H197.129V79.8012H192.899V82.4112H196.679V84.1362H192.899V86.8512H197.279V88.5762ZM201.527 84.6462V88.5762H199.682V78.0762C200.202 78.0762 200.767 78.0712 201.377 78.0612C201.987 78.0512 202.487 78.0462 202.877 78.0462C205.417 78.0462 206.687 79.1262 206.687 81.2862C206.687 82.0862 206.482 82.7462 206.072 83.2662C205.662 83.7662 205.192 84.1062 204.662 84.2862L207.947 88.5762H205.712L202.817 84.6462H201.527ZM202.787 79.7712C202.737 79.7712 202.657 79.7762 202.547 79.7862C202.437 79.7862 202.282 79.7912 202.082 79.8012C201.882 79.8012 201.697 79.8012 201.527 79.8012V82.9212H202.727C203.317 82.9212 203.797 82.7762 204.167 82.4862C204.547 82.1962 204.737 81.8012 204.737 81.3012C204.737 80.2812 204.087 79.7712 202.787 79.7712ZM97.2749 105.646H94.7399V103.921H98.9999V108.271C98.5499 108.721 97.9499 109.081 97.1999 109.351C96.4499 109.611 95.7399 109.741 95.0699 109.741C93.3699 109.741 92.0299 109.251 91.0499 108.271C90.0799 107.301 89.5949 105.986 89.5949 104.326C89.5949 102.786 90.0749 101.501 91.0349 100.471C91.9949 99.4312 93.2599 98.9112 94.8299 98.9112C96.1699 98.9112 97.2949 99.2662 98.2049 99.9762L97.4249 101.446C97.1649 101.196 96.8199 101.001 96.3899 100.861C95.9599 100.711 95.5149 100.636 95.0549 100.636C94.0049 100.636 93.1599 100.966 92.5199 101.626C91.8699 102.276 91.5449 103.176 91.5449 104.326C91.5449 105.436 91.8699 106.331 92.5199 107.011C93.1599 107.681 94.0199 108.016 95.0999 108.016C95.4799 108.016 95.8899 107.946 96.3299 107.806C96.7699 107.656 97.0849 107.486 97.2749 107.296V105.646ZM103.118 105.646V109.576H101.273V99.0762C101.793 99.0762 102.358 99.0712 102.968 99.0612C103.578 99.0512 104.078 99.0462 104.468 99.0462C107.008 99.0462 108.278 100.126 108.278 102.286C108.278 103.086 108.073 103.746 107.663 104.266C107.253 104.766 106.783 105.106 106.253 105.286L109.538 109.576H107.303L104.408 105.646H103.118ZM104.378 100.771C104.328 100.771 104.248 100.776 104.138 100.786C104.028 100.786 103.873 100.791 103.673 100.801C103.473 100.801 103.288 100.801 103.118 100.801V103.921H104.318C104.908 103.921 105.388 103.776 105.758 103.486C106.138 103.196 106.328 102.801 106.328 102.301C106.328 101.281 105.678 100.771 104.378 100.771ZM109.927 104.326C109.927 102.796 110.437 101.511 111.457 100.471C112.497 99.4312 113.807 98.9112 115.387 98.9112C116.967 98.9112 118.272 99.4112 119.302 100.411C120.342 101.421 120.862 102.726 120.862 104.326C120.862 105.896 120.342 107.191 119.302 108.211C118.262 109.231 116.957 109.741 115.387 109.741C113.807 109.741 112.502 109.241 111.472 108.241C110.442 107.241 109.927 105.936 109.927 104.326ZM111.877 104.326C111.877 105.386 112.212 106.266 112.882 106.966C113.552 107.666 114.387 108.016 115.387 108.016C116.467 108.016 117.322 107.666 117.952 106.966C118.592 106.266 118.912 105.386 118.912 104.326C118.912 103.256 118.572 102.371 117.892 101.671C117.212 100.981 116.377 100.636 115.387 100.636C114.377 100.636 113.537 100.981 112.867 101.671C112.207 102.361 111.877 103.246 111.877 104.326ZM129.657 99.0762H131.487V105.226C131.487 106.736 131.092 107.866 130.302 108.616C129.502 109.366 128.507 109.741 127.317 109.741C125.967 109.741 124.882 109.346 124.062 108.556C123.252 107.766 122.847 106.621 122.847 105.121V99.0762H124.692V104.731C124.692 105.771 124.912 106.581 125.352 107.161C125.802 107.731 126.457 108.016 127.317 108.016C128.877 108.016 129.657 106.961 129.657 104.851V99.0762ZM136.107 105.781V109.576H134.262V99.0762C134.702 99.0762 135.177 99.0712 135.687 99.0612C136.207 99.0512 136.727 99.0462 137.247 99.0462C137.987 99.0462 138.627 99.1412 139.167 99.3312C139.717 99.5112 140.142 99.7662 140.442 100.096C140.742 100.416 140.962 100.771 141.102 101.161C141.242 101.541 141.312 101.961 141.312 102.421C141.312 103.371 140.972 104.176 140.292 104.836C139.622 105.496 138.682 105.826 137.472 105.826C136.862 105.826 136.407 105.811 136.107 105.781ZM137.427 100.771L136.107 100.801V104.026C136.637 104.076 137.072 104.101 137.412 104.101C138.002 104.101 138.472 103.956 138.822 103.666C139.182 103.376 139.362 102.956 139.362 102.406C139.362 101.316 138.717 100.771 137.427 100.771Z" fill="#002E5E"/>
<g clip-path="url(#clip0_1438_1608)">
<path d="M84.4824 41.7098H153.93L161.596 37.188H230.893" stroke="#0F385F"/>
<path d="M38.5256 0.00430289L33.9353 1.94684L33.1143 0.000488281L38.5256 0.00430289Z" fill="#1B4E9B"/>
<path d="M52.4391 0.458008L56.2039 6.44192L42.0605 4.99438L52.4391 0.458008Z" fill="#1B4E9B"/>
<path d="M75.6355 0.00488281L70.0161 2.5166L67.0088 0.00488281H75.6355Z" fill="#1B4E9B"/>
<path d="M30.004 10.127L25.5264 16.2098L19.9248 15.5295L30.004 10.127Z" fill="#1B4E9B"/>
<path d="M8.86497 28.5713L8.39992 34.659L0.0214844 39.8107L8.86497 28.5713Z" fill="#1B4E9B"/>
<path d="M59.1717 11.9692L67.1015 22.8987L53.8984 21.3148L59.1717 11.9692Z" fill="#1B4E9B"/>
<path d="M61.2163 39.9434L55.7777 52.5762L52.8896 43.8613L61.2163 39.9434Z" fill="#1B4E9B"/>
<path d="M32.7979 17.3748L43.7352 12.5269L46.7376 18.9907L32.7979 17.3748Z" fill="#1B4E9B"/>
<path d="M33.1133 0L33.9346 1.94685L30.0039 3.59928L33.1133 0Z" fill="#1090CF"/>
<path d="M25.5253 16.2096L19.9246 23.7094L19.9238 15.5293L25.5253 16.2096Z" fill="#1090CF"/>
<path d="M75.7217 0.00488281L73.4302 5.35477L70.0156 2.5166L75.6354 0.00488281H75.7217Z" fill="#1090CF"/>
<path d="M8.39931 34.6587L7.77023 41.5538L0 39.8331L8.39931 34.6587Z" fill="#1090CF"/>
<path d="M67.0991 22.9006L47.8545 32.0071L53.8973 21.3149L67.0991 22.9006Z" fill="#1090CF"/>
<path d="M38.4515 35.9395L19.8486 44.7929V31.1655L38.4515 35.9395Z" fill="#1090CF"/>
<path d="M52.8892 43.8613L55.7773 52.5757L41.7393 49.3381L52.8892 43.8613Z" fill="#1090CF"/>
<path d="M32.7979 17.3745L46.7376 18.9904L34.5307 24.5776L32.7979 17.3745Z" fill="#1090CF"/>
</g>
<path d="M99.6719 26.7842H90.9569V12.0842H99.4619V14.4992H93.5399V18.1532H98.8319V20.5682H93.5399V24.3692H99.6719V26.7842ZM111.625 12.0842H114.649L109.693 19.2872L114.838 26.7842H111.814L108.013 21.2612L104.233 26.7842H101.209L106.354 19.2872L101.44 12.0842H104.464L108.076 17.3972L111.625 12.0842ZM119.982 26.7842H117.399V12.0842H119.982V26.7842ZM126.947 26.7842H124.364V12.0842H126.968L131.987 18.9512L136.775 12.0842H139.211V26.7842H136.649V16.1582L132.008 22.6892H131.63L126.947 16.2212V26.7842ZM143.293 26.7632V12.1262C144.805 12.0562 146.219 12.0212 147.535 12.0212C149.159 12.0212 150.37 12.3432 151.168 12.9872C151.966 13.6312 152.365 14.5202 152.365 15.6542C152.365 17.2362 151.665 18.3492 150.265 18.9932V19.0352C151.063 19.2452 151.693 19.6442 152.155 20.2322C152.617 20.8062 152.848 21.5482 152.848 22.4582C152.848 23.8862 152.358 24.9782 151.378 25.7342C150.398 26.4902 149.068 26.8682 147.388 26.8682C145.708 26.8682 144.343 26.8332 143.293 26.7632ZM147.703 20.4632H145.876V24.3482C146.534 24.4182 147.101 24.4532 147.577 24.4532C149.369 24.4532 150.265 23.7462 150.265 22.3322C150.265 21.7162 150.041 21.2542 149.593 20.9462C149.145 20.6242 148.515 20.4632 147.703 20.4632ZM147.493 14.4362C146.877 14.4362 146.338 14.4572 145.876 14.4992V18.2162H147.619C148.277 18.2162 148.802 18.0482 149.194 17.7122C149.6 17.3762 149.803 16.8932 149.803 16.2632C149.803 15.6752 149.6 15.2272 149.194 14.9192C148.788 14.5972 148.221 14.4362 147.493 14.4362ZM156.968 26.7842H154.364L160.58 12.0422H162.848L169.064 26.7842H166.313L164.78 23.0252H158.501L156.968 26.7842ZM163.793 20.6102L161.651 15.3812L159.488 20.6102H163.793ZM183.824 12.0842V26.7842H181.766L173.681 16.5992V26.7842H171.266V12.0842H173.324L181.409 22.3112V12.0842H183.824ZM190.48 26.7842H187.897V12.0842H190.48V19.0562L196.276 12.0842H199.384L193.336 18.9302L199.762 26.7842H196.486L190.48 19.2032V26.7842ZM205.365 19.4342C205.365 17.2922 206.079 15.4932 207.507 14.0372C208.963 12.5812 210.797 11.8532 213.009 11.8532C215.221 11.8532 217.048 12.5532 218.49 13.9532C219.946 15.3672 220.674 17.1942 220.674 19.4342C220.674 21.6322 219.946 23.4452 218.49 24.8732C217.034 26.3012 215.207 27.0152 213.009 27.0152C210.797 27.0152 208.97 26.3152 207.528 24.9152C206.086 23.5152 205.365 21.6882 205.365 19.4342ZM208.095 19.4342C208.095 20.9182 208.564 22.1502 209.502 23.1302C210.44 24.1102 211.609 24.6002 213.009 24.6002C214.521 24.6002 215.718 24.1102 216.6 23.1302C217.496 22.1502 217.944 20.9182 217.944 19.4342C217.944 17.9362 217.468 16.6972 216.516 15.7172C215.564 14.7512 214.395 14.2682 213.009 14.2682C211.595 14.2682 210.419 14.7512 209.481 15.7172C208.557 16.6832 208.095 17.9222 208.095 19.4342ZM226.246 26.7842H223.663V12.0842H232.063V14.4992H226.246V18.6572H231.433V21.0722H226.246V26.7842ZM241.975 21.2822V26.7842H239.392V12.0842C240.12 12.0842 240.911 12.0772 241.765 12.0632C242.619 12.0492 243.319 12.0422 243.865 12.0422C247.421 12.0422 249.199 13.5542 249.199 16.5782C249.199 17.6982 248.912 18.6222 248.338 19.3502C247.764 20.0502 247.106 20.5262 246.364 20.7782L250.963 26.7842H247.834L243.781 21.2822H241.975ZM243.739 14.4572C243.669 14.4572 243.557 14.4642 243.403 14.4782C243.249 14.4782 243.032 14.4852 242.752 14.4992C242.472 14.4992 242.213 14.4992 241.975 14.4992V18.8672H243.655C244.481 18.8672 245.153 18.6642 245.671 18.2582C246.203 17.8522 246.469 17.2992 246.469 16.5992C246.469 15.1712 245.559 14.4572 243.739 14.4572ZM262.539 12.0842H265.101V20.6942C265.101 22.8082 264.548 24.3902 263.442 25.4402C262.322 26.4902 260.929 27.0152 259.263 27.0152C257.373 27.0152 255.854 26.4622 254.706 25.3562C253.572 24.2502 253.005 22.6472 253.005 20.5472V12.0842H255.588V20.0012C255.588 21.4572 255.896 22.5912 256.512 23.4032C257.142 24.2012 258.059 24.6002 259.263 24.6002C261.447 24.6002 262.539 23.1232 262.539 20.1692V12.0842ZM274.886 22.8782C274.886 22.4302 274.718 22.0382 274.382 21.7022C274.06 21.3522 273.654 21.0722 273.164 20.8622C272.674 20.6382 272.135 20.3862 271.547 20.1062C270.973 19.8122 270.441 19.5112 269.951 19.2032C269.461 18.8812 269.048 18.4402 268.712 17.8802C268.39 17.3062 268.229 16.6482 268.229 15.9062C268.229 14.7722 268.642 13.8132 269.468 13.0292C270.322 12.2452 271.435 11.8532 272.807 11.8532C274.669 11.8532 276.069 12.3782 277.007 13.4282L275.621 15.3602C274.879 14.6322 274.011 14.2682 273.017 14.2682C272.387 14.2682 271.883 14.4152 271.505 14.7092C271.141 15.0032 270.959 15.3952 270.959 15.8852C270.959 16.1372 271.008 16.3752 271.106 16.5992C271.204 16.8092 271.309 16.9842 271.421 17.1242C271.547 17.2642 271.743 17.4182 272.009 17.5862C272.289 17.7542 272.506 17.8802 272.66 17.9642C272.828 18.0342 273.101 18.1532 273.479 18.3212C273.857 18.4892 274.123 18.6082 274.277 18.6782C274.893 18.9582 275.432 19.2522 275.894 19.5602C276.412 19.8682 276.825 20.3092 277.133 20.8832C277.455 21.4572 277.616 22.1152 277.616 22.8572C277.616 24.0892 277.147 25.0902 276.209 25.8602C275.271 26.6302 274.102 27.0152 272.702 27.0152C271.722 27.0152 270.749 26.8122 269.783 26.4062C268.859 25.9862 268.229 25.4192 267.893 24.7052L269.363 22.9412C269.755 23.4592 270.259 23.8652 270.875 24.1592C271.505 24.4532 272.128 24.6002 272.744 24.6002C273.388 24.6002 273.906 24.4462 274.298 24.1382C274.69 23.8302 274.886 23.4102 274.886 22.8782ZM286.494 22.8782C286.494 22.4302 286.326 22.0382 285.99 21.7022C285.668 21.3522 285.262 21.0722 284.772 20.8622C284.282 20.6382 283.743 20.3862 283.155 20.1062C282.581 19.8122 282.049 19.5112 281.559 19.2032C281.069 18.8812 280.656 18.4402 280.32 17.8802C279.998 17.3062 279.837 16.6482 279.837 15.9062C279.837 14.7722 280.25 13.8132 281.076 13.0292C281.93 12.2452 283.043 11.8532 284.415 11.8532C286.277 11.8532 287.677 12.3782 288.615 13.4282L287.229 15.3602C286.487 14.6322 285.619 14.2682 284.625 14.2682C283.995 14.2682 283.491 14.4152 283.113 14.7092C282.749 15.0032 282.567 15.3952 282.567 15.8852C282.567 16.1372 282.616 16.3752 282.714 16.5992C282.812 16.8092 282.917 16.9842 283.029 17.1242C283.155 17.2642 283.351 17.4182 283.617 17.5862C283.897 17.7542 284.114 17.8802 284.268 17.9642C284.436 18.0342 284.709 18.1532 285.087 18.3212C285.465 18.4892 285.731 18.6082 285.885 18.6782C286.501 18.9582 287.04 19.2522 287.502 19.5602C288.02 19.8682 288.433 20.3092 288.741 20.8832C289.063 21.4572 289.224 22.1152 289.224 22.8572C289.224 24.0892 288.755 25.0902 287.817 25.8602C286.879 26.6302 285.71 27.0152 284.31 27.0152C283.33 27.0152 282.357 26.8122 281.391 26.4062C280.467 25.9862 279.837 25.4192 279.501 24.7052L280.971 22.9412C281.363 23.4592 281.867 23.8652 282.483 24.1592C283.113 24.4532 283.736 24.6002 284.352 24.6002C284.996 24.6002 285.514 24.4462 285.906 24.1382C286.298 23.8302 286.494 23.4102 286.494 22.8782ZM295.098 26.7842H292.515V12.0842H295.098V26.7842ZM300.194 26.7842H297.59L303.806 12.0422H306.074L312.29 26.7842H309.539L308.006 23.0252H301.727L300.194 26.7842ZM307.019 20.6102L304.877 15.3812L302.714 20.6102H307.019Z" fill="#4D67AC"/>
<defs>
<clipPath id="clip0_1438_1608">
<rect width="230.894" height="52.576" fill="white"/>
</clipPath>
</defs>
</svg>
