<svg width="338" height="112" viewBox="0 0 338 112" fill="none" xmlns="http://www.w3.org/2000/svg">
<path d="M92.4836 67.5762H90.6386V57.0762H96.5636V58.8012H92.4836V67.5762ZM100.086 63.7812V67.5762H98.2411V57.0762C98.6811 57.0762 99.1561 57.0712 99.6661 57.0612C100.186 57.0512 100.706 57.0462 101.226 57.0462C101.966 57.0462 102.606 57.1412 103.146 57.3312C103.696 57.5112 104.121 57.7662 104.421 58.0962C104.721 58.4162 104.941 58.7712 105.081 59.1612C105.221 59.5412 105.291 59.9612 105.291 60.4212C105.291 61.3712 104.951 62.1762 104.271 62.8362C103.601 63.4962 102.661 63.8262 101.451 63.8262C100.841 63.8262 100.386 63.8112 100.086 63.7812ZM101.406 58.7712L100.086 58.8012V62.0262C100.616 62.0762 101.051 62.1012 101.391 62.1012C101.981 62.1012 102.451 61.9562 102.801 61.6662C103.161 61.3762 103.341 60.9562 103.341 60.4062C103.341 59.3162 102.696 58.7712 101.406 58.7712ZM113.634 57.0762H115.494L111.924 65.1312C111.554 65.9712 111.139 66.5912 110.679 66.9912C110.229 67.3812 109.694 67.5762 109.074 67.5762C108.454 67.5762 107.974 67.4362 107.634 67.1562L108.279 65.5962C108.539 65.7662 108.799 65.8512 109.059 65.8512C109.529 65.8512 109.874 65.6062 110.094 65.1162L110.244 64.7562L105.609 57.0762H107.694L111.129 62.9412L113.634 57.0762ZM125.493 67.5762H123.648V58.8012H118.968V67.5762H117.123V57.0762H125.493V67.5762ZM136.772 67.5762H134.927V58.8012H130.247V67.5762H128.402V57.0762H136.772V67.5762ZM140.192 67.5762H138.332L142.772 57.0462H144.392L148.832 67.5762H146.867L145.772 64.8912H141.287L140.192 67.5762ZM145.067 63.1662L143.537 59.4312L141.992 63.1662H145.067ZM92.4836 84.7812V88.5762H90.6386V78.0762C91.0786 78.0762 91.5536 78.0712 92.0636 78.0612C92.5836 78.0512 93.1036 78.0462 93.6236 78.0462C94.3636 78.0462 95.0036 78.1412 95.5436 78.3312C96.0936 78.5112 96.5186 78.7662 96.8186 79.0962C97.1186 79.4162 97.3386 79.7712 97.4786 80.1612C97.6186 80.5412 97.6886 80.9612 97.6886 81.4212C97.6886 82.3712 97.3486 83.1762 96.6686 83.8362C95.9986 84.4962 95.0586 84.8262 93.8486 84.8262C93.2386 84.8262 92.7836 84.8112 92.4836 84.7812ZM93.8036 79.7712L92.4836 79.8012V83.0262C93.0136 83.0762 93.4486 83.1012 93.7886 83.1012C94.3786 83.1012 94.8486 82.9562 95.1986 82.6662C95.5586 82.3762 95.7386 81.9562 95.7386 81.4062C95.7386 80.3162 95.0936 79.7712 93.8036 79.7712ZM98.9699 83.3262C98.9699 81.7962 99.4799 80.5112 100.5 79.4712C101.54 78.4312 102.85 77.9112 104.43 77.9112C106.01 77.9112 107.315 78.4112 108.345 79.4112C109.385 80.4212 109.905 81.7262 109.905 83.3262C109.905 84.8962 109.385 86.1912 108.345 87.2112C107.305 88.2312 106 88.7412 104.43 88.7412C102.85 88.7412 101.545 88.2412 100.515 87.2412C99.4849 86.2412 98.9699 84.9362 98.9699 83.3262ZM100.92 83.3262C100.92 84.3862 101.255 85.2662 101.925 85.9662C102.595 86.6662 103.43 87.0162 104.43 87.0162C105.51 87.0162 106.365 86.6662 106.995 85.9662C107.635 85.2662 107.955 84.3862 107.955 83.3262C107.955 82.2562 107.615 81.3712 106.935 80.6712C106.255 79.9812 105.42 79.6362 104.43 79.6362C103.42 79.6362 102.58 79.9812 101.91 80.6712C101.25 81.3612 100.92 82.2462 100.92 83.3262ZM119.33 86.1762L120.035 87.5562C119.705 87.9062 119.23 88.1912 118.61 88.4112C118 88.6312 117.355 88.7412 116.675 88.7412C115.075 88.7412 113.77 88.2462 112.76 87.2562C111.76 86.2662 111.26 84.9562 111.26 83.3262C111.26 81.7662 111.735 80.4712 112.685 79.4412C113.625 78.4212 114.94 77.9112 116.63 77.9112C117.97 77.9112 119.035 78.2662 119.825 78.9762L119 80.3412C118.29 79.8712 117.5 79.6362 116.63 79.6362C115.63 79.6362 114.81 79.9712 114.17 80.6412C113.53 81.3112 113.21 82.2062 113.21 83.3262C113.21 84.4262 113.545 85.3162 114.215 85.9962C114.895 86.6762 115.77 87.0162 116.84 87.0162C117.76 87.0162 118.59 86.7362 119.33 86.1762ZM128.72 86.1762L129.425 87.5562C129.095 87.9062 128.62 88.1912 128 88.4112C127.39 88.6312 126.745 88.7412 126.065 88.7412C124.465 88.7412 123.16 88.2462 122.15 87.2562C121.15 86.2662 120.65 84.9562 120.65 83.3262C120.65 81.7662 121.125 80.4712 122.075 79.4412C123.015 78.4212 124.33 77.9112 126.02 77.9112C127.36 77.9112 128.425 78.2662 129.215 78.9762L128.39 80.3412C127.68 79.8712 126.89 79.6362 126.02 79.6362C125.02 79.6362 124.2 79.9712 123.56 80.6412C122.92 81.3112 122.6 82.2062 122.6 83.3262C122.6 84.4262 122.935 85.3162 123.605 85.9962C124.285 86.6762 125.16 87.0162 126.23 87.0162C127.15 87.0162 127.98 86.7362 128.72 86.1762ZM138.384 81.1212L132.879 88.5762H131.259V78.0762H133.104V85.5462L138.609 78.0762H140.229V88.5762H138.384V81.1212ZM150.264 81.1212L144.759 88.5762H143.139V78.0762H144.984V85.5462L150.489 78.0762H152.109V88.5762H150.264V81.1212ZM144.804 75.5262H146.529C146.649 76.1062 147.074 76.3962 147.804 76.3962C148.564 76.3962 148.964 76.1062 149.004 75.5262H150.729C150.719 76.1562 150.434 76.6762 149.874 77.0862C149.314 77.4762 148.624 77.6712 147.804 77.6712C146.924 77.6712 146.214 77.4812 145.674 77.1012C145.144 76.7112 144.854 76.1862 144.804 75.5262ZM162.308 86.1762L163.013 87.5562C162.683 87.9062 162.208 88.1912 161.588 88.4112C160.978 88.6312 160.333 88.7412 159.653 88.7412C158.053 88.7412 156.748 88.2462 155.738 87.2562C154.738 86.2662 154.238 84.9562 154.238 83.3262C154.238 81.7662 154.713 80.4712 155.663 79.4412C156.603 78.4212 157.918 77.9112 159.608 77.9112C160.948 77.9112 162.013 78.2662 162.803 78.9762L161.978 80.3412C161.268 79.8712 160.478 79.6362 159.608 79.6362C158.608 79.6362 157.788 79.9712 157.148 80.6412C156.508 81.3112 156.188 82.2062 156.188 83.3262C156.188 84.4262 156.523 85.3162 157.193 85.9962C157.873 86.6762 158.748 87.0162 159.818 87.0162C160.738 87.0162 161.568 86.7362 162.308 86.1762ZM166.693 88.5762H164.848V78.0762H166.693V83.0562L170.833 78.0762H173.053L168.733 82.9662L173.323 88.5762H170.983L166.693 83.1612V88.5762ZM173.56 83.3262C173.56 81.7962 174.07 80.5112 175.09 79.4712C176.13 78.4312 177.44 77.9112 179.02 77.9112C180.6 77.9112 181.905 78.4112 182.935 79.4112C183.975 80.4212 184.495 81.7262 184.495 83.3262C184.495 84.8962 183.975 86.1912 182.935 87.2112C181.895 88.2312 180.59 88.7412 179.02 88.7412C177.44 88.7412 176.135 88.2412 175.105 87.2412C174.075 86.2412 173.56 84.9362 173.56 83.3262ZM175.51 83.3262C175.51 84.3862 175.845 85.2662 176.515 85.9662C177.185 86.6662 178.02 87.0162 179.02 87.0162C180.1 87.0162 180.955 86.6662 181.585 85.9662C182.225 85.2662 182.545 84.3862 182.545 83.3262C182.545 82.2562 182.205 81.3712 181.525 80.6712C180.845 79.9812 180.01 79.6362 179.02 79.6362C178.01 79.6362 177.17 79.9812 176.5 80.6712C175.84 81.3612 175.51 82.2462 175.51 83.3262ZM188.475 88.5762H186.63V78.0762H192.555V79.8012H188.475V88.5762ZM193.057 83.3262C193.057 81.7962 193.567 80.5112 194.587 79.4712C195.627 78.4312 196.937 77.9112 198.517 77.9112C200.097 77.9112 201.402 78.4112 202.432 79.4112C203.472 80.4212 203.992 81.7262 203.992 83.3262C203.992 84.8962 203.472 86.1912 202.432 87.2112C201.392 88.2312 200.087 88.7412 198.517 88.7412C196.937 88.7412 195.632 88.2412 194.602 87.2412C193.572 86.2412 193.057 84.9362 193.057 83.3262ZM195.007 83.3262C195.007 84.3862 195.342 85.2662 196.012 85.9662C196.682 86.6662 197.517 87.0162 198.517 87.0162C199.597 87.0162 200.452 86.6662 201.082 85.9662C201.722 85.2662 202.042 84.3862 202.042 83.3262C202.042 82.2562 201.702 81.3712 201.022 80.6712C200.342 79.9812 199.507 79.6362 198.517 79.6362C197.507 79.6362 196.667 79.9812 195.997 80.6712C195.337 81.3612 195.007 82.2462 195.007 83.3262ZM96.7136 105.091H91.9886V103.366H96.6686C96.4886 102.506 96.0636 101.836 95.3936 101.356C94.7236 100.876 93.8886 100.636 92.8886 100.636C91.9686 100.636 91.1486 100.906 90.4286 101.446L89.7086 100.066C90.6186 99.2962 91.8236 98.9112 93.3236 98.9112C94.8836 98.9112 96.1536 99.4062 97.1336 100.396C98.1136 101.396 98.6036 102.701 98.6036 104.311C98.6036 105.961 98.1086 107.281 97.1186 108.271C96.1186 109.251 94.7836 109.741 93.1136 109.741C92.4136 109.741 91.7486 109.641 91.1186 109.441C90.4886 109.241 89.9786 108.976 89.5886 108.646L90.3836 107.101C91.1736 107.711 92.0736 108.016 93.0836 108.016C94.0436 108.016 94.8486 107.761 95.4986 107.251C96.1586 106.731 96.5636 106.011 96.7136 105.091ZM102.576 109.576H100.731V99.0762H102.576V104.056L106.716 99.0762H108.936L104.616 103.966L109.206 109.576H106.866L102.576 104.161V109.576ZM117.514 107.176L118.219 108.556C117.889 108.906 117.414 109.191 116.794 109.411C116.184 109.631 115.539 109.741 114.859 109.741C113.259 109.741 111.954 109.246 110.944 108.256C109.944 107.266 109.444 105.956 109.444 104.326C109.444 102.766 109.919 101.471 110.869 100.441C111.809 99.4212 113.124 98.9112 114.814 98.9112C116.154 98.9112 117.219 99.2662 118.009 99.9762L117.184 101.341C116.474 100.871 115.684 100.636 114.814 100.636C113.814 100.636 112.994 100.971 112.354 101.641C111.714 102.311 111.394 103.206 111.394 104.326C111.394 105.426 111.729 106.316 112.399 106.996C113.079 107.676 113.954 108.016 115.024 108.016C115.944 108.016 116.774 107.736 117.514 107.176ZM128.423 109.576H126.578V100.801H121.898V109.576H120.053V99.0762H128.423V109.576ZM130.552 104.326C130.552 102.796 131.062 101.511 132.082 100.471C133.122 99.4312 134.432 98.9112 136.012 98.9112C137.592 98.9112 138.897 99.4112 139.927 100.411C140.967 101.421 141.487 102.726 141.487 104.326C141.487 105.896 140.967 107.191 139.927 108.211C138.887 109.231 137.582 109.741 136.012 109.741C134.432 109.741 133.127 109.241 132.097 108.241C131.067 107.241 130.552 105.936 130.552 104.326ZM132.502 104.326C132.502 105.386 132.837 106.266 133.507 106.966C134.177 107.666 135.012 108.016 136.012 108.016C137.092 108.016 137.947 107.666 138.577 106.966C139.217 106.266 139.537 105.386 139.537 104.326C139.537 103.256 139.197 102.371 138.517 101.671C137.837 100.981 137.002 100.636 136.012 100.636C135.002 100.636 134.162 100.981 133.492 101.671C132.832 102.361 132.502 103.246 132.502 104.326ZM145.467 105.781V109.576H143.622V99.0762C144.062 99.0762 144.537 99.0712 145.047 99.0612C145.567 99.0512 146.087 99.0462 146.607 99.0462C147.347 99.0462 147.987 99.1412 148.527 99.3312C149.077 99.5112 149.502 99.7662 149.802 100.096C150.102 100.416 150.322 100.771 150.462 101.161C150.602 101.541 150.672 101.961 150.672 102.421C150.672 103.371 150.332 104.176 149.652 104.836C148.982 105.496 148.042 105.826 146.832 105.826C146.222 105.826 145.767 105.811 145.467 105.781ZM146.787 100.771L145.467 100.801V104.026C145.997 104.076 146.432 104.101 146.772 104.101C147.362 104.101 147.832 103.956 148.182 103.666C148.542 103.376 148.722 102.956 148.722 102.406C148.722 101.316 148.077 100.771 146.787 100.771ZM154.687 100.801H151.282V99.0762H159.937V100.801H156.532V109.576H154.687V100.801ZM170.012 109.576H168.182V105.091H163.382V109.576H161.537V99.0762H163.382V103.366H168.182V99.0762H170.012V109.576ZM172.139 104.326C172.139 102.796 172.649 101.511 173.669 100.471C174.709 99.4312 176.019 98.9112 177.599 98.9112C179.179 98.9112 180.484 99.4112 181.514 100.411C182.554 101.421 183.074 102.726 183.074 104.326C183.074 105.896 182.554 107.191 181.514 108.211C180.474 109.231 179.169 109.741 177.599 109.741C176.019 109.741 174.714 109.241 173.684 108.241C172.654 107.241 172.139 105.936 172.139 104.326ZM174.089 104.326C174.089 105.386 174.424 106.266 175.094 106.966C175.764 107.666 176.599 108.016 177.599 108.016C178.679 108.016 179.534 107.666 180.164 106.966C180.804 106.266 181.124 105.386 181.124 104.326C181.124 103.256 180.784 102.371 180.104 101.671C179.424 100.981 178.589 100.636 177.599 100.636C176.589 100.636 175.749 100.981 175.079 101.671C174.419 102.361 174.089 103.246 174.089 104.326ZM187.054 109.576H185.209V99.0762H191.134V100.801H187.054V109.576ZM191.636 104.326C191.636 102.796 192.146 101.511 193.166 100.471C194.206 99.4312 195.516 98.9112 197.096 98.9112C198.676 98.9112 199.981 99.4112 201.011 100.411C202.051 101.421 202.571 102.726 202.571 104.326C202.571 105.896 202.051 107.191 201.011 108.211C199.971 109.231 198.666 109.741 197.096 109.741C195.516 109.741 194.211 109.241 193.181 108.241C192.151 107.241 191.636 105.936 191.636 104.326ZM193.586 104.326C193.586 105.386 193.921 106.266 194.591 106.966C195.261 107.666 196.096 108.016 197.096 108.016C198.176 108.016 199.031 107.666 199.661 106.966C200.301 106.266 200.621 105.386 200.621 104.326C200.621 103.256 200.281 102.371 199.601 101.671C198.921 100.981 198.086 100.636 197.096 100.636C196.086 100.636 195.246 100.981 194.576 101.671C193.916 102.361 193.586 103.246 193.586 104.326ZM215.88 109.576H207.885V99.0762H209.73V107.851H214.335V99.0762H216.18V107.851H217.605V111.451H215.88V109.576ZM225.653 109.576H219.428V99.0762H225.503V100.801H221.273V103.411H225.053V105.136H221.273V107.851H225.653V109.576ZM236.531 109.576H234.701V105.091H229.901V109.576H228.056V99.0762H229.901V103.366H234.701V99.0762H236.531V109.576ZM241.537 100.801H238.132V99.0762H246.787V100.801H243.382V109.576H241.537V100.801ZM250.233 105.781V109.576H248.388V99.0762C248.828 99.0762 249.303 99.0712 249.813 99.0612C250.333 99.0512 250.853 99.0462 251.373 99.0462C252.113 99.0462 252.753 99.1412 253.293 99.3312C253.843 99.5112 254.268 99.7662 254.568 100.096C254.868 100.416 255.088 100.771 255.228 101.161C255.368 101.541 255.438 101.961 255.438 102.421C255.438 103.371 255.098 104.176 254.418 104.836C253.748 105.496 252.808 105.826 251.598 105.826C250.988 105.826 250.533 105.811 250.233 105.781ZM251.553 100.771L250.233 100.801V104.026C250.763 104.076 251.198 104.101 251.538 104.101C252.128 104.101 252.598 103.956 252.948 103.666C253.308 103.376 253.488 102.956 253.488 102.406C253.488 101.316 252.843 100.771 251.553 100.771ZM257.115 109.576H255.255L259.695 99.0462H261.315L265.755 109.576H263.79L262.695 106.891H258.21L257.115 109.576ZM261.99 105.166L260.46 101.431L258.915 105.166H261.99Z" fill="#002E5E"/>
<g clip-path="url(#clip0_1438_1609)">
<path d="M84.7334 41.7098H154.387L162.076 37.188H231.578" stroke="#0F385F"/>
<path d="M38.6403 0.00430289L34.0364 1.94684L33.2129 0.000488281L38.6403 0.00430289Z" fill="#1B4E9B"/>
<path d="M52.5939 0.458008L56.3699 6.44192L42.1846 4.99438L52.5939 0.458008Z" fill="#1B4E9B"/>
<path d="M75.8593 0.00488281L70.2232 2.5166L67.207 0.00488281H75.8593Z" fill="#1B4E9B"/>
<path d="M30.0925 10.127L25.6016 16.2098L19.9834 15.5295L30.0925 10.127Z" fill="#1B4E9B"/>
<path d="M8.89219 28.5713L8.42576 34.659L0.0224609 39.8107L8.89219 28.5713Z" fill="#1B4E9B"/>
<path d="M59.3475 11.9692L67.3008 22.8987L54.0586 21.3148L59.3475 11.9692Z" fill="#1B4E9B"/>
<path d="M61.3973 39.9434L55.9425 52.5762L53.0459 43.8613L61.3973 39.9434Z" fill="#1B4E9B"/>
<path d="M32.8945 17.3748L43.8644 12.5269L46.8756 18.9907L32.8945 17.3748Z" fill="#1B4E9B"/>
<path d="M33.2114 0L34.0351 1.94685L30.0928 3.59928L33.2114 0Z" fill="#1090CF"/>
<path d="M25.6005 16.2096L19.9832 23.7094L19.9824 15.5293L25.6005 16.2096Z" fill="#1090CF"/>
<path d="M75.9466 0.00488281L73.6483 5.35477L70.2236 2.5166L75.8601 0.00488281H75.9466Z" fill="#1090CF"/>
<path d="M8.42423 34.6587L7.79328 41.5538L0 39.8331L8.42423 34.6587Z" fill="#1090CF"/>
<path d="M67.2988 22.9006L47.9971 32.0071L54.0578 21.3149L67.2988 22.9006Z" fill="#1090CF"/>
<path d="M38.5652 35.9395L19.9072 44.7929V31.1655L38.5652 35.9395Z" fill="#1090CF"/>
<path d="M53.0463 43.8613L55.943 52.5757L41.8633 49.3381L53.0463 43.8613Z" fill="#1090CF"/>
<path d="M32.8945 17.3745L46.8756 18.9904L34.6325 24.5776L32.8945 17.3745Z" fill="#1090CF"/>
</g>
<path d="M93.8036 21.4712V26.7842H91.2206V12.0842C91.8366 12.0842 92.5016 12.0772 93.2156 12.0632C93.9436 12.0492 94.6716 12.0422 95.3996 12.0422C96.4356 12.0422 97.3316 12.1752 98.0876 12.4412C98.8576 12.6932 99.4526 13.0502 99.8726 13.5122C100.293 13.9602 100.601 14.4572 100.797 15.0032C100.993 15.5352 101.091 16.1232 101.091 16.7672C101.091 18.0972 100.615 19.2242 99.6626 20.1482C98.7246 21.0722 97.4086 21.5342 95.7146 21.5342C94.8606 21.5342 94.2236 21.5132 93.8036 21.4712ZM95.6516 14.4572L93.8036 14.4992V19.0142C94.5456 19.0842 95.1546 19.1192 95.6306 19.1192C96.4566 19.1192 97.1146 18.9162 97.6046 18.5102C98.1086 18.1042 98.3606 17.5162 98.3606 16.7462C98.3606 15.2202 97.4576 14.4572 95.6516 14.4572ZM102.884 19.4342C102.884 17.2922 103.598 15.4932 105.026 14.0372C106.482 12.5812 108.316 11.8532 110.528 11.8532C112.74 11.8532 114.567 12.5532 116.009 13.9532C117.465 15.3672 118.193 17.1942 118.193 19.4342C118.193 21.6322 117.465 23.4452 116.009 24.8732C114.553 26.3012 112.726 27.0152 110.528 27.0152C108.316 27.0152 106.489 26.3152 105.047 24.9152C103.605 23.5152 102.884 21.6882 102.884 19.4342ZM105.614 19.4342C105.614 20.9182 106.083 22.1502 107.021 23.1302C107.959 24.1102 109.128 24.6002 110.528 24.6002C112.04 24.6002 113.237 24.1102 114.119 23.1302C115.015 22.1502 115.463 20.9182 115.463 19.4342C115.463 17.9362 114.987 16.6972 114.035 15.7172C113.083 14.7512 111.914 14.2682 110.528 14.2682C109.114 14.2682 107.938 14.7512 107 15.7172C106.076 16.6832 105.614 17.9222 105.614 19.4342ZM131.389 23.4242L132.376 25.3562C131.914 25.8462 131.249 26.2452 130.381 26.5532C129.527 26.8612 128.624 27.0152 127.672 27.0152C125.432 27.0152 123.605 26.3222 122.191 24.9362C120.791 23.5502 120.091 21.7162 120.091 19.4342C120.091 17.2502 120.756 15.4372 122.086 13.9952C123.402 12.5672 125.243 11.8532 127.609 11.8532C129.485 11.8532 130.976 12.3502 132.082 13.3442L130.927 15.2552C129.933 14.5972 128.827 14.2682 127.609 14.2682C126.209 14.2682 125.061 14.7372 124.165 15.6752C123.269 16.6132 122.821 17.8662 122.821 19.4342C122.821 20.9742 123.29 22.2202 124.228 23.1722C125.18 24.1242 126.405 24.6002 127.903 24.6002C129.191 24.6002 130.353 24.2082 131.389 23.4242ZM143.366 20.5052H136.751V18.0902H143.303C143.051 16.8862 142.456 15.9482 141.518 15.2762C140.58 14.6042 139.411 14.2682 138.011 14.2682C136.723 14.2682 135.575 14.6462 134.567 15.4022L133.559 13.4702C134.833 12.3922 136.52 11.8532 138.62 11.8532C140.804 11.8532 142.582 12.5462 143.954 13.9322C145.326 15.3322 146.012 17.1592 146.012 19.4132C146.012 21.7232 145.319 23.5712 143.933 24.9572C142.533 26.3292 140.664 27.0152 138.326 27.0152C137.346 27.0152 136.415 26.8752 135.533 26.5952C134.651 26.3152 133.937 25.9442 133.391 25.4822L134.504 23.3192C135.61 24.1732 136.87 24.6002 138.284 24.6002C139.628 24.6002 140.755 24.2432 141.665 23.5292C142.589 22.8012 143.156 21.7932 143.366 20.5052ZM151.574 26.7842H148.991V12.0842H151.574V19.0562L157.37 12.0842H160.478L154.43 18.9302L160.856 26.7842H157.58L151.574 19.2032V26.7842ZM172.486 23.4242L173.473 25.3562C173.011 25.8462 172.346 26.2452 171.478 26.5532C170.624 26.8612 169.721 27.0152 168.769 27.0152C166.529 27.0152 164.702 26.3222 163.288 24.9362C161.888 23.5502 161.188 21.7162 161.188 19.4342C161.188 17.2502 161.853 15.4372 163.183 13.9952C164.499 12.5672 166.34 11.8532 168.706 11.8532C170.582 11.8532 172.073 12.3502 173.179 13.3442L172.024 15.2552C171.03 14.5972 169.924 14.2682 168.706 14.2682C167.306 14.2682 166.158 14.7372 165.262 15.6752C164.366 16.6132 163.918 17.8662 163.918 19.4342C163.918 20.9742 164.387 22.2202 165.325 23.1722C166.277 24.1242 167.502 24.6002 169 24.6002C170.288 24.6002 171.45 24.2082 172.486 23.4242ZM186.016 16.3472L178.309 26.7842H176.041V12.0842H178.624V22.5422L186.331 12.0842H188.599V26.7842H186.016V16.3472ZM195.256 26.7842H192.673V12.0842H195.277L200.296 18.9512L205.084 12.0842H207.52V26.7842H204.958V16.1582L200.317 22.6892H199.939L195.256 16.2212V26.7842ZM211.601 26.7842V12.0842H220.19V14.4992H214.184V17.7752C214.758 17.6912 215.416 17.6492 216.158 17.6492C217.684 17.6492 218.888 18.0482 219.77 18.8462C220.652 19.6442 221.093 20.7222 221.093 22.0802C221.093 23.6062 220.596 24.7892 219.602 25.6292C218.622 26.4552 217.229 26.8682 215.423 26.8682C215.087 26.8682 214.345 26.8542 213.197 26.8262C212.973 26.8262 212.735 26.8192 212.483 26.8052C212.231 26.8052 212.035 26.7982 211.895 26.7842C211.769 26.7842 211.671 26.7842 211.601 26.7842ZM215.948 20.0642C215.416 20.0642 214.828 20.1062 214.184 20.1902V24.3692C214.87 24.4252 215.416 24.4532 215.822 24.4532C217.628 24.4532 218.531 23.7252 218.531 22.2692C218.531 21.5832 218.314 21.0442 217.88 20.6522C217.446 20.2602 216.802 20.0642 215.948 20.0642ZM225.215 26.7842H222.611L228.827 12.0422H231.095L237.311 26.7842H234.56L233.027 23.0252H226.748L225.215 26.7842ZM232.04 20.6102L229.898 15.3812L227.735 20.6102H232.04ZM251.378 26.7842H248.816V20.5052H242.096V26.7842H239.513V12.0842H242.096V18.0902H248.816V12.0842H251.378V26.7842ZM258.03 26.7842H255.447V12.0842H258.03V19.0562L263.826 12.0842H266.934L260.886 18.9302L267.312 26.7842H264.036L258.03 19.2032V26.7842Z" fill="#4D67AC"/>
<defs>
<clipPath id="clip0_1438_1609">
<rect width="231.579" height="52.576" fill="white"/>
</clipPath>
</defs>
</svg>
