<svg width="338" height="109" viewBox="0 0 338 109" fill="none" xmlns="http://www.w3.org/2000/svg">
<g clip-path="url(#clip0_1438_1607)">
<path d="M92.9102 42.7359H160.609L169.039 38.103H236.847" stroke="#0F385F"/>
<path d="M42.3685 0.00498867L37.3204 1.99499L36.417 0.000976562L42.3685 0.00498867Z" fill="#C84C61"/>
<path d="M57.6698 0.469727L61.81 6.60049L46.2559 5.11735L57.6698 0.469727Z" fill="#C84C61"/>
<path d="M83.179 0.00488281L76.9991 2.57825L73.6914 0.00488281H83.179Z" fill="#C84C61"/>
<path d="M32.9962 10.376L28.0723 16.6084L21.9121 15.9113L32.9962 10.376Z" fill="#C84C61"/>
<path d="M9.74997 29.2744L9.23835 35.5116L0.0244141 40.79L9.74997 29.2744Z" fill="#C84C61"/>
<path d="M65.0737 12.2637L73.7942 23.4617L59.2744 21.8387L65.0737 12.2637Z" fill="#C84C61"/>
<path d="M67.3221 40.9258L61.3412 53.8688L58.165 44.94L67.3221 40.9258Z" fill="#C84C61"/>
<path d="M36.0693 17.8022L48.0976 12.835L51.3994 19.4579L36.0693 17.8022Z" fill="#C84C61"/>
<path d="M36.4161 0L37.3192 1.99455L32.9961 3.68793L36.4161 0Z" fill="#355A8B"/>
<path d="M28.0713 16.6084L21.9119 24.2926L21.9111 15.9116L28.0713 16.6084Z" fill="#355A8B"/>
<path d="M83.275 0.00488281L80.7551 5.48595L77 2.57825L83.1796 0.00488281H83.275Z" fill="#355A8B"/>
<path d="M9.2372 35.5112L8.54501 42.576L0 40.8126L9.2372 35.5112Z" fill="#355A8B"/>
<path d="M73.7922 23.4638L52.6279 32.7941L59.2729 21.8389L73.7922 23.4638Z" fill="#355A8B"/>
<path d="M42.2878 36.824L21.8291 45.8953V31.9321L42.2878 36.824Z" fill="#355A8B"/>
<path d="M58.1657 44.9399L61.3419 53.8687L45.9033 50.5515L58.1657 44.9399Z" fill="#355A8B"/>
<path d="M36.0693 17.8022L51.3994 19.4579L37.9752 25.1821L36.0693 17.8022Z" fill="#355A8B"/>
<path d="M114.559 31.7378H101.694V10.0378H114.249V13.6028H105.507V18.9968H113.319V22.5618H105.507V28.1728H114.559V31.7378ZM132.204 10.0378H136.668L129.352 20.6708L136.947 31.7378H132.483L126.872 23.5848L121.292 31.7378H116.828L124.423 20.6708L117.169 10.0378H121.633L126.965 17.8808L132.204 10.0378ZM144.54 31.7378H140.727V10.0378H144.54V31.7378ZM152.063 31.7378H148.219L157.395 9.97579H160.743L169.919 31.7378H165.858L163.595 26.1888H154.326L152.063 31.7378ZM162.138 22.6238L158.976 14.9048L155.783 22.6238H162.138ZM176.982 23.6158V31.7378H173.169V10.0378C174.244 10.0378 175.411 10.0275 176.672 10.0068C177.933 9.98613 178.966 9.97579 179.772 9.97579C185.021 9.97579 187.646 12.2078 187.646 16.6718C187.646 18.3251 187.222 19.6891 186.375 20.7638C185.528 21.7971 184.556 22.4998 183.461 22.8718L190.25 31.7378H185.631L179.648 23.6158H176.982ZM179.586 13.5408C179.483 13.5408 179.317 13.5511 179.09 13.5718C178.863 13.5718 178.542 13.5821 178.129 13.6028C177.716 13.6028 177.333 13.6028 176.982 13.6028V20.0508H179.462C180.681 20.0508 181.673 19.7511 182.438 19.1518C183.223 18.5525 183.616 17.7361 183.616 16.7028C183.616 14.5948 182.273 13.5408 179.586 13.5408Z" fill="black"/>
</g>
<path d="M101.987 62.3322V66.2622H100.142V55.7622C100.662 55.7622 101.227 55.7572 101.837 55.7472C102.447 55.7372 102.947 55.7322 103.337 55.7322C105.877 55.7322 107.147 56.8122 107.147 58.9722C107.147 59.7722 106.942 60.4322 106.532 60.9522C106.122 61.4522 105.652 61.7922 105.122 61.9722L108.407 66.2622H106.172L103.277 62.3322H101.987ZM103.247 57.4572C103.197 57.4572 103.117 57.4622 103.007 57.4722C102.897 57.4722 102.742 57.4772 102.542 57.4872C102.342 57.4872 102.157 57.4872 101.987 57.4872V60.6072H103.187C103.777 60.6072 104.257 60.4622 104.627 60.1722C105.007 59.8822 105.197 59.4872 105.197 58.9872C105.197 57.9672 104.547 57.4572 103.247 57.4572ZM116.675 55.7622H118.505V61.9122C118.505 63.4222 118.11 64.5522 117.32 65.3022C116.52 66.0522 115.525 66.4272 114.335 66.4272C112.985 66.4272 111.9 66.0322 111.08 65.2422C110.27 64.4522 109.865 63.3072 109.865 61.8072V55.7622H111.71V61.4172C111.71 62.4572 111.93 63.2672 112.37 63.8472C112.82 64.4172 113.475 64.7022 114.335 64.7022C115.895 64.7022 116.675 63.6472 116.675 61.5372V55.7622ZM125.494 63.4722C125.494 63.1522 125.374 62.8722 125.134 62.6322C124.904 62.3822 124.614 62.1822 124.264 62.0322C123.914 61.8722 123.529 61.6922 123.109 61.4922C122.699 61.2822 122.319 61.0672 121.969 60.8472C121.619 60.6172 121.324 60.3022 121.084 59.9022C120.854 59.4922 120.739 59.0222 120.739 58.4922C120.739 57.6822 121.034 56.9972 121.624 56.4372C122.234 55.8772 123.029 55.5972 124.009 55.5972C125.339 55.5972 126.339 55.9722 127.009 56.7222L126.019 58.1022C125.489 57.5822 124.869 57.3222 124.159 57.3222C123.709 57.3222 123.349 57.4272 123.079 57.6372C122.819 57.8472 122.689 58.1272 122.689 58.4772C122.689 58.6572 122.724 58.8272 122.794 58.9872C122.864 59.1372 122.939 59.2622 123.019 59.3622C123.109 59.4622 123.249 59.5722 123.439 59.6922C123.639 59.8122 123.794 59.9022 123.904 59.9622C124.024 60.0122 124.219 60.0972 124.489 60.2172C124.759 60.3372 124.949 60.4222 125.059 60.4722C125.499 60.6722 125.884 60.8822 126.214 61.1022C126.584 61.3222 126.879 61.6372 127.099 62.0472C127.329 62.4572 127.444 62.9272 127.444 63.4572C127.444 64.3372 127.109 65.0522 126.439 65.6022C125.769 66.1522 124.934 66.4272 123.934 66.4272C123.234 66.4272 122.539 66.2822 121.849 65.9922C121.189 65.6922 120.739 65.2872 120.499 64.7772L121.549 63.5172C121.829 63.8872 122.189 64.1772 122.629 64.3872C123.079 64.5972 123.524 64.7022 123.964 64.7022C124.424 64.7022 124.794 64.5922 125.074 64.3722C125.354 64.1522 125.494 63.8522 125.494 63.4722ZM133.785 63.4722C133.785 63.1522 133.665 62.8722 133.425 62.6322C133.195 62.3822 132.905 62.1822 132.555 62.0322C132.205 61.8722 131.82 61.6922 131.4 61.4922C130.99 61.2822 130.61 61.0672 130.26 60.8472C129.91 60.6172 129.615 60.3022 129.375 59.9022C129.145 59.4922 129.03 59.0222 129.03 58.4922C129.03 57.6822 129.325 56.9972 129.915 56.4372C130.525 55.8772 131.32 55.5972 132.3 55.5972C133.63 55.5972 134.63 55.9722 135.3 56.7222L134.31 58.1022C133.78 57.5822 133.16 57.3222 132.45 57.3222C132 57.3222 131.64 57.4272 131.37 57.6372C131.11 57.8472 130.98 58.1272 130.98 58.4772C130.98 58.6572 131.015 58.8272 131.085 58.9872C131.155 59.1372 131.23 59.2622 131.31 59.3622C131.4 59.4622 131.54 59.5722 131.73 59.6922C131.93 59.8122 132.085 59.9022 132.195 59.9622C132.315 60.0122 132.51 60.0972 132.78 60.2172C133.05 60.3372 133.24 60.4222 133.35 60.4722C133.79 60.6722 134.175 60.8822 134.505 61.1022C134.875 61.3222 135.17 61.6372 135.39 62.0472C135.62 62.4572 135.735 62.9272 135.735 63.4572C135.735 64.3372 135.4 65.0522 134.73 65.6022C134.06 66.1522 133.225 66.4272 132.225 66.4272C131.525 66.4272 130.83 66.2822 130.14 65.9922C129.48 65.6922 129.03 65.2872 128.79 64.7772L129.84 63.5172C130.12 63.8872 130.48 64.1772 130.92 64.3872C131.37 64.5972 131.815 64.7022 132.255 64.7022C132.715 64.7022 133.085 64.5922 133.365 64.3722C133.645 64.1522 133.785 63.8522 133.785 63.4722ZM139.931 66.2622H138.086V55.7622H139.931V66.2622ZM143.571 66.2622H141.711L146.151 55.7322H147.771L152.211 66.2622H150.246L149.151 63.5772H144.666L143.571 66.2622ZM148.446 61.8522L146.916 58.1172L145.371 61.8522H148.446ZM162.754 55.7622V66.2622H161.284L155.509 58.9872V66.2622H153.784V55.7622H155.254L161.029 63.0672V55.7622H162.754ZM106.367 87.2622H100.142V76.7622H106.217V78.4872H101.987V81.0972H105.767V82.8222H101.987V85.5372H106.367V87.2622ZM114.904 76.7622H117.064L113.524 81.9072L117.199 87.2622H115.039L112.324 83.3172L109.624 87.2622H107.464L111.139 81.9072L107.629 76.7622H109.789L112.369 80.5572L114.904 76.7622ZM120.649 83.4672V87.2622H118.804V76.7622C119.244 76.7622 119.719 76.7572 120.229 76.7472C120.749 76.7372 121.269 76.7322 121.789 76.7322C122.529 76.7322 123.169 76.8272 123.709 77.0172C124.259 77.1972 124.684 77.4522 124.984 77.7822C125.284 78.1022 125.504 78.4572 125.644 78.8472C125.784 79.2272 125.854 79.6472 125.854 80.1072C125.854 81.0572 125.514 81.8622 124.834 82.5222C124.164 83.1822 123.224 83.5122 122.014 83.5122C121.404 83.5122 120.949 83.4972 120.649 83.4672ZM121.969 78.4572L120.649 78.4872V81.7122C121.179 81.7622 121.614 81.7872 121.954 81.7872C122.544 81.7872 123.014 81.6422 123.364 81.3522C123.724 81.0622 123.904 80.6422 123.904 80.0922C123.904 79.0022 123.259 78.4572 121.969 78.4572ZM127.003 82.0122C127.003 80.4822 127.513 79.1972 128.533 78.1572C129.573 77.1172 130.883 76.5972 132.463 76.5972C134.043 76.5972 135.348 77.0972 136.378 78.0972C137.418 79.1072 137.938 80.4122 137.938 82.0122C137.938 83.5822 137.418 84.8772 136.378 85.8972C135.338 86.9172 134.033 87.4272 132.463 87.4272C130.883 87.4272 129.578 86.9272 128.548 85.9272C127.518 84.9272 127.003 83.6222 127.003 82.0122ZM128.953 82.0122C128.953 83.0722 129.288 83.9522 129.958 84.6522C130.628 85.3522 131.463 85.7022 132.463 85.7022C133.543 85.7022 134.398 85.3522 135.028 84.6522C135.668 83.9522 135.988 83.0722 135.988 82.0122C135.988 80.9422 135.648 80.0572 134.968 79.3572C134.288 78.6672 133.453 78.3222 132.463 78.3222C131.453 78.3222 130.613 78.6672 129.943 79.3572C129.283 80.0472 128.953 80.9322 128.953 82.0122ZM141.918 83.3322V87.2622H140.073V76.7622C140.593 76.7622 141.158 76.7572 141.768 76.7472C142.378 76.7372 142.878 76.7322 143.268 76.7322C145.808 76.7322 147.078 77.8122 147.078 79.9722C147.078 80.7722 146.873 81.4322 146.463 81.9522C146.053 82.4522 145.583 82.7922 145.053 82.9722L148.338 87.2622H146.103L143.208 83.3322H141.918ZM143.178 78.4572C143.128 78.4572 143.048 78.4622 142.938 78.4722C142.828 78.4722 142.673 78.4772 142.473 78.4872C142.273 78.4872 142.088 78.4872 141.918 78.4872V81.6072H143.118C143.708 81.6072 144.188 81.4622 144.558 81.1722C144.938 80.8822 145.128 80.4872 145.128 79.9872C145.128 78.9672 144.478 78.4572 143.178 78.4572ZM151.504 78.4872H148.099V76.7622H156.754V78.4872H153.349V87.2622H151.504V78.4872ZM168.823 84.8622L169.528 86.2422C169.198 86.5922 168.723 86.8772 168.103 87.0972C167.493 87.3172 166.848 87.4272 166.168 87.4272C164.568 87.4272 163.263 86.9322 162.253 85.9422C161.253 84.9522 160.753 83.6422 160.753 82.0122C160.753 80.4522 161.228 79.1572 162.178 78.1272C163.118 77.1072 164.433 76.5972 166.123 76.5972C167.463 76.5972 168.528 76.9522 169.318 77.6622L168.493 79.0272C167.783 78.5572 166.993 78.3222 166.123 78.3222C165.123 78.3222 164.303 78.6572 163.663 79.3272C163.023 79.9972 162.703 80.8922 162.703 82.0122C162.703 83.1122 163.038 84.0022 163.708 84.6822C164.388 85.3622 165.263 85.7022 166.333 85.7022C167.253 85.7022 168.083 85.4222 168.823 84.8622ZM177.587 87.2622H171.362V76.7622H177.437V78.4872H173.207V81.0972H176.987V82.8222H173.207V85.5372H177.587V87.2622ZM188.96 76.7622V87.2622H187.49L181.715 79.9872V87.2622H179.99V76.7622H181.46L187.235 84.0672V76.7622H188.96ZM193.97 78.4872H190.565V76.7622H199.22V78.4872H195.815V87.2622H193.97V78.4872ZM207.045 87.2622H200.82V76.7622H206.895V78.4872H202.665V81.0972H206.445V82.8222H202.665V85.5372H207.045V87.2622ZM211.293 83.3322V87.2622H209.448V76.7622C209.968 76.7622 210.533 76.7572 211.143 76.7472C211.753 76.7372 212.253 76.7322 212.643 76.7322C215.183 76.7322 216.453 77.8122 216.453 79.9722C216.453 80.7722 216.248 81.4322 215.838 81.9522C215.428 82.4522 214.958 82.7922 214.428 82.9722L217.713 87.2622H215.478L212.583 83.3322H211.293ZM212.553 78.4572C212.503 78.4572 212.423 78.4622 212.313 78.4722C212.203 78.4722 212.048 78.4772 211.848 78.4872C211.648 78.4872 211.463 78.4872 211.293 78.4872V81.6072H212.493C213.083 81.6072 213.563 81.4622 213.933 81.1722C214.313 80.8822 214.503 80.4872 214.503 79.9872C214.503 78.9672 213.853 78.4572 212.553 78.4572ZM107.042 104.332H104.507V102.607H108.767V106.957C108.317 107.407 107.717 107.767 106.967 108.037C106.217 108.297 105.507 108.427 104.837 108.427C103.137 108.427 101.797 107.937 100.817 106.957C99.8465 105.987 99.3615 104.672 99.3615 103.012C99.3615 101.472 99.8415 100.187 100.802 99.1572C101.762 98.1172 103.027 97.5972 104.597 97.5972C105.937 97.5972 107.062 97.9522 107.972 98.6622L107.192 100.132C106.932 99.8822 106.587 99.6872 106.157 99.5472C105.727 99.3972 105.282 99.3222 104.822 99.3222C103.772 99.3222 102.927 99.6522 102.287 100.312C101.637 100.962 101.312 101.862 101.312 103.012C101.312 104.122 101.637 105.017 102.287 105.697C102.927 106.367 103.787 106.702 104.867 106.702C105.247 106.702 105.657 106.632 106.097 106.492C106.537 106.342 106.852 106.172 107.042 105.982V104.332ZM112.885 104.332V108.262H111.04V97.7622C111.56 97.7622 112.125 97.7572 112.735 97.7472C113.345 97.7372 113.845 97.7322 114.235 97.7322C116.775 97.7322 118.045 98.8122 118.045 100.972C118.045 101.772 117.84 102.432 117.43 102.952C117.02 103.452 116.55 103.792 116.02 103.972L119.305 108.262H117.07L114.175 104.332H112.885ZM114.145 99.4572C114.095 99.4572 114.015 99.4622 113.905 99.4722C113.795 99.4722 113.64 99.4772 113.44 99.4872C113.24 99.4872 113.055 99.4872 112.885 99.4872V102.607H114.085C114.675 102.607 115.155 102.462 115.525 102.172C115.905 101.882 116.095 101.487 116.095 100.987C116.095 99.9672 115.445 99.4572 114.145 99.4572ZM119.694 103.012C119.694 101.482 120.204 100.197 121.224 99.1572C122.264 98.1172 123.574 97.5972 125.154 97.5972C126.734 97.5972 128.039 98.0972 129.069 99.0972C130.109 100.107 130.629 101.412 130.629 103.012C130.629 104.582 130.109 105.877 129.069 106.897C128.029 107.917 126.724 108.427 125.154 108.427C123.574 108.427 122.269 107.927 121.239 106.927C120.209 105.927 119.694 104.622 119.694 103.012ZM121.644 103.012C121.644 104.072 121.979 104.952 122.649 105.652C123.319 106.352 124.154 106.702 125.154 106.702C126.234 106.702 127.089 106.352 127.719 105.652C128.359 104.952 128.679 104.072 128.679 103.012C128.679 101.942 128.339 101.057 127.659 100.357C126.979 99.6672 126.144 99.3222 125.154 99.3222C124.144 99.3222 123.304 99.6672 122.634 100.357C121.974 101.047 121.644 101.932 121.644 103.012ZM139.424 97.7622H141.254V103.912C141.254 105.422 140.859 106.552 140.069 107.302C139.269 108.052 138.274 108.427 137.084 108.427C135.734 108.427 134.649 108.032 133.829 107.242C133.019 106.452 132.614 105.307 132.614 103.807V97.7622H134.459V103.417C134.459 104.457 134.679 105.267 135.119 105.847C135.569 106.417 136.224 106.702 137.084 106.702C138.644 106.702 139.424 105.647 139.424 103.537V97.7622ZM145.873 104.467V108.262H144.028V97.7622C144.468 97.7622 144.943 97.7572 145.453 97.7472C145.973 97.7372 146.493 97.7322 147.013 97.7322C147.753 97.7322 148.393 97.8272 148.933 98.0172C149.483 98.1972 149.908 98.4522 150.208 98.7822C150.508 99.1022 150.728 99.4572 150.868 99.8472C151.008 100.227 151.078 100.647 151.078 101.107C151.078 102.057 150.738 102.862 150.058 103.522C149.388 104.182 148.448 104.512 147.238 104.512C146.628 104.512 146.173 104.497 145.873 104.467ZM147.193 99.4572L145.873 99.4872V102.712C146.403 102.762 146.838 102.787 147.178 102.787C147.768 102.787 148.238 102.642 148.588 102.352C148.948 102.062 149.128 101.642 149.128 101.092C149.128 100.002 148.483 99.4572 147.193 99.4572Z" fill="#002E5E"/>
<defs>
<clipPath id="clip0_1438_1607">
<rect width="236.847" height="53.8689" fill="white"/>
</clipPath>
</defs>
</svg>
