<svg width="337" height="111" viewBox="0 0 337 111" fill="none" xmlns="http://www.w3.org/2000/svg">
<g clip-path="url(#clip0_1438_1563)">
<path d="M92.6357 42.7359H160.134L168.54 38.103H236.147" stroke="#0F385F"/>
<path d="M42.2435 0.00498867L37.2103 1.99499L36.3096 0.000976562L42.2435 0.00498867Z" fill="#C84C61"/>
<path d="M57.4993 0.469727L61.6273 6.60049L46.1191 5.11735L57.4993 0.469727Z" fill="#C84C61"/>
<path d="M82.9331 0.00488281L76.7715 2.57825L73.4736 0.00488281H82.9331Z" fill="#C84C61"/>
<path d="M32.899 10.376L27.9896 16.6084L21.8477 15.9113L32.899 10.376Z" fill="#C84C61"/>
<path d="M9.7212 29.2744L9.21109 35.5116L0.0244141 40.79L9.7212 29.2744Z" fill="#C84C61"/>
<path d="M64.8807 12.2637L73.5755 23.4617L59.0986 21.8387L64.8807 12.2637Z" fill="#C84C61"/>
<path d="M67.1231 40.9258L61.16 53.8688L57.9932 44.94L67.1231 40.9258Z" fill="#C84C61"/>
<path d="M35.9619 17.8022L47.9546 12.835L51.2467 19.4579L35.9619 17.8022Z" fill="#C84C61"/>
<path d="M36.3083 0L37.2087 1.99455L32.8984 3.68793L36.3083 0Z" fill="#355A8B"/>
<path d="M27.9876 16.6084L21.8465 24.2926L21.8457 15.9116L27.9876 16.6084Z" fill="#355A8B"/>
<path d="M83.0289 0.00488281L80.5164 5.48595L76.7725 2.57825L82.9338 0.00488281H83.0289Z" fill="#355A8B"/>
<path d="M9.20988 35.5112L8.51974 42.576L0 40.8126L9.20988 35.5112Z" fill="#355A8B"/>
<path d="M73.5743 23.4638L52.4727 32.7941L59.098 21.8389L73.5743 23.4638Z" fill="#355A8B"/>
<path d="M42.1628 36.824L21.7646 45.8953V31.9321L42.1628 36.824Z" fill="#355A8B"/>
<path d="M57.9937 44.9399L61.1605 53.8687L45.7676 50.5515L57.9937 44.9399Z" fill="#355A8B"/>
<path d="M35.9619 17.8022L51.2467 19.4579L37.8621 25.1821L35.9619 17.8022Z" fill="#355A8B"/>
<path d="M113.957 22.4688H104.192V18.9038H113.864C113.492 17.1265 112.613 15.7418 111.229 14.7498C109.844 13.7578 108.118 13.2618 106.052 13.2618C104.15 13.2618 102.456 13.8198 100.968 14.9358L99.4795 12.0838C101.36 10.4925 103.851 9.69679 106.951 9.69679C110.175 9.69679 112.799 10.7198 114.825 12.7658C116.85 14.8325 117.863 17.5295 117.863 20.8568C117.863 24.2668 116.84 26.9948 114.794 29.0408C112.727 31.0661 109.968 32.0788 106.517 32.0788C105.07 32.0788 103.696 31.8721 102.394 31.4588C101.092 31.0455 100.038 30.4978 99.2315 29.8158L100.875 26.6228C102.507 27.8835 104.367 28.5138 106.455 28.5138C108.439 28.5138 110.102 27.9868 111.446 26.9328C112.81 25.8581 113.647 24.3701 113.957 22.4688ZM126.073 31.7378H122.26V10.0378H126.073V20.3298L134.629 10.0378H139.217L130.289 20.1438L139.775 31.7378H134.939L126.073 20.5468V31.7378ZM156.943 26.7778L158.4 29.6298C157.718 30.3531 156.736 30.9421 155.455 31.3968C154.194 31.8515 152.861 32.0788 151.456 32.0788C148.149 32.0788 145.452 31.0558 143.365 29.0098C141.298 26.9638 140.265 24.2565 140.265 20.8878C140.265 17.6638 141.247 14.9875 143.21 12.8588C145.153 10.7508 147.87 9.69679 151.363 9.69679C154.132 9.69679 156.333 10.4305 157.966 11.8978L156.261 14.7188C154.794 13.7475 153.161 13.2618 151.363 13.2618C149.296 13.2618 147.602 13.9541 146.279 15.3388C144.956 16.7235 144.295 18.5731 144.295 20.8878C144.295 23.1611 144.987 25.0005 146.372 26.4058C147.777 27.8111 149.586 28.5138 151.797 28.5138C153.698 28.5138 155.414 27.9351 156.943 26.7778ZM163.063 31.7378H159.219L168.395 9.97579H171.743L180.919 31.7378H176.858L174.595 26.1888H165.326L163.063 31.7378ZM173.138 22.6238L169.976 14.9048L166.783 22.6238H173.138ZM187.982 23.8948V31.7378H184.169V10.0378C185.078 10.0378 186.06 10.0275 187.114 10.0068C188.189 9.98613 189.263 9.97579 190.338 9.97579C191.867 9.97579 193.19 10.1721 194.306 10.5648C195.443 10.9368 196.321 11.4638 196.941 12.1458C197.561 12.8071 198.016 13.5408 198.305 14.3468C198.594 15.1321 198.739 16.0001 198.739 16.9508C198.739 18.9141 198.036 20.5778 196.631 21.9418C195.246 23.3058 193.304 23.9878 190.803 23.9878C189.542 23.9878 188.602 23.9568 187.982 23.8948ZM190.71 13.5408L187.982 13.6028V20.2678C189.077 20.3711 189.976 20.4228 190.679 20.4228C191.898 20.4228 192.87 20.1231 193.593 19.5238C194.337 18.9245 194.709 18.0565 194.709 16.9198C194.709 14.6671 193.376 13.5408 190.71 13.5408Z" fill="black"/>
</g>
<path d="M101.694 66.2622H99.8486V55.7622H105.774V57.4872H101.694V66.2622ZM109.296 62.4672V66.2622H107.451V55.7622C107.891 55.7622 108.366 55.7572 108.876 55.7472C109.396 55.7372 109.916 55.7322 110.436 55.7322C111.176 55.7322 111.816 55.8272 112.356 56.0172C112.906 56.1972 113.331 56.4522 113.631 56.7822C113.931 57.1022 114.151 57.4572 114.291 57.8472C114.431 58.2272 114.501 58.6472 114.501 59.1072C114.501 60.0572 114.161 60.8622 113.481 61.5222C112.811 62.1822 111.871 62.5122 110.661 62.5122C110.051 62.5122 109.596 62.4972 109.296 62.4672ZM110.616 57.4572L109.296 57.4872V60.7122C109.826 60.7622 110.261 60.7872 110.601 60.7872C111.191 60.7872 111.661 60.6422 112.011 60.3522C112.371 60.0622 112.551 59.6422 112.551 59.0922C112.551 58.0022 111.906 57.4572 110.616 57.4572ZM122.844 55.7622H124.704L121.134 63.8172C120.764 64.6572 120.349 65.2772 119.889 65.6772C119.439 66.0672 118.904 66.2622 118.284 66.2622C117.664 66.2622 117.184 66.1222 116.844 65.8422L117.489 64.2822C117.749 64.4522 118.009 64.5372 118.269 64.5372C118.739 64.5372 119.084 64.2922 119.304 63.8022L119.454 63.4422L114.819 55.7622H116.904L120.339 61.6272L122.844 55.7622ZM134.703 66.2622H132.858V57.4872H128.178V66.2622H126.333V55.7622H134.703V66.2622ZM145.982 66.2622H144.137V57.4872H139.457V66.2622H137.612V55.7622H145.982V66.2622ZM149.402 66.2622H147.542L151.982 55.7322H153.602L158.042 66.2622H156.077L154.982 63.5772H150.497L149.402 66.2622ZM154.277 61.8522L152.747 58.1172L151.202 61.8522H154.277ZM101.694 83.4672V87.2622H99.8486V76.7622C100.289 76.7622 100.764 76.7572 101.274 76.7472C101.794 76.7372 102.314 76.7322 102.834 76.7322C103.574 76.7322 104.214 76.8272 104.754 77.0172C105.304 77.1972 105.729 77.4522 106.029 77.7822C106.329 78.1022 106.549 78.4572 106.689 78.8472C106.829 79.2272 106.899 79.6472 106.899 80.1072C106.899 81.0572 106.559 81.8622 105.879 82.5222C105.209 83.1822 104.269 83.5122 103.059 83.5122C102.449 83.5122 101.994 83.4972 101.694 83.4672ZM103.014 78.4572L101.694 78.4872V81.7122C102.224 81.7622 102.659 81.7872 102.999 81.7872C103.589 81.7872 104.059 81.6422 104.409 81.3522C104.769 81.0622 104.949 80.6422 104.949 80.0922C104.949 79.0022 104.304 78.4572 103.014 78.4572ZM108.18 82.0122C108.18 80.4822 108.69 79.1972 109.71 78.1572C110.75 77.1172 112.06 76.5972 113.64 76.5972C115.22 76.5972 116.525 77.0972 117.555 78.0972C118.595 79.1072 119.115 80.4122 119.115 82.0122C119.115 83.5822 118.595 84.8772 117.555 85.8972C116.515 86.9172 115.21 87.4272 113.64 87.4272C112.06 87.4272 110.755 86.9272 109.725 85.9272C108.695 84.9272 108.18 83.6222 108.18 82.0122ZM110.13 82.0122C110.13 83.0722 110.465 83.9522 111.135 84.6522C111.805 85.3522 112.64 85.7022 113.64 85.7022C114.72 85.7022 115.575 85.3522 116.205 84.6522C116.845 83.9522 117.165 83.0722 117.165 82.0122C117.165 80.9422 116.825 80.0572 116.145 79.3572C115.465 78.6672 114.63 78.3222 113.64 78.3222C112.63 78.3222 111.79 78.6672 111.12 79.3572C110.46 80.0472 110.13 80.9322 110.13 82.0122ZM128.54 84.8622L129.245 86.2422C128.915 86.5922 128.44 86.8772 127.82 87.0972C127.21 87.3172 126.565 87.4272 125.885 87.4272C124.285 87.4272 122.98 86.9322 121.97 85.9422C120.97 84.9522 120.47 83.6422 120.47 82.0122C120.47 80.4522 120.945 79.1572 121.895 78.1272C122.835 77.1072 124.15 76.5972 125.84 76.5972C127.18 76.5972 128.245 76.9522 129.035 77.6622L128.21 79.0272C127.5 78.5572 126.71 78.3222 125.84 78.3222C124.84 78.3222 124.02 78.6572 123.38 79.3272C122.74 79.9972 122.42 80.8922 122.42 82.0122C122.42 83.1122 122.755 84.0022 123.425 84.6822C124.105 85.3622 124.98 85.7022 126.05 85.7022C126.97 85.7022 127.8 85.4222 128.54 84.8622ZM137.93 84.8622L138.635 86.2422C138.305 86.5922 137.83 86.8772 137.21 87.0972C136.6 87.3172 135.955 87.4272 135.275 87.4272C133.675 87.4272 132.37 86.9322 131.36 85.9422C130.36 84.9522 129.86 83.6422 129.86 82.0122C129.86 80.4522 130.335 79.1572 131.285 78.1272C132.225 77.1072 133.54 76.5972 135.23 76.5972C136.57 76.5972 137.635 76.9522 138.425 77.6622L137.6 79.0272C136.89 78.5572 136.1 78.3222 135.23 78.3222C134.23 78.3222 133.41 78.6572 132.77 79.3272C132.13 79.9972 131.81 80.8922 131.81 82.0122C131.81 83.1122 132.145 84.0022 132.815 84.6822C133.495 85.3622 134.37 85.7022 135.44 85.7022C136.36 85.7022 137.19 85.4222 137.93 84.8622ZM147.594 79.8072L142.089 87.2622H140.469V76.7622H142.314V84.2322L147.819 76.7622H149.439V87.2622H147.594V79.8072ZM159.474 79.8072L153.969 87.2622H152.349V76.7622H154.194V84.2322L159.699 76.7622H161.319V87.2622H159.474V79.8072ZM154.014 74.2122H155.739C155.859 74.7922 156.284 75.0822 157.014 75.0822C157.774 75.0822 158.174 74.7922 158.214 74.2122H159.939C159.929 74.8422 159.644 75.3622 159.084 75.7722C158.524 76.1622 157.834 76.3572 157.014 76.3572C156.134 76.3572 155.424 76.1672 154.884 75.7872C154.354 75.3972 154.064 74.8722 154.014 74.2122ZM171.518 84.8622L172.223 86.2422C171.893 86.5922 171.418 86.8772 170.798 87.0972C170.188 87.3172 169.543 87.4272 168.863 87.4272C167.263 87.4272 165.958 86.9322 164.948 85.9422C163.948 84.9522 163.448 83.6422 163.448 82.0122C163.448 80.4522 163.923 79.1572 164.873 78.1272C165.813 77.1072 167.128 76.5972 168.818 76.5972C170.158 76.5972 171.223 76.9522 172.013 77.6622L171.188 79.0272C170.478 78.5572 169.688 78.3222 168.818 78.3222C167.818 78.3222 166.998 78.6572 166.358 79.3272C165.718 79.9972 165.398 80.8922 165.398 82.0122C165.398 83.1122 165.733 84.0022 166.403 84.6822C167.083 85.3622 167.958 85.7022 169.028 85.7022C169.948 85.7022 170.778 85.4222 171.518 84.8622ZM175.903 87.2622H174.058V76.7622H175.903V81.7422L180.043 76.7622H182.263L177.943 81.6522L182.533 87.2622H180.193L175.903 81.8472V87.2622ZM182.77 82.0122C182.77 80.4822 183.28 79.1972 184.3 78.1572C185.34 77.1172 186.65 76.5972 188.23 76.5972C189.81 76.5972 191.115 77.0972 192.145 78.0972C193.185 79.1072 193.705 80.4122 193.705 82.0122C193.705 83.5822 193.185 84.8772 192.145 85.8972C191.105 86.9172 189.8 87.4272 188.23 87.4272C186.65 87.4272 185.345 86.9272 184.315 85.9272C183.285 84.9272 182.77 83.6222 182.77 82.0122ZM184.72 82.0122C184.72 83.0722 185.055 83.9522 185.725 84.6522C186.395 85.3522 187.23 85.7022 188.23 85.7022C189.31 85.7022 190.165 85.3522 190.795 84.6522C191.435 83.9522 191.755 83.0722 191.755 82.0122C191.755 80.9422 191.415 80.0572 190.735 79.3572C190.055 78.6672 189.22 78.3222 188.23 78.3222C187.22 78.3222 186.38 78.6672 185.71 79.3572C185.05 80.0472 184.72 80.9322 184.72 82.0122ZM197.685 87.2622H195.84V76.7622H201.765V78.4872H197.685V87.2622ZM202.267 82.0122C202.267 80.4822 202.777 79.1972 203.797 78.1572C204.837 77.1172 206.147 76.5972 207.727 76.5972C209.307 76.5972 210.612 77.0972 211.642 78.0972C212.682 79.1072 213.202 80.4122 213.202 82.0122C213.202 83.5822 212.682 84.8772 211.642 85.8972C210.602 86.9172 209.297 87.4272 207.727 87.4272C206.147 87.4272 204.842 86.9272 203.812 85.9272C202.782 84.9272 202.267 83.6222 202.267 82.0122ZM204.217 82.0122C204.217 83.0722 204.552 83.9522 205.222 84.6522C205.892 85.3522 206.727 85.7022 207.727 85.7022C208.807 85.7022 209.662 85.3522 210.292 84.6522C210.932 83.9522 211.252 83.0722 211.252 82.0122C211.252 80.9422 210.912 80.0572 210.232 79.3572C209.552 78.6672 208.717 78.3222 207.727 78.3222C206.717 78.3222 205.877 78.6672 205.207 79.3572C204.547 80.0472 204.217 80.9322 204.217 82.0122ZM105.924 103.777H101.199V102.052H105.879C105.699 101.192 105.274 100.522 104.604 100.042C103.934 99.5622 103.099 99.3222 102.099 99.3222C101.179 99.3222 100.359 99.5922 99.6386 100.132L98.9186 98.7522C99.8286 97.9822 101.034 97.5972 102.534 97.5972C104.094 97.5972 105.364 98.0922 106.344 99.0822C107.324 100.082 107.814 101.387 107.814 102.997C107.814 104.647 107.319 105.967 106.329 106.957C105.329 107.937 103.994 108.427 102.324 108.427C101.624 108.427 100.959 108.327 100.329 108.127C99.6986 107.927 99.1886 107.662 98.7986 107.332L99.5936 105.787C100.384 106.397 101.284 106.702 102.294 106.702C103.254 106.702 104.059 106.447 104.709 105.937C105.369 105.417 105.774 104.697 105.924 103.777ZM111.786 108.262H109.941V97.7622H111.786V102.742L115.926 97.7622H118.146L113.826 102.652L118.416 108.262H116.076L111.786 102.847V108.262ZM126.724 105.862L127.429 107.242C127.099 107.592 126.624 107.877 126.004 108.097C125.394 108.317 124.749 108.427 124.069 108.427C122.469 108.427 121.164 107.932 120.154 106.942C119.154 105.952 118.654 104.642 118.654 103.012C118.654 101.452 119.129 100.157 120.079 99.1272C121.019 98.1072 122.334 97.5972 124.024 97.5972C125.364 97.5972 126.429 97.9522 127.219 98.6622L126.394 100.027C125.684 99.5572 124.894 99.3222 124.024 99.3222C123.024 99.3222 122.204 99.6572 121.564 100.327C120.924 100.997 120.604 101.892 120.604 103.012C120.604 104.112 120.939 105.002 121.609 105.682C122.289 106.362 123.164 106.702 124.234 106.702C125.154 106.702 125.984 106.422 126.724 105.862ZM137.633 108.262H135.788V99.4872H131.108V108.262H129.263V97.7622H137.633V108.262ZM139.762 103.012C139.762 101.482 140.272 100.197 141.292 99.1572C142.332 98.1172 143.642 97.5972 145.222 97.5972C146.802 97.5972 148.107 98.0972 149.137 99.0972C150.177 100.107 150.697 101.412 150.697 103.012C150.697 104.582 150.177 105.877 149.137 106.897C148.097 107.917 146.792 108.427 145.222 108.427C143.642 108.427 142.337 107.927 141.307 106.927C140.277 105.927 139.762 104.622 139.762 103.012ZM141.712 103.012C141.712 104.072 142.047 104.952 142.717 105.652C143.387 106.352 144.222 106.702 145.222 106.702C146.302 106.702 147.157 106.352 147.787 105.652C148.427 104.952 148.747 104.072 148.747 103.012C148.747 101.942 148.407 101.057 147.727 100.357C147.047 99.6672 146.212 99.3222 145.222 99.3222C144.212 99.3222 143.372 99.6672 142.702 100.357C142.042 101.047 141.712 101.932 141.712 103.012ZM154.677 104.467V108.262H152.832V97.7622C153.272 97.7622 153.747 97.7572 154.257 97.7472C154.777 97.7372 155.297 97.7322 155.817 97.7322C156.557 97.7322 157.197 97.8272 157.737 98.0172C158.287 98.1972 158.712 98.4522 159.012 98.7822C159.312 99.1022 159.532 99.4572 159.672 99.8472C159.812 100.227 159.882 100.647 159.882 101.107C159.882 102.057 159.542 102.862 158.862 103.522C158.192 104.182 157.252 104.512 156.042 104.512C155.432 104.512 154.977 104.497 154.677 104.467ZM155.997 99.4572L154.677 99.4872V102.712C155.207 102.762 155.642 102.787 155.982 102.787C156.572 102.787 157.042 102.642 157.392 102.352C157.752 102.062 157.932 101.642 157.932 101.092C157.932 100.002 157.287 99.4572 155.997 99.4572ZM163.897 99.4872H160.492V97.7622H169.147V99.4872H165.742V108.262H163.897V99.4872ZM179.222 108.262H177.392V103.777H172.592V108.262H170.747V97.7622H172.592V102.052H177.392V97.7622H179.222V108.262ZM181.349 103.012C181.349 101.482 181.859 100.197 182.879 99.1572C183.919 98.1172 185.229 97.5972 186.809 97.5972C188.389 97.5972 189.694 98.0972 190.724 99.0972C191.764 100.107 192.284 101.412 192.284 103.012C192.284 104.582 191.764 105.877 190.724 106.897C189.684 107.917 188.379 108.427 186.809 108.427C185.229 108.427 183.924 107.927 182.894 106.927C181.864 105.927 181.349 104.622 181.349 103.012ZM183.299 103.012C183.299 104.072 183.634 104.952 184.304 105.652C184.974 106.352 185.809 106.702 186.809 106.702C187.889 106.702 188.744 106.352 189.374 105.652C190.014 104.952 190.334 104.072 190.334 103.012C190.334 101.942 189.994 101.057 189.314 100.357C188.634 99.6672 187.799 99.3222 186.809 99.3222C185.799 99.3222 184.959 99.6672 184.289 100.357C183.629 101.047 183.299 101.932 183.299 103.012ZM196.264 108.262H194.419V97.7622H200.344V99.4872H196.264V108.262ZM200.846 103.012C200.846 101.482 201.356 100.197 202.376 99.1572C203.416 98.1172 204.726 97.5972 206.306 97.5972C207.886 97.5972 209.191 98.0972 210.221 99.0972C211.261 100.107 211.781 101.412 211.781 103.012C211.781 104.582 211.261 105.877 210.221 106.897C209.181 107.917 207.876 108.427 206.306 108.427C204.726 108.427 203.421 107.927 202.391 106.927C201.361 105.927 200.846 104.622 200.846 103.012ZM202.796 103.012C202.796 104.072 203.131 104.952 203.801 105.652C204.471 106.352 205.306 106.702 206.306 106.702C207.386 106.702 208.241 106.352 208.871 105.652C209.511 104.952 209.831 104.072 209.831 103.012C209.831 101.942 209.491 101.057 208.811 100.357C208.131 99.6672 207.296 99.3222 206.306 99.3222C205.296 99.3222 204.456 99.6672 203.786 100.357C203.126 101.047 202.796 101.932 202.796 103.012ZM225.09 108.262H217.095V97.7622H218.94V106.537H223.545V97.7622H225.39V106.537H226.815V110.137H225.09V108.262ZM234.863 108.262H228.638V97.7622H234.713V99.4872H230.483V102.097H234.263V103.822H230.483V106.537H234.863V108.262ZM245.741 108.262H243.911V103.777H239.111V108.262H237.266V97.7622H239.111V102.052H243.911V97.7622H245.741V108.262ZM250.747 99.4872H247.342V97.7622H255.997V99.4872H252.592V108.262H250.747V99.4872ZM259.443 104.467V108.262H257.598V97.7622C258.038 97.7622 258.513 97.7572 259.023 97.7472C259.543 97.7372 260.063 97.7322 260.583 97.7322C261.323 97.7322 261.963 97.8272 262.503 98.0172C263.053 98.1972 263.478 98.4522 263.778 98.7822C264.078 99.1022 264.298 99.4572 264.438 99.8472C264.578 100.227 264.648 100.647 264.648 101.107C264.648 102.057 264.308 102.862 263.628 103.522C262.958 104.182 262.018 104.512 260.808 104.512C260.198 104.512 259.743 104.497 259.443 104.467ZM260.763 99.4572L259.443 99.4872V102.712C259.973 102.762 260.408 102.787 260.748 102.787C261.338 102.787 261.808 102.642 262.158 102.352C262.518 102.062 262.698 101.642 262.698 101.092C262.698 100.002 262.053 99.4572 260.763 99.4572ZM266.325 108.262H264.465L268.905 97.7322H270.525L274.965 108.262H273L271.905 105.577H267.42L266.325 108.262ZM271.2 103.852L269.67 100.117L268.125 103.852H271.2Z" fill="#002E5E"/>
<defs>
<clipPath id="clip0_1438_1563">
<rect width="236.146" height="53.8689" fill="white"/>
</clipPath>
</defs>
</svg>
