<svg width="220" height="100" viewBox="0 0 220 100" fill="none" xmlns="http://www.w3.org/2000/svg">
<path d="M174.244 68.4932H179.633L192.809 31.7998H187.419L174.244 68.4932ZM167.175 49.7803C167.175 52.96 165.378 55.6513 161.905 55.6513C158.433 55.6513 156.516 52.7158 156.516 49.7803C156.516 46.8448 158.433 43.9092 161.905 43.9092C165.259 43.9092 167.175 46.4774 167.175 49.7803ZM162.504 39.7507C159.151 39.7507 157.235 41.5852 156.636 42.3188V40.239H151.606V68.4932H156.756V57.4859C157.354 58.0974 159.39 59.8099 162.504 59.8099C167.294 59.8099 171.725 56.1396 171.725 49.7803C171.846 43.0524 166.936 39.7507 162.504 39.7507ZM134.957 47.7004C135.077 46.3553 136.394 43.786 139.509 43.786C142.982 43.786 143.581 46.5995 143.701 47.7004H134.957ZM139.628 39.7507C133.76 39.7507 129.807 44.1534 129.807 49.7803C129.807 55.406 133.76 59.8099 139.748 59.8099C145.736 59.8099 148.252 55.5281 148.252 55.5281L144.419 52.96C144.419 52.96 143.102 55.6513 139.748 55.6513C136.274 55.6513 134.837 52.5937 134.837 51.4916H148.612C148.612 51.4916 148.732 50.636 148.732 50.3918V49.7803C148.732 44.0313 145.378 39.7507 139.628 39.7507ZM123.938 59.3204H129.447L122.62 40.239H117.23L110.283 59.3204H115.913L119.865 47.211H119.985L123.938 59.3204ZM104.894 50.2686C104.894 52.4705 103.695 55.6513 100.221 55.6513C96.7478 55.6513 95.311 52.8379 95.311 50.1465C95.311 47.4563 96.7478 45.0091 100.221 45.0091C103.695 45.0091 104.894 48.0667 104.894 50.2686ZM100.701 40.239C98.1857 40.239 96.3891 41.462 95.9099 41.8294C96.0305 41.2179 96.6282 36.0804 103.335 36.0804H107.528L109.085 31.7998H103.455C96.0294 31.7998 90.279 35.3468 90.279 47.7004C90.279 54.4272 93.1537 59.9308 100.101 59.9308C106.689 59.9308 110.042 55.0387 110.042 50.1465C110.042 43.0524 104.892 40.239 100.699 40.239H100.701ZM76.146 48.312L69.6772 40.3622L69.5577 40.239H65.1267V59.3204H70.2772V48.1899L75.307 54.6724L75.4276 54.9166H76.7437L81.8953 48.1899V59.3204H87.0457V40.239H82.6137L76.146 48.312ZM56.0235 51.3696C56.0235 53.9388 54.5867 55.7734 51.8316 55.7734C49.1961 55.7734 48.957 54.183 48.957 53.5715C48.957 52.1043 50.1546 51.2475 53.1488 50.8801C53.9868 50.758 54.8258 50.758 55.6637 50.758H56.0235V51.3696ZM60.8142 55.0387V48.1899C60.5751 42.1968 58.0591 39.7507 52.7891 39.7507C49.1961 39.7507 46.8007 41.2179 45.9617 41.8294L47.3984 45.7438C47.3984 45.7438 49.5558 43.786 52.3098 43.786C56.2626 43.786 55.7833 47.0889 55.7833 47.0889C54.4672 47.0889 43.8065 46.4774 43.8065 53.5715C43.8065 57.4859 47.0398 59.6867 50.5133 59.6867C53.6281 59.6867 55.4246 58.0963 55.9039 57.4859C55.9039 57.608 56.0235 59.3204 56.0235 59.3204H60.8142C61.0544 59.3204 60.8142 57.73 60.8142 55.0387ZM37.9377 40.7284C37.9377 43.9092 34.9435 45.0091 32.9079 45.0091H30.2723V36.3257H32.9079C34.9435 36.4478 37.9377 37.5488 37.9377 40.7284ZM33.3861 31.7998H25.0023V59.4414H30.3919V49.6571H33.2665C38.7767 49.6571 43.3283 46.7227 43.3283 40.7284C43.3283 34.8574 38.7767 31.7998 33.3872 31.7998" fill="#315EFB"/>
</svg>
