<svg width="220" height="100" viewBox="0 0 220 100" fill="none" xmlns="http://www.w3.org/2000/svg">
<path d="M143 17H77V83H143V17Z" fill="#2C2A6F"/>
<path d="M81.0768 58.4292H96.0618L94.0785 61.9551H90.1118V73.6345H86.3656V61.9551H81.0768V58.4292Z" fill="white"/>
<path d="M116.776 61.9549C116.336 61.9549 116.005 62.1753 116.005 62.616V69.3372C116.005 69.7779 116.336 69.9983 116.776 69.9983H124.489V73.5242H116.776C114.022 73.5242 112.259 71.8714 112.259 69.3372V62.616C112.259 60.0818 114.022 58.3188 116.776 58.3188H125.481L123.387 61.8447H116.776V61.9549Z" fill="white"/>
<path d="M105.538 58.4292H98.4858L96.3923 61.9551H105.427C105.868 61.9551 106.088 62.1754 106.088 62.6162V64.2689H100.249C97.6043 64.2689 95.621 66.2522 95.621 68.8966C95.621 71.541 97.6043 73.5244 100.249 73.5244H110.055V62.506C110.055 60.082 108.292 58.4292 105.538 58.4292ZM106.309 70.2188H100.91C100.139 70.2188 99.5876 69.6679 99.5876 68.8966C99.5876 68.1254 100.139 67.5744 100.91 67.5744H106.309V70.2188Z" fill="white"/>
<path d="M130.659 61.9549C130.219 61.9549 129.888 62.1753 129.888 62.616V69.3372C129.888 69.7779 130.219 69.9983 130.659 69.9983H138.372V73.5242H130.659C127.905 73.5242 126.142 71.8714 126.142 69.3372V62.616C126.142 60.0818 127.905 58.3188 130.659 58.3188H139.364L137.27 61.8447H130.659V61.9549Z" fill="white"/>
</svg>
