<svg width="220" height="100" viewBox="0 0 220 100" fill="none" xmlns="http://www.w3.org/2000/svg">
<path d="M43 43L27.3675 49L19 43H43Z" fill="#0054A5"/>
<path d="M43 43L36.5709 57L27 49.561L42.7541 43H43Z" fill="#0090D0"/>
<path d="M56.9794 55.7717V51.5841C57.4653 51.5841 58.1131 51.5841 58.446 51.5841C61.1452 51.5841 62.5848 49.7907 62.5848 47.8217C62.5848 45.8527 61.5321 44.124 58.212 44.124H55V55.7717H56.9794ZM58.401 46.0375C59.7596 46.0375 60.4884 46.6384 60.4884 47.8864C60.4884 49.1343 59.5886 49.7352 58.383 49.7352C57.9138 49.7315 57.4452 49.7006 56.9794 49.6428V46.0653H58.401V46.0375ZM64.9241 49.9941C64.892 50.7939 65.0223 51.5918 65.3067 52.3371C65.5911 53.0824 66.0233 53.7587 66.5759 54.323C67.1286 54.8873 67.7894 55.3272 68.5165 55.6148C69.2436 55.9025 70.0211 56.0314 70.7993 55.9935C71.576 56.0216 72.3501 55.886 73.0738 55.5951C73.7976 55.3042 74.4557 54.8643 75.0078 54.3023C75.5598 53.7402 75.9941 53.0681 76.2839 52.3272C76.5736 51.5863 76.7127 50.7923 76.6926 49.9941C76.7223 49.1941 76.5896 48.3966 76.303 47.6522C76.0164 46.9078 75.5821 46.2328 75.0278 45.6703C74.4735 45.1077 73.8113 44.6698 73.0833 44.3845C72.3553 44.0992 71.5775 43.9727 70.7993 44.0131C70.025 43.985 69.2533 44.1202 68.5317 44.4101C67.8101 44.7 67.154 45.1386 66.6036 45.6989C66.0532 46.2592 65.6202 46.9293 65.3314 47.668C65.0426 48.4067 64.9039 49.1983 64.9241 49.9941ZM67.0295 49.9941C67.0665 49.233 67.3201 48.4998 67.7589 47.8855C68.1978 47.2711 68.8025 46.8027 69.4981 46.5382C70.1937 46.2738 70.9496 46.225 71.6719 46.3979C72.3943 46.5708 73.0514 46.9577 73.5616 47.5108C74.0719 48.0638 74.4129 48.7586 74.5423 49.5089C74.6718 50.2593 74.584 51.0321 74.2899 51.7317C73.9957 52.4312 73.5082 53.0267 72.8877 53.4441C72.2672 53.8616 71.541 54.0827 70.7993 54.08C70.2882 54.0743 69.7835 53.9631 69.315 53.753C68.8465 53.543 68.4239 53.2383 68.0723 52.8572C67.7206 52.4761 67.4471 52.0262 67.268 51.5344C67.0888 51.0426 67.0077 50.5187 67.0295 49.9941ZM87.7953 53.1463C87.0231 53.7589 86.0717 54.0847 85.0961 54.0707C84.5705 54.0951 84.0457 54.0055 83.5559 53.8079C83.0661 53.6103 82.6222 53.3091 82.2531 52.9238C81.884 52.5384 81.5979 52.0776 81.4135 51.5713C81.229 51.065 81.1502 50.5244 81.1823 49.9848C81.1823 47.4704 82.7568 45.9081 84.8622 45.9081C85.774 45.8813 86.6699 46.1568 87.4174 46.6939L88.3172 45.1778C87.3474 44.3723 86.1263 43.9552 84.8802 44.0038C81.1463 44.0038 79.0949 46.6569 79.0949 49.9848C79.0492 50.7842 79.1686 51.5844 79.4453 52.3329C79.7221 53.0815 80.1498 53.7614 80.7004 54.328C81.2511 54.8946 81.9122 55.3352 82.6403 55.6206C83.3685 55.9061 84.1471 56.03 84.9252 55.9843C86.243 56.0287 87.5285 55.5599 88.5241 54.6716L87.7953 53.1463ZM92.8878 50.8445H97.9713C97.8395 51.7895 97.3646 52.6483 96.642 53.2485C95.9193 53.8486 95.0025 54.1457 94.0755 54.08C93.0207 54.0836 91.9949 53.7258 91.1603 53.0631L90.2606 54.7733C91.3564 55.6078 92.6942 56.0378 94.0575 55.9935C97.6564 55.9935 99.9597 53.6178 99.9597 49.9848C100.011 49.1988 99.9005 48.4105 99.6352 47.6714C99.3699 46.9322 98.9558 46.2589 98.42 45.6953C97.8842 45.1318 97.2388 44.6907 96.5259 44.4008C95.8129 44.1109 95.0484 43.9788 94.2824 44.0131C92.8823 43.9642 91.5088 44.415 90.3955 45.2888L91.1694 46.8141C91.9265 46.2189 92.8522 45.8943 93.8056 45.8896C95.9469 45.8896 97.4855 46.9712 97.8813 48.9032H92.8428L92.8878 50.8445ZM103.271 55.7994H105.25V49.8184L109.875 55.7717H112.385L107.446 49.5781L112.097 44.161H109.713L105.214 49.7075V44.161H103.235L103.271 55.7994ZM122.3 53.1463C121.526 53.7556 120.576 54.0811 119.601 54.0707C119.076 54.0936 118.551 54.0031 118.062 53.805C117.573 53.6069 117.13 53.3056 116.761 52.9206C116.392 52.5355 116.106 52.0753 115.921 51.5697C115.736 51.064 115.656 50.5241 115.687 49.9848C115.643 49.4623 115.706 48.9361 115.872 48.4402C116.038 47.9442 116.303 47.4895 116.651 47.1054C116.999 46.7213 117.421 46.4163 117.89 46.2101C118.359 46.0039 118.866 45.901 119.376 45.9081C120.285 45.88 121.179 46.1557 121.922 46.6939L122.822 45.1778C121.848 44.3739 120.625 43.9571 119.376 44.0038C115.642 44.0038 113.6 46.6569 113.6 49.9848C113.553 50.7845 113.671 51.5854 113.947 52.3346C114.223 53.0838 114.651 53.7644 115.202 54.3313C115.753 54.8983 116.415 55.3387 117.143 55.6237C117.872 55.9086 118.652 56.0315 119.43 55.9843C120.748 56.0315 122.035 55.5623 123.029 54.6716L122.3 53.1463ZM127.744 55.7994L133.664 47.5628V55.7994H135.652V44.161H133.916L127.986 52.4253V44.161H125.998V55.7717L127.744 55.7994ZM139.746 55.7994H141.743V47.4796L145.342 52.5824H145.639L149.238 47.4334V55.8179H151.2V44.161H149.328L145.648 49.5966L141.788 44.161H139.746V55.7994ZM155.266 55.7994C155.923 55.7994 156.895 55.8734 158.2 55.8734C160.98 55.8734 162.563 54.4867 162.563 52.0925C162.563 49.9478 161.133 48.5889 158.766 48.5889C158.258 48.5915 157.75 48.6254 157.246 48.6906V46.0653H161.87V44.161H155.266V55.7994ZM158.604 50.5025C159.99 50.5025 160.593 51.242 160.593 52.2312C160.593 53.2203 159.981 53.9598 158.505 53.9598C158.092 53.9598 157.705 53.9598 157.246 53.8951V50.5949C157.696 50.5321 158.15 50.5012 158.604 50.5025ZM164.687 55.7994H166.693L167.881 52.832H172.694L173.882 55.7994H175.996L171.21 44.161H169.473L164.687 55.7994ZM170.292 46.7956L171.948 50.9277H168.637L170.292 46.7956ZM185.812 55.7994H187.774V44.161H185.812V48.9032H180.648V44.161H178.651V55.7717H180.648V50.8168H185.812V55.7994ZM191.877 55.7994H193.865V49.8184L198.481 55.7994H201L196.06 49.6058L200.748 44.161H198.364L193.865 49.7075V44.161H191.877V55.7994Z" fill="#0054A5"/>
</svg>
