<svg width="1173" height="22" viewBox="0 0 1173 22" fill="none" xmlns="http://www.w3.org/2000/svg">
<path d="M28.224 4.8H29.872L24.88 10.064L30.128 16H28.384L23.312 10.16L28.224 4.8ZM23.04 16H21.68V4.8H23.04V16ZM37.7194 16H36.4394V10.08H33.9114L33.8314 11.296C33.746 12.288 33.618 13.1147 33.4474 13.776C33.2874 14.4267 33.074 14.9173 32.8074 15.248C32.5514 15.568 32.2794 15.792 31.9914 15.92C31.7034 16.0373 31.3514 16.096 30.9354 16.096L30.8394 14.848C30.9567 14.8587 31.0794 14.8427 31.2074 14.8C31.3354 14.7467 31.474 14.64 31.6234 14.48C31.7834 14.32 31.922 14.1067 32.0394 13.84C32.1674 13.5733 32.2794 13.2 32.3754 12.72C32.482 12.2293 32.5514 11.6693 32.5834 11.04L32.7114 8.8H37.7194V16ZM41.387 16H40.027V8.8H41.387V11.68H42.955C43.1043 10.7627 43.5043 10.0267 44.155 9.472C44.8163 8.91733 45.627 8.64 46.587 8.64C47.7177 8.64 48.6243 8.99733 49.307 9.712C50.0003 10.4267 50.347 11.3227 50.347 12.4C50.347 13.4773 49.995 14.3787 49.291 15.104C48.5977 15.808 47.6963 16.16 46.587 16.16C45.5737 16.16 44.7417 15.8667 44.091 15.28C43.4403 14.6933 43.0563 13.92 42.939 12.96H41.387V16ZM44.987 10.608C44.5603 11.0667 44.347 11.664 44.347 12.4C44.347 13.136 44.5603 13.7333 44.987 14.192C45.4137 14.6507 45.963 14.88 46.635 14.88C47.307 14.88 47.851 14.656 48.267 14.208C48.6937 13.7493 48.907 13.1467 48.907 12.4C48.907 11.664 48.699 11.0667 48.283 10.608C47.867 10.1493 47.3177 9.92 46.635 9.92C45.963 9.92 45.4137 10.1493 44.987 10.608ZM56.3113 8.8H57.5913V16H56.3113V13.2C55.7566 13.552 55.0899 13.728 54.3113 13.728C52.6046 13.728 51.7513 12.8107 51.7513 10.976V8.8H53.1113V10.832C53.1113 11.9627 53.6286 12.528 54.6633 12.528C55.3353 12.528 55.8846 12.3787 56.3113 12.08V8.8ZM65.582 14.208L65.982 15.216C65.2887 15.8453 64.3873 16.16 63.278 16.16C62.1047 16.16 61.1713 15.8187 60.478 15.136C59.774 14.4533 59.422 13.5413 59.422 12.4C59.422 11.3227 59.7527 10.4267 60.414 9.712C61.0647 8.99733 61.9713 8.64 63.134 8.64C64.094 8.64 64.8887 8.94933 65.518 9.568C66.158 10.176 66.478 10.9653 66.478 11.936C66.478 12.2453 66.4513 12.5333 66.398 12.8H60.862C60.9153 13.472 61.166 14 61.614 14.384C62.0727 14.768 62.6593 14.96 63.374 14.96C64.3127 14.96 65.0487 14.7093 65.582 14.208ZM63.07 9.84C62.4407 9.84 61.918 10.016 61.502 10.368C61.0967 10.72 60.8567 11.184 60.782 11.76H65.15C65.118 11.1627 64.9153 10.6933 64.542 10.352C64.1793 10.0107 63.6887 9.84 63.07 9.84ZM68.2145 16V8.8C68.2678 8.8 68.3425 8.8 68.4385 8.8C68.5345 8.78933 68.6732 8.784 68.8545 8.784C69.0358 8.77333 69.2012 8.768 69.3505 8.768C70.1398 8.74667 70.6305 8.736 70.8225 8.736C72.8918 8.736 73.9265 9.35467 73.9265 10.592C73.9265 11.0187 73.7932 11.3867 73.5265 11.696C73.2598 11.9947 72.9132 12.176 72.4865 12.24V12.272C73.6065 12.4747 74.1665 13.04 74.1665 13.968C74.1665 15.3653 73.0625 16.064 70.8545 16.064C70.7478 16.064 70.2785 16.0533 69.4465 16.032C69.2865 16.032 69.1105 16.0267 68.9185 16.016C68.7265 16.016 68.5772 16.0107 68.4705 16C68.3638 16 68.2785 16 68.2145 16ZM71.0305 12.768H69.4945V14.976C70.2625 15.008 70.7532 15.024 70.9665 15.024C72.1932 15.024 72.8065 14.64 72.8065 13.872C72.8065 13.136 72.2145 12.768 71.0305 12.768ZM70.9185 9.776C70.6092 9.776 70.1345 9.792 69.4945 9.824V11.968H71.1105C71.5478 11.968 71.8998 11.8667 72.1665 11.664C72.4332 11.4613 72.5665 11.1893 72.5665 10.848C72.5665 10.1333 72.0172 9.776 70.9185 9.776ZM78.4408 16H76.1208V8.8H77.4008V10.96H78.5848C79.5661 10.96 80.2861 11.184 80.7448 11.632C81.2034 12.0693 81.4328 12.672 81.4328 13.44C81.4328 14.1653 81.1928 14.7733 80.7128 15.264C80.2541 15.7547 79.4968 16 78.4408 16ZM84.0888 16H82.8088V8.8H84.0888V16ZM78.3448 12.16H77.4008V14.8H78.3288C78.9368 14.8 79.3794 14.6933 79.6568 14.48C79.9341 14.2667 80.0728 13.936 80.0728 13.488C80.0728 12.6027 79.4968 12.16 78.3448 12.16ZM92.0664 14.208L92.4664 15.216C91.773 15.8453 90.8717 16.16 89.7624 16.16C88.589 16.16 87.6557 15.8187 86.9624 15.136C86.2584 14.4533 85.9064 13.5413 85.9064 12.4C85.9064 11.3227 86.237 10.4267 86.8984 9.712C87.549 8.99733 88.4557 8.64 89.6184 8.64C90.5784 8.64 91.373 8.94933 92.0024 9.568C92.6424 10.176 92.9624 10.9653 92.9624 11.936C92.9624 12.2453 92.9357 12.5333 92.8824 12.8H87.3464C87.3997 13.472 87.6504 14 88.0984 14.384C88.557 14.768 89.1437 14.96 89.8584 14.96C90.797 14.96 91.533 14.7093 92.0664 14.208ZM89.5544 9.84C88.925 9.84 88.4024 10.016 87.9864 10.368C87.581 10.72 87.341 11.184 87.2664 11.76H91.6344C91.6024 11.1627 91.3997 10.6933 91.0264 10.352C90.6637 10.0107 90.173 9.84 89.5544 9.84ZM94.4109 15.264C94.4109 15.008 94.4909 14.8053 94.6509 14.656C94.8109 14.496 95.0349 14.416 95.3229 14.416C95.6642 14.416 95.9415 14.56 96.1549 14.848C96.3682 15.1253 96.4749 15.4987 96.4749 15.968C96.4749 16.544 96.3149 17.04 95.9949 17.456C95.6855 17.8827 95.2589 18.176 94.7149 18.336L94.3629 17.728C94.9175 17.5573 95.2589 17.2 95.3869 16.656C95.4615 16.2933 95.4562 16.0267 95.3709 15.856C95.3069 15.952 95.1895 16 95.0189 16C94.8589 16 94.7149 15.9307 94.5869 15.792C94.4695 15.6427 94.4109 15.4667 94.4109 15.264ZM107.616 16H106.336V10H102.416V16H101.136V8.8H107.616V16ZM110.509 15.104C109.805 14.3787 109.453 13.4773 109.453 12.4C109.453 11.312 109.805 10.416 110.509 9.712C111.224 8.99733 112.152 8.64 113.293 8.64C114.435 8.64 115.357 8.99733 116.061 9.712C116.776 10.416 117.133 11.312 117.133 12.4C117.133 13.488 116.776 14.3893 116.061 15.104C115.357 15.808 114.435 16.16 113.293 16.16C112.163 16.16 111.235 15.808 110.509 15.104ZM111.517 10.56C111.048 11.0293 110.813 11.6427 110.813 12.4C110.813 13.1573 111.043 13.7707 111.501 14.24C111.971 14.72 112.568 14.96 113.293 14.96C114.019 14.96 114.611 14.7253 115.069 14.256C115.539 13.776 115.773 13.1573 115.773 12.4C115.773 11.664 115.539 11.0507 115.069 10.56C114.611 10.08 114.019 9.84 113.293 9.84C112.568 9.84 111.976 10.08 111.517 10.56ZM128.11 14.032L128.718 14.96C128.099 15.76 127.177 16.16 125.95 16.16C124.798 16.16 123.865 15.8187 123.15 15.136C122.446 14.4533 122.094 13.5413 122.094 12.4C122.094 11.344 122.441 10.4533 123.134 9.728C123.827 9.00267 124.697 8.64 125.742 8.64C127.001 8.64 127.945 8.95467 128.574 9.584L127.982 10.592C127.427 10.0907 126.739 9.84 125.918 9.84C125.246 9.84 124.665 10.0853 124.174 10.576C123.694 11.056 123.454 11.664 123.454 12.4C123.454 13.1787 123.699 13.7973 124.19 14.256C124.691 14.7253 125.31 14.96 126.046 14.96C126.878 14.96 127.566 14.6507 128.11 14.032ZM136.866 16H135.586V10H131.666V16H130.386V8.8H136.866V16ZM144.623 10.64L140.463 16H139.183V8.8H140.463V14.16L144.623 8.8H145.903V16H144.623V10.64ZM153.766 14.032L154.374 14.96C153.755 15.76 152.833 16.16 151.606 16.16C150.454 16.16 149.521 15.8187 148.806 15.136C148.102 14.4533 147.75 13.5413 147.75 12.4C147.75 11.344 148.097 10.4533 148.79 9.728C149.483 9.00267 150.353 8.64 151.398 8.64C152.657 8.64 153.601 8.95467 154.23 9.584L153.638 10.592C153.083 10.0907 152.395 9.84 151.574 9.84C150.902 9.84 150.321 10.0853 149.83 10.576C149.35 11.056 149.11 11.664 149.11 12.4C149.11 13.1787 149.355 13.7973 149.846 14.256C150.347 14.7253 150.966 14.96 151.702 14.96C152.534 14.96 153.222 14.6507 153.766 14.032ZM160.667 8.8H162.347L159.195 12.24L162.651 16H160.875L157.627 12.32L160.667 8.8ZM157.323 16H156.043V8.8H157.323V16ZM164.395 10.32L164.059 9.296C164.774 8.85867 165.574 8.64 166.459 8.64C167.43 8.64 168.134 8.88 168.571 9.36C169.009 9.84 169.227 10.5813 169.227 11.584V16H168.011V15.072C167.446 15.7653 166.678 16.112 165.707 16.112C165.046 16.112 164.513 15.9147 164.107 15.52C163.702 15.1147 163.499 14.5707 163.499 13.888C163.499 13.184 163.75 12.6293 164.251 12.224C164.753 11.808 165.409 11.6 166.219 11.6C166.977 11.6 167.574 11.7547 168.011 12.064C168.011 11.2533 167.899 10.672 167.675 10.32C167.451 9.968 167.019 9.792 166.379 9.792C165.729 9.792 165.067 9.968 164.395 10.32ZM166.155 14.96C166.87 14.96 167.489 14.6507 168.011 14.032V13.12C167.563 12.8 167.025 12.64 166.395 12.64C165.958 12.64 165.59 12.7467 165.291 12.96C165.003 13.1627 164.859 13.4507 164.859 13.824C164.859 14.176 164.971 14.4533 165.195 14.656C165.43 14.8587 165.75 14.96 166.155 14.96ZM172.651 16H171.371V8.8H172.539L175.307 12.368L177.931 8.8H179.067V16H177.787V10.752L175.291 14.096H175.243L172.651 10.752V16ZM181.098 15.264C181.098 15.008 181.178 14.8053 181.338 14.656C181.498 14.496 181.722 14.416 182.01 14.416C182.352 14.416 182.629 14.56 182.842 14.848C183.056 15.1253 183.162 15.4987 183.162 15.968C183.162 16.544 183.002 17.04 182.682 17.456C182.373 17.8827 181.946 18.176 181.402 18.336L181.05 17.728C181.605 17.5573 181.946 17.2 182.074 16.656C182.149 16.2933 182.144 16.0267 182.058 15.856C181.994 15.952 181.877 16 181.706 16C181.546 16 181.402 15.9307 181.274 15.792C181.157 15.6427 181.098 15.4667 181.098 15.264ZM189.552 10.08H186.912V8.8H193.472V10.08H190.832V16H189.552V10.08ZM196.151 19.2H194.871V8.8H196.151V9.648C196.407 9.34933 196.759 9.10933 197.207 8.928C197.655 8.736 198.119 8.64 198.599 8.64C199.623 8.64 200.428 8.98133 201.015 9.664C201.623 10.336 201.927 11.2107 201.927 12.288C201.927 13.3867 201.58 14.3093 200.887 15.056C200.204 15.792 199.303 16.16 198.183 16.16C197.319 16.16 196.641 15.9947 196.151 15.664V19.2ZM198.231 9.84C197.377 9.84 196.684 10.1707 196.151 10.832V14.4C196.716 14.7733 197.356 14.96 198.071 14.96C198.828 14.96 199.431 14.72 199.879 14.24C200.337 13.7493 200.567 13.1147 200.567 12.336C200.567 11.5787 200.359 10.976 199.943 10.528C199.527 10.0693 198.956 9.84 198.231 9.84ZM204.145 10.32L203.809 9.296C204.524 8.85867 205.324 8.64 206.209 8.64C207.18 8.64 207.884 8.88 208.321 9.36C208.759 9.84 208.977 10.5813 208.977 11.584V16H207.761V15.072C207.196 15.7653 206.428 16.112 205.457 16.112C204.796 16.112 204.263 15.9147 203.857 15.52C203.452 15.1147 203.249 14.5707 203.249 13.888C203.249 13.184 203.5 12.6293 204.001 12.224C204.503 11.808 205.159 11.6 205.969 11.6C206.727 11.6 207.324 11.7547 207.761 12.064C207.761 11.2533 207.649 10.672 207.425 10.32C207.201 9.968 206.769 9.792 206.129 9.792C205.479 9.792 204.817 9.968 204.145 10.32ZM205.905 14.96C206.62 14.96 207.239 14.6507 207.761 14.032V13.12C207.313 12.8 206.775 12.64 206.145 12.64C205.708 12.64 205.34 12.7467 205.041 12.96C204.753 13.1627 204.609 13.4507 204.609 13.824C204.609 14.176 204.721 14.4533 204.945 14.656C205.18 14.8587 205.5 14.96 205.905 14.96ZM217.681 16H216.401V12.96H212.401V16H211.121V8.8H212.401V11.76H216.401V8.8H217.681V16ZM225.532 14.032L226.14 14.96C225.521 15.76 224.598 16.16 223.372 16.16C222.22 16.16 221.286 15.8187 220.572 15.136C219.868 14.4533 219.516 13.5413 219.516 12.4C219.516 11.344 219.862 10.4533 220.556 9.728C221.249 9.00267 222.118 8.64 223.164 8.64C224.422 8.64 225.366 8.95467 225.996 9.584L225.404 10.592C224.849 10.0907 224.161 9.84 223.34 9.84C222.668 9.84 222.086 10.0853 221.596 10.576C221.116 11.056 220.876 11.664 220.876 12.4C220.876 13.1787 221.121 13.7973 221.612 14.256C222.113 14.7253 222.732 14.96 223.468 14.96C224.3 14.96 224.988 14.6507 225.532 14.032ZM233.876 16H232.596V10.08H230.068L229.988 11.296C229.902 12.288 229.774 13.1147 229.604 13.776C229.444 14.4267 229.23 14.9173 228.964 15.248C228.708 15.568 228.436 15.792 228.148 15.92C227.86 16.0373 227.508 16.096 227.092 16.096L226.996 14.848C227.113 14.8587 227.236 14.8427 227.364 14.8C227.492 14.7467 227.63 14.64 227.78 14.48C227.94 14.32 228.078 14.1067 228.196 13.84C228.324 13.5733 228.436 13.2 228.532 12.72C228.638 12.2293 228.708 11.6693 228.74 11.04L228.868 8.8H233.876V16ZM241.623 10.64L237.463 16H236.183V8.8H237.463V14.16L241.623 8.8H242.903V16H241.623V10.64ZM246.51 19.2H245.23V8.8H246.51V9.648C246.766 9.34933 247.118 9.10933 247.566 8.928C248.014 8.736 248.478 8.64 248.958 8.64C249.982 8.64 250.787 8.98133 251.374 9.664C251.982 10.336 252.286 11.2107 252.286 12.288C252.286 13.3867 251.939 14.3093 251.246 15.056C250.563 15.792 249.662 16.16 248.542 16.16C247.678 16.16 247.001 15.9947 246.51 15.664V19.2ZM248.59 9.84C247.737 9.84 247.043 10.1707 246.51 10.832V14.4C247.075 14.7733 247.715 14.96 248.43 14.96C249.187 14.96 249.79 14.72 250.238 14.24C250.697 13.7493 250.926 13.1147 250.926 12.336C250.926 11.5787 250.718 10.976 250.302 10.528C249.886 10.0693 249.315 9.84 248.59 9.84ZM258.928 8.8H260.384L257.504 16C256.981 17.2693 256.528 18.112 256.144 18.528C255.738 18.976 255.274 19.2 254.752 19.2C254.282 19.2 253.829 19.0507 253.392 18.752L253.808 17.776C254.149 17.936 254.416 18.016 254.608 18.016C254.906 18.016 255.173 17.888 255.408 17.632C255.653 17.376 255.898 16.96 256.144 16.384L256.304 16L252.848 8.8H254.384L256.496 13.376C256.538 13.4507 256.682 13.8133 256.928 14.464C257.024 14.112 257.136 13.744 257.264 13.36L258.928 8.8ZM267.098 14.208L267.498 15.216C266.804 15.8453 265.903 16.16 264.794 16.16C263.62 16.16 262.687 15.8187 261.994 15.136C261.29 14.4533 260.938 13.5413 260.938 12.4C260.938 11.3227 261.268 10.4267 261.93 9.712C262.58 8.99733 263.487 8.64 264.65 8.64C265.61 8.64 266.404 8.94933 267.034 9.568C267.674 10.176 267.994 10.9653 267.994 11.936C267.994 12.2453 267.967 12.5333 267.914 12.8H262.378C262.431 13.472 262.682 14 263.13 14.384C263.588 14.768 264.175 14.96 264.89 14.96C265.828 14.96 266.564 14.7093 267.098 14.208ZM264.586 9.84C263.956 9.84 263.434 10.016 263.018 10.368C262.612 10.72 262.372 11.184 262.298 11.76H266.666C266.634 11.1627 266.431 10.6933 266.058 10.352C265.695 10.0107 265.204 9.84 264.586 9.84ZM271.01 16H269.73V8.8H270.898L273.666 12.368L276.29 8.8H277.426V16H276.146V10.752L273.65 14.096H273.602L271.01 10.752V16ZM282.066 16H279.746V8.8H281.026V10.96H282.21C283.191 10.96 283.911 11.184 284.37 11.632C284.828 12.0693 285.058 12.672 285.058 13.44C285.058 14.1653 284.818 14.7733 284.338 15.264C283.879 15.7547 283.122 16 282.066 16ZM287.714 16H286.434V8.8H287.714V16ZM281.97 12.16H281.026V14.8H281.954C282.562 14.8 283.004 14.6933 283.282 14.48C283.559 14.2667 283.698 13.936 283.698 13.488C283.698 12.6027 283.122 12.16 281.97 12.16ZM295.691 14.208L296.091 15.216C295.398 15.8453 294.497 16.16 293.387 16.16C292.214 16.16 291.281 15.8187 290.587 15.136C289.883 14.4533 289.531 13.5413 289.531 12.4C289.531 11.3227 289.862 10.4267 290.523 9.712C291.174 8.99733 292.081 8.64 293.243 8.64C294.203 8.64 294.998 8.94933 295.627 9.568C296.267 10.176 296.587 10.9653 296.587 11.936C296.587 12.2453 296.561 12.5333 296.507 12.8H290.971C291.025 13.472 291.275 14 291.723 14.384C292.182 14.768 292.769 14.96 293.483 14.96C294.422 14.96 295.158 14.7093 295.691 14.208ZM293.179 9.84C292.55 9.84 292.027 10.016 291.611 10.368C291.206 10.72 290.966 11.184 290.891 11.76H295.259C295.227 11.1627 295.025 10.6933 294.651 10.352C294.289 10.0107 293.798 9.84 293.179 9.84Z" fill="#EC1C24"/>
<circle cx="6" cy="11" r="6" fill="#EC1C24"/>
<path d="M354.304 16.16C353.525 16.16 352.8 15.9947 352.128 15.664C351.467 15.3333 350.971 14.912 350.64 14.4L351.392 13.488C351.744 13.904 352.181 14.24 352.704 14.496C353.237 14.752 353.744 14.88 354.224 14.88C354.992 14.88 355.605 14.688 356.064 14.304C356.533 13.92 356.768 13.3973 356.768 12.736C356.768 12.1813 356.576 11.7387 356.192 11.408C355.808 11.0773 355.269 10.912 354.576 10.912H353.28V9.632H354.48C354.971 9.632 355.403 9.456 355.776 9.104C356.149 8.73067 356.336 8.27733 356.336 7.744C356.336 7.168 356.149 6.72 355.776 6.4C355.403 6.08 354.912 5.92 354.304 5.92C353.312 5.92 352.464 6.336 351.76 7.168L350.96 6.272C351.344 5.76 351.845 5.36 352.464 5.072C353.083 4.784 353.744 4.64 354.448 4.64C355.44 4.64 356.229 4.90667 356.816 5.44C357.403 5.96267 357.696 6.688 357.696 7.616C357.696 8.13867 357.552 8.63467 357.264 9.104C356.987 9.56267 356.592 9.92 356.08 10.176V10.224C356.731 10.352 357.232 10.656 357.584 11.136C357.947 11.6053 358.128 12.1813 358.128 12.864C358.128 13.8773 357.755 14.6773 357.008 15.264C356.261 15.8613 355.36 16.16 354.304 16.16ZM360.786 10.32L360.45 9.296C361.165 8.85867 361.965 8.64 362.85 8.64C363.821 8.64 364.525 8.88 364.962 9.36C365.399 9.84 365.618 10.5813 365.618 11.584V16H364.402V15.072C363.837 15.7653 363.069 16.112 362.098 16.112C361.437 16.112 360.903 15.9147 360.498 15.52C360.093 15.1147 359.89 14.5707 359.89 13.888C359.89 13.184 360.141 12.6293 360.642 12.224C361.143 11.808 361.799 11.6 362.61 11.6C363.367 11.6 363.965 11.7547 364.402 12.064C364.402 11.2533 364.29 10.672 364.066 10.32C363.842 9.968 363.41 9.792 362.77 9.792C362.119 9.792 361.458 9.968 360.786 10.32ZM362.546 14.96C363.261 14.96 363.879 14.6507 364.402 14.032V13.12C363.954 12.8 363.415 12.64 362.786 12.64C362.349 12.64 361.981 12.7467 361.682 12.96C361.394 13.1627 361.25 13.4507 361.25 13.824C361.25 14.176 361.362 14.4533 361.586 14.656C361.821 14.8587 362.141 14.96 362.546 14.96ZM372.385 8.8H374.065L370.913 12.24L374.369 16H372.593L369.345 12.32L372.385 8.8ZM369.041 16H367.761V8.8H369.041V16ZM377.01 19.2H375.73V8.8H377.01V9.648C377.266 9.34933 377.618 9.10933 378.066 8.928C378.514 8.736 378.978 8.64 379.458 8.64C380.482 8.64 381.287 8.98133 381.874 9.664C382.482 10.336 382.786 11.2107 382.786 12.288C382.786 13.3867 382.439 14.3093 381.746 15.056C381.063 15.792 380.162 16.16 379.042 16.16C378.178 16.16 377.501 15.9947 377.01 15.664V19.2ZM379.09 9.84C378.237 9.84 377.543 10.1707 377.01 10.832V14.4C377.575 14.7733 378.215 14.96 378.93 14.96C379.687 14.96 380.29 14.72 380.738 14.24C381.197 13.7493 381.426 13.1147 381.426 12.336C381.426 11.5787 381.218 10.976 380.802 10.528C380.386 10.0693 379.815 9.84 379.09 9.84ZM386.941 16H384.621V8.8H385.901V10.96H387.085C388.066 10.96 388.786 11.184 389.245 11.632C389.703 12.0693 389.933 12.672 389.933 13.44C389.933 14.1653 389.693 14.7733 389.213 15.264C388.754 15.7547 387.997 16 386.941 16ZM392.589 16H391.309V8.8H392.589V16ZM386.845 12.16H385.901V14.8H386.829C387.437 14.8 387.879 14.6933 388.157 14.48C388.434 14.2667 388.573 13.936 388.573 13.488C388.573 12.6027 387.997 12.16 386.845 12.16ZM396.614 10.08H393.974V8.8H400.534V10.08H397.894V16H396.614V10.08ZM404.253 16H401.933V8.8H403.213V10.96H404.397C405.379 10.96 406.099 11.184 406.557 11.632C407.016 12.0693 407.245 12.672 407.245 13.44C407.245 14.1653 407.005 14.7733 406.525 15.264C406.067 15.7547 405.309 16 404.253 16ZM409.901 16H408.621V8.8H409.901V16ZM404.157 12.16H403.213V14.8H404.141C404.749 14.8 405.192 14.6933 405.469 14.48C405.747 14.2667 405.885 13.936 405.885 13.488C405.885 12.6027 405.309 12.16 404.157 12.16ZM417.879 14.208L418.279 15.216C417.586 15.8453 416.684 16.16 415.575 16.16C414.402 16.16 413.468 15.8187 412.775 15.136C412.071 14.4533 411.719 13.5413 411.719 12.4C411.719 11.3227 412.05 10.4267 412.711 9.712C413.362 8.99733 414.268 8.64 415.431 8.64C416.391 8.64 417.186 8.94933 417.815 9.568C418.455 10.176 418.775 10.9653 418.775 11.936C418.775 12.2453 418.748 12.5333 418.695 12.8H413.159C413.212 13.472 413.463 14 413.911 14.384C414.37 14.768 414.956 14.96 415.671 14.96C416.61 14.96 417.346 14.7093 417.879 14.208ZM415.367 9.84C414.738 9.84 414.215 10.016 413.799 10.368C413.394 10.72 413.154 11.184 413.079 11.76H417.447C417.415 11.1627 417.212 10.6933 416.839 10.352C416.476 10.0107 415.986 9.84 415.367 9.84ZM420.223 15.264C420.223 15.008 420.303 14.8053 420.463 14.656C420.623 14.496 420.847 14.416 421.135 14.416C421.477 14.416 421.754 14.56 421.967 14.848C422.181 15.1253 422.287 15.4987 422.287 15.968C422.287 16.544 422.127 17.04 421.807 17.456C421.498 17.8827 421.071 18.176 420.527 18.336L420.175 17.728C420.73 17.5573 421.071 17.2 421.199 16.656C421.274 16.2933 421.269 16.0267 421.183 15.856C421.119 15.952 421.002 16 420.831 16C420.671 16 420.527 15.9307 420.399 15.792C420.282 15.6427 420.223 15.4667 420.223 15.264ZM433.429 16H432.149V10H428.229V16H426.949V8.8H433.429V16ZM436.322 15.104C435.618 14.3787 435.266 13.4773 435.266 12.4C435.266 11.312 435.618 10.416 436.322 9.712C437.036 8.99733 437.964 8.64 439.106 8.64C440.247 8.64 441.17 8.99733 441.874 9.712C442.588 10.416 442.946 11.312 442.946 12.4C442.946 13.488 442.588 14.3893 441.874 15.104C441.17 15.808 440.247 16.16 439.106 16.16C437.975 16.16 437.047 15.808 436.322 15.104ZM437.33 10.56C436.86 11.0293 436.626 11.6427 436.626 12.4C436.626 13.1573 436.855 13.7707 437.314 14.24C437.783 14.72 438.38 14.96 439.106 14.96C439.831 14.96 440.423 14.7253 440.882 14.256C441.351 13.776 441.586 13.1573 441.586 12.4C441.586 11.664 441.351 11.0507 440.882 10.56C440.423 10.08 439.831 9.84 439.106 9.84C438.38 9.84 437.788 10.08 437.33 10.56ZM453.922 14.032L454.53 14.96C453.912 15.76 452.989 16.16 451.762 16.16C450.61 16.16 449.677 15.8187 448.962 15.136C448.258 14.4533 447.906 13.5413 447.906 12.4C447.906 11.344 448.253 10.4533 448.946 9.728C449.64 9.00267 450.509 8.64 451.554 8.64C452.813 8.64 453.757 8.95467 454.386 9.584L453.794 10.592C453.24 10.0907 452.552 9.84 451.73 9.84C451.058 9.84 450.477 10.0853 449.986 10.576C449.506 11.056 449.266 11.664 449.266 12.4C449.266 13.1787 449.512 13.7973 450.002 14.256C450.504 14.7253 451.122 14.96 451.858 14.96C452.69 14.96 453.378 14.6507 453.922 14.032ZM462.679 16H461.399V10H457.479V16H456.199V8.8H462.679V16ZM470.436 10.64L466.276 16H464.996V8.8H466.276V14.16L470.436 8.8H471.716V16H470.436V10.64ZM479.579 14.032L480.187 14.96C479.568 15.76 478.645 16.16 477.419 16.16C476.267 16.16 475.333 15.8187 474.619 15.136C473.915 14.4533 473.563 13.5413 473.563 12.4C473.563 11.344 473.909 10.4533 474.603 9.728C475.296 9.00267 476.165 8.64 477.211 8.64C478.469 8.64 479.413 8.95467 480.043 9.584L479.451 10.592C478.896 10.0907 478.208 9.84 477.387 9.84C476.715 9.84 476.133 10.0853 475.643 10.576C475.163 11.056 474.923 11.664 474.923 12.4C474.923 13.1787 475.168 13.7973 475.659 14.256C476.16 14.7253 476.779 14.96 477.515 14.96C478.347 14.96 479.035 14.6507 479.579 14.032ZM486.479 8.8H488.159L485.007 12.24L488.463 16H486.687L483.439 12.32L486.479 8.8ZM483.135 16H481.855V8.8H483.135V16ZM490.208 10.32L489.872 9.296C490.587 8.85867 491.387 8.64 492.272 8.64C493.243 8.64 493.947 8.88 494.384 9.36C494.821 9.84 495.04 10.5813 495.04 11.584V16H493.824V15.072C493.259 15.7653 492.491 16.112 491.52 16.112C490.859 16.112 490.325 15.9147 489.92 15.52C489.515 15.1147 489.312 14.5707 489.312 13.888C489.312 13.184 489.563 12.6293 490.064 12.224C490.565 11.808 491.221 11.6 492.032 11.6C492.789 11.6 493.387 11.7547 493.824 12.064C493.824 11.2533 493.712 10.672 493.488 10.32C493.264 9.968 492.832 9.792 492.192 9.792C491.541 9.792 490.88 9.968 490.208 10.32ZM491.968 14.96C492.683 14.96 493.301 14.6507 493.824 14.032V13.12C493.376 12.8 492.837 12.64 492.208 12.64C491.771 12.64 491.403 12.7467 491.104 12.96C490.816 13.1627 490.672 13.4507 490.672 13.824C490.672 14.176 490.784 14.4533 491.008 14.656C491.243 14.8587 491.563 14.96 491.968 14.96ZM498.463 16H497.183V8.8H498.351L501.119 12.368L503.743 8.8H504.879V16H503.599V10.752L501.103 14.096H501.055L498.463 10.752V16Z" fill="#333333"/>
<circle cx="336" cy="11" r="6" fill="#333333"/>
<path d="M559.8 10.4C559.8 8.77867 560.339 7.41333 561.416 6.304C562.493 5.19467 563.859 4.64 565.512 4.64C567.155 4.64 568.515 5.17867 569.592 6.256C570.68 7.33333 571.224 8.71467 571.224 10.4C571.224 12.0427 570.68 13.4187 569.592 14.528C568.504 15.616 567.144 16.16 565.512 16.16C563.88 16.16 562.515 15.6213 561.416 14.544C560.339 13.4667 559.8 12.0853 559.8 10.4ZM561.24 10.4C561.24 11.6587 561.651 12.7253 562.472 13.6C563.293 14.4533 564.307 14.88 565.512 14.88C566.771 14.88 567.795 14.4533 568.584 13.6C569.384 12.7467 569.784 11.68 569.784 10.4C569.784 9.12 569.373 8.05333 568.552 7.2C567.731 6.34667 566.717 5.92 565.512 5.92C564.285 5.92 563.267 6.34133 562.456 7.184C561.645 8.02667 561.24 9.09867 561.24 10.4ZM578.751 4.64L579.439 5.648C579.183 6 578.874 6.24 578.511 6.368C578.117 6.50667 577.669 6.61333 577.167 6.688C576.677 6.76267 576.213 6.896 575.775 7.088C574.687 7.58933 574.079 8.74667 573.951 10.56H573.983C574.218 10.0587 574.597 9.65333 575.119 9.344C575.653 9.03467 576.223 8.88 576.831 8.88C577.855 8.88 578.666 9.20533 579.263 9.856C579.871 10.5067 580.175 11.376 580.175 12.464C580.175 13.488 579.829 14.3627 579.135 15.088C578.453 15.8027 577.567 16.16 576.479 16.16C575.306 16.16 574.378 15.76 573.695 14.96C573.013 14.1707 572.671 13.0773 572.671 11.68C572.671 8.56533 573.562 6.62933 575.343 5.872C575.749 5.69067 576.218 5.55733 576.751 5.472C577.167 5.39733 577.466 5.33867 577.647 5.296C577.829 5.25333 578.021 5.17867 578.223 5.072C578.437 4.96533 578.613 4.82133 578.751 4.64ZM574.031 11.92C574.031 12.8373 574.255 13.5733 574.703 14.128C575.151 14.6827 575.733 14.96 576.447 14.96C577.141 14.96 577.706 14.7253 578.143 14.256C578.591 13.7973 578.815 13.2213 578.815 12.528C578.815 11.792 578.607 11.2 578.191 10.752C577.786 10.304 577.226 10.08 576.511 10.08C575.861 10.08 575.317 10.2613 574.879 10.624C574.421 10.9973 574.138 11.4293 574.031 11.92ZM583.291 19.2H582.011V8.8H583.291V9.648C583.547 9.34933 583.899 9.10933 584.347 8.928C584.795 8.736 585.259 8.64 585.739 8.64C586.763 8.64 587.569 8.98133 588.155 9.664C588.763 10.336 589.067 11.2107 589.067 12.288C589.067 13.3867 588.721 14.3093 588.027 15.056C587.345 15.792 586.443 16.16 585.323 16.16C584.459 16.16 583.782 15.9947 583.291 15.664V19.2ZM585.371 9.84C584.518 9.84 583.825 10.1707 583.291 10.832V14.4C583.857 14.7733 584.497 14.96 585.211 14.96C585.969 14.96 586.571 14.72 587.019 14.24C587.478 13.7493 587.707 13.1147 587.707 12.336C587.707 11.5787 587.499 10.976 587.083 10.528C586.667 10.0693 586.097 9.84 585.371 9.84ZM591.286 10.32L590.95 9.296C591.665 8.85867 592.465 8.64 593.35 8.64C594.321 8.64 595.025 8.88 595.462 9.36C595.899 9.84 596.118 10.5813 596.118 11.584V16H594.902V15.072C594.337 15.7653 593.569 16.112 592.598 16.112C591.937 16.112 591.403 15.9147 590.998 15.52C590.593 15.1147 590.39 14.5707 590.39 13.888C590.39 13.184 590.641 12.6293 591.142 12.224C591.643 11.808 592.299 11.6 593.11 11.6C593.867 11.6 594.465 11.7547 594.902 12.064C594.902 11.2533 594.79 10.672 594.566 10.32C594.342 9.968 593.91 9.792 593.27 9.792C592.619 9.792 591.958 9.968 591.286 10.32ZM593.046 14.96C593.761 14.96 594.379 14.6507 594.902 14.032V13.12C594.454 12.8 593.915 12.64 593.286 12.64C592.849 12.64 592.481 12.7467 592.182 12.96C591.894 13.1627 591.75 13.4507 591.75 13.824C591.75 14.176 591.862 14.4533 592.086 14.656C592.321 14.8587 592.641 14.96 593.046 14.96ZM600.645 16.16C600.101 16.16 599.525 16.0693 598.917 15.888C598.331 15.696 597.915 15.4613 597.669 15.184L598.325 14.224C598.613 14.4587 598.955 14.6507 599.349 14.8C599.755 14.9387 600.123 15.008 600.453 15.008C601.008 15.008 601.461 14.9013 601.813 14.688C602.165 14.464 602.341 14.176 602.341 13.824C602.341 13.5253 602.213 13.296 601.957 13.136C601.712 12.976 601.371 12.896 600.933 12.896H599.717V11.856H600.853C601.216 11.856 601.515 11.76 601.749 11.568C601.984 11.3653 602.101 11.12 602.101 10.832C602.101 10.512 601.963 10.2613 601.685 10.08C601.408 9.888 601.035 9.792 600.565 9.792C599.808 9.792 599.088 10.0587 598.405 10.592L597.909 9.6C598.197 9.30133 598.597 9.06667 599.109 8.896C599.632 8.72533 600.181 8.64 600.757 8.64C601.611 8.64 602.272 8.81067 602.741 9.152C603.221 9.49333 603.461 9.968 603.461 10.576C603.461 11.408 603.04 11.9733 602.197 12.272V12.304C602.667 12.3573 603.035 12.544 603.301 12.864C603.568 13.1733 603.701 13.552 603.701 14C603.701 14.6613 603.419 15.1893 602.853 15.584C602.299 15.968 601.563 16.16 600.645 16.16ZM606.228 15.104C605.524 14.3787 605.172 13.4773 605.172 12.4C605.172 11.312 605.524 10.416 606.228 9.712C606.943 8.99733 607.871 8.64 609.012 8.64C610.153 8.64 611.076 8.99733 611.78 9.712C612.495 10.416 612.852 11.312 612.852 12.4C612.852 13.488 612.495 14.3893 611.78 15.104C611.076 15.808 610.153 16.16 609.012 16.16C607.881 16.16 606.953 15.808 606.228 15.104ZM607.236 10.56C606.767 11.0293 606.532 11.6427 606.532 12.4C606.532 13.1573 606.761 13.7707 607.22 14.24C607.689 14.72 608.287 14.96 609.012 14.96C609.737 14.96 610.329 14.7253 610.788 14.256C611.257 13.776 611.492 13.1573 611.492 12.4C611.492 11.664 611.257 11.0507 610.788 10.56C610.329 10.08 609.737 9.84 609.012 9.84C608.287 9.84 607.695 10.08 607.236 10.56ZM614.699 16V8.8C614.752 8.8 614.827 8.8 614.923 8.8C615.019 8.78933 615.158 8.784 615.339 8.784C615.52 8.77333 615.686 8.768 615.835 8.768C616.624 8.74667 617.115 8.736 617.307 8.736C619.376 8.736 620.411 9.35467 620.411 10.592C620.411 11.0187 620.278 11.3867 620.011 11.696C619.744 11.9947 619.398 12.176 618.971 12.24V12.272C620.091 12.4747 620.651 13.04 620.651 13.968C620.651 15.3653 619.547 16.064 617.339 16.064C617.232 16.064 616.763 16.0533 615.931 16.032C615.771 16.032 615.595 16.0267 615.403 16.016C615.211 16.016 615.062 16.0107 614.955 16C614.848 16 614.763 16 614.699 16ZM617.515 12.768H615.979V14.976C616.747 15.008 617.238 15.024 617.451 15.024C618.678 15.024 619.291 14.64 619.291 13.872C619.291 13.136 618.699 12.768 617.515 12.768ZM617.403 9.776C617.094 9.776 616.619 9.792 615.979 9.824V11.968H617.595C618.032 11.968 618.384 11.8667 618.651 11.664C618.918 11.4613 619.051 11.1893 619.051 10.848C619.051 10.1333 618.502 9.776 617.403 9.776ZM622.989 10.32L622.653 9.296C623.368 8.85867 624.168 8.64 625.053 8.64C626.024 8.64 626.728 8.88 627.165 9.36C627.602 9.84 627.821 10.5813 627.821 11.584V16H626.605V15.072C626.04 15.7653 625.272 16.112 624.301 16.112C623.64 16.112 623.106 15.9147 622.701 15.52C622.296 15.1147 622.093 14.5707 622.093 13.888C622.093 13.184 622.344 12.6293 622.845 12.224C623.346 11.808 624.002 11.6 624.813 11.6C625.57 11.6 626.168 11.7547 626.605 12.064C626.605 11.2533 626.493 10.672 626.269 10.32C626.045 9.968 625.613 9.792 624.973 9.792C624.322 9.792 623.661 9.968 622.989 10.32ZM624.749 14.96C625.464 14.96 626.082 14.6507 626.605 14.032V13.12C626.157 12.8 625.618 12.64 624.989 12.64C624.552 12.64 624.184 12.7467 623.885 12.96C623.597 13.1627 623.453 13.4507 623.453 13.824C623.453 14.176 623.565 14.4533 623.789 14.656C624.024 14.8587 624.344 14.96 624.749 14.96ZM631.693 10.08H629.053V8.8H635.613V10.08H632.973V16H631.693V10.08ZM642.457 14.208L642.857 15.216C642.164 15.8453 641.262 16.16 640.153 16.16C638.98 16.16 638.046 15.8187 637.353 15.136C636.649 14.4533 636.297 13.5413 636.297 12.4C636.297 11.3227 636.628 10.4267 637.289 9.712C637.94 8.99733 638.846 8.64 640.009 8.64C640.969 8.64 641.764 8.94933 642.393 9.568C643.033 10.176 643.353 10.9653 643.353 11.936C643.353 12.2453 643.326 12.5333 643.273 12.8H637.737C637.79 13.472 638.041 14 638.489 14.384C638.948 14.768 639.534 14.96 640.249 14.96C641.188 14.96 641.924 14.7093 642.457 14.208ZM639.945 9.84C639.316 9.84 638.793 10.016 638.377 10.368C637.972 10.72 637.732 11.184 637.657 11.76H642.025C641.993 11.1627 641.79 10.6933 641.417 10.352C641.054 10.0107 640.564 9.84 639.945 9.84ZM651.016 16H649.736V10.08H647.208L647.128 11.296C647.043 12.288 646.915 13.1147 646.744 13.776C646.584 14.4267 646.371 14.9173 646.104 15.248C645.848 15.568 645.576 15.792 645.288 15.92C645 16.0373 644.648 16.096 644.232 16.096L644.136 14.848C644.254 14.8587 644.376 14.8427 644.504 14.8C644.632 14.7467 644.771 14.64 644.92 14.48C645.08 14.32 645.219 14.1067 645.336 13.84C645.464 13.5733 645.576 13.2 645.672 12.72C645.779 12.2293 645.848 11.6693 645.88 11.04L646.008 8.8H651.016V16ZM655.756 16H653.324V8.8H654.604V10.96H655.916C656.897 10.96 657.617 11.184 658.076 11.632C658.535 12.0693 658.764 12.672 658.764 13.44C658.764 14.1653 658.524 14.7733 658.044 15.264C657.564 15.7547 656.801 16 655.756 16ZM655.676 12.16H654.604V14.8H655.66C656.823 14.8 657.404 14.3627 657.404 13.488C657.404 12.6027 656.828 12.16 655.676 12.16ZM667.04 16H665.76V12.96H661.76V16H660.48V8.8H661.76V11.76H665.76V8.8H667.04V16ZM671.675 16H669.355V8.8H670.635V10.96H671.819C672.8 10.96 673.52 11.184 673.979 11.632C674.438 12.0693 674.667 12.672 674.667 13.44C674.667 14.1653 674.427 14.7733 673.947 15.264C673.488 15.7547 672.731 16 671.675 16ZM677.323 16H676.043V8.8H677.323V16ZM671.579 12.16H670.635V14.8H671.563C672.171 14.8 672.614 14.6933 672.891 14.48C673.168 14.2667 673.307 13.936 673.307 13.488C673.307 12.6027 672.731 12.16 671.579 12.16ZM685.301 14.208L685.701 15.216C685.007 15.8453 684.106 16.16 682.997 16.16C681.823 16.16 680.89 15.8187 680.197 15.136C679.493 14.4533 679.141 13.5413 679.141 12.4C679.141 11.3227 679.471 10.4267 680.133 9.712C680.783 8.99733 681.69 8.64 682.853 8.64C683.813 8.64 684.607 8.94933 685.237 9.568C685.877 10.176 686.197 10.9653 686.197 11.936C686.197 12.2453 686.17 12.5333 686.117 12.8H680.581C680.634 13.472 680.885 14 681.333 14.384C681.791 14.768 682.378 14.96 683.093 14.96C684.031 14.96 684.767 14.7093 685.301 14.208ZM682.789 9.84C682.159 9.84 681.637 10.016 681.221 10.368C680.815 10.72 680.575 11.184 680.501 11.76H684.869C684.837 11.1627 684.634 10.6933 684.261 10.352C683.898 10.0107 683.407 9.84 682.789 9.84ZM698.007 16H696.727V10H692.807V16H691.527V8.8H698.007V16ZM700.9 15.104C700.196 14.3787 699.844 13.4773 699.844 12.4C699.844 11.312 700.196 10.416 700.9 9.712C701.615 8.99733 702.543 8.64 703.684 8.64C704.825 8.64 705.748 8.99733 706.452 9.712C707.167 10.416 707.524 11.312 707.524 12.4C707.524 13.488 707.167 14.3893 706.452 15.104C705.748 15.808 704.825 16.16 703.684 16.16C702.553 16.16 701.625 15.808 700.9 15.104ZM701.908 10.56C701.439 11.0293 701.204 11.6427 701.204 12.4C701.204 13.1573 701.433 13.7707 701.892 14.24C702.361 14.72 702.959 14.96 703.684 14.96C704.409 14.96 705.001 14.7253 705.46 14.256C705.929 13.776 706.164 13.1573 706.164 12.4C706.164 11.664 705.929 11.0507 705.46 10.56C705.001 10.08 704.409 9.84 703.684 9.84C702.959 9.84 702.367 10.08 701.908 10.56ZM719.445 16H718.165V10H714.245V16H712.965V8.8H719.445V16ZM723.041 19.2H721.761V8.8H723.041V9.648C723.297 9.34933 723.649 9.10933 724.097 8.928C724.545 8.736 725.009 8.64 725.489 8.64C726.513 8.64 727.319 8.98133 727.905 9.664C728.513 10.336 728.817 11.2107 728.817 12.288C728.817 13.3867 728.471 14.3093 727.777 15.056C727.095 15.792 726.193 16.16 725.073 16.16C724.209 16.16 723.532 15.9947 723.041 15.664V19.2ZM725.121 9.84C724.268 9.84 723.575 10.1707 723.041 10.832V14.4C723.607 14.7733 724.247 14.96 724.961 14.96C725.719 14.96 726.321 14.72 726.769 14.24C727.228 13.7493 727.457 13.1147 727.457 12.336C727.457 11.5787 727.249 10.976 726.833 10.528C726.417 10.0693 725.847 9.84 725.121 9.84ZM736.332 14.208L736.732 15.216C736.039 15.8453 735.137 16.16 734.028 16.16C732.855 16.16 731.921 15.8187 731.228 15.136C730.524 14.4533 730.172 13.5413 730.172 12.4C730.172 11.3227 730.503 10.4267 731.164 9.712C731.815 8.99733 732.721 8.64 733.884 8.64C734.844 8.64 735.639 8.94933 736.268 9.568C736.908 10.176 737.228 10.9653 737.228 11.936C737.228 12.2453 737.201 12.5333 737.148 12.8H731.612C731.665 13.472 731.916 14 732.364 14.384C732.823 14.768 733.409 14.96 734.124 14.96C735.063 14.96 735.799 14.7093 736.332 14.208ZM733.82 9.84C733.191 9.84 732.668 10.016 732.252 10.368C731.847 10.72 731.607 11.184 731.532 11.76H735.9C735.868 11.1627 735.665 10.6933 735.292 10.352C734.929 10.0107 734.439 9.84 733.82 9.84ZM738.891 17.76H737.691V14.8H738.587C738.854 14.4693 739.089 13.936 739.291 13.2C739.494 12.4533 739.627 11.6213 739.691 10.704L739.803 8.8H744.715V14.8H745.915V17.76H744.715V16H738.891V17.76ZM741.003 10L740.923 11.2C740.859 12 740.731 12.7307 740.539 13.392C740.347 14.0533 740.15 14.5227 739.947 14.8H743.435V10H741.003ZM747.308 16V8.8C747.362 8.8 747.436 8.8 747.532 8.8C747.628 8.78933 747.767 8.784 747.948 8.784C748.13 8.77333 748.295 8.768 748.444 8.768C749.234 8.74667 749.724 8.736 749.916 8.736C751.986 8.736 753.02 9.35467 753.02 10.592C753.02 11.0187 752.887 11.3867 752.62 11.696C752.354 11.9947 752.007 12.176 751.58 12.24V12.272C752.7 12.4747 753.26 13.04 753.26 13.968C753.26 15.3653 752.156 16.064 749.948 16.064C749.842 16.064 749.372 16.0533 748.54 16.032C748.38 16.032 748.204 16.0267 748.012 16.016C747.82 16.016 747.671 16.0107 747.564 16C747.458 16 747.372 16 747.308 16ZM750.124 12.768H748.588V14.976C749.356 15.008 749.847 15.024 750.06 15.024C751.287 15.024 751.9 14.64 751.9 13.872C751.9 13.136 751.308 12.768 750.124 12.768ZM750.012 9.776C749.703 9.776 749.228 9.792 748.588 9.824V11.968H750.204C750.642 11.968 750.994 11.8667 751.26 11.664C751.527 11.4613 751.66 11.1893 751.66 10.848C751.66 10.1333 751.111 9.776 750.012 9.776ZM755.599 10.32L755.263 9.296C755.977 8.85867 756.777 8.64 757.663 8.64C758.633 8.64 759.337 8.88 759.775 9.36C760.212 9.84 760.431 10.5813 760.431 11.584V16H759.215V15.072C758.649 15.7653 757.881 16.112 756.911 16.112C756.249 16.112 755.716 15.9147 755.311 15.52C754.905 15.1147 754.703 14.5707 754.703 13.888C754.703 13.184 754.953 12.6293 755.455 12.224C755.956 11.808 756.612 11.6 757.423 11.6C758.18 11.6 758.777 11.7547 759.215 12.064C759.215 11.2533 759.103 10.672 758.879 10.32C758.655 9.968 758.223 9.792 757.583 9.792C756.932 9.792 756.271 9.968 755.599 10.32ZM757.359 14.96C758.073 14.96 758.692 14.6507 759.215 14.032V13.12C758.767 12.8 758.228 12.64 757.599 12.64C757.161 12.64 756.793 12.7467 756.495 12.96C756.207 13.1627 756.062 13.4507 756.062 13.824C756.062 14.176 756.175 14.4533 756.399 14.656C756.633 14.8587 756.953 14.96 757.359 14.96ZM763.854 19.2H762.574V8.8H763.854V9.648C764.11 9.34933 764.462 9.10933 764.91 8.928C765.358 8.736 765.822 8.64 766.302 8.64C767.326 8.64 768.131 8.98133 768.718 9.664C769.326 10.336 769.63 11.2107 769.63 12.288C769.63 13.3867 769.283 14.3093 768.59 15.056C767.907 15.792 767.006 16.16 765.886 16.16C765.022 16.16 764.345 15.9947 763.854 15.664V19.2ZM765.934 9.84C765.081 9.84 764.387 10.1707 763.854 10.832V14.4C764.419 14.7733 765.059 14.96 765.774 14.96C766.531 14.96 767.134 14.72 767.582 14.24C768.041 13.7493 768.27 13.1147 768.27 12.336C768.27 11.5787 768.062 10.976 767.646 10.528C767.23 10.0693 766.659 9.84 765.934 9.84ZM776.905 10.64L772.745 16H771.465V8.8H772.745V14.16L776.905 8.8H778.185V16H776.905V10.64ZM782.239 10.08H779.599V8.8H786.159V10.08H783.519V16H782.239V10.08ZM793.004 14.208L793.404 15.216C792.711 15.8453 791.809 16.16 790.7 16.16C789.527 16.16 788.593 15.8187 787.9 15.136C787.196 14.4533 786.844 13.5413 786.844 12.4C786.844 11.3227 787.175 10.4267 787.836 9.712C788.487 8.99733 789.393 8.64 790.556 8.64C791.516 8.64 792.311 8.94933 792.94 9.568C793.58 10.176 793.9 10.9653 793.9 11.936C793.9 12.2453 793.873 12.5333 793.82 12.8H788.284C788.337 13.472 788.588 14 789.036 14.384C789.495 14.768 790.081 14.96 790.796 14.96C791.735 14.96 792.471 14.7093 793.004 14.208ZM790.492 9.84C789.863 9.84 789.34 10.016 788.924 10.368C788.519 10.72 788.279 11.184 788.204 11.76H792.572C792.54 11.1627 792.337 10.6933 791.964 10.352C791.601 10.0107 791.111 9.84 790.492 9.84ZM801.563 16H800.283V10.08H797.755L797.675 11.296C797.59 12.288 797.462 13.1147 797.291 13.776C797.131 14.4267 796.918 14.9173 796.651 15.248C796.395 15.568 796.123 15.792 795.835 15.92C795.547 16.0373 795.195 16.096 794.779 16.096L794.683 14.848C794.8 14.8587 794.923 14.8427 795.051 14.8C795.179 14.7467 795.318 14.64 795.467 14.48C795.627 14.32 795.766 14.1067 795.883 13.84C796.011 13.5733 796.123 13.2 796.219 12.72C796.326 12.2293 796.395 11.6693 796.427 11.04L796.555 8.8H801.563V16ZM806.303 16H803.871V8.8H805.151V10.96H806.463C807.444 10.96 808.164 11.184 808.623 11.632C809.081 12.0693 809.311 12.672 809.311 13.44C809.311 14.1653 809.071 14.7733 808.591 15.264C808.111 15.7547 807.348 16 806.303 16ZM806.223 12.16H805.151V14.8H806.207C807.369 14.8 807.951 14.3627 807.951 13.488C807.951 12.6027 807.375 12.16 806.223 12.16ZM817.587 16H816.307V12.96H812.307V16H811.027V8.8H812.307V11.76H816.307V8.8H817.587V16ZM820.478 15.104C819.774 14.3787 819.422 13.4773 819.422 12.4C819.422 11.312 819.774 10.416 820.478 9.712C821.193 8.99733 822.121 8.64 823.262 8.64C824.403 8.64 825.326 8.99733 826.03 9.712C826.745 10.416 827.102 11.312 827.102 12.4C827.102 13.488 826.745 14.3893 826.03 15.104C825.326 15.808 824.403 16.16 823.262 16.16C822.131 16.16 821.203 15.808 820.478 15.104ZM821.486 10.56C821.017 11.0293 820.782 11.6427 820.782 12.4C820.782 13.1573 821.011 13.7707 821.47 14.24C821.939 14.72 822.537 14.96 823.262 14.96C823.987 14.96 824.579 14.7253 825.038 14.256C825.507 13.776 825.742 13.1573 825.742 12.4C825.742 11.664 825.507 11.0507 825.038 10.56C824.579 10.08 823.987 9.84 823.262 9.84C822.537 9.84 821.945 10.08 821.486 10.56ZM834.389 10.64L830.229 16H828.949V8.8H830.229V14.16L834.389 8.8H835.669V16H834.389V10.64ZM829.973 5.12H831.173C831.237 5.96267 831.648 6.384 832.405 6.384C833.12 6.384 833.509 5.96267 833.573 5.12H834.773C834.773 5.77067 834.549 6.30933 834.101 6.736C833.664 7.152 833.098 7.36 832.405 7.36C831.648 7.36 831.05 7.15733 830.613 6.752C830.186 6.336 829.973 5.792 829.973 5.12ZM842.87 19.2H841.59V8.8H842.87V9.648C843.126 9.34933 843.478 9.10933 843.926 8.928C844.374 8.736 844.838 8.64 845.318 8.64C846.342 8.64 847.147 8.98133 847.734 9.664C848.342 10.336 848.646 11.2107 848.646 12.288C848.646 13.3867 848.299 14.3093 847.606 15.056C846.923 15.792 846.022 16.16 844.902 16.16C844.038 16.16 843.36 15.9947 842.87 15.664V19.2ZM844.95 9.84C844.096 9.84 843.403 10.1707 842.87 10.832V14.4C843.435 14.7733 844.075 14.96 844.79 14.96C845.547 14.96 846.15 14.72 846.598 14.24C847.056 13.7493 847.286 13.1147 847.286 12.336C847.286 11.5787 847.078 10.976 846.662 10.528C846.246 10.0693 845.675 9.84 844.95 9.84ZM856.16 14.208L856.56 15.216C855.867 15.8453 854.965 16.16 853.856 16.16C852.683 16.16 851.749 15.8187 851.056 15.136C850.352 14.4533 850 13.5413 850 12.4C850 11.3227 850.331 10.4267 850.992 9.712C851.643 8.99733 852.549 8.64 853.712 8.64C854.672 8.64 855.467 8.94933 856.096 9.568C856.736 10.176 857.056 10.9653 857.056 11.936C857.056 12.2453 857.029 12.5333 856.976 12.8H851.44C851.493 13.472 851.744 14 852.192 14.384C852.651 14.768 853.237 14.96 853.952 14.96C854.891 14.96 855.627 14.7093 856.16 14.208ZM853.648 9.84C853.019 9.84 852.496 10.016 852.08 10.368C851.675 10.72 851.435 11.184 851.36 11.76H855.728C855.696 11.1627 855.493 10.6933 855.12 10.352C854.757 10.0107 854.267 9.84 853.648 9.84ZM860.073 16H858.793V8.8H863.353V10H860.073V16ZM870.03 10.64L865.87 16H864.59V8.8H865.87V14.16L870.03 8.8H871.31V16H870.03V10.64ZM879.172 14.032L879.78 14.96C879.162 15.76 878.239 16.16 877.012 16.16C875.86 16.16 874.927 15.8187 874.212 15.136C873.508 14.4533 873.156 13.5413 873.156 12.4C873.156 11.344 873.503 10.4533 874.196 9.728C874.89 9.00267 875.759 8.64 876.804 8.64C878.063 8.64 879.007 8.95467 879.636 9.584L879.044 10.592C878.49 10.0907 877.802 9.84 876.98 9.84C876.308 9.84 875.727 10.0853 875.236 10.576C874.756 11.056 874.516 11.664 874.516 12.4C874.516 13.1787 874.762 13.7973 875.252 14.256C875.754 14.7253 876.372 14.96 877.108 14.96C877.94 14.96 878.628 14.6507 879.172 14.032ZM883.083 10.08H880.443V8.8H887.003V10.08H884.363V16H883.083V10.08ZM889.682 19.2H888.402V8.8H889.682V9.648C889.938 9.34933 890.29 9.10933 890.738 8.928C891.186 8.736 891.65 8.64 892.13 8.64C893.154 8.64 893.959 8.98133 894.546 9.664C895.154 10.336 895.458 11.2107 895.458 12.288C895.458 13.3867 895.111 14.3093 894.418 15.056C893.735 15.792 892.834 16.16 891.714 16.16C890.85 16.16 890.173 15.9947 889.682 15.664V19.2ZM891.762 9.84C890.909 9.84 890.215 10.1707 889.682 10.832V14.4C890.247 14.7733 890.887 14.96 891.602 14.96C892.359 14.96 892.962 14.72 893.41 14.24C893.869 13.7493 894.098 13.1147 894.098 12.336C894.098 11.5787 893.89 10.976 893.474 10.528C893.058 10.0693 892.487 9.84 891.762 9.84ZM897.677 10.32L897.341 9.296C898.055 8.85867 898.855 8.64 899.741 8.64C900.711 8.64 901.415 8.88 901.853 9.36C902.29 9.84 902.509 10.5813 902.509 11.584V16H901.293V15.072C900.727 15.7653 899.959 16.112 898.989 16.112C898.327 16.112 897.794 15.9147 897.389 15.52C896.983 15.1147 896.781 14.5707 896.781 13.888C896.781 13.184 897.031 12.6293 897.533 12.224C898.034 11.808 898.69 11.6 899.501 11.6C900.258 11.6 900.855 11.7547 901.293 12.064C901.293 11.2533 901.181 10.672 900.957 10.32C900.733 9.968 900.301 9.792 899.661 9.792C899.01 9.792 898.349 9.968 897.677 10.32ZM899.437 14.96C900.151 14.96 900.77 14.6507 901.293 14.032V13.12C900.845 12.8 900.306 12.64 899.677 12.64C899.239 12.64 898.871 12.7467 898.573 12.96C898.285 13.1627 898.141 13.4507 898.141 13.824C898.141 14.176 898.253 14.4533 898.477 14.656C898.711 14.8587 899.031 14.96 899.437 14.96ZM911.052 16H904.652V8.8H905.932V14.8H909.772V8.8H911.052V14.8H912.252V17.76H911.052V16ZM919.076 10.64L914.916 16H913.636V8.8H914.916V14.16L919.076 8.8H920.356V16H919.076V10.64ZM928.123 10.64L923.963 16H922.683V8.8H923.963V14.16L928.123 8.8H929.403V16H928.123V10.64Z" fill="#0073B8"/>
<circle cx="545" cy="11" r="6" fill="#0073B8"/>
<path d="M983.8 10.4C983.8 8.77867 984.339 7.41333 985.416 6.304C986.493 5.19467 987.859 4.64 989.512 4.64C991.155 4.64 992.515 5.17867 993.592 6.256C994.68 7.33333 995.224 8.71467 995.224 10.4C995.224 12.0427 994.68 13.4187 993.592 14.528C992.504 15.616 991.144 16.16 989.512 16.16C987.88 16.16 986.515 15.6213 985.416 14.544C984.339 13.4667 983.8 12.0853 983.8 10.4ZM985.24 10.4C985.24 11.6587 985.651 12.7253 986.472 13.6C987.293 14.4533 988.307 14.88 989.512 14.88C990.771 14.88 991.795 14.4533 992.584 13.6C993.384 12.7467 993.784 11.68 993.784 10.4C993.784 9.12 993.373 8.05333 992.552 7.2C991.731 6.34667 990.717 5.92 989.512 5.92C988.285 5.92 987.267 6.34133 986.456 7.184C985.645 8.02667 985.24 9.09867 985.24 10.4ZM998.911 10.08H996.271V8.8H1002.83V10.08H1000.19V16H998.911V10.08ZM1008.85 8.8H1010.53L1007.38 12.24L1010.84 16H1009.06L1005.81 12.32L1008.85 8.8ZM1005.51 16H1004.23V8.8H1005.51V16ZM1013.48 19.2H1012.2V8.8H1013.48V9.648C1013.73 9.34933 1014.09 9.10933 1014.53 8.928C1014.98 8.736 1015.45 8.64 1015.93 8.64C1016.95 8.64 1017.76 8.98133 1018.34 9.664C1018.95 10.336 1019.25 11.2107 1019.25 12.288C1019.25 13.3867 1018.91 14.3093 1018.21 15.056C1017.53 15.792 1016.63 16.16 1015.51 16.16C1014.65 16.16 1013.97 15.9947 1013.48 15.664V19.2ZM1015.56 9.84C1014.71 9.84 1014.01 10.1707 1013.48 10.832V14.4C1014.04 14.7733 1014.68 14.96 1015.4 14.96C1016.16 14.96 1016.76 14.72 1017.21 14.24C1017.67 13.7493 1017.89 13.1147 1017.89 12.336C1017.89 11.5787 1017.69 10.976 1017.27 10.528C1016.85 10.0693 1016.28 9.84 1015.56 9.84ZM1023.41 16H1021.09V8.8H1022.37V10.96H1023.55C1024.53 10.96 1025.25 11.184 1025.71 11.632C1026.17 12.0693 1026.4 12.672 1026.4 13.44C1026.4 14.1653 1026.16 14.7733 1025.68 15.264C1025.22 15.7547 1024.47 16 1023.41 16ZM1029.06 16H1027.78V8.8H1029.06V16ZM1023.31 12.16H1022.37V14.8H1023.3C1023.91 14.8 1024.35 14.6933 1024.63 14.48C1024.9 14.2667 1025.04 13.936 1025.04 13.488C1025.04 12.6027 1024.47 12.16 1023.31 12.16ZM1033.08 10.08H1030.44V8.8H1037V10.08H1034.36V16H1033.08V10.08ZM1040.72 16H1038.4V8.8H1039.68V10.96H1040.87C1041.85 10.96 1042.57 11.184 1043.03 11.632C1043.48 12.0693 1043.71 12.672 1043.71 13.44C1043.71 14.1653 1043.47 14.7733 1042.99 15.264C1042.54 15.7547 1041.78 16 1040.72 16ZM1046.37 16H1045.09V8.8H1046.37V16ZM1040.63 12.16H1039.68V14.8H1040.61C1041.22 14.8 1041.66 14.6933 1041.94 14.48C1042.22 14.2667 1042.35 13.936 1042.35 13.488C1042.35 12.6027 1041.78 12.16 1040.63 12.16ZM1054.35 14.208L1054.75 15.216C1054.05 15.8453 1053.15 16.16 1052.04 16.16C1050.87 16.16 1049.94 15.8187 1049.24 15.136C1048.54 14.4533 1048.19 13.5413 1048.19 12.4C1048.19 11.3227 1048.52 10.4267 1049.18 9.712C1049.83 8.99733 1050.74 8.64 1051.9 8.64C1052.86 8.64 1053.65 8.94933 1054.28 9.568C1054.92 10.176 1055.24 10.9653 1055.24 11.936C1055.24 12.2453 1055.22 12.5333 1055.16 12.8H1049.63C1049.68 13.472 1049.93 14 1050.38 14.384C1050.84 14.768 1051.42 14.96 1052.14 14.96C1053.08 14.96 1053.81 14.7093 1054.35 14.208ZM1051.84 9.84C1051.21 9.84 1050.68 10.016 1050.27 10.368C1049.86 10.72 1049.62 11.184 1049.55 11.76H1053.92C1053.88 11.1627 1053.68 10.6933 1053.31 10.352C1052.94 10.0107 1052.45 9.84 1051.84 9.84ZM1056.69 15.264C1056.69 15.008 1056.77 14.8053 1056.93 14.656C1057.09 14.496 1057.32 14.416 1057.6 14.416C1057.95 14.416 1058.22 14.56 1058.44 14.848C1058.65 15.1253 1058.76 15.4987 1058.76 15.968C1058.76 16.544 1058.6 17.04 1058.28 17.456C1057.97 17.8827 1057.54 18.176 1057 18.336L1056.64 17.728C1057.2 17.5573 1057.54 17.2 1057.67 16.656C1057.74 16.2933 1057.74 16.0267 1057.65 15.856C1057.59 15.952 1057.47 16 1057.3 16C1057.14 16 1057 15.9307 1056.87 15.792C1056.75 15.6427 1056.69 15.4667 1056.69 15.264ZM1065.15 10.08H1062.51V8.8H1069.07V10.08H1066.43V16H1065.15V10.08ZM1071.74 19.2H1070.46V8.8H1071.74V9.648C1072 9.34933 1072.35 9.10933 1072.8 8.928C1073.25 8.736 1073.71 8.64 1074.19 8.64C1075.22 8.64 1076.02 8.98133 1076.61 9.664C1077.22 10.336 1077.52 11.2107 1077.52 12.288C1077.52 13.3867 1077.17 14.3093 1076.48 15.056C1075.8 15.792 1074.9 16.16 1073.78 16.16C1072.91 16.16 1072.24 15.9947 1071.74 15.664V19.2ZM1073.82 9.84C1072.97 9.84 1072.28 10.1707 1071.74 10.832V14.4C1072.31 14.7733 1072.95 14.96 1073.66 14.96C1074.42 14.96 1075.02 14.72 1075.47 14.24C1075.93 13.7493 1076.16 13.1147 1076.16 12.336C1076.16 11.5787 1075.95 10.976 1075.54 10.528C1075.12 10.0693 1074.55 9.84 1073.82 9.84ZM1079.74 10.32L1079.4 9.296C1080.12 8.85867 1080.92 8.64 1081.8 8.64C1082.77 8.64 1083.48 8.88 1083.92 9.36C1084.35 9.84 1084.57 10.5813 1084.57 11.584V16H1083.36V15.072C1082.79 15.7653 1082.02 16.112 1081.05 16.112C1080.39 16.112 1079.86 15.9147 1079.45 15.52C1079.05 15.1147 1078.84 14.5707 1078.84 13.888C1078.84 13.184 1079.09 12.6293 1079.6 12.224C1080.1 11.808 1080.75 11.6 1081.56 11.6C1082.32 11.6 1082.92 11.7547 1083.36 12.064C1083.36 11.2533 1083.24 10.672 1083.02 10.32C1082.8 9.968 1082.36 9.792 1081.72 9.792C1081.07 9.792 1080.41 9.968 1079.74 10.32ZM1081.5 14.96C1082.21 14.96 1082.83 14.6507 1083.36 14.032V13.12C1082.91 12.8 1082.37 12.64 1081.74 12.64C1081.3 12.64 1080.93 12.7467 1080.64 12.96C1080.35 13.1627 1080.2 13.4507 1080.2 13.824C1080.2 14.176 1080.32 14.4533 1080.54 14.656C1080.77 14.8587 1081.09 14.96 1081.5 14.96ZM1093.27 16H1091.99V12.96H1087.99V16H1086.71V8.8H1087.99V11.76H1091.99V8.8H1093.27V16ZM1101.13 14.032L1101.73 14.96C1101.11 15.76 1100.19 16.16 1098.97 16.16C1097.81 16.16 1096.88 15.8187 1096.17 15.136C1095.46 14.4533 1095.11 13.5413 1095.11 12.4C1095.11 11.344 1095.46 10.4533 1096.15 9.728C1096.84 9.00267 1097.71 8.64 1098.76 8.64C1100.02 8.64 1100.96 8.95467 1101.59 9.584L1101 10.592C1100.44 10.0907 1099.75 9.84 1098.93 9.84C1098.26 9.84 1097.68 10.0853 1097.19 10.576C1096.71 11.056 1096.47 11.664 1096.47 12.4C1096.47 13.1787 1096.71 13.7973 1097.21 14.256C1097.71 14.7253 1098.33 14.96 1099.06 14.96C1099.89 14.96 1100.58 14.6507 1101.13 14.032ZM1109.47 16H1108.19V10.08H1105.66L1105.58 11.296C1105.5 12.288 1105.37 13.1147 1105.2 13.776C1105.04 14.4267 1104.82 14.9173 1104.56 15.248C1104.3 15.568 1104.03 15.792 1103.74 15.92C1103.45 16.0373 1103.1 16.096 1102.69 16.096L1102.59 14.848C1102.71 14.8587 1102.83 14.8427 1102.96 14.8C1103.09 14.7467 1103.22 14.64 1103.37 14.48C1103.53 14.32 1103.67 14.1067 1103.79 13.84C1103.92 13.5733 1104.03 13.2 1104.13 12.72C1104.23 12.2293 1104.3 11.6693 1104.33 11.04L1104.46 8.8H1109.47V16ZM1117.22 10.64L1113.06 16H1111.78V8.8H1113.06V14.16L1117.22 8.8H1118.5V16H1117.22V10.64ZM1122.1 19.2H1120.82V8.8H1122.1V9.648C1122.36 9.34933 1122.71 9.10933 1123.16 8.928C1123.61 8.736 1124.07 8.64 1124.55 8.64C1125.58 8.64 1126.38 8.98133 1126.97 9.664C1127.58 10.336 1127.88 11.2107 1127.88 12.288C1127.88 13.3867 1127.53 14.3093 1126.84 15.056C1126.16 15.792 1125.26 16.16 1124.14 16.16C1123.27 16.16 1122.59 15.9947 1122.1 15.664V19.2ZM1124.18 9.84C1123.33 9.84 1122.64 10.1707 1122.1 10.832V14.4C1122.67 14.7733 1123.31 14.96 1124.02 14.96C1124.78 14.96 1125.38 14.72 1125.83 14.24C1126.29 13.7493 1126.52 13.1147 1126.52 12.336C1126.52 11.5787 1126.31 10.976 1125.9 10.528C1125.48 10.0693 1124.91 9.84 1124.18 9.84ZM1134.52 8.8H1135.98L1133.1 16C1132.57 17.2693 1132.12 18.112 1131.74 18.528C1131.33 18.976 1130.87 19.2 1130.35 19.2C1129.88 19.2 1129.42 19.0507 1128.99 18.752L1129.4 17.776C1129.74 17.936 1130.01 18.016 1130.2 18.016C1130.5 18.016 1130.77 17.888 1131 17.632C1131.25 17.376 1131.49 16.96 1131.74 16.384L1131.9 16L1128.44 8.8H1129.98L1132.09 13.376C1132.13 13.4507 1132.28 13.8133 1132.52 14.464C1132.62 14.112 1132.73 13.744 1132.86 13.36L1134.52 8.8ZM1142.69 14.208L1143.09 15.216C1142.4 15.8453 1141.5 16.16 1140.39 16.16C1139.21 16.16 1138.28 15.8187 1137.59 15.136C1136.88 14.4533 1136.53 13.5413 1136.53 12.4C1136.53 11.3227 1136.86 10.4267 1137.52 9.712C1138.17 8.99733 1139.08 8.64 1140.24 8.64C1141.2 8.64 1142 8.94933 1142.63 9.568C1143.27 10.176 1143.59 10.9653 1143.59 11.936C1143.59 12.2453 1143.56 12.5333 1143.51 12.8H1137.97C1138.02 13.472 1138.28 14 1138.72 14.384C1139.18 14.768 1139.77 14.96 1140.48 14.96C1141.42 14.96 1142.16 14.7093 1142.69 14.208ZM1140.18 9.84C1139.55 9.84 1139.03 10.016 1138.61 10.368C1138.21 10.72 1137.97 11.184 1137.89 11.76H1142.26C1142.23 11.1627 1142.02 10.6933 1141.65 10.352C1141.29 10.0107 1140.8 9.84 1140.18 9.84ZM1146.6 16H1145.32V8.8H1146.49L1149.26 12.368L1151.88 8.8H1153.02V16H1151.74V10.752L1149.24 14.096H1149.2L1146.6 10.752V16ZM1157.66 16H1155.34V8.8H1156.62V10.96H1157.8C1158.78 10.96 1159.5 11.184 1159.96 11.632C1160.42 12.0693 1160.65 12.672 1160.65 13.44C1160.65 14.1653 1160.41 14.7733 1159.93 15.264C1159.47 15.7547 1158.72 16 1157.66 16ZM1163.31 16H1162.03V8.8H1163.31V16ZM1157.56 12.16H1156.62V14.8H1157.55C1158.16 14.8 1158.6 14.6933 1158.88 14.48C1159.15 14.2667 1159.29 13.936 1159.29 13.488C1159.29 12.6027 1158.72 12.16 1157.56 12.16ZM1171.29 14.208L1171.69 15.216C1170.99 15.8453 1170.09 16.16 1168.98 16.16C1167.81 16.16 1166.87 15.8187 1166.18 15.136C1165.48 14.4533 1165.13 13.5413 1165.13 12.4C1165.13 11.3227 1165.46 10.4267 1166.12 9.712C1166.77 8.99733 1167.67 8.64 1168.84 8.64C1169.8 8.64 1170.59 8.94933 1171.22 9.568C1171.86 10.176 1172.18 10.9653 1172.18 11.936C1172.18 12.2453 1172.15 12.5333 1172.1 12.8H1166.57C1166.62 13.472 1166.87 14 1167.32 14.384C1167.78 14.768 1168.36 14.96 1169.08 14.96C1170.02 14.96 1170.75 14.7093 1171.29 14.208ZM1168.77 9.84C1168.14 9.84 1167.62 10.016 1167.21 10.368C1166.8 10.72 1166.56 11.184 1166.49 11.76H1170.85C1170.82 11.1627 1170.62 10.6933 1170.25 10.352C1169.88 10.0107 1169.39 9.84 1168.77 9.84Z" fill="#002E5E"/>
<circle cx="969" cy="11" r="6" fill="#002E5E"/>
</svg>
