<svg width="617" height="72" viewBox="0 0 617 72" fill="none" xmlns="http://www.w3.org/2000/svg">
<path d="M28.224 4.8H29.872L24.88 10.064L30.128 16H28.384L23.312 10.16L28.224 4.8ZM23.04 16H21.68V4.8H23.04V16ZM37.7194 16H36.4394V10.08H33.9114L33.8314 11.296C33.746 12.288 33.618 13.1147 33.4474 13.776C33.2874 14.4267 33.074 14.9173 32.8074 15.248C32.5514 15.568 32.2794 15.792 31.9914 15.92C31.7034 16.0373 31.3514 16.096 30.9354 16.096L30.8394 14.848C30.9567 14.8587 31.0794 14.8427 31.2074 14.8C31.3354 14.7467 31.474 14.64 31.6234 14.48C31.7834 14.32 31.922 14.1067 32.0394 13.84C32.1674 13.5733 32.2794 13.2 32.3754 12.72C32.482 12.2293 32.5514 11.6693 32.5834 11.04L32.7114 8.8H37.7194V16ZM41.387 16H40.027V8.8H41.387V11.68H42.955C43.1043 10.7627 43.5043 10.0267 44.155 9.472C44.8163 8.91733 45.627 8.64 46.587 8.64C47.7177 8.64 48.6243 8.99733 49.307 9.712C50.0003 10.4267 50.347 11.3227 50.347 12.4C50.347 13.4773 49.995 14.3787 49.291 15.104C48.5977 15.808 47.6963 16.16 46.587 16.16C45.5737 16.16 44.7417 15.8667 44.091 15.28C43.4403 14.6933 43.0563 13.92 42.939 12.96H41.387V16ZM44.987 10.608C44.5603 11.0667 44.347 11.664 44.347 12.4C44.347 13.136 44.5603 13.7333 44.987 14.192C45.4137 14.6507 45.963 14.88 46.635 14.88C47.307 14.88 47.851 14.656 48.267 14.208C48.6937 13.7493 48.907 13.1467 48.907 12.4C48.907 11.664 48.699 11.0667 48.283 10.608C47.867 10.1493 47.3177 9.92 46.635 9.92C45.963 9.92 45.4137 10.1493 44.987 10.608ZM56.3113 8.8H57.5913V16H56.3113V13.2C55.7566 13.552 55.0899 13.728 54.3113 13.728C52.6046 13.728 51.7513 12.8107 51.7513 10.976V8.8H53.1113V10.832C53.1113 11.9627 53.6286 12.528 54.6633 12.528C55.3353 12.528 55.8846 12.3787 56.3113 12.08V8.8ZM65.582 14.208L65.982 15.216C65.2887 15.8453 64.3873 16.16 63.278 16.16C62.1047 16.16 61.1713 15.8187 60.478 15.136C59.774 14.4533 59.422 13.5413 59.422 12.4C59.422 11.3227 59.7527 10.4267 60.414 9.712C61.0647 8.99733 61.9713 8.64 63.134 8.64C64.094 8.64 64.8887 8.94933 65.518 9.568C66.158 10.176 66.478 10.9653 66.478 11.936C66.478 12.2453 66.4513 12.5333 66.398 12.8H60.862C60.9153 13.472 61.166 14 61.614 14.384C62.0727 14.768 62.6593 14.96 63.374 14.96C64.3127 14.96 65.0487 14.7093 65.582 14.208ZM63.07 9.84C62.4407 9.84 61.918 10.016 61.502 10.368C61.0967 10.72 60.8567 11.184 60.782 11.76H65.15C65.118 11.1627 64.9153 10.6933 64.542 10.352C64.1793 10.0107 63.6887 9.84 63.07 9.84ZM68.2145 16V8.8C68.2678 8.8 68.3425 8.8 68.4385 8.8C68.5345 8.78933 68.6732 8.784 68.8545 8.784C69.0358 8.77333 69.2012 8.768 69.3505 8.768C70.1398 8.74667 70.6305 8.736 70.8225 8.736C72.8918 8.736 73.9265 9.35467 73.9265 10.592C73.9265 11.0187 73.7932 11.3867 73.5265 11.696C73.2598 11.9947 72.9132 12.176 72.4865 12.24V12.272C73.6065 12.4747 74.1665 13.04 74.1665 13.968C74.1665 15.3653 73.0625 16.064 70.8545 16.064C70.7478 16.064 70.2785 16.0533 69.4465 16.032C69.2865 16.032 69.1105 16.0267 68.9185 16.016C68.7265 16.016 68.5772 16.0107 68.4705 16C68.3638 16 68.2785 16 68.2145 16ZM71.0305 12.768H69.4945V14.976C70.2625 15.008 70.7532 15.024 70.9665 15.024C72.1932 15.024 72.8065 14.64 72.8065 13.872C72.8065 13.136 72.2145 12.768 71.0305 12.768ZM70.9185 9.776C70.6092 9.776 70.1345 9.792 69.4945 9.824V11.968H71.1105C71.5478 11.968 71.8998 11.8667 72.1665 11.664C72.4332 11.4613 72.5665 11.1893 72.5665 10.848C72.5665 10.1333 72.0172 9.776 70.9185 9.776ZM78.4408 16H76.1208V8.8H77.4008V10.96H78.5848C79.5661 10.96 80.2861 11.184 80.7448 11.632C81.2034 12.0693 81.4328 12.672 81.4328 13.44C81.4328 14.1653 81.1928 14.7733 80.7128 15.264C80.2541 15.7547 79.4968 16 78.4408 16ZM84.0888 16H82.8088V8.8H84.0888V16ZM78.3448 12.16H77.4008V14.8H78.3288C78.9368 14.8 79.3794 14.6933 79.6568 14.48C79.9341 14.2667 80.0728 13.936 80.0728 13.488C80.0728 12.6027 79.4968 12.16 78.3448 12.16ZM92.0664 14.208L92.4664 15.216C91.773 15.8453 90.8717 16.16 89.7624 16.16C88.589 16.16 87.6557 15.8187 86.9624 15.136C86.2584 14.4533 85.9064 13.5413 85.9064 12.4C85.9064 11.3227 86.237 10.4267 86.8984 9.712C87.549 8.99733 88.4557 8.64 89.6184 8.64C90.5784 8.64 91.373 8.94933 92.0024 9.568C92.6424 10.176 92.9624 10.9653 92.9624 11.936C92.9624 12.2453 92.9357 12.5333 92.8824 12.8H87.3464C87.3997 13.472 87.6504 14 88.0984 14.384C88.557 14.768 89.1437 14.96 89.8584 14.96C90.797 14.96 91.533 14.7093 92.0664 14.208ZM89.5544 9.84C88.925 9.84 88.4024 10.016 87.9864 10.368C87.581 10.72 87.341 11.184 87.2664 11.76H91.6344C91.6024 11.1627 91.3997 10.6933 91.0264 10.352C90.6637 10.0107 90.173 9.84 89.5544 9.84ZM94.4109 15.264C94.4109 15.008 94.4909 14.8053 94.6509 14.656C94.8109 14.496 95.0349 14.416 95.3229 14.416C95.6642 14.416 95.9415 14.56 96.1549 14.848C96.3682 15.1253 96.4749 15.4987 96.4749 15.968C96.4749 16.544 96.3149 17.04 95.9949 17.456C95.6855 17.8827 95.2589 18.176 94.7149 18.336L94.3629 17.728C94.9175 17.5573 95.2589 17.2 95.3869 16.656C95.4615 16.2933 95.4562 16.0267 95.3709 15.856C95.3069 15.952 95.1895 16 95.0189 16C94.8589 16 94.7149 15.9307 94.5869 15.792C94.4695 15.6427 94.4109 15.4667 94.4109 15.264ZM107.616 16H106.336V10H102.416V16H101.136V8.8H107.616V16ZM110.509 15.104C109.805 14.3787 109.453 13.4773 109.453 12.4C109.453 11.312 109.805 10.416 110.509 9.712C111.224 8.99733 112.152 8.64 113.293 8.64C114.435 8.64 115.357 8.99733 116.061 9.712C116.776 10.416 117.133 11.312 117.133 12.4C117.133 13.488 116.776 14.3893 116.061 15.104C115.357 15.808 114.435 16.16 113.293 16.16C112.163 16.16 111.235 15.808 110.509 15.104ZM111.517 10.56C111.048 11.0293 110.813 11.6427 110.813 12.4C110.813 13.1573 111.043 13.7707 111.501 14.24C111.971 14.72 112.568 14.96 113.293 14.96C114.019 14.96 114.611 14.7253 115.069 14.256C115.539 13.776 115.773 13.1573 115.773 12.4C115.773 11.664 115.539 11.0507 115.069 10.56C114.611 10.08 114.019 9.84 113.293 9.84C112.568 9.84 111.976 10.08 111.517 10.56ZM128.11 14.032L128.718 14.96C128.099 15.76 127.177 16.16 125.95 16.16C124.798 16.16 123.865 15.8187 123.15 15.136C122.446 14.4533 122.094 13.5413 122.094 12.4C122.094 11.344 122.441 10.4533 123.134 9.728C123.827 9.00267 124.697 8.64 125.742 8.64C127.001 8.64 127.945 8.95467 128.574 9.584L127.982 10.592C127.427 10.0907 126.739 9.84 125.918 9.84C125.246 9.84 124.665 10.0853 124.174 10.576C123.694 11.056 123.454 11.664 123.454 12.4C123.454 13.1787 123.699 13.7973 124.19 14.256C124.691 14.7253 125.31 14.96 126.046 14.96C126.878 14.96 127.566 14.6507 128.11 14.032ZM136.866 16H135.586V10H131.666V16H130.386V8.8H136.866V16ZM144.623 10.64L140.463 16H139.183V8.8H140.463V14.16L144.623 8.8H145.903V16H144.623V10.64ZM153.766 14.032L154.374 14.96C153.755 15.76 152.833 16.16 151.606 16.16C150.454 16.16 149.521 15.8187 148.806 15.136C148.102 14.4533 147.75 13.5413 147.75 12.4C147.75 11.344 148.097 10.4533 148.79 9.728C149.483 9.00267 150.353 8.64 151.398 8.64C152.657 8.64 153.601 8.95467 154.23 9.584L153.638 10.592C153.083 10.0907 152.395 9.84 151.574 9.84C150.902 9.84 150.321 10.0853 149.83 10.576C149.35 11.056 149.11 11.664 149.11 12.4C149.11 13.1787 149.355 13.7973 149.846 14.256C150.347 14.7253 150.966 14.96 151.702 14.96C152.534 14.96 153.222 14.6507 153.766 14.032ZM160.667 8.8H162.347L159.195 12.24L162.651 16H160.875L157.627 12.32L160.667 8.8ZM157.323 16H156.043V8.8H157.323V16ZM164.395 10.32L164.059 9.296C164.774 8.85867 165.574 8.64 166.459 8.64C167.43 8.64 168.134 8.88 168.571 9.36C169.009 9.84 169.227 10.5813 169.227 11.584V16H168.011V15.072C167.446 15.7653 166.678 16.112 165.707 16.112C165.046 16.112 164.513 15.9147 164.107 15.52C163.702 15.1147 163.499 14.5707 163.499 13.888C163.499 13.184 163.75 12.6293 164.251 12.224C164.753 11.808 165.409 11.6 166.219 11.6C166.977 11.6 167.574 11.7547 168.011 12.064C168.011 11.2533 167.899 10.672 167.675 10.32C167.451 9.968 167.019 9.792 166.379 9.792C165.729 9.792 165.067 9.968 164.395 10.32ZM166.155 14.96C166.87 14.96 167.489 14.6507 168.011 14.032V13.12C167.563 12.8 167.025 12.64 166.395 12.64C165.958 12.64 165.59 12.7467 165.291 12.96C165.003 13.1627 164.859 13.4507 164.859 13.824C164.859 14.176 164.971 14.4533 165.195 14.656C165.43 14.8587 165.75 14.96 166.155 14.96ZM172.651 16H171.371V8.8H172.539L175.307 12.368L177.931 8.8H179.067V16H177.787V10.752L175.291 14.096H175.243L172.651 10.752V16ZM181.098 15.264C181.098 15.008 181.178 14.8053 181.338 14.656C181.498 14.496 181.722 14.416 182.01 14.416C182.352 14.416 182.629 14.56 182.842 14.848C183.056 15.1253 183.162 15.4987 183.162 15.968C183.162 16.544 183.002 17.04 182.682 17.456C182.373 17.8827 181.946 18.176 181.402 18.336L181.05 17.728C181.605 17.5573 181.946 17.2 182.074 16.656C182.149 16.2933 182.144 16.0267 182.058 15.856C181.994 15.952 181.877 16 181.706 16C181.546 16 181.402 15.9307 181.274 15.792C181.157 15.6427 181.098 15.4667 181.098 15.264ZM189.552 10.08H186.912V8.8H193.472V10.08H190.832V16H189.552V10.08ZM196.151 19.2H194.871V8.8H196.151V9.648C196.407 9.34933 196.759 9.10933 197.207 8.928C197.655 8.736 198.119 8.64 198.599 8.64C199.623 8.64 200.428 8.98133 201.015 9.664C201.623 10.336 201.927 11.2107 201.927 12.288C201.927 13.3867 201.58 14.3093 200.887 15.056C200.204 15.792 199.303 16.16 198.183 16.16C197.319 16.16 196.641 15.9947 196.151 15.664V19.2ZM198.231 9.84C197.377 9.84 196.684 10.1707 196.151 10.832V14.4C196.716 14.7733 197.356 14.96 198.071 14.96C198.828 14.96 199.431 14.72 199.879 14.24C200.337 13.7493 200.567 13.1147 200.567 12.336C200.567 11.5787 200.359 10.976 199.943 10.528C199.527 10.0693 198.956 9.84 198.231 9.84ZM204.145 10.32L203.809 9.296C204.524 8.85867 205.324 8.64 206.209 8.64C207.18 8.64 207.884 8.88 208.321 9.36C208.759 9.84 208.977 10.5813 208.977 11.584V16H207.761V15.072C207.196 15.7653 206.428 16.112 205.457 16.112C204.796 16.112 204.263 15.9147 203.857 15.52C203.452 15.1147 203.249 14.5707 203.249 13.888C203.249 13.184 203.5 12.6293 204.001 12.224C204.503 11.808 205.159 11.6 205.969 11.6C206.727 11.6 207.324 11.7547 207.761 12.064C207.761 11.2533 207.649 10.672 207.425 10.32C207.201 9.968 206.769 9.792 206.129 9.792C205.479 9.792 204.817 9.968 204.145 10.32ZM205.905 14.96C206.62 14.96 207.239 14.6507 207.761 14.032V13.12C207.313 12.8 206.775 12.64 206.145 12.64C205.708 12.64 205.34 12.7467 205.041 12.96C204.753 13.1627 204.609 13.4507 204.609 13.824C204.609 14.176 204.721 14.4533 204.945 14.656C205.18 14.8587 205.5 14.96 205.905 14.96ZM217.681 16H216.401V12.96H212.401V16H211.121V8.8H212.401V11.76H216.401V8.8H217.681V16ZM225.532 14.032L226.14 14.96C225.521 15.76 224.598 16.16 223.372 16.16C222.22 16.16 221.286 15.8187 220.572 15.136C219.868 14.4533 219.516 13.5413 219.516 12.4C219.516 11.344 219.862 10.4533 220.556 9.728C221.249 9.00267 222.118 8.64 223.164 8.64C224.422 8.64 225.366 8.95467 225.996 9.584L225.404 10.592C224.849 10.0907 224.161 9.84 223.34 9.84C222.668 9.84 222.086 10.0853 221.596 10.576C221.116 11.056 220.876 11.664 220.876 12.4C220.876 13.1787 221.121 13.7973 221.612 14.256C222.113 14.7253 222.732 14.96 223.468 14.96C224.3 14.96 224.988 14.6507 225.532 14.032ZM233.876 16H232.596V10.08H230.068L229.988 11.296C229.902 12.288 229.774 13.1147 229.604 13.776C229.444 14.4267 229.23 14.9173 228.964 15.248C228.708 15.568 228.436 15.792 228.148 15.92C227.86 16.0373 227.508 16.096 227.092 16.096L226.996 14.848C227.113 14.8587 227.236 14.8427 227.364 14.8C227.492 14.7467 227.63 14.64 227.78 14.48C227.94 14.32 228.078 14.1067 228.196 13.84C228.324 13.5733 228.436 13.2 228.532 12.72C228.638 12.2293 228.708 11.6693 228.74 11.04L228.868 8.8H233.876V16ZM241.623 10.64L237.463 16H236.183V8.8H237.463V14.16L241.623 8.8H242.903V16H241.623V10.64ZM246.51 19.2H245.23V8.8H246.51V9.648C246.766 9.34933 247.118 9.10933 247.566 8.928C248.014 8.736 248.478 8.64 248.958 8.64C249.982 8.64 250.787 8.98133 251.374 9.664C251.982 10.336 252.286 11.2107 252.286 12.288C252.286 13.3867 251.939 14.3093 251.246 15.056C250.563 15.792 249.662 16.16 248.542 16.16C247.678 16.16 247.001 15.9947 246.51 15.664V19.2ZM248.59 9.84C247.737 9.84 247.043 10.1707 246.51 10.832V14.4C247.075 14.7733 247.715 14.96 248.43 14.96C249.187 14.96 249.79 14.72 250.238 14.24C250.697 13.7493 250.926 13.1147 250.926 12.336C250.926 11.5787 250.718 10.976 250.302 10.528C249.886 10.0693 249.315 9.84 248.59 9.84ZM258.928 8.8H260.384L257.504 16C256.981 17.2693 256.528 18.112 256.144 18.528C255.738 18.976 255.274 19.2 254.752 19.2C254.282 19.2 253.829 19.0507 253.392 18.752L253.808 17.776C254.149 17.936 254.416 18.016 254.608 18.016C254.906 18.016 255.173 17.888 255.408 17.632C255.653 17.376 255.898 16.96 256.144 16.384L256.304 16L252.848 8.8H254.384L256.496 13.376C256.538 13.4507 256.682 13.8133 256.928 14.464C257.024 14.112 257.136 13.744 257.264 13.36L258.928 8.8ZM267.098 14.208L267.498 15.216C266.804 15.8453 265.903 16.16 264.794 16.16C263.62 16.16 262.687 15.8187 261.994 15.136C261.29 14.4533 260.938 13.5413 260.938 12.4C260.938 11.3227 261.268 10.4267 261.93 9.712C262.58 8.99733 263.487 8.64 264.65 8.64C265.61 8.64 266.404 8.94933 267.034 9.568C267.674 10.176 267.994 10.9653 267.994 11.936C267.994 12.2453 267.967 12.5333 267.914 12.8H262.378C262.431 13.472 262.682 14 263.13 14.384C263.588 14.768 264.175 14.96 264.89 14.96C265.828 14.96 266.564 14.7093 267.098 14.208ZM264.586 9.84C263.956 9.84 263.434 10.016 263.018 10.368C262.612 10.72 262.372 11.184 262.298 11.76H266.666C266.634 11.1627 266.431 10.6933 266.058 10.352C265.695 10.0107 265.204 9.84 264.586 9.84ZM271.01 16H269.73V8.8H270.898L273.666 12.368L276.29 8.8H277.426V16H276.146V10.752L273.65 14.096H273.602L271.01 10.752V16ZM282.066 16H279.746V8.8H281.026V10.96H282.21C283.191 10.96 283.911 11.184 284.37 11.632C284.828 12.0693 285.058 12.672 285.058 13.44C285.058 14.1653 284.818 14.7733 284.338 15.264C283.879 15.7547 283.122 16 282.066 16ZM287.714 16H286.434V8.8H287.714V16ZM281.97 12.16H281.026V14.8H281.954C282.562 14.8 283.004 14.6933 283.282 14.48C283.559 14.2667 283.698 13.936 283.698 13.488C283.698 12.6027 283.122 12.16 281.97 12.16ZM295.691 14.208L296.091 15.216C295.398 15.8453 294.497 16.16 293.387 16.16C292.214 16.16 291.281 15.8187 290.587 15.136C289.883 14.4533 289.531 13.5413 289.531 12.4C289.531 11.3227 289.862 10.4267 290.523 9.712C291.174 8.99733 292.081 8.64 293.243 8.64C294.203 8.64 294.998 8.94933 295.627 9.568C296.267 10.176 296.587 10.9653 296.587 11.936C296.587 12.2453 296.561 12.5333 296.507 12.8H290.971C291.025 13.472 291.275 14 291.723 14.384C292.182 14.768 292.769 14.96 293.483 14.96C294.422 14.96 295.158 14.7093 295.691 14.208ZM293.179 9.84C292.55 9.84 292.027 10.016 291.611 10.368C291.206 10.72 290.966 11.184 290.891 11.76H295.259C295.227 11.1627 295.025 10.6933 294.651 10.352C294.289 10.0107 293.798 9.84 293.179 9.84Z" fill="#EC1C24"/>
<circle cx="6" cy="11" r="6" fill="#EC1C24"/>
<path d="M431.304 21.16C430.525 21.16 429.8 20.9947 429.128 20.664C428.467 20.3333 427.971 19.912 427.64 19.4L428.392 18.488C428.744 18.904 429.181 19.24 429.704 19.496C430.237 19.752 430.744 19.88 431.224 19.88C431.992 19.88 432.605 19.688 433.064 19.304C433.533 18.92 433.768 18.3973 433.768 17.736C433.768 17.1813 433.576 16.7387 433.192 16.408C432.808 16.0773 432.269 15.912 431.576 15.912H430.28V14.632H431.48C431.971 14.632 432.403 14.456 432.776 14.104C433.149 13.7307 433.336 13.2773 433.336 12.744C433.336 12.168 433.149 11.72 432.776 11.4C432.403 11.08 431.912 10.92 431.304 10.92C430.312 10.92 429.464 11.336 428.76 12.168L427.96 11.272C428.344 10.76 428.845 10.36 429.464 10.072C430.083 9.784 430.744 9.64 431.448 9.64C432.44 9.64 433.229 9.90667 433.816 10.44C434.403 10.9627 434.696 11.688 434.696 12.616C434.696 13.1387 434.552 13.6347 434.264 14.104C433.987 14.5627 433.592 14.92 433.08 15.176V15.224C433.731 15.352 434.232 15.656 434.584 16.136C434.947 16.6053 435.128 17.1813 435.128 17.864C435.128 18.8773 434.755 19.6773 434.008 20.264C433.261 20.8613 432.36 21.16 431.304 21.16ZM437.786 15.32L437.45 14.296C438.165 13.8587 438.965 13.64 439.85 13.64C440.821 13.64 441.525 13.88 441.962 14.36C442.399 14.84 442.618 15.5813 442.618 16.584V21H441.402V20.072C440.837 20.7653 440.069 21.112 439.098 21.112C438.437 21.112 437.903 20.9147 437.498 20.52C437.093 20.1147 436.89 19.5707 436.89 18.888C436.89 18.184 437.141 17.6293 437.642 17.224C438.143 16.808 438.799 16.6 439.61 16.6C440.367 16.6 440.965 16.7547 441.402 17.064C441.402 16.2533 441.29 15.672 441.066 15.32C440.842 14.968 440.41 14.792 439.77 14.792C439.119 14.792 438.458 14.968 437.786 15.32ZM439.546 19.96C440.261 19.96 440.879 19.6507 441.402 19.032V18.12C440.954 17.8 440.415 17.64 439.786 17.64C439.349 17.64 438.981 17.7467 438.682 17.96C438.394 18.1627 438.25 18.4507 438.25 18.824C438.25 19.176 438.362 19.4533 438.586 19.656C438.821 19.8587 439.141 19.96 439.546 19.96ZM449.385 13.8H451.065L447.913 17.24L451.369 21H449.593L446.345 17.32L449.385 13.8ZM446.041 21H444.761V13.8H446.041V21ZM454.01 24.2H452.73V13.8H454.01V14.648C454.266 14.3493 454.618 14.1093 455.066 13.928C455.514 13.736 455.978 13.64 456.458 13.64C457.482 13.64 458.287 13.9813 458.874 14.664C459.482 15.336 459.786 16.2107 459.786 17.288C459.786 18.3867 459.439 19.3093 458.746 20.056C458.063 20.792 457.162 21.16 456.042 21.16C455.178 21.16 454.501 20.9947 454.01 20.664V24.2ZM456.09 14.84C455.237 14.84 454.543 15.1707 454.01 15.832V19.4C454.575 19.7733 455.215 19.96 455.93 19.96C456.687 19.96 457.29 19.72 457.738 19.24C458.197 18.7493 458.426 18.1147 458.426 17.336C458.426 16.5787 458.218 15.976 457.802 15.528C457.386 15.0693 456.815 14.84 456.09 14.84ZM463.941 21H461.621V13.8H462.901V15.96H464.085C465.066 15.96 465.786 16.184 466.245 16.632C466.703 17.0693 466.933 17.672 466.933 18.44C466.933 19.1653 466.693 19.7733 466.213 20.264C465.754 20.7547 464.997 21 463.941 21ZM469.589 21H468.309V13.8H469.589V21ZM463.845 17.16H462.901V19.8H463.829C464.437 19.8 464.879 19.6933 465.157 19.48C465.434 19.2667 465.573 18.936 465.573 18.488C465.573 17.6027 464.997 17.16 463.845 17.16ZM473.614 15.08H470.974V13.8H477.534V15.08H474.894V21H473.614V15.08ZM481.253 21H478.933V13.8H480.213V15.96H481.397C482.379 15.96 483.099 16.184 483.557 16.632C484.016 17.0693 484.245 17.672 484.245 18.44C484.245 19.1653 484.005 19.7733 483.525 20.264C483.067 20.7547 482.309 21 481.253 21ZM486.901 21H485.621V13.8H486.901V21ZM481.157 17.16H480.213V19.8H481.141C481.749 19.8 482.192 19.6933 482.469 19.48C482.747 19.2667 482.885 18.936 482.885 18.488C482.885 17.6027 482.309 17.16 481.157 17.16ZM494.879 19.208L495.279 20.216C494.586 20.8453 493.684 21.16 492.575 21.16C491.402 21.16 490.468 20.8187 489.775 20.136C489.071 19.4533 488.719 18.5413 488.719 17.4C488.719 16.3227 489.05 15.4267 489.711 14.712C490.362 13.9973 491.268 13.64 492.431 13.64C493.391 13.64 494.186 13.9493 494.815 14.568C495.455 15.176 495.775 15.9653 495.775 16.936C495.775 17.2453 495.748 17.5333 495.695 17.8H490.159C490.212 18.472 490.463 19 490.911 19.384C491.37 19.768 491.956 19.96 492.671 19.96C493.61 19.96 494.346 19.7093 494.879 19.208ZM492.367 14.84C491.738 14.84 491.215 15.016 490.799 15.368C490.394 15.72 490.154 16.184 490.079 16.76H494.447C494.415 16.1627 494.212 15.6933 493.839 15.352C493.476 15.0107 492.986 14.84 492.367 14.84ZM497.223 20.264C497.223 20.008 497.303 19.8053 497.463 19.656C497.623 19.496 497.847 19.416 498.135 19.416C498.477 19.416 498.754 19.56 498.967 19.848C499.181 20.1253 499.287 20.4987 499.287 20.968C499.287 21.544 499.127 22.04 498.807 22.456C498.498 22.8827 498.071 23.176 497.527 23.336L497.175 22.728C497.73 22.5573 498.071 22.2 498.199 21.656C498.274 21.2933 498.269 21.0267 498.183 20.856C498.119 20.952 498.002 21 497.831 21C497.671 21 497.527 20.9307 497.399 20.792C497.282 20.6427 497.223 20.4667 497.223 20.264ZM510.429 21H509.149V15H505.229V21H503.949V13.8H510.429V21ZM513.322 20.104C512.618 19.3787 512.266 18.4773 512.266 17.4C512.266 16.312 512.618 15.416 513.322 14.712C514.036 13.9973 514.964 13.64 516.106 13.64C517.247 13.64 518.17 13.9973 518.874 14.712C519.588 15.416 519.946 16.312 519.946 17.4C519.946 18.488 519.588 19.3893 518.874 20.104C518.17 20.808 517.247 21.16 516.106 21.16C514.975 21.16 514.047 20.808 513.322 20.104ZM514.33 15.56C513.86 16.0293 513.626 16.6427 513.626 17.4C513.626 18.1573 513.855 18.7707 514.314 19.24C514.783 19.72 515.38 19.96 516.106 19.96C516.831 19.96 517.423 19.7253 517.882 19.256C518.351 18.776 518.586 18.1573 518.586 17.4C518.586 16.664 518.351 16.0507 517.882 15.56C517.423 15.08 516.831 14.84 516.106 14.84C515.38 14.84 514.788 15.08 514.33 15.56ZM530.922 19.032L531.53 19.96C530.912 20.76 529.989 21.16 528.762 21.16C527.61 21.16 526.677 20.8187 525.962 20.136C525.258 19.4533 524.906 18.5413 524.906 17.4C524.906 16.344 525.253 15.4533 525.946 14.728C526.64 14.0027 527.509 13.64 528.554 13.64C529.813 13.64 530.757 13.9547 531.386 14.584L530.794 15.592C530.24 15.0907 529.552 14.84 528.73 14.84C528.058 14.84 527.477 15.0853 526.986 15.576C526.506 16.056 526.266 16.664 526.266 17.4C526.266 18.1787 526.512 18.7973 527.002 19.256C527.504 19.7253 528.122 19.96 528.858 19.96C529.69 19.96 530.378 19.6507 530.922 19.032ZM539.679 21H538.399V15H534.479V21H533.199V13.8H539.679V21ZM547.436 15.64L543.276 21H541.996V13.8H543.276V19.16L547.436 13.8H548.716V21H547.436V15.64ZM556.579 19.032L557.187 19.96C556.568 20.76 555.645 21.16 554.419 21.16C553.267 21.16 552.333 20.8187 551.619 20.136C550.915 19.4533 550.563 18.5413 550.563 17.4C550.563 16.344 550.909 15.4533 551.603 14.728C552.296 14.0027 553.165 13.64 554.211 13.64C555.469 13.64 556.413 13.9547 557.043 14.584L556.451 15.592C555.896 15.0907 555.208 14.84 554.387 14.84C553.715 14.84 553.133 15.0853 552.643 15.576C552.163 16.056 551.923 16.664 551.923 17.4C551.923 18.1787 552.168 18.7973 552.659 19.256C553.16 19.7253 553.779 19.96 554.515 19.96C555.347 19.96 556.035 19.6507 556.579 19.032ZM563.479 13.8H565.159L562.007 17.24L565.463 21H563.687L560.439 17.32L563.479 13.8ZM560.135 21H558.855V13.8H560.135V21ZM567.208 15.32L566.872 14.296C567.587 13.8587 568.387 13.64 569.272 13.64C570.243 13.64 570.947 13.88 571.384 14.36C571.821 14.84 572.04 15.5813 572.04 16.584V21H570.824V20.072C570.259 20.7653 569.491 21.112 568.52 21.112C567.859 21.112 567.325 20.9147 566.92 20.52C566.515 20.1147 566.312 19.5707 566.312 18.888C566.312 18.184 566.563 17.6293 567.064 17.224C567.565 16.808 568.221 16.6 569.032 16.6C569.789 16.6 570.387 16.7547 570.824 17.064C570.824 16.2533 570.712 15.672 570.488 15.32C570.264 14.968 569.832 14.792 569.192 14.792C568.541 14.792 567.88 14.968 567.208 15.32ZM568.968 19.96C569.683 19.96 570.301 19.6507 570.824 19.032V18.12C570.376 17.8 569.837 17.64 569.208 17.64C568.771 17.64 568.403 17.7467 568.104 17.96C567.816 18.1627 567.672 18.4507 567.672 18.824C567.672 19.176 567.784 19.4533 568.008 19.656C568.243 19.8587 568.563 19.96 568.968 19.96ZM575.463 21H574.183V13.8H575.351L578.119 17.368L580.743 13.8H581.879V21H580.599V15.752L578.103 19.096H578.055L575.463 15.752V21Z" fill="#333333"/>
<circle cx="413" cy="16" r="6" fill="#333333"/>
<path d="M20.8 60.4C20.8 58.7787 21.3387 57.4133 22.416 56.304C23.4933 55.1947 24.8587 54.64 26.512 54.64C28.1547 54.64 29.5147 55.1787 30.592 56.256C31.68 57.3333 32.224 58.7147 32.224 60.4C32.224 62.0427 31.68 63.4187 30.592 64.528C29.504 65.616 28.144 66.16 26.512 66.16C24.88 66.16 23.5147 65.6213 22.416 64.544C21.3387 63.4667 20.8 62.0853 20.8 60.4ZM22.24 60.4C22.24 61.6587 22.6507 62.7253 23.472 63.6C24.2933 64.4533 25.3067 64.88 26.512 64.88C27.7707 64.88 28.7947 64.4533 29.584 63.6C30.384 62.7467 30.784 61.68 30.784 60.4C30.784 59.12 30.3733 58.0533 29.552 57.2C28.7307 56.3467 27.7173 55.92 26.512 55.92C25.2853 55.92 24.2667 56.3413 23.456 57.184C22.6453 58.0267 22.24 59.0987 22.24 60.4ZM39.7513 54.64L40.4393 55.648C40.1833 56 39.8739 56.24 39.5113 56.368C39.1166 56.5067 38.6686 56.6133 38.1673 56.688C37.6766 56.7627 37.2126 56.896 36.7753 57.088C35.6873 57.5893 35.0793 58.7467 34.9513 60.56H34.9833C35.2179 60.0587 35.5966 59.6533 36.1193 59.344C36.6526 59.0347 37.2233 58.88 37.8313 58.88C38.8553 58.88 39.6659 59.2053 40.2633 59.856C40.8713 60.5067 41.1753 61.376 41.1753 62.464C41.1753 63.488 40.8286 64.3627 40.1353 65.088C39.4526 65.8027 38.5673 66.16 37.4793 66.16C36.3059 66.16 35.3779 65.76 34.6953 64.96C34.0126 64.1707 33.6713 63.0773 33.6713 61.68C33.6713 58.5653 34.5619 56.6293 36.3433 55.872C36.7486 55.6907 37.2179 55.5573 37.7513 55.472C38.1673 55.3973 38.4659 55.3387 38.6473 55.296C38.8286 55.2533 39.0206 55.1787 39.2233 55.072C39.4366 54.9653 39.6126 54.8213 39.7513 54.64ZM35.0312 61.92C35.0312 62.8373 35.2553 63.5733 35.7033 64.128C36.1513 64.6827 36.7326 64.96 37.4473 64.96C38.1406 64.96 38.7059 64.7253 39.1433 64.256C39.5913 63.7973 39.8153 63.2213 39.8153 62.528C39.8153 61.792 39.6073 61.2 39.1913 60.752C38.7859 60.304 38.2259 60.08 37.5113 60.08C36.8606 60.08 36.3166 60.2613 35.8793 60.624C35.4206 60.9973 35.1379 61.4293 35.0312 61.92ZM44.2914 69.2H43.0114V58.8H44.2914V59.648C44.5474 59.3493 44.8994 59.1093 45.3474 58.928C45.7954 58.736 46.2594 58.64 46.7394 58.64C47.7634 58.64 48.5687 58.9813 49.1554 59.664C49.7634 60.336 50.0674 61.2107 50.0674 62.288C50.0674 63.3867 49.7207 64.3093 49.0274 65.056C48.3447 65.792 47.4434 66.16 46.3234 66.16C45.4594 66.16 44.782 65.9947 44.2914 65.664V69.2ZM46.3714 59.84C45.518 59.84 44.8247 60.1707 44.2914 60.832V64.4C44.8567 64.7733 45.4967 64.96 46.2114 64.96C46.9687 64.96 47.5714 64.72 48.0194 64.24C48.478 63.7493 48.7074 63.1147 48.7074 62.336C48.7074 61.5787 48.4994 60.976 48.0834 60.528C47.6674 60.0693 47.0967 59.84 46.3714 59.84ZM52.286 60.32L51.95 59.296C52.6647 58.8587 53.4647 58.64 54.35 58.64C55.3207 58.64 56.0247 58.88 56.462 59.36C56.8993 59.84 57.118 60.5813 57.118 61.584V66H55.902V65.072C55.3367 65.7653 54.5687 66.112 53.598 66.112C52.9367 66.112 52.4033 65.9147 51.998 65.52C51.5927 65.1147 51.39 64.5707 51.39 63.888C51.39 63.184 51.6407 62.6293 52.142 62.224C52.6433 61.808 53.2993 61.6 54.11 61.6C54.8673 61.6 55.4647 61.7547 55.902 62.064C55.902 61.2533 55.79 60.672 55.566 60.32C55.342 59.968 54.91 59.792 54.27 59.792C53.6193 59.792 52.958 59.968 52.286 60.32ZM54.046 64.96C54.7607 64.96 55.3793 64.6507 55.902 64.032V63.12C55.454 62.8 54.9153 62.64 54.286 62.64C53.8487 62.64 53.4807 62.7467 53.182 62.96C52.894 63.1627 52.75 63.4507 52.75 63.824C52.75 64.176 52.862 64.4533 53.086 64.656C53.3207 64.8587 53.6407 64.96 54.046 64.96ZM61.6454 66.16C61.1014 66.16 60.5254 66.0693 59.9174 65.888C59.3307 65.696 58.9147 65.4613 58.6694 65.184L59.3254 64.224C59.6134 64.4587 59.9547 64.6507 60.3494 64.8C60.7547 64.9387 61.1227 65.008 61.4534 65.008C62.008 65.008 62.4614 64.9013 62.8134 64.688C63.1654 64.464 63.3414 64.176 63.3414 63.824C63.3414 63.5253 63.2134 63.296 62.9574 63.136C62.712 62.976 62.3707 62.896 61.9334 62.896H60.7174V61.856H61.8534C62.216 61.856 62.5147 61.76 62.7494 61.568C62.984 61.3653 63.1014 61.12 63.1014 60.832C63.1014 60.512 62.9627 60.2613 62.6854 60.08C62.408 59.888 62.0347 59.792 61.5654 59.792C60.808 59.792 60.088 60.0587 59.4054 60.592L58.9094 59.6C59.1974 59.3013 59.5974 59.0667 60.1094 58.896C60.632 58.7253 61.1814 58.64 61.7574 58.64C62.6107 58.64 63.272 58.8107 63.7414 59.152C64.2214 59.4933 64.4614 59.968 64.4614 60.576C64.4614 61.408 64.04 61.9733 63.1974 62.272V62.304C63.6667 62.3573 64.0347 62.544 64.3014 62.864C64.568 63.1733 64.7014 63.552 64.7014 64C64.7014 64.6613 64.4187 65.1893 63.8534 65.584C63.2987 65.968 62.5627 66.16 61.6454 66.16ZM67.228 65.104C66.524 64.3787 66.172 63.4773 66.172 62.4C66.172 61.312 66.524 60.416 67.228 59.712C67.9427 58.9973 68.8707 58.64 70.012 58.64C71.1533 58.64 72.076 58.9973 72.78 59.712C73.4947 60.416 73.852 61.312 73.852 62.4C73.852 63.488 73.4947 64.3893 72.78 65.104C72.076 65.808 71.1533 66.16 70.012 66.16C68.8813 66.16 67.9533 65.808 67.228 65.104ZM68.236 60.56C67.7667 61.0293 67.532 61.6427 67.532 62.4C67.532 63.1573 67.7613 63.7707 68.22 64.24C68.6893 64.72 69.2867 64.96 70.012 64.96C70.7373 64.96 71.3293 64.7253 71.788 64.256C72.2573 63.776 72.492 63.1573 72.492 62.4C72.492 61.664 72.2573 61.0507 71.788 60.56C71.3293 60.08 70.7373 59.84 70.012 59.84C69.2867 59.84 68.6947 60.08 68.236 60.56ZM75.6989 66V58.8C75.7522 58.8 75.8269 58.8 75.9229 58.8C76.0189 58.7893 76.1575 58.784 76.3389 58.784C76.5202 58.7733 76.6855 58.768 76.8349 58.768C77.6242 58.7467 78.1149 58.736 78.3069 58.736C80.3762 58.736 81.4109 59.3547 81.4109 60.592C81.4109 61.0187 81.2775 61.3867 81.0109 61.696C80.7442 61.9947 80.3975 62.176 79.9709 62.24V62.272C81.0909 62.4747 81.6509 63.04 81.6509 63.968C81.6509 65.3653 80.5469 66.064 78.3389 66.064C78.2322 66.064 77.7629 66.0533 76.9309 66.032C76.7709 66.032 76.5949 66.0267 76.4029 66.016C76.2109 66.016 76.0615 66.0107 75.9549 66C75.8482 66 75.7629 66 75.6989 66ZM78.5149 62.768H76.9789V64.976C77.7469 65.008 78.2375 65.024 78.4509 65.024C79.6775 65.024 80.2909 64.64 80.2909 63.872C80.2909 63.136 79.6989 62.768 78.5149 62.768ZM78.4029 59.776C78.0935 59.776 77.6189 59.792 76.9789 59.824V61.968H78.5949C79.0322 61.968 79.3842 61.8667 79.6509 61.664C79.9175 61.4613 80.0509 61.1893 80.0509 60.848C80.0509 60.1333 79.5015 59.776 78.4029 59.776ZM83.9891 60.32L83.6531 59.296C84.3678 58.8587 85.1678 58.64 86.0531 58.64C87.0238 58.64 87.7278 58.88 88.1651 59.36C88.6025 59.84 88.8211 60.5813 88.8211 61.584V66H87.6051V65.072C87.0398 65.7653 86.2718 66.112 85.3011 66.112C84.6398 66.112 84.1065 65.9147 83.7011 65.52C83.2958 65.1147 83.0931 64.5707 83.0931 63.888C83.0931 63.184 83.3438 62.6293 83.8451 62.224C84.3465 61.808 85.0025 61.6 85.8131 61.6C86.5705 61.6 87.1678 61.7547 87.6051 62.064C87.6051 61.2533 87.4931 60.672 87.2691 60.32C87.0451 59.968 86.6131 59.792 85.9731 59.792C85.3225 59.792 84.6611 59.968 83.9891 60.32ZM85.7491 64.96C86.4638 64.96 87.0825 64.6507 87.6051 64.032V63.12C87.1571 62.8 86.6185 62.64 85.9891 62.64C85.5518 62.64 85.1838 62.7467 84.8851 62.96C84.5971 63.1627 84.4531 63.4507 84.4531 63.824C84.4531 64.176 84.5651 64.4533 84.7891 64.656C85.0238 64.8587 85.3438 64.96 85.7491 64.96ZM92.6925 60.08H90.0525V58.8H96.6125V60.08H93.9725V66H92.6925V60.08ZM103.457 64.208L103.857 65.216C103.164 65.8453 102.262 66.16 101.153 66.16C99.9797 66.16 99.0463 65.8187 98.353 65.136C97.649 64.4533 97.297 63.5413 97.297 62.4C97.297 61.3227 97.6277 60.4267 98.289 59.712C98.9397 58.9973 99.8463 58.64 101.009 58.64C101.969 58.64 102.764 58.9493 103.393 59.568C104.033 60.176 104.353 60.9653 104.353 61.936C104.353 62.2453 104.326 62.5333 104.273 62.8H98.737C98.7903 63.472 99.041 64 99.489 64.384C99.9477 64.768 100.534 64.96 101.249 64.96C102.188 64.96 102.924 64.7093 103.457 64.208ZM100.945 59.84C100.316 59.84 99.793 60.016 99.377 60.368C98.9717 60.72 98.7317 61.184 98.657 61.76H103.025C102.993 61.1627 102.79 60.6933 102.417 60.352C102.054 60.0107 101.564 59.84 100.945 59.84ZM112.016 66H110.736V60.08H108.208L108.128 61.296C108.043 62.288 107.915 63.1147 107.744 63.776C107.584 64.4267 107.371 64.9173 107.104 65.248C106.848 65.568 106.576 65.792 106.288 65.92C106 66.0373 105.648 66.096 105.232 66.096L105.136 64.848C105.254 64.8587 105.376 64.8427 105.504 64.8C105.632 64.7467 105.771 64.64 105.92 64.48C106.08 64.32 106.219 64.1067 106.336 63.84C106.464 63.5733 106.576 63.2 106.672 62.72C106.779 62.2293 106.848 61.6693 106.88 61.04L107.008 58.8H112.016V66ZM116.756 66H114.324V58.8H115.604V60.96H116.916C117.897 60.96 118.617 61.184 119.076 61.632C119.535 62.0693 119.764 62.672 119.764 63.44C119.764 64.1653 119.524 64.7733 119.044 65.264C118.564 65.7547 117.801 66 116.756 66ZM116.676 62.16H115.604V64.8H116.66C117.823 64.8 118.404 64.3627 118.404 63.488C118.404 62.6027 117.828 62.16 116.676 62.16ZM128.04 66H126.76V62.96H122.76V66H121.48V58.8H122.76V61.76H126.76V58.8H128.04V66ZM132.675 66H130.355V58.8H131.635V60.96H132.819C133.8 60.96 134.52 61.184 134.979 61.632C135.438 62.0693 135.667 62.672 135.667 63.44C135.667 64.1653 135.427 64.7733 134.947 65.264C134.488 65.7547 133.731 66 132.675 66ZM138.323 66H137.043V58.8H138.323V66ZM132.579 62.16H131.635V64.8H132.563C133.171 64.8 133.614 64.6933 133.891 64.48C134.168 64.2667 134.307 63.936 134.307 63.488C134.307 62.6027 133.731 62.16 132.579 62.16ZM146.301 64.208L146.701 65.216C146.007 65.8453 145.106 66.16 143.997 66.16C142.823 66.16 141.89 65.8187 141.197 65.136C140.493 64.4533 140.141 63.5413 140.141 62.4C140.141 61.3227 140.471 60.4267 141.133 59.712C141.783 58.9973 142.69 58.64 143.853 58.64C144.813 58.64 145.607 58.9493 146.237 59.568C146.877 60.176 147.197 60.9653 147.197 61.936C147.197 62.2453 147.17 62.5333 147.117 62.8H141.581C141.634 63.472 141.885 64 142.333 64.384C142.791 64.768 143.378 64.96 144.093 64.96C145.031 64.96 145.767 64.7093 146.301 64.208ZM143.789 59.84C143.159 59.84 142.637 60.016 142.221 60.368C141.815 60.72 141.575 61.184 141.501 61.76H145.869C145.837 61.1627 145.634 60.6933 145.261 60.352C144.898 60.0107 144.407 59.84 143.789 59.84ZM159.007 66H157.727V60H153.807V66H152.527V58.8H159.007V66ZM161.9 65.104C161.196 64.3787 160.844 63.4773 160.844 62.4C160.844 61.312 161.196 60.416 161.9 59.712C162.615 58.9973 163.543 58.64 164.684 58.64C165.825 58.64 166.748 58.9973 167.452 59.712C168.167 60.416 168.524 61.312 168.524 62.4C168.524 63.488 168.167 64.3893 167.452 65.104C166.748 65.808 165.825 66.16 164.684 66.16C163.553 66.16 162.625 65.808 161.9 65.104ZM162.908 60.56C162.439 61.0293 162.204 61.6427 162.204 62.4C162.204 63.1573 162.433 63.7707 162.892 64.24C163.361 64.72 163.959 64.96 164.684 64.96C165.409 64.96 166.001 64.7253 166.46 64.256C166.929 63.776 167.164 63.1573 167.164 62.4C167.164 61.664 166.929 61.0507 166.46 60.56C166.001 60.08 165.409 59.84 164.684 59.84C163.959 59.84 163.367 60.08 162.908 60.56ZM180.445 66H179.165V60H175.245V66H173.965V58.8H180.445V66ZM184.041 69.2H182.761V58.8H184.041V59.648C184.297 59.3493 184.649 59.1093 185.097 58.928C185.545 58.736 186.009 58.64 186.489 58.64C187.513 58.64 188.319 58.9813 188.905 59.664C189.513 60.336 189.817 61.2107 189.817 62.288C189.817 63.3867 189.471 64.3093 188.777 65.056C188.095 65.792 187.193 66.16 186.073 66.16C185.209 66.16 184.532 65.9947 184.041 65.664V69.2ZM186.121 59.84C185.268 59.84 184.575 60.1707 184.041 60.832V64.4C184.607 64.7733 185.247 64.96 185.961 64.96C186.719 64.96 187.321 64.72 187.769 64.24C188.228 63.7493 188.457 63.1147 188.457 62.336C188.457 61.5787 188.249 60.976 187.833 60.528C187.417 60.0693 186.847 59.84 186.121 59.84ZM197.332 64.208L197.732 65.216C197.039 65.8453 196.137 66.16 195.028 66.16C193.855 66.16 192.921 65.8187 192.228 65.136C191.524 64.4533 191.172 63.5413 191.172 62.4C191.172 61.3227 191.503 60.4267 192.164 59.712C192.815 58.9973 193.721 58.64 194.884 58.64C195.844 58.64 196.639 58.9493 197.268 59.568C197.908 60.176 198.228 60.9653 198.228 61.936C198.228 62.2453 198.201 62.5333 198.148 62.8H192.612C192.665 63.472 192.916 64 193.364 64.384C193.823 64.768 194.409 64.96 195.124 64.96C196.063 64.96 196.799 64.7093 197.332 64.208ZM194.82 59.84C194.191 59.84 193.668 60.016 193.252 60.368C192.847 60.72 192.607 61.184 192.532 61.76H196.9C196.868 61.1627 196.665 60.6933 196.292 60.352C195.929 60.0107 195.439 59.84 194.82 59.84ZM199.891 67.76H198.691V64.8H199.587C199.854 64.4693 200.089 63.936 200.291 63.2C200.494 62.4533 200.627 61.6213 200.691 60.704L200.803 58.8H205.715V64.8H206.915V67.76H205.715V66H199.891V67.76ZM202.003 60L201.923 61.2C201.859 62 201.731 62.7307 201.539 63.392C201.347 64.0533 201.15 64.5227 200.947 64.8H204.435V60H202.003ZM208.308 66V58.8C208.362 58.8 208.436 58.8 208.532 58.8C208.628 58.7893 208.767 58.784 208.948 58.784C209.13 58.7733 209.295 58.768 209.444 58.768C210.234 58.7467 210.724 58.736 210.916 58.736C212.986 58.736 214.02 59.3547 214.02 60.592C214.02 61.0187 213.887 61.3867 213.62 61.696C213.354 61.9947 213.007 62.176 212.58 62.24V62.272C213.7 62.4747 214.26 63.04 214.26 63.968C214.26 65.3653 213.156 66.064 210.948 66.064C210.842 66.064 210.372 66.0533 209.54 66.032C209.38 66.032 209.204 66.0267 209.012 66.016C208.82 66.016 208.671 66.0107 208.564 66C208.458 66 208.372 66 208.308 66ZM211.124 62.768H209.588V64.976C210.356 65.008 210.847 65.024 211.06 65.024C212.287 65.024 212.9 64.64 212.9 63.872C212.9 63.136 212.308 62.768 211.124 62.768ZM211.012 59.776C210.703 59.776 210.228 59.792 209.588 59.824V61.968H211.204C211.642 61.968 211.994 61.8667 212.26 61.664C212.527 61.4613 212.66 61.1893 212.66 60.848C212.66 60.1333 212.111 59.776 211.012 59.776ZM216.599 60.32L216.263 59.296C216.977 58.8587 217.777 58.64 218.663 58.64C219.633 58.64 220.337 58.88 220.775 59.36C221.212 59.84 221.431 60.5813 221.431 61.584V66H220.215V65.072C219.649 65.7653 218.881 66.112 217.911 66.112C217.249 66.112 216.716 65.9147 216.311 65.52C215.905 65.1147 215.703 64.5707 215.703 63.888C215.703 63.184 215.953 62.6293 216.455 62.224C216.956 61.808 217.612 61.6 218.423 61.6C219.18 61.6 219.777 61.7547 220.215 62.064C220.215 61.2533 220.103 60.672 219.879 60.32C219.655 59.968 219.223 59.792 218.583 59.792C217.932 59.792 217.271 59.968 216.599 60.32ZM218.359 64.96C219.073 64.96 219.692 64.6507 220.215 64.032V63.12C219.767 62.8 219.228 62.64 218.599 62.64C218.161 62.64 217.793 62.7467 217.495 62.96C217.207 63.1627 217.062 63.4507 217.062 63.824C217.062 64.176 217.175 64.4533 217.399 64.656C217.633 64.8587 217.953 64.96 218.359 64.96ZM224.854 69.2H223.574V58.8H224.854V59.648C225.11 59.3493 225.462 59.1093 225.91 58.928C226.358 58.736 226.822 58.64 227.302 58.64C228.326 58.64 229.131 58.9813 229.718 59.664C230.326 60.336 230.63 61.2107 230.63 62.288C230.63 63.3867 230.283 64.3093 229.59 65.056C228.907 65.792 228.006 66.16 226.886 66.16C226.022 66.16 225.345 65.9947 224.854 65.664V69.2ZM226.934 59.84C226.081 59.84 225.387 60.1707 224.854 60.832V64.4C225.419 64.7733 226.059 64.96 226.774 64.96C227.531 64.96 228.134 64.72 228.582 64.24C229.041 63.7493 229.27 63.1147 229.27 62.336C229.27 61.5787 229.062 60.976 228.646 60.528C228.23 60.0693 227.659 59.84 226.934 59.84ZM237.905 60.64L233.745 66H232.465V58.8H233.745V64.16L237.905 58.8H239.185V66H237.905V60.64ZM243.239 60.08H240.599V58.8H247.159V60.08H244.519V66H243.239V60.08ZM254.004 64.208L254.404 65.216C253.711 65.8453 252.809 66.16 251.7 66.16C250.527 66.16 249.593 65.8187 248.9 65.136C248.196 64.4533 247.844 63.5413 247.844 62.4C247.844 61.3227 248.175 60.4267 248.836 59.712C249.487 58.9973 250.393 58.64 251.556 58.64C252.516 58.64 253.311 58.9493 253.94 59.568C254.58 60.176 254.9 60.9653 254.9 61.936C254.9 62.2453 254.873 62.5333 254.82 62.8H249.284C249.337 63.472 249.588 64 250.036 64.384C250.495 64.768 251.081 64.96 251.796 64.96C252.735 64.96 253.471 64.7093 254.004 64.208ZM251.492 59.84C250.863 59.84 250.34 60.016 249.924 60.368C249.519 60.72 249.279 61.184 249.204 61.76H253.572C253.54 61.1627 253.337 60.6933 252.964 60.352C252.601 60.0107 252.111 59.84 251.492 59.84ZM262.563 66H261.283V60.08H258.755L258.675 61.296C258.59 62.288 258.462 63.1147 258.291 63.776C258.131 64.4267 257.918 64.9173 257.651 65.248C257.395 65.568 257.123 65.792 256.835 65.92C256.547 66.0373 256.195 66.096 255.779 66.096L255.683 64.848C255.8 64.8587 255.923 64.8427 256.051 64.8C256.179 64.7467 256.318 64.64 256.467 64.48C256.627 64.32 256.766 64.1067 256.883 63.84C257.011 63.5733 257.123 63.2 257.219 62.72C257.326 62.2293 257.395 61.6693 257.427 61.04L257.555 58.8H262.563V66ZM267.303 66H264.871V58.8H266.151V60.96H267.463C268.444 60.96 269.164 61.184 269.623 61.632C270.081 62.0693 270.311 62.672 270.311 63.44C270.311 64.1653 270.071 64.7733 269.591 65.264C269.111 65.7547 268.348 66 267.303 66ZM267.223 62.16H266.151V64.8H267.207C268.369 64.8 268.951 64.3627 268.951 63.488C268.951 62.6027 268.375 62.16 267.223 62.16ZM278.587 66H277.307V62.96H273.307V66H272.027V58.8H273.307V61.76H277.307V58.8H278.587V66ZM281.478 65.104C280.774 64.3787 280.422 63.4773 280.422 62.4C280.422 61.312 280.774 60.416 281.478 59.712C282.193 58.9973 283.121 58.64 284.262 58.64C285.403 58.64 286.326 58.9973 287.03 59.712C287.745 60.416 288.102 61.312 288.102 62.4C288.102 63.488 287.745 64.3893 287.03 65.104C286.326 65.808 285.403 66.16 284.262 66.16C283.131 66.16 282.203 65.808 281.478 65.104ZM282.486 60.56C282.017 61.0293 281.782 61.6427 281.782 62.4C281.782 63.1573 282.011 63.7707 282.47 64.24C282.939 64.72 283.537 64.96 284.262 64.96C284.987 64.96 285.579 64.7253 286.038 64.256C286.507 63.776 286.742 63.1573 286.742 62.4C286.742 61.664 286.507 61.0507 286.038 60.56C285.579 60.08 284.987 59.84 284.262 59.84C283.537 59.84 282.945 60.08 282.486 60.56ZM295.389 60.64L291.229 66H289.949V58.8H291.229V64.16L295.389 58.8H296.669V66H295.389V60.64ZM290.973 55.12H292.173C292.237 55.9627 292.648 56.384 293.405 56.384C294.12 56.384 294.509 55.9627 294.573 55.12H295.773C295.773 55.7707 295.549 56.3093 295.101 56.736C294.664 57.152 294.098 57.36 293.405 57.36C292.648 57.36 292.05 57.1573 291.613 56.752C291.186 56.336 290.973 55.792 290.973 55.12ZM303.87 69.2H302.59V58.8H303.87V59.648C304.126 59.3493 304.478 59.1093 304.926 58.928C305.374 58.736 305.838 58.64 306.318 58.64C307.342 58.64 308.147 58.9813 308.734 59.664C309.342 60.336 309.646 61.2107 309.646 62.288C309.646 63.3867 309.299 64.3093 308.606 65.056C307.923 65.792 307.022 66.16 305.902 66.16C305.038 66.16 304.36 65.9947 303.87 65.664V69.2ZM305.95 59.84C305.096 59.84 304.403 60.1707 303.87 60.832V64.4C304.435 64.7733 305.075 64.96 305.79 64.96C306.547 64.96 307.15 64.72 307.598 64.24C308.056 63.7493 308.286 63.1147 308.286 62.336C308.286 61.5787 308.078 60.976 307.662 60.528C307.246 60.0693 306.675 59.84 305.95 59.84ZM317.16 64.208L317.56 65.216C316.867 65.8453 315.965 66.16 314.856 66.16C313.683 66.16 312.749 65.8187 312.056 65.136C311.352 64.4533 311 63.5413 311 62.4C311 61.3227 311.331 60.4267 311.992 59.712C312.643 58.9973 313.549 58.64 314.712 58.64C315.672 58.64 316.467 58.9493 317.096 59.568C317.736 60.176 318.056 60.9653 318.056 61.936C318.056 62.2453 318.029 62.5333 317.976 62.8H312.44C312.493 63.472 312.744 64 313.192 64.384C313.651 64.768 314.237 64.96 314.952 64.96C315.891 64.96 316.627 64.7093 317.16 64.208ZM314.648 59.84C314.019 59.84 313.496 60.016 313.08 60.368C312.675 60.72 312.435 61.184 312.36 61.76H316.728C316.696 61.1627 316.493 60.6933 316.12 60.352C315.757 60.0107 315.267 59.84 314.648 59.84ZM321.073 66H319.793V58.8H324.353V60H321.073V66ZM331.03 60.64L326.87 66H325.59V58.8H326.87V64.16L331.03 58.8H332.31V66H331.03V60.64ZM340.172 64.032L340.78 64.96C340.162 65.76 339.239 66.16 338.012 66.16C336.86 66.16 335.927 65.8187 335.212 65.136C334.508 64.4533 334.156 63.5413 334.156 62.4C334.156 61.344 334.503 60.4533 335.196 59.728C335.89 59.0027 336.759 58.64 337.804 58.64C339.063 58.64 340.007 58.9547 340.636 59.584L340.044 60.592C339.49 60.0907 338.802 59.84 337.98 59.84C337.308 59.84 336.727 60.0853 336.236 60.576C335.756 61.056 335.516 61.664 335.516 62.4C335.516 63.1787 335.762 63.7973 336.252 64.256C336.754 64.7253 337.372 64.96 338.108 64.96C338.94 64.96 339.628 64.6507 340.172 64.032ZM344.083 60.08H341.443V58.8H348.003V60.08H345.363V66H344.083V60.08ZM350.682 69.2H349.402V58.8H350.682V59.648C350.938 59.3493 351.29 59.1093 351.738 58.928C352.186 58.736 352.65 58.64 353.13 58.64C354.154 58.64 354.959 58.9813 355.546 59.664C356.154 60.336 356.458 61.2107 356.458 62.288C356.458 63.3867 356.111 64.3093 355.418 65.056C354.735 65.792 353.834 66.16 352.714 66.16C351.85 66.16 351.173 65.9947 350.682 65.664V69.2ZM352.762 59.84C351.909 59.84 351.215 60.1707 350.682 60.832V64.4C351.247 64.7733 351.887 64.96 352.602 64.96C353.359 64.96 353.962 64.72 354.41 64.24C354.869 63.7493 355.098 63.1147 355.098 62.336C355.098 61.5787 354.89 60.976 354.474 60.528C354.058 60.0693 353.487 59.84 352.762 59.84ZM358.677 60.32L358.341 59.296C359.055 58.8587 359.855 58.64 360.741 58.64C361.711 58.64 362.415 58.88 362.853 59.36C363.29 59.84 363.509 60.5813 363.509 61.584V66H362.293V65.072C361.727 65.7653 360.959 66.112 359.989 66.112C359.327 66.112 358.794 65.9147 358.389 65.52C357.983 65.1147 357.781 64.5707 357.781 63.888C357.781 63.184 358.031 62.6293 358.533 62.224C359.034 61.808 359.69 61.6 360.501 61.6C361.258 61.6 361.855 61.7547 362.293 62.064C362.293 61.2533 362.181 60.672 361.957 60.32C361.733 59.968 361.301 59.792 360.661 59.792C360.01 59.792 359.349 59.968 358.677 60.32ZM360.437 64.96C361.151 64.96 361.77 64.6507 362.293 64.032V63.12C361.845 62.8 361.306 62.64 360.677 62.64C360.239 62.64 359.871 62.7467 359.573 62.96C359.285 63.1627 359.141 63.4507 359.141 63.824C359.141 64.176 359.253 64.4533 359.477 64.656C359.711 64.8587 360.031 64.96 360.437 64.96ZM372.052 66H365.652V58.8H366.932V64.8H370.772V58.8H372.052V64.8H373.252V67.76H372.052V66ZM380.076 60.64L375.916 66H374.636V58.8H375.916V64.16L380.076 58.8H381.356V66H380.076V60.64ZM389.123 60.64L384.963 66H383.683V58.8H384.963V64.16L389.123 58.8H390.403V66H389.123V60.64Z" fill="#0073B8"/>
<circle cx="6" cy="61" r="6" fill="#0073B8"/>
<path d="M427.8 60.4C427.8 58.7787 428.339 57.4133 429.416 56.304C430.493 55.1947 431.859 54.64 433.512 54.64C435.155 54.64 436.515 55.1787 437.592 56.256C438.68 57.3333 439.224 58.7147 439.224 60.4C439.224 62.0427 438.68 63.4187 437.592 64.528C436.504 65.616 435.144 66.16 433.512 66.16C431.88 66.16 430.515 65.6213 429.416 64.544C428.339 63.4667 427.8 62.0853 427.8 60.4ZM429.24 60.4C429.24 61.6587 429.651 62.7253 430.472 63.6C431.293 64.4533 432.307 64.88 433.512 64.88C434.771 64.88 435.795 64.4533 436.584 63.6C437.384 62.7467 437.784 61.68 437.784 60.4C437.784 59.12 437.373 58.0533 436.552 57.2C435.731 56.3467 434.717 55.92 433.512 55.92C432.285 55.92 431.267 56.3413 430.456 57.184C429.645 58.0267 429.24 59.0987 429.24 60.4ZM442.911 60.08H440.271V58.8H446.831V60.08H444.191V66H442.911V60.08ZM452.854 58.8H454.534L451.382 62.24L454.838 66H453.062L449.814 62.32L452.854 58.8ZM449.51 66H448.23V58.8H449.51V66ZM457.479 69.2H456.199V58.8H457.479V59.648C457.735 59.3493 458.087 59.1093 458.535 58.928C458.983 58.736 459.447 58.64 459.927 58.64C460.951 58.64 461.756 58.9813 462.343 59.664C462.951 60.336 463.255 61.2107 463.255 62.288C463.255 63.3867 462.908 64.3093 462.215 65.056C461.532 65.792 460.631 66.16 459.511 66.16C458.647 66.16 457.97 65.9947 457.479 65.664V69.2ZM459.559 59.84C458.706 59.84 458.012 60.1707 457.479 60.832V64.4C458.044 64.7733 458.684 64.96 459.399 64.96C460.156 64.96 460.759 64.72 461.207 64.24C461.666 63.7493 461.895 63.1147 461.895 62.336C461.895 61.5787 461.687 60.976 461.271 60.528C460.855 60.0693 460.284 59.84 459.559 59.84ZM467.41 66H465.09V58.8H466.37V60.96H467.554C468.535 60.96 469.255 61.184 469.714 61.632C470.172 62.0693 470.402 62.672 470.402 63.44C470.402 64.1653 470.162 64.7733 469.682 65.264C469.223 65.7547 468.466 66 467.41 66ZM473.058 66H471.778V58.8H473.058V66ZM467.314 62.16H466.37V64.8H467.298C467.906 64.8 468.348 64.6933 468.626 64.48C468.903 64.2667 469.042 63.936 469.042 63.488C469.042 62.6027 468.466 62.16 467.314 62.16ZM477.083 60.08H474.443V58.8H481.003V60.08H478.363V66H477.083V60.08ZM484.722 66H482.402V58.8H483.682V60.96H484.866C485.847 60.96 486.567 61.184 487.026 61.632C487.485 62.0693 487.714 62.672 487.714 63.44C487.714 64.1653 487.474 64.7733 486.994 65.264C486.535 65.7547 485.778 66 484.722 66ZM490.37 66H489.09V58.8H490.37V66ZM484.626 62.16H483.682V64.8H484.61C485.218 64.8 485.661 64.6933 485.938 64.48C486.215 64.2667 486.354 63.936 486.354 63.488C486.354 62.6027 485.778 62.16 484.626 62.16ZM498.348 64.208L498.748 65.216C498.054 65.8453 497.153 66.16 496.044 66.16C494.87 66.16 493.937 65.8187 493.244 65.136C492.54 64.4533 492.188 63.5413 492.188 62.4C492.188 61.3227 492.518 60.4267 493.18 59.712C493.83 58.9973 494.737 58.64 495.9 58.64C496.86 58.64 497.654 58.9493 498.284 59.568C498.924 60.176 499.244 60.9653 499.244 61.936C499.244 62.2453 499.217 62.5333 499.164 62.8H493.628C493.681 63.472 493.932 64 494.38 64.384C494.838 64.768 495.425 64.96 496.14 64.96C497.078 64.96 497.814 64.7093 498.348 64.208ZM495.836 59.84C495.206 59.84 494.684 60.016 494.268 60.368C493.862 60.72 493.622 61.184 493.548 61.76H497.916C497.884 61.1627 497.681 60.6933 497.308 60.352C496.945 60.0107 496.454 59.84 495.836 59.84ZM500.692 65.264C500.692 65.008 500.772 64.8053 500.932 64.656C501.092 64.496 501.316 64.416 501.604 64.416C501.945 64.416 502.223 64.56 502.436 64.848C502.649 65.1253 502.756 65.4987 502.756 65.968C502.756 66.544 502.596 67.04 502.276 67.456C501.967 67.8827 501.54 68.176 500.996 68.336L500.644 67.728C501.199 67.5573 501.54 67.2 501.668 66.656C501.743 66.2933 501.737 66.0267 501.652 65.856C501.588 65.952 501.471 66 501.3 66C501.14 66 500.996 65.9307 500.868 65.792C500.751 65.6427 500.692 65.4667 500.692 65.264ZM509.146 60.08H506.506V58.8H513.066V60.08H510.426V66H509.146V60.08ZM515.745 69.2H514.465V58.8H515.745V59.648C516.001 59.3493 516.353 59.1093 516.801 58.928C517.249 58.736 517.713 58.64 518.193 58.64C519.217 58.64 520.022 58.9813 520.609 59.664C521.217 60.336 521.521 61.2107 521.521 62.288C521.521 63.3867 521.174 64.3093 520.481 65.056C519.798 65.792 518.897 66.16 517.777 66.16C516.913 66.16 516.235 65.9947 515.745 65.664V69.2ZM517.825 59.84C516.971 59.84 516.278 60.1707 515.745 60.832V64.4C516.31 64.7733 516.95 64.96 517.665 64.96C518.422 64.96 519.025 64.72 519.473 64.24C519.931 63.7493 520.161 63.1147 520.161 62.336C520.161 61.5787 519.953 60.976 519.537 60.528C519.121 60.0693 518.55 59.84 517.825 59.84ZM523.739 60.32L523.403 59.296C524.118 58.8587 524.918 58.64 525.803 58.64C526.774 58.64 527.478 58.88 527.915 59.36C528.352 59.84 528.571 60.5813 528.571 61.584V66H527.355V65.072C526.79 65.7653 526.022 66.112 525.051 66.112C524.39 66.112 523.856 65.9147 523.451 65.52C523.046 65.1147 522.843 64.5707 522.843 63.888C522.843 63.184 523.094 62.6293 523.595 62.224C524.096 61.808 524.752 61.6 525.563 61.6C526.32 61.6 526.918 61.7547 527.355 62.064C527.355 61.2533 527.243 60.672 527.019 60.32C526.795 59.968 526.363 59.792 525.723 59.792C525.072 59.792 524.411 59.968 523.739 60.32ZM525.499 64.96C526.214 64.96 526.832 64.6507 527.355 64.032V63.12C526.907 62.8 526.368 62.64 525.739 62.64C525.302 62.64 524.934 62.7467 524.635 62.96C524.347 63.1627 524.203 63.4507 524.203 63.824C524.203 64.176 524.315 64.4533 524.539 64.656C524.774 64.8587 525.094 64.96 525.499 64.96ZM537.275 66H535.995V62.96H531.995V66H530.715V58.8H531.995V61.76H535.995V58.8H537.275V66ZM545.126 64.032L545.734 64.96C545.115 65.76 544.192 66.16 542.966 66.16C541.814 66.16 540.88 65.8187 540.166 65.136C539.462 64.4533 539.11 63.5413 539.11 62.4C539.11 61.344 539.456 60.4533 540.15 59.728C540.843 59.0027 541.712 58.64 542.758 58.64C544.016 58.64 544.96 58.9547 545.59 59.584L544.998 60.592C544.443 60.0907 543.755 59.84 542.934 59.84C542.262 59.84 541.68 60.0853 541.19 60.576C540.71 61.056 540.47 61.664 540.47 62.4C540.47 63.1787 540.715 63.7973 541.206 64.256C541.707 64.7253 542.326 64.96 543.062 64.96C543.894 64.96 544.582 64.6507 545.126 64.032ZM553.469 66H552.189V60.08H549.661L549.581 61.296C549.496 62.288 549.368 63.1147 549.197 63.776C549.037 64.4267 548.824 64.9173 548.557 65.248C548.301 65.568 548.029 65.792 547.741 65.92C547.453 66.0373 547.101 66.096 546.685 66.096L546.589 64.848C546.707 64.8587 546.829 64.8427 546.957 64.8C547.085 64.7467 547.224 64.64 547.373 64.48C547.533 64.32 547.672 64.1067 547.789 63.84C547.917 63.5733 548.029 63.2 548.125 62.72C548.232 62.2293 548.301 61.6693 548.333 61.04L548.461 58.8H553.469V66ZM561.217 60.64L557.057 66H555.777V58.8H557.057V64.16L561.217 58.8H562.497V66H561.217V60.64ZM566.104 69.2H564.824V58.8H566.104V59.648C566.36 59.3493 566.712 59.1093 567.16 58.928C567.608 58.736 568.072 58.64 568.552 58.64C569.576 58.64 570.381 58.9813 570.968 59.664C571.576 60.336 571.88 61.2107 571.88 62.288C571.88 63.3867 571.533 64.3093 570.84 65.056C570.157 65.792 569.256 66.16 568.136 66.16C567.272 66.16 566.595 65.9947 566.104 65.664V69.2ZM568.184 59.84C567.331 59.84 566.637 60.1707 566.104 60.832V64.4C566.669 64.7733 567.309 64.96 568.024 64.96C568.781 64.96 569.384 64.72 569.832 64.24C570.291 63.7493 570.52 63.1147 570.52 62.336C570.52 61.5787 570.312 60.976 569.896 60.528C569.48 60.0693 568.909 59.84 568.184 59.84ZM578.521 58.8H579.977L577.097 66C576.575 67.2693 576.121 68.112 575.737 68.528C575.332 68.976 574.868 69.2 574.345 69.2C573.876 69.2 573.423 69.0507 572.985 68.752L573.401 67.776C573.743 67.936 574.009 68.016 574.201 68.016C574.5 68.016 574.767 67.888 575.001 67.632C575.247 67.376 575.492 66.96 575.737 66.384L575.897 66L572.441 58.8H573.977L576.089 63.376C576.132 63.4507 576.276 63.8133 576.521 64.464C576.617 64.112 576.729 63.744 576.857 63.36L578.521 58.8ZM586.691 64.208L587.091 65.216C586.398 65.8453 585.497 66.16 584.387 66.16C583.214 66.16 582.281 65.8187 581.587 65.136C580.883 64.4533 580.531 63.5413 580.531 62.4C580.531 61.3227 580.862 60.4267 581.523 59.712C582.174 58.9973 583.081 58.64 584.243 58.64C585.203 58.64 585.998 58.9493 586.627 59.568C587.267 60.176 587.587 60.9653 587.587 61.936C587.587 62.2453 587.561 62.5333 587.507 62.8H581.971C582.025 63.472 582.275 64 582.723 64.384C583.182 64.768 583.769 64.96 584.483 64.96C585.422 64.96 586.158 64.7093 586.691 64.208ZM584.179 59.84C583.55 59.84 583.027 60.016 582.611 60.368C582.206 60.72 581.966 61.184 581.891 61.76H586.259C586.227 61.1627 586.025 60.6933 585.651 60.352C585.289 60.0107 584.798 59.84 584.179 59.84ZM590.604 66H589.324V58.8H590.492L593.26 62.368L595.884 58.8H597.02V66H595.74V60.752L593.244 64.096H593.196L590.604 60.752V66ZM601.66 66H599.34V58.8H600.62V60.96H601.804C602.785 60.96 603.505 61.184 603.964 61.632C604.422 62.0693 604.652 62.672 604.652 63.44C604.652 64.1653 604.412 64.7733 603.932 65.264C603.473 65.7547 602.716 66 601.66 66ZM607.308 66H606.028V58.8H607.308V66ZM601.564 62.16H600.62V64.8H601.548C602.156 64.8 602.598 64.6933 602.876 64.48C603.153 64.2667 603.292 63.936 603.292 63.488C603.292 62.6027 602.716 62.16 601.564 62.16ZM615.285 64.208L615.685 65.216C614.992 65.8453 614.09 66.16 612.981 66.16C611.808 66.16 610.874 65.8187 610.181 65.136C609.477 64.4533 609.125 63.5413 609.125 62.4C609.125 61.3227 609.456 60.4267 610.117 59.712C610.768 58.9973 611.674 58.64 612.837 58.64C613.797 58.64 614.592 58.9493 615.221 59.568C615.861 60.176 616.181 60.9653 616.181 61.936C616.181 62.2453 616.154 62.5333 616.101 62.8H610.565C610.618 63.472 610.869 64 611.317 64.384C611.776 64.768 612.362 64.96 613.077 64.96C614.016 64.96 614.752 64.7093 615.285 64.208ZM612.773 59.84C612.144 59.84 611.621 60.016 611.205 60.368C610.8 60.72 610.56 61.184 610.485 61.76H614.853C614.821 61.1627 614.618 60.6933 614.245 60.352C613.882 60.0107 613.392 59.84 612.773 59.84Z" fill="#002E5E"/>
<circle cx="413" cy="61" r="6" fill="#002E5E"/>
</svg>
