<svg width="335" height="89" fill="none" xmlns="http://www.w3.org/2000/svg"><path d="M26.168 3.6h1.236L23.66 7.548 27.596 12h-1.308l-3.804-4.38 3.684-4.02zM22.28 12h-1.02V3.6h1.02V12zm11.01 0h-.96V7.56h-1.896l-.06.912c-.064.744-.16 1.364-.288 1.86-.12.488-.28.856-.48 1.104-.193.24-.397.408-.613.504-.215.088-.48.132-.791.132l-.073-.936a.675.675 0 00.276-.036.96.96 0 00.313-.24c.12-.12.224-.28.311-.48.096-.2.18-.48.253-.84.08-.368.131-.788.155-1.26l.096-1.68h3.756V12zm2.75 0h-1.02V6.6h1.02v2.16h1.176c.112-.688.412-1.24.9-1.656.496-.416 1.104-.624 1.824-.624.848 0 1.528.268 2.04.804.52.536.78 1.208.78 2.016s-.264 1.484-.792 2.028c-.52.528-1.196.792-2.028.792-.76 0-1.384-.22-1.872-.66-.488-.44-.776-1.02-.864-1.74H36.04V12zm2.7-4.044c-.32.344-.48.792-.48 1.344s.16 1 .48 1.344c.32.344.732.516 1.236.516s.912-.168 1.224-.504c.32-.344.48-.796.48-1.356 0-.552-.156-1-.468-1.344-.312-.344-.724-.516-1.236-.516-.504 0-.916.172-1.236.516zM47.233 6.6h.96V12h-.96V9.9c-.416.264-.916.396-1.5.396-1.28 0-1.92-.688-1.92-2.064V6.6h1.02v1.524c0 .848.388 1.272 1.164 1.272.504 0 .916-.112 1.236-.336V6.6zm6.954 4.056l.3.756c-.52.472-1.197.708-2.029.708-.88 0-1.58-.256-2.1-.768-.527-.512-.791-1.196-.791-2.052 0-.808.248-1.48.743-2.016.488-.536 1.168-.804 2.04-.804.72 0 1.316.232 1.788.696.48.456.72 1.048.72 1.776 0 .232-.02.448-.06.648h-4.151c.04.504.227.9.564 1.188.343.288.784.432 1.32.432.703 0 1.255-.188 1.656-.564zM52.303 7.38c-.472 0-.864.132-1.176.396-.305.264-.485.612-.54 1.044h3.275c-.023-.448-.175-.8-.456-1.056-.271-.256-.64-.384-1.103-.384zM56.16 12V6.6h.168c.072-.008.176-.012.312-.012a6.38 6.38 0 01.372-.012c.592-.016.96-.024 1.104-.024 1.552 0 2.328.464 2.328 1.392 0 .32-.1.596-.3.828-.2.224-.46.36-.78.408v.024c.84.152 1.26.576 1.26 1.272 0 1.048-.828 1.572-2.484 1.572-.08 0-.432-.008-1.056-.024-.12 0-.252-.004-.396-.012-.144 0-.256-.004-.336-.012h-.192zm2.112-2.424H57.12v1.656c.576.024.944.036 1.104.036.92 0 1.38-.288 1.38-.864 0-.552-.444-.828-1.332-.828zm-.084-2.244c-.232 0-.588.012-1.068.036v1.608h1.212c.328 0 .592-.076.792-.228a.73.73 0 00.3-.612c0-.536-.412-.804-1.236-.804zM63.83 12h-1.74V6.6h.96v1.62h.888c.736 0 1.276.168 1.62.504.344.328.516.78.516 1.356 0 .544-.18 1-.54 1.368-.344.368-.912.552-1.704.552zm4.236 0h-.96V6.6h.96V12zm-4.308-2.88h-.708v1.98h.696c.456 0 .788-.08.996-.24.208-.16.312-.408.312-.744 0-.664-.432-.996-1.296-.996zm10.29 1.536l.3.756c-.52.472-1.195.708-2.027.708-.88 0-1.58-.256-2.1-.768-.528-.512-.792-1.196-.792-2.052 0-.808.248-1.48.744-2.016.488-.536 1.168-.804 2.04-.804.72 0 1.316.232 1.788.696.48.456.72 1.048.72 1.776 0 .232-.02.448-.06.648H70.51c.04.504.228.9.564 1.188.344.288.784.432 1.32.432.704 0 1.256-.188 1.656-.564zM72.167 7.38c-.472 0-.864.132-1.176.396-.304.264-.484.612-.54 1.044h3.276c-.024-.448-.176-.8-.456-1.056-.272-.256-.64-.384-1.104-.384zm3.642 4.068c0-.192.06-.344.18-.456.12-.12.288-.18.504-.18.256 0 .464.108.624.324.16.208.24.488.24.84 0 .432-.12.804-.36 1.116a1.76 1.76 0 01-.96.66l-.264-.456c.416-.128.672-.396.768-.804.056-.272.052-.472-.012-.6-.048.072-.136.108-.264.108a.433.433 0 01-.324-.156.622.622 0 01-.132-.396zm9.904.552h-.96V7.5h-2.94V12h-.96V6.6h4.86V12zm2.17-.672c-.528-.544-.792-1.22-.792-2.028 0-.816.264-1.488.792-2.016.536-.536 1.232-.804 2.088-.804.856 0 1.548.268 2.076.804.536.528.804 1.2.804 2.016 0 .816-.268 1.492-.804 2.028-.528.528-1.22.792-2.076.792-.848 0-1.544-.264-2.088-.792zm.756-3.408c-.352.352-.528.812-.528 1.38 0 .568.172 1.028.516 1.38.352.36.8.54 1.344.54s.988-.176 1.332-.528c.352-.36.528-.824.528-1.392 0-.552-.176-1.012-.528-1.38-.344-.36-.788-.54-1.332-.54s-.988.18-1.332.54zm12.444 2.604l.456.696c-.464.6-1.156.9-2.076.9-.864 0-1.564-.256-2.1-.768-.528-.512-.792-1.196-.792-2.052 0-.792.26-1.46.78-2.004s1.172-.816 1.956-.816c.944 0 1.652.236 2.124.708l-.444.756c-.416-.376-.932-.564-1.548-.564-.504 0-.94.184-1.308.552-.36.36-.54.816-.54 1.368 0 .584.184 1.048.552 1.392.376.352.84.528 1.392.528.624 0 1.14-.232 1.548-.696zM107.65 12h-.96V7.5h-2.94V12h-.96V6.6h4.86V12zm5.817-4.02l-3.12 4.02h-.96V6.6h.96v4.02l3.12-4.02h.96V12h-.96V7.98zm6.858 2.544l.456.696c-.464.6-1.156.9-2.076.9-.864 0-1.564-.256-2.1-.768-.528-.512-.792-1.196-.792-2.052 0-.792.26-1.46.78-2.004s1.172-.816 1.956-.816c.944 0 1.652.236 2.124.708l-.444.756c-.416-.376-.932-.564-1.548-.564-.504 0-.94.184-1.308.552-.36.36-.54.816-.54 1.368 0 .584.184 1.048.552 1.392.376.352.84.528 1.392.528.624 0 1.14-.232 1.548-.696zM125.5 6.6h1.26l-2.364 2.58 2.592 2.82h-1.332l-2.436-2.76 2.28-2.64zm-2.508 5.4h-.96V6.6h.96V12zm5.305-4.26l-.252-.768a3.38 3.38 0 011.8-.492c.728 0 1.256.18 1.584.54.328.36.492.916.492 1.668V12h-.912v-.696c-.424.52-1 .78-1.728.78-.496 0-.896-.148-1.2-.444-.304-.304-.456-.712-.456-1.224 0-.528.188-.944.564-1.248.376-.312.868-.468 1.476-.468.568 0 1.016.116 1.344.348 0-.608-.084-1.044-.252-1.308-.168-.264-.492-.396-.972-.396-.488 0-.984.132-1.488.396zm1.32 3.48c.536 0 1-.232 1.392-.696V9.84c-.336-.24-.74-.36-1.212-.36-.328 0-.604.08-.828.24a.745.745 0 00-.324.648c0 .264.084.472.252.624.176.152.416.228.72.228zm4.871.78h-.96V6.6h.876l2.076 2.676 1.968-2.676h.852V12h-.96V8.064l-1.872 2.508h-.036l-1.944-2.508V12zm6.336-.552c0-.192.06-.344.18-.456.12-.12.288-.18.504-.18.256 0 .464.108.624.324.16.208.24.488.24.84 0 .432-.12.804-.36 1.116a1.76 1.76 0 01-.96.66l-.264-.456c.416-.128.672-.396.768-.804.056-.272.052-.472-.012-.6-.048.072-.136.108-.264.108a.433.433 0 01-.324-.156.622.622 0 01-.132-.396zm6.34-3.888h-1.98V6.6h4.92v.96h-1.98V12h-.96V7.56zm4.949 6.84h-.96V6.6h.96v.636c.192-.224.456-.404.792-.54a2.624 2.624 0 011.044-.216c.768 0 1.372.256 1.812.768.456.504.684 1.16.684 1.968 0 .824-.26 1.516-.78 2.076-.512.552-1.188.828-2.028.828-.648 0-1.156-.124-1.524-.372V14.4zm1.56-7.02c-.64 0-1.16.248-1.56.744V10.8c.424.28.904.42 1.44.42.568 0 1.02-.18 1.356-.54.344-.368.516-.844.516-1.428 0-.568-.156-1.02-.468-1.356-.312-.344-.74-.516-1.284-.516zm4.436.36l-.252-.768a3.38 3.38 0 011.8-.492c.728 0 1.256.18 1.584.54.328.36.492.916.492 1.668V12h-.912v-.696c-.424.52-1 .78-1.728.78-.496 0-.896-.148-1.2-.444-.304-.304-.456-.712-.456-1.224 0-.528.188-.944.564-1.248.376-.312.868-.468 1.476-.468.568 0 1.016.116 1.344.348 0-.608-.084-1.044-.252-1.308-.168-.264-.492-.396-.972-.396-.488 0-.984.132-1.488.396zm1.32 3.48c.536 0 1-.232 1.392-.696V9.84c-.336-.24-.74-.36-1.212-.36-.328 0-.604.08-.828.24a.745.745 0 00-.324.648c0 .264.084.472.252.624.176.152.416.228.72.228zm8.832.78h-.96V9.72h-3V12h-.96V6.6h.96v2.22h3V6.6h.96V12zm5.888-1.476l.456.696c-.464.6-1.156.9-2.076.9-.864 0-1.564-.256-2.1-.768-.528-.512-.792-1.196-.792-2.052 0-.792.26-1.46.78-2.004s1.172-.816 1.956-.816c.944 0 1.652.236 2.124.708l-.444.756c-.416-.376-.932-.564-1.548-.564-.504 0-.94.184-1.308.552-.36.36-.54.816-.54 1.368 0 .584.184 1.048.552 1.392.376.352.84.528 1.392.528.624 0 1.14-.232 1.548-.696zM180.407 12h-.96V7.56h-1.896l-.06.912c-.064.744-.16 1.364-.288 1.86-.12.488-.28.856-.48 1.104-.192.24-.396.408-.612.504-.216.088-.48.132-.792.132l-.072-.936a.675.675 0 00.276-.036.96.96 0 00.312-.24c.12-.12.224-.28.312-.48.096-.2.18-.48.252-.84.08-.368.132-.788.156-1.26l.096-1.68h3.756V12zm5.81-4.02l-3.12 4.02h-.96V6.6h.96v4.02l3.12-4.02h.96V12h-.96V7.98zm3.666 6.42h-.96V6.6h.96v.636c.192-.224.456-.404.792-.54a2.624 2.624 0 011.044-.216c.768 0 1.372.256 1.812.768.456.504.684 1.16.684 1.968 0 .824-.26 1.516-.78 2.076-.512.552-1.188.828-2.028.828-.648 0-1.156-.124-1.524-.372V14.4zm1.56-7.02c-.64 0-1.16.248-1.56.744V10.8c.424.28.904.42 1.44.42.568 0 1.02-.18 1.356-.54.344-.368.516-.844.516-1.428 0-.568-.156-1.02-.468-1.356-.312-.344-.74-.516-1.284-.516zm7.753-.78h1.092l-2.16 5.4c-.392.952-.732 1.584-1.02 1.896-.304.336-.652.504-1.044.504-.352 0-.692-.112-1.02-.336l.312-.732c.256.12.456.18.6.18.224 0 .424-.096.6-.288.184-.192.368-.504.552-.936l.12-.288-2.592-5.4h1.152l1.584 3.432c.032.056.14.328.324.816.072-.264.156-.54.252-.828l1.248-3.42zm6.127 4.056l.3.756c-.52.472-1.196.708-2.028.708-.88 0-1.58-.256-2.1-.768-.528-.512-.792-1.196-.792-2.052 0-.808.248-1.48.744-2.016.488-.536 1.168-.804 2.04-.804.72 0 1.316.232 1.788.696.48.456.72 1.048.72 1.776 0 .232-.02.448-.06.648h-4.152c.04.504.228.9.564 1.188.344.288.784.432 1.32.432.704 0 1.256-.188 1.656-.564zm-1.884-3.276c-.472 0-.864.132-1.176.396-.304.264-.484.612-.54 1.044h3.276c-.024-.448-.176-.8-.456-1.056-.272-.256-.64-.384-1.104-.384zm4.819 4.62h-.96V6.6h.876l2.076 2.676 1.968-2.676h.852V12h-.96V8.064l-1.872 2.508h-.036l-1.944-2.508V12zm8.291 0h-1.74V6.6h.96v1.62h.888c.736 0 1.276.168 1.62.504.344.328.516.78.516 1.356 0 .544-.18 1-.54 1.368-.344.368-.912.552-1.704.552zm4.236 0h-.96V6.6h.96V12zm-4.308-2.88h-.708v1.98h.696c.456 0 .788-.08.996-.24.208-.16.312-.408.312-.744 0-.664-.432-.996-1.296-.996zm10.292 1.536l.3.756c-.52.472-1.196.708-2.028.708-.88 0-1.58-.256-2.1-.768-.528-.512-.792-1.196-.792-2.052 0-.808.248-1.48.744-2.016.488-.536 1.168-.804 2.04-.804.72 0 1.316.232 1.788.696.48.456.72 1.048.72 1.776 0 .232-.02.448-.06.648h-4.152c.04.504.228.9.564 1.188.344.288.784.432 1.32.432.704 0 1.256-.188 1.656-.564zm-1.884-3.276c-.472 0-.864.132-1.176.396-.304.264-.484.612-.54 1.044h3.276c-.024-.448-.176-.8-.456-1.056-.272-.256-.64-.384-1.104-.384z" fill="#EC1C24"/><circle cx="6" cy="8" r="6" fill="#EC1C24"/><path d="M23.228 37.12a3.646 3.646 0 01-1.632-.372c-.496-.248-.868-.564-1.116-.948l.564-.684c.264.312.592.564.984.756.4.192.78.288 1.14.288.576 0 1.036-.144 1.38-.432.352-.288.528-.68.528-1.176 0-.416-.144-.748-.432-.996-.288-.248-.692-.372-1.212-.372h-.972v-.96h.9c.368 0 .692-.132.972-.396.28-.28.42-.62.42-1.02 0-.432-.14-.768-.42-1.008-.28-.24-.648-.36-1.104-.36-.744 0-1.38.312-1.908.936l-.6-.672a2.924 2.924 0 011.128-.9c.464-.216.96-.324 1.488-.324.744 0 1.336.2 1.776.6.44.392.66.936.66 1.632a2.1 2.1 0 01-.324 1.116 2.115 2.115 0 01-.888.804v.036c.488.096.864.324 1.128.684.272.352.408.784.408 1.296 0 .76-.28 1.36-.84 1.8-.56.448-1.236.672-2.028.672zm4.861-4.38l-.252-.768a3.38 3.38 0 011.8-.492c.729 0 1.256.18 1.584.54.328.36.492.916.492 1.668V37h-.912v-.696c-.423.52-1 .78-1.727.78-.497 0-.897-.148-1.2-.444-.304-.304-.456-.712-.456-1.224 0-.528.188-.944.564-1.248.376-.312.867-.468 1.476-.468.568 0 1.016.116 1.344.348 0-.608-.084-1.044-.253-1.308-.168-.264-.491-.396-.971-.396-.488 0-.985.132-1.488.396zm1.32 3.48c.537 0 1-.232 1.393-.696v-.684c-.337-.24-.74-.36-1.212-.36-.328 0-.605.08-.828.24a.745.745 0 00-.325.648c0 .264.084.472.252.624.177.152.416.228.72.228zm7.38-4.62h1.26l-2.364 2.58L38.277 37h-1.332l-2.436-2.76 2.28-2.64zM34.281 37h-.96v-5.4h.96V37zm5.977 2.4h-.96v-7.8h.96v.636c.192-.224.456-.404.792-.54a2.624 2.624 0 011.044-.216c.768 0 1.372.256 1.812.768.456.504.684 1.16.684 1.968 0 .824-.26 1.516-.78 2.076-.512.552-1.188.828-2.028.828-.648 0-1.156-.124-1.524-.372V39.4zm1.56-7.02c-.64 0-1.16.248-1.56.744V35.8c.424.28.904.42 1.44.42.568 0 1.02-.18 1.356-.54.344-.368.516-.844.516-1.428 0-.568-.156-1.02-.468-1.356-.312-.344-.74-.516-1.284-.516zM47.706 37h-1.74v-5.4h.96v1.62h.888c.736 0 1.276.168 1.62.504.344.328.516.78.516 1.356 0 .544-.18 1-.54 1.368-.344.368-.912.552-1.704.552zm4.236 0h-.96v-5.4h.96V37zm-4.308-2.88h-.708v1.98h.696c.456 0 .788-.08.996-.24.208-.16.312-.408.312-.744 0-.664-.432-.996-1.296-.996zm7.327-1.56h-1.98v-.96h4.92v.96h-1.98V37h-.96v-4.44zM60.69 37h-1.74v-5.4h.96v1.62h.888c.736 0 1.276.168 1.62.504.344.328.516.78.516 1.356 0 .544-.18 1-.54 1.368-.344.368-.912.552-1.704.552zm4.236 0h-.96v-5.4h.96V37zm-4.308-2.88h-.708v1.98h.696c.456 0 .788-.08.996-.24.208-.16.312-.408.312-.744 0-.664-.432-.996-1.296-.996zm10.291 1.536l.3.756c-.52.472-1.196.708-2.028.708-.88 0-1.58-.256-2.1-.768-.528-.512-.792-1.196-.792-2.052 0-.808.248-1.48.744-2.016.488-.536 1.168-.804 2.04-.804.72 0 1.316.232 1.788.696.48.456.72 1.048.72 1.776 0 .232-.02.448-.06.648H67.37c.04.504.228.9.564 1.188.344.288.784.432 1.32.432.704 0 1.256-.188 1.656-.564zm-1.884-3.276c-.472 0-.864.132-1.176.396-.304.264-.484.612-.54 1.044h3.276c-.024-.448-.176-.8-.456-1.056-.272-.256-.64-.384-1.104-.384zm3.642 4.068c0-.192.06-.344.18-.456.12-.12.288-.18.505-.18.255 0 .463.108.623.324.16.208.24.488.24.84 0 .432-.12.804-.36 1.116a1.76 1.76 0 01-.96.66l-.263-.456c.415-.128.671-.396.767-.804.056-.272.052-.472-.011-.6-.049.072-.137.108-.264.108a.433.433 0 01-.325-.156.622.622 0 01-.132-.396zm9.905.552h-.96v-4.5h-2.94V37h-.96v-5.4h4.86V37zm2.17-.672c-.529-.544-.793-1.22-.793-2.028 0-.816.264-1.488.792-2.016.536-.536 1.232-.804 2.088-.804.856 0 1.548.268 2.076.804.536.528.804 1.2.804 2.016 0 .816-.268 1.492-.804 2.028-.528.528-1.22.792-2.076.792-.848 0-1.544-.264-2.088-.792zm.755-3.408c-.352.352-.528.812-.528 1.38 0 .568.172 1.028.516 1.38.352.36.8.54 1.344.54s.988-.176 1.332-.528c.352-.36.528-.824.528-1.392 0-.552-.176-1.012-.528-1.38-.344-.36-.788-.54-1.332-.54s-.988.18-1.332.54zm12.445 2.604l.456.696c-.464.6-1.156.9-2.076.9-.864 0-1.564-.256-2.1-.768-.528-.512-.792-1.196-.792-2.052 0-.792.26-1.46.78-2.004s1.172-.816 1.956-.816c.944 0 1.652.236 2.124.708l-.444.756c-.416-.376-.932-.564-1.548-.564-.504 0-.94.184-1.308.552-.36.36-.54.816-.54 1.368 0 .584.184 1.048.552 1.392.376.352.84.528 1.392.528.624 0 1.14-.232 1.548-.696zM104.509 37h-.96v-4.5h-2.94V37h-.96v-5.4h4.86V37zm5.818-4.02l-3.12 4.02h-.96v-5.4h.96v4.02l3.12-4.02h.96V37h-.96v-4.02zm6.857 2.544l.456.696c-.464.6-1.156.9-2.076.9-.864 0-1.564-.256-2.1-.768-.528-.512-.792-1.196-.792-2.052 0-.792.26-1.46.78-2.004s1.172-.816 1.956-.816c.944 0 1.652.236 2.124.708l-.444.756c-.416-.376-.932-.564-1.548-.564-.504 0-.94.184-1.308.552-.36.36-.54.816-.54 1.368 0 .584.184 1.048.552 1.392.376.352.84.528 1.392.528.624 0 1.14-.232 1.548-.696zm5.175-3.924h1.26l-2.364 2.58 2.592 2.82h-1.332l-2.436-2.76 2.28-2.64zm-2.508 5.4h-.96v-5.4h.96V37zm5.305-4.26l-.252-.768a3.38 3.38 0 011.8-.492c.728 0 1.256.18 1.584.54.328.36.492.916.492 1.668V37h-.912v-.696c-.424.52-1 .78-1.728.78-.496 0-.896-.148-1.2-.444-.304-.304-.456-.712-.456-1.224 0-.528.188-.944.564-1.248.376-.312.868-.468 1.476-.468.568 0 1.016.116 1.344.348 0-.608-.084-1.044-.252-1.308-.168-.264-.492-.396-.972-.396-.488 0-.984.132-1.488.396zm1.32 3.48c.536 0 1-.232 1.392-.696v-.684c-.336-.24-.74-.36-1.212-.36-.328 0-.604.08-.828.24a.745.745 0 00-.324.648c0 .264.084.472.252.624.176.152.416.228.72.228zm4.871.78h-.96v-5.4h.876l2.076 2.676 1.968-2.676h.852V37h-.96v-3.936l-1.872 2.508h-.036l-1.944-2.508V37z" fill="#333"/><circle cx="6" cy="33" r="6" fill="#333"/><path d="M20.6 55.8c0-1.216.404-2.24 1.212-3.072.808-.832 1.832-1.248 3.072-1.248 1.232 0 2.252.404 3.06 1.212.816.808 1.224 1.844 1.224 3.108 0 1.232-.408 2.264-1.224 3.096-.816.816-1.836 1.224-3.06 1.224s-2.248-.404-3.072-1.212C21.004 58.1 20.6 57.064 20.6 55.8zm1.08 0c0 .944.308 1.744.924 2.4.616.64 1.376.96 2.28.96.944 0 1.712-.32 2.304-.96.6-.64.9-1.44.9-2.4s-.308-1.76-.924-2.4c-.616-.64-1.376-.96-2.28-.96-.92 0-1.684.316-2.292.948-.608.632-.912 1.436-.912 2.412zm13.133-4.32l.516.756a1.456 1.456 0 01-.696.54 5.487 5.487 0 01-1.008.24 4.13 4.13 0 00-1.044.3c-.816.376-1.272 1.244-1.368 2.604h.024c.176-.376.46-.68.852-.912.4-.232.828-.348 1.284-.348.768 0 1.376.244 1.824.732.456.488.684 1.14.684 1.956 0 .768-.26 1.424-.78 1.968-.512.536-1.176.804-1.992.804-.88 0-1.576-.3-2.088-.9-.512-.592-.768-1.412-.768-2.46 0-2.336.668-3.788 2.004-4.356a4.214 4.214 0 011.056-.3c.312-.056.536-.1.672-.132s.28-.088.432-.168c.16-.08.292-.188.396-.324zm-3.54 5.46c0 .688.168 1.24.504 1.656.336.416.772.624 1.308.624.52 0 .944-.176 1.272-.528.336-.344.504-.776.504-1.296 0-.552-.156-.996-.468-1.332-.304-.336-.724-.504-1.26-.504-.488 0-.896.136-1.224.408-.344.28-.556.604-.636.972zm6.945 5.46h-.96v-7.8h.96v.636c.192-.224.456-.404.792-.54a2.624 2.624 0 011.044-.216c.768 0 1.372.256 1.813.768.456.504.684 1.16.684 1.968 0 .824-.26 1.516-.78 2.076-.513.552-1.188.828-2.029.828-.648 0-1.155-.124-1.523-.372V62.4zm1.56-7.02c-.64 0-1.16.248-1.56.744V58.8c.424.28.904.42 1.44.42.569 0 1.02-.18 1.356-.54.344-.368.517-.844.517-1.428 0-.568-.157-1.02-.468-1.356-.313-.344-.74-.516-1.285-.516zm4.437.36l-.253-.768a3.38 3.38 0 011.8-.492c.728 0 1.257.18 1.584.54.329.36.493.916.493 1.668V60h-.913v-.696c-.424.52-1 .78-1.727.78-.496 0-.896-.148-1.2-.444-.305-.304-.457-.712-.457-1.224 0-.528.188-.944.564-1.248.377-.312.868-.468 1.477-.468.568 0 1.016.116 1.343.348 0-.608-.084-1.044-.252-1.308-.167-.264-.492-.396-.971-.396-.489 0-.985.132-1.489.396zm1.32 3.48c.536 0 1-.232 1.392-.696v-.684c-.337-.24-.74-.36-1.212-.36-.329 0-.605.08-.829.24a.745.745 0 00-.324.648c0 .264.085.472.253.624.175.152.416.228.72.228zm5.699.9c-.408 0-.84-.068-1.296-.204-.44-.144-.752-.32-.936-.528l.492-.72c.216.176.472.32.768.432.304.104.58.156.828.156.416 0 .756-.08 1.02-.24.264-.168.396-.384.396-.648a.574.574 0 00-.288-.516c-.184-.12-.44-.18-.768-.18h-.912v-.78h.852c.272 0 .496-.072.672-.216a.704.704 0 00.264-.552.64.64 0 00-.312-.564c-.208-.144-.488-.216-.84-.216-.568 0-1.108.2-1.62.6l-.372-.744c.216-.224.516-.4.9-.528a3.957 3.957 0 011.236-.192c.64 0 1.136.128 1.488.384.36.256.54.612.54 1.068 0 .624-.316 1.048-.948 1.272v.024c.352.04.628.18.828.42.2.232.3.516.3.852 0 .496-.212.892-.636 1.188-.416.288-.968.432-1.656.432zm4.187-.792c-.528-.544-.792-1.22-.792-2.028 0-.816.264-1.488.792-2.016.536-.536 1.232-.804 2.088-.804.856 0 1.548.268 2.076.804.536.528.804 1.2.804 2.016 0 .816-.268 1.492-.804 2.028-.528.528-1.22.792-2.076.792-.848 0-1.544-.264-2.088-.792zm.756-3.408c-.352.352-.528.812-.528 1.38 0 .568.172 1.028.516 1.38.352.36.8.54 1.344.54s.988-.176 1.332-.528c.352-.36.528-.824.528-1.392 0-.552-.176-1.012-.528-1.38-.344-.36-.788-.54-1.332-.54s-.988.18-1.332.54zM61.774 60v-5.4h.168c.072-.008.176-.012.312-.012a6.38 6.38 0 01.372-.012c.592-.016.96-.024 1.104-.024 1.552 0 2.328.464 2.328 1.392 0 .32-.1.596-.3.828-.2.224-.46.36-.78.408v.024c.84.152 1.26.576 1.26 1.272 0 1.048-.828 1.572-2.484 1.572-.08 0-.432-.008-1.056-.024-.12 0-.252-.004-.396-.012-.144 0-.256-.004-.336-.012h-.192zm2.112-2.424h-1.152v1.656c.576.024.944.036 1.104.036.92 0 1.38-.288 1.38-.864 0-.552-.444-.828-1.332-.828zm-.084-2.244c-.232 0-.588.012-1.068.036v1.608h1.212c.328 0 .592-.076.792-.228a.73.73 0 00.3-.612c0-.536-.412-.804-1.236-.804zm4.19.408l-.252-.768a3.38 3.38 0 011.8-.492c.728 0 1.256.18 1.584.54.328.36.492.916.492 1.668V60h-.912v-.696c-.424.52-1 .78-1.728.78-.496 0-.896-.148-1.2-.444-.304-.304-.456-.712-.456-1.224 0-.528.188-.944.564-1.248.376-.312.868-.468 1.476-.468.568 0 1.016.116 1.344.348 0-.608-.084-1.044-.252-1.308-.168-.264-.492-.396-.972-.396-.488 0-.984.132-1.488.396zm1.32 3.48c.536 0 1-.232 1.392-.696v-.684c-.336-.24-.74-.36-1.212-.36-.328 0-.604.08-.828.24a.745.745 0 00-.324.648c0 .264.084.472.252.624.176.152.416.228.72.228zm5.207-3.66h-1.98v-.96h4.92v.96h-1.98V60h-.96v-4.44zm8.074 3.096l.3.756c-.52.472-1.196.708-2.028.708-.88 0-1.58-.256-2.1-.768-.528-.512-.792-1.196-.792-2.052 0-.808.248-1.48.744-2.016.488-.536 1.168-.804 2.04-.804.72 0 1.316.232 1.788.696.48.456.72 1.048.72 1.776 0 .232-.02.448-.06.648h-4.152c.04.504.228.9.564 1.188.344.288.784.432 1.32.432.704 0 1.256-.188 1.656-.564zm-1.884-3.276c-.472 0-.864.132-1.176.396-.304.264-.484.612-.54 1.044h3.276c-.024-.448-.176-.8-.456-1.056-.272-.256-.64-.384-1.104-.384zM89.012 60h-.96v-4.44h-1.896l-.06.912c-.064.744-.16 1.364-.288 1.86-.12.488-.28.856-.48 1.104-.192.24-.396.408-.612.504-.216.088-.48.132-.792.132l-.072-.936a.675.675 0 00.276-.036.96.96 0 00.312-.24c.12-.12.224-.28.312-.48.096-.2.18-.48.252-.84.08-.368.132-.788.156-1.26l.096-1.68h3.756V60zm3.555 0h-1.824v-5.4h.96v1.62h.984c.736 0 1.276.168 1.62.504.344.328.516.78.516 1.356 0 .544-.18 1-.54 1.368-.36.368-.932.552-1.716.552zm-.06-2.88h-.804v1.98h.792c.872 0 1.308-.328 1.308-.984 0-.664-.432-.996-1.296-.996zM101.03 60h-.96v-2.28h-3V60h-.96v-5.4h.96v2.22h3V54.6h.96V60zm3.476 0h-1.74v-5.4h.96v1.62h.888c.736 0 1.276.168 1.62.504.344.328.516.78.516 1.356 0 .544-.18 1-.54 1.368-.344.368-.912.552-1.704.552zm4.236 0h-.96v-5.4h.96V60zm-4.308-2.88h-.708v1.98h.696c.456 0 .788-.08.996-.24.208-.16.312-.408.312-.744 0-.664-.432-.996-1.296-.996zm10.292 1.536l.3.756c-.52.472-1.196.708-2.028.708-.88 0-1.58-.256-2.1-.768-.528-.512-.792-1.196-.792-2.052 0-.808.248-1.48.744-2.016.488-.536 1.168-.804 2.04-.804.72 0 1.316.232 1.788.696.48.456.72 1.048.72 1.776 0 .232-.02.448-.06.648h-4.152c.04.504.228.9.564 1.188.344.288.784.432 1.32.432.704 0 1.256-.188 1.656-.564zm-1.884-3.276c-.472 0-.864.132-1.176.396-.304.264-.484.612-.54 1.044h3.276c-.024-.448-.176-.8-.456-1.056-.272-.256-.64-.384-1.104-.384zM124.255 60h-.96v-4.5h-2.94V60h-.96v-5.4h4.86V60zm2.17-.672c-.528-.544-.792-1.22-.792-2.028 0-.816.264-1.488.792-2.016.536-.536 1.232-.804 2.088-.804.856 0 1.548.268 2.076.804.536.528.804 1.2.804 2.016 0 .816-.268 1.492-.804 2.028-.528.528-1.22.792-2.076.792-.848 0-1.544-.264-2.088-.792zm.756-3.408c-.352.352-.528.812-.528 1.38 0 .568.172 1.028.516 1.38.352.36.8.54 1.344.54s.988-.176 1.332-.528c.352-.36.528-.824.528-1.392 0-.552-.176-1.012-.528-1.38-.344-.36-.788-.54-1.332-.54s-.988.18-1.332.54zM140.333 60h-.96v-4.5h-2.94V60h-.96v-5.4h4.86V60zm2.698 2.4h-.96v-7.8h.96v.636c.192-.224.456-.404.792-.54a2.624 2.624 0 011.044-.216c.768 0 1.372.256 1.812.768.456.504.684 1.16.684 1.968 0 .824-.26 1.516-.78 2.076-.512.552-1.188.828-2.028.828-.648 0-1.156-.124-1.524-.372V62.4zm1.56-7.02c-.64 0-1.16.248-1.56.744V58.8c.424.28.904.42 1.44.42.568 0 1.02-.18 1.356-.54.344-.368.516-.844.516-1.428 0-.568-.156-1.02-.468-1.356-.312-.344-.74-.516-1.284-.516zm8.408 3.276l.3.756c-.52.472-1.196.708-2.028.708-.88 0-1.58-.256-2.1-.768-.528-.512-.792-1.196-.792-2.052 0-.808.248-1.48.744-2.016.488-.536 1.168-.804 2.04-.804.72 0 1.316.232 1.788.696.48.456.72 1.048.72 1.776 0 .232-.02.448-.06.648h-4.152c.04.504.228.9.564 1.188.344.288.784.432 1.32.432.704 0 1.256-.188 1.656-.564zm-1.884-3.276c-.472 0-.864.132-1.176.396-.304.264-.484.612-.54 1.044h3.276c-.024-.448-.176-.8-.456-1.056-.272-.256-.64-.384-1.104-.384zm3.803 5.94h-.9V59.1h.672c.2-.248.376-.648.528-1.2a9.75 9.75 0 00.3-1.872l.084-1.428h3.684v4.5h.9v2.22h-.9V60h-4.368v1.32zm1.584-5.82l-.06.9a8.262 8.262 0 01-.288 1.644c-.144.496-.292.848-.444 1.056h2.616v-3.6h-1.824zm4.729 4.5v-5.4h.168c.072-.008.176-.012.312-.012a6.38 6.38 0 01.372-.012c.592-.016.96-.024 1.104-.024 1.552 0 2.328.464 2.328 1.392 0 .32-.1.596-.3.828-.2.224-.46.36-.78.408v.024c.84.152 1.26.576 1.26 1.272 0 1.048-.828 1.572-2.484 1.572-.08 0-.432-.008-1.056-.024-.12 0-.252-.004-.396-.012-.144 0-.256-.004-.336-.012h-.192zm2.112-2.424h-1.152v1.656c.576.024.944.036 1.104.036.92 0 1.38-.288 1.38-.864 0-.552-.444-.828-1.332-.828zm-.084-2.244c-.232 0-.588.012-1.068.036v1.608h1.212c.328 0 .592-.076.792-.228a.73.73 0 00.3-.612c0-.536-.412-.804-1.236-.804zm4.19.408l-.252-.768a3.38 3.38 0 011.8-.492c.728 0 1.256.18 1.584.54.328.36.492.916.492 1.668V60h-.912v-.696c-.424.52-1 .78-1.728.78-.496 0-.896-.148-1.2-.444-.304-.304-.456-.712-.456-1.224 0-.528.188-.944.564-1.248.376-.312.868-.468 1.476-.468.568 0 1.016.116 1.344.348 0-.608-.084-1.044-.252-1.308-.168-.264-.492-.396-.972-.396-.488 0-.984.132-1.488.396zm1.32 3.48c.536 0 1-.232 1.392-.696v-.684c-.336-.24-.74-.36-1.212-.36-.328 0-.604.08-.828.24a.745.745 0 00-.324.648c0 .264.084.472.252.624.176.152.416.228.72.228zm4.871 3.18h-.96v-7.8h.96v.636c.192-.224.456-.404.792-.54a2.624 2.624 0 011.044-.216c.768 0 1.372.256 1.812.768.456.504.684 1.16.684 1.968 0 .824-.26 1.516-.78 2.076-.512.552-1.188.828-2.028.828-.648 0-1.156-.124-1.524-.372V62.4zm1.56-7.02c-.64 0-1.16.248-1.56.744V58.8c.424.28.904.42 1.44.42.568 0 1.02-.18 1.356-.54.344-.368.516-.844.516-1.428 0-.568-.156-1.02-.468-1.356-.312-.344-.74-.516-1.284-.516zm8.228.6l-3.12 4.02h-.96v-5.4h.96v4.02l3.12-4.02h.96V60h-.96v-4.02zm4.002-.42h-1.98v-.96h4.92v.96h-1.98V60h-.96v-4.44zm8.073 3.096l.3.756c-.52.472-1.196.708-2.028.708-.88 0-1.58-.256-2.1-.768-.528-.512-.792-1.196-.792-2.052 0-.808.248-1.48.744-2.016.488-.536 1.168-.804 2.04-.804.72 0 1.316.232 1.788.696.48.456.72 1.048.72 1.776 0 .232-.02.448-.06.648h-4.152c.04.504.228.9.564 1.188.344.288.784.432 1.32.432.704 0 1.256-.188 1.656-.564zm-1.884-3.276c-.472 0-.864.132-1.176.396-.304.264-.484.612-.54 1.044h3.276c-.024-.448-.176-.8-.456-1.056-.272-.256-.64-.384-1.104-.384zm8.303 4.62h-.96v-4.44h-1.896l-.06.912c-.064.744-.16 1.364-.288 1.86-.12.488-.28.856-.48 1.104-.192.24-.396.408-.612.504-.216.088-.48.132-.792.132l-.072-.936a.675.675 0 00.276-.036.96.96 0 00.312-.24c.12-.12.224-.28.312-.48.096-.2.18-.48.252-.84.08-.368.132-.788.156-1.26l.096-1.68h3.756V60zm3.555 0h-1.824v-5.4h.96v1.62h.984c.736 0 1.276.168 1.62.504.344.328.516.78.516 1.356 0 .544-.18 1-.54 1.368-.36.368-.932.552-1.716.552zm-.06-2.88h-.804v1.98h.792c.872 0 1.308-.328 1.308-.984 0-.664-.432-.996-1.296-.996zM213.94 60h-.96v-2.28h-3V60h-.96v-5.4h.96v2.22h3V54.6h.96V60zm2.169-.672c-.528-.544-.792-1.22-.792-2.028 0-.816.264-1.488.792-2.016.536-.536 1.232-.804 2.088-.804.856 0 1.548.268 2.076.804.536.528.804 1.2.804 2.016 0 .816-.268 1.492-.804 2.028-.528.528-1.22.792-2.076.792-.848 0-1.544-.264-2.088-.792zm.756-3.408c-.352.352-.528.812-.528 1.38 0 .568.172 1.028.516 1.38.352.36.8.54 1.344.54s.988-.176 1.332-.528c.352-.36.528-.824.528-1.392 0-.552-.176-1.012-.528-1.38-.344-.36-.788-.54-1.332-.54s-.988.18-1.332.54zm9.677.06l-3.12 4.02h-.96v-5.4h.96v4.02l3.12-4.02h.96V60h-.96v-4.02zm-3.312-4.14h.9c.048.632.356.948.924.948.536 0 .828-.316.876-.948h.9c0 .488-.168.892-.504 1.212-.328.312-.752.468-1.272.468-.568 0-1.016-.152-1.344-.456-.32-.312-.48-.72-.48-1.224zm9.672 10.56h-.96v-7.8h.96v.636c.192-.224.456-.404.792-.54a2.624 2.624 0 011.044-.216c.768 0 1.372.256 1.812.768.456.504.684 1.16.684 1.968 0 .824-.26 1.516-.78 2.076-.512.552-1.188.828-2.028.828-.648 0-1.156-.124-1.524-.372V62.4zm1.56-7.02c-.64 0-1.16.248-1.56.744V58.8c.424.28.904.42 1.44.42.568 0 1.02-.18 1.356-.54.344-.368.516-.844.516-1.428 0-.568-.156-1.02-.468-1.356-.312-.344-.74-.516-1.284-.516zm8.408 3.276l.3.756c-.52.472-1.196.708-2.028.708-.88 0-1.58-.256-2.1-.768-.528-.512-.792-1.196-.792-2.052 0-.808.248-1.48.744-2.016.488-.536 1.168-.804 2.04-.804.72 0 1.316.232 1.788.696.48.456.72 1.048.72 1.776 0 .232-.02.448-.06.648h-4.152c.04.504.228.9.564 1.188.344.288.784.432 1.32.432.704 0 1.256-.188 1.656-.564zm-1.884-3.276c-.472 0-.864.132-1.176.396-.304.264-.484.612-.54 1.044h3.276c-.024-.448-.176-.8-.456-1.056-.272-.256-.64-.384-1.104-.384zm4.818 4.62h-.96v-5.4h3.42v.9h-2.46V60zm7.468-4.02l-3.12 4.02h-.96v-5.4h.96v4.02l3.12-4.02h.96V60h-.96v-4.02zm6.857 2.544l.456.696c-.464.6-1.156.9-2.076.9-.864 0-1.564-.256-2.1-.768-.528-.512-.792-1.196-.792-2.052 0-.792.26-1.46.78-2.004s1.172-.816 1.956-.816c.944 0 1.652.236 2.124.708l-.444.756c-.416-.376-.932-.564-1.548-.564-.504 0-.94.184-1.308.552-.36.36-.54.816-.54 1.368 0 .584.184 1.048.552 1.392.376.352.84.528 1.392.528.624 0 1.14-.232 1.548-.696zm2.933-2.964h-1.98v-.96h4.92v.96h-1.98V60h-.96v-4.44zm4.95 6.84h-.96v-7.8h.96v.636c.192-.224.456-.404.792-.54a2.624 2.624 0 011.044-.216c.768 0 1.372.256 1.812.768.456.504.684 1.16.684 1.968 0 .824-.26 1.516-.78 2.076-.512.552-1.188.828-2.028.828-.648 0-1.156-.124-1.524-.372V62.4zm1.56-7.02c-.64 0-1.16.248-1.56.744V58.8c.424.28.904.42 1.44.42.568 0 1.02-.18 1.356-.54.344-.368.516-.844.516-1.428 0-.568-.156-1.02-.468-1.356-.312-.344-.74-.516-1.284-.516zm4.435.36l-.252-.768a3.38 3.38 0 011.8-.492c.728 0 1.256.18 1.584.54.328.36.492.916.492 1.668V60h-.912v-.696c-.424.52-1 .78-1.728.78-.496 0-.896-.148-1.2-.444-.304-.304-.456-.712-.456-1.224 0-.528.188-.944.564-1.248.376-.312.868-.468 1.476-.468.568 0 1.016.116 1.344.348 0-.608-.084-1.044-.252-1.308-.168-.264-.492-.396-.972-.396-.488 0-.984.132-1.488.396zm1.32 3.48c.536 0 1-.232 1.392-.696v-.684c-.336-.24-.74-.36-1.212-.36-.328 0-.604.08-.828.24a.745.745 0 00-.324.648c0 .264.084.472.252.624.176.152.416.228.72.228zm8.712.78h-4.8v-5.4h.96v4.5h2.88v-4.5h.96v4.5h.9v2.22h-.9V60zm6.018-4.02l-3.12 4.02h-.96v-5.4h.96v4.02l3.12-4.02h.96V60h-.96v-4.02zm6.785 0l-3.12 4.02h-.96v-5.4h.96v4.02l3.12-4.02h.96V60h-.96v-4.02z" fill="#0073B8"/><circle cx="6" cy="56" r="6" fill="#0073B8"/><path d="M20.6 79.8c0-1.216.404-2.24 1.212-3.072.808-.832 1.832-1.248 3.072-1.248 1.232 0 2.252.404 3.06 1.212.816.808 1.224 1.844 1.224 3.108 0 1.232-.408 2.264-1.224 3.096-.816.816-1.836 1.224-3.06 1.224s-2.248-.404-3.072-1.212C21.004 82.1 20.6 81.064 20.6 79.8zm1.08 0c0 .944.308 1.744.924 2.4.616.64 1.376.96 2.28.96.944 0 1.712-.32 2.304-.96.6-.64.9-1.44.9-2.4s-.308-1.76-.924-2.4c-.616-.64-1.376-.96-2.28-.96-.92 0-1.684.316-2.292.948-.608.632-.912 1.436-.912 2.412zm10.253-.24h-1.98v-.96h4.92v.96h-1.98V84h-.96v-4.44zm7.458-.96h1.26l-2.364 2.58L40.879 84h-1.332l-2.436-2.76 2.28-2.64zM36.883 84h-.96v-5.4h.96V84zm5.976 2.4h-.96v-7.8h.96v.636c.192-.224.456-.404.792-.54a2.624 2.624 0 011.044-.216c.768 0 1.372.256 1.812.768.456.504.684 1.16.684 1.968 0 .824-.26 1.516-.78 2.076-.512.552-1.188.828-2.028.828-.648 0-1.156-.124-1.524-.372V86.4zm1.56-7.02c-.64 0-1.16.248-1.56.744V82.8c.424.28.904.42 1.44.42.568 0 1.02-.18 1.356-.54.344-.368.516-.844.516-1.428 0-.568-.156-1.02-.468-1.356-.312-.344-.74-.516-1.284-.516zM50.307 84h-1.74v-5.4h.96v1.62h.888c.736 0 1.276.168 1.62.504.344.328.516.78.516 1.356 0 .544-.18 1-.54 1.368-.344.368-.912.552-1.704.552zm4.236 0h-.96v-5.4h.96V84zm-4.308-2.88h-.708v1.98h.696c.456 0 .788-.08.996-.24.208-.16.312-.408.312-.744 0-.664-.432-.996-1.296-.996zm7.327-1.56h-1.98v-.96h4.92v.96h-1.98V84h-.96v-4.44zm5.73 4.44h-1.74v-5.4h.96v1.62h.888c.735 0 1.276.168 1.62.504.344.328.516.78.516 1.356 0 .544-.18 1-.54 1.368-.344.368-.912.552-1.704.552zm4.236 0h-.96v-5.4h.96V84zm-4.309-2.88h-.708v1.98h.697c.456 0 .788-.08.996-.24.208-.16.312-.408.312-.744 0-.664-.433-.996-1.297-.996zm10.292 1.536l.3.756c-.52.472-1.196.708-2.028.708-.88 0-1.58-.256-2.1-.768-.528-.512-.792-1.196-.792-2.052 0-.808.248-1.48.744-2.016.488-.536 1.168-.804 2.04-.804.72 0 1.316.232 1.788.696.48.456.72 1.048.72 1.776 0 .232-.02.448-.06.648H69.97c.04.504.228.9.564 1.188.344.288.784.432 1.32.432.704 0 1.256-.188 1.656-.564zm-1.884-3.276c-.472 0-.864.132-1.176.396-.304.264-.484.612-.54 1.044h3.276c-.024-.448-.176-.8-.456-1.056-.272-.256-.64-.384-1.104-.384zm3.642 4.068c0-.192.06-.344.18-.456.12-.12.288-.18.504-.18.256 0 .464.108.624.324.16.208.24.488.24.84 0 .432-.12.804-.36 1.116a1.76 1.76 0 01-.96.66l-.264-.456c.416-.128.672-.396.768-.804.056-.272.052-.472-.012-.6-.048.072-.136.108-.264.108a.433.433 0 01-.324-.156.622.622 0 01-.132-.396zm6.34-3.888h-1.98v-.96h4.92v.96h-1.98V84h-.96v-4.44zm4.95 6.84h-.96v-7.8h.96v.636c.191-.224.455-.404.791-.54a2.624 2.624 0 011.044-.216c.768 0 1.372.256 1.812.768.456.504.684 1.16.684 1.968 0 .824-.26 1.516-.78 2.076-.512.552-1.188.828-2.028.828-.648 0-1.156-.124-1.524-.372V86.4zm1.56-7.02c-.64 0-1.16.248-1.56.744V82.8c.423.28.903.42 1.44.42.567 0 1.02-.18 1.355-.54.344-.368.516-.844.516-1.428 0-.568-.156-1.02-.468-1.356-.312-.344-.74-.516-1.284-.516zm4.435.36l-.252-.768a3.38 3.38 0 011.8-.492c.728 0 1.256.18 1.584.54.328.36.492.916.492 1.668V84h-.912v-.696c-.424.52-1 .78-1.728.78-.496 0-.896-.148-1.2-.444-.304-.304-.456-.712-.456-1.224 0-.528.188-.944.564-1.248.376-.312.868-.468 1.476-.468.568 0 1.016.116 1.344.348 0-.608-.084-1.044-.252-1.308-.168-.264-.492-.396-.972-.396-.488 0-.984.132-1.488.396zm1.32 3.48c.536 0 1-.232 1.392-.696v-.684c-.336-.24-.74-.36-1.212-.36-.328 0-.604.08-.828.24a.745.745 0 00-.324.648c0 .264.084.472.252.624.176.152.416.228.72.228zm8.832.78h-.96v-2.28h-3V84h-.96v-5.4h.96v2.22h3V78.6h.96V84zm5.888-1.476l.456.696c-.464.6-1.156.9-2.076.9-.864 0-1.564-.256-2.1-.768-.528-.512-.792-1.196-.792-2.052 0-.792.26-1.46.78-2.004s1.172-.816 1.956-.816c.944 0 1.652.236 2.124.708l-.444.756c-.416-.376-.932-.564-1.548-.564-.504 0-.94.184-1.308.552-.36.36-.54.816-.54 1.368 0 .584.184 1.048.552 1.392.376.352.84.528 1.392.528.624 0 1.14-.232 1.548-.696zM114.852 84h-.96v-4.44h-1.896l-.06.912c-.064.744-.16 1.364-.288 1.86-.12.488-.28.856-.48 1.104-.192.24-.396.408-.612.504-.216.088-.48.132-.792.132l-.072-.936a.675.675 0 00.276-.036.96.96 0 00.312-.24c.12-.12.224-.28.312-.48.096-.2.18-.48.252-.84.08-.368.132-.788.156-1.26l.096-1.68h3.756V84zm5.811-4.02l-3.12 4.02h-.96v-5.4h.96v4.02l3.12-4.02h.96V84h-.96v-4.02zm3.665 6.42h-.96v-7.8h.96v.636c.192-.224.456-.404.792-.54a2.624 2.624 0 011.044-.216c.768 0 1.372.256 1.812.768.456.504.684 1.16.684 1.968 0 .824-.26 1.516-.78 2.076-.512.552-1.188.828-2.028.828-.648 0-1.156-.124-1.524-.372V86.4zm1.56-7.02c-.64 0-1.16.248-1.56.744V82.8c.424.28.904.42 1.44.42.568 0 1.02-.18 1.356-.54.344-.368.516-.844.516-1.428 0-.568-.156-1.02-.468-1.356-.312-.344-.74-.516-1.284-.516zm7.753-.78h1.092l-2.16 5.4c-.392.952-.732 1.584-1.02 1.896-.304.336-.652.504-1.044.504-.352 0-.692-.112-1.02-.336l.312-.732c.256.12.456.18.6.18.224 0 .424-.096.6-.288.184-.192.368-.504.552-.936l.12-.288-2.592-5.4h1.152l1.584 3.432c.032.056.14.328.324.816.072-.264.156-.54.252-.828l1.248-3.42zm6.128 4.056l.3.756c-.52.472-1.196.708-2.028.708-.88 0-1.58-.256-2.1-.768-.528-.512-.792-1.196-.792-2.052 0-.808.248-1.48.744-2.016.488-.536 1.168-.804 2.04-.804.72 0 1.316.232 1.788.696.48.456.72 1.048.72 1.776 0 .232-.02.448-.06.648h-4.152c.04.504.228.9.564 1.188.344.288.784.432 1.32.432.704 0 1.256-.188 1.656-.564zm-1.884-3.276c-.472 0-.864.132-1.176.396-.304.264-.484.612-.54 1.044h3.276c-.024-.448-.176-.8-.456-1.056-.272-.256-.64-.384-1.104-.384zm4.818 4.62h-.96v-5.4h.876l2.076 2.676 1.968-2.676h.852V84h-.96v-3.936l-1.872 2.508h-.036l-1.944-2.508V84zm8.292 0h-1.74v-5.4h.96v1.62h.888c.736 0 1.276.168 1.62.504.344.328.516.78.516 1.356 0 .544-.18 1-.54 1.368-.344.368-.912.552-1.704.552zm4.236 0h-.96v-5.4h.96V84zm-4.308-2.88h-.708v1.98h.696c.456 0 .788-.08.996-.24.208-.16.312-.408.312-.744 0-.664-.432-.996-1.296-.996zm10.291 1.536l.3.756c-.52.472-1.196.708-2.028.708-.88 0-1.58-.256-2.1-.768-.528-.512-.792-1.196-.792-2.052 0-.808.248-1.48.744-2.016.488-.536 1.168-.804 2.04-.804.72 0 1.316.232 1.788.696.48.456.72 1.048.72 1.776 0 .232-.02.448-.06.648h-4.152c.04.504.228.9.564 1.188.344.288.784.432 1.32.432.704 0 1.256-.188 1.656-.564zm-1.884-3.276c-.472 0-.864.132-1.176.396-.304.264-.484.612-.54 1.044h3.276c-.024-.448-.176-.8-.456-1.056-.272-.256-.64-.384-1.104-.384z" fill="#002E5E"/><circle cx="6" cy="80" r="6" fill="#002E5E"/></svg>