<svg width="335" height="44" fill="none" xmlns="http://www.w3.org/2000/svg"><rect x="335" y="44" width="335" height="44" rx="5" transform="rotate(180 335 44)" fill="url(#paint0_linear)"/><path d="M10.483 13.128c.326 0 .606.117.84.35.242.233.364.513.364.84 0 .327-.122.607-.364.84-.234.233-.514.35-.84.35a1.13 1.13 0 01-.826-.35 1.146 1.146 0 01-.35-.84c0-.327.116-.607.35-.84a1.13 1.13 0 01.826-.35zM27.44 8.2h1.19V18h-1.19v-4.284c-.7.504-1.563.756-2.59.756-.868 0-1.573-.252-2.114-.756-.55-.504-.826-1.293-.826-2.366V8.2h1.19v2.828c0 1.55.686 2.324 2.058 2.324.784 0 1.545-.247 2.282-.742V8.2zm5.186 4.62h-2.31V11.7h5.74v1.12h-2.31V18h-1.12v-5.18zm4.952 4.396c-.616-.635-.924-1.423-.924-2.366 0-.952.308-1.736.924-2.352.626-.625 1.438-.938 2.436-.938 1 0 1.806.313 2.422.938.626.616.938 1.4.938 2.352s-.312 1.74-.938 2.366c-.616.616-1.423.924-2.422.924-.989 0-1.8-.308-2.436-.924zm.882-3.976c-.41.41-.616.947-.616 1.61 0 .663.201 1.2.602 1.61.411.42.934.63 1.568.63.635 0 1.153-.205 1.554-.616.411-.42.616-.961.616-1.624 0-.644-.205-1.18-.616-1.61-.4-.42-.919-.63-1.554-.63-.634 0-1.152.21-1.554.63zM53.875 18h-1.12v-2.66h-3.5V18h-1.12v-6.3h1.12v2.59h3.5V11.7h1.12V18zm6.996-1.568l.35.882c-.607.55-1.396.826-2.366.826-1.027 0-1.844-.299-2.45-.896-.616-.597-.924-1.395-.924-2.394 0-.943.289-1.727.868-2.352.569-.625 1.362-.938 2.38-.938.84 0 1.535.27 2.086.812.56.532.84 1.223.84 2.072 0 .27-.024.523-.07.756H56.74c.046.588.266 1.05.658 1.386.4.336.914.504 1.54.504.82 0 1.465-.22 1.932-.658zm-2.198-3.822c-.551 0-1.008.154-1.372.462-.355.308-.565.714-.63 1.218h3.822c-.028-.523-.206-.933-.532-1.232-.318-.299-.747-.448-1.288-.448zm4.923 4.606c-.616-.635-.924-1.423-.924-2.366 0-.952.308-1.736.924-2.352.625-.625 1.437-.938 2.436-.938.999 0 1.806.313 2.422.938.625.616.938 1.4.938 2.352s-.313 1.74-.938 2.366c-.616.616-1.423.924-2.422.924-.99 0-1.801-.308-2.436-.924zm.882-3.976c-.41.41-.616.947-.616 1.61 0 .663.2 1.2.602 1.61.41.42.933.63 1.568.63s1.153-.205 1.554-.616c.41-.42.616-.961.616-1.624 0-.644-.205-1.18-.616-1.61-.401-.42-.92-.63-1.554-.63-.635 0-1.153.21-1.554.63zM75.88 8.06l.602.882a1.698 1.698 0 01-.812.63 6.4 6.4 0 01-1.176.28 4.82 4.82 0 00-1.218.35c-.952.439-1.484 1.451-1.596 3.038h.028c.205-.439.537-.793.994-1.064.467-.27.966-.406 1.498-.406.896 0 1.605.285 2.128.854.532.57.798 1.33.798 2.282 0 .896-.303 1.661-.91 2.296-.597.625-1.372.938-2.324.938-1.027 0-1.839-.35-2.436-1.05-.597-.69-.896-1.647-.896-2.87 0-2.725.78-4.42 2.338-5.082a4.917 4.917 0 011.232-.35c.364-.065.625-.117.784-.154.159-.037.327-.103.504-.196.187-.093.34-.22.462-.378zm-4.13 6.37c0 .803.196 1.447.588 1.932.392.485.9.728 1.526.728.607 0 1.101-.205 1.484-.616.392-.401.588-.905.588-1.512 0-.644-.182-1.162-.546-1.554-.355-.392-.845-.588-1.47-.588-.57 0-1.045.159-1.428.476-.401.327-.649.705-.742 1.134zm10.939-2.73h1.302l-2.254 3.038L84.13 18h-1.372l-1.848-2.548L79.035 18h-1.302l2.38-3.206-2.24-3.094h1.372l1.708 2.38 1.736-2.38zm2.96 5.516c-.616-.635-.924-1.423-.924-2.366 0-.952.308-1.736.924-2.352.625-.625 1.437-.938 2.436-.938.998 0 1.806.313 2.422.938.625.616.938 1.4.938 2.352s-.313 1.74-.938 2.366c-.616.616-1.424.924-2.422.924-.99 0-1.802-.308-2.436-.924zm.882-3.976c-.41.41-.616.947-.616 1.61 0 .663.2 1.2.602 1.61.41.42.933.63 1.568.63.634 0 1.152-.205 1.554-.616.41-.42.616-.961.616-1.624 0-.644-.206-1.18-.616-1.61-.402-.42-.92-.63-1.554-.63-.635 0-1.153.21-1.554.63zm6.466 6.3h-1.05v-2.59h.784c.233-.29.438-.756.616-1.4.177-.653.294-1.381.35-2.184l.098-1.666h4.298v5.25h1.05v2.59h-1.05V18h-5.096v1.54zm1.848-6.79l-.07 1.05a9.64 9.64 0 01-.336 1.918c-.168.579-.341.99-.518 1.232h3.052v-4.2h-2.128zm10.277.56l-3.64 4.69h-1.12v-6.3h1.12v4.69l3.64-4.69h1.12V18h-1.12v-4.69zm4.276 4.69h-1.12v-6.3h1.022l2.422 3.122 2.296-3.122h.994V18h-1.12v-4.592l-2.184 2.926h-.042l-2.268-2.926V18zm8.147-.784c-.616-.635-.924-1.423-.924-2.366 0-.952.308-1.736.924-2.352.626-.625 1.438-.938 2.436-.938.999 0 1.806.313 2.422.938.626.616.938 1.4.938 2.352s-.312 1.74-.938 2.366c-.616.616-1.423.924-2.422.924-.989 0-1.801-.308-2.436-.924zm.882-3.976c-.41.41-.616.947-.616 1.61 0 .663.201 1.2.602 1.61.411.42.934.63 1.568.63.635 0 1.153-.205 1.554-.616.411-.42.616-.961.616-1.624 0-.644-.205-1.18-.616-1.61-.401-.42-.919-.63-1.554-.63-.634 0-1.152.21-1.554.63zM133.772 18h-1.12v-5.25h-3.43V18h-1.12v-6.3h5.67V18zm3.147 2.8h-1.12v-9.1h1.12v.742c.224-.261.532-.471.924-.63a3.062 3.062 0 011.218-.252c.896 0 1.601.299 2.114.896.532.588.798 1.353.798 2.296 0 .961-.303 1.769-.91 2.422-.597.644-1.386.966-2.366.966-.756 0-1.349-.145-1.778-.434V20.8zm1.82-8.19c-.747 0-1.353.29-1.82.868V16.6a2.98 2.98 0 001.68.49c.663 0 1.19-.21 1.582-.63.401-.43.602-.985.602-1.666 0-.663-.182-1.19-.546-1.582-.364-.401-.863-.602-1.498-.602zm9.809 3.822l.35.882c-.606.55-1.395.826-2.366.826-1.026 0-1.843-.299-2.45-.896-.616-.597-.924-1.395-.924-2.394 0-.943.29-1.727.868-2.352.57-.625 1.363-.938 2.38-.938.84 0 1.536.27 2.086.812.56.532.84 1.223.84 2.072 0 .27-.023.523-.07.756h-4.844c.047.588.266 1.05.658 1.386.402.336.915.504 1.54.504.822 0 1.466-.22 1.932-.658zm-2.198-3.822c-.55 0-1.008.154-1.372.462-.354.308-.564.714-.63 1.218h3.822c-.028-.523-.205-.933-.532-1.232-.317-.299-.746-.448-1.288-.448zm4.438 6.93h-1.05v-2.59h.784c.233-.29.438-.756.616-1.4a11.4 11.4 0 00.35-2.184l.098-1.666h4.298v5.25h1.05v2.59h-1.05V18h-5.096v1.54zm1.848-6.79l-.07 1.05a9.64 9.64 0 01-.336 1.918c-.168.579-.341.99-.518 1.232h3.052v-4.2h-2.128zM163.823 18h-1.12v-5.25h-3.43V18h-1.12v-6.3h5.67V18zm3.147 2.8h-1.12v-9.1h1.12v.742c.224-.261.532-.471.924-.63a3.062 3.062 0 011.218-.252c.896 0 1.6.299 2.114.896.532.588.798 1.353.798 2.296 0 .961-.304 1.769-.91 2.422-.598.644-1.386.966-2.366.966-.756 0-1.349-.145-1.778-.434V20.8zm1.82-8.19c-.747 0-1.354.29-1.82.868V16.6c.494.327 1.054.49 1.68.49.662 0 1.19-.21 1.582-.63.401-.43.602-.985.602-1.666 0-.663-.182-1.19-.546-1.582-.364-.401-.864-.602-1.498-.602zm9.599.7l-3.64 4.69h-1.12v-6.3h1.12v4.69l3.64-4.69h1.12V18h-1.12v-4.69zm8.896 4.69h-1.12v-2.66h-3.5V18h-1.12v-6.3h1.12v2.59h3.5V11.7h1.12V18zm4.784-6.3h1.96V18h-1.12v-2.1h-1.218l-1.54 2.1h-1.358l1.82-2.38a1.67 1.67 0 01-.966-.616c-.262-.336-.392-.737-.392-1.204 0-.644.233-1.153.7-1.526.466-.383 1.171-.574 2.114-.574zm-1.624 2.128c0 .299.116.546.35.742.233.187.508.28.826.28h1.288v-2.1h-1.022c-.476 0-.836.098-1.078.294a.956.956 0 00-.364.784zm7.132-1.008h-2.31V11.7h5.74v1.12h-2.31V18h-1.12v-5.18zm6.782 5.18h-2.128v-6.3h1.12v1.89h1.148c.858 0 1.488.196 1.89.588.401.383.602.91.602 1.582 0 .635-.21 1.167-.63 1.596-.42.43-1.088.644-2.002.644zm-.07-3.36h-.938v2.31h.924c1.017 0 1.526-.383 1.526-1.148 0-.775-.504-1.162-1.512-1.162zm4.074 2.716c0-.224.07-.401.21-.532.14-.14.336-.21.588-.21.299 0 .542.126.728.378.187.243.28.57.28.98 0 .504-.14.938-.42 1.302a2.05 2.05 0 01-1.12.77l-.308-.532c.486-.15.784-.462.896-.938.066-.317.061-.55-.014-.7-.056.084-.158.126-.308.126a.505.505 0 01-.378-.182.73.73 0 01-.154-.462zm9.497-5.656h1.12V18h-1.12v-2.45c-.485.308-1.068.462-1.75.462-1.493 0-2.24-.803-2.24-2.408V11.7h1.19v1.778c0 .99.453 1.484 1.358 1.484.588 0 1.069-.13 1.442-.392V11.7zm4.654 1.12h-2.31V11.7h5.74v1.12h-2.31V18h-1.12v-5.18zm4.953 4.396c-.616-.635-.924-1.423-.924-2.366 0-.952.308-1.736.924-2.352.625-.625 1.437-.938 2.436-.938.999 0 1.806.313 2.422.938.625.616.938 1.4.938 2.352s-.313 1.74-.938 2.366c-.616.616-1.423.924-2.422.924-.989 0-1.801-.308-2.436-.924zm.882-3.976c-.411.41-.616.947-.616 1.61 0 .663.201 1.2.602 1.61.411.42.933.63 1.568.63s1.153-.205 1.554-.616c.411-.42.616-.961.616-1.624 0-.644-.205-1.18-.616-1.61-.401-.42-.919-.63-1.554-.63s-1.153.21-1.554.63zm11.402-5.18l.602.882a1.7 1.7 0 01-.812.63 6.388 6.388 0 01-1.176.28 4.827 4.827 0 00-1.218.35c-.952.439-1.484 1.451-1.596 3.038h.028c.205-.439.537-.793.994-1.064.467-.27.966-.406 1.498-.406.896 0 1.605.285 2.128.854.532.57.798 1.33.798 2.282 0 .896-.303 1.661-.91 2.296-.597.625-1.372.938-2.324.938-1.027 0-1.839-.35-2.436-1.05-.597-.69-.896-1.647-.896-2.87 0-2.725.779-4.42 2.338-5.082a4.917 4.917 0 011.232-.35c.364-.065.625-.117.784-.154.159-.037.327-.103.504-.196.187-.093.341-.22.462-.378zm-4.13 6.37c0 .803.196 1.447.588 1.932.392.485.901.728 1.526.728.607 0 1.101-.205 1.484-.616.392-.401.588-.905.588-1.512 0-.644-.182-1.162-.546-1.554-.355-.392-.845-.588-1.47-.588-.569 0-1.045.159-1.428.476-.401.327-.649.705-.742 1.134zm9.013 3.57h-2.03v-6.3h1.12v1.89h1.036c.858 0 1.488.196 1.89.588.401.383.602.91.602 1.582 0 .635-.21 1.167-.63 1.596-.402.43-1.064.644-1.988.644zm4.942 0h-1.12v-6.3h1.12V18zm-5.026-3.36h-.826v2.31h.812c.532 0 .919-.093 1.162-.28.242-.187.364-.476.364-.868 0-.775-.504-1.162-1.512-1.162zM260.331 18h-5.978v-.91c1.269-1.241 2.202-2.23 2.8-2.968 1.054-1.325 1.582-2.436 1.582-3.332 0-.467-.145-.845-.434-1.134-.28-.299-.668-.448-1.162-.448-.43 0-.808.14-1.134.42-.318.27-.523.653-.616 1.148l-.952-.392c.112-.7.424-1.255.938-1.666.522-.42 1.143-.63 1.862-.63.858 0 1.521.247 1.988.742.466.495.7 1.073.7 1.736 0 1.26-.602 2.6-1.806 4.018-.542.635-.976 1.11-1.302 1.428-.28.28-.616.593-1.008.938h4.522V18zm7.9-4.9c0 1.587-.266 2.819-.798 3.696-.522.877-1.306 1.316-2.352 1.316-1.054 0-1.857-.448-2.408-1.344-.532-.905-.798-2.128-.798-3.668 0-1.53.262-2.749.784-3.654.532-.905 1.33-1.358 2.394-1.358 1.074 0 1.867.453 2.38 1.358.532.896.798 2.114.798 3.654zm-3.15 3.962c.682 0 1.176-.327 1.484-.98.318-.653.476-1.647.476-2.982 0-1.325-.163-2.315-.49-2.968-.317-.663-.816-.994-1.498-.994-1.325 0-1.988 1.32-1.988 3.962 0 2.641.672 3.962 2.016 3.962zm7.385 1.078c-.691 0-1.298-.145-1.82-.434a2.7 2.7 0 01-1.148-1.246l.644-.798c.224.43.541.765.952 1.008.41.233.854.35 1.33.35.588 0 1.054-.163 1.4-.49.354-.327.532-.751.532-1.274s-.187-.938-.56-1.246c-.364-.308-.845-.462-1.442-.462h-.77v-1.12h.7a1.63 1.63 0 001.176-.476c.345-.317.518-.723.518-1.218 0-.485-.145-.863-.434-1.134-.28-.28-.668-.42-1.162-.42-.887 0-1.559.406-2.016 1.218l-.63-.77a2.456 2.456 0 011.05-1.148c.485-.28 1.045-.42 1.68-.42.821 0 1.474.224 1.96.672.494.448.742 1.05.742 1.806 0 .541-.131 1.017-.392 1.428-.262.41-.64.719-1.134.924v.042c.578.093 1.04.36 1.386.798.345.439.518.961.518 1.568 0 .859-.29 1.55-.868 2.072-.57.513-1.307.77-2.212.77zm11.119-5.04c0 1.587-.266 2.819-.798 3.696-.523.877-1.307 1.316-2.352 1.316-1.055 0-1.857-.448-2.408-1.344-.532-.905-.798-2.128-.798-3.668 0-1.53.261-2.749.784-3.654.532-.905 1.33-1.358 2.394-1.358 1.073 0 1.867.453 2.38 1.358.532.896.798 2.114.798 3.654zm-3.15 3.962c.681 0 1.176-.327 1.484-.98.317-.653.476-1.647.476-2.982 0-1.325-.163-2.315-.49-2.968-.317-.663-.817-.994-1.498-.994-1.325 0-1.988 1.32-1.988 3.962 0 2.641.672 3.962 2.016 3.962zM27.748 35h-1.12v-2.66h-3.5V35h-1.12v-6.3h1.12v2.59h3.5V28.7h1.12V35zm6.996-1.568l.35.882c-.607.55-1.396.826-2.366.826-1.027 0-1.844-.299-2.45-.896-.616-.597-.924-1.395-.924-2.394 0-.943.289-1.727.868-2.352.569-.625 1.362-.938 2.38-.938.84 0 1.535.27 2.086.812.56.532.84 1.223.84 2.072 0 .27-.024.523-.07.756h-4.844c.046.588.266 1.05.658 1.386.401.336.914.504 1.54.504.821 0 1.465-.22 1.932-.658zm-2.198-3.822c-.551 0-1.008.154-1.372.462-.355.308-.565.714-.63 1.218h3.822c-.028-.523-.206-.933-.532-1.232-.318-.299-.747-.448-1.288-.448zm8.766 8.19h-1.12v-9.1h1.12v.742c.224-.261.532-.471.924-.63a3.062 3.062 0 011.218-.252c.896 0 1.6.299 2.114.896.532.588.798 1.353.798 2.296 0 .961-.304 1.769-.91 2.422-.598.644-1.386.966-2.366.966-.756 0-1.35-.145-1.778-.434V37.8zm1.82-8.19c-.747 0-1.354.29-1.82.868V33.6a2.98 2.98 0 001.68.49c.662 0 1.19-.21 1.582-.63.4-.43.602-.985.602-1.666 0-.663-.182-1.19-.546-1.582-.364-.401-.864-.602-1.498-.602zm5.175.42l-.294-.896a3.943 3.943 0 012.1-.574c.85 0 1.465.21 1.848.63.383.42.574 1.069.574 1.946V35H51.47v-.812c-.495.607-1.167.91-2.016.91-.579 0-1.045-.173-1.4-.518-.355-.355-.532-.83-.532-1.428 0-.616.22-1.101.658-1.456.439-.364 1.013-.546 1.722-.546.663 0 1.185.135 1.568.406 0-.71-.098-1.218-.294-1.526-.196-.308-.574-.462-1.134-.462-.57 0-1.148.154-1.736.462zm1.54 4.06c.625 0 1.167-.27 1.624-.812v-.798c-.392-.28-.863-.42-1.414-.42-.383 0-.705.093-.966.28-.252.177-.378.43-.378.756 0 .308.098.55.294.728.205.177.485.266.84.266zm6.65 1.05c-.477 0-.98-.08-1.513-.238-.513-.168-.877-.373-1.092-.616l.574-.84c.252.205.551.373.896.504.355.121.677.182.966.182.486 0 .882-.093 1.19-.28.308-.196.462-.448.462-.756a.67.67 0 00-.336-.602c-.214-.14-.513-.21-.896-.21h-1.064v-.91h.994c.318 0 .579-.084.784-.252a.821.821 0 00.308-.644c0-.28-.121-.5-.364-.658-.242-.168-.569-.252-.98-.252-.662 0-1.292.233-1.89.7l-.434-.868c.252-.261.602-.467 1.05-.616a4.6 4.6 0 011.442-.224c.747 0 1.326.15 1.736.448.42.299.63.714.63 1.246 0 .728-.368 1.223-1.106 1.484v.028c.411.047.733.21.966.49.234.27.35.602.35.994 0 .579-.247 1.04-.742 1.386-.485.336-1.129.504-1.932.504zm4.884-.924c-.616-.635-.924-1.423-.924-2.366 0-.952.308-1.736.924-2.352.626-.625 1.438-.938 2.436-.938.999 0 1.806.313 2.422.938.626.616.938 1.4.938 2.352s-.313 1.74-.938 2.366c-.616.616-1.423.924-2.422.924-.99 0-1.801-.308-2.436-.924zm.882-3.976c-.41.41-.616.947-.616 1.61 0 .663.2 1.2.602 1.61.41.42.933.63 1.568.63s1.153-.205 1.554-.616c.41-.42.616-.961.616-1.624 0-.644-.205-1.18-.616-1.61-.401-.42-.92-.63-1.554-.63-.635 0-1.153.21-1.554.63zm10.142-1.54h1.12V35h-1.12v-2.45c-.485.308-1.069.462-1.75.462-1.493 0-2.24-.803-2.24-2.408V28.7h1.19v1.778c0 .99.453 1.484 1.358 1.484.588 0 1.069-.13 1.442-.392V28.7zm3.478 1.33l-.294-.896a3.943 3.943 0 012.1-.574c.85 0 1.465.21 1.848.63.383.42.574 1.069.574 1.946V35h-1.064v-.812c-.495.607-1.167.91-2.016.91-.579 0-1.045-.173-1.4-.518-.355-.355-.532-.83-.532-1.428 0-.616.22-1.101.658-1.456.439-.364 1.013-.546 1.722-.546.663 0 1.185.135 1.568.406 0-.71-.098-1.218-.294-1.526-.196-.308-.574-.462-1.134-.462-.57 0-1.148.154-1.736.462zm1.54 4.06c.625 0 1.167-.27 1.624-.812v-.798c-.392-.28-.863-.42-1.414-.42-.383 0-.705.093-.966.28-.252.177-.378.43-.378.756 0 .308.098.55.294.728.205.177.485.266.84.266zm5.683 3.71h-1.12v-9.1h1.12v.742c.225-.261.532-.471.925-.63a3.062 3.062 0 011.218-.252c.895 0 1.6.299 2.114.896.531.588.797 1.353.797 2.296 0 .961-.303 1.769-.91 2.422-.597.644-1.385.966-2.365.966-.757 0-1.35-.145-1.779-.434V37.8zm1.82-8.19c-.746 0-1.353.29-1.82.868V33.6a2.98 2.98 0 001.68.49c.663 0 1.19-.21 1.582-.63.402-.43.603-.985.603-1.666 0-.663-.183-1.19-.547-1.582-.364-.401-.863-.602-1.498-.602zm5.344 4.606c-.616-.635-.924-1.423-.924-2.366 0-.952.308-1.736.924-2.352.625-.625 1.437-.938 2.436-.938.998 0 1.806.313 2.422.938.625.616.938 1.4.938 2.352s-.313 1.74-.938 2.366c-.616.616-1.424.924-2.422.924-.99 0-1.802-.308-2.436-.924zm.882-3.976c-.41.41-.616.947-.616 1.61 0 .663.2 1.2.602 1.61.41.42.933.63 1.568.63s1.153-.205 1.554-.616c.41-.42.616-.961.616-1.624 0-.644-.206-1.18-.616-1.61-.401-.42-.92-.63-1.554-.63-.635 0-1.153.21-1.554.63zm6.53 4.76v-6.3h.196c.084-.01.205-.014.364-.014.158-.01.303-.014.434-.014.69-.019 1.12-.028 1.288-.028 1.81 0 2.716.541 2.716 1.624 0 .373-.117.695-.35.966-.234.261-.537.42-.91.476v.028c.98.177 1.47.672 1.47 1.484 0 1.223-.966 1.834-2.898 1.834-.094 0-.504-.01-1.232-.028-.14 0-.294-.005-.462-.014-.168 0-.299-.005-.392-.014h-.224zm2.464-2.828h-1.344v1.932c.672.028 1.101.042 1.288.042 1.073 0 1.61-.336 1.61-1.008 0-.644-.518-.966-1.554-.966zm-.098-2.618c-.27 0-.686.014-1.246.042v1.876h1.414c.382 0 .69-.089.924-.266a.852.852 0 00.35-.714c0-.625-.481-.938-1.442-.938zm4.888.476l-.294-.896a3.941 3.941 0 012.1-.574c.849 0 1.465.21 1.848.63.382.42.574 1.069.574 1.946V35H108.1v-.812c-.495.607-1.167.91-2.016.91-.579 0-1.046-.173-1.4-.518-.355-.355-.532-.83-.532-1.428 0-.616.219-1.101.658-1.456.438-.364 1.012-.546 1.722-.546.662 0 1.185.135 1.568.406 0-.71-.098-1.218-.294-1.526-.196-.308-.574-.462-1.134-.462-.57 0-1.148.154-1.736.462zm1.54 4.06c.625 0 1.166-.27 1.624-.812v-.798c-.392-.28-.864-.42-1.414-.42-.383 0-.705.093-.966.28-.252.177-.378.43-.378.756 0 .308.098.55.294.728.205.177.485.266.84.266zm9.995.91h-1.12v-5.18h-2.212l-.07 1.064c-.074.868-.186 1.591-.336 2.17-.14.57-.326.999-.56 1.288-.224.28-.462.476-.714.588-.252.103-.56.154-.924.154l-.084-1.092c.103.01.21-.005.322-.042.112-.047.234-.14.364-.28.14-.14.262-.327.364-.56.112-.233.21-.56.294-.98a9.1 9.1 0 00.182-1.47l.112-1.96h4.382V35zm5.911-7.28c0-.43-.163-.793-.49-1.092-.317-.299-.723-.448-1.218-.448-.802 0-1.456.345-1.96 1.036l-.672-.742a2.77 2.77 0 011.12-1.022 3.288 3.288 0 011.582-.392c.868 0 1.559.233 2.072.7.514.457.77 1.031.77 1.722 0 .439-.074.826-.224 1.162a2.22 2.22 0 01-.126.266 1.84 1.84 0 01-.168.252l-.168.196a1.781 1.781 0 01-.196.196 2.78 2.78 0 00-.196.168 4.17 4.17 0 01-.21.182 6.866 6.866 0 01-.21.154 28.576 28.576 0 01-.462.378 4.39 4.39 0 01-.196.182 1.96 1.96 0 00-.196.196 2.645 2.645 0 00-.154.21 1.185 1.185 0 00-.126.238 4.88 4.88 0 01-.07.252 1.626 1.626 0 00-.028.308c.01.103.024.215.042.336l-1.008.014c-.168-.887.052-1.582.658-2.086.094-.075.248-.191.462-.35.224-.168.397-.303.518-.406a5.8 5.8 0 00.406-.42c.159-.168.271-.35.336-.546.075-.196.112-.41.112-.644zm-2.772 6.524c0-.205.075-.378.224-.518a.797.797 0 01.588-.224.71.71 0 01.518.224.71.71 0 01.224.518c0 .224-.07.415-.21.574a.697.697 0 01-.532.224.797.797 0 01-.588-.224.809.809 0 01-.224-.574z" fill="#fff"/><defs><linearGradient id="paint0_linear" x1="335" y1="82.133" x2="600.619" y2="-43.017" gradientUnits="userSpaceOnUse"><stop stop-color="#1B75BB"/><stop offset="1" stop-color="#289DDE"/></linearGradient></defs></svg>