<svg width="335" height="44" fill="none" xmlns="http://www.w3.org/2000/svg"><rect x="335" y="44" width="335" height="44" rx="5" transform="rotate(180 335 44)" fill="url(#paint0_linear)"/><path d="M10.483 13.128c.326 0 .606.117.84.35.242.233.364.513.364.84 0 .327-.122.607-.364.84-.234.233-.514.35-.84.35a1.13 1.13 0 01-.826-.35 1.146 1.146 0 01-.35-.84c0-.327.116-.607.35-.84a1.13 1.13 0 01.826-.35zM28.196 8.2h1.442l-4.368 4.606L29.862 18h-1.526l-4.438-5.11 4.298-4.69zM23.66 18h-1.19V8.2h1.19V18zm7.83-4.97l-.293-.896a3.943 3.943 0 012.1-.574c.849 0 1.465.21 1.848.63.382.42.573 1.069.573 1.946V18h-1.064v-.812c-.494.607-1.166.91-2.016.91-.578 0-1.045-.173-1.4-.518-.354-.355-.532-.83-.532-1.428 0-.616.22-1.101.659-1.456.438-.364 1.012-.546 1.722-.546.662 0 1.185.135 1.567.406 0-.71-.098-1.218-.294-1.526-.196-.308-.574-.462-1.133-.462-.57 0-1.148.154-1.736.462zm1.54 4.06c.626 0 1.167-.27 1.624-.812v-.798c-.392-.28-.863-.42-1.414-.42-.382 0-.704.093-.965.28-.252.177-.378.43-.378.756 0 .308.098.55.294.728.205.177.485.266.84.266zm8.61-5.39h1.47l-2.758 3.01L43.376 18h-1.554l-2.842-3.22 2.66-3.08zM38.714 18h-1.12v-6.3h1.12V18zm10.613-4.69L45.687 18h-1.12v-6.3h1.12v4.69l3.64-4.69h1.12V18h-1.12v-4.69zM53.603 18h-1.12v-6.3h1.022l2.422 3.122 2.296-3.122h.994V18h-1.12v-4.592l-2.184 2.926h-.042l-2.268-2.926V18zm10.788 0v-6.3h.196c.084-.01.205-.014.364-.014.159-.01.303-.014.434-.014.69-.019 1.12-.028 1.288-.028 1.81 0 2.716.541 2.716 1.624 0 .373-.117.695-.35.966a1.47 1.47 0 01-.91.476v.028c.98.177 1.47.672 1.47 1.484 0 1.223-.966 1.834-2.898 1.834-.093 0-.504-.01-1.232-.028-.14 0-.294-.005-.462-.014-.168 0-.299-.005-.392-.014h-.224zm2.464-2.828H65.51v1.932c.672.028 1.101.042 1.288.042 1.073 0 1.61-.336 1.61-1.008 0-.644-.518-.966-1.554-.966zm-.098-2.618c-.27 0-.686.014-1.246.042v1.876h1.414c.383 0 .69-.089.924-.266a.85.85 0 00.35-.714c0-.625-.48-.938-1.442-.938zm9.312.756L72.429 18h-1.12v-6.3h1.12v4.69l3.64-4.69h1.12V18h-1.12v-4.69zm3.338 6.23h-1.05v-2.59h.784c.233-.29.438-.756.616-1.4.177-.653.294-1.381.35-2.184l.098-1.666h4.298v5.25h1.05v2.59h-1.05V18h-5.096v1.54zm1.848-6.79l-.07 1.05a9.64 9.64 0 01-.336 1.918c-.168.579-.34.99-.518 1.232h3.052v-4.2h-2.128zm10.277.56L87.892 18h-1.12v-6.3h1.12v4.69l3.64-4.69h1.12V18h-1.12v-4.69zm4.668-.49h-2.31V11.7h5.74v1.12h-2.31V18H96.2v-5.18zm9.293 3.458l.532.812c-.542.7-1.349 1.05-2.422 1.05-1.008 0-1.825-.299-2.45-.896-.616-.597-.924-1.395-.924-2.394 0-.924.303-1.703.91-2.338.606-.635 1.367-.952 2.282-.952 1.101 0 1.927.275 2.478.826l-.518.882c-.486-.439-1.088-.658-1.806-.658-.588 0-1.097.215-1.526.644-.42.42-.63.952-.63 1.596 0 .681.214 1.223.644 1.624.438.41.98.616 1.624.616.728 0 1.33-.27 1.806-.812zm4.449-4.578h1.96V18h-1.12v-2.1h-1.218l-1.54 2.1h-1.358l1.82-2.38a1.67 1.67 0 01-.966-.616c-.262-.336-.392-.737-.392-1.204 0-.644.233-1.153.7-1.526.466-.383 1.171-.574 2.114-.574zm-1.624 2.128c0 .299.116.546.35.742.233.187.508.28.826.28h1.288v-2.1h-1.022c-.476 0-.836.098-1.078.294a.956.956 0 00-.364.784zm13.636-5.768l.602.882a1.695 1.695 0 01-.812.63 6.388 6.388 0 01-1.176.28 4.827 4.827 0 00-1.218.35c-.952.439-1.484 1.451-1.596 3.038h.028c.206-.439.537-.793.994-1.064.467-.27.966-.406 1.498-.406.896 0 1.606.285 2.128.854.532.57.798 1.33.798 2.282 0 .896-.303 1.661-.91 2.296-.597.625-1.372.938-2.324.938-1.026 0-1.838-.35-2.436-1.05-.597-.69-.896-1.647-.896-2.87 0-2.725.78-4.42 2.338-5.082a4.929 4.929 0 011.232-.35c.364-.065.626-.117.784-.154.159-.037.327-.103.504-.196.187-.093.341-.22.462-.378zm-4.13 6.37c0 .803.196 1.447.588 1.932.392.485.901.728 1.526.728.607 0 1.102-.205 1.484-.616.392-.401.588-.905.588-1.512 0-.644-.182-1.162-.546-1.554-.354-.392-.844-.588-1.47-.588-.569 0-1.045.159-1.428.476-.401.327-.648.705-.742 1.134zm11.189-2.73h1.274l-2.52 6.3c-.458 1.11-.854 1.848-1.19 2.212-.355.392-.761.588-1.218.588-.411 0-.808-.13-1.19-.392l.364-.854c.298.14.532.21.7.21.261 0 .494-.112.7-.336.214-.224.429-.588.644-1.092l.14-.336-3.024-6.3h1.344l1.848 4.004c.037.065.163.383.378.952.084-.308.182-.63.294-.966l1.456-3.99zm2.156 7.84h-1.05v-2.59h.784c.233-.29.438-.756.616-1.4a11.4 11.4 0 00.35-2.184l.098-1.666h4.298v5.25h1.05v2.59h-1.05V18h-5.096v1.54zm1.848-6.79l-.07 1.05a9.64 9.64 0 01-.336 1.918c-.168.579-.341.99-.518 1.232h3.052v-4.2h-2.128zm9.968-1.05h1.274l-2.52 6.3c-.457 1.11-.854 1.848-1.19 2.212-.354.392-.76.588-1.218.588-.41 0-.807-.13-1.19-.392l.364-.854c.299.14.532.21.7.21.262 0 .495-.112.7-.336.215-.224.43-.588.644-1.092l.14-.336-3.024-6.3h1.344l1.848 4.004c.038.065.164.383.378.952.084-.308.182-.63.294-.966l1.456-3.99zM153.39 18h-7.98v-6.3h1.12v5.25h2.31V11.7h1.12v5.25h2.31V11.7h1.12v5.25h1.05v2.59h-1.05V18zm7.244-1.568l.35.882c-.606.55-1.395.826-2.366.826-1.026 0-1.843-.299-2.45-.896-.616-.597-.924-1.395-.924-2.394 0-.943.29-1.727.868-2.352.57-.625 1.363-.938 2.38-.938.84 0 1.536.27 2.086.812.56.532.84 1.223.84 2.072 0 .27-.023.523-.07.756h-4.844c.047.588.266 1.05.658 1.386.402.336.915.504 1.54.504.822 0 1.466-.22 1.932-.658zm-2.198-3.822c-.55 0-1.008.154-1.372.462-.354.308-.564.714-.63 1.218h3.822c-.028-.523-.205-.933-.532-1.232-.317-.299-.746-.448-1.288-.448zm9.39 3.822l.35.882c-.607.55-1.396.826-2.366.826-1.027 0-1.844-.299-2.45-.896-.616-.597-.924-1.395-.924-2.394 0-.943.289-1.727.868-2.352.569-.625 1.362-.938 2.38-.938.84 0 1.535.27 2.086.812.56.532.84 1.223.84 2.072 0 .27-.024.523-.07.756h-4.844c.046.588.266 1.05.658 1.386.401.336.914.504 1.54.504.821 0 1.465-.22 1.932-.658zm-2.198-3.822c-.551 0-1.008.154-1.372.462-.355.308-.565.714-.63 1.218h3.822c-.028-.523-.206-.933-.532-1.232-.318-.299-.747-.448-1.288-.448zm8.766 8.19h-1.12v-9.1h1.12v.742c.224-.261.532-.471.924-.63a3.062 3.062 0 011.218-.252c.896 0 1.6.299 2.114.896.532.588.798 1.353.798 2.296 0 .961-.304 1.769-.91 2.422-.598.644-1.386.966-2.366.966-.756 0-1.349-.145-1.778-.434V20.8zm1.82-8.19c-.747 0-1.354.29-1.82.868V16.6c.494.327 1.054.49 1.68.49.662 0 1.19-.21 1.582-.63.401-.43.602-.985.602-1.666 0-.663-.182-1.19-.546-1.582-.364-.401-.864-.602-1.498-.602zm5.343 4.606c-.616-.635-.924-1.423-.924-2.366 0-.952.308-1.736.924-2.352.625-.625 1.437-.938 2.436-.938.999 0 1.806.313 2.422.938.625.616.938 1.4.938 2.352s-.313 1.74-.938 2.366c-.616.616-1.423.924-2.422.924-.989 0-1.801-.308-2.436-.924zm.882-3.976c-.411.41-.616.947-.616 1.61 0 .663.201 1.2.602 1.61.411.42.933.63 1.568.63s1.153-.205 1.554-.616c.411-.42.616-.961.616-1.624 0-.644-.205-1.18-.616-1.61-.401-.42-.919-.63-1.554-.63s-1.153.21-1.554.63zm11.374 3.038l.532.812c-.541.7-1.349 1.05-2.422 1.05-1.008 0-1.825-.299-2.45-.896-.616-.597-.924-1.395-.924-2.394 0-.924.303-1.703.91-2.338s1.367-.952 2.282-.952c1.101 0 1.927.275 2.478.826l-.518.882c-.485-.439-1.087-.658-1.806-.658-.588 0-1.097.215-1.526.644-.42.42-.63.952-.63 1.596 0 .681.215 1.223.644 1.624.439.41.98.616 1.624.616.728 0 1.33-.27 1.806-.812zm6.494 0l.532.812c-.541.7-1.349 1.05-2.422 1.05-1.008 0-1.825-.299-2.45-.896-.616-.597-.924-1.395-.924-2.394 0-.924.303-1.703.91-2.338s1.367-.952 2.282-.952c1.101 0 1.927.275 2.478.826l-.518.882c-.485-.439-1.087-.658-1.806-.658-.588 0-1.097.215-1.526.644-.42.42-.63.952-.63 1.596 0 .681.215 1.223.644 1.624.439.41.98.616 1.624.616.728 0 1.33-.27 1.806-.812zm6.752-2.968l-3.64 4.69h-1.12v-6.3h1.12v4.69l3.64-4.69h1.12V18h-1.12v-4.69zm7.916 0l-3.64 4.69h-1.12v-6.3h1.12v4.69l3.64-4.69h1.12V18h-1.12v-4.69zm-3.864-4.83h1.05c.056.737.415 1.106 1.078 1.106.625 0 .966-.369 1.022-1.106h1.05c0 .57-.196 1.04-.588 1.414-.383.364-.877.546-1.484.546-.663 0-1.185-.177-1.568-.532-.373-.364-.56-.84-.56-1.428zm11.864 7.798l.532.812c-.541.7-1.349 1.05-2.422 1.05-1.008 0-1.825-.299-2.45-.896-.616-.597-.924-1.395-.924-2.394 0-.924.303-1.703.91-2.338s1.367-.952 2.282-.952c1.101 0 1.927.275 2.478.826l-.518.882c-.485-.439-1.087-.658-1.806-.658-.588 0-1.097.215-1.526.644-.42.42-.63.952-.63 1.596 0 .681.215 1.223.644 1.624.439.41.98.616 1.624.616.728 0 1.33-.27 1.806-.812zm6.038-4.578h1.47l-2.758 3.01 3.024 3.29h-1.554l-2.842-3.22 2.66-3.08zm-2.926 6.3h-1.12v-6.3h1.12V18zm6.015-.784c-.616-.635-.924-1.423-.924-2.366 0-.952.308-1.736.924-2.352.625-.625 1.437-.938 2.436-.938.999 0 1.806.313 2.422.938.625.616.938 1.4.938 2.352s-.313 1.74-.938 2.366c-.616.616-1.423.924-2.422.924-.989 0-1.801-.308-2.436-.924zm.882-3.976c-.411.41-.616.947-.616 1.61 0 .663.201 1.2.602 1.61.411.42.933.63 1.568.63s1.153-.205 1.554-.616c.411-.42.616-.961.616-1.624 0-.644-.205-1.18-.616-1.61-.401-.42-.919-.63-1.554-.63s-1.153.21-1.554.63zm7.65 4.76h-1.12v-6.3h3.99v1.05h-2.87V18zm4.251-.784c-.616-.635-.924-1.423-.924-2.366 0-.952.308-1.736.924-2.352.625-.625 1.437-.938 2.436-.938.999 0 1.806.313 2.422.938.625.616.938 1.4.938 2.352s-.313 1.74-.938 2.366c-.616.616-1.423.924-2.422.924-.989 0-1.801-.308-2.436-.924zm.882-3.976c-.411.41-.616.947-.616 1.61 0 .663.201 1.2.602 1.61.411.42.933.63 1.568.63s1.153-.205 1.554-.616c.411-.42.616-.961.616-1.624 0-.644-.205-1.18-.616-1.61-.401-.42-.919-.63-1.554-.63s-1.153.21-1.554.63zm13.763 2.016h-3.108v-.91h3.094c-.084-.56-.322-.99-.714-1.288-.383-.299-.873-.448-1.47-.448-.775 0-1.419.229-1.932.686l-.476-.84c.27-.27.63-.485 1.078-.644a3.73 3.73 0 011.316-.252c1.008 0 1.815.299 2.422.896.625.597.938 1.395.938 2.394 0 .924-.304 1.703-.91 2.338-.607.635-1.368.952-2.282.952-1.139 0-1.984-.266-2.534-.798l.532-.826c.429.383 1.073.574 1.932.574.588 0 1.068-.159 1.442-.476.373-.327.597-.78.672-1.358zm6.807-3.556h1.47l-2.758 3.01 3.024 3.29h-1.554l-2.842-3.22 2.66-3.08zm-2.926 6.3h-1.12v-6.3h1.12V18zm10.355-1.722l.532.812c-.541.7-1.349 1.05-2.422 1.05-1.008 0-1.825-.299-2.45-.896-.616-.597-.924-1.395-.924-2.394 0-.924.303-1.703.91-2.338s1.367-.952 2.282-.952c1.101 0 1.927.275 2.478.826l-.518.882c-.485-.439-1.087-.658-1.806-.658-.588 0-1.097.215-1.526.644-.42.42-.63.952-.63 1.596 0 .681.215 1.223.644 1.624.439.41.98.616 1.624.616.728 0 1.33-.27 1.806-.812zM281.428 18h-1.12v-5.25h-3.43V18h-1.12v-6.3h5.67V18zm2.531-.784c-.616-.635-.924-1.423-.924-2.366 0-.952.308-1.736.924-2.352.626-.625 1.438-.938 2.436-.938.999 0 1.806.313 2.422.938.626.616.938 1.4.938 2.352s-.312 1.74-.938 2.366c-.616.616-1.423.924-2.422.924-.989 0-1.801-.308-2.436-.924zm.882-3.976c-.41.41-.616.947-.616 1.61 0 .663.201 1.2.602 1.61.411.42.934.63 1.568.63.635 0 1.153-.205 1.554-.616.411-.42.616-.961.616-1.624 0-.644-.205-1.18-.616-1.61-.401-.42-.919-.63-1.554-.63-.634 0-1.152.21-1.554.63zm7.65 7.56h-1.12v-9.1h1.12v.742c.224-.261.532-.471.924-.63a3.062 3.062 0 011.218-.252c.896 0 1.601.299 2.114.896.532.588.798 1.353.798 2.296 0 .961-.303 1.769-.91 2.422-.597.644-1.386.966-2.366.966-.756 0-1.348-.145-1.778-.434V20.8zm1.82-8.19c-.746 0-1.353.29-1.82.868V16.6a2.98 2.98 0 001.68.49c.663 0 1.19-.21 1.582-.63.402-.43.602-.985.602-1.666 0-.663-.182-1.19-.546-1.582-.364-.401-.863-.602-1.498-.602zm6.105.21h-2.31V11.7h5.74v1.12h-2.31V18h-1.12v-5.18zm4.991.21l-.294-.896a3.941 3.941 0 012.1-.574c.849 0 1.465.21 1.848.63.382.42.574 1.069.574 1.946V18h-1.064v-.812c-.495.607-1.167.91-2.016.91-.579 0-1.046-.173-1.4-.518-.355-.355-.532-.83-.532-1.428 0-.616.219-1.101.658-1.456.438-.364 1.012-.546 1.722-.546.662 0 1.185.135 1.568.406 0-.71-.098-1.218-.294-1.526-.196-.308-.574-.462-1.134-.462-.57 0-1.148.154-1.736.462zm1.54 4.06c.625 0 1.166-.27 1.624-.812v-.798c-.392-.28-.864-.42-1.414-.42-.383 0-.705.093-.966.28-.252.177-.379.43-.379.756 0 .308.099.55.295.728.205.177.485.266.84.266zM26.768 30.31L23.128 35h-1.12v-6.3h1.12v4.69l3.64-4.69h1.12V35h-1.12v-4.69zm11.27 3.122l.35.882c-.606.55-1.395.826-2.365.826-1.027 0-1.844-.299-2.45-.896-.617-.597-.925-1.395-.925-2.394 0-.943.29-1.727.868-2.352.57-.625 1.363-.938 2.38-.938.84 0 1.536.27 2.087.812.56.532.84 1.223.84 2.072 0 .27-.024.523-.07.756h-4.845c.047.588.267 1.05.658 1.386.402.336.915.504 1.54.504.822 0 1.466-.22 1.932-.658zm-2.197-3.822c-.551 0-1.008.154-1.373.462-.354.308-.564.714-.63 1.218h3.822c-.027-.523-.205-.933-.531-1.232-.318-.299-.747-.448-1.288-.448zM41.462 35h-1.12v-6.3h3.99v1.05h-2.87V35zm4.251-.784c-.616-.635-.924-1.423-.924-2.366 0-.952.308-1.736.924-2.352.626-.625 1.438-.938 2.436-.938.999 0 1.806.313 2.422.938.626.616.938 1.4.938 2.352s-.313 1.74-.938 2.366c-.616.616-1.423.924-2.422.924-.99 0-1.801-.308-2.436-.924zm.882-3.976c-.41.41-.616.947-.616 1.61 0 .663.2 1.2.602 1.61.41.42.933.63 1.568.63s1.153-.205 1.554-.616c.41-.42.616-.961.616-1.624 0-.644-.205-1.18-.616-1.61-.401-.42-.92-.63-1.554-.63-.635 0-1.153.21-1.554.63zM57.39 35h-1.12v-6.3h1.022l2.422 3.122L62.01 28.7h.994V35h-1.12v-4.592L59.7 33.334h-.042l-2.268-2.926V35zm12.613-1.568l.35.882c-.606.55-1.395.826-2.366.826-1.026 0-1.843-.299-2.45-.896-.616-.597-.924-1.395-.924-2.394 0-.943.29-1.727.868-2.352.57-.625 1.363-.938 2.38-.938.84 0 1.536.27 2.086.812.56.532.84 1.223.84 2.072 0 .27-.023.523-.07.756h-4.844c.047.588.266 1.05.658 1.386.402.336.915.504 1.54.504.822 0 1.466-.22 1.932-.658zm-2.198-3.822c-.55 0-1.008.154-1.372.462-.354.308-.564.714-.63 1.218h3.822c-.028-.523-.205-.933-.532-1.232-.317-.299-.746-.448-1.288-.448zm9.264 3.668l.532.812c-.541.7-1.349 1.05-2.422 1.05-1.008 0-1.825-.299-2.45-.896-.616-.597-.924-1.395-.924-2.394 0-.924.303-1.703.91-2.338.606-.635 1.367-.952 2.282-.952 1.101 0 1.927.275 2.478.826l-.518.882c-.485-.439-1.087-.658-1.806-.658-.588 0-1.097.215-1.526.644-.42.42-.63.952-.63 1.596 0 .681.215 1.223.644 1.624.439.41.98.616 1.624.616.728 0 1.33-.27 1.806-.812zm3.422-3.458h-2.31V28.7h5.74v1.12h-2.31V35h-1.12v-5.18zm4.953 4.396c-.616-.635-.924-1.423-.924-2.366 0-.952.308-1.736.924-2.352.625-.625 1.437-.938 2.436-.938.998 0 1.806.313 2.422.938.625.616.938 1.4.938 2.352s-.313 1.74-.938 2.366c-.616.616-1.424.924-2.422.924-.99 0-1.802-.308-2.436-.924zm.882-3.976c-.411.41-.616.947-.616 1.61 0 .663.2 1.2.602 1.61.41.42.933.63 1.568.63.634 0 1.152-.205 1.554-.616.41-.42.616-.961.616-1.624 0-.644-.206-1.18-.616-1.61-.402-.42-.92-.63-1.554-.63-.635 0-1.153.21-1.554.63zM101.74 35h-1.12v-2.66h-3.5V35H96v-6.3h1.12v2.59h3.5V28.7h1.12V35zm2.362-4.97l-.294-.896a3.941 3.941 0 012.1-.574c.849 0 1.465.21 1.848.63.382.42.574 1.069.574 1.946V35h-1.064v-.812c-.495.607-1.167.91-2.016.91-.579 0-1.046-.173-1.4-.518-.355-.355-.532-.83-.532-1.428 0-.616.219-1.101.658-1.456.438-.364 1.012-.546 1.722-.546.662 0 1.185.135 1.568.406 0-.71-.098-1.218-.294-1.526-.196-.308-.574-.462-1.134-.462-.57 0-1.148.154-1.736.462zm1.54 4.06c.625 0 1.166-.27 1.624-.812v-.798c-.392-.28-.864-.42-1.414-.42-.383 0-.705.093-.966.28-.252.177-.378.43-.378.756 0 .308.098.55.294.728.205.177.485.266.84.266zm8.828.91h-1.12v-6.3h3.99v1.05h-2.87V35zm8.96 0h-1.12v-5.18h-2.212l-.07 1.064c-.074.868-.186 1.591-.336 2.17-.14.57-.326.999-.56 1.288-.224.28-.462.476-.714.588-.252.103-.56.154-.924.154l-.084-1.092c.103.01.21-.005.322-.042.112-.047.234-.14.364-.28.14-.14.262-.327.364-.56.112-.233.21-.56.294-.98a9.1 9.1 0 00.182-1.47l.112-1.96h4.382V35zm2.523-.784c-.616-.635-.924-1.423-.924-2.366 0-.952.308-1.736.924-2.352.626-.625 1.438-.938 2.436-.938.999 0 1.806.313 2.422.938.626.616.938 1.4.938 2.352s-.312 1.74-.938 2.366c-.616.616-1.423.924-2.422.924-.989 0-1.801-.308-2.436-.924zm.882-3.976c-.41.41-.616.947-.616 1.61 0 .663.201 1.2.602 1.61.411.42.934.63 1.568.63.635 0 1.153-.205 1.554-.616.411-.42.616-.961.616-1.624 0-.644-.205-1.18-.616-1.61-.401-.42-.919-.63-1.554-.63-.634 0-1.152.21-1.554.63zm11.402-5.18l.602.882a1.695 1.695 0 01-.812.63 6.388 6.388 0 01-1.176.28 4.826 4.826 0 00-1.218.35c-.952.439-1.484 1.451-1.596 3.038h.028c.206-.439.537-.793.994-1.064.467-.27.966-.406 1.498-.406.896 0 1.606.285 2.128.854.532.57.798 1.33.798 2.282 0 .896-.303 1.661-.91 2.296-.597.625-1.372.938-2.324.938-1.026 0-1.838-.35-2.436-1.05-.597-.69-.896-1.647-.896-2.87 0-2.725.78-4.42 2.338-5.082a4.929 4.929 0 011.232-.35c.364-.065.626-.117.784-.154.159-.037.327-.103.504-.196.187-.093.341-.22.462-.378zm-4.13 6.37c0 .803.196 1.447.588 1.932.392.485.901.728 1.526.728.607 0 1.102-.205 1.484-.616.392-.401.588-.905.588-1.512 0-.644-.182-1.162-.546-1.554-.354-.392-.844-.588-1.47-.588-.569 0-1.045.159-1.428.476-.401.327-.648.705-.742 1.134zm7.319-1.4l-.294-.896a3.941 3.941 0 012.1-.574c.849 0 1.465.21 1.848.63.383.42.574 1.069.574 1.946V35h-1.064v-.812c-.495.607-1.167.91-2.016.91-.579 0-1.045-.173-1.4-.518-.355-.355-.532-.83-.532-1.428 0-.616.219-1.101.658-1.456.439-.364 1.013-.546 1.722-.546.663 0 1.185.135 1.568.406 0-.71-.098-1.218-.294-1.526-.196-.308-.574-.462-1.134-.462-.569 0-1.148.154-1.736.462zm1.54 4.06c.625 0 1.167-.27 1.624-.812v-.798c-.392-.28-.863-.42-1.414-.42-.383 0-.705.093-.966.28-.252.177-.378.43-.378.756 0 .308.098.55.294.728.205.177.485.266.84.266zm9.995.91h-1.12v-5.18h-2.212l-.07 1.064c-.074.868-.186 1.591-.336 2.17-.14.57-.326.999-.56 1.288-.224.28-.462.476-.714.588-.252.103-.56.154-.924.154l-.084-1.092c.103.01.21-.005.322-.042.112-.047.234-.14.364-.28.14-.14.262-.327.364-.56.112-.233.21-.56.294-.98a9.1 9.1 0 00.182-1.47l.112-1.96h4.382V35zm4.148 0h-2.128v-6.3h1.12v1.89h1.148c.858 0 1.488.196 1.89.588.401.383.602.91.602 1.582 0 .635-.21 1.167-.63 1.596-.42.43-1.088.644-2.002.644zm-.07-3.36h-.938v2.31h.924c1.017 0 1.526-.383 1.526-1.148 0-.775-.504-1.162-1.512-1.162zm9.943 3.36h-1.12v-2.66h-3.5V35h-1.12v-6.3h1.12v2.59h3.5V28.7h1.12V35zm2.53-.784c-.616-.635-.924-1.423-.924-2.366 0-.952.308-1.736.924-2.352.625-.625 1.437-.938 2.436-.938.999 0 1.806.313 2.422.938.625.616.938 1.4.938 2.352s-.313 1.74-.938 2.366c-.616.616-1.423.924-2.422.924-.989 0-1.801-.308-2.436-.924zm.882-3.976c-.411.41-.616.947-.616 1.61 0 .663.201 1.2.602 1.61.411.42.933.63 1.568.63s1.153-.205 1.554-.616c.411-.42.616-.961.616-1.624 0-.644-.205-1.18-.616-1.61-.401-.42-.919-.63-1.554-.63s-1.153.21-1.554.63zm7.65 4.76h-1.12v-6.3h1.022l2.422 3.122 2.296-3.122h.994V35h-1.12v-4.592l-2.184 2.926h-.042l-2.268-2.926V35zm11.908 2.8h-1.12v-9.1h1.12v.742c.224-.261.532-.471.924-.63a3.062 3.062 0 011.218-.252c.896 0 1.601.299 2.114.896.532.588.798 1.353.798 2.296 0 .961-.303 1.769-.91 2.422-.597.644-1.386.966-2.366.966-.756 0-1.348-.145-1.778-.434V37.8zm1.82-8.19c-.746 0-1.353.29-1.82.868V33.6a2.98 2.98 0 001.68.49c.663 0 1.19-.21 1.582-.63.402-.43.602-.985.602-1.666 0-.663-.182-1.19-.546-1.582-.364-.401-.863-.602-1.498-.602zm6.87 5.39h-2.03v-6.3h1.12v1.89h1.036c.858 0 1.488.196 1.89.588.401.383.602.91.602 1.582 0 .635-.21 1.167-.63 1.596-.402.43-1.064.644-1.988.644zm4.942 0h-1.12v-6.3h1.12V35zm-5.026-3.36h-.826v2.31h.812c.532 0 .919-.093 1.162-.28.242-.187.364-.476.364-.868 0-.775-.504-1.162-1.512-1.162zM211.334 35h-1.12v-2.66h-3.5V35h-1.12v-6.3h1.12v2.59h3.5V28.7h1.12V35zm6.072-6.3h1.47l-2.758 3.01 3.024 3.29h-1.554l-2.842-3.22 2.66-3.08zM214.48 35h-1.12v-6.3h1.12V35zm10.48-1.568l.35.882c-.606.55-1.395.826-2.366.826-1.026 0-1.843-.299-2.45-.896-.616-.597-.924-1.395-.924-2.394 0-.943.29-1.727.868-2.352.57-.625 1.363-.938 2.38-.938.84 0 1.536.27 2.086.812.56.532.84 1.223.84 2.072 0 .27-.023.523-.07.756h-4.844c.047.588.266 1.05.658 1.386.402.336.915.504 1.54.504.822 0 1.466-.22 1.932-.658zm-2.198-3.822c-.55 0-1.008.154-1.372.462-.354.308-.564.714-.63 1.218h3.822c-.028-.523-.205-.933-.532-1.232-.317-.299-.746-.448-1.288-.448zm8.394-1.89c0-.43-.163-.793-.49-1.092-.317-.299-.723-.448-1.218-.448-.803 0-1.456.345-1.96 1.036l-.672-.742a2.77 2.77 0 011.12-1.022 3.285 3.285 0 011.582-.392c.868 0 1.559.233 2.072.7a2.21 2.21 0 01.77 1.722c0 .439-.075.826-.224 1.162a2.043 2.043 0 01-.294.518l-.168.196a1.878 1.878 0 01-.196.196c-.093.075-.159.13-.196.168a4.17 4.17 0 01-.21.182 6.866 6.866 0 01-.21.154 28.576 28.576 0 01-.462.378 5.034 5.034 0 01-.196.182 1.96 1.96 0 00-.196.196 2.417 2.417 0 00-.154.21 1.185 1.185 0 00-.126.238 6.153 6.153 0 01-.07.252 1.548 1.548 0 00-.028.308c.009.103.023.215.042.336l-1.008.014c-.168-.887.051-1.582.658-2.086.093-.075.247-.191.462-.35.224-.168.397-.303.518-.406.121-.112.257-.252.406-.42.159-.168.271-.35.336-.546.075-.196.112-.41.112-.644zm-2.772 6.524c0-.205.075-.378.224-.518a.794.794 0 01.588-.224.71.71 0 01.518.224c.149.15.224.322.224.518 0 .224-.07.415-.21.574a.697.697 0 01-.532.224.794.794 0 01-.588-.224.809.809 0 01-.224-.574z" fill="#fff"/><defs><linearGradient id="paint0_linear" x1="335" y1="82.133" x2="600.619" y2="-43.017" gradientUnits="userSpaceOnUse"><stop stop-color="#1B75BB"/><stop offset="1" stop-color="#289DDE"/></linearGradient></defs></svg>