<svg width="335" height="44" fill="none" xmlns="http://www.w3.org/2000/svg"><rect x="335" y="44" width="335" height="44" rx="5" transform="rotate(180 335 44)" fill="url(#paint0_linear)"/><path d="M10.483 13.128c.326 0 .606.117.84.35.242.233.364.513.364.84 0 .327-.122.607-.364.84-.234.233-.514.35-.84.35a1.13 1.13 0 01-.826-.35 1.146 1.146 0 01-.35-.84c0-.327.116-.607.35-.84a1.13 1.13 0 01.826-.35zM30.24 18h-1.19v-4.438h-5.39V18h-1.19V8.2h1.19v4.242h5.39V8.2h1.19V18zm2.81-4.97l-.295-.896a3.943 3.943 0 012.1-.574c.85 0 1.465.21 1.848.63.383.42.574 1.069.574 1.946V18h-1.064v-.812c-.495.607-1.167.91-2.016.91-.579 0-1.045-.173-1.4-.518-.355-.355-.532-.83-.532-1.428 0-.616.22-1.101.658-1.456.439-.364 1.013-.546 1.722-.546.663 0 1.185.135 1.568.406 0-.71-.098-1.218-.294-1.526-.196-.308-.574-.462-1.134-.462-.57 0-1.148.154-1.736.462zm1.54 4.06c.624 0 1.166-.27 1.623-.812v-.798c-.392-.28-.863-.42-1.414-.42-.383 0-.705.093-.966.28-.252.177-.378.43-.378.756 0 .308.098.55.294.728.205.177.485.266.84.266zm11.32-5.39h1.12V18h-1.12v-2.45c-.486.308-1.07.462-1.75.462-1.494 0-2.24-.803-2.24-2.408V11.7h1.19v1.778c0 .99.452 1.484 1.357 1.484.588 0 1.069-.13 1.442-.392V11.7zm8.111 4.732l.35.882c-.607.55-1.395.826-2.366.826-1.027 0-1.843-.299-2.45-.896-.616-.597-.924-1.395-.924-2.394 0-.943.29-1.727.868-2.352.57-.625 1.363-.938 2.38-.938.84 0 1.535.27 2.086.812.56.532.84 1.223.84 2.072 0 .27-.023.523-.07.756h-4.844c.047.588.266 1.05.658 1.386.401.336.915.504 1.54.504.821 0 1.465-.22 1.932-.658zm-2.198-3.822c-.55 0-1.008.154-1.372.462-.355.308-.565.714-.63 1.218h3.822c-.028-.523-.205-.933-.532-1.232-.317-.299-.747-.448-1.288-.448zM57.444 18h-1.12v-6.3h1.022l2.422 3.122 2.296-3.122h.994V18h-1.12v-4.592l-2.184 2.926h-.042l-2.268-2.926V18zm16.529 0h-1.12v-2.66h-3.5V18h-1.12v-6.3h1.12v2.59h3.5V11.7h1.12V18zm6.995-1.568l.35.882c-.606.55-1.395.826-2.366.826-1.026 0-1.843-.299-2.45-.896-.616-.597-.924-1.395-.924-2.394 0-.943.29-1.727.868-2.352.57-.625 1.363-.938 2.38-.938.84 0 1.536.27 2.086.812.56.532.84 1.223.84 2.072 0 .27-.023.523-.07.756h-4.844c.047.588.266 1.05.658 1.386.402.336.915.504 1.54.504.822 0 1.466-.22 1.932-.658zM78.77 12.61c-.55 0-1.008.154-1.372.462-.354.308-.564.714-.63 1.218h3.822c-.028-.523-.205-.933-.532-1.232-.317-.299-.746-.448-1.288-.448zm4.924 4.606c-.616-.635-.924-1.423-.924-2.366 0-.952.308-1.736.924-2.352.625-.625 1.437-.938 2.436-.938.998 0 1.806.313 2.422.938.625.616.938 1.4.938 2.352s-.313 1.74-.938 2.366c-.616.616-1.424.924-2.422.924-.99 0-1.802-.308-2.436-.924zm.882-3.976c-.411.41-.616.947-.616 1.61 0 .663.2 1.2.602 1.61.41.42.933.63 1.568.63.634 0 1.152-.205 1.554-.616.41-.42.616-.961.616-1.624 0-.644-.206-1.18-.616-1.61-.402-.42-.92-.63-1.554-.63-.635 0-1.153.21-1.554.63zm11.402-5.18l.602.882a1.698 1.698 0 01-.812.63 6.404 6.404 0 01-1.176.28 4.79 4.79 0 00-1.218.35c-.952.439-1.484 1.451-1.596 3.038h.028c.205-.439.536-.793.994-1.064.466-.27.966-.406 1.498-.406.896 0 1.605.285 2.128.854.532.57.798 1.33.798 2.282 0 .896-.304 1.661-.91 2.296-.598.625-1.372.938-2.324.938-1.027 0-1.839-.35-2.436-1.05-.598-.69-.896-1.647-.896-2.87 0-2.725.779-4.42 2.338-5.082a4.915 4.915 0 011.232-.35c.364-.065.625-.117.784-.154a2.15 2.15 0 00.504-.196c.186-.093.34-.22.462-.378zm-4.13 6.37c0 .803.196 1.447.588 1.932.392.485.9.728 1.526.728.606 0 1.101-.205 1.484-.616.392-.401.588-.905.588-1.512 0-.644-.182-1.162-.546-1.554-.355-.392-.845-.588-1.47-.588-.57 0-1.046.159-1.428.476-.402.327-.649.705-.742 1.134zm10.938-2.73h1.302l-2.254 3.038L104.228 18h-1.372l-1.848-2.548L99.132 18H97.83l2.38-3.206-2.24-3.094h1.373l1.707 2.38 1.736-2.38zm2.96 5.516c-.616-.635-.924-1.423-.924-2.366 0-.952.308-1.736.924-2.352.626-.625 1.438-.938 2.436-.938.999 0 1.806.313 2.422.938.626.616.938 1.4.938 2.352s-.312 1.74-.938 2.366c-.616.616-1.423.924-2.422.924-.989 0-1.801-.308-2.436-.924zm.882-3.976c-.41.41-.616.947-.616 1.61 0 .663.201 1.2.602 1.61.411.42.934.63 1.568.63.635 0 1.153-.205 1.554-.616.411-.42.616-.961.616-1.624 0-.644-.205-1.18-.616-1.61-.401-.42-.919-.63-1.554-.63-.634 0-1.152.21-1.554.63zm6.466 6.3h-1.05v-2.59h.784c.234-.29.439-.756.616-1.4.178-.653.294-1.381.35-2.184l.098-1.666h4.298v5.25h1.05v2.59h-1.05V18h-5.096v1.54zm1.848-6.79l-.07 1.05a9.64 9.64 0 01-.336 1.918c-.168.579-.34.99-.518 1.232h3.052v-4.2h-2.128zm10.277.56l-3.64 4.69h-1.12v-6.3h1.12v4.69l3.64-4.69h1.12V18h-1.12v-4.69zm4.276 4.69h-1.12v-6.3h1.022l2.422 3.122 2.296-3.122h.994V18h-1.12v-4.592l-2.184 2.926h-.042l-2.268-2.926V18zm8.148-.784c-.616-.635-.924-1.423-.924-2.366 0-.952.308-1.736.924-2.352.625-.625 1.437-.938 2.436-.938.999 0 1.806.313 2.422.938.625.616.938 1.4.938 2.352s-.313 1.74-.938 2.366c-.616.616-1.423.924-2.422.924-.989 0-1.801-.308-2.436-.924zm.882-3.976c-.411.41-.616.947-.616 1.61 0 .663.201 1.2.602 1.61.411.42.933.63 1.568.63s1.153-.205 1.554-.616c.411-.42.616-.961.616-1.624 0-.644-.205-1.18-.616-1.61-.401-.42-.919-.63-1.554-.63s-1.153.21-1.554.63zm14.518 3.038l.532.812c-.541.7-1.348 1.05-2.422 1.05-1.008 0-1.824-.299-2.45-.896-.616-.597-.924-1.395-.924-2.394 0-.924.304-1.703.91-2.338.607-.635 1.368-.952 2.282-.952 1.102 0 1.928.275 2.478.826l-.518.882c-.485-.439-1.087-.658-1.806-.658-.588 0-1.096.215-1.526.644-.42.42-.63.952-.63 1.596 0 .681.215 1.223.644 1.624.439.41.98.616 1.624.616.728 0 1.33-.27 1.806-.812zm5.921 4.522h-1.12v-2.66h-.154c-1.055 0-1.89-.308-2.506-.924-.607-.625-.91-1.414-.91-2.366 0-.905.308-1.68.924-2.324.616-.644 1.442-.966 2.478-.966h.168V8.2h1.12v3.36h.182c1.026 0 1.848.313 2.464.938.616.625.924 1.41.924 2.352 0 .98-.299 1.773-.896 2.38-.588.607-1.419.91-2.492.91h-.182v2.66zm-3.5-5.95c0 .681.2 1.227.602 1.638.41.401.966.602 1.666.602h.112v-4.48h-.182c-.682 0-1.218.21-1.61.63-.392.41-.588.947-.588 1.61zm3.682-2.24h-.182v4.48h.126c.709 0 1.26-.2 1.652-.602.401-.41.602-.957.602-1.638 0-.616-.196-1.143-.588-1.582-.392-.439-.929-.658-1.61-.658zm5.499 4.606c-.616-.635-.924-1.423-.924-2.366 0-.952.308-1.736.924-2.352.625-.625 1.437-.938 2.436-.938.998 0 1.806.313 2.422.938.625.616.938 1.4.938 2.352s-.313 1.74-.938 2.366c-.616.616-1.424.924-2.422.924-.99 0-1.802-.308-2.436-.924zm.882-3.976c-.411.41-.616.947-.616 1.61 0 .663.2 1.2.602 1.61.41.42.933.63 1.568.63.634 0 1.152-.205 1.554-.616.41-.42.616-.961.616-1.624 0-.644-.206-1.18-.616-1.61-.402-.42-.92-.63-1.554-.63-.635 0-1.153.21-1.554.63zm10.576-1.54h1.47l-2.758 3.01 3.024 3.29h-1.554l-2.842-3.22 2.66-3.08zm-2.926 6.3h-1.12v-6.3h1.12V18zm10.181-6.3h1.274l-2.52 6.3c-.457 1.11-.854 1.848-1.19 2.212-.354.392-.76.588-1.218.588-.41 0-.807-.13-1.19-.392l.364-.854c.299.14.532.21.7.21.262 0 .495-.112.7-.336.215-.224.43-.588.644-1.092l.14-.336-3.024-6.3h1.344l1.848 4.004c.038.065.164.383.378.952.084-.308.182-.63.294-.966l1.456-3.99zm7.023 4.578l.532.812c-.541.7-1.348 1.05-2.422 1.05-1.008 0-1.824-.299-2.45-.896-.616-.597-.924-1.395-.924-2.394 0-.924.304-1.703.91-2.338.607-.635 1.368-.952 2.282-.952 1.102 0 1.928.275 2.478.826l-.518.882c-.485-.439-1.087-.658-1.806-.658-.588 0-1.096.215-1.526.644-.42.42-.63.952-.63 1.596 0 .681.215 1.223.644 1.624.439.41.98.616 1.624.616.728 0 1.33-.27 1.806-.812zm6.752-2.968l-3.64 4.69h-1.12v-6.3h1.12v4.69l3.64-4.69h1.12V18h-1.12v-4.69zm4.276 7.49h-1.12v-9.1h1.12v.742c.224-.261.532-.471.924-.63a3.062 3.062 0 011.218-.252c.896 0 1.601.299 2.114.896.532.588.798 1.353.798 2.296 0 .961-.303 1.769-.91 2.422-.597.644-1.386.966-2.366.966-.756 0-1.348-.145-1.778-.434V20.8zm1.82-8.19c-.746 0-1.353.29-1.82.868V16.6a2.98 2.98 0 001.68.49c.663 0 1.19-.21 1.582-.63.402-.43.602-.985.602-1.666 0-.663-.182-1.19-.546-1.582-.364-.401-.863-.602-1.498-.602zm5.344 4.606c-.616-.635-.924-1.423-.924-2.366 0-.952.308-1.736.924-2.352.625-.625 1.437-.938 2.436-.938.998 0 1.806.313 2.422.938.625.616.938 1.4.938 2.352s-.313 1.74-.938 2.366c-.616.616-1.424.924-2.422.924-.99 0-1.802-.308-2.436-.924zm.882-3.976c-.411.41-.616.947-.616 1.61 0 .663.2 1.2.602 1.61.41.42.933.63 1.568.63.634 0 1.152-.205 1.554-.616.41-.42.616-.961.616-1.624 0-.644-.206-1.18-.616-1.61-.402-.42-.92-.63-1.554-.63-.635 0-1.153.21-1.554.63zm6.53 4.76v-6.3h.196a3.55 3.55 0 01.364-.014c.158-.01.303-.014.434-.014a68.31 68.31 0 011.288-.028c1.81 0 2.716.541 2.716 1.624 0 .373-.117.695-.35.966-.234.261-.537.42-.91.476v.028c.98.177 1.47.672 1.47 1.484 0 1.223-.966 1.834-2.898 1.834-.094 0-.504-.01-1.232-.028-.14 0-.294-.005-.462-.014a4.2 4.2 0 01-.392-.014h-.224zm2.464-2.828h-1.344v1.932c.672.028 1.101.042 1.288.042 1.073 0 1.61-.336 1.61-1.008 0-.644-.518-.966-1.554-.966zm-.098-2.618c-.271 0-.686.014-1.246.042v1.876h1.414c.382 0 .69-.089.924-.266a.852.852 0 00.35-.714c0-.625-.481-.938-1.442-.938zm4.888.476l-.294-.896a3.941 3.941 0 012.1-.574c.849 0 1.465.21 1.848.63.382.42.574 1.069.574 1.946V18h-1.064v-.812c-.495.607-1.167.91-2.016.91-.579 0-1.046-.173-1.4-.518-.355-.355-.532-.83-.532-1.428 0-.616.219-1.101.658-1.456.438-.364 1.012-.546 1.722-.546.662 0 1.185.135 1.568.406 0-.71-.098-1.218-.294-1.526-.196-.308-.574-.462-1.134-.462-.57 0-1.148.154-1.736.462zm1.54 4.06c.625 0 1.166-.27 1.624-.812v-.798c-.392-.28-.864-.42-1.414-.42-.383 0-.705.093-.966.28-.252.177-.378.43-.378.756 0 .308.098.55.294.728.205.177.485.266.84.266zm6.075-4.27h-2.31V11.7h5.74v1.12h-2.31V18h-1.12v-5.18zm6.782 5.18h-2.128v-6.3h1.12v1.89h1.148c.859 0 1.489.196 1.89.588.401.383.602.91.602 1.582 0 .635-.21 1.167-.63 1.596-.42.43-1.087.644-2.002.644zm-.07-3.36h-.938v2.31h.924c1.017 0 1.526-.383 1.526-1.148 0-.775-.504-1.162-1.512-1.162zm7.348 3.36v-6.3h.196a3.37 3.37 0 01.364-.014 7.5 7.5 0 01.434-.014c.691-.019 1.12-.028 1.288-.028 1.811 0 2.716.541 2.716 1.624 0 .373-.116.695-.35.966-.233.261-.536.42-.91.476v.028c.98.177 1.47.672 1.47 1.484 0 1.223-.966 1.834-2.898 1.834-.093 0-.504-.01-1.232-.028-.14 0-.294-.005-.462-.014-.168 0-.298-.005-.392-.014h-.224zm2.464-2.828h-1.344v1.932c.672.028 1.102.042 1.288.042 1.074 0 1.61-.336 1.61-1.008 0-.644-.518-.966-1.554-.966zm-.098-2.618c-.27 0-.686.014-1.246.042v1.876h1.414c.383 0 .691-.089.924-.266a.85.85 0 00.35-.714c0-.625-.48-.938-1.442-.938zM257.572 18h-1.12v-2.66h-3.5V18h-1.12v-6.3h1.12v2.59h3.5V11.7h1.12V18zm6.786-4.69l-3.64 4.69h-1.12v-6.3h1.12v4.69l3.64-4.69h1.12V18h-1.12v-4.69zm4.276 4.69h-1.12v-6.3h1.022l2.422 3.122 2.296-3.122h.994V18h-1.12v-4.592l-2.184 2.926h-.042l-2.268-2.926V18zm7.98-4.97l-.294-.896a3.941 3.941 0 012.1-.574c.849 0 1.465.21 1.848.63.382.42.574 1.069.574 1.946V18h-1.064v-.812c-.495.607-1.167.91-2.016.91-.579 0-1.046-.173-1.4-.518-.355-.355-.532-.83-.532-1.428 0-.616.219-1.101.658-1.456.438-.364 1.012-.546 1.722-.546.662 0 1.185.135 1.568.406 0-.71-.098-1.218-.294-1.526-.196-.308-.574-.462-1.134-.462-.57 0-1.148.154-1.736.462zm1.54 4.06c.625 0 1.166-.27 1.624-.812v-.798c-.392-.28-.864-.42-1.414-.42-.383 0-.705.093-.966.28-.252.177-.378.43-.378.756 0 .308.098.55.294.728.205.177.485.266.84.266zm10.303.91h-1.12v-2.66h-3.5V18h-1.12v-6.3h1.12v2.59h3.5V11.7h1.12V18zm6.786-4.69l-3.64 4.69h-1.12v-6.3h1.12v4.69l3.64-4.69h1.12V18h-1.12v-4.69zm8.126 3.122l.35.882c-.607.55-1.396.826-2.366.826-1.027 0-1.844-.299-2.45-.896-.616-.597-.924-1.395-.924-2.394 0-.943.289-1.727.868-2.352.569-.625 1.362-.938 2.38-.938.84 0 1.535.27 2.086.812.56.532.84 1.223.84 2.072 0 .27-.024.523-.07.756h-4.844c.046.588.266 1.05.658 1.386.401.336.914.504 1.54.504.821 0 1.465-.22 1.932-.658zm-2.198-3.822c-.551 0-1.008.154-1.372.462-.355.308-.565.714-.63 1.218h3.822c-.028-.523-.206-.933-.532-1.232-.318-.299-.747-.448-1.288-.448zm4.249 4.746c0-.224.07-.401.21-.532.14-.14.336-.21.588-.21.299 0 .541.126.728.378.187.243.28.57.28.98 0 .504-.14.938-.42 1.302-.271.373-.644.63-1.12.77l-.308-.532c.485-.15.784-.462.896-.938.065-.317.061-.55-.014-.7-.056.084-.159.126-.308.126a.505.505 0 01-.378-.182.724.724 0 01-.154-.462zM22.344 30.03l-.294-.896a3.943 3.943 0 012.1-.574c.85 0 1.465.21 1.848.63.383.42.574 1.069.574 1.946V35h-1.064v-.812c-.495.607-1.167.91-2.016.91-.579 0-1.045-.173-1.4-.518-.355-.355-.532-.83-.532-1.428 0-.616.22-1.101.658-1.456.439-.364 1.013-.546 1.722-.546.663 0 1.185.135 1.568.406 0-.71-.098-1.218-.294-1.526-.196-.308-.574-.462-1.134-.462-.57 0-1.148.154-1.736.462zm1.54 4.06c.625 0 1.167-.27 1.624-.812v-.798c-.392-.28-.863-.42-1.414-.42-.383 0-.705.093-.966.28-.252.177-.378.43-.378.756 0 .308.098.55.294.728.205.177.485.266.84.266zm11.754-5.39h1.47l-2.758 3.01L37.374 35H35.82l-2.842-3.22 2.66-3.08zM32.712 35h-1.12v-6.3h1.12V35zm6.189-4.97l-.294-.896a3.943 3.943 0 012.1-.574c.849 0 1.465.21 1.848.63.382.42.574 1.069.574 1.946V35h-1.064v-.812c-.495.607-1.167.91-2.016.91-.579 0-1.046-.173-1.4-.518-.355-.355-.532-.83-.532-1.428 0-.616.219-1.101.658-1.456.438-.364 1.012-.546 1.722-.546.662 0 1.185.135 1.568.406 0-.71-.098-1.218-.294-1.526-.196-.308-.574-.462-1.134-.462-.57 0-1.148.154-1.736.462zm1.54 4.06c.625 0 1.166-.27 1.624-.812v-.798c-.392-.28-.864-.42-1.414-.42-.383 0-.705.093-.966.28-.252.177-.378.43-.378.756 0 .308.098.55.294.728.205.177.485.266.84.266zm8.61-5.39h1.47l-2.759 3.01L50.786 35h-1.554l-2.842-3.22 2.66-3.08zM46.123 35h-1.12v-6.3h1.12V35zm10.613-4.69L53.097 35h-1.12v-6.3h1.12v4.69l3.64-4.69h1.12V35h-1.12v-4.69zM61.013 35h-1.12v-6.3h1.022l2.422 3.122 2.296-3.122h.994V35h-1.12v-4.592l-2.184 2.926h-.042l-2.268-2.926V35zm12.403-4.69L69.776 35h-1.12v-6.3h1.12v4.69l3.64-4.69h1.12V35h-1.12v-4.69zm10.571 7.49h-1.12v-2.66h-.154c-1.055 0-1.89-.308-2.506-.924-.607-.625-.91-1.414-.91-2.366 0-.905.308-1.68.924-2.324.616-.644 1.442-.966 2.478-.966h.168V25.2h1.12v3.36h.182c1.027 0 1.848.313 2.464.938.616.625.924 1.41.924 2.352 0 .98-.299 1.773-.896 2.38-.588.607-1.419.91-2.492.91h-.182v2.66zm-3.5-5.95c0 .681.2 1.227.602 1.638.41.401.966.602 1.666.602h.112v-4.48h-.182c-.681 0-1.218.21-1.61.63-.392.41-.588.947-.588 1.61zm3.682-2.24h-.182v4.48h.126c.71 0 1.26-.2 1.652-.602.401-.41.602-.957.602-1.638 0-.616-.196-1.143-.588-1.582-.392-.439-.929-.658-1.61-.658zm5.331.42l-.294-.896a3.943 3.943 0 012.1-.574c.85 0 1.466.21 1.848.63.383.42.574 1.069.574 1.946V35h-1.064v-.812c-.494.607-1.166.91-2.016.91-.578 0-1.045-.173-1.4-.518-.354-.355-.532-.83-.532-1.428 0-.616.22-1.101.658-1.456.439-.364 1.013-.546 1.722-.546.663 0 1.186.135 1.568.406 0-.71-.098-1.218-.294-1.526-.196-.308-.574-.462-1.134-.462-.57 0-1.148.154-1.736.462zm1.54 4.06c.626 0 1.167-.27 1.624-.812v-.798c-.392-.28-.863-.42-1.414-.42-.382 0-.704.093-.966.28-.252.177-.378.43-.378.756 0 .308.098.55.294.728.206.177.486.266.84.266zm8.61-5.39h1.47l-2.758 3.01 3.024 3.29h-1.554l-2.842-3.22 2.66-3.08zM96.724 35h-1.12v-6.3h1.12V35zm7.364-5.18h-2.31V28.7h5.74v1.12h-2.31V35h-1.12v-5.18zm4.953 4.396c-.616-.635-.924-1.423-.924-2.366 0-.952.308-1.736.924-2.352.626-.625 1.438-.938 2.436-.938.999 0 1.806.313 2.422.938.626.616.938 1.4.938 2.352s-.312 1.74-.938 2.366c-.616.616-1.423.924-2.422.924-.989 0-1.801-.308-2.436-.924zm.882-3.976c-.41.41-.616.947-.616 1.61 0 .663.201 1.2.602 1.61.411.42.934.63 1.568.63.635 0 1.153-.205 1.554-.616.411-.42.616-.961.616-1.624 0-.644-.205-1.18-.616-1.61-.401-.42-.919-.63-1.554-.63-.634 0-1.152.21-1.554.63zm7.65 7.56h-1.12v-9.1h1.12v.742c.224-.261.532-.471.924-.63a3.062 3.062 0 011.218-.252c.896 0 1.601.299 2.114.896.532.588.798 1.353.798 2.296 0 .961-.303 1.769-.91 2.422-.597.644-1.386.966-2.366.966-.756 0-1.348-.145-1.778-.434V37.8zm1.82-8.19c-.746 0-1.353.29-1.82.868V33.6a2.98 2.98 0 001.68.49c.663 0 1.19-.21 1.582-.63.402-.43.602-.985.602-1.666 0-.663-.182-1.19-.546-1.582-.364-.401-.863-.602-1.498-.602zm5.176.42l-.294-.896a3.941 3.941 0 012.1-.574c.849 0 1.465.21 1.848.63.382.42.574 1.069.574 1.946V35h-1.064v-.812c-.495.607-1.167.91-2.016.91-.579 0-1.046-.173-1.4-.518-.355-.355-.532-.83-.532-1.428 0-.616.219-1.101.658-1.456.438-.364 1.012-.546 1.722-.546.662 0 1.185.135 1.568.406 0-.71-.098-1.218-.294-1.526-.196-.308-.574-.462-1.134-.462-.57 0-1.148.154-1.736.462zm1.54 4.06c.625 0 1.166-.27 1.624-.812v-.798c-.392-.28-.864-.42-1.414-.42-.383 0-.705.093-.966.28-.252.177-.378.43-.378.756 0 .308.098.55.294.728.205.177.485.266.84.266zm5.683.91h-1.12v-6.3h1.022l2.422 3.122 2.296-3.122h.994V35h-1.12v-4.592l-2.184 2.926h-.042l-2.268-2.926V35zm12.404-4.69l-3.64 4.69h-1.12v-6.3h1.12v4.69l3.64-4.69h1.12V35h-1.12v-4.69zm7.42 4.69h-1.12v-6.3h1.022l2.422 3.122 2.296-3.122h.994V35h-1.12v-4.592l-2.184 2.926h-.042l-2.268-2.926V35zm8.148-.784c-.616-.635-.924-1.423-.924-2.366 0-.952.308-1.736.924-2.352.625-.625 1.437-.938 2.436-.938.999 0 1.806.313 2.422.938.625.616.938 1.4.938 2.352s-.313 1.74-.938 2.366c-.616.616-1.423.924-2.422.924-.989 0-1.801-.308-2.436-.924zm.882-3.976c-.411.41-.616.947-.616 1.61 0 .663.201 1.2.602 1.61.411.42.933.63 1.568.63s1.153-.205 1.554-.616c.411-.42.616-.961.616-1.624 0-.644-.205-1.18-.616-1.61-.401-.42-.919-.63-1.554-.63s-1.153.21-1.554.63zm12.922-1.54h1.386l-2.282 3.038 2.45 3.262h-1.386l-2.338-3.262 2.17-3.038zm-2.45 6.3h-1.12v-6.3h1.12V35zm-5.082 0l2.408-3.262-2.282-3.038h1.4l2.156 3.038-2.31 3.262h-1.372zm16.04 0h-1.12v-2.66h-3.5V35h-1.12v-6.3h1.12v2.59h3.5V28.7h1.12V35zm2.53-.784c-.616-.635-.924-1.423-.924-2.366 0-.952.308-1.736.924-2.352.625-.625 1.437-.938 2.436-.938.998 0 1.806.313 2.422.938.625.616.938 1.4.938 2.352s-.313 1.74-.938 2.366c-.616.616-1.424.924-2.422.924-.99 0-1.802-.308-2.436-.924zm.882-3.976c-.411.41-.616.947-.616 1.61 0 .663.2 1.2.602 1.61.41.42.933.63 1.568.63.634 0 1.152-.205 1.554-.616.41-.42.616-.961.616-1.624 0-.644-.206-1.18-.616-1.61-.402-.42-.92-.63-1.554-.63-.635 0-1.153.21-1.554.63zM200.832 35h-1.12v-5.25h-3.43V35h-1.12v-6.3h5.67V35zm3.148 2.8h-1.12v-9.1h1.12v.742c.224-.261.532-.471.924-.63a3.062 3.062 0 011.218-.252c.896 0 1.6.299 2.114.896.532.588.798 1.353.798 2.296 0 .961-.304 1.769-.91 2.422-.598.644-1.386.966-2.366.966-.756 0-1.349-.145-1.778-.434V37.8zm1.82-8.19c-.747 0-1.354.29-1.82.868V33.6c.494.327 1.054.49 1.68.49.662 0 1.19-.21 1.582-.63.401-.43.602-.985.602-1.666 0-.663-.182-1.19-.546-1.582-.364-.401-.864-.602-1.498-.602zm9.809 3.822l.35.882c-.607.55-1.395.826-2.366.826-1.027 0-1.843-.299-2.45-.896-.616-.597-.924-1.395-.924-2.394 0-.943.289-1.727.868-2.352.569-.625 1.363-.938 2.38-.938.84 0 1.535.27 2.086.812.56.532.84 1.223.84 2.072 0 .27-.023.523-.07.756h-4.844c.047.588.266 1.05.658 1.386.401.336.915.504 1.54.504.821 0 1.465-.22 1.932-.658zm-2.198-3.822c-.551 0-1.008.154-1.372.462-.355.308-.565.714-.63 1.218h3.822c-.028-.523-.205-.933-.532-1.232-.317-.299-.747-.448-1.288-.448zM223.652 35h-1.12v-2.66h-3.5V35h-1.12v-6.3h1.12v2.59h3.5V28.7h1.12V35zm6.996-1.568l.35.882c-.607.55-1.395.826-2.366.826-1.027 0-1.843-.299-2.45-.896-.616-.597-.924-1.395-.924-2.394 0-.943.289-1.727.868-2.352.569-.625 1.363-.938 2.38-.938.84 0 1.535.27 2.086.812.56.532.84 1.223.84 2.072 0 .27-.023.523-.07.756h-4.844c.047.588.266 1.05.658 1.386.401.336.915.504 1.54.504.821 0 1.465-.22 1.932-.658zm-2.198-3.822c-.551 0-1.008.154-1.372.462-.355.308-.565.714-.63 1.218h3.822c-.028-.523-.205-.933-.532-1.232-.317-.299-.747-.448-1.288-.448zm9.373-4.55l.602.882a1.695 1.695 0 01-.812.63 6.388 6.388 0 01-1.176.28 4.826 4.826 0 00-1.218.35c-.952.439-1.484 1.451-1.596 3.038h.028c.206-.439.537-.793.994-1.064.467-.27.966-.406 1.498-.406.896 0 1.606.285 2.128.854.532.57.798 1.33.798 2.282 0 .896-.303 1.661-.91 2.296-.597.625-1.372.938-2.324.938-1.026 0-1.838-.35-2.436-1.05-.597-.69-.896-1.647-.896-2.87 0-2.725.78-4.42 2.338-5.082a4.929 4.929 0 011.232-.35c.364-.065.626-.117.784-.154.159-.037.327-.103.504-.196.187-.093.341-.22.462-.378zm-4.13 6.37c0 .803.196 1.447.588 1.932.392.485.901.728 1.526.728.607 0 1.102-.205 1.484-.616.392-.401.588-.905.588-1.512 0-.644-.182-1.162-.546-1.554-.354-.392-.844-.588-1.47-.588-.569 0-1.045.159-1.428.476-.401.327-.648.705-.742 1.134zm8.103 6.37h-1.12v-9.1h1.12v.742c.224-.261.532-.471.924-.63a3.062 3.062 0 011.218-.252c.896 0 1.601.299 2.114.896.532.588.798 1.353.798 2.296 0 .961-.303 1.769-.91 2.422-.597.644-1.386.966-2.366.966-.756 0-1.349-.145-1.778-.434V37.8zm1.82-8.19c-.747 0-1.353.29-1.82.868V33.6a2.98 2.98 0 001.68.49c.663 0 1.19-.21 1.582-.63.401-.43.602-.985.602-1.666 0-.663-.182-1.19-.546-1.582-.364-.401-.863-.602-1.498-.602zm9.809 3.822l.35.882c-.606.55-1.395.826-2.366.826-1.026 0-1.843-.299-2.45-.896-.616-.597-.924-1.395-.924-2.394 0-.943.29-1.727.868-2.352.57-.625 1.363-.938 2.38-.938.84 0 1.536.27 2.086.812.56.532.84 1.223.84 2.072 0 .27-.023.523-.07.756h-4.844c.047.588.266 1.05.658 1.386.402.336.915.504 1.54.504.822 0 1.466-.22 1.932-.658zm-2.198-3.822c-.55 0-1.008.154-1.372.462-.354.308-.564.714-.63 1.218h3.822c-.028-.523-.205-.933-.532-1.232-.317-.299-.746-.448-1.288-.448zm8.114-.91h1.12V35h-1.12v-2.45c-.486.308-1.069.462-1.75.462-1.494 0-2.24-.803-2.24-2.408V28.7h1.19v1.778c0 .99.452 1.484 1.358 1.484.588 0 1.068-.13 1.442-.392V28.7zm5.27 6.3h-2.128v-6.3h1.12v1.89h1.148c.858 0 1.488.196 1.89.588.401.383.602.91.602 1.582 0 .635-.21 1.167-.63 1.596-.42.43-1.088.644-2.002.644zm-.07-3.36h-.938v2.31h.924c1.017 0 1.526-.383 1.526-1.148 0-.775-.504-1.162-1.512-1.162zm8.095-3.92c0-.43-.163-.793-.49-1.092-.317-.299-.723-.448-1.218-.448-.802 0-1.456.345-1.96 1.036l-.672-.742a2.77 2.77 0 011.12-1.022 3.288 3.288 0 011.582-.392c.868 0 1.559.233 2.072.7.514.457.77 1.031.77 1.722 0 .439-.074.826-.224 1.162a2.22 2.22 0 01-.126.266 1.84 1.84 0 01-.168.252l-.168.196a1.781 1.781 0 01-.196.196 2.78 2.78 0 00-.196.168 4.17 4.17 0 01-.21.182 6.866 6.866 0 01-.21.154 28.576 28.576 0 01-.462.378 4.39 4.39 0 01-.196.182 1.96 1.96 0 00-.196.196 2.645 2.645 0 00-.154.21 1.185 1.185 0 00-.126.238 4.88 4.88 0 01-.07.252 1.626 1.626 0 00-.028.308c.01.103.024.215.042.336l-1.008.014c-.168-.887.052-1.582.658-2.086.094-.075.248-.191.462-.35.224-.168.397-.303.518-.406a5.8 5.8 0 00.406-.42c.159-.168.271-.35.336-.546.075-.196.112-.41.112-.644zm-2.772 6.524c0-.205.075-.378.224-.518a.797.797 0 01.588-.224.71.71 0 01.518.224.71.71 0 01.224.518c0 .224-.07.415-.21.574a.697.697 0 01-.532.224.797.797 0 01-.588-.224.809.809 0 01-.224-.574z" fill="#fff"/><defs><linearGradient id="paint0_linear" x1="335" y1="82.133" x2="600.619" y2="-43.017" gradientUnits="userSpaceOnUse"><stop stop-color="#1B75BB"/><stop offset="1" stop-color="#289DDE"/></linearGradient></defs></svg>