<svg width="260" height="52" fill="none" xmlns="http://www.w3.org/2000/svg"><path d="M197.19 6.752c.107 1.277 1.207 2.14 3.013 2.14 1.657 0 2.892-.863 2.942-2.14h-1.735c-.064.649-.528.87-1.207.87-.678 0-1.156-.285-1.278-.87h-1.735zm-.043 13.096l5.527-7.482v7.475h1.857V9.306h-1.628l-5.534 7.496V9.306h-1.85V19.84l1.628.007zm-11.939 0l5.534-7.482v7.475h1.849V9.306h-1.62l-5.534 7.496V9.306h-1.85V19.84l1.621.007zm-11.754 0h1.857v-5.442l4.284 5.435h2.357l-4.613-5.628 4.341-4.907h-2.235l-4.155 4.993V9.306h-1.857l.021 10.542zm-2.542-2.397a4.128 4.128 0 01-2.506.842 3.511 3.511 0 01-3.424-2.268 3.506 3.506 0 01-.218-1.434c0-2.282 1.478-3.702 3.435-3.702a3.976 3.976 0 012.378.713l.835-1.37a4.844 4.844 0 00-3.213-1.062c-3.478 0-5.398 2.404-5.398 5.428a5.131 5.131 0 001.501 3.935 5.157 5.157 0 003.94 1.5 4.843 4.843 0 003.377-1.19l-.707-1.392zm-17.587-10.7c.107 1.278 1.207 2.14 3.013 2.14 1.657 0 2.856-.862 2.942-2.139h-1.735c-.057.649-.528.87-1.207.87-.678 0-1.157-.285-1.278-.87h-1.735zm-.043 13.097l5.527-7.482v7.475h1.856V9.306h-1.628l-5.527 7.496V9.306h-1.856V19.84l1.628.007zm-11.932 0l5.527-7.482v7.475h1.849V9.306h-1.628l-5.512 7.496V9.306h-1.85V19.84l1.614.007zm-4.177-2.397a4.112 4.112 0 01-2.5.842 3.506 3.506 0 01-3.649-3.695c0-2.282 1.479-3.702 3.435-3.702a4.015 4.015 0 012.385.713l.828-1.37a4.828 4.828 0 00-3.213-1.062c-3.477 0-5.391 2.404-5.391 5.428a5.137 5.137 0 003.309 5.109 5.15 5.15 0 002.132.327 4.826 4.826 0 003.371-1.192l-.707-1.398zm-9.869 0a4.109 4.109 0 01-2.499.842 3.506 3.506 0 01-3.649-3.695c0-2.282 1.478-3.702 3.435-3.702a3.975 3.975 0 012.378.713l.835-1.37a4.844 4.844 0 00-3.213-1.062c-3.478 0-5.392 2.404-5.392 5.428a5.145 5.145 0 005.435 5.436 4.843 4.843 0 003.384-1.227l-.714-1.363zm-18.487-2.853a3.555 3.555 0 01.826-2.855 3.565 3.565 0 012.705-1.239 3.576 3.576 0 012.705 1.239 3.573 3.573 0 01.826 2.855c0 2.083-1.321 3.702-3.57 3.702a3.57 3.57 0 01-3.492-3.702zm-1.964 0a5.225 5.225 0 003.342 5.06c.673.26 1.393.378 2.114.347a5.32 5.32 0 005.534-5.407 5.229 5.229 0 00-1.555-3.956 5.24 5.24 0 00-3.979-1.5 5.303 5.303 0 00-5.087 3.343 5.283 5.283 0 00-.369 2.113zm-5.255-3.566c1.264 0 1.942.542 1.942 1.64 0 1.099-.857 1.705-1.957 1.705a11.789 11.789 0 01-1.314-.078v-3.267c.5 0 .95-.036 1.329-.036v.036zm-1.329 8.802v-3.81c.45.043 1.057.043 1.371.043 2.521 0 3.856-1.626 3.856-3.416s-.978-3.381-4.077-3.381H98.42v10.57l1.849-.006zm6.913 15.115c0-3.282-2.2-5.421-5.299-5.421a5.644 5.644 0 00-3.634 1.162l.714 1.384a4.118 4.118 0 012.471-.813c1.992 0 3.434.977 3.798 2.739h-4.698v1.733h4.741a3.435 3.435 0 01-3.641 2.932 4.473 4.473 0 01-2.714-.92l-.8 1.555a5.718 5.718 0 003.571 1.098c3.377 0 5.512-2.14 5.512-5.45h-.021zm10.675 5.278l-4.634-5.657 4.341-4.907h-2.227l-4.164 4.993v-4.993h-1.849v10.535h1.849V34.77l4.285 5.428 2.399.029zm2.792-5.264c0-2.29 1.471-3.702 3.435-3.702a4.01 4.01 0 012.378.713l.842-1.377a4.772 4.772 0 00-3.206-1.07c-3.485 0-5.398 2.411-5.398 5.436a5.137 5.137 0 003.309 5.108 5.15 5.15 0 002.132.327 4.883 4.883 0 003.378-1.191l-.715-1.384a4.128 4.128 0 01-2.506.842 3.503 3.503 0 01-3.426-2.267 3.495 3.495 0 01-.216-1.435h-.007zm15.224 5.264h1.857V29.692h-8.412v10.535h1.857v-8.802h4.698v8.802zm13.018-5.264c0 2.075-1.321 3.702-3.571 3.702a3.577 3.577 0 01-2.541-1.11 3.565 3.565 0 01-.979-2.592 3.555 3.555 0 01.826-2.856 3.567 3.567 0 012.705-1.238 3.574 3.574 0 013.43 2.576c.143.493.177 1.01.101 1.518h.029zm1.935 0a5.245 5.245 0 00-5.506-5.435 5.31 5.31 0 00-5.104 3.323 5.301 5.301 0 00-.38 2.112 5.245 5.245 0 00.358 2.124 5.234 5.234 0 005.126 3.31 5.324 5.324 0 005.12-3.32 5.317 5.317 0 00.386-2.114zm7.262-1.926c0 1.17-.864 1.697-1.964 1.697-.421 0-.871 0-1.307-.07v-3.24h1.321c1.271 0 1.95.543 1.95 1.641v-.028zm1.956.028c0-1.733-.978-3.388-4.084-3.388h-2.999v10.535h1.856v-3.787c.45.043 1.05.043 1.371.043 2.514 0 3.856-1.627 3.856-3.417v.014zm6.106-1.64h3.42v-1.733h-8.669v1.733h3.421v8.802h1.856l-.028-8.802zm11.703 8.802h1.843V29.692h-1.843v4.28h-4.82v-4.28h-1.856v10.535h1.856v-4.494h4.82v4.494zm9.69-3.567c0 1.234-.714 1.855-2.078 1.855-.364 0-.664 0-.992-.043V35.02a9.98 9.98 0 011.021-.072c1.299 0 2.049.585 2.049 1.712zm1.964-.042c0-2.062-1.257-3.403-3.863-3.403a8.65 8.65 0 00-1.171.079v-3.602h-1.857v10.535h2.621c2.699 0 4.284-1.427 4.284-3.63l-.014.02zm1.385 3.545h1.835V29.692h-1.835v10.47zm12.382-13.09h-1.706c-.058.643-.522.87-1.2.87-.678 0-1.164-.284-1.285-.87h-1.728c.099 1.277 1.199 2.14 3.013 2.14 1.657 0 2.892-.855 2.935-2.14h-.029zm-.435 13.09h1.849V29.692h-1.628l-5.527 7.496v-7.497h-1.857v10.536h1.607l5.534-7.475.022 7.41zm17.416 1.947h1.728V38.5h-1.428v-8.808h-1.85V38.5h-4.627v-8.81h-1.849v10.543h8.033l-.007 1.876zm3.57-1.876h6.248v-1.733h-4.398v-2.725h3.798v-1.733h-3.798v-2.618h4.248v-1.733h-6.098v10.542zm15.338 0h1.836V29.691h-1.836v4.28h-4.82v-4.28h-1.856v10.543h1.856v-4.5h4.82v4.5zm8.726-8.81h3.421v-1.732h-8.698v1.733h3.421v8.809h1.856v-8.81zm10.154 1.613c0 1.17-.856 1.697-1.956 1.697-.429 0-.878 0-1.314-.07v-3.24h1.328c1.264 0 1.942.543 1.942 1.641v-.028zm1.957.028c0-1.733-.978-3.388-4.085-3.388h-2.999V40.22h1.857v-3.795c.45.043 1.057.043 1.371.043 2.513 0 3.856-1.627 3.856-3.417" fill="#fff"/><path d="M42.13.554l-5.02 1.868-.892-1.876 5.913.008z" fill="#1B75BB"/><path d="M36.21.546l.9 1.876-4.298 1.591L36.21.546z" fill="#EC1C24"/><path d="M57.347.988l4.12 5.764-15.466-1.398L57.347.988zM82.718.553l-6.14 2.418L73.284.553h9.433zm-49.906 9.745l-4.899 5.856-6.126-.656 11.025-5.2z" fill="#1B75BB"/><path d="M27.913 16.146l-6.126 7.218v-7.867l6.126.649zM82.81.553l-2.499 5.15-3.734-2.732L82.718.553h.093z" fill="#EC1C24"/><path d="M9.69 28.044l-.507 5.863L.02 38.864l9.669-10.82z" fill="#1B75BB"/><path d="M9.183 33.907l-.686 6.634L0 38.886l9.183-4.979z" fill="#EC1C24"/><path d="M64.716 12.065l8.67 10.522-14.44-1.527 5.77-8.995z" fill="#1B75BB"/><path d="M73.385 22.587l-21.05 8.767 6.612-10.293 14.438 1.526zM42.052 35.142l-20.344 8.516V30.541l20.344 4.6z" fill="#EC1C24"/><path d="M66.951 38.992l-5.948 12.155-3.163-8.389 9.111-3.766z" fill="#1B75BB"/><path d="M57.84 42.76l3.163 8.388-15.352-3.117 12.189-5.272z" fill="#EC1C24"/><path d="M35.868 17.273l11.96-4.665 3.285 6.22-15.245-1.555z" fill="#1B75BB"/><path d="M35.868 17.273l15.245 1.555-13.353 5.379-1.892-6.934z" fill="#EC1C24"/></svg>