<svg width="401" height="46" fill="none" xmlns="http://www.w3.org/2000/svg"><g opacity=".85"><path d="M42.141.006l-5.02 1.7L36.226 0l5.914.006z" fill="#1B75BB"/><path d="M36.22 0l.899 1.705-4.3 1.446L36.22 0z" fill="#EC1C24"/><path d="M57.36.402l4.122 5.24-15.47-1.271L57.36.402zM82.738.006l-6.143 2.199L73.303.006h9.435zM32.819 8.864l-4.9 5.324-6.128-.597 11.028-4.727z" fill="#1B75BB"/><path d="M27.92 14.181l-6.129 6.562v-7.152l6.128.59zM82.829.006l-2.5 4.682-3.735-2.483L82.736.006h.093z" fill="#EC1C24"/><path d="M9.692 24.997l-.507 5.33-9.164 4.507 9.671-9.837z" fill="#1B75BB"/><path d="M9.185 30.327l-.686 6.03L0 34.854l9.185-4.526z" fill="#EC1C24"/><path d="M64.732 10.472l8.67 9.565-14.441-1.388 5.771-8.177z" fill="#1B75BB"/><path d="M73.4 20.037l-21.055 7.969 6.614-9.357L73.4 20.037zM42.064 31.45l-20.348 7.742V27.267l20.348 4.183z" fill="#EC1C24"/><path d="M66.968 34.95L61.018 46l-3.163-7.626 9.113-3.423z" fill="#1B75BB"/><path d="M57.853 38.374L61.017 46l-15.356-2.834 12.192-4.792z" fill="#EC1C24"/><path d="M35.877 15.206l11.963-4.241 3.286 5.654-15.249-1.413z" fill="#1B75BB"/><path d="M35.877 15.206l15.249 1.413-13.356 4.89-1.893-6.303z" fill="#EC1C24"/><path d="M98.189 36.083h6.366V34.49h-4.464v-2.514h3.856v-1.594h-3.856v-2.418h4.308V26.37h-6.182v9.714h-.028zm17.224-9.714h-2.221l-2.582 3.51-2.631-3.51h-2.2l3.579 4.758-3.742 4.956h2.193l2.751-3.651 2.766 3.651h2.2l-3.713-4.976 3.6-4.757v.019zm3.657 9.714v-3.51c.453.039 1.068.039 1.415.039 2.554 0 3.912-1.498 3.912-3.15 0-1.653-.998-3.125-4.138-3.125-.75 0-2.448.032-3.042.032v9.714h1.853zm1.344-8.145c1.281 0 1.967.495 1.967 1.51 0 1.016-.87 1.57-1.988 1.57a13.247 13.247 0 01-1.323-.072v-2.983h1.344v-.025zm5.327 3.285a4.41 4.41 0 00.358 1.964 4.806 4.806 0 001.2 1.666c.523.473 1.15.841 1.839 1.082.689.24 1.425.348 2.163.315a5.866 5.866 0 002.15-.331 5.457 5.457 0 001.829-1.08 4.89 4.89 0 001.208-1.652 4.5 4.5 0 00.387-1.951 4.452 4.452 0 00-.37-1.96 4.823 4.823 0 00-1.206-1.658 5.4 5.4 0 00-1.839-1.077 5.799 5.799 0 00-2.159-.313 5.862 5.862 0 00-2.146.333 5.446 5.446 0 00-1.824 1.08 4.872 4.872 0 00-1.204 1.648 4.482 4.482 0 00-.386 1.947v-.013zm1.987 0a3 3 0 01.226-1.291c.17-.412.431-.789.766-1.107a3.609 3.609 0 011.182-.744 3.9 3.9 0 012.818 0c.446.173.848.426 1.183.744.335.318.595.695.766 1.107.17.412.247.851.225 1.29 0 1.93-1.344 3.421-3.593 3.421a3.928 3.928 0 01-1.395-.283 3.643 3.643 0 01-1.165-.752 3.26 3.26 0 01-.753-1.103 3.011 3.011 0 01-.224-1.282h-.036zm13.193 4.86v-3.639h1.316l2.949 3.64h2.278l-3.346-3.967a3.075 3.075 0 001.533-1.08c.371-.5.555-1.096.526-1.698 0-1.678-.962-3.002-3.877-3.002l-3.254.032v9.714h1.875zm1.273-8.145c1.528 0 1.988.643 1.988 1.414 0 .997-.962 1.498-2.051 1.498h-1.21v-2.887h1.287l-.014-.025zm5.56 0h3.466v8.145h1.882v-8.12h3.466V26.37h-8.8v1.594l-.014-.025zm21.108 5.902a4.436 4.436 0 01-2.532.777 3.86 3.86 0 01-1.459-.217 3.593 3.593 0 01-1.234-.74 3.203 3.203 0 01-.793-1.133 2.962 2.962 0 01-.214-1.33c0-2.108 1.5-3.414 3.481-3.414.859-.026 1.704.2 2.412.643l.842-1.285a5.2 5.2 0 00-3.254-.984c-3.537 0-5.468 2.218-5.468 5.008a4.342 4.342 0 00.331 1.965 4.717 4.717 0 001.189 1.668 5.3 5.3 0 001.836 1.08 5.704 5.704 0 002.161.302c1.252.043 2.474-.35 3.417-1.1l-.708-1.285-.007.044zm2.582 2.218h6.367v-1.57h-4.492v-2.513h3.855v-1.594h-3.855v-2.418h4.308V26.37h-6.183v9.714-.025zm17.918 0v-9.689h-1.761v6.757l-5.865-6.757h-1.499v9.714h1.761v-6.73l5.878 6.73 1.486-.025zm1.641-8.095h3.466v8.12h1.882v-8.12h3.466V26.37h-8.814v1.594zm10.448 8.12h6.366V34.49h-4.463v-2.514h3.848v-1.594h-3.848v-2.418h4.308V26.37h-6.183v9.714h-.028zm10.66 0v-3.639h1.316l2.943 3.64h2.277l-3.346-3.967a3.085 3.085 0 001.536-1.08 2.64 2.64 0 00.53-1.698c0-1.678-.962-3.002-3.884-3.002l-3.253.032v9.714h1.881zm1.28-8.145c1.528 0 1.988.643 1.988 1.414 0 .997-.962 1.498-2.044 1.498h-1.224v-2.887h1.28v-.025zM100.062 17.24v-3.633h1.316l2.95 3.632h2.277l-3.317-3.966a3.075 3.075 0 001.534-1.08c.371-.5.554-1.095.524-1.698 0-1.678-.962-3.002-3.876-3.002l-3.254.032v9.714h1.846zm1.287-8.146c1.528 0 1.981.643 1.981 1.414 0 1.003-.962 1.498-2.044 1.498h-1.224V9.12h1.287v-.026zm15.563-1.569h-1.868v5.343c0 1.89-.764 2.931-2.384 2.931-1.846 0-2.666-1.221-2.666-3.04V7.524h-1.882v5.58c0 2.849 1.896 4.276 4.548 4.276 2.25 0 4.245-1.209 4.245-4.179V7.525h.007zm7.116 7.136c0 .733-.672 1.138-1.556 1.138a3.481 3.481 0 01-1.367-.298 3.186 3.186 0 01-1.095-.801l-1.068 1.17c.516.984 2.122 1.524 3.494 1.524 2.002 0 3.58-1.112 3.58-2.745 0-3.215-4.846-2.572-4.846-4.61 0-.643.566-1.074 1.5-1.074.345-.002.687.061 1.004.186.317.125.601.31.835.54l1.004-1.285a4.196 4.196 0 00-1.409-.807 4.504 4.504 0 00-1.646-.235c-2.073 0-3.332 1.222-3.332 2.681 0 3.163 4.845 2.694 4.845 4.61l.057.006zm8.446 0c0 .733-.672 1.138-1.556 1.138a3.481 3.481 0 01-1.367-.298 3.186 3.186 0 01-1.095-.801l-1.118 1.17c.517.984 2.123 1.524 3.495 1.524 2.002 0 3.579-1.112 3.579-2.745 0-3.215-4.845-2.572-4.845-4.61 0-.643.566-1.074 1.499-1.074.361-.014.721.043 1.055.169.333.125.633.316.876.558l1.005-1.286a4.201 4.201 0 00-1.41-.807 4.498 4.498 0 00-1.646-.235c-2.073 0-3.325 1.222-3.325 2.681 0 3.163 4.839 2.694 4.839 4.61l.014.006zm4.386 2.572h1.874V7.525h-1.874v9.714-.006zm3.692 0h1.896l1.118-2.482h4.562l1.118 2.482h2.002l-4.52-9.746h-1.705l-4.52 9.746h.049zm5.305-7.535l1.557 3.453h-3.134l1.577-3.453zm16.129 7.535V7.525h-1.762v6.757l-5.878-6.757h-1.542v9.714h1.754v-6.705l5.878 6.731 1.55-.032z" fill="#fff"/></g><path d="M286.824 16.356h-5.778V7.769h5.642v1.84h-3.467v1.509h3.059v1.84h-3.059v1.558h3.603v1.84zm7.303-8.587h2.555l-3.045 4.207 3.168 4.38h-2.556l-2.039-2.883-2.012 2.883h-2.556l3.168-4.38-3.019-4.207h2.556l1.931 2.76 1.849-2.76zm6.21 8.587h-2.175V7.769h2.175v8.587zm3.553 0h-2.189l3.956-8.587h1.944l3.956 8.587h-2.324l-.789-1.804h-3.766l-.788 1.804zm3.739-3.644l-1.061-2.428-1.074 2.428h2.135zm7.322.638v3.006h-2.175V7.769c.516 0 1.087-.004 1.713-.012.625-.009 1.132-.013 1.522-.013 2.347 0 3.521.916 3.521 2.748 0 1.178-.535 2.004-1.604 2.478l2.773 3.386h-2.637l-2.311-3.006h-.802zm.951-3.766a2.44 2.44 0 00-.122.013c-.072 0-.186.004-.34.012h-.489v1.901h.788c.988 0 1.482-.33 1.482-.993 0-.622-.44-.933-1.319-.933zm-30.28 25.171h-4.701V27.6h4.588v1.175h-3.195v1.78h2.855v1.175h-2.855v1.85h3.308v1.175zm6.449-7.155h1.631l-2.674 3.506 2.776 3.65h-1.631l-2.051-2.689-2.039 2.688h-1.631l2.775-3.649-2.651-3.506h1.632l1.948 2.586 1.915-2.586zm4.508 7.155h-1.393V27.6h1.393v7.155zm3.758 0h-1.394V27.6h1.405l2.707 3.343 2.583-3.343h1.315v7.155h-1.383v-5.172l-2.503 3.18h-.204l-2.526-3.15v5.142zm8.818-.01V27.62a55.106 55.106 0 012.288-.05c.876 0 1.529.156 1.96.47.43.313.646.746.646 1.298 0 .77-.378 1.312-1.133 1.625v.02c.43.103.77.297 1.019.583.25.28.374.64.374 1.084 0 .695-.264 1.226-.793 1.594-.528.368-1.246.552-2.152.552a38.26 38.26 0 01-2.209-.05zm2.379-3.066h-.986v1.89c.355.035.661.052.918.052.966 0 1.45-.344 1.45-1.033 0-.3-.121-.524-.363-.674-.241-.157-.581-.235-1.019-.235zm-.114-2.934c-.332 0-.623.01-.872.03v1.81h.94c.355 0 .639-.082.85-.245.219-.164.329-.4.329-.706 0-.286-.11-.504-.329-.654-.219-.157-.525-.235-.918-.235zm5.112 6.01h-1.405l3.353-7.176h1.224l3.353 7.176h-1.484l-.827-1.83h-3.387l-.827 1.83zm3.682-3.005l-1.156-2.545-1.167 2.545h2.323zm10.806-4.15v7.155h-1.111l-4.361-4.957v4.957h-1.303V27.6h1.11l4.362 4.978V27.6h1.303zm3.591 7.155h-1.394V27.6h1.394v3.394l3.127-3.394h1.676l-3.262 3.332 3.466 3.823h-1.767l-3.24-3.69v3.69zm8.03-3.577c0-1.043.385-1.919 1.155-2.627.786-.71 1.775-1.063 2.968-1.063 1.194 0 2.179.34 2.957 1.022.786.688 1.178 1.577 1.178 2.668 0 1.07-.392 1.952-1.178 2.647-.785.695-1.771 1.043-2.957 1.043-1.193 0-2.179-.34-2.957-1.022-.777-.682-1.166-1.571-1.166-2.668zm1.472 0c0 .722.253 1.322.759 1.799.506.477 1.137.715 1.892.715.816 0 1.462-.238 1.938-.715.483-.477.725-1.077.725-1.8 0-.728-.257-1.331-.771-1.809-.513-.47-1.144-.705-1.892-.705-.762 0-1.397.235-1.903.705-.498.47-.748 1.074-.748 1.81zm9.792 3.577h-1.393V27.6h4.531v1.175h-3.138V30.8h2.799v1.176h-2.799v2.78zm8.486-2.678v2.678h-1.394V27.6c.393 0 .82-.003 1.281-.01.46-.007.838-.01 1.132-.01 1.919 0 2.878.736 2.878 2.208 0 .545-.155.994-.464 1.349-.31.34-.665.572-1.065.695l2.481 2.923h-1.688l-2.187-2.678h-.974zm.952-3.322c-.038 0-.099.004-.182.01-.083 0-.2.004-.351.01h-.419v2.127h.906c.446 0 .808-.099 1.088-.297a.93.93 0 00.43-.807c0-.695-.491-1.043-1.472-1.043zm10.141-1.155h1.382v4.191c0 1.03-.298 1.8-.895 2.31-.604.511-1.355.767-2.254.767-1.02 0-1.839-.27-2.459-.808-.611-.538-.917-1.318-.917-2.34V27.6h1.393v3.854c0 .709.166 1.26.499 1.656.34.388.834.582 1.484.582 1.178 0 1.767-.718 1.767-2.157V27.6zm6.661 5.254a.747.747 0 00-.272-.572 1.891 1.891 0 00-.657-.41 48.25 48.25 0 01-.872-.367c-.31-.143-.597-.29-.861-.44a2.06 2.06 0 01-.668-.644 1.78 1.78 0 01-.261-.96c0-.553.223-1.02.668-1.401.461-.382 1.062-.572 1.802-.572 1.004 0 1.759.255 2.265.766l-.747.94a2.053 2.053 0 00-1.405-.53c-.34 0-.612.07-.816.214a.674.674 0 00-.294.572c0 .123.026.239.079.348.053.102.11.187.17.255.068.069.174.143.317.225a11 11 0 00.351.184 67.886 67.886 0 01.873.348c.332.136.623.28.872.43.28.149.502.364.668.643.174.28.261.6.261.961 0 .6-.253 1.087-.759 1.462s-1.137.562-1.892.562a4.41 4.41 0 01-1.575-.297c-.498-.204-.838-.48-1.019-.828l.793-.858c.211.252.483.45.815.593.34.143.676.214 1.009.214.347 0 .627-.075.838-.224a.711.711 0 00.317-.614zm6.262 0a.747.747 0 00-.272-.572 1.891 1.891 0 00-.657-.41 48.25 48.25 0 01-.872-.367c-.31-.143-.597-.29-.861-.44a2.073 2.073 0 01-.669-.644 1.79 1.79 0 01-.26-.96c0-.553.223-1.02.668-1.401.461-.382 1.061-.572 1.802-.572 1.004 0 1.759.255 2.265.766l-.747.94a2.055 2.055 0 00-1.405-.53c-.34 0-.612.07-.816.214a.674.674 0 00-.294.572c0 .123.026.239.079.348.053.102.109.187.17.255.068.069.174.143.317.225a11 11 0 00.351.184 67.886 67.886 0 01.873.348c.332.136.623.28.872.43.279.149.502.364.668.643.174.28.261.6.261.961 0 .6-.253 1.087-.759 1.462s-1.137.562-1.892.562a4.41 4.41 0 01-1.575-.297c-.498-.204-.838-.48-1.019-.828l.793-.858c.211.252.483.45.815.593.34.143.676.214 1.009.214.347 0 .626-.075.838-.224a.713.713 0 00.317-.614zm4.642 1.901h-1.393V27.6h1.393v7.155zm2.749 0h-1.405l3.354-7.176h1.223l3.354 7.176h-1.484l-.827-1.83h-3.388l-.827 1.83zm3.682-3.005l-1.155-2.545-1.167 2.545h2.322z" fill="#fff"/><path d="M271.786 7.312l-12.279 4.341-6.571-4.341h18.85z" fill="#C64A5F"/><path d="M271.977 7.312l-5.01 9.25-7.459-4.909 12.278-4.341h.191z" fill="#004F87"/><path d="M271.786 26.832l-12.279 4.335-6.571-4.335h18.85z" fill="#0054A5"/><path d="M271.977 26.832l-5.01 9.25-7.459-4.915 12.278-4.335h.191z" fill="#0090D0"/><path d="M238.15 40.18h-.497V21.739l-3.13-2.314V.74h.504v18.474l3.123 2.314v18.653z" fill="#fff"/></svg>