<svg width="156" height="32" fill="none" xmlns="http://www.w3.org/2000/svg"><path d="M108.454 5.413c.059.702.664 1.177 1.658 1.177.911 0 1.59-.475 1.618-1.177h-.955c-.035.357-.29.479-.663.479-.373 0-.637-.157-.703-.479h-.955zm-.023 7.203l3.04-4.116v4.112h1.021V6.817h-.896l-3.043 4.124V6.817h-1.018v5.795l.896.004zm-6.567 0l3.044-4.116v4.112h1.017V6.817h-.891l-3.044 4.124V6.817h-1.017v5.795l.891.004zm-6.464 0h1.02V9.622l2.357 2.99h1.296l-2.537-3.095 2.388-2.7h-1.23L96.41 9.564V6.817h-1.021l.012 5.799zm-1.398-1.318c-.397.3-.881.463-1.379.463a1.932 1.932 0 01-1.883-1.248 1.925 1.925 0 01-.12-.789c0-1.255.813-2.036 1.89-2.036.466-.012.924.126 1.307.393l.46-.754a2.67 2.67 0 00-1.768-.584c-1.912 0-2.969 1.322-2.969 2.985a2.829 2.829 0 001.821 2.809 2.84 2.84 0 001.172.18 2.665 2.665 0 001.857-.654l-.388-.765zm-9.673-5.885c.058.702.663 1.177 1.657 1.177.911 0 1.57-.475 1.618-1.177h-.954c-.032.357-.291.479-.664.479-.373 0-.636-.157-.703-.479h-.954zm-.024 7.203l3.04-4.116v4.112h1.02V6.817h-.895l-3.04 4.124V6.817h-1.02v5.795l.895.004zm-6.563 0l3.04-4.116v4.112H81.8V6.817h-.895l-3.032 4.124V6.817h-1.017v5.795l.887.004zm-2.297-1.318a2.26 2.26 0 01-1.375.463 1.931 1.931 0 01-1.885-1.244 1.923 1.923 0 01-.122-.789c0-1.255.813-2.036 1.89-2.036.467-.011.926.126 1.311.393l.456-.754a2.657 2.657 0 00-1.768-.584c-1.912 0-2.965 1.322-2.965 2.985a2.826 2.826 0 001.82 2.81c.374.142.774.203 1.173.18a2.653 2.653 0 001.854-.655l-.39-.77zm-5.428 0a2.26 2.26 0 01-1.374.463 1.93 1.93 0 01-2.007-2.033c0-1.255.813-2.036 1.889-2.036.466-.012.925.126 1.307.393l.46-.754a2.67 2.67 0 00-1.767-.584c-1.913 0-2.966 1.322-2.966 2.985a2.826 2.826 0 001.818 2.809c.373.142.773.204 1.171.18a2.66 2.66 0 001.862-.674l-.393-.75zM59.85 9.728a1.96 1.96 0 011.942-2.251 1.966 1.966 0 011.887 1.417c.078.27.097.555.055.834 0 1.146-.726 2.037-1.963 2.037a1.966 1.966 0 01-1.92-2.037zm-1.08 0a2.873 2.873 0 001.838 2.783c.37.143.766.208 1.163.191a2.93 2.93 0 002.825-1.811c.151-.369.226-.764.218-1.163a2.875 2.875 0 00-1.861-2.82 2.886 2.886 0 00-1.182-.18 2.917 2.917 0 00-2.798 1.838c-.146.37-.215.765-.203 1.162zm-2.89-1.961c.695 0 1.068.298 1.068.902 0 .604-.472.938-1.076.938a6.711 6.711 0 01-.723-.043V7.767c.275 0 .522-.02.73-.02v.02zm-.731 4.841v-2.095c.247.024.581.024.754.024 1.386 0 2.12-.895 2.12-1.88 0-.984-.537-1.86-2.242-1.86h-1.65v5.815l1.018-.004zm3.801 8.313c0-1.805-1.21-2.982-2.914-2.982a3.107 3.107 0 00-1.999.64l.393.761c.392-.292.87-.449 1.359-.447 1.095 0 1.889.537 2.089 1.506h-2.584v.954h2.608a1.886 1.886 0 01-2.003 1.612 2.46 2.46 0 01-1.493-.506l-.44.855c.569.416 1.26.628 1.964.604 1.858 0 3.032-1.177 3.032-2.997h-.012zm5.872 2.903l-2.55-3.11 2.389-2.7h-1.226l-2.29 2.746v-2.746h-1.017v5.794h1.018v-2.985l2.356 2.985 1.32.016zm1.535-2.895c0-1.26.81-2.036 1.89-2.036a2.2 2.2 0 011.307.392l.463-.757a2.625 2.625 0 00-1.763-.588c-1.916 0-2.969 1.325-2.969 2.989a2.826 2.826 0 001.82 2.81 2.86 2.86 0 001.173.18c.68.024 1.344-.21 1.857-.656l-.392-.761a2.275 2.275 0 01-1.379.463 1.928 1.928 0 01-1.884-1.247 1.921 1.921 0 01-.119-.79h-.004zm8.373 2.895h1.021V18.03h-4.626v5.794h1.021v-4.841h2.584v4.841zm7.16-2.895c0 1.142-.727 2.036-1.964 2.036a1.966 1.966 0 01-1.81-1.269 1.96 1.96 0 01-.126-.767 1.96 1.96 0 011.942-2.252 1.965 1.965 0 011.942 2.252h.016zm1.064 0a2.882 2.882 0 00-3.028-2.99 2.922 2.922 0 00-2.807 1.828c-.148.37-.22.765-.209 1.162a2.871 2.871 0 001.845 2.802 2.87 2.87 0 001.171.187 2.93 2.93 0 002.816-1.826c.15-.37.222-.765.212-1.163zm3.995-1.06c0 .644-.476.934-1.08.934-.232 0-.48 0-.72-.039v-1.781h.727c.7 0 1.072.298 1.072.902v-.015zm1.076.016c0-.953-.538-1.863-2.247-1.863h-1.65v5.794h1.022v-2.083c.247.024.577.024.754.024 1.382 0 2.12-.895 2.12-1.88v.008zm3.357-.902h1.882v-.953h-4.768v.953h1.881v4.841h1.021l-.016-4.841zm6.438 4.841h1.013V18.03H97.82v2.354h-2.651V18.03h-1.022v5.794h1.021v-2.471h2.651v2.471zm5.329-1.961c0 .678-.393 1.02-1.143 1.02-.2 0-.365 0-.546-.024V20.96c.232-.023.393-.039.562-.039.715 0 1.127.322 1.127.942zm1.08-.024c0-1.134-.691-1.871-2.125-1.871-.215 0-.43.014-.644.043V18.03h-1.021v5.794h1.441c1.485 0 2.357-.785 2.357-1.997l-.008.012zm.762 1.95H106v-5.76h-1.009v5.76zm6.81-7.2h-.939c-.031.354-.286.48-.66.48-.373 0-.64-.157-.706-.48h-.951c.055.703.66 1.178 1.657 1.178.912 0 1.591-.47 1.615-1.177h-.016zm-.24 7.2h1.018v-5.76h-.896l-3.04 4.124V18.03h-1.021v5.794h.884l3.044-4.111.011 4.076zm9.579 1.071h.95v-1.985h-.785V18.03h-1.017v4.845h-2.545V18.03h-1.017v5.798h4.418l-.004 1.032zm1.964-1.032h3.436v-.953h-2.419v-1.499h2.089v-.953h-2.089v-1.44h2.337v-.953h-3.354v5.798zm8.436 0h1.009V18.03h-1.009v2.354h-2.651V18.03h-1.021v5.798h1.021v-2.476h2.651v2.476zm4.799-4.845h1.881v-.953h-4.783v.953h1.881v4.845h1.021v-4.845zm5.585.887c0 .643-.472.933-1.076.933-.236 0-.483 0-.723-.039v-1.781h.73c.696 0 1.069.298 1.069.902v-.015zm1.076.015c0-.953-.538-1.863-2.247-1.863h-1.649v5.798h1.021v-2.087c.247.024.581.024.754.024 1.382 0 2.121-.895 2.121-1.88" fill="#002E5E"/><path d="M23.172 2.004L20.41 3.032 19.92 2l3.252.004z" fill="#1B75BB"/><path d="M19.916 2l.495 1.032-2.365.875L19.916 2z" fill="#EC1C24"/><path d="M31.54 2.243l2.267 3.17-8.507-.769 6.24-2.401zm13.955-.239l-3.377 1.33-1.81-1.33h5.187zM18.046 7.363l-2.694 3.22-3.37-.36 6.064-2.86z" fill="#1B75BB"/><path d="M15.352 10.58l-3.37 3.97v-4.327l3.37.357zm30.194-8.576L44.17 4.836l-2.054-1.502 3.378-1.33h.05z" fill="#EC1C24"/><path d="M5.33 17.123l-.28 3.225-5.038 2.727 5.317-5.952z" fill="#1B75BB"/><path d="M5.05 20.348l-.376 3.649L0 23.087l5.05-2.739z" fill="#EC1C24"/><path d="M35.594 8.336l4.768 5.786-7.942-.84 3.174-4.946z" fill="#1B75BB"/><path d="M40.362 14.122l-11.578 4.822 3.636-5.661 7.942.84zm-17.233 6.905l-11.19 4.684v-7.215l11.19 2.53z" fill="#EC1C24"/><path d="M36.823 23.145l-3.271 6.685-1.74-4.613 5.011-2.072z" fill="#1B75BB"/><path d="M31.812 25.217l1.74 4.613-8.444-1.714 6.704-2.9z" fill="#EC1C24"/><path d="M19.727 11.2l6.578-2.566 1.807 3.42-8.385-.855z" fill="#1B75BB"/><path d="M19.727 11.2l8.385.855-7.344 2.958-1.04-3.813z" fill="#EC1C24"/></svg>