<svg width="354" height="45" fill="none" xmlns="http://www.w3.org/2000/svg"><g opacity=".85"><path d="M37.198.006l-4.432 1.662L31.978 0l5.22.006z" fill="#1B75BB"/><path d="M31.97 0l.795 1.668-3.795 1.415 3-3.083z" fill="#EC1C24"/><path d="M50.633.393l3.638 5.126-13.656-1.244L50.633.393zM73.032.006l-5.421 2.15-2.907-2.15h8.328zM28.969 8.671l-4.325 5.208-5.41-.583L28.97 8.67z" fill="#1B75BB"/><path d="M24.644 13.873l-5.41 6.42v-6.997l5.41.577zM73.113.006l-2.206 4.58-3.298-2.43 5.422-2.15h.082z" fill="#EC1C24"/><path d="M8.554 24.454l-.448 5.214-8.088 4.409 8.536-9.623z" fill="#1B75BB"/><path d="M8.108 29.668l-.606 5.9L0 34.096l8.108-4.428z" fill="#EC1C24"/><path d="M57.139 10.245l7.654 9.356-12.748-1.357 5.094-8z" fill="#1B75BB"/><path d="M64.791 19.6l-18.586 7.797 5.838-9.154 12.748 1.358zM37.13 30.765L19.168 38.34V26.674l17.962 4.091z" fill="#EC1C24"/><path d="M59.113 34.19L53.861 45l-2.793-7.46 8.045-3.35z" fill="#1B75BB"/><path d="M51.068 37.54L53.86 45l-13.555-2.772 10.762-4.688z" fill="#EC1C24"/><path d="M31.668 14.875l10.56-4.149 2.9 5.532-13.46-1.383z" fill="#1B75BB"/><path d="M31.668 14.875l13.46 1.383-11.79 4.783-1.67-6.166z" fill="#EC1C24"/><path d="M86.67 35.299h5.62v-1.56h-3.94V31.28h3.404v-1.56H88.35v-2.365h3.803v-1.56h-5.457V35.3h-.025zm15.205-9.503h-1.96l-2.28 3.434-2.322-3.434H93.37l3.16 4.654-3.304 4.849h1.936l2.429-3.572 2.441 3.572h1.942l-3.278-4.868 3.178-4.654v.019zm3.228 9.503v-3.434c.4.038.943.038 1.249.038 2.254 0 3.453-1.466 3.453-3.082 0-1.617-.88-3.057-3.653-3.057-.662 0-2.16.032-2.685.032v9.503h1.636zm1.187-7.969c1.13 0 1.735.485 1.735 1.478 0 .994-.768 1.535-1.754 1.535a10.61 10.61 0 01-1.168-.07v-2.918h1.187v-.025zm4.701 3.214a4.722 4.722 0 001.376 3.55 4.674 4.674 0 003.532 1.368 4.742 4.742 0 003.513-1.381 4.788 4.788 0 001.407-3.524 4.735 4.735 0 00-1.391-3.539 4.682 4.682 0 00-3.529-1.36 4.715 4.715 0 00-3.504 1.381 4.773 4.773 0 00-1.063 1.613 4.827 4.827 0 00-.341 1.905v-.013zm1.755 0a3.216 3.216 0 01.875-2.346 3.152 3.152 0 014.575 0 3.195 3.195 0 01.875 2.346c0 1.887-1.186 3.346-3.172 3.346a3.174 3.174 0 01-2.259-1.012 3.211 3.211 0 01-.665-1.08 3.248 3.248 0 01-.198-1.254h-.031zm11.645 4.755v-3.56h1.161l2.604 3.56h2.011l-2.954-3.88a2.736 2.736 0 001.353-1.058c.327-.489.49-1.07.464-1.66 0-1.641-.849-2.937-3.422-2.937l-2.872.032v9.503h1.655zm1.124-7.969c1.349 0 1.754.63 1.754 1.384 0 .975-.849 1.465-1.81 1.465h-1.068v-2.824h1.136l-.012-.025zm4.908 0h3.059v7.97h1.661v-7.944h3.06v-1.56h-7.768v1.56l-.012-.025zm18.632 5.774a3.657 3.657 0 01-2.236.76 3.096 3.096 0 01-2.376-.936 3.147 3.147 0 01-.889-2.41c0-2.062 1.323-3.339 3.072-3.339a3.523 3.523 0 012.129.63l.743-1.259a4.282 4.282 0 00-2.872-.962c-3.122 0-4.827 2.17-4.827 4.9a4.674 4.674 0 00.293 1.921 4.644 4.644 0 001.049 1.633 4.58 4.58 0 003.528 1.351 4.308 4.308 0 003.016-1.075l-.624-1.258-.006.044zm2.279 2.17h5.619v-1.535h-3.965V31.28h3.403v-1.56h-3.403v-2.365h3.803v-1.56h-5.457V35.3v-.025zm15.816 0v-9.478h-1.555v6.61l-5.176-6.61h-1.324v9.503h1.555v-6.585l5.189 6.585 1.311-.025zm1.448-7.919h3.06V35.3h1.661v-7.944h3.059v-1.56h-7.78v1.56zm9.223 7.944h5.619v-1.56h-3.94V31.28h3.397v-1.56H179.5v-2.365h3.803v-1.56h-5.457V35.3h-.025zm9.409 0v-3.56h1.162l2.597 3.56H193l-2.953-3.88a2.743 2.743 0 001.355-1.057 2.779 2.779 0 00.468-1.66c0-1.642-.849-2.938-3.428-2.938l-2.872.032v9.503h1.66zm1.131-7.969c1.348 0 1.754.63 1.754 1.384 0 .975-.849 1.465-1.804 1.465h-1.081v-2.824h1.131v-.025zM88.326 16.865V13.31h1.161l2.604 3.554h2.01l-2.928-3.88a2.731 2.731 0 001.355-1.057 2.76 2.76 0 00.462-1.66c0-1.642-.849-2.938-3.421-2.938l-2.873.032v9.503h1.63zm1.136-7.969c1.35 0 1.749.63 1.749 1.384 0 .981-.85 1.465-1.805 1.465h-1.08V8.921h1.136v-.025zM103.2 7.362h-1.648v5.226c0 1.85-.675 2.868-2.105 2.868-1.63 0-2.353-1.195-2.353-2.975v-5.12h-1.661v5.46c0 2.786 1.673 4.182 4.014 4.182 1.986 0 3.747-1.182 3.747-4.088V7.362h.006zm6.282 6.98c0 .718-.594 1.114-1.374 1.114a2.838 2.838 0 01-2.173-1.075l-.943 1.144c.456.963 1.873 1.49 3.085 1.49 1.767 0 3.159-1.087 3.159-2.685 0-3.144-4.277-2.515-4.277-4.51 0-.628.5-1.05 1.324-1.05a2.16 2.16 0 011.623.711l.887-1.258a3.636 3.636 0 00-2.698-1.018c-1.829 0-2.94 1.194-2.94 2.622 0 3.095 4.277 2.635 4.277 4.51l.05.006zm7.455 0c0 .718-.593 1.114-1.374 1.114a2.819 2.819 0 01-2.173-1.075l-.986 1.144c.456.963 1.873 1.49 3.084 1.49 1.767 0 3.16-1.087 3.16-2.685 0-3.144-4.277-2.515-4.277-4.51 0-.628.499-1.05 1.323-1.05a2.164 2.164 0 011.705.711l.887-1.258a3.636 3.636 0 00-2.698-1.018c-1.829 0-2.934 1.194-2.934 2.622 0 3.095 4.27 2.635 4.27 4.51l.013.006zm3.871 2.517h1.655V7.362h-1.655v9.503-.006zm3.26 0h1.673l.987-2.428h4.027l.986 2.428h1.768l-3.99-9.535h-1.505l-3.99 9.535h.044zm4.683-7.371l1.373 3.377h-2.766l1.393-3.377zm14.236 7.37V7.363h-1.555v6.61l-5.189-6.61h-1.361v9.503h1.549v-6.56l5.188 6.585 1.368-.031z" fill="#002E5E"/></g><path d="M253.18 16h-5.1V7.6h4.98v1.8H250v1.476h2.7v1.8H250V14.2h3.18V16zm6.446-8.4h2.256l-2.688 4.116L261.99 16h-2.256l-1.8-2.82-1.776 2.82h-2.256l2.796-4.284-2.664-4.116h2.256l1.704 2.7 1.632-2.7zm5.482 8.4h-1.92V7.6h1.92V16zm3.137 0h-1.932l3.492-8.4h1.716l3.492 8.4h-2.052l-.696-1.764h-3.324L268.245 16zm3.3-3.564l-.936-2.376-.948 2.376h1.884zm6.463.624V16h-1.92V7.6c.456 0 .96-.004 1.512-.012s1-.012 1.344-.012c2.072 0 3.108.896 3.108 2.688 0 1.152-.472 1.96-1.416 2.424L283.084 16h-2.328l-2.04-2.94h-.708zm.84-3.684l-.108.012c-.064 0-.164.004-.3.012h-.432v1.86h.696c.872 0 1.308-.324 1.308-.972 0-.608-.388-.912-1.164-.912z" fill="#000"/><path d="M252.12 34h-4.15v-7h4.05v1.15h-2.82v1.74h2.52v1.15h-2.52v1.81h2.92V34zm5.692-7h1.44l-2.36 3.43 2.45 3.57h-1.44l-1.81-2.63-1.8 2.63h-1.44l2.45-3.57-2.34-3.43h1.44l1.72 2.53 1.69-2.53zm3.979 7h-1.23v-7h1.23v7zm3.317 0h-1.23v-7h1.24l2.39 3.27 2.28-3.27h1.16v7h-1.22v-5.06l-2.21 3.11h-.18l-2.23-3.08V34zm7.784-.01v-6.97a44.3 44.3 0 012.02-.05c.773 0 1.35.153 1.73.46.38.307.57.73.57 1.27 0 .753-.334 1.283-1 1.59v.02c.38.1.68.29.9.57.22.273.33.627.33 1.06 0 .68-.234 1.2-.7 1.56-.467.36-1.1.54-1.9.54-.8 0-1.45-.017-1.95-.05zm2.1-3h-.87v1.85c.313.033.583.05.81.05.853 0 1.28-.337 1.28-1.01 0-.293-.107-.513-.32-.66-.214-.153-.514-.23-.9-.23zm-.1-2.87c-.294 0-.55.01-.77.03v1.77h.83c.313 0 .563-.08.75-.24.193-.16.29-.39.29-.69 0-.28-.097-.493-.29-.64-.194-.153-.464-.23-.81-.23zm4.511 5.88h-1.24l2.96-7.02h1.08l2.96 7.02h-1.31l-.73-1.79h-2.99l-.73 1.79zm3.25-2.94l-1.02-2.49-1.03 2.49h2.05zm9.539-4.06v7h-.98l-3.85-4.85V34h-1.15v-7h.98l3.85 4.87V27h1.15zm3.17 7h-1.23v-7h1.23v3.32l2.76-3.32h1.48l-2.88 3.26 3.06 3.74h-1.56l-2.86-3.61V34zm7.088-3.5c0-1.02.34-1.877 1.02-2.57.693-.693 1.566-1.04 2.62-1.04 1.053 0 1.923.333 2.61 1 .693.673 1.04 1.543 1.04 2.61 0 1.047-.347 1.91-1.04 2.59-.694.68-1.564 1.02-2.61 1.02-1.054 0-1.924-.333-2.61-1-.687-.667-1.03-1.537-1.03-2.61zm1.3 0c0 .707.223 1.293.67 1.76.446.467 1.003.7 1.67.7.72 0 1.29-.233 1.71-.7.426-.467.64-1.053.64-1.76 0-.713-.227-1.303-.68-1.77a2.255 2.255 0 00-1.67-.69c-.674 0-1.234.23-1.68.69-.44.46-.66 1.05-.66 1.77zm8.643 3.5h-1.23v-7h4v1.15h-2.77v1.98h2.47v1.15h-2.47V34zm7.49-2.62V34h-1.23v-7a68.8 68.8 0 001.13-.01c.407-.007.74-.01 1-.01 1.694 0 2.54.72 2.54 2.16 0 .533-.136.973-.41 1.32-.273.333-.586.56-.94.68l2.19 2.86h-1.49l-1.93-2.62h-.86zm.84-3.25c-.033 0-.086.003-.16.01-.073 0-.176.003-.31.01h-.37v2.08h.8c.394 0 .714-.097.96-.29a.939.939 0 00.38-.79c0-.68-.433-1.02-1.3-1.02zm8.952-1.13h1.22v4.1c0 1.007-.263 1.76-.79 2.26-.533.5-1.196.75-1.99.75-.9 0-1.623-.263-2.17-.79-.54-.527-.81-1.29-.81-2.29V27h1.23v3.77c0 .693.147 1.233.44 1.62.3.38.737.57 1.31.57 1.04 0 1.56-.703 1.56-2.11V27zm5.88 5.14c0-.213-.08-.4-.24-.56a1.667 1.667 0 00-.58-.4c-.233-.107-.49-.227-.77-.36a9.954 9.954 0 01-.76-.43 1.922 1.922 0 01-.59-.63 1.892 1.892 0 01-.23-.94c0-.54.197-.997.59-1.37.407-.373.937-.56 1.59-.56.887 0 1.553.25 2 .75l-.66.92a1.714 1.714 0 00-1.24-.52c-.3 0-.54.07-.72.21a.684.684 0 00-.26.56c0 .12.023.233.07.34.047.1.097.183.15.25.06.067.153.14.28.22.133.08.237.14.31.18a51.766 51.766 0 01.77.34c.293.133.55.273.77.42.247.147.443.357.59.63.153.273.23.587.23.94 0 .587-.223 1.063-.67 1.43-.447.367-1.003.55-1.67.55a3.56 3.56 0 01-1.39-.29c-.44-.2-.74-.47-.9-.81l.7-.84c.187.247.427.44.72.58.3.14.597.21.89.21.307 0 .553-.073.74-.22a.721.721 0 00.28-.6zm5.527 0c0-.213-.08-.4-.24-.56a1.657 1.657 0 00-.58-.4c-.233-.107-.49-.227-.77-.36a10.15 10.15 0 01-.76-.43 1.922 1.922 0 01-.59-.63 1.892 1.892 0 01-.23-.94c0-.54.197-.997.59-1.37.407-.373.937-.56 1.59-.56.887 0 1.554.25 2 .75l-.66.92a1.713 1.713 0 00-1.24-.52c-.3 0-.54.07-.72.21a.684.684 0 00-.26.56c0 .12.024.233.07.34.047.1.097.183.15.25.06.067.154.14.28.22.134.08.237.14.31.18a51.766 51.766 0 01.77.34c.294.133.55.273.77.42.247.147.444.357.59.63.154.273.23.587.23.94 0 .587-.223 1.063-.67 1.43-.446.367-1.003.55-1.67.55-.466 0-.93-.097-1.39-.29-.44-.2-.74-.47-.9-.81l.7-.84c.187.247.427.44.72.58.3.14.597.21.89.21.307 0 .554-.073.74-.22a.721.721 0 00.28-.6zM345.18 34h-1.23v-7h1.23v7zm2.427 0h-1.24l2.96-7.02h1.08l2.96 7.02h-1.31l-.73-1.79h-2.99l-.73 1.79zm3.25-2.94l-1.02-2.49-1.03 2.49h2.05z" fill="#0054A5"/><path d="M239.905 7.153L229.068 11.4l-5.801-4.247h16.638z" fill="#C64A5F"/><path d="M240.074 7.153l-4.422 9.049-6.585-4.802 10.838-4.247h.169z" fill="#004F87"/><path d="M239.905 26.249l-10.837 4.24-5.801-4.24h16.638z" fill="#0054A5"/><path d="M240.074 26.249l-4.422 9.048-6.585-4.808 10.838-4.24h.169z" fill="#0090D0"/><path d="M210.216 39.307h-.439V21.266l-2.762-2.264V.724h.444v18.072l2.757 2.264v18.247z" fill="#002E5E"/></svg>