<svg width="220" height="48" fill="none" xmlns="http://www.w3.org/2000/svg"><path d="M85.39 20.245l.647 1.266c-.303.32-.738.582-1.306.783a5.178 5.178 0 01-1.772.303c-1.465 0-2.66-.454-3.585-1.362-.916-.907-1.374-2.108-1.374-3.602 0-1.43.435-2.617 1.305-3.561.861-.935 2.065-1.403 3.613-1.403 1.227 0 2.203.325 2.926.976l-.755 1.252a3.845 3.845 0 00-2.17-.647c-.917 0-1.668.307-2.254.921-.586.615-.88 1.435-.88 2.462 0 1.008.308 1.824.921 2.448.623.623 1.424.934 2.404.934.843 0 1.603-.256 2.28-.77zm2.631 3.919h-1.58v-3.3h1.03c.275-.32.573-1.031.894-2.131.33-1.128.526-2.457.59-3.988l.096-1.925h5.962v8.044h1.305v3.3h-1.58v-1.718h-6.717v1.718zm2.665-9.763l-.151 1.678c-.082 1.155-.252 2.168-.508 3.039-.266.908-.5 1.49-.7 1.746h4.01v-6.463h-2.65zm13.008 8.045h-5.701V12.82h5.563v1.582h-3.874v2.392h3.462v1.581h-3.462v2.49h4.012v1.58zm9.55 0h-1.676V14.4h-2.802l-.193 1.816c-.11 1.1-.252 2.04-.426 2.819-.174.779-.366 1.402-.577 1.87-.21.467-.462.825-.755 1.072a1.965 1.965 0 01-.893.468 3.395 3.395 0 01-1.058 0l.041-1.678c.202.027.367.018.495-.027.128-.046.279-.175.453-.386.193-.238.348-.554.467-.948.33-.981.573-2.535.728-4.662l.138-1.925h6.058v9.626zm3.126 0h-1.704l4.066-9.653h1.484l4.066 9.653h-1.799l-1.003-2.462h-4.108l-1.002 2.462zm4.464-4.043l-1.401-3.424-1.415 3.424h2.816zm12.65 4.043h-1.676v-4.112h-4.396v4.112h-1.689V12.82h1.689v3.933h4.396V12.82h1.676v9.626zm1.948-4.813c0-1.403.467-2.58 1.401-3.534.953-.953 2.153-1.43 3.6-1.43s2.642.458 3.585 1.375c.953.926 1.429 2.122 1.429 3.589 0 1.44-.476 2.626-1.429 3.561-.952.935-2.147 1.403-3.585 1.403-1.447 0-2.642-.459-3.586-1.375-.943-.917-1.415-2.113-1.415-3.59zm1.786 0c0 .972.307 1.778.921 2.42.613.642 1.378.962 2.294.962.989 0 1.772-.32 2.349-.962.586-.642.879-1.448.879-2.42 0-.981-.311-1.792-.934-2.434-.623-.633-1.388-.949-2.294-.949-.925 0-1.695.316-2.308.949-.605.633-.907 1.444-.907 2.434zm13.095 4.799v-9.584c.99-.046 1.915-.07 2.776-.07 1.062 0 1.854.212 2.376.633.522.422.783 1.004.783 1.747 0 1.036-.458 1.764-1.374 2.186v.028c.522.137.935.398 1.237.783.302.376.453.862.453 1.458 0 .935-.32 1.65-.962 2.145-.641.495-1.511.743-2.61.743a41.85 41.85 0 01-2.679-.07zm2.885-4.125h-1.195v2.544c.431.045.802.068 1.113.068 1.172 0 1.758-.463 1.758-1.389 0-.403-.146-.705-.439-.907-.293-.21-.705-.316-1.237-.316zm-.137-3.947c-.403 0-.756.014-1.058.042v2.433h1.14c.431 0 .774-.11 1.031-.33.265-.22.398-.536.398-.948 0-.386-.133-.679-.398-.88-.266-.211-.637-.317-1.113-.317zm10.332 4.607v3.479h-1.69V12.82c.403 0 .838-.004 1.305-.014.477-.009.953-.013 1.429-.013.678 0 1.264.087 1.759.261.503.165.893.399 1.167.701.275.294.476.619.605.976.128.349.192.734.192 1.156 0 .87-.311 1.608-.934 2.213-.614.605-1.475.908-2.583.908-.558 0-.975-.014-1.25-.041zm1.209-4.593l-1.209.027v2.957c.485.046.884.069 1.195.069.541 0 .971-.133 1.292-.4.329-.265.494-.65.494-1.154 0-1-.591-1.499-1.772-1.499zm4.732 3.259c0-1.403.467-2.58 1.401-3.534.952-.953 2.152-1.43 3.599-1.43s2.642.458 3.586 1.375c.952.926 1.428 2.122 1.428 3.589 0 1.44-.476 2.626-1.428 3.561-.953.935-2.148 1.403-3.586 1.403-1.447 0-2.642-.459-3.586-1.375-.943-.917-1.414-2.113-1.414-3.59zm1.785 0c0 .972.307 1.778.921 2.42.613.642 1.378.962 2.294.962.989 0 1.772-.32 2.349-.962.586-.642.879-1.448.879-2.42 0-.981-.311-1.792-.934-2.434-.623-.633-1.387-.949-2.294-.949-.925 0-1.694.316-2.308.949-.604.633-.907 1.444-.907 2.434zm16.861 2.612l.646 1.266c-.303.32-.738.582-1.305.783a5.184 5.184 0 01-1.773.303c-1.465 0-2.66-.454-3.585-1.362-.916-.907-1.374-2.108-1.374-3.602 0-1.43.435-2.617 1.305-3.561.861-.935 2.066-1.403 3.613-1.403 1.228 0 2.203.325 2.926.976l-.755 1.252a3.845 3.845 0 00-2.171-.647c-.916 0-1.667.307-2.253.921-.586.615-.879 1.435-.879 2.462 0 1.008.307 1.824.921 2.448.622.623 1.424.934 2.404.934a3.68 3.68 0 002.28-.77zm8.599 0l.646 1.266c-.302.32-.737.582-1.305.783a5.178 5.178 0 01-1.772.303c-1.465 0-2.661-.454-3.586-1.362-.915-.907-1.373-2.108-1.373-3.602 0-1.43.435-2.617 1.305-3.561.861-.935 2.065-1.403 3.613-1.403 1.227 0 2.202.325 2.926.976l-.756 1.252a3.844 3.844 0 00-2.17-.647c-.916 0-1.667.307-2.253.921-.586.615-.879 1.435-.879 2.462 0 1.008.306 1.824.92 2.448.623.623 1.424.934 2.404.934a3.68 3.68 0 002.28-.77zm8.851-4.633l-5.041 6.834h-1.484V12.82h1.69v6.848l5.041-6.848h1.484v9.626h-1.69v-6.834zm10.88 0l-5.041 6.834h-1.484V12.82h1.69v6.848l5.041-6.848H218v9.626h-1.69v-6.834zM80.404 38.518h-1.69v-9.626h1.704L83.7 33.39l3.132-4.497h1.594v9.626H86.75V31.56l-3.036 4.276h-.247l-3.064-4.235v6.917zm10.72-4.593l-.398-1.155a4.224 4.224 0 012.184-.591c.861 0 1.489.21 1.882.632.394.422.591 1.068.591 1.939v3.768H94.01v-.715c-.366.531-.975.797-1.827.797-.586 0-1.058-.17-1.415-.509-.348-.348-.522-.81-.522-1.388 0-.642.206-1.137.618-1.485.413-.349.957-.523 1.635-.523.559 0 1.026.133 1.401.399.019-.55-.064-.954-.247-1.21-.174-.257-.476-.385-.906-.385-.477 0-1.017.142-1.622.426zm1.58 3.341c.532 0 .93-.188 1.195-.563v-.633c-.256-.202-.618-.302-1.085-.302-.293 0-.531.068-.714.206a.667.667 0 00-.275.564c0 .22.082.398.247.536.165.128.376.192.632.192zm10.178 1.252h-1.58v-.647a2.337 2.337 0 01-1.772.757c-.87 0-1.575-.285-2.115-.853-.531-.568-.797-1.33-.797-2.282 0-.972.316-1.765.948-2.38.641-.623 1.456-.934 2.445-.934.522 0 .953.1 1.291.302v-3.589h1.58v9.626zm-3.022-1.362c.54 0 1.021-.21 1.442-.632v-2.489a2.264 2.264 0 00-1.222-.371c-.504 0-.925.16-1.264.481-.339.32-.508.752-.508 1.293 0 .522.146.94.44 1.25.292.313.663.468 1.112.468zm9.625-.371l.454 1.114c-.614.513-1.401.77-2.363.77-.989 0-1.795-.298-2.418-.894-.604-.587-.907-1.37-.907-2.351 0-.917.298-1.687.893-2.31.596-.624 1.388-.935 2.377-.935.815 0 1.507.27 2.074.811.568.54.852 1.228.852 2.063 0 .366-.032.65-.096.852h-4.465c.064.45.261.802.591 1.059.339.257.76.385 1.264.385.687 0 1.268-.188 1.744-.564zm-2.033-3.286c-.897 0-1.438.449-1.621 1.347h3.036c.009-.394-.119-.715-.384-.962-.257-.257-.6-.385-1.031-.385zm8.992 5.019h-1.58V32.33h1.58v6.188zm-1.745-8.416c0-.275.092-.495.275-.66.193-.174.431-.26.715-.26.247 0 .457.086.631.26a.87.87 0 01.275.66c0 .294-.091.532-.275.715a.838.838 0 01-.631.275.998.998 0 01-.715-.275c-.183-.183-.275-.421-.275-.715zm5.322 8.416h-1.58V32.33h1.58v.619c.458-.486 1.048-.73 1.772-.73 1.694 0 2.541.89 2.541 2.669v3.63h-1.58v-3.355c0-.972-.462-1.458-1.387-1.458-.504 0-.953.197-1.346.591v4.222zm10.973-3.603v3.603h-1.689v-9.626c.476 0 .993-.004 1.552-.014a87.706 87.706 0 011.374-.013c2.326 0 3.489.99 3.489 2.97 0 .733-.188 1.338-.563 1.815-.376.458-.806.77-1.291.935l3.008 3.933h-2.047l-2.651-3.603h-1.182zm1.154-4.469c-.045 0-.119.005-.219.014a9.04 9.04 0 00-.426.014h-.509v2.86h1.099c.541 0 .98-.133 1.319-.399.348-.266.522-.628.522-1.086 0-.935-.595-1.403-1.786-1.403zm9.757 1.884h1.58v6.188h-1.58v-.757c-.495.605-1.154.908-1.978.908-.66 0-1.186-.22-1.58-.66-.394-.44-.591-1.073-.591-1.898V32.33h1.58v3.451c0 .944.394 1.417 1.181 1.417.541 0 1.003-.252 1.388-.757V32.33zm3.134 1.733c0-.578.211-1.036.632-1.376.421-.339.966-.508 1.635-.508 1.007 0 1.79.26 2.349.783l-.591 1.128a2.653 2.653 0 00-1.676-.591.887.887 0 00-.549.165c-.147.1-.22.224-.22.371 0 .303.389.555 1.168.756.284.065.535.138.755.22.22.074.444.184.673.33.238.138.422.321.55.55.128.23.192.495.192.798 0 .605-.229 1.086-.687 1.444-.448.357-1.053.536-1.813.536a3.84 3.84 0 01-1.58-.344c-.522-.238-.856-.477-1.003-.715l.77-1.031c.174.21.462.39.865.536.412.156.765.234 1.058.234.357.037.609-.078.755-.344.147-.275.051-.5-.288-.674a3.447 3.447 0 00-.646-.233 21.726 21.726 0 01-.797-.248 6.547 6.547 0 01-.741-.344 1.578 1.578 0 01-.591-.563 1.692 1.692 0 01-.22-.88zm6.104 0c0-.578.211-1.036.632-1.376.421-.339.966-.508 1.635-.508 1.007 0 1.79.26 2.349.783l-.591 1.128a2.653 2.653 0 00-1.676-.591.889.889 0 00-.549.165c-.147.1-.22.224-.22.371 0 .303.389.555 1.168.756.284.065.536.138.755.22.22.074.444.184.673.33.239.138.422.321.55.55.128.23.192.495.192.798 0 .605-.229 1.086-.687 1.444-.448.357-1.053.536-1.813.536a3.84 3.84 0 01-1.58-.344c-.522-.238-.856-.477-1.003-.715l.77-1.031c.174.21.462.39.865.536.412.156.765.234 1.058.234.357.037.609-.078.756-.344.146-.275.05-.5-.289-.674a3.447 3.447 0 00-.646-.233 21.065 21.065 0 01-.796-.248 6.478 6.478 0 01-.742-.344 1.585 1.585 0 01-.591-.563 1.692 1.692 0 01-.22-.88zm8.124 4.455h-1.58V32.33h1.58v6.188zm-1.745-8.416c0-.275.092-.495.275-.66.192-.174.43-.26.714-.26a.86.86 0 01.632.26.873.873 0 01.275.66c0 .294-.092.532-.275.715a.84.84 0 01-.632.275.994.994 0 01-.714-.275c-.183-.183-.275-.421-.275-.715zm4.222 3.823l-.398-1.155a4.223 4.223 0 012.184-.591c.861 0 1.488.21 1.882.632.394.422.591 1.068.591 1.939v3.768h-1.374v-.715c-.366.531-.975.797-1.827.797-.586 0-1.058-.17-1.415-.509-.348-.348-.522-.81-.522-1.388 0-.642.206-1.137.618-1.485.412-.349.957-.523 1.635-.523.559 0 1.026.133 1.401.399.019-.55-.064-.954-.247-1.21-.174-.257-.476-.385-.907-.385-.476 0-1.016.142-1.621.426zm1.58 3.341c.531 0 .93-.188 1.195-.563v-.633c-.256-.202-.618-.302-1.085-.302-.293 0-.531.068-.714.206a.665.665 0 00-.275.564c0 .22.082.398.247.536.165.128.376.192.632.192z" fill="#002E5E"/><path d="M17.754 14.741c7.291.437 12.804 10.953 21.088 18.685 3.074 2.867 13.008-8.082 11.28-9.653-4.67-4.208-14.546-12.009-23.705-12.009-3.035 0-5.994.855-8.656 2.977" fill="url(#paint0_linear)"/><path d="M7.972 18.207c9.642-.004 16.76 16.512 31.011 21.755l4.705-12.23S29.755 14.68 17.451 14.682c-3.392 0-6.66.99-9.48 3.52" fill="url(#paint1_linear)"/><path d="M36.719 26.525c-4.87.577-9.712-2.074-14.51-4.762 10.65 11.93 23.618 17.17 34.244 7.235C62.23 20.208 65.1 9.705 70 9.116 68.165 7.627 66.441 7 64.776 7c-8.885 0-15.92 18.072-28.057 19.53" fill="url(#paint2_linear)"/><path d="M5.988 17.24a11.298 11.298 0 00-3.45 1.829 1.344 1.344 0 00-.453.61 1.382 1.382 0 00.304 1.435c.181.184.41.31.658.362 9.955 2.32 18.73 21.507 36.653 19.356 7.818-.941 12.924-6.011 16.749-11.834-10.626 9.935-20.763 1.458-34.245-7.236-3.757-2.103-7.48-4.223-11.151-4.822a14.33 14.33 0 00-1.853-.123 11.987 11.987 0 00-3.212.424" fill="url(#paint3_linear)"/><defs><linearGradient id="paint0_linear" x1="44.763" y1="7.881" x2="16.902" y2="38.307" gradientUnits="userSpaceOnUse"><stop stop-color="#ECECEC"/><stop offset="1" stop-color="#C6C6C5"/></linearGradient><linearGradient id="paint1_linear" x1="36.749" y1="11.422" x2="10.602" y2="44.396" gradientUnits="userSpaceOnUse"><stop stop-color="#04BAEE"/><stop offset="1" stop-color="#0080C8"/></linearGradient><linearGradient id="paint2_linear" x1="58.695" y1="1.104" x2="22.598" y2="43.971" gradientUnits="userSpaceOnUse"><stop stop-color="#009EE2"/><stop offset="1" stop-color="#005CA8"/></linearGradient><linearGradient id="paint3_linear" x1="55.055" y1="50.659" x2="-2.031" y2="-3.369" gradientUnits="userSpaceOnUse"><stop stop-color="#E74E0F"/><stop offset="1" stop-color="#A71815"/></linearGradient></defs></svg>