<svg width="385" height="45" fill="none" xmlns="http://www.w3.org/2000/svg"><path d="M274.905 7.153L264.068 11.4l-5.801-4.247h16.638z" fill="#C64A5F"/><path d="M275.074 7.153l-4.422 9.049-6.585-4.802 10.838-4.247h.169z" fill="#004F87"/><path d="M284.315 12.423h3.539a2.551 2.551 0 01-.932 1.624 2.575 2.575 0 01-1.793.558c-.73 0-1.44-.24-2.017-.686l-.627 1.154a4.25 4.25 0 002.644.823c2.506 0 4.116-1.609 4.116-4.053a3.782 3.782 0 00-2.397-3.767 3.814 3.814 0 00-1.562-.262 4.273 4.273 0 00-2.713.86l.545 1.03a3.083 3.083 0 011.842-.624c1.485 0 2.568.723 2.831 2.04h-3.501l.025 1.303zm7.223 3.349h1.384V11.73l3.214 4.042h1.754l-3.439-4.191 3.232-3.66h-1.654l-3.132 3.74v-3.74h-1.384l.025 7.85zm13.256-1.79a3.087 3.087 0 01-1.88.623 2.627 2.627 0 01-1.975-.773 2.612 2.612 0 01-.75-1.977c0-1.702 1.109-2.756 2.569-2.756a2.95 2.95 0 011.773.53l.626-1.017a3.567 3.567 0 00-2.399-.798c-2.6 0-4.028 1.79-4.028 4.041a3.83 3.83 0 002.47 3.796 3.86 3.86 0 001.589.245 3.65 3.65 0 002.506-.885l-.501-1.03zm1.497 1.79h1.391l.82-2.002h3.364l.815 2.002h1.472l-3.32-7.852h-1.184l-3.358 7.852zm3.897-6.08l1.146 2.787h-2.312l1.166-2.788zm7.204 6.08v-2.863c.344.037.789.037 1.021.037 1.879 0 2.882-1.21 2.882-2.544s-.727-2.494-3.045-2.494h-2.236v7.864h1.378zm.99-6.567c.946 0 1.453.399 1.453 1.247 0 .848-.626 1.247-1.466 1.247-.313 0-.626 0-.977-.056v-2.42h.99" fill="#231F20"/><path d="M302.801 16.152a4.108 4.108 0 01-3.128-1.184 4.065 4.065 0 01-1.194-3.113 4.04 4.04 0 011.172-3.109 4.071 4.071 0 013.113-1.194 3.84 3.84 0 012.575.867l.163.144-.878 1.434-.225-.156a2.726 2.726 0 00-1.635-.48c-1.372 0-2.299.998-2.299 2.494a2.336 2.336 0 001.491 2.336c.309.12.64.175.971.159.616 0 1.214-.202 1.704-.574l.25-.193.758 1.472-.125.13a3.876 3.876 0 01-2.713.967zm-.037-8.107a3.553 3.553 0 00-2.744 1.037 3.514 3.514 0 00-1.015 2.742 3.789 3.789 0 002.049 3.368 3.828 3.828 0 003.946-.25l-.307-.623a3.301 3.301 0 01-1.766.505 2.888 2.888 0 01-2.159-.851 2.857 2.857 0 01-.823-2.161c0-1.778 1.159-3.019 2.819-3.019a3.31 3.31 0 011.698.43l.363-.623a3.476 3.476 0 00-2.061-.624v.069zm-17.61 8.039a4.526 4.526 0 01-2.813-.88l-.156-.13.839-1.541.244.193c.539.41 1.201.63 1.88.624a2.294 2.294 0 002.399-1.665h-3.477v-1.809h3.427c-.332-.966-1.222-1.515-2.506-1.515a2.81 2.81 0 00-1.685.549l-.251.187-.776-1.484.156-.138a4.5 4.5 0 012.882-.923 4.102 4.102 0 013.062 1.218 4.055 4.055 0 011.16 3.073c0 2.62-1.716 4.31-4.385 4.31v-.07zm-2.312-1.08c.695.424 1.497.64 2.312.624 2.343 0 3.853-1.49 3.853-3.791a3.522 3.522 0 00-2.24-3.502 3.556 3.556 0 00-1.456-.24 4.17 4.17 0 00-2.375.673l.301.574a3.395 3.395 0 011.748-.486c1.647 0 2.806.842 3.088 2.251l.063.312h-3.546v.742h3.59l-.05.306a2.815 2.815 0 01-1.019 1.78 2.835 2.835 0 01-1.963.62 3.549 3.549 0 01-1.923-.56l-.383.698zm34.813 1.023h-1.879v-8.35h2.505c2.982 0 3.302 1.94 3.302 2.775 0 1.354-.977 2.806-3.132 2.806h-.765l-.031 2.77zm-1.378-.517h.852v-2.863h.288c.332.032.764.032 1.002.032 1.804 0 2.613-1.142 2.613-2.283 0-1.029-.483-2.251-2.782-2.251h-1.986l.013 7.365zm-1.729.517h-2.043l-.814-2.001h-3.013l-.821 2.001h-1.967l3.546-8.375h1.566l3.546 8.375zm-1.692-.517h.902l-3.101-7.334h-.87l-3.133 7.334h.821l.852-1.977h3.715l.814 1.977zm-14.408.517h-2.437l-2.826-3.548v3.548h-1.879v-8.35h1.879v3.255l2.725-3.255h2.362l-3.477 3.91 3.653 4.44zm-2.181-.517h1.078l-3.233-3.935 3.007-3.374h-.952l-2.925 3.492 3.025 3.817zm-4.46 0h.858V8.2h-.858v7.31zm19.928-2.77h-3.089L310.194 9l1.541 3.74zm-2.306-.523h1.523l-.758-1.87-.765 1.87zm8.946-.268a9.456 9.456 0 01-1.002-.062h-.238V8.974h1.253c1.491 0 1.71.93 1.71 1.478 0 .942-.626 1.528-1.723 1.528v-.031zm-.714-.524c.282 0 .514.031.714.031.445 0 1.203-.13 1.203-1.004 0-.411-.125-.96-1.19-.96h-.727v1.933z" fill="#231F20"/><path d="M274.905 26.248l-10.837 4.241-5.801-4.24h16.638z" fill="#0054A5"/><path d="M275.074 26.248l-4.422 9.05-6.585-4.809 10.838-4.24h.169z" fill="#0090D0"/><path d="M284.722 34.861v-2.825h1.021c1.879 0 2.882-1.21 2.882-2.538 0-1.329-.733-2.495-3.045-2.495h-2.236v7.858h1.378zm.99-6.567c.946 0 1.453.406 1.453 1.247 0 .842-.626 1.248-1.466 1.248a8.747 8.747 0 01-.977-.063v-2.413h.99v-.019zm4.542 2.67a3.865 3.865 0 001.15 2.92 3.914 3.914 0 002.94 1.127 3.983 3.983 0 002.931-1.141 3.954 3.954 0 001.173-2.907 3.896 3.896 0 00-.271-1.58 3.896 3.896 0 00-2.242-2.204 3.928 3.928 0 00-1.591-.25 3.964 3.964 0 00-2.921 1.137 3.936 3.936 0 00-1.169 2.897zm1.466 0a2.632 2.632 0 011.718-2.331 2.65 2.65 0 012.83.655 2.614 2.614 0 01-.469 4.003 2.65 2.65 0 01-1.455.429 2.668 2.668 0 01-1.898-.825 2.629 2.629 0 01-.726-1.932zm14.458 2.126c-.537.413-1.2.633-1.879.623a2.618 2.618 0 01-2.564-1.686 2.57 2.57 0 01-.161-1.07c0-1.696 1.096-2.75 2.562-2.75a2.965 2.965 0 011.779.53l.627-1.023a3.602 3.602 0 00-2.393-.792c-2.6 0-4.029 1.79-4.029 4.035-.031.54.052 1.08.244 1.584a3.838 3.838 0 002.225 2.218 3.86 3.86 0 001.591.245 3.65 3.65 0 002.506-.885l-.508-1.03zm3.546-1.553h3.54a2.55 2.55 0 01-.926 1.622 2.569 2.569 0 01-1.787.56 3.313 3.313 0 01-2.03-.685l-.626 1.154a4.229 4.229 0 002.644.823c2.505 0 4.109-1.603 4.109-4.054a3.781 3.781 0 00-2.391-3.767 3.808 3.808 0 00-1.562-.261 4.234 4.234 0 00-2.706.86l.539 1.03a3.05 3.05 0 011.835-.624c1.491 0 2.562.73 2.838 2.032h-3.508l.031 1.31zm7.23 3.343h1.378v-4.035l3.22 4.016h1.748l-3.44-4.178 3.239-3.655h-1.66l-3.132 3.742v-3.742h-1.379l.026 7.852zm13.249-1.79c-.539.411-1.2.63-1.879.623a2.624 2.624 0 01-2.562-1.687 2.582 2.582 0 01-.163-1.069 2.52 2.52 0 011.534-2.547 2.55 2.55 0 011.034-.203 2.936 2.936 0 011.773.53l.627-1.023a3.633 3.633 0 00-2.4-.792c-2.6 0-4.022 1.79-4.022 4.035a3.825 3.825 0 001.116 2.932 3.842 3.842 0 002.944 1.115 3.632 3.632 0 002.506-.885l-.508-1.03zm3.79 1.79l4.122-5.557v5.557h1.385v-7.852h-1.209l-4.128 5.575v-5.575h-1.385v7.833l1.215.019zm8.357 0h1.391v-5.613l2.506 3.442h.207l2.506-3.473v5.656h1.365v-7.864h-1.303l-2.562 3.667-2.688-3.667h-1.422v7.852zm10.807 0c.457 0 1.134.05 2.042.05 1.936 0 3.039-.936 3.039-2.551 0-1.447-.997-2.364-2.644-2.364a8.881 8.881 0 00-1.059.069v-1.771h3.22v-1.285h-4.598v7.852zm2.324-3.574c.965 0 1.385.5 1.385 1.166 0 .668-.426 1.167-1.454 1.167-.288 0-.557 0-.877-.044v-2.226c.314-.043.63-.064.946-.063zm4.235 3.574h1.397l.827-2.002h3.351l.827 2.002h1.473l-3.333-7.852h-1.209l-3.333 7.852zm3.903-6.074l1.153 2.787h-2.306l1.153-2.787zm10.806 6.074h1.366v-7.852h-1.366v3.2h-3.596v-3.2h-1.39v7.833h1.39v-3.343h3.596v3.362zm4.223 0h1.384v-4.035l3.214 4.035H385l-3.439-4.179 3.264-3.673h-1.661l-3.132 3.742v-3.742h-1.384v7.852z" fill="#0054A5"/><path d="M245.216 39.307h-.439V21.266l-2.762-2.264V.724h.444v18.072l2.757 2.264v18.247zM172.997 5.426c.094 1.116 1.059 1.87 2.644 1.87 1.453 0 2.537-.754 2.581-1.87H176.7c-.057.567-.464.76-1.059.76s-1.015-.25-1.122-.76h-1.522zm-.037 11.45l4.848-6.543v6.536h1.629V7.66h-1.428l-4.855 6.553V7.658h-1.623v9.211l1.429.006zm-10.475 0l4.855-6.543v6.536h1.623V7.66h-1.422l-4.855 6.553V7.658h-1.623v9.211l1.422.006zm-10.311 0h1.628v-4.759l3.759 4.752h2.067l-4.047-4.92 3.809-4.29h-1.96l-3.646 4.365V7.658h-1.629l.019 9.217zm-2.231-2.096a3.63 3.63 0 01-2.199.736 3.086 3.086 0 01-2.318-.914 3.058 3.058 0 01-.877-2.323c0-1.995 1.297-3.236 3.014-3.236a3.495 3.495 0 012.086.623l.733-1.197a4.26 4.26 0 00-2.819-.93c-3.051 0-4.736 2.102-4.736 4.746a4.495 4.495 0 001.317 3.44 4.532 4.532 0 003.456 1.313 4.258 4.258 0 002.963-1.042l-.62-1.216zm-15.429-9.354c.093 1.116 1.058 1.87 2.643 1.87 1.454 0 2.506-.754 2.581-1.87h-1.522c-.05.567-.464.76-1.059.76s-1.015-.25-1.121-.76h-1.522zm-.038 11.45l4.849-6.543v6.536h1.629V7.66h-1.429l-4.849 6.553V7.658h-1.628v9.211l1.428.006zm-10.468 0l4.849-6.543v6.536h1.622V7.66h-1.428l-4.837 6.553V7.658h-1.622v9.211l1.416.006zm-3.665-2.096c-.63.479-1.4.737-2.193.736a3.083 3.083 0 01-3.007-1.977 3.047 3.047 0 01-.194-1.254c0-1.995 1.297-3.236 3.013-3.236.747-.018 1.479.2 2.093.623l.726-1.197a4.246 4.246 0 00-2.819-.93c-3.051 0-4.729 2.102-4.729 4.747a4.484 4.484 0 001.315 3.443 4.518 4.518 0 003.458 1.309 4.241 4.241 0 002.957-1.042l-.62-1.222zm-8.658 0c-.63.479-1.4.737-2.192.736a3.09 3.09 0 01-2.32-.91 3.057 3.057 0 01-.882-2.32c0-1.996 1.297-3.237 3.014-3.237a3.495 3.495 0 012.086.623l.733-1.197a4.261 4.261 0 00-2.819-.93c-3.051 0-4.73 2.102-4.73 4.747a4.492 4.492 0 002.899 4.464 4.533 4.533 0 001.868.288 4.26 4.26 0 002.97-1.073l-.627-1.191zm-16.219-2.495a3.107 3.107 0 01.725-2.496 3.13 3.13 0 012.373-1.083 3.144 3.144 0 012.373 1.083 3.113 3.113 0 01.725 2.496c0 1.821-1.159 3.237-3.133 3.237a3.145 3.145 0 01-2.213-.98 3.116 3.116 0 01-.85-2.257zm-1.723 0a4.552 4.552 0 001.355 3.406 4.595 4.595 0 003.431 1.321 4.69 4.69 0 003.453-1.32 4.648 4.648 0 001.403-3.407 4.56 4.56 0 00-1.364-3.458 4.609 4.609 0 00-3.492-1.312A4.667 4.667 0 0095.1 8.87a4.625 4.625 0 00-1.357 3.415zm-4.61-3.118c1.108 0 1.704.474 1.704 1.435 0 .96-.752 1.49-1.717 1.49-.385-.001-.77-.024-1.153-.069V9.168c.439 0 .834-.03 1.165-.03v.03zm-1.166 7.696v-3.33c.395.037.927.037 1.203.037 2.212 0 3.383-1.422 3.383-2.987 0-1.565-.858-2.956-3.577-2.956h-2.631v9.242l1.622-.006zm6.065 13.215c0-2.87-1.93-4.74-4.648-4.74a4.965 4.965 0 00-3.19 1.016l.627 1.21a3.62 3.62 0 012.168-.71c1.748 0 3.013.854 3.333 2.394h-4.123v1.515h4.16a2.997 2.997 0 01-1.091 1.907 3.023 3.023 0 01-2.104.657 3.934 3.934 0 01-2.38-.805l-.702 1.36c.907.66 2.01.998 3.132.96 2.963 0 4.837-1.87 4.837-4.764h-.02zm9.365 4.614l-4.065-4.945 3.809-4.29h-1.955l-3.652 4.365v-4.366H95.91v9.211h1.623v-4.745l3.759 4.745 2.104.025zm2.45-4.602c0-2.002 1.29-3.237 3.013-3.237a3.525 3.525 0 012.086.624l.74-1.204a4.198 4.198 0 00-2.813-.935c-3.057 0-4.736 2.108-4.736 4.752-.038.634.06 1.268.287 1.861a4.498 4.498 0 002.616 2.605 4.537 4.537 0 001.87.286 4.294 4.294 0 002.964-1.041l-.627-1.21a3.633 3.633 0 01-2.199.736 3.082 3.082 0 01-2.32-.912 3.046 3.046 0 01-.875-2.325h-.006zm13.356 4.602h1.629v-9.21h-7.38v9.21h1.629v-7.695h4.122v7.695zm11.421-4.602c0 1.815-1.159 3.237-3.133 3.237a3.145 3.145 0 01-2.229-.97 3.122 3.122 0 01-.859-2.267 3.113 3.113 0 011.792-3.296 3.147 3.147 0 013.679.8 3.113 3.113 0 01.725 2.496h.025zm1.697 0a4.55 4.55 0 00-.319-1.86 4.587 4.587 0 00-2.639-2.596 4.623 4.623 0 00-1.872-.296 4.672 4.672 0 00-3.436 1.341 4.615 4.615 0 00-1.375 3.41 4.554 4.554 0 001.354 3.432 4.6 4.6 0 003.457 1.321 4.691 4.691 0 003.445-1.339 4.629 4.629 0 001.385-3.413zm6.371-1.684c0 1.023-.758 1.484-1.722 1.484-.37 0-.765 0-1.147-.062v-2.831h1.159c1.115 0 1.71.474 1.71 1.434v-.025zm1.717.025c0-1.515-.858-2.962-3.583-2.962h-2.632v9.21h1.629v-3.31c.395.037.921.037 1.203.037 2.205 0 3.383-1.422 3.383-2.987v.012zm5.356-1.434h3.001V25.48h-7.605v1.516h3v7.695h1.629l-.025-7.695zm10.268 7.695h1.616v-9.21h-1.616v3.741h-4.229v-3.742h-1.628v9.211h1.628v-3.929h4.229v3.93zm8.501-3.118c0 1.079-.626 1.622-1.823 1.622-.319 0-.583 0-.871-.038V30.14c.37-.038.627-.063.896-.063 1.14 0 1.798.512 1.798 1.497zm1.723-.037c0-1.802-1.103-2.975-3.389-2.975a7.57 7.57 0 00-1.028.069v-3.15h-1.629v9.211h2.3c2.368 0 3.758-1.247 3.758-3.174l-.012.019zm1.215 3.1h1.61V25.48h-1.61v9.155zm10.863-11.444h-1.497c-.05.56-.457.76-1.053.76-.595 0-1.021-.249-1.127-.76h-1.516c.087 1.116 1.052 1.87 2.643 1.87 1.454 0 2.538-.748 2.575-1.87h-.025zm-.382 11.443h1.622v-9.155h-1.428l-4.849 6.555V25.48h-1.628v9.211h1.409l4.855-6.535.019 6.48zm15.281 1.703h1.516v-3.156h-1.253v-7.701h-1.623v7.701h-4.059v-7.701h-1.623v9.217h7.048l-.006 1.64zm3.132-1.64h5.482v-1.516h-3.859v-2.382h3.332v-1.515h-3.332v-2.29h3.727v-1.514h-5.35v9.217zm13.457 0h1.61v-9.217h-1.61v3.741h-4.229v-3.741h-1.629v9.217h1.629v-3.935h4.229v3.935zm7.655-7.702h3.001v-1.515h-7.631v1.515h3.001v7.702h1.629v-7.702zm8.908 1.41c0 1.022-.751 1.483-1.716 1.483-.376 0-.771 0-1.153-.062v-2.831h1.165c1.109 0 1.704.474 1.704 1.434v-.025zm1.717.024c0-1.515-.858-2.962-3.584-2.962h-2.631v9.217h1.629V31.37c.395.037.927.037 1.203.037 2.205 0 3.383-1.422 3.383-2.987" fill="#002E5E"/><path d="M36.962.006L32.556 1.64 31.774 0l5.188.006z" fill="#1B75BB"/><path d="M31.768 0l.79 1.64-3.772 1.39L31.768 0z" fill="#EC1C24"/><path d="M50.31.387l3.616 5.039-13.57-1.223L50.311.387zm22.26-.38L67.183 2.12 64.295.007h8.275zM28.786 8.525l-4.298 5.12-5.375-.574 9.673-4.546z" fill="#1B75BB"/><path d="M24.488 13.639l-5.375 6.31v-6.878l5.375.568zM72.652.007l-2.193 4.502-3.276-2.388L72.57.007h.082z" fill="#EC1C24"/><path d="M8.5 24.04l-.445 5.127-8.037 4.334 8.482-9.46z" fill="#1B75BB"/><path d="M8.056 29.167l-.601 5.8L0 33.52l8.056-4.353z" fill="#EC1C24"/><path d="M56.776 10.072l7.605 9.198-12.667-1.334 5.062-7.864z" fill="#1B75BB"/><path d="M64.382 19.27l-18.468 7.665 5.801-9 12.667 1.335zM36.893 30.246l-17.848 7.446V26.224l17.848 4.022z" fill="#EC1C24"/><path d="M58.738 33.614L53.519 44.24l-2.775-7.334 7.994-3.292z" fill="#1B75BB"/><path d="M50.743 36.907l2.776 7.333-13.47-2.725 10.694-4.608z" fill="#EC1C24"/><path d="M31.468 14.624l10.493-4.078 2.882 5.438-13.375-1.36z" fill="#1B75BB"/><path d="M31.468 14.624l13.375 1.36-11.715 4.702-1.66-6.062z" fill="#EC1C24"/></svg>