<svg width="159" height="36" fill="none" xmlns="http://www.w3.org/2000/svg"><g clip-path="url(#clip0_299:5814)"><path d="M39.817 27.687C30.879 19.554 24.884 8.602 17.037 8.06c11.553-8.89 28.338 3.58 35.096 9.434 1.744 1.735-8.938 13.229-12.317 10.193z" fill="url(#paint0_linear_299:5814)"/><path d="M40.471 35.06C24.993 29.747 16.818 11.64 6.354 11.64 20.524-.29 45.05 21.398 45.05 21.398L40.47 35.06z" fill="url(#paint1_linear_299:5814)"/><path d="M37.529 20.422c-5.232.65-10.464-2.169-15.696-4.988 11.554 12.47 25.615 18 37.06 7.59 6.212-9.217 9.373-20.277 14.714-20.82C60.964-7.662 53.115 18.688 37.53 20.423z" fill="url(#paint2_linear_299:5814)"/><path d="M40.798 35.494c8.502-.976 13.951-6.29 18.093-12.361-11.553 10.41-22.453 1.518-37.059-7.59-4.033-2.17-8.066-4.447-12.099-5.097-2.18-.217-3.924-.109-5.45.325-1.199.434-2.507.976-3.706 1.952-.98.759-.654 2.277.545 2.494 10.682 2.385 20.274 22.554 39.676 20.277z" fill="url(#paint3_linear_299:5814)"/><path d="M89.738 11.313l-3.052-4.012v7.049h-2.725V1.337h1.2l4.904 6.181 4.905-6.18h1.2V14.35h-2.726V7.3l-3.052 4.012h-.654zm14.606 2.711c-.109-.108-.218-.325-.327-.542-.218.217-.545.434-.981.65-.654.326-1.308.434-1.962.434-.872 0-1.635-.216-2.398-.759-.654-.542-.98-1.3-.98-2.168 0-1.085.326-1.844.98-2.494.654-.543 1.526-.868 2.616-.868.763 0 1.526.109 2.18.434v-.325c0-.434-.109-.651-.436-.868-.327-.217-.763-.325-1.308-.325s-1.09.108-1.526.217c-.436.108-.872.217-1.09.325l-.327.217-.436-2.06.218-.109c.872-.434 2.071-.65 3.27-.65 1.199 0 2.18.216 2.943.759.763.542 1.199 1.41 1.199 2.602v3.904s0 .108.109.325v.108h.763v1.735h-.327c-.763 0-1.635.109-2.18-.542zm-2.507-3.795c-.545 0-.872.108-1.199.325-.218.217-.436.543-.436.868 0 .325.109.542.327.65.218.217.545.217.872.217a3.03 3.03 0 001.417-.325c.327-.217.545-.542.654-.867v-.434c-.436-.217-1.09-.434-1.635-.434zm13.298 3.904c-.218-.109-.327-.326-.436-.651-.654.759-1.526 1.084-2.616 1.084h-.109c-1.308 0-2.289-.433-3.052-1.41-.763-.867-1.09-2.06-1.09-3.36 0-1.41.436-2.495 1.308-3.362.872-.868 1.853-1.301 3.052-1.301.763 0 1.417.108 2.071.433V.904h2.616v10.518c0 .759 0 .867.109.867 0 0 .109.109.545.109h.327v1.952h-.327c-1.199.325-1.962.216-2.398-.217zm-2.507-6.615c-.109 0-.109 0 0 0-.763 0-1.199.217-1.635.65-.436.434-.545.977-.545 1.736 0 .65.218 1.3.545 1.735.327.433.763.65 1.417.65a1.81 1.81 0 001.308-.542c.327-.434.545-.867.545-1.41V8.17c-.545-.434-1.09-.65-1.635-.65zm7.412 5.747c-.981-.867-1.417-2.168-1.417-3.578 0-1.41.545-2.603 1.417-3.362.872-.759 2.071-1.192 3.27-1.192 1.526 0 2.725.433 3.488 1.41.763.975.872 2.168.654 3.686v.217h-6.213c.109.542.327.867.654 1.193.436.433 1.09.542 1.744.542 1.09 0 2.071-.109 2.943-.542l.327-.217.327 2.06-.218.108a8.112 8.112 0 01-3.488.76c-1.417.325-2.616-.109-3.488-1.085zm1.199-4.663h3.924c0-.325-.218-.65-.436-.867-.327-.325-.872-.434-1.417-.434-1.09 0-1.744.326-2.071 1.301zM83.961 20.747c-.327.217-.436.65-.436 1.084 0 .434.11.868.436 1.085.327.217.654.325.981.325h.11c.326 0 .762-.108.98-.434.327-.217.436-.65.436-1.084 0-.434-.109-.76-.436-1.084-.654-.326-1.526-.326-2.07.108zm-.327 12.47h2.616v-9h-2.616v9zM93.662 24c-.654 0-1.308.108-1.853.434a2.376 2.376 0 00-.872.542c-.109-.217-.218-.434-.327-.542-.327-.326-.763-.434-1.199-.434-.436 0-.872.108-1.308.108h-.327v1.844h.763s.11.217.11.867v6.29h2.615v-5.097c0-.65.218-1.084.545-1.41a1.81 1.81 0 011.308-.542c.545 0 .872.217 1.2.542.326.326.435.76.435 1.302v5.313h2.616v-5.313c0-1.193-.327-2.169-.98-2.82C95.732 24.325 94.86 24 93.661 24zm18.203 4.446l2.943 4.012v.759h-2.616l-3.052-4.337h-2.18v4.337h-2.725V20.313h5.45c1.417 0 2.507.434 3.379 1.193.872.868 1.308 1.843 1.308 3.036 0 .868-.218 1.735-.763 2.494-.545.65-1.09 1.085-1.744 1.41zm-4.905-1.844h2.725c.545 0 1.09-.216 1.417-.542.327-.325.545-.867.545-1.41 0-.541-.218-.975-.545-1.409-.327-.325-.872-.542-1.417-.542h-2.725v3.903zm18.094 4.772h-.436s-.109-.217-.109-.868v-6.398h-2.616v5.205c0 .543-.218 1.085-.545 1.41a1.81 1.81 0 01-1.308.542c-.436 0-.872-.108-1.09-.434-.327-.325-.436-.759-.436-1.41v-5.204h-2.616v5.205c0 1.192.327 2.168.872 2.927.545.76 1.417 1.193 2.725 1.193 1.199 0 2.18-.325 2.725-.976 0 .109.109.109.109.217.109.217.327.434.545.65.218.11.436.218.763.218h.763c.218 0 .436-.109.763-.109h.327V31.7l-.436-.325zm8.611-2.82c-.218-.216-.545-.325-.872-.433-.327-.109-.654-.217-.981-.217-.327 0-.654-.109-1.09-.109-.872-.108-1.308-.217-1.526-.325-.218-.108-.218-.217-.327-.434 0-.108 0-.325.327-.542a1.848 1.848 0 011.09-.325c.436 0 .872.108 1.199.216a.596.596 0 01.327.543v.325h2.289v-.325c0-.976-.327-1.627-1.199-2.169-.763-.434-1.635-.759-2.725-.759s-1.962.217-2.725.76c-.763.541-1.199 1.3-1.199 2.276 0 .976.436 1.627 1.308 2.06.545.217 1.417.434 2.725.651.545.108 1.09.217 1.308.325.218.109.327.217.327.434 0 .325 0 .976-1.744.976-.436 0-.872-.108-1.199-.325-.327-.217-.436-.434-.436-.65v-.326h-2.507v.325c.109 1.084.545 1.843 1.308 2.386.763.433 1.744.65 2.834.65s2.071-.217 2.834-.759c.763-.542 1.199-1.301 1.199-2.277 0-.434-.109-.867-.218-1.193.109-.325 0-.542-.327-.759zm9.265 0c-.218-.216-.546-.325-.873-.433-.326-.109-.653-.217-.981-.217-.327 0-.653-.109-1.089-.109-.872-.108-1.308-.217-1.526-.325-.219-.108-.219-.217-.327-.434 0-.108 0-.325.327-.542a1.847 1.847 0 011.089-.325c.437 0 .873.108 1.199.216a.596.596 0 01.327.543v.325h2.289v-.325c0-.976-.326-1.627-1.199-2.169-.762-.434-1.634-.759-2.725-.759-1.089 0-1.961.217-2.724.76-.763.541-1.199 1.3-1.199 2.276 0 .976.436 1.627 1.308 2.06.545.217 1.416.434 2.724.651.546.108 1.091.217 1.308.325.218.109.327.217.327.434 0 .325.001.976-1.744.976-.435 0-.871-.108-1.199-.325-.326-.217-.435-.434-.435-.65v-.326H135.3v.325c.109 1.084.545 1.843 1.308 2.386.763.433 1.744.65 2.833.65 1.091 0 2.072-.217 2.834-.759.764-.542 1.199-1.301 1.199-2.277 0-.434-.109-.867-.218-1.193.109-.325-.108-.542-.326-.759zm2.397 4.663h2.617v-9h-2.617v9zm.327-12.47c-.327.217-.435.65-.435 1.084 0 .434.108.868.435 1.085.327.217.655.325.982.325h.108c.328 0 .763-.108.981-.434.327-.217.437-.65.437-1.084 0-.434-.11-.76-.437-1.084-.653-.326-1.526-.326-2.071.108zm12.972 12.47h-.327c-.982.108-1.853.217-2.398-.325-.11-.109-.218-.326-.328-.543-.217.217-.545.434-.98.651-.655.325-1.308.434-1.963.434-.872 0-1.635-.217-2.398-.76-.654-.541-.98-1.3-.98-2.168 0-1.084.326-1.843.98-2.494.655-.542 1.526-.867 2.616-.867.763 0 1.526.108 2.18.433v-.325c0-.434-.109-.65-.435-.867-.328-.217-.763-.326-1.308-.326s-1.09.109-1.527.217c-.436.108-.871.217-1.09.325l-.326.217-.437-2.06.218-.108c.872-.434 2.072-.651 3.27-.651 1.2 0 2.18.217 2.943.76.763.541 1.2 1.409 1.2 2.602v3.903s0 .109.108.325v.109h.763l.219 1.518zm-5.233-4.12h-.108c-.437 0-.764.108-1.09.325-.219.217-.437.542-.437.867 0 .325.109.542.327.65.218.218.545.218.873.218.545 0 .98-.109 1.416-.326.327-.216.545-.542.654-.867v-.434c-.327-.325-.98-.434-1.635-.434z" fill="#404041"/></g><defs><linearGradient id="paint0_linear_299:5814" x1="37.294" y1="10.266" x2="34.901" y2="17.433" gradientUnits="userSpaceOnUse"><stop stop-color="#E6E6E6"/><stop offset="1" stop-color="#B3B3B3"/></linearGradient><linearGradient id="paint1_linear_299:5814" x1="29.934" y1="14.556" x2="27.338" y2="22.221" gradientUnits="userSpaceOnUse"><stop offset=".001" stop-color="#00BFF2"/><stop offset="1" stop-color="#0088CF"/></linearGradient><linearGradient id="paint2_linear_299:5814" x1="61.379" y1="-4.521" x2="52.518" y2="28.677" gradientUnits="userSpaceOnUse"><stop stop-color="#00ADEE"/><stop offset="1" stop-color="#0066B2"/></linearGradient><linearGradient id="paint3_linear_299:5814" x1="38.61" y1="8.158" x2="34.802" y2="31.501" gradientUnits="userSpaceOnUse"><stop stop-color="#F05A22"/><stop offset="1" stop-color="#A61C20"/></linearGradient><clipPath id="clip0_299:5814"><path fill="#fff" d="M0 0h159v36H0z"/></clipPath></defs></svg>