<svg width="220" height="48" fill="none" xmlns="http://www.w3.org/2000/svg"><path d="M166.853 8.25c.091 1.081 1.021 1.811 2.55 1.811 1.402 0 2.447-.73 2.489-1.81h-1.468c-.054.549-.447.736-1.021.736-.574 0-.979-.241-1.081-.736h-1.469zm-.036 11.082l4.677-6.331v6.325h1.571v-8.915h-1.378l-4.683 6.344v-6.343h-1.565v8.914l1.378.006zm-10.102 0l4.682-6.331v6.325h1.565v-8.915h-1.371l-4.683 6.344v-6.343h-1.565v8.914l1.372.006zm-9.946 0h1.571v-4.605l3.625 4.599h1.994l-3.903-4.762 3.674-4.152h-1.891l-3.517 4.224v-4.224h-1.571l.018 8.92zm-2.151-2.028a3.494 3.494 0 01-2.121.712 2.97 2.97 0 01-2.896-1.918 2.955 2.955 0 01-.185-1.214c0-1.932 1.251-3.133 2.906-3.133a3.362 3.362 0 012.012.604l.707-1.159a4.099 4.099 0 00-2.719-.9c-2.942 0-4.568 2.035-4.568 4.594a4.354 4.354 0 002.802 4.32 4.364 4.364 0 001.802.279 4.097 4.097 0 002.858-1.008l-.598-1.177zm-14.881-9.053c.09 1.08 1.021 1.81 2.549 1.81 1.402 0 2.417-.73 2.49-1.81h-1.469c-.048.549-.447.736-1.021.736-.574 0-.979-.241-1.081-.736h-1.468zm-.037 11.081l4.677-6.331v6.325h1.571v-8.915h-1.378l-4.676 6.344v-6.343h-1.571v8.914l1.377.006zm-10.096 0l4.676-6.331v6.325h1.565v-8.915h-1.377l-4.665 6.344v-6.343h-1.565v8.914l1.366.006zm-3.535-2.028a3.474 3.474 0 01-2.115.712 2.966 2.966 0 01-3.087-3.126c0-1.931 1.251-3.133 2.906-3.133a3.396 3.396 0 012.018.604l.701-1.159a4.088 4.088 0 00-2.719-.9c-2.942 0-4.562 2.035-4.562 4.594a4.358 4.358 0 001.269 3.332 4.356 4.356 0 003.336 1.267 4.08 4.08 0 002.851-1.008l-.598-1.183zm-8.35 0a3.477 3.477 0 01-2.115.712 2.974 2.974 0 01-2.237-.88 2.954 2.954 0 01-.85-2.246c0-1.931 1.25-3.133 2.906-3.133a3.362 3.362 0 012.012.604l.707-1.159a4.1 4.1 0 00-2.719-.9c-2.943 0-4.562 2.035-4.562 4.594a4.35 4.35 0 002.796 4.32 4.363 4.363 0 001.802.279 4.098 4.098 0 002.864-1.038l-.604-1.153zM92.076 14.89a3.014 3.014 0 011.729-3.19 3.023 3.023 0 014.161 1.906c.12.417.15.855.086 1.284 0 1.762-1.118 3.132-3.021 3.132a3.023 3.023 0 01-2.765-1.957 3.013 3.013 0 01-.19-1.175zm-1.662 0a4.42 4.42 0 002.828 4.28c.57.22 1.178.32 1.789.295a4.508 4.508 0 004.346-2.787 4.492 4.492 0 00.336-1.788 4.426 4.426 0 00-2.864-4.339 4.438 4.438 0 00-1.818-.278 4.488 4.488 0 00-4.305 2.829 4.473 4.473 0 00-.312 1.788zm-4.447-3.018c1.07 0 1.644.459 1.644 1.388 0 .93-.725 1.443-1.656 1.443a9.978 9.978 0 01-1.111-.067v-2.764c.422 0 .803-.03 1.123-.03v.03zm-1.123 7.448v-3.223c.38.036.894.036 1.16.036 2.132 0 3.262-1.376 3.262-2.89 0-1.516-.827-2.862-3.45-2.862H83.28v8.945l1.565-.006zm5.848 12.79c0-2.777-1.86-4.588-4.483-4.588a4.777 4.777 0 00-3.075.984l.604 1.17a3.483 3.483 0 012.09-.687c1.686 0 2.907.827 3.215 2.317h-3.976v1.467h4.012a2.902 2.902 0 01-3.081 2.48 3.78 3.78 0 01-2.296-.778l-.677 1.316c.874.64 1.938.967 3.021.93 2.858 0 4.664-1.811 4.664-4.612h-.018zm9.033 4.465l-3.921-4.786 3.674-4.152h-1.885l-3.523 4.225v-4.225h-1.565v8.914h1.565v-4.593l3.625 4.593 2.03.024zm2.363-4.454c0-1.937 1.244-3.132 2.906-3.132a3.392 3.392 0 012.012.603l.713-1.165a4.038 4.038 0 00-2.713-.905c-2.948 0-4.568 2.04-4.568 4.6a4.358 4.358 0 001.269 3.331 4.356 4.356 0 003.335 1.267 4.128 4.128 0 002.858-1.008l-.604-1.17a3.494 3.494 0 01-2.121.712 2.96 2.96 0 01-3.081-3.133h-.006zm12.882 4.454h1.571v-8.914h-7.118v8.914h1.571v-7.447h3.976v7.447zm11.014-4.454c0 1.757-1.117 3.133-3.021 3.133a3.023 3.023 0 01-2.786-1.953 3.008 3.008 0 01-.192-1.18 2.997 2.997 0 01.699-2.416 3.015 3.015 0 012.288-1.048 3.022 3.022 0 012.988 3.464h.024zm1.638 0a4.447 4.447 0 00-1.316-3.323 4.445 4.445 0 00-3.343-1.276 4.492 4.492 0 00-4.319 2.812 4.48 4.48 0 00-.321 1.787 4.417 4.417 0 001.306 3.321 4.424 4.424 0 003.334 1.278 4.514 4.514 0 003.323-1.295 4.487 4.487 0 001.336-3.304zm6.145-1.63c0 .99-.731 1.437-1.662 1.437-.356 0-.737 0-1.106-.06v-2.74h1.118c1.076 0 1.65.458 1.65 1.388v-.024zm1.655.025c0-1.467-.828-2.867-3.456-2.867h-2.538v8.914h1.571v-3.205c.381.037.889.037 1.16.037 2.127 0 3.263-1.376 3.263-2.891v.012zm5.166-1.388h2.894V27.66h-7.335v1.467h2.894v7.447h1.571l-.024-7.447zm9.903 7.447h1.559v-8.914h-1.559v3.621h-4.078v-3.621h-1.571v8.914h1.571v-3.802h4.078v3.802zm8.199-3.017c0 1.044-.604 1.569-1.758 1.569-.308 0-.562 0-.84-.036v-2.922c.357-.036.605-.06.864-.06 1.1 0 1.734.495 1.734 1.449zm1.662-.036c0-1.745-1.063-2.88-3.269-2.88-.331 0-.662.022-.991.067V27.66h-1.571v8.914h2.218c2.284 0 3.625-1.207 3.625-3.072l-.012.019zm1.172 3h1.553V27.66h-1.553v8.86zm10.477-11.076h-1.444c-.048.543-.441.736-1.015.736-.574 0-.985-.241-1.087-.736h-1.463c.085 1.08 1.015 1.81 2.55 1.81 1.402 0 2.447-.724 2.483-1.81h-.024zm-.368 11.075h1.565v-8.86h-1.378l-4.677 6.343v-6.343h-1.571v8.914h1.36l4.683-6.325.018 6.271zm14.736 1.648h1.463v-3.054h-1.209V27.66h-1.565v7.454h-3.915V27.66h-1.565v8.92h6.798l-.007 1.588zm3.022-1.587h5.286v-1.467h-3.722v-2.306h3.215v-1.466h-3.215v-2.215h3.596V27.66h-5.16v8.92zm12.978 0h1.553V27.66h-1.553v3.621h-4.078V27.66h-1.571v8.92h1.571v-3.808h4.078v3.808zm7.384-7.454h2.894V27.66h-7.36v1.467h2.895v7.453h1.571v-7.453zm8.591 1.364c0 .99-.725 1.436-1.655 1.436-.363 0-.743 0-1.112-.06v-2.74h1.124c1.069 0 1.643.458 1.643 1.388v-.024zm1.656.024c0-1.467-.828-2.867-3.456-2.867h-2.538v8.92h1.571v-3.21c.381.036.894.036 1.16.036 2.127 0 3.263-1.376 3.263-2.891" fill="#002E5E"/><path d="M35.649 3.006L31.4 4.587 30.646 3l5.003.006z" fill="#1B75BB"/><path d="M30.64 3l.761 1.587-3.637 1.346L30.64 3z" fill="#EC1C24"/><path d="M48.525 3.374l3.486 4.877-13.087-1.183 9.6-3.694zm21.467-.368l-5.196 2.046-2.786-2.046h7.982zM27.764 11.25l-4.145 4.956-5.184-.556 9.329-4.4z" fill="#1B75BB"/><path d="M23.619 16.2l-5.184 6.108V15.65l5.184.55zM70.07 3.006l-2.114 4.357-3.16-2.311 5.196-2.046h.079z" fill="#EC1C24"/><path d="M8.2 26.267l-.43 4.96-7.752 4.196L8.2 26.267z" fill="#1B75BB"/><path d="M7.77 31.228l-.58 5.613-7.19-1.4 7.77-4.213z" fill="#EC1C24"/><path d="M54.76 12.747l7.335 8.903-12.217-1.292 4.882-7.61z" fill="#1B75BB"/><path d="M62.095 21.65l-17.812 7.417 5.595-8.71 12.217 1.293zM35.582 32.272l-17.214 7.206V28.38l17.214 3.893z" fill="#EC1C24"/><path d="M56.651 35.531l-5.033 10.285-2.677-7.098 7.71-3.187z" fill="#1B75BB"/><path d="M48.941 38.718l2.677 7.098-12.99-2.638 10.313-4.46z" fill="#EC1C24"/><path d="M30.35 17.153l10.12-3.947 2.78 5.263-12.9-1.316z" fill="#1B75BB"/><path d="M30.35 17.153l12.9 1.316-11.3 4.55-1.6-5.866z" fill="#EC1C24"/></svg>