<svg width="375" height="755" fill="none" xmlns="http://www.w3.org/2000/svg"><g clip-path="url(#clip0)"><path fill="#E2E7EC" d="M0-60h375v3720H0z"/><path fill="url(#paint0_linear)" fill-opacity=".9" d="M0 0h375v627H0z"/><rect x="235" y="269.385" width="198.534" height="198.534" rx="15" transform="rotate(-45 235 269.385)" fill="url(#paint1_linear)" fill-opacity=".3"/><path d="M190.368 145.365a.797.797 0 001.125 1.125.797.797 0 00-1.125-1.125zm35.973-35.972a.794.794 0 101.124 1.124.795.795 0 00-1.124-1.124zm-17.986 17.986a.794.794 0 101.124 1.124.795.795 0 00-1.124-1.124zm35.972-35.972a.796.796 0 101.126 1.124.796.796 0 00-1.126-1.124zm-50.961 50.961a.795.795 0 101.126 1.124.795.795 0 00-1.126-1.124zm35.973-35.973a.794.794 0 101.124 1.124.795.795 0 00-1.124-1.124zm-17.987 17.987a.795.795 0 101.126 1.124.795.795 0 00-1.126-1.124zm35.973-35.973a.796.796 0 101.126 1.124.796.796 0 00-1.126-1.124zm-50.961 50.961a.794.794 0 101.124 1.124.795.795 0 00-1.124-1.124zm35.972-35.973a.795.795 0 101.126 1.124.795.795 0 00-1.126-1.124zm-17.986 17.987a.794.794 0 101.124 1.124.795.795 0 00-1.124-1.124zm35.973-35.973a.794.794 0 101.121 1.124.794.794 0 00-1.121-1.124zm-50.962 50.961a.795.795 0 101.126 1.124.795.795 0 00-1.126-1.124zm35.973-35.972a.795.795 0 101.126 1.124.795.795 0 00-1.126-1.124zm-17.986 17.986a.795.795 0 101.126 1.124.795.795 0 00-1.126-1.124zm35.972-35.973a.796.796 0 101.126 1.125.796.796 0 00-1.126-1.124zm-50.96 50.962a.794.794 0 101.124 1.124.795.795 0 00-1.124-1.124zm35.972-35.973a.794.794 0 101.121 1.124.794.794 0 00-1.121-1.124zm-17.986 17.986a.794.794 0 101.124 1.124.795.795 0 00-1.124-1.124zm35.972-35.972a.796.796 0 101.126 1.124.796.796 0 00-1.126-1.124zm-50.961 50.961a.795.795 0 101.126 1.124.795.795 0 00-1.126-1.124zm35.972-35.973a.796.796 0 101.126 1.124.796.796 0 00-1.126-1.124zm-17.986 17.987a.795.795 0 101.126 1.124.795.795 0 00-1.126-1.124zm35.973-35.973a.794.794 0 101.121 1.124.794.794 0 00-1.121-1.124zm-50.962 86.934a.795.795 0 101.126 1.124.795.795 0 00-1.126-1.124zm35.972-35.973a.795.795 0 101.126 1.124.795.795 0 00-1.126-1.124zm-17.985 17.987a.794.794 0 101.124 1.124.795.795 0 00-1.124-1.124zm35.972-35.973a.795.795 0 101.126 1.124.795.795 0 00-1.126-1.124zm-50.961 50.961a.794.794 0 101.124 1.124.795.795 0 00-1.124-1.124zm35.973-35.972a.794.794 0 101.124 1.124.795.795 0 00-1.124-1.124zm-17.987 17.986a.795.795 0 101.126 1.124.795.795 0 00-1.126-1.124zm35.973-35.973a.794.794 0 101.124 1.124.795.795 0 00-1.124-1.124zm-50.962 50.961a.795.795 0 101.126 1.124.795.795 0 00-1.126-1.124zm35.973-35.972a.795.795 0 101.126 1.124.795.795 0 00-1.126-1.124zm-17.986 17.986a.794.794 0 101.124 1.124.795.795 0 00-1.124-1.124zm35.972-35.972a.795.795 0 101.126 1.124.795.795 0 00-1.126-1.124zm-50.961 50.961a.795.795 0 101.126 1.124.795.795 0 00-1.126-1.124zm35.973-35.973a.795.795 0 101.126 1.124.795.795 0 00-1.126-1.124zm-17.986 17.986a.795.795 0 101.123 1.125.795.795 0 00-1.123-1.125zm35.972-35.972a.795.795 0 101.126 1.124.795.795 0 00-1.126-1.124zm-50.96 50.961a.794.794 0 101.124 1.124.795.795 0 00-1.124-1.124zm35.972-35.973a.794.794 0 101.124 1.124.795.795 0 00-1.124-1.124zm-17.987 17.987a.795.795 0 101.126 1.124.795.795 0 00-1.126-1.124zm35.973-35.973a.796.796 0 101.126 1.124.796.796 0 00-1.126-1.124zm-50.961 50.961a.795.795 0 101.126 1.124.795.795 0 00-1.126-1.124zm35.972-35.972a.795.795 0 101.126 1.124.795.795 0 00-1.126-1.124zm-17.986 17.986a.795.795 0 101.123 1.124.795.795 0 00-1.123-1.124zm35.973-35.973a.794.794 0 101.121 1.125.794.794 0 00-1.121-1.124zm-83.936 53.959a.795.795 0 101.126 1.124.795.795 0 00-1.126-1.124zm35.972-35.973a.795.795 0 101.124 1.124.795.795 0 00-1.124-1.124zm-17.986 17.987a.795.795 0 101.126 1.124.795.795 0 00-1.126-1.124zm35.973-35.973a.796.796 0 101.126 1.124.796.796 0 00-1.126-1.124zm-50.961 50.961a.795.795 0 101.123 1.125.795.795 0 00-1.123-1.125zm35.972-35.972a.795.795 0 101.126 1.124.795.795 0 00-1.126-1.124zm-17.986 17.986a.794.794 0 101.124 1.124.795.795 0 00-1.124-1.124zm35.973-35.973a.794.794 0 101.121 1.124.794.794 0 00-1.121-1.124zm-50.962 50.961a.795.795 0 101.124 1.124.795.795 0 00-1.124-1.124zm35.973-35.972a.794.794 0 101.124 1.124.795.795 0 00-1.124-1.124zm-17.987 17.986a.795.795 0 101.126 1.124.795.795 0 00-1.126-1.124zm35.973-35.972a.796.796 0 101.126 1.124.796.796 0 00-1.126-1.124zm-50.961 50.961a.794.794 0 101.124 1.124.795.795 0 00-1.124-1.124zm35.972-35.973a.797.797 0 001.125 1.125.797.797 0 00-1.125-1.125zm-17.985 17.987a.794.794 0 101.124 1.124.795.795 0 00-1.124-1.124zm35.972-35.973a.794.794 0 101.121 1.124.794.794 0 00-1.121-1.124zm-50.961 50.961a.795.795 0 101.126 1.124.795.795 0 00-1.126-1.124zm35.972-35.972a.795.795 0 101.123 1.124.795.795 0 00-1.123-1.124zm-17.986 17.986a.795.795 0 101.126 1.124.795.795 0 00-1.126-1.124zm35.973-35.973a.794.794 0 101.121 1.124.794.794 0 00-1.121-1.124zm-50.962 50.961a.795.795 0 101.124 1.124.795.795 0 00-1.124-1.124zm35.973-35.972a.796.796 0 101.126 1.124.796.796 0 00-1.126-1.124zm-17.986 17.986a.794.794 0 101.124 1.124.795.795 0 00-1.124-1.124zm35.972-35.972a.796.796 0 101.126 1.124.796.796 0 00-1.126-1.124zm-50.96 86.933a.794.794 0 101.124 1.124.795.795 0 00-1.124-1.124zm35.972-35.972a.795.795 0 101.126 1.124.795.795 0 00-1.126-1.124zm-17.986 17.986a.795.795 0 101.126 1.124.795.795 0 00-1.126-1.124zm35.973-35.973a.795.795 0 101.123 1.125.795.795 0 00-1.123-1.125zm-50.962 50.962a.795.795 0 101.126 1.124.795.795 0 00-1.126-1.124zm35.973-35.973a.795.795 0 101.126 1.124.795.795 0 00-1.126-1.124zm-17.986 17.986a.795.795 0 101.123 1.125.795.795 0 00-1.123-1.125zm35.972-35.972a.795.795 0 101.126 1.124.795.795 0 00-1.126-1.124zm-50.961 50.961a.795.795 0 101.126 1.124.795.795 0 00-1.126-1.124zm35.973-35.973a.794.794 0 101.124 1.124.795.795 0 00-1.124-1.124zm-17.987 17.986a.795.795 0 101.124 1.124.795.795 0 00-1.124-1.124zm35.973-35.972a.795.795 0 101.126 1.124.795.795 0 00-1.126-1.124zm-50.961 50.961a.794.794 0 101.124 1.124.795.795 0 00-1.124-1.124zm35.972-35.972a.795.795 0 101.126 1.124.795.795 0 00-1.126-1.124zm-17.986 17.986a.795.795 0 101.126 1.124.795.795 0 00-1.126-1.124zm35.973-35.973a.795.795 0 101.123 1.125.795.795 0 00-1.123-1.125zm-50.961 50.961a.795.795 0 101.124 1.124.795.795 0 00-1.124-1.124zm35.972-35.972a.795.795 0 101.126 1.124.795.795 0 00-1.126-1.124zm-17.986 17.986a.794.794 0 101.124 1.124.795.795 0 00-1.124-1.124zm35.973-35.972a.794.794 0 101.124 1.124.795.795 0 00-1.124-1.124zm-50.961 50.961a.794.794 0 101.124 1.124.795.795 0 00-1.124-1.124zm35.972-35.973a.794.794 0 101.124 1.124.795.795 0 00-1.124-1.124zm-17.987 17.986a.797.797 0 001.125 1.125.797.797 0 00-1.125-1.125zM280.3 97.402a.796.796 0 101.126 1.124.796.796 0 00-1.126-1.124zm-83.936 53.959a.794.794 0 101.124 1.124.795.795 0 00-1.124-1.124zm35.972-35.973a.795.795 0 101.123 1.125.795.795 0 00-1.123-1.125zm-17.986 17.987a.794.794 0 101.124 1.124.795.795 0 00-1.124-1.124zm35.973-35.973a.794.794 0 101.121 1.124.794.794 0 00-1.121-1.124zm-50.962 50.961a.795.795 0 101.124 1.124.795.795 0 00-1.124-1.124zm35.973-35.972a.794.794 0 101.124 1.124.795.795 0 00-1.124-1.124zm-17.987 17.986a.795.795 0 101.126 1.124.795.795 0 00-1.126-1.124zm35.973-35.973a.796.796 0 101.126 1.124.796.796 0 00-1.126-1.124zm-50.961 50.961a.795.795 0 101.123 1.125.795.795 0 00-1.123-1.125zm35.972-35.972a.795.795 0 101.126 1.124.795.795 0 00-1.126-1.124zm-17.986 17.986a.795.795 0 101.126 1.124.795.795 0 00-1.126-1.124zm35.973-35.972a.794.794 0 101.121 1.124.794.794 0 00-1.121-1.124zm-50.961 50.961a.794.794 0 101.124 1.124.795.795 0 00-1.124-1.124zm35.972-35.973a.795.795 0 101.123 1.124.795.795 0 00-1.123-1.124zm-17.986 17.987a.795.795 0 101.126 1.124.795.795 0 00-1.126-1.124zm35.972-35.972a.796.796 0 101.126 1.123.796.796 0 00-1.126-1.124zm-50.96 50.96a.794.794 0 101.124 1.124.795.795 0 00-1.124-1.124zm35.972-35.972a.795.795 0 101.126 1.124.795.795 0 00-1.126-1.124zm-17.986 17.986a.794.794 0 101.124 1.124.795.795 0 00-1.124-1.124zm35.972-35.973a.796.796 0 101.126 1.124.796.796 0 00-1.126-1.124zm-50.961 50.961a.795.795 0 101.123 1.125.795.795 0 00-1.123-1.125zm35.973-35.972a.794.794 0 101.124 1.124.795.795 0 00-1.124-1.124zm-17.987 17.986a.795.795 0 101.126 1.124.795.795 0 00-1.126-1.124zm35.973-35.972a.794.794 0 101.121 1.124.794.794 0 00-1.121-1.124zm-50.961 86.933a.794.794 0 101.124 1.124.795.795 0 00-1.124-1.124zm35.972-35.972a.795.795 0 101.126 1.124.795.795 0 00-1.126-1.124zm-17.986 17.986a.795.795 0 101.126 1.124.795.795 0 00-1.126-1.124zm35.973-35.973a.795.795 0 101.123 1.125.795.795 0 00-1.123-1.125zm-50.962 50.962a.795.795 0 101.126 1.124.795.795 0 00-1.126-1.124zm35.973-35.973a.795.795 0 101.126 1.124.795.795 0 00-1.126-1.124zm-17.986 17.986a.795.795 0 101.123 1.125.795.795 0 00-1.123-1.125zm35.972-35.972a.795.795 0 101.126 1.124.795.795 0 00-1.126-1.124zm-50.961 50.961a.795.795 0 101.126 1.124.795.795 0 00-1.126-1.124zm35.973-35.973a.794.794 0 101.124 1.124.795.795 0 00-1.124-1.124zm-17.987 17.986a.797.797 0 001.125 1.125.797.797 0 00-1.125-1.125zm35.973-35.972a.795.795 0 101.126 1.124.795.795 0 00-1.126-1.124zm-50.961 50.961a.794.794 0 101.124 1.124.795.795 0 00-1.124-1.124zm35.972-35.972a.795.795 0 101.126 1.124.795.795 0 00-1.126-1.124zm-17.986 17.986a.795.795 0 101.126 1.124.795.795 0 00-1.126-1.124zm35.973-35.973a.795.795 0 101.123 1.125.795.795 0 00-1.123-1.125zm-50.961 50.961a.795.795 0 101.123 1.125.795.795 0 00-1.123-1.125zm35.972-35.972a.795.795 0 101.126 1.124.795.795 0 00-1.126-1.124zm-17.986 17.986a.795.795 0 101.126 1.124.795.795 0 00-1.126-1.124zm35.973-35.972a.794.794 0 101.124 1.124.795.795 0 00-1.124-1.124zm-50.962 50.961a.795.795 0 101.126 1.124.795.795 0 00-1.126-1.124zm35.973-35.973a.794.794 0 101.124 1.124.795.795 0 00-1.124-1.124zm-17.986 17.986a.795.795 0 101.123 1.125.795.795 0 00-1.123-1.125zm35.972-35.972a.795.795 0 101.126 1.124.795.795 0 00-1.126-1.124zm-56.957 80.938a.795.795 0 101.126 1.124.795.795 0 00-1.126-1.124zm35.972-35.972a.795.795 0 101.126 1.124.795.795 0 00-1.126-1.124zm-17.986 17.986a.795.795 0 101.126 1.124.795.795 0 00-1.126-1.124zm35.973-35.973a.795.795 0 101.126 1.124.795.795 0 00-1.126-1.124zm-50.961 50.961a.795.795 0 101.123 1.125.795.795 0 00-1.123-1.125zm35.972-35.972a.795.795 0 101.126 1.124.795.795 0 00-1.126-1.124zm-17.986 17.986a.795.795 0 101.126 1.124.795.795 0 00-1.126-1.124zm35.973-35.972a.794.794 0 101.124 1.124.795.795 0 00-1.124-1.124zm-50.962 50.961a.795.795 0 101.126 1.124.795.795 0 00-1.126-1.124zm35.973-35.973a.795.795 0 101.126 1.124.795.795 0 00-1.126-1.124zm-17.986 17.986a.794.794 0 101.124 1.124.795.795 0 00-1.124-1.124zm35.972-35.972a.795.795 0 101.126 1.124.795.795 0 00-1.126-1.124zm-50.961 50.961a.794.794 0 101.124 1.124.795.795 0 00-1.124-1.124zm35.972-35.973a.797.797 0 001.125 1.125.797.797 0 00-1.125-1.125zm-17.985 17.987a.794.794 0 101.124 1.124.795.795 0 00-1.124-1.124zm35.972-35.973a.794.794 0 101.124 1.124.795.795 0 00-1.124-1.124zm-50.961 50.961a.795.795 0 101.126 1.124.795.795 0 00-1.126-1.124zm35.973-35.972a.794.794 0 101.124 1.124.795.795 0 00-1.124-1.124zm-17.987 17.986a.795.795 0 101.126 1.124.795.795 0 00-1.126-1.124zm35.973-35.973a.795.795 0 101.123 1.125.795.795 0 00-1.123-1.125zm-50.962 50.962a.795.795 0 101.126 1.124.795.795 0 00-1.126-1.124zm35.973-35.973a.795.795 0 101.126 1.124.795.795 0 00-1.126-1.124zm-17.986 17.986a.794.794 0 101.124 1.124.795.795 0 00-1.124-1.124zm35.972-35.972a.795.795 0 101.126 1.124.795.795 0 00-1.126-1.124zm-95.926 41.967a.795.795 0 101.124 1.124.795.795 0 00-1.124-1.124zm35.973-35.972a.794.794 0 101.124 1.124.795.795 0 00-1.124-1.124zm-17.986 17.986a.795.795 0 101.126 1.124.795.795 0 00-1.126-1.124zm35.973-35.972a.794.794 0 101.124 1.124.795.795 0 00-1.124-1.124zm-50.962 50.961a.795.795 0 101.126 1.124.795.795 0 00-1.126-1.124zm35.972-35.973a.795.795 0 101.126 1.124.795.795 0 00-1.126-1.124zm-17.985 17.987a.794.794 0 101.124 1.124.795.795 0 00-1.124-1.124zm35.972-35.973a.796.796 0 101.126 1.124.796.796 0 00-1.126-1.124zm-50.961 50.961a.794.794 0 101.124 1.124.795.795 0 00-1.124-1.124zm35.972-35.973a.797.797 0 001.125 1.125.797.797 0 00-1.125-1.125zm-17.986 17.987a.795.795 0 101.126 1.124.795.795 0 00-1.126-1.124zm35.973-35.973a.794.794 0 101.121 1.124.794.794 0 00-1.121-1.124zm-50.962 50.961a.795.795 0 101.124 1.124.795.795 0 00-1.124-1.124zm35.973-35.972a.795.795 0 101.126 1.124.795.795 0 00-1.126-1.124zm-17.986 17.986a.795.795 0 101.126 1.124.795.795 0 00-1.126-1.124zm35.972-35.972a.796.796 0 101.126 1.124.796.796 0 00-1.126-1.124zm-50.961 50.961a.794.794 0 101.124 1.124.795.795 0 00-1.124-1.124zm35.973-35.973a.794.794 0 101.124 1.124.795.795 0 00-1.124-1.124zm-17.986 17.986a.795.795 0 101.123 1.125.795.795 0 00-1.123-1.125zm35.972-35.972a.794.794 0 101.121 1.124.794.794 0 00-1.121-1.124zM214.35 139.37a.794.794 0 101.124 1.124.795.795 0 00-1.124-1.124zm35.973-35.973a.795.795 0 101.123 1.125.795.795 0 00-1.123-1.125zm-17.987 17.987a.795.795 0 101.126 1.124.795.795 0 00-1.126-1.124zm35.973-35.973a.794.794 0 101.121 1.124.794.794 0 00-1.121-1.124zm-50.962 86.934a.795.795 0 101.126 1.124.795.795 0 00-1.126-1.124zm35.973-35.973a.794.794 0 101.124 1.124.795.795 0 00-1.124-1.124zm-17.986 17.986a.795.795 0 101.123 1.125.795.795 0 00-1.123-1.125zm35.972-35.972a.795.795 0 101.126 1.124.795.795 0 00-1.126-1.124zm-50.961 50.961a.795.795 0 101.126 1.124.795.795 0 00-1.126-1.124zm35.973-35.973a.795.795 0 101.123 1.125.795.795 0 00-1.123-1.125zm-17.987 17.987a.795.795 0 101.126 1.124.795.795 0 00-1.126-1.124zm35.973-35.973a.795.795 0 101.126 1.124.795.795 0 00-1.126-1.124zm-50.961 50.961a.794.794 0 101.124 1.124.795.795 0 00-1.124-1.124zm35.972-35.972a.795.795 0 101.126 1.124.795.795 0 00-1.126-1.124zm-17.986 17.986a.795.795 0 101.123 1.124.795.795 0 00-1.123-1.124zm35.973-35.972a.794.794 0 101.124 1.124.795.795 0 00-1.124-1.124zm-50.962 50.961a.795.795 0 101.126 1.124.795.795 0 00-1.126-1.124zm35.973-35.973a.794.794 0 101.124 1.124.795.795 0 00-1.124-1.124zm-17.986 17.986a.795.795 0 101.124 1.124.795.795 0 00-1.124-1.124zm35.972-35.972a.795.795 0 101.126 1.124.795.795 0 00-1.126-1.124zm-50.96 50.961a.794.794 0 101.124 1.124.795.795 0 00-1.124-1.124zm35.972-35.973a.795.795 0 101.123 1.125.795.795 0 00-1.123-1.125zm-17.986 17.987a.794.794 0 101.124 1.124.795.795 0 00-1.124-1.124zm35.972-35.973a.795.795 0 101.126 1.124.795.795 0 00-1.126-1.124zm-50.961 50.961a.795.795 0 101.126 1.124.795.795 0 00-1.126-1.124zm35.972-35.972a.795.795 0 101.126 1.124.795.795 0 00-1.126-1.124zm-17.986 17.986a.795.795 0 101.126 1.124.795.795 0 00-1.126-1.124zm35.973-35.973a.795.795 0 101.123 1.125.795.795 0 00-1.123-1.125zm-56.957 80.939a.795.795 0 101.126 1.124.795.795 0 00-1.126-1.124zm35.972-35.973a.795.795 0 101.126 1.124.795.795 0 00-1.126-1.124zm-17.985 17.986a.795.795 0 101.123 1.125.795.795 0 00-1.123-1.125zm35.972-35.972a.795.795 0 101.126 1.124.795.795 0 00-1.126-1.124zm-50.961 50.961a.794.794 0 101.124 1.124.795.795 0 00-1.124-1.124zm35.972-35.973a.797.797 0 001.125 1.125.797.797 0 00-1.125-1.125zm-17.986 17.987a.795.795 0 101.126 1.124.795.795 0 00-1.126-1.124zm35.973-35.973a.794.794 0 101.124 1.124.795.795 0 00-1.124-1.124zm-50.962 50.961a.795.795 0 101.126 1.124.795.795 0 00-1.126-1.124zm35.973-35.972a.795.795 0 101.126 1.124.795.795 0 00-1.126-1.124zm-17.986 17.986a.795.795 0 101.126 1.124.795.795 0 00-1.126-1.124zm35.972-35.972a.795.795 0 101.126 1.124.795.795 0 00-1.126-1.124zm-50.961 50.961a.795.795 0 101.126 1.124.795.795 0 00-1.126-1.124zm35.973-35.973a.794.794 0 101.124 1.124.795.795 0 00-1.124-1.124zm-17.986 17.986a.794.794 0 101.124 1.124.795.795 0 00-1.124-1.124zm35.972-35.972a.794.794 0 101.124 1.124.795.795 0 00-1.124-1.124zm-50.961 50.961a.795.795 0 101.126 1.124.795.795 0 00-1.126-1.124zm35.973-35.973a.794.794 0 101.124 1.124.795.795 0 00-1.124-1.124zm-17.987 17.987a.795.795 0 101.126 1.124.795.795 0 00-1.126-1.124zm35.973-35.973a.794.794 0 101.124 1.124.795.795 0 00-1.124-1.124zm-50.961 50.961a.795.795 0 101.126 1.124.795.795 0 00-1.126-1.124zm35.973-35.972a.794.794 0 101.124 1.124.795.795 0 00-1.124-1.124zm-17.987 17.986a.794.794 0 101.124 1.124.795.795 0 00-1.124-1.124zm35.972-35.973a.795.795 0 101.126 1.124.795.795 0 00-1.126-1.124zm-59.954 77.941a.795.795 0 101.126 1.124.795.795 0 00-1.126-1.124zm35.973-35.973a.794.794 0 101.124 1.124.795.795 0 00-1.124-1.124zm-17.986 17.987a.794.794 0 101.124 1.124.795.795 0 00-1.124-1.124zm35.972-35.973a.795.795 0 101.126 1.124.795.795 0 00-1.126-1.124zm-50.961 50.961a.795.795 0 101.123 1.124.795.795 0 00-1.123-1.124zm35.973-35.972a.794.794 0 101.124 1.124.795.795 0 00-1.124-1.124zm-17.987 17.986a.795.795 0 101.126 1.124.795.795 0 00-1.126-1.124zm35.973-35.973a.794.794 0 101.124 1.124.795.795 0 00-1.124-1.124zm-50.962 50.961a.797.797 0 001.125 1.125.797.797 0 00-1.125-1.125zm35.973-35.972a.795.795 0 101.126 1.124.795.795 0 00-1.126-1.124zm-17.986 17.986a.794.794 0 101.124 1.124.795.795 0 00-1.124-1.124zm35.972-35.972a.795.795 0 101.126 1.124.795.795 0 00-1.126-1.124zm-50.961 50.961a.795.795 0 101.126 1.124.795.795 0 00-1.126-1.124zm35.973-35.973a.794.794 0 101.124 1.124.795.795 0 00-1.124-1.124zm-17.986 17.987a.794.794 0 101.124 1.124.795.795 0 00-1.124-1.124zm35.972-35.973a.795.795 0 101.126 1.124.795.795 0 00-1.126-1.124zm-50.96 50.961a.794.794 0 101.124 1.124.795.795 0 00-1.124-1.124zm35.971-35.972a.795.795 0 101.126 1.124.795.795 0 00-1.126-1.124zm-17.986 17.986a.795.795 0 101.126 1.124.795.795 0 00-1.126-1.124zm35.973-35.973a.795.795 0 101.126 1.124.795.795 0 00-1.126-1.124zM253.32 178.34a.794.794 0 101.124 1.124.795.795 0 00-1.124-1.124zm35.972-35.972a.795.795 0 101.126 1.124.795.795 0 00-1.126-1.124zm-17.986 17.986a.795.795 0 101.126 1.124.795.795 0 00-1.126-1.124zm35.973-35.972a.794.794 0 101.124 1.124.795.795 0 00-1.124-1.124zm-104.92 32.974a.794.794 0 101.124 1.124.795.795 0 00-1.124-1.124zm35.972-35.972a.794.794 0 101.124 1.124.795.795 0 00-1.124-1.124zm-17.986 17.986a.794.794 0 101.124 1.124.795.795 0 00-1.124-1.124zm35.973-35.973a.795.795 0 101.123 1.125.795.795 0 00-1.123-1.125zm-50.962 50.962a.795.795 0 101.126 1.124.795.795 0 00-1.126-1.124zm35.973-35.973a.795.795 0 101.123 1.124.795.795 0 00-1.123-1.124zm-17.986 17.986a.795.795 0 101.123 1.125.795.795 0 00-1.123-1.125zm35.972-35.972a.795.795 0 101.126 1.124.795.795 0 00-1.126-1.124zm-50.961 50.961a.794.794 0 101.124 1.124.795.795 0 00-1.124-1.124zm35.972-35.973a.795.795 0 101.126 1.124.795.795 0 00-1.126-1.124zm-17.985 17.987a.794.794 0 101.124 1.124.795.795 0 00-1.124-1.124zm35.972-35.973a.794.794 0 101.121 1.124.794.794 0 00-1.121-1.124zm-50.962 50.961a.795.795 0 101.126 1.124.795.795 0 00-1.126-1.124zm35.973-35.972a.795.795 0 101.126 1.124.795.795 0 00-1.126-1.124zm-17.986 17.986a.795.795 0 101.126 1.124.795.795 0 00-1.126-1.124zm35.972-35.973a.796.796 0 101.126 1.125.796.796 0 00-1.126-1.125zm-50.96 50.961a.795.795 0 101.123 1.125.795.795 0 00-1.123-1.125zm35.972-35.972a.794.794 0 101.124 1.124.795.795 0 00-1.124-1.124zm-17.986 17.986a.794.794 0 101.124 1.124.795.795 0 00-1.124-1.124zm35.972-35.972a.796.796 0 101.126 1.124.796.796 0 00-1.126-1.124zm-50.961 50.961a.795.795 0 101.126 1.124.795.795 0 00-1.126-1.124zm35.973-35.973a.795.795 0 101.126 1.124.795.795 0 00-1.126-1.124zm-17.987 17.986a.795.795 0 101.124 1.124.795.795 0 00-1.124-1.124zm35.973-35.972a.796.796 0 101.126 1.124.796.796 0 00-1.126-1.124zm-50.96 86.934a.794.794 0 101.124 1.124.795.795 0 00-1.124-1.124zm35.972-35.973a.794.794 0 101.124 1.124.795.795 0 00-1.124-1.124zm-17.986 17.986a.794.794 0 101.124 1.124.795.795 0 00-1.124-1.124zm35.973-35.972a.794.794 0 101.124 1.124.795.795 0 00-1.124-1.124zm-50.962 50.961a.795.795 0 101.126 1.124.795.795 0 00-1.126-1.124zm35.973-35.973a.794.794 0 101.124 1.124.795.795 0 00-1.124-1.124zm-17.987 17.987a.795.795 0 101.126 1.124.795.795 0 00-1.126-1.124zm35.973-35.973a.795.795 0 101.126 1.124.795.795 0 00-1.126-1.124zm-50.961 50.961a.794.794 0 101.124 1.124.795.795 0 00-1.124-1.124zm35.972-35.972a.795.795 0 101.126 1.124.795.795 0 00-1.126-1.124zm-17.986 17.986a.795.795 0 101.126 1.124.795.795 0 00-1.126-1.124zm35.973-35.973a.795.795 0 101.123 1.125.795.795 0 00-1.123-1.125zm-50.961 50.962a.794.794 0 101.124 1.124.795.795 0 00-1.124-1.124zm35.972-35.973a.794.794 0 101.124 1.124.795.795 0 00-1.124-1.124zm-17.986 17.986a.795.795 0 101.126 1.124.795.795 0 00-1.126-1.124zm35.972-35.972a.795.795 0 101.126 1.124.795.795 0 00-1.126-1.124zm-50.96 50.961a.794.794 0 101.124 1.124.795.795 0 00-1.124-1.124zm35.972-35.973a.794.794 0 101.124 1.124.795.795 0 00-1.124-1.124zm-17.986 17.987a.794.794 0 101.124 1.124.795.795 0 00-1.124-1.124zm35.972-35.973a.795.795 0 101.126 1.124.795.795 0 00-1.126-1.124zm-50.961 50.961a.795.795 0 101.126 1.124.795.795 0 00-1.126-1.124zm35.972-35.972a.795.795 0 101.126 1.124.795.795 0 00-1.126-1.124zm-17.986 17.986a.795.795 0 101.126 1.124.795.795 0 00-1.126-1.124zm35.973-35.973a.794.794 0 101.124 1.124.795.795 0 00-1.124-1.124zm-56.957 80.939a.794.794 0 101.124 1.124.795.795 0 00-1.124-1.124zm35.972-35.973a.795.795 0 101.126 1.124.795.795 0 00-1.126-1.124zm-17.986 17.986a.795.795 0 101.126 1.124.795.795 0 00-1.126-1.124zm35.973-35.972a.794.794 0 101.124 1.124.795.795 0 00-1.124-1.124zm-50.962 50.961a.795.795 0 101.126 1.124.795.795 0 00-1.126-1.124zm35.973-35.973a.795.795 0 101.126 1.124.795.795 0 00-1.126-1.124zM253.32 166.35a.794.794 0 101.124 1.124.795.795 0 00-1.124-1.124zm35.972-35.973a.795.795 0 101.126 1.124.795.795 0 00-1.126-1.124zm-50.961 50.961a.794.794 0 101.124 1.124.795.795 0 00-1.124-1.124zm35.973-35.972a.794.794 0 101.124 1.124.795.795 0 00-1.124-1.124zm-17.987 17.986a.795.795 0 101.126 1.124.795.795 0 00-1.126-1.124zm35.973-35.973a.795.795 0 101.123 1.125.795.795 0 00-1.123-1.125zm-50.962 50.961a.797.797 0 001.125 1.125.797.797 0 00-1.125-1.125zm35.973-35.972a.795.795 0 101.126 1.124.795.795 0 00-1.126-1.124zm-17.986 17.986a.795.795 0 101.126 1.124.795.795 0 00-1.126-1.124zm35.972-35.972a.795.795 0 101.126 1.124.795.795 0 00-1.126-1.124zm-50.961 50.961a.795.795 0 101.126 1.124.795.795 0 00-1.126-1.124zm35.973-35.973a.794.794 0 101.124 1.124.795.795 0 00-1.124-1.124zm-17.986 17.986a.795.795 0 101.123 1.125.795.795 0 00-1.123-1.125zm35.972-35.972a.795.795 0 101.126 1.124.795.795 0 00-1.126-1.124zm-50.961 50.961a.795.795 0 101.126 1.124.795.795 0 00-1.126-1.124zm35.973-35.973a.795.795 0 101.123 1.125.795.795 0 00-1.123-1.125zm-17.987 17.987a.795.795 0 101.126 1.124.795.795 0 00-1.126-1.124zm35.973-35.973a.795.795 0 101.126 1.124.795.795 0 00-1.126-1.124zm-59.954 77.94a.797.797 0 001.125 1.125.797.797 0 00-1.125-1.125zm35.973-35.972a.794.794 0 101.124 1.124.795.795 0 00-1.124-1.124zm-17.986 17.986a.794.794 0 101.124 1.124.795.795 0 00-1.124-1.124zm35.972-35.972a.795.795 0 101.126 1.124.795.795 0 00-1.126-1.124zm-50.961 50.961a.795.795 0 101.126 1.124.795.795 0 00-1.126-1.124zm35.973-35.973a.794.794 0 101.124 1.124.795.795 0 00-1.124-1.124zm-17.987 17.987a.795.795 0 101.126 1.124.795.795 0 00-1.126-1.124zm35.973-35.973a.795.795 0 101.126 1.124.795.795 0 00-1.126-1.124zm-50.961 50.961a.794.794 0 101.124 1.124.795.795 0 00-1.124-1.124zm35.972-35.973a.795.795 0 101.124 1.124.795.795 0 00-1.124-1.124zm-17.986 17.987a.794.794 0 101.124 1.124.795.795 0 00-1.124-1.124zm35.973-35.973a.795.795 0 101.123 1.125.795.795 0 00-1.123-1.125zm-50.961 50.961a.795.795 0 101.123 1.125.795.795 0 00-1.123-1.125zm35.972-35.972a.794.794 0 101.124 1.124.795.795 0 00-1.124-1.124zm-17.986 17.986a.794.794 0 101.124 1.124.795.795 0 00-1.124-1.124zm35.972-35.972a.795.795 0 101.126 1.124.795.795 0 00-1.126-1.124zm-50.96 50.961a.794.794 0 101.124 1.124.795.795 0 00-1.124-1.124zm35.972-35.973a.794.794 0 101.124 1.124.795.795 0 00-1.124-1.124zm-17.987 17.986a.797.797 0 001.125 1.125.797.797 0 00-1.125-1.125zm35.973-35.972a.795.795 0 101.126 1.124.795.795 0 00-1.126-1.124zm-50.961 50.961a.795.795 0 101.126 1.124.795.795 0 00-1.126-1.124zm35.972-35.973a.795.795 0 101.124 1.124.795.795 0 00-1.124-1.124zm-17.986 17.987a.795.795 0 101.126 1.124.795.795 0 00-1.126-1.124zm35.973-35.973a.794.794 0 101.124 1.124.795.795 0 00-1.124-1.124zm-56.957 80.938a.795.795 0 101.123 1.125.795.795 0 00-1.123-1.125zm35.972-35.972a.794.794 0 101.124 1.124.795.795 0 00-1.124-1.124zm-17.986 17.986a.795.795 0 101.126 1.124.795.795 0 00-1.126-1.124zm35.973-35.972a.794.794 0 101.124 1.124.795.795 0 00-1.124-1.124zm-50.962 50.961a.795.795 0 101.126 1.124.795.795 0 00-1.126-1.124zm35.973-35.973a.794.794 0 101.124 1.124.795.795 0 00-1.124-1.124zm-17.986 17.987a.794.794 0 101.124 1.124.795.795 0 00-1.124-1.124zm35.972-35.973a.795.795 0 101.126 1.124.795.795 0 00-1.126-1.124zm-50.961 50.961a.794.794 0 101.124 1.124.795.795 0 00-1.124-1.124zm35.972-35.973a.797.797 0 001.125 1.125.797.797 0 00-1.125-1.125zm-17.986 17.987a.795.795 0 101.126 1.124.795.795 0 00-1.126-1.124zm35.973-35.973a.794.794 0 101.124 1.124.795.795 0 00-1.124-1.124zm-50.962 50.961a.795.795 0 101.124 1.124.795.795 0 00-1.124-1.124zm35.973-35.972a.795.795 0 101.126 1.124.795.795 0 00-1.126-1.124zm-17.986 17.986a.795.795 0 101.126 1.124.795.795 0 00-1.126-1.124zm35.972-35.972a.795.795 0 101.126 1.124.795.795 0 00-1.126-1.124zm-50.96 50.961a.794.794 0 101.124 1.124.795.795 0 00-1.124-1.124zm35.972-35.973a.794.794 0 101.124 1.124.795.795 0 00-1.124-1.124zm-17.986 17.986a.795.795 0 101.123 1.125.795.795 0 00-1.123-1.125zm35.972-35.972a.795.795 0 101.126 1.124.795.795 0 00-1.126-1.124zm-50.961 50.961a.795.795 0 101.126 1.124.795.795 0 00-1.126-1.124zm35.973-35.973a.795.795 0 101.123 1.125.795.795 0 00-1.123-1.125zm-17.987 17.987a.795.795 0 101.126 1.124.795.795 0 00-1.126-1.124zm35.973-35.973a.794.794 0 101.124 1.124.795.795 0 00-1.124-1.124zm-74.942 62.952a.795.795 0 101.126 1.124.795.795 0 00-1.126-1.124zm35.972-35.973a.795.795 0 101.124 1.124.795.795 0 00-1.124-1.124zm-17.986 17.987a.795.795 0 101.126 1.124.795.795 0 00-1.126-1.124zm35.973-35.973a.795.795 0 101.126 1.124.795.795 0 00-1.126-1.124zm-50.961 50.961a.795.795 0 101.123 1.125.795.795 0 00-1.123-1.125zm35.972-35.972a.795.795 0 101.126 1.124.795.795 0 00-1.126-1.124zm-17.986 17.986a.794.794 0 101.124 1.124.795.795 0 00-1.124-1.124zm35.973-35.973a.795.795 0 101.123 1.125.795.795 0 00-1.123-1.125zm-50.962 50.961a.795.795 0 101.124 1.124.795.795 0 00-1.124-1.124zm35.973-35.972a.794.794 0 101.124 1.124.795.795 0 00-1.124-1.124zm-17.987 17.986a.795.795 0 101.126 1.124.795.795 0 00-1.126-1.124zm35.973-35.972a.795.795 0 101.126 1.124.795.795 0 00-1.126-1.124zm-50.961 50.961a.794.794 0 101.124 1.124.795.795 0 00-1.124-1.124zm35.972-35.973a.795.795 0 101.124 1.124.795.795 0 00-1.124-1.124zm-17.985 17.987a.794.794 0 101.124 1.124.795.795 0 00-1.124-1.124zm35.972-35.973a.794.794 0 101.124 1.124.795.795 0 00-1.124-1.124zm-50.961 50.961a.795.795 0 101.126 1.124.795.795 0 00-1.126-1.124zm35.972-35.972a.794.794 0 101.124 1.124.795.795 0 00-1.124-1.124zm-17.986 17.986a.795.795 0 101.126 1.124.795.795 0 00-1.126-1.124zm35.973-35.973a.795.795 0 101.123 1.125.795.795 0 00-1.123-1.125zm-50.962 50.961a.795.795 0 101.124 1.124.795.795 0 00-1.124-1.124zm35.973-35.972a.795.795 0 101.126 1.124.795.795 0 00-1.126-1.124zM280.3 169.347a.794.794 0 101.124 1.124.795.795 0 00-1.124-1.124zm35.972-35.972a.795.795 0 101.126 1.124.795.795 0 00-1.126-1.124zm-110.915 26.979a.795.795 0 101.126 1.124.795.795 0 00-1.126-1.124zm35.972-35.973a.797.797 0 001.125 1.125.797.797 0 00-1.125-1.125zm-17.985 17.987a.794.794 0 101.124 1.124.795.795 0 00-1.124-1.124zm35.972-35.973a.795.795 0 101.126 1.124.795.795 0 00-1.126-1.124zm-50.961 50.961a.794.794 0 101.124 1.124.795.795 0 00-1.124-1.124zm35.972-35.972a.795.795 0 101.126 1.124.795.795 0 00-1.126-1.124zm-17.986 17.986a.795.795 0 101.126 1.124.795.795 0 00-1.126-1.124zm35.973-35.973a.795.795 0 101.123 1.125.795.795 0 00-1.123-1.125zm-50.962 50.961a.797.797 0 001.125 1.125.797.797 0 00-1.125-1.125zm35.973-35.972a.795.795 0 101.126 1.124.795.795 0 00-1.126-1.124zm-17.986 17.986a.794.794 0 101.124 1.124.795.795 0 00-1.124-1.124zm35.972-35.972a.795.795 0 101.126 1.124.795.795 0 00-1.126-1.124zm-50.961 50.961a.794.794 0 101.124 1.124.795.795 0 00-1.124-1.124zm35.973-35.973a.794.794 0 101.124 1.124.795.795 0 00-1.124-1.124zm-17.986 17.987a.794.794 0 101.124 1.124.795.795 0 00-1.124-1.124zm35.972-35.973a.794.794 0 101.121 1.124.794.794 0 00-1.121-1.124zm-50.961 50.961a.795.795 0 101.126 1.124.795.795 0 00-1.126-1.124zm35.973-35.972a.794.794 0 101.124 1.124.795.795 0 00-1.124-1.124zm-17.987 17.986a.795.795 0 101.126 1.124.795.795 0 00-1.126-1.124zm35.973-35.973a.796.796 0 101.126 1.124.796.796 0 00-1.126-1.124zm-50.961 50.961a.795.795 0 101.123 1.125.795.795 0 00-1.123-1.125zm35.972-35.972a.795.795 0 101.126 1.124.795.795 0 00-1.126-1.124zm-17.986 17.986a.794.794 0 101.124 1.124.795.795 0 00-1.124-1.124zm35.973-35.972a.794.794 0 101.121 1.124.794.794 0 00-1.121-1.124zm-50.962 86.933a.795.795 0 101.126 1.124.795.795 0 00-1.126-1.124zm35.972-35.972a.795.795 0 101.126 1.124.795.795 0 00-1.126-1.124zm-17.986 17.986a.795.795 0 101.126 1.124.795.795 0 00-1.126-1.124zm35.973-35.973a.795.795 0 101.124 1.124.795.795 0 00-1.124-1.124zm-50.961 50.962a.794.794 0 101.124 1.124.795.795 0 00-1.124-1.124zm35.972-35.973a.795.795 0 101.126 1.124.795.795 0 00-1.126-1.124zm-17.986 17.986a.795.795 0 101.126 1.124.795.795 0 00-1.126-1.124zm35.973-35.972a.794.794 0 101.124 1.124.795.795 0 00-1.124-1.124zm-50.962 50.961a.795.795 0 101.126 1.124.795.795 0 00-1.126-1.124zm35.973-35.973a.794.794 0 101.124 1.124.795.795 0 00-1.124-1.124zm-17.986 17.986a.795.795 0 101.123 1.125.795.795 0 00-1.123-1.125zm35.972-35.972a.795.795 0 101.126 1.124.795.795 0 00-1.126-1.124zm-50.961 50.961a.794.794 0 101.124 1.124.795.795 0 00-1.124-1.124zm35.972-35.972a.795.795 0 101.126 1.124.795.795 0 00-1.126-1.124zm-17.985 17.986a.794.794 0 101.124 1.124.795.795 0 00-1.124-1.124zm35.972-35.973a.794.794 0 101.124 1.124.795.795 0 00-1.124-1.124zm-50.961 50.961a.795.795 0 101.123 1.125.795.795 0 00-1.123-1.125zm35.972-35.972a.795.795 0 101.126 1.124.795.795 0 00-1.126-1.124zm-17.986 17.986a.795.795 0 101.126 1.124.795.795 0 00-1.126-1.124zm35.973-35.972a.794.794 0 101.124 1.124.795.795 0 00-1.124-1.124zm-50.962 50.961a.795.795 0 101.126 1.124.795.795 0 00-1.126-1.124zm35.973-35.973a.795.795 0 101.126 1.124.795.795 0 00-1.126-1.124zm-17.986 17.986a.795.795 0 101.123 1.125.795.795 0 00-1.123-1.125zm35.972-35.972a.795.795 0 101.126 1.124.795.795 0 00-1.126-1.124zm-56.956 80.938a.794.794 0 101.124 1.124.795.795 0 00-1.124-1.124zm35.972-35.973a.795.795 0 101.124 1.124.795.795 0 00-1.124-1.124zm-17.986 17.987a.795.795 0 101.126 1.124.795.795 0 00-1.126-1.124zm35.973-35.973a.794.794 0 101.124 1.124.795.795 0 00-1.124-1.124zm-50.962 50.961a.797.797 0 001.125 1.125.797.797 0 00-1.125-1.125zm35.973-35.972a.795.795 0 101.126 1.124.795.795 0 00-1.126-1.124zm-17.986 17.986a.794.794 0 101.124 1.124.795.795 0 00-1.124-1.124zm35.972-35.973a.795.795 0 101.124 1.124.795.795 0 00-1.124-1.124zm-50.961 50.962a.795.795 0 101.123 1.124.795.795 0 00-1.123-1.124zm35.973-35.973a.794.794 0 101.124 1.124.795.795 0 00-1.124-1.124zm-17.987 17.986a.795.795 0 101.126 1.124.795.795 0 00-1.126-1.124zm35.973-35.972a.794.794 0 101.124 1.124.795.795 0 00-1.124-1.124zm-50.962 50.961a.795.795 0 101.126 1.124.795.795 0 00-1.126-1.124zm35.973-35.973a.795.795 0 101.124 1.124.795.795 0 00-1.124-1.124zm-17.986 17.987a.795.795 0 101.126 1.124.795.795 0 00-1.126-1.124zm35.972-35.973a.795.795 0 101.126 1.124.795.795 0 00-1.126-1.124zm-50.96 50.961a.795.795 0 101.126 1.124.795.795 0 00-1.126-1.124zm35.972-35.972a.795.795 0 101.126 1.124.795.795 0 00-1.126-1.124zm-17.986 17.986a.794.794 0 101.124 1.124.795.795 0 00-1.124-1.124zm35.973-35.973a.795.795 0 101.123 1.125.795.795 0 00-1.123-1.125zm-50.962 50.961a.795.795 0 101.124 1.124.795.795 0 00-1.124-1.124zm35.973-35.972a.794.794 0 101.124 1.124.795.795 0 00-1.124-1.124zm-17.987 17.986a.795.795 0 101.126 1.124.795.795 0 00-1.126-1.124zm35.973-35.972a.795.795 0 101.126 1.124.795.795 0 00-1.126-1.124zm-59.954 77.94a.795.795 0 101.126 1.124.795.795 0 00-1.126-1.124zm35.972-35.972a.795.795 0 101.126 1.124.795.795 0 00-1.126-1.124zm-17.986 17.986a.795.795 0 101.126 1.124.795.795 0 00-1.126-1.124zm35.973-35.972a.795.795 0 101.126 1.124.795.795 0 00-1.126-1.124zm-50.961 50.961a.794.794 0 101.124 1.124.795.795 0 00-1.124-1.124zm35.972-35.973a.795.795 0 101.126 1.124.795.795 0 00-1.126-1.124zm-17.986 17.987a.794.794 0 101.124 1.124.795.795 0 00-1.124-1.124zm35.973-35.973a.794.794 0 101.124 1.124.795.795 0 00-1.124-1.124zm-50.962 50.961a.795.795 0 101.126 1.124.795.795 0 00-1.126-1.124zm35.973-35.973a.794.794 0 101.124 1.124.795.795 0 00-1.124-1.124zm-17.987 17.987a.795.795 0 101.126 1.124.795.795 0 00-1.126-1.124zm35.973-35.973a.795.795 0 101.126 1.124.795.795 0 00-1.126-1.124zm-50.961 50.961a.794.794 0 101.124 1.124.795.795 0 00-1.124-1.124zm35.972-35.972a.795.795 0 101.126 1.124.795.795 0 00-1.126-1.124zm-17.986 17.986a.795.795 0 101.126 1.124.795.795 0 00-1.126-1.124zm35.973-35.972a.794.794 0 101.124 1.124.795.795 0 10-1.124-1.124zm-50.961 50.961a.794.794 0 101.124 1.124.795.795 0 00-1.124-1.124zm35.972-35.973a.794.794 0 101.124 1.124.795.795 0 00-1.124-1.124zm-17.986 17.986a.795.795 0 101.126 1.124.795.795 0 00-1.126-1.124zm35.973-35.972a.794.794 0 101.124 1.124.795.795 0 00-1.124-1.124zm-50.962 50.961a.795.795 0 101.126 1.124.795.795 0 00-1.126-1.124zm35.973-35.973a.794.794 0 101.124 1.124.795.795 0 00-1.124-1.124zm-17.986 17.987a.794.794 0 101.124 1.124.795.795 0 00-1.124-1.124zm35.972-35.973a.795.795 0 101.126 1.124.795.795 0 00-1.126-1.124zm-56.956 80.938a.794.794 0 101.124 1.124.795.795 0 00-1.124-1.124zm35.972-35.972a.794.794 0 101.124 1.124.795.795 0 00-1.124-1.124zm-17.986 17.986a.795.795 0 101.126 1.124.795.795 0 00-1.126-1.124zm35.973-35.973a.794.794 0 101.124 1.124.795.795 0 00-1.124-1.124zm-50.962 50.962a.795.795 0 101.126 1.124.795.795 0 00-1.126-1.124zm35.973-35.973a.794.794 0 101.124 1.124.795.795 0 00-1.124-1.124zm-17.986 17.986a.794.794 0 101.124 1.124.795.795 0 00-1.124-1.124zm35.972-35.972a.795.795 0 101.126 1.124.795.795 0 00-1.126-1.124zm-50.961 50.961a.794.794 0 101.124 1.124.795.795 0 00-1.124-1.124zm35.972-35.973a.795.795 0 101.126 1.124.795.795 0 00-1.126-1.124zM280.3 187.334a.794.794 0 101.124 1.124.795.795 0 00-1.124-1.124zm35.972-35.973a.794.794 0 101.124 1.124.795.795 0 00-1.124-1.124zm-50.962 50.961a.795.795 0 101.126 1.124.795.795 0 00-1.126-1.124zm35.973-35.972a.795.795 0 101.126 1.124.795.795 0 00-1.126-1.124zm-17.986 17.986a.795.795 0 101.126 1.124.795.795 0 00-1.126-1.124zm35.972-35.973a.795.795 0 101.126 1.124.795.795 0 00-1.126-1.124zm-50.96 50.961a.795.795 0 101.123 1.125.795.795 0 00-1.123-1.125zm35.972-35.972a.795.795 0 101.126 1.124.795.795 0 00-1.126-1.124zm-17.986 17.986a.794.794 0 101.124 1.124.795.795 0 00-1.124-1.124zm35.972-35.972a.795.795 0 101.126 1.124.795.795 0 00-1.126-1.124zm-50.961 50.961a.795.795 0 101.126 1.124.795.795 0 00-1.126-1.124zm35.973-35.973a.795.795 0 101.126 1.124.795.795 0 00-1.126-1.124zm-17.987 17.986a.795.795 0 101.124 1.124.795.795 0 00-1.124-1.124zm35.973-35.972a.795.795 0 101.126 1.124.795.795 0 00-1.126-1.124zm-65.95 71.945a.795.795 0 101.126 1.124.795.795 0 00-1.126-1.124zm35.972-35.973a.795.795 0 101.126 1.124.795.795 0 00-1.126-1.124zm-17.985 17.987a.794.794 0 101.124 1.124.795.795 0 00-1.124-1.124zm35.972-35.973a.795.795 0 101.126 1.124.795.795 0 00-1.126-1.124zm-50.961 50.961a.794.794 0 101.124 1.124.795.795 0 00-1.124-1.124zm35.972-35.972a.795.795 0 101.126 1.124.795.795 0 00-1.126-1.124zm-17.986 17.986a.795.795 0 101.126 1.124.795.795 0 00-1.126-1.124zm35.973-35.973a.794.794 0 101.124 1.124.795.795 0 00-1.124-1.124zm-50.962 50.961a.795.795 0 101.126 1.124.795.795 0 00-1.126-1.124zm35.973-35.972a.795.795 0 101.126 1.124.795.795 0 00-1.126-1.124zm-17.986 17.986a.794.794 0 101.124 1.124.795.795 0 00-1.124-1.124zm35.972-35.972a.795.795 0 101.126 1.124.795.795 0 00-1.126-1.124zm-50.961 50.961a.795.795 0 101.126 1.124.795.795 0 00-1.126-1.124zm35.973-35.973a.795.795 0 101.126 1.124.795.795 0 00-1.126-1.124zm-17.986 17.986a.795.795 0 101.123 1.125.795.795 0 00-1.123-1.125zm35.972-35.972a.794.794 0 101.124 1.124.795.795 0 00-1.124-1.124zm-50.961 50.961a.795.795 0 101.126 1.124.795.795 0 00-1.126-1.124zm35.973-35.973a.795.795 0 101.123 1.125.795.795 0 00-1.123-1.125zm-17.987 17.987a.795.795 0 101.126 1.124.795.795 0 00-1.126-1.124zm35.973-35.973a.795.795 0 101.126 1.124.795.795 0 00-1.126-1.124zm-50.961 50.961a.795.795 0 101.126 1.124.795.795 0 00-1.126-1.124zm35.972-35.972a.795.795 0 101.126 1.124.795.795 0 00-1.126-1.124zm-17.986 17.986a.794.794 0 101.124 1.124.795.795 0 00-1.124-1.124zm35.973-35.973a.795.795 0 101.123 1.125.795.795 0 00-1.123-1.125zm-77.94 59.955a.794.794 0 101.124 1.124.795.795 0 00-1.124-1.124zm35.972-35.973a.794.794 0 101.124 1.124.795.795 0 00-1.124-1.124zm-17.986 17.986a.795.795 0 101.123 1.125.795.795 0 00-1.123-1.125zm35.973-35.972a.794.794 0 101.124 1.124.795.795 0 00-1.124-1.124zm-50.962 50.961a.795.795 0 101.126 1.124.795.795 0 00-1.126-1.124zm35.973-35.973a.795.795 0 101.123 1.125.795.795 0 00-1.123-1.125zm-17.987 17.987a.795.795 0 101.126 1.124.795.795 0 00-1.126-1.124zm35.973-35.973a.795.795 0 101.126 1.124.795.795 0 00-1.126-1.124zm-50.961 50.961a.794.794 0 101.124 1.124.795.795 0 00-1.124-1.124zm35.972-35.972a.795.795 0 101.126 1.124.795.795 0 00-1.126-1.124zm-17.986 17.986a.795.795 0 101.126 1.124.795.795 0 00-1.126-1.124zm35.973-35.972a.794.794 0 101.124 1.124.795.795 0 00-1.124-1.124zm-50.962 50.961a.795.795 0 101.126 1.124.795.795 0 00-1.126-1.124zm35.973-35.973a.794.794 0 101.124 1.124.795.795 0 00-1.124-1.124zm-17.986 17.986a.795.795 0 101.124 1.124.795.795 0 00-1.124-1.124zm35.972-35.972a.795.795 0 101.126 1.124.795.795 0 00-1.126-1.124zm-50.96 50.961a.794.794 0 101.124 1.124.795.795 0 00-1.124-1.124zm35.972-35.973a.795.795 0 101.126 1.124.795.795 0 00-1.126-1.124zM280.3 175.343a.794.794 0 101.124 1.124.795.795 0 00-1.124-1.124zm35.972-35.973a.795.795 0 101.126 1.124.795.795 0 00-1.126-1.124zm-50.961 50.961a.795.795 0 101.126 1.124.795.795 0 00-1.126-1.124zm35.973-35.972a.794.794 0 101.124 1.124.795.795 0 00-1.124-1.124zm-17.987 17.986a.795.795 0 101.126 1.124.795.795 0 00-1.126-1.124zm35.973-35.973a.794.794 0 101.124 1.124.795.795 0 00-1.124-1.124z" opacity=".2" fill="#1B75BB"/><g filter="url(#filter0_d)"><rect x="-193" y="627.341" width="444.545" height="444.545" rx="22.835" transform="rotate(-45 -193 627.341)" fill="url(#paint2_linear)"/></g><g filter="url(#filter1_d)"><rect x="-153.66" y="627.341" width="388.91" height="388.91" rx="5.764" transform="rotate(-45 -153.66 627.341)" fill="#fff"/></g><g opacity=".5"><g filter="url(#filter2_d)"><rect x="-59" y="34.659" width="220.135" height="220.135" rx="15" transform="rotate(-45 -59 34.659)" fill="url(#paint3_linear)"/></g><g filter="url(#filter3_d)"><rect x="-39.519" y="34.659" width="192.585" height="192.585" rx="5" transform="rotate(-45 -39.519 34.659)" fill="#fff"/></g></g><g filter="url(#filter4_d)"><path fill="#0073B8" d="M0 755h375v880H0z"/></g><g filter="url(#filter5_d)"><path fill="#fff" d="M0-60h375V0H0z"/></g></g><defs><filter id="filter0_d" x="-217.794" y="290.489" width="678.271" height="678.27" filterUnits="userSpaceOnUse" color-interpolation-filters="sRGB"><feFlood flood-opacity="0" result="BackgroundImageFix"/><feColorMatrix in="SourceAlpha" values="0 0 0 0 0 0 0 0 0 0 0 0 0 0 0 0 0 0 127 0" result="hardAlpha"/><feOffset dy="2.284"/><feGaussianBlur stdDeviation="17.126"/><feComposite in2="hardAlpha" operator="out"/><feColorMatrix values="0 0 0 0 0 0 0 0 0 0 0 0 0 0 0 0 0 0 0.15 0"/><feBlend in2="BackgroundImageFix" result="effect1_dropShadow"/><feBlend in="SourceGraphic" in2="effect1_dropShadow" result="shape"/></filter><filter id="filter1_d" x="-185.855" y="322.451" width="614.391" height="614.391" filterUnits="userSpaceOnUse" color-interpolation-filters="sRGB"><feFlood flood-opacity="0" result="BackgroundImageFix"/><feColorMatrix in="SourceAlpha" values="0 0 0 0 0 0 0 0 0 0 0 0 0 0 0 0 0 0 127 0" result="hardAlpha"/><feOffset dy="2.305"/><feGaussianBlur stdDeviation="17.291"/><feComposite in2="hardAlpha" operator="out"/><feColorMatrix values="0 0 0 0 0 0 0 0 0 0 0 0 0 0 0 0 0 0 0.15 0"/><feBlend in2="BackgroundImageFix" result="effect1_dropShadow"/><feBlend in="SourceGraphic" in2="effect1_dropShadow" result="shape"/></filter><filter id="filter2_d" x="-93.253" y="-152.969" width="379.823" height="379.823" filterUnits="userSpaceOnUse" color-interpolation-filters="sRGB"><feFlood flood-opacity="0" result="BackgroundImageFix"/><feColorMatrix in="SourceAlpha" values="0 0 0 0 0 0 0 0 0 0 0 0 0 0 0 0 0 0 127 0" result="hardAlpha"/><feOffset dy="2.284"/><feGaussianBlur stdDeviation="17.126"/><feComposite in2="hardAlpha" operator="out"/><feColorMatrix values="0 0 0 0 0 0 0 0 0 0 0 0 0 0 0 0 0 0 0.15 0"/><feBlend in2="BackgroundImageFix" result="effect1_dropShadow"/><feBlend in="SourceGraphic" in2="effect1_dropShadow" result="shape"/></filter><filter id="filter3_d" x="-74.101" y="-133.796" width="341.52" height="341.52" filterUnits="userSpaceOnUse" color-interpolation-filters="sRGB"><feFlood flood-opacity="0" result="BackgroundImageFix"/><feColorMatrix in="SourceAlpha" values="0 0 0 0 0 0 0 0 0 0 0 0 0 0 0 0 0 0 127 0" result="hardAlpha"/><feOffset dy="2.305"/><feGaussianBlur stdDeviation="17.291"/><feComposite in2="hardAlpha" operator="out"/><feColorMatrix values="0 0 0 0 0 0 0 0 0 0 0 0 0 0 0 0 0 0 0.15 0"/><feBlend in2="BackgroundImageFix" result="effect1_dropShadow"/><feBlend in="SourceGraphic" in2="effect1_dropShadow" result="shape"/></filter><filter id="filter4_d" x="-20" y="735" width="415" height="920" filterUnits="userSpaceOnUse" color-interpolation-filters="sRGB"><feFlood flood-opacity="0" result="BackgroundImageFix"/><feColorMatrix in="SourceAlpha" values="0 0 0 0 0 0 0 0 0 0 0 0 0 0 0 0 0 0 127 0" result="hardAlpha"/><feOffset/><feGaussianBlur stdDeviation="10"/><feComposite in2="hardAlpha" operator="out"/><feColorMatrix values="0 0 0 0 0 0 0 0 0 0 0 0 0 0 0 0 0 0 0.1 0"/><feBlend in2="BackgroundImageFix" result="effect1_dropShadow"/><feBlend in="SourceGraphic" in2="effect1_dropShadow" result="shape"/></filter><filter id="filter5_d" x="-30" y="-88" width="435" height="120" filterUnits="userSpaceOnUse" color-interpolation-filters="sRGB"><feFlood flood-opacity="0" result="BackgroundImageFix"/><feColorMatrix in="SourceAlpha" values="0 0 0 0 0 0 0 0 0 0 0 0 0 0 0 0 0 0 127 0" result="hardAlpha"/><feOffset dy="2"/><feGaussianBlur stdDeviation="15"/><feComposite in2="hardAlpha" operator="out"/><feColorMatrix values="0 0 0 0 0 0 0 0 0 0 0 0 0 0 0 0 0 0 0.15 0"/><feBlend in2="BackgroundImageFix" result="effect1_dropShadow"/><feBlend in="SourceGraphic" in2="effect1_dropShadow" result="shape"/></filter><linearGradient id="paint0_linear" x1="0" y1="115.5" x2="375" y2="112.5" gradientUnits="userSpaceOnUse"><stop stop-color="#fff"/><stop offset="1" stop-color="#F7F9FB" stop-opacity="0"/></linearGradient><linearGradient id="paint1_linear" x1="266.437" y1="225.304" x2="422.109" y2="524.934" gradientUnits="userSpaceOnUse"><stop stop-color="#BDBDBD"/><stop offset="1" stop-color="#F5F5F5"/></linearGradient><linearGradient id="paint2_linear" x1="-118.359" y1="599.033" x2="225.963" y2="1199.55" gradientUnits="userSpaceOnUse"><stop stop-color="#fff"/><stop offset="1" stop-color="#F5F5F5"/></linearGradient><linearGradient id="paint3_linear" x1="-22.038" y1="20.641" x2="148.467" y2="318.013" gradientUnits="userSpaceOnUse"><stop stop-color="#fff"/><stop offset="1" stop-color="#F5F5F5"/></linearGradient><clipPath id="clip0"><path fill="#fff" transform="translate(0 -60)" d="M0 0h375v3720H0z"/></clipPath></defs></svg>