<svg width="220" height="100" fill="none" xmlns="http://www.w3.org/2000/svg"><path d="M143 17H77v66h66V17z" fill="#2C2A6F"/><path d="M81.077 58.43h14.985l-1.983 3.525h-3.967v11.68h-3.746v-11.68h-5.29V58.43zm35.699 3.525c-.44 0-.771.22-.771.661v6.721c0 .44.331.661.771.661h7.713v3.526h-7.713c-2.754 0-4.517-1.653-4.517-4.187v-6.721c0-2.534 1.763-4.297 4.517-4.297h8.705l-2.094 3.526h-6.611v.11zm-11.238-3.525h-7.052l-2.094 3.525h9.035c.441 0 .661.22.661.661v1.653h-5.839c-2.645 0-4.628 1.983-4.628 4.628 0 2.644 1.983 4.627 4.628 4.627h9.806V62.506c0-2.424-1.763-4.077-4.517-4.077zm.771 11.789h-5.399c-.771 0-1.322-.551-1.322-1.322 0-.772.551-1.323 1.322-1.323h5.399v2.645zm24.35-8.264c-.44 0-.771.22-.771.661v6.721c0 .44.331.661.771.661h7.713v3.526h-7.713c-2.754 0-4.517-1.653-4.517-4.187v-6.721c0-2.534 1.763-4.297 4.517-4.297h8.705l-2.094 3.526h-6.611v.11z" fill="#fff"/></svg>