<svg width="337" height="110" fill="none" xmlns="http://www.w3.org/2000/svg"><path d="M92.22 63.646v3.93h-1.845v-10.5c.52 0 1.085-.005 1.695-.015.61-.01 1.11-.015 1.5-.015 2.54 0 3.81 1.08 3.81 3.24 0 .8-.205 1.46-.615 1.98-.41.5-.88.84-1.41 1.02l3.285 4.29h-2.235l-2.895-3.93h-1.29zm1.26-4.875c-.05 0-.13.005-.24.015-.11 0-.265.005-.465.015h-.555v3.12h1.2c.59 0 1.07-.145 1.44-.435.38-.29.57-.685.57-1.185 0-1.02-.65-1.53-1.95-1.53zm13.428-1.695h1.83v6.15c0 1.51-.395 2.64-1.185 3.39-.8.75-1.795 1.125-2.985 1.125-1.35 0-2.435-.395-3.255-1.185-.81-.79-1.215-1.935-1.215-3.435v-6.045h1.845v5.655c0 1.04.22 1.85.66 2.43.45.57 1.105.855 1.965.855 1.56 0 2.34-1.055 2.34-3.165v-5.775zm8.82 7.71c0-.32-.12-.6-.36-.84a2.5 2.5 0 00-.87-.6c-.35-.16-.735-.34-1.155-.54-.41-.21-.79-.425-1.14-.645a2.878 2.878 0 01-.885-.945c-.23-.41-.345-.88-.345-1.41 0-.81.295-1.495.885-2.055.61-.56 1.405-.84 2.385-.84 1.33 0 2.33.375 3 1.125l-.99 1.38c-.53-.52-1.15-.78-1.86-.78-.45 0-.81.105-1.08.315-.26.21-.39.49-.39.84 0 .18.035.35.105.51.07.15.145.275.225.375.09.1.23.21.42.33.2.12.355.21.465.27a86.212 86.212 0 011.155.51c.44.2.825.41 1.155.63.37.22.665.535.885.945.23.41.345.88.345 1.41 0 .88-.335 1.595-1.005 2.145-.67.55-1.505.825-2.505.825a5.34 5.34 0 01-2.085-.435c-.66-.3-1.11-.705-1.35-1.215l1.05-1.26c.28.37.64.66 1.08.87.45.21.895.315 1.335.315.46 0 .83-.11 1.11-.33.28-.22.42-.52.42-.9zm8.291 0c0-.32-.12-.6-.36-.84a2.5 2.5 0 00-.87-.6c-.35-.16-.735-.34-1.155-.54-.41-.21-.79-.425-1.14-.645a2.878 2.878 0 01-.885-.945c-.23-.41-.345-.88-.345-1.41 0-.81.295-1.495.885-2.055.61-.56 1.405-.84 2.385-.84 1.33 0 2.33.375 3 1.125l-.99 1.38c-.53-.52-1.15-.78-1.86-.78-.45 0-.81.105-1.08.315-.26.21-.39.49-.39.84 0 .18.035.35.105.51.07.15.145.275.225.375.09.1.23.21.42.33.2.12.355.21.465.27a86.212 86.212 0 011.155.51c.44.2.825.41 1.155.63.37.22.665.535.885.945.23.41.345.88.345 1.41 0 .88-.335 1.595-1.005 2.145-.67.55-1.505.825-2.505.825a5.34 5.34 0 01-2.085-.435c-.66-.3-1.11-.705-1.35-1.215l1.05-1.26c.28.37.64.66 1.08.87.45.21.895.315 1.335.315.46 0 .83-.11 1.11-.33.28-.22.42-.52.42-.9zm6.146 2.79h-1.845v-10.5h1.845v10.5zm3.64 0h-1.86l4.44-10.53h1.62l4.44 10.53h-1.965l-1.095-2.685H134.9l-1.095 2.685zm4.875-4.41l-1.53-3.735-1.545 3.735h3.075zm14.308-6.09v10.5h-1.47l-5.775-7.275v7.275h-1.725v-10.5h1.47l5.775 7.305v-7.305h1.725zM96.6 88.576h-6.225v-10.5h6.075v1.725h-4.23v2.61H96v1.725h-3.78v2.715h4.38v1.725zm8.538-10.5h2.16l-3.54 5.145 3.675 5.355h-2.16l-2.715-3.945-2.7 3.945h-2.16l3.675-5.355-3.51-5.145h2.16l2.58 3.795 2.535-3.795zm5.744 6.705v3.795h-1.845v-10.5c.44 0 .915-.005 1.425-.015.52-.01 1.04-.015 1.56-.015.74 0 1.38.095 1.92.285.55.18.975.435 1.275.765.3.32.52.675.66 1.065.14.38.21.8.21 1.26 0 .95-.34 1.755-1.02 2.415-.67.66-1.61.99-2.82.99-.61 0-1.065-.015-1.365-.045zm1.32-5.01l-1.32.03v3.225c.53.05.965.075 1.305.075.59 0 1.06-.145 1.41-.435.36-.29.54-.71.54-1.26 0-1.09-.645-1.635-1.935-1.635zm5.035 3.555c0-1.53.51-2.815 1.53-3.855 1.04-1.04 2.35-1.56 3.93-1.56s2.885.5 3.915 1.5c1.04 1.01 1.56 2.315 1.56 3.915 0 1.57-.52 2.865-1.56 3.885-1.04 1.02-2.345 1.53-3.915 1.53-1.58 0-2.885-.5-3.915-1.5-1.03-1-1.545-2.305-1.545-3.915zm1.95 0c0 1.06.335 1.94 1.005 2.64.67.7 1.505 1.05 2.505 1.05 1.08 0 1.935-.35 2.565-1.05.64-.7.96-1.58.96-2.64 0-1.07-.34-1.955-1.02-2.655-.68-.69-1.515-1.035-2.505-1.035-1.01 0-1.85.345-2.52 1.035-.66.69-.99 1.575-.99 2.655zm12.965 1.32v3.93h-1.845v-10.5c.52 0 1.085-.005 1.695-.015.61-.01 1.11-.015 1.5-.015 2.54 0 3.81 1.08 3.81 3.24 0 .8-.205 1.46-.615 1.98-.41.5-.88.84-1.41 1.02l3.285 4.29h-2.235l-2.895-3.93h-1.29zm1.26-4.875c-.05 0-.13.005-.24.015-.11 0-.265.005-.465.015h-.555v3.12h1.2c.59 0 1.07-.145 1.44-.435.38-.29.57-.685.57-1.185 0-1.02-.65-1.53-1.95-1.53zm8.326.03h-3.405v-1.725h8.655v1.725h-3.405v8.775h-1.845v-8.775zm17.319 6.375l.705 1.38c-.33.35-.805.635-1.425.855a5.66 5.66 0 01-1.935.33c-1.6 0-2.905-.495-3.915-1.485-1-.99-1.5-2.3-1.5-3.93 0-1.56.475-2.855 1.425-3.885.94-1.02 2.255-1.53 3.945-1.53 1.34 0 2.405.355 3.195 1.065l-.825 1.365a4.2 4.2 0 00-2.37-.705c-1 0-1.82.335-2.46 1.005-.64.67-.96 1.565-.96 2.685 0 1.1.335 1.99 1.005 2.67.68.68 1.555 1.02 2.625 1.02.92 0 1.75-.28 2.49-.84zm8.764 2.4h-6.225v-10.5h6.075v1.725h-4.23v2.61h3.78v1.725h-3.78v2.715h4.38v1.725zm11.373-10.5v10.5h-1.47l-5.775-7.275v7.275h-1.725v-10.5h1.47l5.775 7.305v-7.305h1.725zm5.009 1.725h-3.405v-1.725h8.655v1.725h-3.405v8.775h-1.845v-8.775zm13.076 8.775h-6.225v-10.5h6.075v1.725h-4.23v2.61h3.78v1.725h-3.78v2.715h4.38v1.725zm4.248-3.93v3.93h-1.845v-10.5c.52 0 1.085-.005 1.695-.015.61-.01 1.11-.015 1.5-.015 2.54 0 3.81 1.08 3.81 3.24 0 .8-.205 1.46-.615 1.98-.41.5-.88.84-1.41 1.02l3.285 4.29h-2.235l-2.895-3.93h-1.29zm1.26-4.875c-.05 0-.13.005-.24.015-.11 0-.265.005-.465.015h-.555v3.12h1.2c.59 0 1.07-.145 1.44-.435.38-.29.57-.685.57-1.185 0-1.02-.65-1.53-1.95-1.53zM97.275 105.646H94.74v-1.725H99v4.35c-.45.45-1.05.81-1.8 1.08-.75.26-1.46.39-2.13.39-1.7 0-3.04-.49-4.02-1.47-.97-.97-1.455-2.285-1.455-3.945 0-1.54.48-2.825 1.44-3.855.96-1.04 2.225-1.56 3.795-1.56 1.34 0 2.465.355 3.375 1.065l-.78 1.47c-.26-.25-.605-.445-1.035-.585a4.024 4.024 0 00-1.335-.225c-1.05 0-1.895.33-2.535.99-.65.65-.975 1.55-.975 2.7 0 1.11.325 2.005.975 2.685.64.67 1.5 1.005 2.58 1.005.38 0 .79-.07 1.23-.21.44-.15.755-.32.945-.51v-1.65zm5.843 0v3.93h-1.845v-10.5c.52 0 1.085-.005 1.695-.015.61-.01 1.11-.015 1.5-.015 2.54 0 3.81 1.08 3.81 3.24 0 .8-.205 1.46-.615 1.98-.41.5-.88.84-1.41 1.02l3.285 4.29h-2.235l-2.895-3.93h-1.29zm1.26-4.875c-.05 0-.13.005-.24.015-.11 0-.265.005-.465.015h-.555v3.12h1.2c.59 0 1.07-.145 1.44-.435.38-.29.57-.685.57-1.185 0-1.02-.65-1.53-1.95-1.53zm5.549 3.555c0-1.53.51-2.815 1.53-3.855 1.04-1.04 2.35-1.56 3.93-1.56s2.885.5 3.915 1.5c1.04 1.01 1.56 2.315 1.56 3.915 0 1.57-.52 2.865-1.56 3.885-1.04 1.02-2.345 1.53-3.915 1.53-1.58 0-2.885-.5-3.915-1.5-1.03-1-1.545-2.305-1.545-3.915zm1.95 0c0 1.06.335 1.94 1.005 2.64.67.7 1.505 1.05 2.505 1.05 1.08 0 1.935-.35 2.565-1.05.64-.7.96-1.58.96-2.64 0-1.07-.34-1.955-1.02-2.655-.68-.69-1.515-1.035-2.505-1.035-1.01 0-1.85.345-2.52 1.035-.66.69-.99 1.575-.99 2.655zm17.78-5.25h1.83v6.15c0 1.51-.395 2.64-1.185 3.39-.8.75-1.795 1.125-2.985 1.125-1.35 0-2.435-.395-3.255-1.185-.81-.79-1.215-1.935-1.215-3.435v-6.045h1.845v5.655c0 1.04.22 1.85.66 2.43.45.57 1.105.855 1.965.855 1.56 0 2.34-1.055 2.34-3.165v-5.775zm6.45 6.705v3.795h-1.845v-10.5c.44 0 .915-.005 1.425-.015.52-.01 1.04-.015 1.56-.015.74 0 1.38.095 1.92.285.55.18.975.435 1.275.765.3.32.52.675.66 1.065.14.38.21.8.21 1.26 0 .95-.34 1.755-1.02 2.415-.67.66-1.61.99-2.82.99-.61 0-1.065-.015-1.365-.045zm1.32-5.01l-1.32.03v3.225c.53.05.965.075 1.305.075.59 0 1.06-.145 1.41-.435.36-.29.54-.71.54-1.26 0-1.09-.645-1.635-1.935-1.635z" fill="#002E5E"/><g clip-path="url(#clip0_1438_1608)"><path d="M84.482 41.71h69.448l7.666-4.522h69.297" stroke="#0F385F"/><path d="M38.526.004l-4.59 1.943L33.113 0l5.412.004zM52.44.458l3.764 5.984L42.06 4.994 52.44.458zM75.635.005l-5.619 2.512L67.01.005h8.626zM30.004 10.127l-4.478 6.083-5.601-.68 10.079-5.403zM8.865 28.571L8.4 34.66.02 39.811l8.844-11.24zM59.172 11.97l7.93 10.929-13.204-1.584 5.274-9.346zm2.044 27.973l-5.438 12.633-2.888-8.715 8.326-3.918zM32.798 17.375l10.937-4.848 3.003 6.464-13.94-1.616z" fill="#1B4E9B"/><path d="M33.113 0l.822 1.947-3.931 1.652L33.114 0zm-7.588 16.21l-5.6 7.5-.001-8.18 5.601.68zM75.722.005l-2.292 5.35-3.414-2.838 5.62-2.512h.086zM8.4 34.659l-.63 6.895L0 39.834l8.4-5.175zM67.1 22.9l-19.245 9.107 6.042-10.692L67.1 22.9zM38.452 35.94l-18.603 8.853V31.166l18.603 4.774zm14.438 7.921l2.887 8.715-14.038-3.238 11.15-5.477zM32.798 17.375l13.94 1.615-12.207 5.588-1.733-7.203z" fill="#1090CF"/></g><path d="M99.672 26.784h-8.715v-14.7h8.505V14.5H93.54v3.654h5.292v2.415H93.54v3.801h6.132v2.415zm11.953-14.7h3.024l-4.956 7.203 5.145 7.497h-3.024l-3.801-5.523-3.78 5.523h-3.024l5.145-7.497-4.914-7.203h3.024l3.612 5.313 3.549-5.313zm8.357 14.7h-2.583v-14.7h2.583v14.7zm6.965 0h-2.583v-14.7h2.604l5.019 6.867 4.788-6.867h2.436v14.7h-2.562V16.158l-4.641 6.531h-.378l-4.683-6.468v10.563zm16.346-.02V12.125a92.054 92.054 0 014.242-.105c1.624 0 2.835.322 3.633.966.798.644 1.197 1.533 1.197 2.667 0 1.582-.7 2.695-2.1 3.34v.041c.798.21 1.428.61 1.89 1.197.462.574.693 1.316.693 2.226 0 1.428-.49 2.52-1.47 3.276-.98.756-2.31 1.134-3.99 1.134-1.68 0-3.045-.035-4.095-.105zm4.41-6.3h-1.827v3.884c.658.07 1.225.105 1.701.105 1.792 0 2.688-.707 2.688-2.12 0-.617-.224-1.079-.672-1.387-.448-.322-1.078-.483-1.89-.483zm-.21-6.028c-.616 0-1.155.021-1.617.063v3.717h1.743c.658 0 1.183-.168 1.575-.504.406-.336.609-.819.609-1.449 0-.588-.203-1.036-.609-1.344-.406-.322-.973-.483-1.701-.483zm9.475 12.348h-2.604l6.216-14.742h2.268l6.216 14.742h-2.751l-1.533-3.759h-6.279l-1.533 3.76zm6.825-6.174l-2.142-5.229-2.163 5.23h4.305zm20.031-8.526v14.7h-2.058L173.681 16.6v10.185h-2.415v-14.7h2.058l8.085 10.227V12.084h2.415zm6.656 14.7h-2.583v-14.7h2.583v6.972l5.796-6.972h3.108l-6.048 6.846 6.426 7.854h-3.276l-6.006-7.58v7.58zm14.885-7.35c0-2.142.714-3.94 2.142-5.397 1.456-1.456 3.29-2.184 5.502-2.184 2.212 0 4.039.7 5.481 2.1 1.456 1.414 2.184 3.241 2.184 5.481 0 2.198-.728 4.011-2.184 5.44-1.456 1.427-3.283 2.141-5.481 2.141-2.212 0-4.039-.7-5.481-2.1-1.442-1.4-2.163-3.227-2.163-5.48zm2.73 0c0 1.484.469 2.716 1.407 3.696.938.98 2.107 1.47 3.507 1.47 1.512 0 2.709-.49 3.591-1.47.896-.98 1.344-2.212 1.344-3.696 0-1.498-.476-2.737-1.428-3.717-.952-.966-2.121-1.449-3.507-1.449-1.414 0-2.59.483-3.528 1.45-.924.965-1.386 2.204-1.386 3.716zm18.151 7.35h-2.583v-14.7h8.4V14.5h-5.817v4.158h5.187v2.415h-5.187v5.712zm15.729-5.502v5.502h-2.583v-14.7c.728 0 1.519-.007 2.373-.02.854-.015 1.554-.022 2.1-.022 3.556 0 5.334 1.512 5.334 4.536 0 1.12-.287 2.044-.861 2.772-.574.7-1.232 1.176-1.974 1.428l4.599 6.006h-3.129l-4.053-5.502h-1.806zm1.764-6.825c-.07 0-.182.007-.336.021-.154 0-.371.007-.651.021h-.777v4.368h1.68c.826 0 1.498-.203 2.016-.609.532-.406.798-.959.798-1.659 0-1.428-.91-2.142-2.73-2.142zm18.8-2.373h2.562v8.61c0 2.114-.553 3.696-1.659 4.746-1.12 1.05-2.513 1.575-4.179 1.575-1.89 0-3.409-.553-4.557-1.659-1.134-1.106-1.701-2.709-1.701-4.809v-8.463h2.583v7.917c0 1.456.308 2.59.924 3.402.63.798 1.547 1.197 2.751 1.197 2.184 0 3.276-1.477 3.276-4.43v-8.086zm12.347 10.794c0-.448-.168-.84-.504-1.176a3.5 3.5 0 00-1.218-.84c-.49-.224-1.029-.476-1.617-.756a20.926 20.926 0 01-1.596-.903 4.03 4.03 0 01-1.239-1.323c-.322-.574-.483-1.232-.483-1.974 0-1.134.413-2.093 1.239-2.877.854-.784 1.967-1.176 3.339-1.176 1.862 0 3.262.525 4.2 1.575l-1.386 1.932c-.742-.728-1.61-1.092-2.604-1.092-.63 0-1.134.147-1.512.441-.364.294-.546.686-.546 1.176 0 .252.049.49.147.714a2.6 2.6 0 00.315.525c.126.14.322.294.588.462.28.168.497.294.651.378a120.697 120.697 0 011.617.714c.616.28 1.155.574 1.617.882a3.33 3.33 0 011.239 1.323c.322.574.483 1.232.483 1.974 0 1.232-.469 2.233-1.407 3.003-.938.77-2.107 1.155-3.507 1.155-.98 0-1.953-.203-2.919-.609-.924-.42-1.554-.987-1.89-1.7l1.47-1.765c.392.518.896.924 1.512 1.218.63.294 1.253.441 1.869.441.644 0 1.162-.154 1.554-.462.392-.308.588-.728.588-1.26zm11.608 0c0-.448-.168-.84-.504-1.176a3.5 3.5 0 00-1.218-.84c-.49-.224-1.029-.476-1.617-.756a20.926 20.926 0 01-1.596-.903 4.03 4.03 0 01-1.239-1.323c-.322-.574-.483-1.232-.483-1.974 0-1.134.413-2.093 1.239-2.877.854-.784 1.967-1.176 3.339-1.176 1.862 0 3.262.525 4.2 1.575l-1.386 1.932c-.742-.728-1.61-1.092-2.604-1.092-.63 0-1.134.147-1.512.441-.364.294-.546.686-.546 1.176 0 .252.049.49.147.714a2.6 2.6 0 00.315.525c.126.14.322.294.588.462.28.168.497.294.651.378a120.697 120.697 0 011.617.714c.616.28 1.155.574 1.617.882a3.33 3.33 0 011.239 1.323c.322.574.483 1.232.483 1.974 0 1.232-.469 2.233-1.407 3.003-.938.77-2.107 1.155-3.507 1.155-.98 0-1.953-.203-2.919-.609-.924-.42-1.554-.987-1.89-1.7l1.47-1.765c.392.518.896.924 1.512 1.218.63.294 1.253.441 1.869.441.644 0 1.162-.154 1.554-.462.392-.308.588-.728.588-1.26zm8.604 3.906h-2.583v-14.7h2.583v14.7zm5.096 0h-2.604l6.216-14.742h2.268l6.216 14.742h-2.751l-1.533-3.759h-6.279l-1.533 3.76zm6.825-6.174l-2.142-5.229-2.163 5.23h4.305z" fill="#4D67AC"/><defs><clipPath id="clip0_1438_1608"><path fill="#fff" d="M0 0h230.894v52.576H0z"/></clipPath></defs></svg>