<svg width="338" height="109" fill="none" xmlns="http://www.w3.org/2000/svg"><g clip-path="url(#clip0_1438_1607)"><path d="M92.91 42.736h67.699l8.43-4.633h67.808" stroke="#0F385F"/><path d="M42.368.005l-5.048 1.99-.903-1.994 5.951.004zM57.67.47l4.14 6.13-15.554-1.483L57.67.47zM83.179.005l-6.18 2.573L73.691.005h9.488zM32.996 10.376l-4.924 6.232-6.16-.697 11.084-5.535zM9.75 29.274l-.512 6.238L.024 40.79 9.75 29.274zm55.324-17.01l8.72 11.198-14.52-1.623 5.8-9.575zm2.248 28.662l-5.98 12.943-3.177-8.929 9.157-4.014zM36.07 17.802l12.028-4.967 3.301 6.623-15.33-1.656z" fill="#C84C61"/><path d="M36.416 0l.903 1.995-4.323 1.693L36.416 0zm-8.345 16.608l-6.16 7.685v-8.381l6.16.696zM83.275.005l-2.52 5.48L77 2.579 83.18.005h.095zM9.237 35.511l-.692 7.065L0 40.813l9.237-5.302zm64.555-12.047l-21.164 9.33 6.645-10.955 14.52 1.625zm-31.504 13.36l-20.459 9.071V31.932l20.459 4.892zm15.878 8.116l3.176 8.929-15.439-3.318 12.263-5.611zM36.07 17.802l15.33 1.656-13.425 5.724-1.906-7.38z" fill="#355A8B"/><path d="M114.559 31.738h-12.865v-21.7h12.555v3.565h-8.742v5.394h7.812v3.565h-7.812v5.61h9.052v3.566zm17.645-21.7h4.464l-7.316 10.633 7.595 11.067h-4.464l-5.611-8.153-5.58 8.153h-4.464l7.595-11.067-7.254-10.633h4.464l5.332 7.843 5.239-7.843zm12.336 21.7h-3.813v-21.7h3.813v21.7zm7.523 0h-3.844l9.176-21.762h3.348l9.176 21.762h-4.061l-2.263-5.55h-9.269l-2.263 5.55zm10.075-9.114l-3.162-7.72-3.193 7.72h6.355zm14.844.992v8.122h-3.813v-21.7c1.075 0 2.242-.01 3.503-.031 1.261-.02 2.294-.031 3.1-.031 5.249 0 7.874 2.232 7.874 6.696 0 1.653-.424 3.017-1.271 4.092-.847 1.033-1.819 1.736-2.914 2.108l6.789 8.866h-4.619l-5.983-8.122h-2.666zm2.604-10.075c-.103 0-.269.01-.496.03-.227 0-.548.011-.961.032h-1.147v6.448h2.48c1.219 0 2.211-.3 2.976-.9.785-.599 1.178-1.415 1.178-2.448 0-2.108-1.343-3.162-4.03-3.162z" fill="#000"/></g><path d="M101.987 62.332v3.93h-1.845v-10.5c.52 0 1.085-.005 1.695-.015.61-.01 1.11-.015 1.5-.015 2.54 0 3.81 1.08 3.81 3.24 0 .8-.205 1.46-.615 1.98-.41.5-.88.84-1.41 1.02l3.285 4.29h-2.235l-2.895-3.93h-1.29zm1.26-4.875c-.05 0-.13.005-.24.015-.11 0-.265.005-.465.015h-.555v3.12h1.2c.59 0 1.07-.145 1.44-.435.38-.29.57-.685.57-1.185 0-1.02-.65-1.53-1.95-1.53zm13.428-1.695h1.83v6.15c0 1.51-.395 2.64-1.185 3.39-.8.75-1.795 1.125-2.985 1.125-1.35 0-2.435-.395-3.255-1.185-.81-.79-1.215-1.935-1.215-3.435v-6.045h1.845v5.655c0 1.04.22 1.85.66 2.43.45.57 1.105.855 1.965.855 1.56 0 2.34-1.055 2.34-3.165v-5.775zm8.819 7.71c0-.32-.12-.6-.36-.84a2.5 2.5 0 00-.87-.6c-.35-.16-.735-.34-1.155-.54-.41-.21-.79-.425-1.14-.645a2.878 2.878 0 01-.885-.945c-.23-.41-.345-.88-.345-1.41 0-.81.295-1.495.885-2.055.61-.56 1.405-.84 2.385-.84 1.33 0 2.33.375 3 1.125l-.99 1.38c-.53-.52-1.15-.78-1.86-.78-.45 0-.81.105-1.08.315-.26.21-.39.49-.39.84 0 .18.035.35.105.51.07.15.145.275.225.375.09.1.23.21.42.33.2.12.355.21.465.27a86.212 86.212 0 011.155.51c.44.2.825.41 1.155.63.37.22.665.535.885.945.23.41.345.88.345 1.41 0 .88-.335 1.595-1.005 2.145-.67.55-1.505.825-2.505.825a5.34 5.34 0 01-2.085-.435c-.66-.3-1.11-.705-1.35-1.215l1.05-1.26c.28.37.64.66 1.08.87.45.21.895.315 1.335.315.46 0 .83-.11 1.11-.33.28-.22.42-.52.42-.9zm8.291 0c0-.32-.12-.6-.36-.84a2.5 2.5 0 00-.87-.6c-.35-.16-.735-.34-1.155-.54-.41-.21-.79-.425-1.14-.645a2.878 2.878 0 01-.885-.945c-.23-.41-.345-.88-.345-1.41 0-.81.295-1.495.885-2.055.61-.56 1.405-.84 2.385-.84 1.33 0 2.33.375 3 1.125l-.99 1.38c-.53-.52-1.15-.78-1.86-.78-.45 0-.81.105-1.08.315-.26.21-.39.49-.39.84 0 .18.035.35.105.51.07.15.145.275.225.375.09.1.23.21.42.33.2.12.355.21.465.27a86.212 86.212 0 011.155.51c.44.2.825.41 1.155.63.37.22.665.535.885.945.23.41.345.88.345 1.41 0 .88-.335 1.595-1.005 2.145-.67.55-1.505.825-2.505.825a5.34 5.34 0 01-2.085-.435c-.66-.3-1.11-.705-1.35-1.215l1.05-1.26c.28.37.64.66 1.08.87.45.21.895.315 1.335.315.46 0 .83-.11 1.11-.33.28-.22.42-.52.42-.9zm6.146 2.79h-1.845v-10.5h1.845v10.5zm3.64 0h-1.86l4.44-10.53h1.62l4.44 10.53h-1.965l-1.095-2.685h-4.485l-1.095 2.685zm4.875-4.41l-1.53-3.735-1.545 3.735h3.075zm14.308-6.09v10.5h-1.47l-5.775-7.275v7.275h-1.725v-10.5h1.47l5.775 7.305v-7.305h1.725zm-56.387 31.5h-6.225v-10.5h6.075v1.725h-4.23v2.61h3.78v1.725h-3.78v2.715h4.38v1.725zm8.537-10.5h2.16l-3.54 5.145 3.675 5.355h-2.16l-2.715-3.945-2.7 3.945h-2.16l3.675-5.355-3.51-5.145h2.16l2.58 3.795 2.535-3.795zm5.745 6.705v3.795h-1.845v-10.5c.44 0 .915-.005 1.425-.015.52-.01 1.04-.015 1.56-.015.74 0 1.38.095 1.92.285.55.18.975.435 1.275.765.3.32.52.675.66 1.065.14.38.21.8.21 1.26 0 .95-.34 1.755-1.02 2.415-.67.66-1.61.99-2.82.99-.61 0-1.065-.015-1.365-.045zm1.32-5.01l-1.32.03v3.225c.53.05.965.075 1.305.075.59 0 1.06-.145 1.41-.435.36-.29.54-.71.54-1.26 0-1.09-.645-1.635-1.935-1.635zm5.034 3.555c0-1.53.51-2.815 1.53-3.855 1.04-1.04 2.35-1.56 3.93-1.56s2.885.5 3.915 1.5c1.04 1.01 1.56 2.315 1.56 3.915 0 1.57-.52 2.865-1.56 3.885-1.04 1.02-2.345 1.53-3.915 1.53-1.58 0-2.885-.5-3.915-1.5-1.03-1-1.545-2.305-1.545-3.915zm1.95 0c0 1.06.335 1.94 1.005 2.64.67.7 1.505 1.05 2.505 1.05 1.08 0 1.935-.35 2.565-1.05.64-.7.96-1.58.96-2.64 0-1.07-.34-1.955-1.02-2.655-.68-.69-1.515-1.035-2.505-1.035-1.01 0-1.85.345-2.52 1.035-.66.69-.99 1.575-.99 2.655zm12.965 1.32v3.93h-1.845v-10.5c.52 0 1.085-.005 1.695-.015.61-.01 1.11-.015 1.5-.015 2.54 0 3.81 1.08 3.81 3.24 0 .8-.205 1.46-.615 1.98-.41.5-.88.84-1.41 1.02l3.285 4.29h-2.235l-2.895-3.93h-1.29zm1.26-4.875c-.05 0-.13.005-.24.015-.11 0-.265.005-.465.015h-.555v3.12h1.2c.59 0 1.07-.145 1.44-.435.38-.29.57-.685.57-1.185 0-1.02-.65-1.53-1.95-1.53zm8.326.03h-3.405v-1.725h8.655v1.725h-3.405v8.775h-1.845v-8.775zm17.319 6.375l.705 1.38c-.33.35-.805.635-1.425.855a5.66 5.66 0 01-1.935.33c-1.6 0-2.905-.495-3.915-1.485-1-.99-1.5-2.3-1.5-3.93 0-1.56.475-2.855 1.425-3.885.94-1.02 2.255-1.53 3.945-1.53 1.34 0 2.405.355 3.195 1.065l-.825 1.365a4.2 4.2 0 00-2.37-.705c-1 0-1.82.335-2.46 1.005-.64.67-.96 1.565-.96 2.685 0 1.1.335 1.99 1.005 2.67.68.68 1.555 1.02 2.625 1.02.92 0 1.75-.28 2.49-.84zm8.764 2.4h-6.225v-10.5h6.075v1.725h-4.23v2.61h3.78v1.725h-3.78v2.715h4.38v1.725zm11.373-10.5v10.5h-1.47l-5.775-7.275v7.275h-1.725v-10.5h1.47l5.775 7.305v-7.305h1.725zm5.01 1.725h-3.405v-1.725h8.655v1.725h-3.405v8.775h-1.845v-8.775zm13.075 8.775h-6.225v-10.5h6.075v1.725h-4.23v2.61h3.78v1.725h-3.78v2.715h4.38v1.725zm4.248-3.93v3.93h-1.845v-10.5c.52 0 1.085-.005 1.695-.015.61-.01 1.11-.015 1.5-.015 2.54 0 3.81 1.08 3.81 3.24 0 .8-.205 1.46-.615 1.98-.41.5-.88.84-1.41 1.02l3.285 4.29h-2.235l-2.895-3.93h-1.29zm1.26-4.875c-.05 0-.13.005-.24.015-.11 0-.265.005-.465.015h-.555v3.12h1.2c.59 0 1.07-.145 1.44-.435.38-.29.57-.685.57-1.185 0-1.02-.65-1.53-1.95-1.53zm-105.511 25.875h-2.535v-1.725h4.26v4.35c-.45.45-1.05.81-1.8 1.08-.75.26-1.46.39-2.13.39-1.7 0-3.04-.49-4.02-1.47-.97-.97-1.455-2.285-1.455-3.945 0-1.54.48-2.825 1.44-3.855.96-1.04 2.225-1.56 3.795-1.56 1.34 0 2.465.355 3.375 1.065l-.78 1.47c-.26-.25-.605-.445-1.035-.585a4.024 4.024 0 00-1.335-.225c-1.05 0-1.895.33-2.535.99-.65.65-.975 1.55-.975 2.7 0 1.11.325 2.005.975 2.685.64.67 1.5 1.005 2.58 1.005.38 0 .79-.07 1.23-.21.44-.15.755-.32.945-.51v-1.65zm5.843 0v3.93h-1.845v-10.5c.52 0 1.085-.005 1.695-.015.61-.01 1.11-.015 1.5-.015 2.54 0 3.81 1.08 3.81 3.24 0 .8-.205 1.46-.615 1.98-.41.5-.88.84-1.41 1.02l3.285 4.29h-2.235l-2.895-3.93h-1.29zm1.26-4.875c-.05 0-.13.005-.24.015-.11 0-.265.005-.465.015h-.555v3.12h1.2c.59 0 1.07-.145 1.44-.435.38-.29.57-.685.57-1.185 0-1.02-.65-1.53-1.95-1.53zm5.549 3.555c0-1.53.51-2.815 1.53-3.855 1.04-1.04 2.35-1.56 3.93-1.56s2.885.5 3.915 1.5c1.04 1.01 1.56 2.315 1.56 3.915 0 1.57-.52 2.865-1.56 3.885-1.04 1.02-2.345 1.53-3.915 1.53-1.58 0-2.885-.5-3.915-1.5-1.03-1-1.545-2.305-1.545-3.915zm1.95 0c0 1.06.335 1.94 1.005 2.64.67.7 1.505 1.05 2.505 1.05 1.08 0 1.935-.35 2.565-1.05.64-.7.96-1.58.96-2.64 0-1.07-.34-1.955-1.02-2.655-.68-.69-1.515-1.035-2.505-1.035-1.01 0-1.85.345-2.52 1.035-.66.69-.99 1.575-.99 2.655zm17.78-5.25h1.83v6.15c0 1.51-.395 2.64-1.185 3.39-.8.75-1.795 1.125-2.985 1.125-1.35 0-2.435-.395-3.255-1.185-.81-.79-1.215-1.935-1.215-3.435v-6.045h1.845v5.655c0 1.04.22 1.85.66 2.43.45.57 1.105.855 1.965.855 1.56 0 2.34-1.055 2.34-3.165v-5.775zm6.449 6.705v3.795h-1.845v-10.5c.44 0 .915-.005 1.425-.015.52-.01 1.04-.015 1.56-.015.74 0 1.38.095 1.92.285.55.18.975.435 1.275.765.3.32.52.675.66 1.065.14.38.21.8.21 1.26 0 .95-.34 1.755-1.02 2.415-.67.66-1.61.99-2.82.99-.61 0-1.065-.015-1.365-.045zm1.32-5.01l-1.32.03v3.225c.53.05.965.075 1.305.075.59 0 1.06-.145 1.41-.435.36-.29.54-.71.54-1.26 0-1.09-.645-1.635-1.935-1.635z" fill="#002E5E"/><defs><clipPath id="clip0_1438_1607"><path fill="#fff" d="M0 0h236.847v53.869H0z"/></clipPath></defs></svg>