<svg width="337" height="111" fill="none" xmlns="http://www.w3.org/2000/svg"><g clip-path="url(#clip0_1438_1563)"><path d="M92.636 42.736h67.498l8.406-4.633h67.607" stroke="#0F385F"/><path d="M42.243.005l-5.033 1.99-.9-1.994 5.933.004zM57.5.47l4.127 6.13L46.12 5.117 57.5.47zM82.933.005l-6.162 2.573L73.475.005h9.46zM32.899 10.376l-4.91 6.232-6.141-.697 11.051-5.535zM9.721 29.274l-.51 6.238L.024 40.79l9.697-11.516zm55.159-17.01l8.696 11.198-14.477-1.623 5.782-9.575zm2.243 28.662L61.16 53.869l-3.167-8.929 9.13-4.014zM35.962 17.802l11.993-4.967 3.292 6.623-15.285-1.656z" fill="#C84C61"/><path d="M36.308 0l.9 1.995-4.31 1.693L36.308 0zm-8.32 16.608l-6.142 7.685v-8.381l6.142.696zM83.029.005l-2.513 5.48-3.744-2.907L82.934.005h.095zM9.21 35.511l-.69 7.065L0 40.813l9.21-5.302zm64.364-12.047l-21.101 9.33 6.625-10.955 14.476 1.625zm-31.411 13.36l-20.398 9.071V31.932l20.398 4.892zm15.831 8.116l3.166 8.929-15.392-3.318 12.226-5.611zM35.962 17.802l15.285 1.656-13.385 5.724-1.9-7.38z" fill="#355A8B"/><path d="M113.957 22.469h-9.765v-3.565h9.672c-.372-1.777-1.251-3.162-2.635-4.154-1.385-.992-3.111-1.488-5.177-1.488-1.902 0-3.596.558-5.084 1.674l-1.489-2.852c1.881-1.591 4.372-2.387 7.472-2.387 3.224 0 5.848 1.023 7.874 3.069 2.025 2.066 3.038 4.763 3.038 8.09 0 3.41-1.023 6.139-3.069 8.185-2.067 2.025-4.826 3.038-8.277 3.038-1.447 0-2.821-.207-4.123-.62-1.302-.413-2.356-.961-3.163-1.643l1.644-3.193c1.632 1.26 3.492 1.89 5.58 1.89 1.984 0 3.647-.526 4.991-1.58 1.364-1.075 2.201-2.563 2.511-4.464zm12.116 9.269h-3.813v-21.7h3.813V20.33l8.556-10.292h4.588l-8.928 10.106 9.486 11.594h-4.836l-8.866-11.191v11.19zm30.87-4.96l1.457 2.852c-.682.723-1.664 1.312-2.945 1.767a11.698 11.698 0 01-3.999.682c-3.307 0-6.004-1.023-8.091-3.07-2.067-2.045-3.1-4.753-3.1-8.121 0-3.224.982-5.9 2.945-8.03 1.943-2.107 4.66-3.161 8.153-3.161 2.769 0 4.97.734 6.603 2.2l-1.705 2.822c-1.467-.971-3.1-1.457-4.898-1.457-2.067 0-3.761.692-5.084 2.077-1.323 1.385-1.984 3.234-1.984 5.549 0 2.273.692 4.112 2.077 5.518 1.405 1.405 3.214 2.108 5.425 2.108 1.901 0 3.617-.579 5.146-1.736zm6.12 4.96h-3.844l9.176-21.762h3.348l9.176 21.762h-4.061l-2.263-5.55h-9.269l-2.263 5.55zm10.075-9.114l-3.162-7.72-3.193 7.72h6.355zm14.844 1.27v7.844h-3.813v-21.7c.909 0 1.891-.01 2.945-.031 1.075-.02 2.149-.031 3.224-.031 1.529 0 2.852.196 3.968.589 1.137.372 2.015.899 2.635 1.58a6.316 6.316 0 011.364 2.202c.289.785.434 1.653.434 2.604 0 1.963-.703 3.627-2.108 4.99-1.385 1.365-3.327 2.047-5.828 2.047-1.261 0-2.201-.031-2.821-.093zm2.728-10.353l-2.728.062v6.665c1.095.103 1.994.155 2.697.155 1.219 0 2.191-.3 2.914-.9.744-.599 1.116-1.466 1.116-2.603 0-2.253-1.333-3.38-3.999-3.38z" fill="#000"/></g><path d="M101.694 66.262h-1.845v-10.5h5.925v1.725h-4.08v8.775zm7.602-3.795v3.795h-1.845v-10.5c.44 0 .915-.005 1.425-.015.52-.01 1.04-.015 1.56-.015.74 0 1.38.095 1.92.285.55.18.975.435 1.275.765.3.32.52.675.66 1.065.14.38.21.8.21 1.26 0 .95-.34 1.755-1.02 2.415-.67.66-1.61.99-2.82.99-.61 0-1.065-.015-1.365-.045zm1.32-5.01l-1.32.03v3.225c.53.05.965.075 1.305.075.59 0 1.06-.145 1.41-.435.36-.29.54-.71.54-1.26 0-1.09-.645-1.635-1.935-1.635zm12.228-1.695h1.86l-3.57 8.055c-.37.84-.785 1.46-1.245 1.86a2.37 2.37 0 01-1.605.585c-.62 0-1.1-.14-1.44-.42l.645-1.56c.26.17.52.255.78.255.47 0 .815-.245 1.035-.735l.15-.36-4.635-7.68h2.085l3.435 5.865 2.505-5.865zm11.859 10.5h-1.845v-8.775h-4.68v8.775h-1.845v-10.5h8.37v10.5zm11.279 0h-1.845v-8.775h-4.68v8.775h-1.845v-10.5h8.37v10.5zm3.42 0h-1.86l4.44-10.53h1.62l4.44 10.53h-1.965l-1.095-2.685h-4.485l-1.095 2.685zm4.875-4.41l-1.53-3.735-1.545 3.735h3.075zm-52.583 21.615v3.795h-1.845v-10.5c.44 0 .915-.005 1.425-.015.52-.01 1.04-.015 1.56-.015.74 0 1.38.095 1.92.285.55.18.975.435 1.275.765.3.32.52.675.66 1.065.14.38.21.8.21 1.26 0 .95-.34 1.755-1.02 2.415-.67.66-1.61.99-2.82.99-.61 0-1.065-.015-1.365-.045zm1.32-5.01l-1.32.03v3.225c.53.05.965.075 1.305.075.59 0 1.06-.145 1.41-.435.36-.29.54-.71.54-1.26 0-1.09-.645-1.635-1.935-1.635zm5.166 3.555c0-1.53.51-2.815 1.53-3.855 1.04-1.04 2.35-1.56 3.93-1.56s2.885.5 3.915 1.5c1.04 1.01 1.56 2.315 1.56 3.915 0 1.57-.52 2.865-1.56 3.885-1.04 1.02-2.345 1.53-3.915 1.53-1.58 0-2.885-.5-3.915-1.5-1.03-1-1.545-2.305-1.545-3.915zm1.95 0c0 1.06.335 1.94 1.005 2.64.67.7 1.505 1.05 2.505 1.05 1.08 0 1.935-.35 2.565-1.05.64-.7.96-1.58.96-2.64 0-1.07-.34-1.955-1.02-2.655-.68-.69-1.515-1.035-2.505-1.035-1.01 0-1.85.345-2.52 1.035-.66.69-.99 1.575-.99 2.655zm18.41 2.85l.705 1.38c-.33.35-.805.635-1.425.855a5.66 5.66 0 01-1.935.33c-1.6 0-2.905-.495-3.915-1.485-1-.99-1.5-2.3-1.5-3.93 0-1.56.475-2.855 1.425-3.885.94-1.02 2.255-1.53 3.945-1.53 1.34 0 2.405.355 3.195 1.065l-.825 1.365a4.2 4.2 0 00-2.37-.705c-1 0-1.82.335-2.46 1.005-.64.67-.96 1.565-.96 2.685 0 1.1.335 1.99 1.005 2.67.68.68 1.555 1.02 2.625 1.02.92 0 1.75-.28 2.49-.84zm9.39 0l.705 1.38c-.33.35-.805.635-1.425.855a5.66 5.66 0 01-1.935.33c-1.6 0-2.905-.495-3.915-1.485-1-.99-1.5-2.3-1.5-3.93 0-1.56.475-2.855 1.425-3.885.94-1.02 2.255-1.53 3.945-1.53 1.34 0 2.405.355 3.195 1.065l-.825 1.365a4.2 4.2 0 00-2.37-.705c-1 0-1.82.335-2.46 1.005-.64.67-.96 1.565-.96 2.685 0 1.1.335 1.99 1.005 2.67.68.68 1.555 1.02 2.625 1.02.92 0 1.75-.28 2.49-.84zm9.664-5.055l-5.505 7.455h-1.62v-10.5h1.845v7.47l5.505-7.47h1.62v10.5h-1.845v-7.455zm11.88 0l-5.505 7.455h-1.62v-10.5h1.845v7.47l5.505-7.47h1.62v10.5h-1.845v-7.455zm-5.46-5.595h1.725c.12.58.545.87 1.275.87.76 0 1.16-.29 1.2-.87h1.725c-.01.63-.295 1.15-.855 1.56-.56.39-1.25.585-2.07.585-.88 0-1.59-.19-2.13-.57-.53-.39-.82-.915-.87-1.575zm17.504 10.65l.705 1.38c-.33.35-.805.635-1.425.855a5.66 5.66 0 01-1.935.33c-1.6 0-2.905-.495-3.915-1.485-1-.99-1.5-2.3-1.5-3.93 0-1.56.475-2.855 1.425-3.885.94-1.02 2.255-1.53 3.945-1.53 1.34 0 2.405.355 3.195 1.065l-.825 1.365a4.2 4.2 0 00-2.37-.705c-1 0-1.82.335-2.46 1.005-.64.67-.96 1.565-.96 2.685 0 1.1.335 1.99 1.005 2.67.68.68 1.555 1.02 2.625 1.02.92 0 1.75-.28 2.49-.84zm4.385 2.4h-1.845v-10.5h1.845v4.98l4.14-4.98h2.22l-4.32 4.89 4.59 5.61h-2.34l-4.29-5.415v5.415zm6.867-5.25c0-1.53.51-2.815 1.53-3.855 1.04-1.04 2.35-1.56 3.93-1.56s2.885.5 3.915 1.5c1.04 1.01 1.56 2.315 1.56 3.915 0 1.57-.52 2.865-1.56 3.885-1.04 1.02-2.345 1.53-3.915 1.53-1.58 0-2.885-.5-3.915-1.5-1.03-1-1.545-2.305-1.545-3.915zm1.95 0c0 1.06.335 1.94 1.005 2.64.67.7 1.505 1.05 2.505 1.05 1.08 0 1.935-.35 2.565-1.05.64-.7.96-1.58.96-2.64 0-1.07-.34-1.955-1.02-2.655-.68-.69-1.515-1.035-2.505-1.035-1.01 0-1.85.345-2.52 1.035-.66.69-.99 1.575-.99 2.655zm12.965 5.25h-1.845v-10.5h5.925v1.725h-4.08v8.775zm4.582-5.25c0-1.53.51-2.815 1.53-3.855 1.04-1.04 2.35-1.56 3.93-1.56s2.885.5 3.915 1.5c1.04 1.01 1.56 2.315 1.56 3.915 0 1.57-.52 2.865-1.56 3.885-1.04 1.02-2.345 1.53-3.915 1.53-1.58 0-2.885-.5-3.915-1.5-1.03-1-1.545-2.305-1.545-3.915zm1.95 0c0 1.06.335 1.94 1.005 2.64.67.7 1.505 1.05 2.505 1.05 1.08 0 1.935-.35 2.565-1.05.64-.7.96-1.58.96-2.64 0-1.07-.34-1.955-1.02-2.655-.68-.69-1.515-1.035-2.505-1.035-1.01 0-1.85.345-2.52 1.035-.66.69-.99 1.575-.99 2.655zm-98.293 21.765h-4.725v-1.725h4.68c-.18-.86-.605-1.53-1.275-2.01-.67-.48-1.505-.72-2.505-.72-.92 0-1.74.27-2.46.81l-.72-1.38c.91-.77 2.115-1.155 3.615-1.155 1.56 0 2.83.495 3.81 1.485.98 1 1.47 2.305 1.47 3.915 0 1.65-.495 2.97-1.485 3.96-1 .98-2.335 1.47-4.005 1.47-.7 0-1.365-.1-1.995-.3-.63-.2-1.14-.465-1.53-.795l.795-1.545a4.3 4.3 0 002.7.915c.96 0 1.765-.255 2.415-.765.66-.52 1.065-1.24 1.215-2.16zm5.862 4.485h-1.845v-10.5h1.845v4.98l4.14-4.98h2.22l-4.32 4.89 4.59 5.61h-2.34l-4.29-5.415v5.415zm14.938-2.4l.705 1.38c-.33.35-.805.635-1.425.855a5.66 5.66 0 01-1.935.33c-1.6 0-2.905-.495-3.915-1.485-1-.99-1.5-2.3-1.5-3.93 0-1.56.475-2.855 1.425-3.885.94-1.02 2.255-1.53 3.945-1.53 1.34 0 2.405.355 3.195 1.065l-.825 1.365a4.2 4.2 0 00-2.37-.705c-1 0-1.82.335-2.46 1.005-.64.67-.96 1.565-.96 2.685 0 1.1.335 1.99 1.005 2.67.68.68 1.555 1.02 2.625 1.02.92 0 1.75-.28 2.49-.84zm10.909 2.4h-1.845v-8.775h-4.68v8.775h-1.845v-10.5h8.37v10.5zm2.129-5.25c0-1.53.51-2.815 1.53-3.855 1.04-1.04 2.35-1.56 3.93-1.56s2.885.5 3.915 1.5c1.04 1.01 1.56 2.315 1.56 3.915 0 1.57-.52 2.865-1.56 3.885-1.04 1.02-2.345 1.53-3.915 1.53-1.58 0-2.885-.5-3.915-1.5-1.03-1-1.545-2.305-1.545-3.915zm1.95 0c0 1.06.335 1.94 1.005 2.64.67.7 1.505 1.05 2.505 1.05 1.08 0 1.935-.35 2.565-1.05.64-.7.96-1.58.96-2.64 0-1.07-.34-1.955-1.02-2.655-.68-.69-1.515-1.035-2.505-1.035-1.01 0-1.85.345-2.52 1.035-.66.69-.99 1.575-.99 2.655zm12.965 1.455v3.795h-1.845v-10.5c.44 0 .915-.005 1.425-.015.52-.01 1.04-.015 1.56-.015.74 0 1.38.095 1.92.285.55.18.975.435 1.275.765.3.32.52.675.66 1.065.14.38.21.8.21 1.26 0 .95-.34 1.755-1.02 2.415-.67.66-1.61.99-2.82.99-.61 0-1.065-.015-1.365-.045zm1.32-5.01l-1.32.03v3.225c.53.05.965.075 1.305.075.59 0 1.06-.145 1.41-.435.36-.29.54-.71.54-1.26 0-1.09-.645-1.635-1.935-1.635zm7.9.03h-3.405v-1.725h8.655v1.725h-3.405v8.775h-1.845v-8.775zm15.325 8.775h-1.83v-4.485h-4.8v4.485h-1.845v-10.5h1.845v4.29h4.8v-4.29h1.83v10.5zm2.127-5.25c0-1.53.51-2.815 1.53-3.855 1.04-1.04 2.35-1.56 3.93-1.56s2.885.5 3.915 1.5c1.04 1.01 1.56 2.315 1.56 3.915 0 1.57-.52 2.865-1.56 3.885-1.04 1.02-2.345 1.53-3.915 1.53-1.58 0-2.885-.5-3.915-1.5-1.03-1-1.545-2.305-1.545-3.915zm1.95 0c0 1.06.335 1.94 1.005 2.64.67.7 1.505 1.05 2.505 1.05 1.08 0 1.935-.35 2.565-1.05.64-.7.96-1.58.96-2.64 0-1.07-.34-1.955-1.02-2.655-.68-.69-1.515-1.035-2.505-1.035-1.01 0-1.85.345-2.52 1.035-.66.69-.99 1.575-.99 2.655zm12.965 5.25h-1.845v-10.5h5.925v1.725h-4.08v8.775zm4.582-5.25c0-1.53.51-2.815 1.53-3.855 1.04-1.04 2.35-1.56 3.93-1.56s2.885.5 3.915 1.5c1.04 1.01 1.56 2.315 1.56 3.915 0 1.57-.52 2.865-1.56 3.885-1.04 1.02-2.345 1.53-3.915 1.53-1.58 0-2.885-.5-3.915-1.5-1.03-1-1.545-2.305-1.545-3.915zm1.95 0c0 1.06.335 1.94 1.005 2.64.67.7 1.505 1.05 2.505 1.05 1.08 0 1.935-.35 2.565-1.05.64-.7.96-1.58.96-2.64 0-1.07-.34-1.955-1.02-2.655-.68-.69-1.515-1.035-2.505-1.035-1.01 0-1.85.345-2.52 1.035-.66.69-.99 1.575-.99 2.655zm22.294 5.25h-7.995v-10.5h1.845v8.775h4.605v-8.775h1.845v8.775h1.425v3.6h-1.725v-1.875zm9.773 0h-6.225v-10.5h6.075v1.725h-4.23v2.61h3.78v1.725h-3.78v2.715h4.38v1.725zm10.878 0h-1.83v-4.485h-4.8v4.485h-1.845v-10.5h1.845v4.29h4.8v-4.29h1.83v10.5zm5.006-8.775h-3.405v-1.725h8.655v1.725h-3.405v8.775h-1.845v-8.775zm8.696 4.98v3.795h-1.845v-10.5c.44 0 .915-.005 1.425-.015.52-.01 1.04-.015 1.56-.015.74 0 1.38.095 1.92.285.55.18.975.435 1.275.765.3.32.52.675.66 1.065.14.38.21.8.21 1.26 0 .95-.34 1.755-1.02 2.415-.67.66-1.61.99-2.82.99-.61 0-1.065-.015-1.365-.045zm1.32-5.01l-1.32.03v3.225c.53.05.965.075 1.305.075.59 0 1.06-.145 1.41-.435.36-.29.54-.71.54-1.26 0-1.09-.645-1.635-1.935-1.635zm5.562 8.805h-1.86l4.44-10.53h1.62l4.44 10.53H273l-1.095-2.685h-4.485l-1.095 2.685zm4.875-4.41l-1.53-3.735-1.545 3.735h3.075z" fill="#002E5E"/><defs><clipPath id="clip0_1438_1563"><path fill="#fff" d="M0 0h236.146v53.869H0z"/></clipPath></defs></svg>