<svg width="220" height="100" fill="none" xmlns="http://www.w3.org/2000/svg"><path d="M174.244 68.493h5.389L192.809 31.8h-5.39l-13.175 36.693zm-7.069-18.713c0 3.18-1.797 5.871-5.27 5.871-3.472 0-5.389-2.935-5.389-5.87 0-2.936 1.917-5.872 5.389-5.872 3.354 0 5.27 2.568 5.27 5.871zm-4.671-10.03c-3.353 0-5.269 1.835-5.868 2.569v-2.08h-5.03v28.254h5.15V57.486c.598.611 2.634 2.324 5.748 2.324 4.79 0 9.221-3.67 9.221-10.03.121-6.728-4.789-10.03-9.221-10.03zm-27.547 7.95c.12-1.345 1.437-3.914 4.552-3.914 3.473 0 4.072 2.813 4.192 3.914h-8.744zm4.671-7.95c-5.868 0-9.821 4.403-9.821 10.03 0 5.626 3.953 10.03 9.941 10.03 5.988 0 8.504-4.282 8.504-4.282l-3.833-2.568s-1.317 2.691-4.671 2.691c-3.474 0-4.911-3.057-4.911-4.16h13.775s.12-.855.12-1.1v-.61c0-5.75-3.354-10.03-9.104-10.03zm-15.69 19.57h5.509l-6.827-19.08h-5.39l-6.947 19.081h5.63l3.952-12.109h.12l3.953 12.11zm-19.044-9.051c0 2.202-1.199 5.382-4.673 5.382-3.473 0-4.91-2.813-4.91-5.505 0-2.69 1.437-5.137 4.91-5.137 3.474 0 4.673 3.058 4.673 5.26zm-4.193-10.03c-2.515 0-4.312 1.223-4.791 1.59.12-.611.718-5.749 7.425-5.749h4.193l1.557-4.28h-5.63c-7.426 0-13.176 3.547-13.176 15.9 0 6.727 2.875 12.23 9.822 12.23 6.588 0 9.941-4.891 9.941-9.783 0-7.095-5.15-9.908-9.343-9.908h.002zm-24.555 8.073l-6.469-7.95-.12-.123h-4.43V59.32h5.15V48.19l5.03 6.482.12.245h1.317l5.151-6.727v11.13h5.15V40.24h-4.431l-6.468 8.073zM56.023 51.37c0 2.569-1.436 4.403-4.191 4.403-2.636 0-2.875-1.59-2.875-2.202 0-1.467 1.198-2.323 4.192-2.69.838-.123 1.677-.123 2.515-.123h.36v.612zm4.791 3.669v-6.85c-.239-5.992-2.755-8.438-8.025-8.438-3.593 0-5.988 1.467-6.827 2.078l1.436 3.915s2.158-1.958 4.912-1.958c3.953 0 3.473 3.303 3.473 3.303-1.316 0-11.977-.612-11.977 6.483 0 3.914 3.234 6.115 6.707 6.115 3.115 0 4.912-1.59 5.39-2.201 0 .122.12 1.834.12 1.834h4.791c.24 0 0-1.59 0-4.281zm-22.876-14.31c0 3.18-2.995 4.28-5.03 4.28h-2.636v-8.683h2.636c2.035.122 5.03 1.223 5.03 4.402zm-4.552-8.93h-8.384v27.642h5.39v-9.784h2.875c5.51 0 10.061-2.934 10.061-8.929 0-5.87-4.551-8.928-9.94-8.928" fill="#315EFB"/></svg>