<svg width="338" height="112" fill="none" xmlns="http://www.w3.org/2000/svg"><path d="M92.484 67.576h-1.845v-10.5h5.925v1.725h-4.08v8.775zm7.602-3.795v3.795h-1.845v-10.5c.44 0 .915-.005 1.425-.015.52-.01 1.04-.015 1.56-.015.74 0 1.38.095 1.92.285.55.18.975.435 1.275.765.3.32.52.675.66 1.065.14.38.21.8.21 1.26 0 .95-.34 1.755-1.02 2.415-.67.66-1.61.99-2.82.99-.61 0-1.065-.015-1.365-.045zm1.32-5.01l-1.32.03v3.225c.53.05.965.075 1.305.075.59 0 1.06-.145 1.41-.435.36-.29.54-.71.54-1.26 0-1.09-.645-1.635-1.935-1.635zm12.228-1.695h1.86l-3.57 8.055c-.37.84-.785 1.46-1.245 1.86a2.37 2.37 0 01-1.605.585c-.62 0-1.1-.14-1.44-.42l.645-1.56c.26.17.52.255.78.255.47 0 .815-.245 1.035-.735l.15-.36-4.635-7.68h2.085l3.435 5.865 2.505-5.865zm11.859 10.5h-1.845v-8.775h-4.68v8.775h-1.845v-10.5h8.37v10.5zm11.279 0h-1.845v-8.775h-4.68v8.775h-1.845v-10.5h8.37v10.5zm3.42 0h-1.86l4.44-10.53h1.62l4.44 10.53h-1.965l-1.095-2.685h-4.485l-1.095 2.685zm4.875-4.41l-1.53-3.735-1.545 3.735h3.075zM92.484 84.781v3.795h-1.845v-10.5c.44 0 .915-.005 1.425-.015.52-.01 1.04-.015 1.56-.015.74 0 1.38.095 1.92.285.55.18.975.435 1.275.765.3.32.52.675.66 1.065.14.38.21.8.21 1.26 0 .95-.34 1.755-1.02 2.415-.67.66-1.61.99-2.82.99-.61 0-1.065-.015-1.365-.045zm1.32-5.01l-1.32.03v3.225c.53.05.965.075 1.305.075.59 0 1.06-.145 1.41-.435.36-.29.54-.71.54-1.26 0-1.09-.645-1.635-1.935-1.635zm5.166 3.555c0-1.53.51-2.815 1.53-3.855 1.04-1.04 2.35-1.56 3.93-1.56s2.885.5 3.915 1.5c1.04 1.01 1.56 2.315 1.56 3.915 0 1.57-.52 2.865-1.56 3.885-1.04 1.02-2.345 1.53-3.915 1.53-1.58 0-2.885-.5-3.915-1.5-1.03-1-1.545-2.305-1.545-3.915zm1.95 0c0 1.06.335 1.94 1.005 2.64.67.7 1.505 1.05 2.505 1.05 1.08 0 1.935-.35 2.565-1.05.64-.7.96-1.58.96-2.64 0-1.07-.34-1.955-1.02-2.655-.68-.69-1.515-1.035-2.505-1.035-1.01 0-1.85.345-2.52 1.035-.66.69-.99 1.575-.99 2.655zm18.41 2.85l.705 1.38c-.33.35-.805.635-1.425.855a5.66 5.66 0 01-1.935.33c-1.6 0-2.905-.495-3.915-1.485-1-.99-1.5-2.3-1.5-3.93 0-1.56.475-2.855 1.425-3.885.94-1.02 2.255-1.53 3.945-1.53 1.34 0 2.405.355 3.195 1.065L119 80.341a4.2 4.2 0 00-2.37-.705c-1 0-1.82.335-2.46 1.005-.64.67-.96 1.565-.96 2.685 0 1.1.335 1.99 1.005 2.67.68.68 1.555 1.02 2.625 1.02.92 0 1.75-.28 2.49-.84zm9.39 0l.705 1.38c-.33.35-.805.635-1.425.855a5.66 5.66 0 01-1.935.33c-1.6 0-2.905-.495-3.915-1.485-1-.99-1.5-2.3-1.5-3.93 0-1.56.475-2.855 1.425-3.885.94-1.02 2.255-1.53 3.945-1.53 1.34 0 2.405.355 3.195 1.065l-.825 1.365a4.2 4.2 0 00-2.37-.705c-1 0-1.82.335-2.46 1.005-.64.67-.96 1.565-.96 2.685 0 1.1.335 1.99 1.005 2.67.68.68 1.555 1.02 2.625 1.02.92 0 1.75-.28 2.49-.84zm9.664-5.055l-5.505 7.455h-1.62v-10.5h1.845v7.47l5.505-7.47h1.62v10.5h-1.845v-7.455zm11.88 0l-5.505 7.455h-1.62v-10.5h1.845v7.47l5.505-7.47h1.62v10.5h-1.845v-7.455zm-5.46-5.595h1.725c.12.58.545.87 1.275.87.76 0 1.16-.29 1.2-.87h1.725c-.01.63-.295 1.15-.855 1.56-.56.39-1.25.585-2.07.585-.88 0-1.59-.19-2.13-.57-.53-.39-.82-.915-.87-1.575zm17.504 10.65l.705 1.38c-.33.35-.805.635-1.425.855a5.66 5.66 0 01-1.935.33c-1.6 0-2.905-.495-3.915-1.485-1-.99-1.5-2.3-1.5-3.93 0-1.56.475-2.855 1.425-3.885.94-1.02 2.255-1.53 3.945-1.53 1.34 0 2.405.355 3.195 1.065l-.825 1.365a4.2 4.2 0 00-2.37-.705c-1 0-1.82.335-2.46 1.005-.64.67-.96 1.565-.96 2.685 0 1.1.335 1.99 1.005 2.67.68.68 1.555 1.02 2.625 1.02.92 0 1.75-.28 2.49-.84zm4.385 2.4h-1.845v-10.5h1.845v4.98l4.14-4.98h2.22l-4.32 4.89 4.59 5.61h-2.34l-4.29-5.415v5.415zm6.867-5.25c0-1.53.51-2.815 1.53-3.855 1.04-1.04 2.35-1.56 3.93-1.56s2.885.5 3.915 1.5c1.04 1.01 1.56 2.315 1.56 3.915 0 1.57-.52 2.865-1.56 3.885-1.04 1.02-2.345 1.53-3.915 1.53-1.58 0-2.885-.5-3.915-1.5-1.03-1-1.545-2.305-1.545-3.915zm1.95 0c0 1.06.335 1.94 1.005 2.64.67.7 1.505 1.05 2.505 1.05 1.08 0 1.935-.35 2.565-1.05.64-.7.96-1.58.96-2.64 0-1.07-.34-1.955-1.02-2.655-.68-.69-1.515-1.035-2.505-1.035-1.01 0-1.85.345-2.52 1.035-.66.69-.99 1.575-.99 2.655zm12.965 5.25h-1.845v-10.5h5.925v1.725h-4.08v8.775zm4.582-5.25c0-1.53.51-2.815 1.53-3.855 1.04-1.04 2.35-1.56 3.93-1.56s2.885.5 3.915 1.5c1.04 1.01 1.56 2.315 1.56 3.915 0 1.57-.52 2.865-1.56 3.885-1.04 1.02-2.345 1.53-3.915 1.53-1.58 0-2.885-.5-3.915-1.5-1.03-1-1.545-2.305-1.545-3.915zm1.95 0c0 1.06.335 1.94 1.005 2.64.67.7 1.505 1.05 2.505 1.05 1.08 0 1.935-.35 2.565-1.05.64-.7.96-1.58.96-2.64 0-1.07-.34-1.955-1.02-2.655-.68-.69-1.515-1.035-2.505-1.035-1.01 0-1.85.345-2.52 1.035-.66.69-.99 1.575-.99 2.655zm-98.293 21.765h-4.725v-1.725h4.68c-.18-.86-.605-1.53-1.275-2.01-.67-.48-1.505-.72-2.505-.72-.92 0-1.74.27-2.46.81l-.72-1.38c.91-.77 2.115-1.155 3.615-1.155 1.56 0 2.83.495 3.81 1.485.98 1 1.47 2.305 1.47 3.915 0 1.65-.495 2.97-1.485 3.96-1 .98-2.335 1.47-4.005 1.47-.7 0-1.365-.1-1.995-.3-.63-.2-1.14-.465-1.53-.795l.795-1.545a4.3 4.3 0 002.7.915c.96 0 1.765-.255 2.415-.765.66-.52 1.065-1.24 1.215-2.16zm5.862 4.485h-1.845v-10.5h1.845v4.98l4.14-4.98h2.22l-4.32 4.89 4.59 5.61h-2.34l-4.29-5.415v5.415zm14.938-2.4l.705 1.38c-.33.35-.805.635-1.425.855a5.66 5.66 0 01-1.935.33c-1.6 0-2.905-.495-3.915-1.485-1-.99-1.5-2.3-1.5-3.93 0-1.56.475-2.855 1.425-3.885.94-1.02 2.255-1.53 3.945-1.53 1.34 0 2.405.355 3.195 1.065l-.825 1.365a4.2 4.2 0 00-2.37-.705c-1 0-1.82.335-2.46 1.005-.64.67-.96 1.565-.96 2.685 0 1.1.335 1.99 1.005 2.67.68.68 1.555 1.02 2.625 1.02.92 0 1.75-.28 2.49-.84zm10.909 2.4h-1.845v-8.775h-4.68v8.775h-1.845v-10.5h8.37v10.5zm2.129-5.25c0-1.53.51-2.815 1.53-3.855 1.04-1.04 2.35-1.56 3.93-1.56s2.885.5 3.915 1.5c1.04 1.01 1.56 2.315 1.56 3.915 0 1.57-.52 2.865-1.56 3.885-1.04 1.02-2.345 1.53-3.915 1.53-1.58 0-2.885-.5-3.915-1.5-1.03-1-1.545-2.305-1.545-3.915zm1.95 0c0 1.06.335 1.94 1.005 2.64.67.7 1.505 1.05 2.505 1.05 1.08 0 1.935-.35 2.565-1.05.64-.7.96-1.58.96-2.64 0-1.07-.34-1.955-1.02-2.655-.68-.69-1.515-1.035-2.505-1.035-1.01 0-1.85.345-2.52 1.035-.66.69-.99 1.575-.99 2.655zm12.965 1.455v3.795h-1.845v-10.5c.44 0 .915-.005 1.425-.015.52-.01 1.04-.015 1.56-.015.74 0 1.38.095 1.92.285.55.18.975.435 1.275.765.3.32.52.675.66 1.065.14.38.21.8.21 1.26 0 .95-.34 1.755-1.02 2.415-.67.66-1.61.99-2.82.99-.61 0-1.065-.015-1.365-.045zm1.32-5.01l-1.32.03v3.225c.53.05.965.075 1.305.075.59 0 1.06-.145 1.41-.435.36-.29.54-.71.54-1.26 0-1.09-.645-1.635-1.935-1.635zm7.9.03h-3.405v-1.725h8.655v1.725h-3.405v8.775h-1.845v-8.775zm15.325 8.775h-1.83v-4.485h-4.8v4.485h-1.845v-10.5h1.845v4.29h4.8v-4.29h1.83v10.5zm2.127-5.25c0-1.53.51-2.815 1.53-3.855 1.04-1.04 2.35-1.56 3.93-1.56s2.885.5 3.915 1.5c1.04 1.01 1.56 2.315 1.56 3.915 0 1.57-.52 2.865-1.56 3.885-1.04 1.02-2.345 1.53-3.915 1.53-1.58 0-2.885-.5-3.915-1.5-1.03-1-1.545-2.305-1.545-3.915zm1.95 0c0 1.06.335 1.94 1.005 2.64.67.7 1.505 1.05 2.505 1.05 1.08 0 1.935-.35 2.565-1.05.64-.7.96-1.58.96-2.64 0-1.07-.34-1.955-1.02-2.655-.68-.69-1.515-1.035-2.505-1.035-1.01 0-1.85.345-2.52 1.035-.66.69-.99 1.575-.99 2.655zm12.965 5.25h-1.845v-10.5h5.925v1.725h-4.08v8.775zm4.582-5.25c0-1.53.51-2.815 1.53-3.855 1.04-1.04 2.35-1.56 3.93-1.56s2.885.5 3.915 1.5c1.04 1.01 1.56 2.315 1.56 3.915 0 1.57-.52 2.865-1.56 3.885-1.04 1.02-2.345 1.53-3.915 1.53-1.58 0-2.885-.5-3.915-1.5-1.03-1-1.545-2.305-1.545-3.915zm1.95 0c0 1.06.335 1.94 1.005 2.64.67.7 1.505 1.05 2.505 1.05 1.08 0 1.935-.35 2.565-1.05.64-.7.96-1.58.96-2.64 0-1.07-.34-1.955-1.02-2.655-.68-.69-1.515-1.035-2.505-1.035-1.01 0-1.85.345-2.52 1.035-.66.69-.99 1.575-.99 2.655zm22.294 5.25h-7.995v-10.5h1.845v8.775h4.605v-8.775h1.845v8.775h1.425v3.6h-1.725v-1.875zm9.773 0h-6.225v-10.5h6.075v1.725h-4.23v2.61h3.78v1.725h-3.78v2.715h4.38v1.725zm10.878 0h-1.83v-4.485h-4.8v4.485h-1.845v-10.5h1.845v4.29h4.8v-4.29h1.83v10.5zm5.006-8.775h-3.405v-1.725h8.655v1.725h-3.405v8.775h-1.845v-8.775zm8.696 4.98v3.795h-1.845v-10.5c.44 0 .915-.005 1.425-.015.52-.01 1.04-.015 1.56-.015.74 0 1.38.095 1.92.285.55.18.975.435 1.275.765.3.32.52.675.66 1.065.14.38.21.8.21 1.26 0 .95-.34 1.755-1.02 2.415-.67.66-1.61.99-2.82.99-.61 0-1.065-.015-1.365-.045zm1.32-5.01l-1.32.03v3.225c.53.05.965.075 1.305.075.59 0 1.06-.145 1.41-.435.36-.29.54-.71.54-1.26 0-1.09-.645-1.635-1.935-1.635zm5.562 8.805h-1.86l4.44-10.53h1.62l4.44 10.53h-1.965l-1.095-2.685h-4.485l-1.095 2.685zm4.875-4.41l-1.53-3.735-1.545 3.735h3.075z" fill="#002E5E"/><g clip-path="url(#clip0_1438_1609)"><path d="M84.733 41.71h69.654l7.689-4.522h69.502" stroke="#0F385F"/><path d="M38.64.004l-4.604 1.943L33.213 0l5.427.004zm13.954.454l3.776 5.984-14.185-1.448L52.594.458zM75.86.005l-5.637 2.512L67.207.005h8.652zM30.093 10.127l-4.491 6.083-5.619-.68 10.11-5.403zM8.892 28.571l-.466 6.088-8.404 5.152 8.87-11.24zM59.347 11.97l7.954 10.929-13.242-1.584 5.288-9.346zm2.05 27.973l-5.454 12.633-2.897-8.715 8.351-3.918zM32.895 17.375l10.97-4.848 3.01 6.464-13.98-1.616z" fill="#1B4E9B"/><path d="M33.211 0l.824 1.947-3.942 1.652L33.21 0zM25.6 16.21l-5.617 7.5v-8.18l5.617.68zM75.947.005l-2.299 5.35-3.424-2.838L75.86.005h.087zM8.424 34.659l-.63 6.895L0 39.834l8.424-5.175zM67.299 22.9l-19.302 9.107 6.06-10.692L67.3 22.9zM38.565 35.94l-18.658 8.853V31.166l18.658 4.774zm14.481 7.921l2.897 8.715-14.08-3.238 11.183-5.477zM32.895 17.375l13.98 1.615-12.242 5.588-1.739-7.203z" fill="#1090CF"/></g><path d="M93.804 21.471v5.313H91.22v-14.7c.616 0 1.28-.007 1.995-.02.728-.015 1.456-.022 2.184-.022 1.036 0 1.932.133 2.688.4.77.251 1.365.608 1.785 1.07.42.448.728.945.924 1.491.196.532.294 1.12.294 1.764 0 1.33-.476 2.457-1.428 3.381-.938.924-2.254 1.386-3.948 1.386-.854 0-1.491-.02-1.911-.063zm1.848-7.014l-1.848.042v4.515c.742.07 1.35.105 1.827.105.826 0 1.484-.203 1.974-.609.504-.406.756-.994.756-1.764 0-1.526-.903-2.289-2.71-2.289zm7.232 4.977c0-2.142.714-3.94 2.142-5.397 1.456-1.456 3.29-2.184 5.502-2.184 2.212 0 4.039.7 5.481 2.1 1.456 1.414 2.184 3.241 2.184 5.481 0 2.198-.728 4.011-2.184 5.44-1.456 1.427-3.283 2.141-5.481 2.141-2.212 0-4.039-.7-5.481-2.1-1.442-1.4-2.163-3.227-2.163-5.48zm2.73 0c0 1.484.469 2.716 1.407 3.696.938.98 2.107 1.47 3.507 1.47 1.512 0 2.709-.49 3.591-1.47.896-.98 1.344-2.212 1.344-3.696 0-1.498-.476-2.737-1.428-3.717-.952-.966-2.121-1.449-3.507-1.449-1.414 0-2.59.483-3.528 1.45-.924.965-1.386 2.204-1.386 3.716zm25.775 3.99l.987 1.932c-.462.49-1.127.89-1.995 1.197a7.923 7.923 0 01-2.709.462c-2.24 0-4.067-.693-5.481-2.079-1.4-1.386-2.1-3.22-2.1-5.502 0-2.184.665-3.997 1.995-5.439 1.316-1.428 3.157-2.142 5.523-2.142 1.876 0 3.367.497 4.473 1.491l-1.155 1.911a5.881 5.881 0 00-3.318-.987c-1.4 0-2.548.47-3.444 1.407-.896.938-1.344 2.191-1.344 3.76 0 1.54.469 2.785 1.407 3.737.952.952 2.177 1.428 3.675 1.428 1.288 0 2.45-.392 3.486-1.176zm11.977-2.919h-6.615V18.09h6.552c-.252-1.204-.847-2.142-1.785-2.814-.938-.672-2.107-1.008-3.507-1.008-1.288 0-2.436.378-3.444 1.134l-1.008-1.932c1.274-1.078 2.961-1.617 5.061-1.617 2.184 0 3.962.693 5.334 2.08 1.372 1.4 2.058 3.226 2.058 5.48 0 2.31-.693 4.158-2.079 5.544-1.4 1.372-3.269 2.058-5.607 2.058-.98 0-1.911-.14-2.793-.42-.882-.28-1.596-.65-2.142-1.113l1.113-2.163c1.106.854 2.366 1.281 3.78 1.281 1.344 0 2.471-.357 3.381-1.07.924-.729 1.491-1.737 1.701-3.025zm8.208 6.28h-2.583v-14.7h2.583v6.971l5.796-6.972h3.108l-6.048 6.846 6.426 7.854h-3.276l-6.006-7.58v7.58zm20.912-3.36l.987 1.931c-.462.49-1.127.89-1.995 1.197a7.923 7.923 0 01-2.709.462c-2.24 0-4.067-.693-5.481-2.079-1.4-1.386-2.1-3.22-2.1-5.502 0-2.184.665-3.997 1.995-5.439 1.316-1.428 3.157-2.142 5.523-2.142 1.876 0 3.367.497 4.473 1.491l-1.155 1.911a5.881 5.881 0 00-3.318-.987c-1.4 0-2.548.47-3.444 1.407-.896.938-1.344 2.191-1.344 3.76 0 1.54.469 2.785 1.407 3.737.952.952 2.177 1.428 3.675 1.428 1.288 0 2.45-.392 3.486-1.176zm13.53-7.078l-7.707 10.437h-2.268v-14.7h2.583v10.458l7.707-10.458h2.268v14.7h-2.583V16.347zm9.24 10.437h-2.583v-14.7h2.604l5.019 6.867 4.788-6.867h2.436v14.7h-2.562V16.158l-4.641 6.531h-.378l-4.683-6.468v10.563zm16.345 0v-14.7h8.589V14.5h-6.006v3.276a13.762 13.762 0 011.974-.126c1.526 0 2.73.4 3.612 1.197.882.798 1.323 1.876 1.323 3.234 0 1.526-.497 2.71-1.491 3.55-.98.825-2.373 1.238-4.179 1.238-.336 0-1.078-.014-2.226-.042-.224 0-.462-.007-.714-.02-.252 0-.448-.008-.588-.022h-.294zm4.347-6.72c-.532 0-1.12.042-1.764.126v4.18a21.21 21.21 0 001.638.083c1.806 0 2.709-.728 2.709-2.184 0-.686-.217-1.225-.651-1.617-.434-.392-1.078-.588-1.932-.588zm9.267 6.72h-2.604l6.216-14.742h2.268l6.216 14.742h-2.751l-1.533-3.759h-6.279l-1.533 3.76zm6.825-6.174l-2.142-5.229-2.163 5.23h4.305zm19.338 6.174h-2.562v-6.279h-6.72v6.28h-2.583v-14.7h2.583v6.005h6.72v-6.006h2.562v14.7zm6.652 0h-2.583v-14.7h2.583v6.972l5.796-6.972h3.108l-6.048 6.846 6.426 7.854h-3.276l-6.006-7.58v7.58z" fill="#4D67AC"/><defs><clipPath id="clip0_1438_1609"><path fill="#fff" d="M0 0h231.579v52.576H0z"/></clipPath></defs></svg>