<svg width="220" height="100" fill="none" xmlns="http://www.w3.org/2000/svg"><path d="M43 43l-15.633 6L19 43h24z" fill="#0054A5"/><path d="M43 43l-6.43 14L27 49.561 42.754 43H43z" fill="#0090D0"/><path d="M56.98 55.772v-4.188h1.466c2.7 0 4.139-1.793 4.139-3.762 0-1.97-1.053-3.698-4.373-3.698H55v11.648h1.98zm1.421-9.734c1.359 0 2.087.6 2.087 1.848 0 1.248-.9 1.85-2.105 1.85-.47-.005-.938-.035-1.404-.093v-3.578h1.422v-.027zm6.523 3.956a5.91 5.91 0 00.383 2.343 5.785 5.785 0 001.269 1.986 5.602 5.602 0 001.94 1.292 5.477 5.477 0 002.283.378 5.557 5.557 0 002.275-.398 5.683 5.683 0 001.934-1.293 5.869 5.869 0 001.276-1.975 5.99 5.99 0 00.409-2.333 5.91 5.91 0 00-.39-2.342 5.783 5.783 0 00-1.275-1.982 5.599 5.599 0 00-1.945-1.285 5.478 5.478 0 00-2.284-.372 5.541 5.541 0 00-2.267.397 5.664 5.664 0 00-1.928 1.289c-.55.56-.984 1.23-1.273 1.969a5.975 5.975 0 00-.407 2.326zm2.105 0a3.96 3.96 0 01.73-2.108 3.8 3.8 0 011.74-1.348 3.692 3.692 0 012.173-.14c.722.173 1.38.56 1.89 1.113.51.553.85 1.248.98 1.998a3.99 3.99 0 01-.252 2.223 3.868 3.868 0 01-1.402 1.712 3.715 3.715 0 01-2.089.636 3.727 3.727 0 01-1.484-.327 3.815 3.815 0 01-1.243-.896 3.936 3.936 0 01-.804-1.323 4.015 4.015 0 01-.239-1.54zm20.766 3.152a4.243 4.243 0 01-2.699.925 3.661 3.661 0 01-1.54-.263 3.746 3.746 0 01-1.303-.884 3.87 3.87 0 01-.84-1.353 3.951 3.951 0 01-.23-1.586c0-2.515 1.574-4.077 3.68-4.077a4.166 4.166 0 012.554.786l.9-1.516a5.067 5.067 0 00-3.437-1.174c-3.734 0-5.785 2.653-5.785 5.98-.046.8.074 1.6.35 2.349a5.696 5.696 0 001.255 1.995 5.512 5.512 0 001.94 1.293 5.39 5.39 0 002.285.363 5.143 5.143 0 003.6-1.312l-.73-1.526zm5.093-2.302h5.083a3.806 3.806 0 01-1.329 2.404c-.723.6-1.64.898-2.566.832a4.66 4.66 0 01-2.916-1.017l-.9 1.71a5.944 5.944 0 003.797 1.22c3.6 0 5.903-2.375 5.903-6.008a5.744 5.744 0 00-.325-2.314 5.625 5.625 0 00-1.215-1.976 5.446 5.446 0 00-1.894-1.294 5.322 5.322 0 00-2.244-.388 5.955 5.955 0 00-3.886 1.276l.773 1.525a4.298 4.298 0 012.637-.924c2.14 0 3.68 1.081 4.075 3.013h-5.038l.045 1.941zM103.27 55.8h1.979v-5.98l4.625 5.953h2.51l-4.939-6.194 4.651-5.417h-2.384l-4.499 5.547V44.16h-1.979l.036 11.638zm19.029-2.653a4.287 4.287 0 01-2.699.925 3.673 3.673 0 01-1.539-.266 3.757 3.757 0 01-1.301-.884 3.877 3.877 0 01-.84-1.351 3.955 3.955 0 01-.234-1.585 3.85 3.85 0 01.185-1.545c.166-.496.431-.95.779-1.335a3.66 3.66 0 011.239-.895 3.57 3.57 0 011.486-.302 4.121 4.121 0 012.546.786l.9-1.516a5.11 5.11 0 00-3.446-1.174c-3.734 0-5.776 2.653-5.776 5.98-.047.8.071 1.601.347 2.35.276.75.704 1.43 1.255 1.997a5.508 5.508 0 001.941 1.293 5.386 5.386 0 002.287.36 5.117 5.117 0 003.599-1.312l-.729-1.526zm5.444 2.653l5.92-8.236V55.8h1.988V44.161h-1.736l-5.93 8.264v-8.264h-1.988v11.61l1.746.028zm12.002 0h1.997v-8.32l3.599 5.103h.297l3.599-5.149v8.385h1.962V44.16h-1.872l-3.68 5.436-3.86-5.436h-2.042v11.638zm15.52 0c.657 0 1.629.074 2.934.074 2.78 0 4.363-1.386 4.363-3.78 0-2.145-1.43-3.504-3.797-3.504-.508.003-1.016.036-1.52.102v-2.626h4.624v-1.904h-6.604V55.8zm3.338-5.297c1.386 0 1.989.74 1.989 1.73 0 .988-.612 1.728-2.088 1.728-.413 0-.8 0-1.259-.065v-3.3c.45-.063.904-.094 1.358-.093zm6.083 5.297h2.006l1.188-2.967h4.813l1.188 2.967h2.114l-4.786-11.638h-1.737L164.686 55.8zm5.605-9.003l1.656 4.132h-3.311l1.655-4.132zm15.52 9.003h1.962V44.161h-1.962v4.742h-5.164v-4.742h-1.997v11.61h1.997v-4.954h5.164v4.982zm6.065 0h1.988v-5.98l4.616 5.98H201l-4.94-6.193 4.688-5.445h-2.384l-4.499 5.547V44.16h-1.988v11.638z" fill="#0054A5"/></svg>