<svg width="1173" height="22" fill="none" xmlns="http://www.w3.org/2000/svg"><path d="M28.224 4.8h1.648l-4.992 5.264L30.128 16h-1.744l-5.072-5.84 4.912-5.36zM23.04 16h-1.36V4.8h1.36V16zm14.68 0h-1.28v-5.92h-2.53l-.08 1.216c-.085.992-.213 1.819-.384 2.48-.16.65-.373 1.141-.64 1.472-.256.32-.528.544-.816.672-.288.117-.64.176-1.056.176l-.096-1.248c.118.01.24-.005.368-.048a1.28 1.28 0 00.416-.32c.16-.16.299-.373.416-.64.128-.267.24-.64.336-1.12.107-.49.176-1.05.208-1.68l.128-2.24h5.008V16zm3.667 0h-1.36V8.8h1.36v2.88h1.568c.15-.917.55-1.653 1.2-2.208.661-.555 1.472-.832 2.432-.832 1.13 0 2.037.357 2.72 1.072.693.715 1.04 1.61 1.04 2.688 0 1.077-.352 1.979-1.056 2.704-.693.704-1.595 1.056-2.704 1.056-1.013 0-1.845-.293-2.496-.88-.65-.587-1.035-1.36-1.152-2.32h-1.552V16zm3.6-5.392c-.427.459-.64 1.056-.64 1.792s.213 1.333.64 1.792c.427.459.976.688 1.648.688.672 0 1.216-.224 1.632-.672.427-.459.64-1.061.64-1.808 0-.736-.208-1.333-.624-1.792-.416-.459-.965-.688-1.648-.688-.672 0-1.221.23-1.648.688zM56.311 8.8h1.28V16h-1.28v-2.8c-.554.352-1.221.528-2 .528-1.706 0-2.56-.917-2.56-2.752V8.8h1.36v2.032c0 1.13.518 1.696 1.552 1.696.672 0 1.222-.15 1.648-.448V8.8zm9.271 5.408l.4 1.008c-.693.63-1.595.944-2.704.944-1.173 0-2.107-.341-2.8-1.024-.704-.683-1.056-1.595-1.056-2.736 0-1.077.33-1.973.992-2.688.65-.715 1.557-1.072 2.72-1.072.96 0 1.755.31 2.384.928.64.608.96 1.397.96 2.368 0 .31-.027.597-.08.864h-5.536c.053.672.304 1.2.752 1.584.459.384 1.045.576 1.76.576.939 0 1.675-.25 2.208-.752zM63.07 9.84c-.63 0-1.152.176-1.568.528-.405.352-.645.816-.72 1.392h4.368c-.032-.597-.235-1.067-.608-1.408-.363-.341-.853-.512-1.472-.512zM68.215 16V8.8h.224a4.05 4.05 0 01.416-.016c.18-.01.346-.016.495-.016.79-.021 1.28-.032 1.473-.032 2.069 0 3.104.619 3.104 1.856 0 .427-.134.795-.4 1.104a1.68 1.68 0 01-1.04.544v.032c1.12.203 1.68.768 1.68 1.696 0 1.397-1.105 2.096-3.313 2.096-.106 0-.576-.01-1.407-.032-.16 0-.337-.005-.529-.016A4.78 4.78 0 0168.47 16h-.255zm2.816-3.232h-1.537v2.208c.769.032 1.26.048 1.472.048 1.227 0 1.84-.384 1.84-1.152 0-.736-.591-1.104-1.775-1.104zm-.113-2.992c-.309 0-.784.016-1.424.048v2.144h1.617c.437 0 .789-.101 1.055-.304a.972.972 0 00.4-.816c0-.715-.549-1.072-1.648-1.072zM78.441 16h-2.32V8.8h1.28v2.16h1.184c.981 0 1.701.224 2.16.672.458.437.688 1.04.688 1.808 0 .725-.24 1.333-.72 1.824-.459.49-1.216.736-2.272.736zm5.648 0h-1.28V8.8h1.28V16zm-5.744-3.84H77.4v2.64h.928c.608 0 1.05-.107 1.328-.32.277-.213.416-.544.416-.992 0-.885-.576-1.328-1.728-1.328zm13.721 2.048l.4 1.008c-.693.63-1.594.944-2.704.944-1.173 0-2.106-.341-2.8-1.024-.704-.683-1.056-1.595-1.056-2.736 0-1.077.331-1.973.992-2.688.651-.715 1.558-1.072 2.72-1.072.96 0 1.755.31 2.384.928.64.608.96 1.397.96 2.368 0 .31-.026.597-.08.864h-5.536c.054.672.304 1.2.752 1.584.459.384 1.046.576 1.76.576.939 0 1.675-.25 2.208-.752zM89.554 9.84c-.629 0-1.152.176-1.568.528-.405.352-.645.816-.72 1.392h4.368c-.032-.597-.234-1.067-.608-1.408-.362-.341-.853-.512-1.472-.512zm4.857 5.424c0-.256.08-.459.24-.608.16-.16.384-.24.672-.24.341 0 .619.144.832.432.213.277.32.65.32 1.12 0 .576-.16 1.072-.48 1.488-.31.427-.736.72-1.28.88l-.352-.608c.555-.17.896-.528 1.024-1.072.075-.363.07-.63-.016-.8-.064.096-.181.144-.352.144a.577.577 0 01-.432-.208.829.829 0 01-.176-.528zm13.205.736h-1.28v-6h-3.92v6h-1.28V8.8h6.48V16zm2.893-.896c-.704-.725-1.056-1.627-1.056-2.704 0-1.088.352-1.984 1.056-2.688.715-.715 1.643-1.072 2.784-1.072 1.142 0 2.064.357 2.768 1.072.715.704 1.072 1.6 1.072 2.688s-.357 1.99-1.072 2.704c-.704.704-1.626 1.056-2.768 1.056-1.13 0-2.058-.352-2.784-1.056zm1.008-4.544c-.469.47-.704 1.083-.704 1.84 0 .757.23 1.37.688 1.84.47.48 1.067.72 1.792.72.726 0 1.318-.235 1.776-.704.47-.48.704-1.099.704-1.856 0-.736-.234-1.35-.704-1.84-.458-.48-1.05-.72-1.776-.72-.725 0-1.317.24-1.776.72zm16.593 3.472l.608.928c-.619.8-1.541 1.2-2.768 1.2-1.152 0-2.085-.341-2.8-1.024-.704-.683-1.056-1.595-1.056-2.736 0-1.056.347-1.947 1.04-2.672.693-.725 1.563-1.088 2.608-1.088 1.259 0 2.203.315 2.832.944l-.592 1.008c-.555-.501-1.243-.752-2.064-.752-.672 0-1.253.245-1.744.736-.48.48-.72 1.088-.72 1.824 0 .779.245 1.397.736 1.856.501.47 1.12.704 1.856.704.832 0 1.52-.31 2.064-.928zM136.866 16h-1.28v-6h-3.92v6h-1.28V8.8h6.48V16zm7.757-5.36l-4.16 5.36h-1.28V8.8h1.28v5.36l4.16-5.36h1.28V16h-1.28v-5.36zm9.143 3.392l.608.928c-.619.8-1.541 1.2-2.768 1.2-1.152 0-2.085-.341-2.8-1.024-.704-.683-1.056-1.595-1.056-2.736 0-1.056.347-1.947 1.04-2.672.693-.725 1.563-1.088 2.608-1.088 1.259 0 2.203.315 2.832.944l-.592 1.008c-.555-.501-1.243-.752-2.064-.752-.672 0-1.253.245-1.744.736-.48.48-.72 1.088-.72 1.824 0 .779.245 1.397.736 1.856.501.47 1.12.704 1.856.704.832 0 1.52-.31 2.064-.928zm6.901-5.232h1.68l-3.152 3.44 3.456 3.76h-1.776l-3.248-3.68 3.04-3.52zm-3.344 7.2h-1.28V8.8h1.28V16zm7.072-5.68l-.336-1.024a4.511 4.511 0 012.4-.656c.971 0 1.675.24 2.112.72.438.48.656 1.221.656 2.224V16h-1.216v-.928c-.565.693-1.333 1.04-2.304 1.04-.661 0-1.194-.197-1.6-.592-.405-.405-.608-.95-.608-1.632 0-.704.251-1.259.752-1.664.502-.416 1.158-.624 1.968-.624.758 0 1.355.155 1.792.464 0-.81-.112-1.392-.336-1.744-.224-.352-.656-.528-1.296-.528-.65 0-1.312.176-1.984.528zm1.76 4.64c.715 0 1.334-.31 1.856-.928v-.912c-.448-.32-.986-.48-1.616-.48-.437 0-.805.107-1.104.32-.288.203-.432.49-.432.864 0 .352.112.63.336.832.235.203.555.304.96.304zm6.496 1.04h-1.28V8.8h1.168l2.768 3.568 2.624-3.568h1.136V16h-1.28v-5.248l-2.496 3.344h-.048l-2.592-3.344V16zm8.447-.736c0-.256.08-.459.24-.608.16-.16.384-.24.672-.24.342 0 .619.144.832.432.214.277.32.65.32 1.12 0 .576-.16 1.072-.48 1.488-.309.427-.736.72-1.28.88l-.352-.608c.555-.17.896-.528 1.024-1.072.075-.363.07-.63-.016-.8-.064.096-.181.144-.352.144a.577.577 0 01-.432-.208.831.831 0 01-.176-.528zm8.454-5.184h-2.64V8.8h6.56v1.28h-2.64V16h-1.28v-5.92zm6.599 9.12h-1.28V8.8h1.28v.848c.256-.299.608-.539 1.056-.72a3.5 3.5 0 011.392-.288c1.024 0 1.829.341 2.416 1.024.608.672.912 1.547.912 2.624 0 1.099-.347 2.021-1.04 2.768-.683.736-1.584 1.104-2.704 1.104-.864 0-1.542-.165-2.032-.496V19.2zm2.08-9.36c-.854 0-1.547.33-2.08.992V14.4c.565.373 1.205.56 1.92.56.757 0 1.36-.24 1.808-.72.458-.49.688-1.125.688-1.904 0-.757-.208-1.36-.624-1.808-.416-.459-.987-.688-1.712-.688zm5.914.48l-.336-1.024a4.511 4.511 0 012.4-.656c.971 0 1.675.24 2.112.72.438.48.656 1.221.656 2.224V16h-1.216v-.928c-.565.693-1.333 1.04-2.304 1.04-.661 0-1.194-.197-1.6-.592-.405-.405-.608-.95-.608-1.632 0-.704.251-1.259.752-1.664.502-.416 1.158-.624 1.968-.624.758 0 1.355.155 1.792.464 0-.81-.112-1.392-.336-1.744-.224-.352-.656-.528-1.296-.528-.65 0-1.312.176-1.984.528zm1.76 4.64c.715 0 1.334-.31 1.856-.928v-.912c-.448-.32-.986-.48-1.616-.48-.437 0-.805.107-1.104.32-.288.203-.432.49-.432.864 0 .352.112.63.336.832.235.203.555.304.96.304zM217.681 16h-1.28v-3.04h-4V16h-1.28V8.8h1.28v2.96h4V8.8h1.28V16zm7.851-1.968l.608.928c-.619.8-1.542 1.2-2.768 1.2-1.152 0-2.086-.341-2.8-1.024-.704-.683-1.056-1.595-1.056-2.736 0-1.056.346-1.947 1.04-2.672.693-.725 1.562-1.088 2.608-1.088 1.258 0 2.202.315 2.832.944l-.592 1.008c-.555-.501-1.243-.752-2.064-.752-.672 0-1.254.245-1.744.736-.48.48-.72 1.088-.72 1.824 0 .779.245 1.397.736 1.856.501.47 1.12.704 1.856.704.832 0 1.52-.31 2.064-.928zM233.876 16h-1.28v-5.92h-2.528l-.08 1.216c-.086.992-.214 1.819-.384 2.48-.16.65-.374 1.141-.64 1.472-.256.32-.528.544-.816.672-.288.117-.64.176-1.056.176l-.096-1.248a.9.9 0 00.368-.048c.128-.053.266-.16.416-.32.16-.16.298-.373.416-.64.128-.267.24-.64.336-1.12.106-.49.176-1.05.208-1.68l.128-2.24h5.008V16zm7.747-5.36l-4.16 5.36h-1.28V8.8h1.28v5.36l4.16-5.36h1.28V16h-1.28v-5.36zm4.887 8.56h-1.28V8.8h1.28v.848c.256-.299.608-.539 1.056-.72a3.5 3.5 0 011.392-.288c1.024 0 1.829.341 2.416 1.024.608.672.912 1.547.912 2.624 0 1.099-.347 2.021-1.04 2.768-.683.736-1.584 1.104-2.704 1.104-.864 0-1.541-.165-2.032-.496V19.2zm2.08-9.36c-.853 0-1.547.33-2.08.992V14.4c.565.373 1.205.56 1.92.56.757 0 1.36-.24 1.808-.72.459-.49.688-1.125.688-1.904 0-.757-.208-1.36-.624-1.808-.416-.459-.987-.688-1.712-.688zm10.338-1.04h1.456l-2.88 7.2c-.523 1.27-.976 2.112-1.36 2.528-.406.448-.87.672-1.392.672-.47 0-.923-.15-1.36-.448l.416-.976c.341.16.608.24.8.24.298 0 .565-.128.8-.384.245-.256.49-.672.736-1.248l.16-.384-3.456-7.2h1.536l2.112 4.576c.042.075.186.437.432 1.088.096-.352.208-.72.336-1.104l1.664-4.56zm8.17 5.408l.4 1.008c-.694.63-1.595.944-2.704.944-1.174 0-2.107-.341-2.8-1.024-.704-.683-1.056-1.595-1.056-2.736 0-1.077.33-1.973.992-2.688.65-.715 1.557-1.072 2.72-1.072.96 0 1.754.31 2.384.928.64.608.96 1.397.96 2.368 0 .31-.027.597-.08.864h-5.536c.053.672.304 1.2.752 1.584.458.384 1.045.576 1.76.576.938 0 1.674-.25 2.208-.752zm-2.512-4.368c-.63 0-1.152.176-1.568.528-.406.352-.646.816-.72 1.392h4.368c-.032-.597-.235-1.067-.608-1.408-.363-.341-.854-.512-1.472-.512zM271.01 16h-1.28V8.8h1.168l2.768 3.568L276.29 8.8h1.136V16h-1.28v-5.248l-2.496 3.344h-.048l-2.592-3.344V16zm11.056 0h-2.32V8.8h1.28v2.16h1.184c.981 0 1.701.224 2.16.672.458.437.688 1.04.688 1.808 0 .725-.24 1.333-.72 1.824-.459.49-1.216.736-2.272.736zm5.648 0h-1.28V8.8h1.28V16zm-5.744-3.84h-.944v2.64h.928c.608 0 1.05-.107 1.328-.32.277-.213.416-.544.416-.992 0-.885-.576-1.328-1.728-1.328zm13.721 2.048l.4 1.008c-.693.63-1.594.944-2.704.944-1.173 0-2.106-.341-2.8-1.024-.704-.683-1.056-1.595-1.056-2.736 0-1.077.331-1.973.992-2.688.651-.715 1.558-1.072 2.72-1.072.96 0 1.755.31 2.384.928.64.608.96 1.397.96 2.368 0 .31-.026.597-.08.864h-5.536c.054.672.304 1.2.752 1.584.459.384 1.046.576 1.76.576.939 0 1.675-.25 2.208-.752zm-2.512-4.368c-.629 0-1.152.176-1.568.528-.405.352-.645.816-.72 1.392h4.368c-.032-.597-.234-1.067-.608-1.408-.362-.341-.853-.512-1.472-.512z" fill="#EC1C24"/><circle cx="6" cy="11" r="6" fill="#EC1C24"/><path d="M354.304 16.16a4.86 4.86 0 01-2.176-.496c-.661-.33-1.157-.752-1.488-1.264l.752-.912c.352.416.789.752 1.312 1.008.533.256 1.04.384 1.52.384.768 0 1.381-.192 1.84-.576.469-.384.704-.907.704-1.568 0-.555-.192-.997-.576-1.328-.384-.33-.923-.496-1.616-.496h-1.296v-1.28h1.2c.491 0 .923-.176 1.296-.528.373-.373.56-.827.56-1.36 0-.576-.187-1.024-.56-1.344-.373-.32-.864-.48-1.472-.48-.992 0-1.84.416-2.544 1.248l-.8-.896a3.896 3.896 0 011.504-1.2 4.645 4.645 0 011.984-.432c.992 0 1.781.267 2.368.8.587.523.88 1.248.88 2.176a2.8 2.8 0 01-.432 1.488 2.818 2.818 0 01-1.184 1.072v.048c.651.128 1.152.432 1.504.912.363.47.544 1.045.544 1.728 0 1.013-.373 1.813-1.12 2.4-.747.597-1.648.896-2.704.896zm6.482-5.84l-.336-1.024a4.511 4.511 0 012.4-.656c.971 0 1.675.24 2.112.72.437.48.656 1.221.656 2.224V16h-1.216v-.928c-.565.693-1.333 1.04-2.304 1.04-.661 0-1.195-.197-1.6-.592-.405-.405-.608-.95-.608-1.632 0-.704.251-1.259.752-1.664.501-.416 1.157-.624 1.968-.624.757 0 1.355.155 1.792.464 0-.81-.112-1.392-.336-1.744-.224-.352-.656-.528-1.296-.528-.651 0-1.312.176-1.984.528zm1.76 4.64c.715 0 1.333-.31 1.856-.928v-.912c-.448-.32-.987-.48-1.616-.48-.437 0-.805.107-1.104.32-.288.203-.432.49-.432.864 0 .352.112.63.336.832.235.203.555.304.96.304zm9.839-6.16h1.68l-3.152 3.44 3.456 3.76h-1.776l-3.248-3.68 3.04-3.52zm-3.344 7.2h-1.28V8.8h1.28V16zm7.969 3.2h-1.28V8.8h1.28v.848c.256-.299.608-.539 1.056-.72a3.5 3.5 0 011.392-.288c1.024 0 1.829.341 2.416 1.024.608.672.912 1.547.912 2.624 0 1.099-.347 2.021-1.04 2.768-.683.736-1.584 1.104-2.704 1.104-.864 0-1.541-.165-2.032-.496V19.2zm2.08-9.36c-.853 0-1.547.33-2.08.992V14.4c.565.373 1.205.56 1.92.56.757 0 1.36-.24 1.808-.72.459-.49.688-1.125.688-1.904 0-.757-.208-1.36-.624-1.808-.416-.459-.987-.688-1.712-.688zm7.851 6.16h-2.32V8.8h1.28v2.16h1.184c.981 0 1.701.224 2.16.672.458.437.688 1.04.688 1.808 0 .725-.24 1.333-.72 1.824-.459.49-1.216.736-2.272.736zm5.648 0h-1.28V8.8h1.28V16zm-5.744-3.84h-.944v2.64h.928c.608 0 1.05-.107 1.328-.32.277-.213.416-.544.416-.992 0-.885-.576-1.328-1.728-1.328zm9.769-2.08h-2.64V8.8h6.56v1.28h-2.64V16h-1.28v-5.92zm7.639 5.92h-2.32V8.8h1.28v2.16h1.184c.982 0 1.702.224 2.16.672.459.437.688 1.04.688 1.808 0 .725-.24 1.333-.72 1.824-.458.49-1.216.736-2.272.736zm5.648 0h-1.28V8.8h1.28V16zm-5.744-3.84h-.944v2.64h.928c.608 0 1.051-.107 1.328-.32.278-.213.416-.544.416-.992 0-.885-.576-1.328-1.728-1.328zm13.722 2.048l.4 1.008c-.693.63-1.595.944-2.704.944-1.173 0-2.107-.341-2.8-1.024-.704-.683-1.056-1.595-1.056-2.736 0-1.077.331-1.973.992-2.688.651-.715 1.557-1.072 2.72-1.072.96 0 1.755.31 2.384.928.64.608.96 1.397.96 2.368 0 .31-.027.597-.08.864h-5.536c.053.672.304 1.2.752 1.584.459.384 1.045.576 1.76.576.939 0 1.675-.25 2.208-.752zm-2.512-4.368c-.629 0-1.152.176-1.568.528-.405.352-.645.816-.72 1.392h4.368c-.032-.597-.235-1.067-.608-1.408-.363-.341-.853-.512-1.472-.512zm4.856 5.424c0-.256.08-.459.24-.608.16-.16.384-.24.672-.24.342 0 .619.144.832.432.214.277.32.65.32 1.12 0 .576-.16 1.072-.48 1.488-.309.427-.736.72-1.28.88l-.352-.608c.555-.17.896-.528 1.024-1.072.075-.363.07-.63-.016-.8-.064.096-.181.144-.352.144a.577.577 0 01-.432-.208.831.831 0 01-.176-.528zm13.206.736h-1.28v-6h-3.92v6h-1.28V8.8h6.48V16zm2.893-.896c-.704-.725-1.056-1.627-1.056-2.704 0-1.088.352-1.984 1.056-2.688.714-.715 1.642-1.072 2.784-1.072 1.141 0 2.064.357 2.768 1.072.714.704 1.072 1.6 1.072 2.688s-.358 1.99-1.072 2.704c-.704.704-1.627 1.056-2.768 1.056-1.131 0-2.059-.352-2.784-1.056zm1.008-4.544c-.47.47-.704 1.083-.704 1.84 0 .757.229 1.37.688 1.84.469.48 1.066.72 1.792.72.725 0 1.317-.235 1.776-.704.469-.48.704-1.099.704-1.856 0-.736-.235-1.35-.704-1.84-.459-.48-1.051-.72-1.776-.72-.726 0-1.318.24-1.776.72zm16.592 3.472l.608.928c-.618.8-1.541 1.2-2.768 1.2-1.152 0-2.085-.341-2.8-1.024-.704-.683-1.056-1.595-1.056-2.736 0-1.056.347-1.947 1.04-2.672.694-.725 1.563-1.088 2.608-1.088 1.259 0 2.203.315 2.832.944l-.592 1.008c-.554-.501-1.242-.752-2.064-.752-.672 0-1.253.245-1.744.736-.48.48-.72 1.088-.72 1.824 0 .779.246 1.397.736 1.856.502.47 1.12.704 1.856.704.832 0 1.52-.31 2.064-.928zM462.679 16h-1.28v-6h-3.92v6h-1.28V8.8h6.48V16zm7.757-5.36l-4.16 5.36h-1.28V8.8h1.28v5.36l4.16-5.36h1.28V16h-1.28v-5.36zm9.143 3.392l.608.928c-.619.8-1.542 1.2-2.768 1.2-1.152 0-2.086-.341-2.8-1.024-.704-.683-1.056-1.595-1.056-2.736 0-1.056.346-1.947 1.04-2.672.693-.725 1.562-1.088 2.608-1.088 1.258 0 2.202.315 2.832.944l-.592 1.008c-.555-.501-1.243-.752-2.064-.752-.672 0-1.254.245-1.744.736-.48.48-.72 1.088-.72 1.824 0 .779.245 1.397.736 1.856.501.47 1.12.704 1.856.704.832 0 1.52-.31 2.064-.928zm6.9-5.232h1.68l-3.152 3.44 3.456 3.76h-1.776l-3.248-3.68 3.04-3.52zm-3.344 7.2h-1.28V8.8h1.28V16zm7.073-5.68l-.336-1.024a4.511 4.511 0 012.4-.656c.971 0 1.675.24 2.112.72.437.48.656 1.221.656 2.224V16h-1.216v-.928c-.565.693-1.333 1.04-2.304 1.04-.661 0-1.195-.197-1.6-.592-.405-.405-.608-.95-.608-1.632 0-.704.251-1.259.752-1.664.501-.416 1.157-.624 1.968-.624.757 0 1.355.155 1.792.464 0-.81-.112-1.392-.336-1.744-.224-.352-.656-.528-1.296-.528-.651 0-1.312.176-1.984.528zm1.76 4.64c.715 0 1.333-.31 1.856-.928v-.912c-.448-.32-.987-.48-1.616-.48-.437 0-.805.107-1.104.32-.288.203-.432.49-.432.864 0 .352.112.63.336.832.235.203.555.304.96.304zm6.495 1.04h-1.28V8.8h1.168l2.768 3.568 2.624-3.568h1.136V16h-1.28v-5.248l-2.496 3.344h-.048l-2.592-3.344V16z" fill="#333"/><circle cx="336" cy="11" r="6" fill="#333"/><path d="M559.8 10.4c0-1.621.539-2.987 1.616-4.096 1.077-1.11 2.443-1.664 4.096-1.664 1.643 0 3.003.539 4.08 1.616 1.088 1.077 1.632 2.459 1.632 4.144 0 1.643-.544 3.019-1.632 4.128-1.088 1.088-2.448 1.632-4.08 1.632-1.632 0-2.997-.539-4.096-1.616-1.077-1.077-1.616-2.459-1.616-4.144zm1.44 0c0 1.259.411 2.325 1.232 3.2.821.853 1.835 1.28 3.04 1.28 1.259 0 2.283-.427 3.072-1.28.8-.853 1.2-1.92 1.2-3.2 0-1.28-.411-2.347-1.232-3.2-.821-.853-1.835-1.28-3.04-1.28-1.227 0-2.245.421-3.056 1.264-.811.843-1.216 1.915-1.216 3.216zm17.511-5.76l.688 1.008c-.256.352-.565.592-.928.72a7.29 7.29 0 01-1.344.32c-.49.075-.954.208-1.392.4-1.088.501-1.696 1.659-1.824 3.472h.032c.235-.501.614-.907 1.136-1.216a3.358 3.358 0 011.712-.464c1.024 0 1.835.325 2.432.976.608.65.912 1.52.912 2.608 0 1.024-.346 1.899-1.04 2.624-.682.715-1.568 1.072-2.656 1.072-1.173 0-2.101-.4-2.784-1.2-.682-.79-1.024-1.883-1.024-3.28 0-3.115.891-5.05 2.672-5.808a5.631 5.631 0 011.408-.4c.416-.075.715-.133.896-.176.182-.043.374-.117.576-.224.214-.107.39-.25.528-.432zm-4.72 7.28c0 .917.224 1.653.672 2.208.448.555 1.03.832 1.744.832.694 0 1.259-.235 1.696-.704.448-.459.672-1.035.672-1.728 0-.736-.208-1.328-.624-1.776-.405-.448-.965-.672-1.68-.672-.65 0-1.194.181-1.632.544-.458.373-.741.805-.848 1.296zm9.26 7.28h-1.28V8.8h1.28v.848c.256-.299.608-.539 1.056-.72a3.5 3.5 0 011.392-.288c1.024 0 1.83.341 2.416 1.024.608.672.912 1.547.912 2.624 0 1.099-.346 2.021-1.04 2.768-.682.736-1.584 1.104-2.704 1.104-.864 0-1.541-.165-2.032-.496V19.2zm2.08-9.36c-.853 0-1.546.33-2.08.992V14.4a3.41 3.41 0 001.92.56c.758 0 1.36-.24 1.808-.72.459-.49.688-1.125.688-1.904 0-.757-.208-1.36-.624-1.808-.416-.459-.986-.688-1.712-.688zm5.915.48l-.336-1.024a4.511 4.511 0 012.4-.656c.971 0 1.675.24 2.112.72.437.48.656 1.221.656 2.224V16h-1.216v-.928c-.565.693-1.333 1.04-2.304 1.04-.661 0-1.195-.197-1.6-.592-.405-.405-.608-.95-.608-1.632 0-.704.251-1.259.752-1.664.501-.416 1.157-.624 1.968-.624.757 0 1.355.155 1.792.464 0-.81-.112-1.392-.336-1.744-.224-.352-.656-.528-1.296-.528-.651 0-1.312.176-1.984.528zm1.76 4.64c.715 0 1.333-.31 1.856-.928v-.912c-.448-.32-.987-.48-1.616-.48-.437 0-.805.107-1.104.32-.288.203-.432.49-.432.864 0 .352.112.63.336.832.235.203.555.304.96.304zm7.599 1.2c-.544 0-1.12-.09-1.728-.272-.586-.192-1.002-.427-1.248-.704l.656-.96c.288.235.63.427 1.024.576a3.45 3.45 0 001.104.208c.555 0 1.008-.107 1.36-.32.352-.224.528-.512.528-.864a.765.765 0 00-.384-.688c-.245-.16-.586-.24-1.024-.24h-1.216v-1.04h1.136c.363 0 .662-.096.896-.288a.938.938 0 00.352-.736c0-.32-.138-.57-.416-.752-.277-.192-.65-.288-1.12-.288-.757 0-1.477.267-2.16.8l-.496-.992c.288-.299.688-.533 1.2-.704a5.277 5.277 0 011.648-.256c.854 0 1.515.17 1.984.512.48.341.72.816.72 1.424 0 .832-.421 1.397-1.264 1.696v.032c.47.053.838.24 1.104.56.267.31.4.688.4 1.136 0 .661-.282 1.19-.848 1.584-.554.384-1.29.576-2.208.576zm5.583-1.056c-.704-.725-1.056-1.627-1.056-2.704 0-1.088.352-1.984 1.056-2.688.715-.715 1.643-1.072 2.784-1.072 1.141 0 2.064.357 2.768 1.072.715.704 1.072 1.6 1.072 2.688s-.357 1.99-1.072 2.704c-.704.704-1.627 1.056-2.768 1.056-1.131 0-2.059-.352-2.784-1.056zm1.008-4.544c-.469.47-.704 1.083-.704 1.84 0 .757.229 1.37.688 1.84.469.48 1.067.72 1.792.72.725 0 1.317-.235 1.776-.704.469-.48.704-1.099.704-1.856 0-.736-.235-1.35-.704-1.84-.459-.48-1.051-.72-1.776-.72-.725 0-1.317.24-1.776.72zm7.463 5.44V8.8h.224c.096-.01.235-.016.416-.016.181-.01.347-.016.496-.016.789-.021 1.28-.032 1.472-.032 2.069 0 3.104.619 3.104 1.856 0 .427-.133.795-.4 1.104a1.68 1.68 0 01-1.04.544v.032c1.12.203 1.68.768 1.68 1.696 0 1.397-1.104 2.096-3.312 2.096-.107 0-.576-.01-1.408-.032a9.26 9.26 0 01-.528-.016c-.192 0-.341-.005-.448-.016h-.256zm2.816-3.232h-1.536v2.208c.768.032 1.259.048 1.472.048 1.227 0 1.84-.384 1.84-1.152 0-.736-.592-1.104-1.776-1.104zm-.112-2.992c-.309 0-.784.016-1.424.048v2.144h1.616c.437 0 .789-.101 1.056-.304a.972.972 0 00.4-.816c0-.715-.549-1.072-1.648-1.072zm5.586.544l-.336-1.024a4.511 4.511 0 012.4-.656c.971 0 1.675.24 2.112.72.437.48.656 1.221.656 2.224V16h-1.216v-.928c-.565.693-1.333 1.04-2.304 1.04-.661 0-1.195-.197-1.6-.592-.405-.405-.608-.95-.608-1.632 0-.704.251-1.259.752-1.664.501-.416 1.157-.624 1.968-.624.757 0 1.355.155 1.792.464 0-.81-.112-1.392-.336-1.744-.224-.352-.656-.528-1.296-.528-.651 0-1.312.176-1.984.528zm1.76 4.64c.715 0 1.333-.31 1.856-.928v-.912c-.448-.32-.987-.48-1.616-.48-.437 0-.805.107-1.104.32-.288.203-.432.49-.432.864 0 .352.112.63.336.832.235.203.555.304.96.304zm6.944-4.88h-2.64V8.8h6.56v1.28h-2.64V16h-1.28v-5.92zm10.764 4.128l.4 1.008c-.693.63-1.595.944-2.704.944-1.173 0-2.107-.341-2.8-1.024-.704-.683-1.056-1.595-1.056-2.736 0-1.077.331-1.973.992-2.688.651-.715 1.557-1.072 2.72-1.072.96 0 1.755.31 2.384.928.64.608.96 1.397.96 2.368 0 .31-.027.597-.08.864h-5.536c.053.672.304 1.2.752 1.584.459.384 1.045.576 1.76.576.939 0 1.675-.25 2.208-.752zm-2.512-4.368c-.629 0-1.152.176-1.568.528-.405.352-.645.816-.72 1.392h4.368c-.032-.597-.235-1.067-.608-1.408-.363-.341-.853-.512-1.472-.512zM651.016 16h-1.28v-5.92h-2.528l-.08 1.216c-.085.992-.213 1.819-.384 2.48-.16.65-.373 1.141-.64 1.472-.256.32-.528.544-.816.672-.288.117-.64.176-1.056.176l-.096-1.248c.118.01.24-.005.368-.048.128-.053.267-.16.416-.32.16-.16.299-.373.416-.64.128-.267.24-.64.336-1.12.107-.49.176-1.05.208-1.68l.128-2.24h5.008V16zm4.74 0h-2.432V8.8h1.28v2.16h1.312c.981 0 1.701.224 2.16.672.459.437.688 1.04.688 1.808 0 .725-.24 1.333-.72 1.824-.48.49-1.243.736-2.288.736zm-.08-3.84h-1.072v2.64h1.056c1.163 0 1.744-.437 1.744-1.312 0-.885-.576-1.328-1.728-1.328zM667.04 16h-1.28v-3.04h-4V16h-1.28V8.8h1.28v2.96h4V8.8h1.28V16zm4.635 0h-2.32V8.8h1.28v2.16h1.184c.981 0 1.701.224 2.16.672.459.437.688 1.04.688 1.808 0 .725-.24 1.333-.72 1.824-.459.49-1.216.736-2.272.736zm5.648 0h-1.28V8.8h1.28V16zm-5.744-3.84h-.944v2.64h.928c.608 0 1.051-.107 1.328-.32.277-.213.416-.544.416-.992 0-.885-.576-1.328-1.728-1.328zm13.722 2.048l.4 1.008c-.694.63-1.595.944-2.704.944-1.174 0-2.107-.341-2.8-1.024-.704-.683-1.056-1.595-1.056-2.736 0-1.077.33-1.973.992-2.688.65-.715 1.557-1.072 2.72-1.072.96 0 1.754.31 2.384.928.64.608.96 1.397.96 2.368 0 .31-.027.597-.08.864h-5.536c.053.672.304 1.2.752 1.584.458.384 1.045.576 1.76.576.938 0 1.674-.25 2.208-.752zm-2.512-4.368c-.63 0-1.152.176-1.568.528-.406.352-.646.816-.72 1.392h4.368c-.032-.597-.235-1.067-.608-1.408-.363-.341-.854-.512-1.472-.512zM698.007 16h-1.28v-6h-3.92v6h-1.28V8.8h6.48V16zm2.893-.896c-.704-.725-1.056-1.627-1.056-2.704 0-1.088.352-1.984 1.056-2.688.715-.715 1.643-1.072 2.784-1.072 1.141 0 2.064.357 2.768 1.072.715.704 1.072 1.6 1.072 2.688s-.357 1.99-1.072 2.704c-.704.704-1.627 1.056-2.768 1.056-1.131 0-2.059-.352-2.784-1.056zm1.008-4.544c-.469.47-.704 1.083-.704 1.84 0 .757.229 1.37.688 1.84.469.48 1.067.72 1.792.72.725 0 1.317-.235 1.776-.704.469-.48.704-1.099.704-1.856 0-.736-.235-1.35-.704-1.84-.459-.48-1.051-.72-1.776-.72-.725 0-1.317.24-1.776.72zM719.445 16h-1.28v-6h-3.92v6h-1.28V8.8h6.48V16zm3.596 3.2h-1.28V8.8h1.28v.848c.256-.299.608-.539 1.056-.72a3.5 3.5 0 011.392-.288c1.024 0 1.83.341 2.416 1.024.608.672.912 1.547.912 2.624 0 1.099-.346 2.021-1.04 2.768-.682.736-1.584 1.104-2.704 1.104-.864 0-1.541-.165-2.032-.496V19.2zm2.08-9.36c-.853 0-1.546.33-2.08.992V14.4a3.41 3.41 0 001.92.56c.758 0 1.36-.24 1.808-.72.459-.49.688-1.125.688-1.904 0-.757-.208-1.36-.624-1.808-.416-.459-.986-.688-1.712-.688zm11.211 4.368l.4 1.008c-.693.63-1.595.944-2.704.944-1.173 0-2.107-.341-2.8-1.024-.704-.683-1.056-1.595-1.056-2.736 0-1.077.331-1.973.992-2.688.651-.715 1.557-1.072 2.72-1.072.96 0 1.755.31 2.384.928.64.608.96 1.397.96 2.368 0 .31-.027.597-.08.864h-5.536c.053.672.304 1.2.752 1.584.459.384 1.045.576 1.76.576.939 0 1.675-.25 2.208-.752zM733.82 9.84c-.629 0-1.152.176-1.568.528-.405.352-.645.816-.72 1.392h4.368c-.032-.597-.235-1.067-.608-1.408-.363-.341-.853-.512-1.472-.512zm5.071 7.92h-1.2V14.8h.896c.267-.33.502-.864.704-1.6.203-.747.336-1.579.4-2.496l.112-1.904h4.912v6h1.2v2.96h-1.2V16h-5.824v1.76zm2.112-7.76l-.08 1.2c-.064.8-.192 1.53-.384 2.192-.192.661-.389 1.13-.592 1.408h3.488V10h-2.432zm6.305 6V8.8h.224c.096-.01.235-.016.416-.016a8.53 8.53 0 01.496-.016 78.71 78.71 0 011.472-.032c2.07 0 3.104.619 3.104 1.856 0 .427-.133.795-.4 1.104-.266.299-.613.48-1.04.544v.032c1.12.203 1.68.768 1.68 1.696 0 1.397-1.104 2.096-3.312 2.096-.106 0-.576-.01-1.408-.032a9.26 9.26 0 01-.528-.016c-.192 0-.341-.005-.448-.016h-.256zm2.816-3.232h-1.536v2.208c.768.032 1.259.048 1.472.048 1.227 0 1.84-.384 1.84-1.152 0-.736-.592-1.104-1.776-1.104zm-.112-2.992c-.309 0-.784.016-1.424.048v2.144h1.616c.438 0 .79-.101 1.056-.304a.972.972 0 00.4-.816c0-.715-.549-1.072-1.648-1.072zm5.587.544l-.336-1.024c.714-.437 1.514-.656 2.4-.656.97 0 1.674.24 2.112.72.437.48.656 1.221.656 2.224V16h-1.216v-.928c-.566.693-1.334 1.04-2.304 1.04-.662 0-1.195-.197-1.6-.592-.406-.405-.608-.95-.608-1.632 0-.704.25-1.259.752-1.664.501-.416 1.157-.624 1.968-.624.757 0 1.354.155 1.792.464 0-.81-.112-1.392-.336-1.744-.224-.352-.656-.528-1.296-.528-.651 0-1.312.176-1.984.528zm1.76 4.64c.714 0 1.333-.31 1.856-.928v-.912c-.448-.32-.987-.48-1.616-.48-.438 0-.806.107-1.104.32-.288.203-.433.49-.433.864 0 .352.113.63.337.832.234.203.554.304.96.304zm6.495 4.24h-1.28V8.8h1.28v.848c.256-.299.608-.539 1.056-.72a3.5 3.5 0 011.392-.288c1.024 0 1.829.341 2.416 1.024.608.672.912 1.547.912 2.624 0 1.099-.347 2.021-1.04 2.768-.683.736-1.584 1.104-2.704 1.104-.864 0-1.541-.165-2.032-.496V19.2zm2.08-9.36c-.853 0-1.547.33-2.08.992V14.4c.565.373 1.205.56 1.92.56.757 0 1.36-.24 1.808-.72.459-.49.688-1.125.688-1.904 0-.757-.208-1.36-.624-1.808-.416-.459-.987-.688-1.712-.688zm10.971.8l-4.16 5.36h-1.28V8.8h1.28v5.36l4.16-5.36h1.28V16h-1.28v-5.36zm5.334-.56h-2.64V8.8h6.56v1.28h-2.64V16h-1.28v-5.92zm10.765 4.128l.4 1.008c-.693.63-1.595.944-2.704.944-1.173 0-2.107-.341-2.8-1.024-.704-.683-1.056-1.595-1.056-2.736 0-1.077.331-1.973.992-2.688.651-.715 1.557-1.072 2.72-1.072.96 0 1.755.31 2.384.928.64.608.96 1.397.96 2.368 0 .31-.027.597-.08.864h-5.536c.053.672.304 1.2.752 1.584.459.384 1.045.576 1.76.576.939 0 1.675-.25 2.208-.752zm-2.512-4.368c-.629 0-1.152.176-1.568.528-.405.352-.645.816-.72 1.392h4.368c-.032-.597-.235-1.067-.608-1.408-.363-.341-.853-.512-1.472-.512zM801.563 16h-1.28v-5.92h-2.528l-.08 1.216c-.085.992-.213 1.819-.384 2.48-.16.65-.373 1.141-.64 1.472-.256.32-.528.544-.816.672-.288.117-.64.176-1.056.176l-.096-1.248a.9.9 0 00.368-.048c.128-.053.267-.16.416-.32.16-.16.299-.373.416-.64.128-.267.24-.64.336-1.12.107-.49.176-1.05.208-1.68l.128-2.24h5.008V16zm4.74 0h-2.432V8.8h1.28v2.16h1.312c.981 0 1.701.224 2.16.672.458.437.688 1.04.688 1.808 0 .725-.24 1.333-.72 1.824-.48.49-1.243.736-2.288.736zm-.08-3.84h-1.072v2.64h1.056c1.162 0 1.744-.437 1.744-1.312 0-.885-.576-1.328-1.728-1.328zM817.587 16h-1.28v-3.04h-4V16h-1.28V8.8h1.28v2.96h4V8.8h1.28V16zm2.891-.896c-.704-.725-1.056-1.627-1.056-2.704 0-1.088.352-1.984 1.056-2.688.715-.715 1.643-1.072 2.784-1.072 1.141 0 2.064.357 2.768 1.072.715.704 1.072 1.6 1.072 2.688s-.357 1.99-1.072 2.704c-.704.704-1.627 1.056-2.768 1.056-1.131 0-2.059-.352-2.784-1.056zm1.008-4.544c-.469.47-.704 1.083-.704 1.84 0 .757.229 1.37.688 1.84.469.48 1.067.72 1.792.72.725 0 1.317-.235 1.776-.704.469-.48.704-1.099.704-1.856 0-.736-.235-1.35-.704-1.84-.459-.48-1.051-.72-1.776-.72-.725 0-1.317.24-1.776.72zm12.903.08l-4.16 5.36h-1.28V8.8h1.28v5.36l4.16-5.36h1.28V16h-1.28v-5.36zm-4.416-5.52h1.2c.064.843.475 1.264 1.232 1.264.715 0 1.104-.421 1.168-1.264h1.2c0 .65-.224 1.19-.672 1.616-.437.416-1.003.624-1.696.624-.757 0-1.355-.203-1.792-.608-.427-.416-.64-.96-.64-1.632zM842.87 19.2h-1.28V8.8h1.28v.848c.256-.299.608-.539 1.056-.72a3.5 3.5 0 011.392-.288c1.024 0 1.829.341 2.416 1.024.608.672.912 1.547.912 2.624 0 1.099-.347 2.021-1.04 2.768-.683.736-1.584 1.104-2.704 1.104-.864 0-1.542-.165-2.032-.496V19.2zm2.08-9.36c-.854 0-1.547.33-2.08.992V14.4c.565.373 1.205.56 1.92.56.757 0 1.36-.24 1.808-.72.458-.49.688-1.125.688-1.904 0-.757-.208-1.36-.624-1.808-.416-.459-.987-.688-1.712-.688zm11.21 4.368l.4 1.008c-.693.63-1.595.944-2.704.944-1.173 0-2.107-.341-2.8-1.024-.704-.683-1.056-1.595-1.056-2.736 0-1.077.331-1.973.992-2.688.651-.715 1.557-1.072 2.72-1.072.96 0 1.755.31 2.384.928.64.608.96 1.397.96 2.368 0 .31-.027.597-.08.864h-5.536c.053.672.304 1.2.752 1.584.459.384 1.045.576 1.76.576.939 0 1.675-.25 2.208-.752zm-2.512-4.368c-.629 0-1.152.176-1.568.528-.405.352-.645.816-.72 1.392h4.368c-.032-.597-.235-1.067-.608-1.408-.363-.341-.853-.512-1.472-.512zm6.425 6.16h-1.28V8.8h4.56V10h-3.28v6zm9.957-5.36L865.87 16h-1.28V8.8h1.28v5.36l4.16-5.36h1.28V16h-1.28v-5.36zm9.142 3.392l.608.928c-.618.8-1.541 1.2-2.768 1.2-1.152 0-2.085-.341-2.8-1.024-.704-.683-1.056-1.595-1.056-2.736 0-1.056.347-1.947 1.04-2.672.694-.725 1.563-1.088 2.608-1.088 1.259 0 2.203.315 2.832.944l-.592 1.008c-.554-.501-1.242-.752-2.064-.752-.672 0-1.253.245-1.744.736-.48.48-.72 1.088-.72 1.824 0 .779.246 1.397.736 1.856.502.47 1.12.704 1.856.704.832 0 1.52-.31 2.064-.928zm3.911-3.952h-2.64V8.8h6.56v1.28h-2.64V16h-1.28v-5.92zm6.599 9.12h-1.28V8.8h1.28v.848c.256-.299.608-.539 1.056-.72a3.5 3.5 0 011.392-.288c1.024 0 1.829.341 2.416 1.024.608.672.912 1.547.912 2.624 0 1.099-.347 2.021-1.04 2.768-.683.736-1.584 1.104-2.704 1.104-.864 0-1.541-.165-2.032-.496V19.2zm2.08-9.36c-.853 0-1.547.33-2.08.992V14.4c.565.373 1.205.56 1.92.56.757 0 1.36-.24 1.808-.72.459-.49.688-1.125.688-1.904 0-.757-.208-1.36-.624-1.808-.416-.459-.987-.688-1.712-.688zm5.915.48l-.336-1.024c.714-.437 1.514-.656 2.4-.656.97 0 1.674.24 2.112.72.437.48.656 1.221.656 2.224V16h-1.216v-.928c-.566.693-1.334 1.04-2.304 1.04-.662 0-1.195-.197-1.6-.592-.406-.405-.608-.95-.608-1.632 0-.704.25-1.259.752-1.664.501-.416 1.157-.624 1.968-.624.757 0 1.354.155 1.792.464 0-.81-.112-1.392-.336-1.744-.224-.352-.656-.528-1.296-.528-.651 0-1.312.176-1.984.528zm1.76 4.64c.714 0 1.333-.31 1.856-.928v-.912c-.448-.32-.987-.48-1.616-.48-.438 0-.806.107-1.104.32-.288.203-.432.49-.432.864 0 .352.112.63.336.832.234.203.554.304.96.304zM911.052 16h-6.4V8.8h1.28v6h3.84v-6h1.28v6h1.2v2.96h-1.2V16zm8.024-5.36l-4.16 5.36h-1.28V8.8h1.28v5.36l4.16-5.36h1.28V16h-1.28v-5.36zm9.047 0l-4.16 5.36h-1.28V8.8h1.28v5.36l4.16-5.36h1.28V16h-1.28v-5.36z" fill="#0073B8"/><circle cx="545" cy="11" r="6" fill="#0073B8"/><path d="M983.8 10.4c0-1.621.539-2.987 1.616-4.096 1.077-1.11 2.443-1.664 4.096-1.664 1.643 0 3.003.539 4.08 1.616 1.088 1.077 1.632 2.459 1.632 4.144 0 1.643-.544 3.019-1.632 4.128-1.088 1.088-2.448 1.632-4.08 1.632-1.632 0-2.997-.539-4.096-1.616-1.077-1.077-1.616-2.459-1.616-4.144zm1.44 0c0 1.259.411 2.325 1.232 3.2.821.853 1.835 1.28 3.04 1.28 1.259 0 2.283-.427 3.072-1.28.8-.853 1.2-1.92 1.2-3.2 0-1.28-.411-2.347-1.232-3.2-.821-.853-1.835-1.28-3.04-1.28-1.227 0-2.245.421-3.056 1.264-.811.843-1.216 1.915-1.216 3.216zm13.671-.32h-2.64V8.8h6.559v1.28h-2.64V16h-1.279v-5.92zm9.939-1.28h1.68l-3.15 3.44 3.46 3.76h-1.78l-3.25-3.68 3.04-3.52zm-3.34 7.2h-1.28V8.8h1.28V16zm7.97 3.2h-1.28V8.8h1.28v.848c.25-.299.61-.539 1.05-.72.45-.192.92-.288 1.4-.288 1.02 0 1.83.341 2.41 1.024.61.672.91 1.547.91 2.624 0 1.099-.34 2.021-1.04 2.768-.68.736-1.58 1.104-2.7 1.104-.86 0-1.54-.165-2.03-.496V19.2zm2.08-9.36c-.85 0-1.55.33-2.08.992V14.4c.56.373 1.2.56 1.92.56.76 0 1.36-.24 1.81-.72.46-.49.68-1.125.68-1.904 0-.757-.2-1.36-.62-1.808-.42-.459-.99-.688-1.71-.688zm7.85 6.16h-2.32V8.8h1.28v2.16h1.18c.98 0 1.7.224 2.16.672.46.437.69 1.04.69 1.808 0 .725-.24 1.333-.72 1.824-.46.49-1.21.736-2.27.736zm5.65 0h-1.28V8.8h1.28V16zm-5.75-3.84h-.94v2.64h.93c.61 0 1.05-.107 1.33-.32.27-.213.41-.544.41-.992 0-.885-.57-1.328-1.73-1.328zm9.77-2.08h-2.64V8.8h6.56v1.28h-2.64V16h-1.28v-5.92zm7.64 5.92h-2.32V8.8h1.28v2.16h1.19c.98 0 1.7.224 2.16.672.45.437.68 1.04.68 1.808 0 .725-.24 1.333-.72 1.824-.45.49-1.21.736-2.27.736zm5.65 0h-1.28V8.8h1.28V16zm-5.74-3.84h-.95v2.64h.93c.61 0 1.05-.107 1.33-.32.28-.213.41-.544.41-.992 0-.885-.57-1.328-1.72-1.328zm13.72 2.048l.4 1.008c-.7.63-1.6.944-2.71.944-1.17 0-2.1-.341-2.8-1.024-.7-.683-1.05-1.595-1.05-2.736 0-1.077.33-1.973.99-2.688.65-.715 1.56-1.072 2.72-1.072.96 0 1.75.31 2.38.928.64.608.96 1.397.96 2.368 0 .31-.02.597-.08.864h-5.53c.05.672.3 1.2.75 1.584.46.384 1.04.576 1.76.576.94 0 1.67-.25 2.21-.752zm-2.51-4.368c-.63 0-1.16.176-1.57.528-.41.352-.65.816-.72 1.392h4.37c-.04-.597-.24-1.067-.61-1.408-.37-.341-.86-.512-1.47-.512zm4.85 5.424c0-.256.08-.459.24-.608.16-.16.39-.24.67-.24.35 0 .62.144.84.432.21.277.32.65.32 1.12 0 .576-.16 1.072-.48 1.488-.31.427-.74.72-1.28.88l-.36-.608c.56-.17.9-.528 1.03-1.072.07-.363.07-.63-.02-.8-.06.096-.18.144-.35.144-.16 0-.3-.07-.43-.208a.817.817 0 01-.18-.528zm8.46-5.184h-2.64V8.8h6.56v1.28h-2.64V16h-1.28v-5.92zm6.59 9.12h-1.28V8.8h1.28v.848c.26-.299.61-.539 1.06-.72.45-.192.91-.288 1.39-.288 1.03 0 1.83.341 2.42 1.024.61.672.91 1.547.91 2.624 0 1.099-.35 2.021-1.04 2.768-.68.736-1.58 1.104-2.7 1.104-.87 0-1.54-.165-2.04-.496V19.2zm2.08-9.36c-.85 0-1.54.33-2.08.992V14.4c.57.373 1.21.56 1.92.56.76 0 1.36-.24 1.81-.72.46-.49.69-1.125.69-1.904 0-.757-.21-1.36-.62-1.808-.42-.459-.99-.688-1.72-.688zm5.92.48l-.34-1.024a4.533 4.533 0 012.4-.656c.97 0 1.68.24 2.12.72.43.48.65 1.221.65 2.224V16h-1.21v-.928c-.57.693-1.34 1.04-2.31 1.04-.66 0-1.19-.197-1.6-.592-.4-.405-.61-.95-.61-1.632 0-.704.25-1.259.76-1.664.5-.416 1.15-.624 1.96-.624.76 0 1.36.155 1.8.464 0-.81-.12-1.392-.34-1.744-.22-.352-.66-.528-1.3-.528-.65 0-1.31.176-1.98.528zm1.76 4.64c.71 0 1.33-.31 1.86-.928v-.912c-.45-.32-.99-.48-1.62-.48-.44 0-.81.107-1.1.32a.996.996 0 00-.44.864c0 .352.12.63.34.832.23.203.55.304.96.304zm11.77 1.04h-1.28v-3.04h-4V16h-1.28V8.8h1.28v2.96h4V8.8h1.28V16zm7.86-1.968l.6.928c-.62.8-1.54 1.2-2.76 1.2-1.16 0-2.09-.341-2.8-1.024s-1.06-1.595-1.06-2.736c0-1.056.35-1.947 1.04-2.672.69-.725 1.56-1.088 2.61-1.088 1.26 0 2.2.315 2.83.944l-.59 1.008c-.56-.501-1.25-.752-2.07-.752-.67 0-1.25.245-1.74.736-.48.48-.72 1.088-.72 1.824 0 .779.24 1.397.74 1.856.5.47 1.12.704 1.85.704.83 0 1.52-.31 2.07-.928zm8.34 1.968h-1.28v-5.92h-2.53l-.08 1.216c-.08.992-.21 1.819-.38 2.48-.16.65-.38 1.141-.64 1.472-.26.32-.53.544-.82.672-.29.117-.64.176-1.05.176l-.1-1.248c.12.01.24-.005.37-.048.13-.053.26-.16.41-.32.16-.16.3-.373.42-.64.13-.267.24-.64.34-1.12.1-.49.17-1.05.2-1.68l.13-2.24h5.01V16zm7.75-5.36l-4.16 5.36h-1.28V8.8h1.28v5.36l4.16-5.36h1.28V16h-1.28v-5.36zm4.88 8.56h-1.28V8.8h1.28v.848c.26-.299.61-.539 1.06-.72.45-.192.91-.288 1.39-.288 1.03 0 1.83.341 2.42 1.024.61.672.91 1.547.91 2.624 0 1.099-.35 2.021-1.04 2.768-.68.736-1.58 1.104-2.7 1.104-.87 0-1.55-.165-2.04-.496V19.2zm2.08-9.36c-.85 0-1.54.33-2.08.992V14.4c.57.373 1.21.56 1.92.56.76 0 1.36-.24 1.81-.72.46-.49.69-1.125.69-1.904 0-.757-.21-1.36-.62-1.808-.42-.459-.99-.688-1.72-.688zm10.34-1.04h1.46l-2.88 7.2c-.53 1.27-.98 2.112-1.36 2.528-.41.448-.87.672-1.39.672-.47 0-.93-.15-1.36-.448l.41-.976c.34.16.61.24.8.24.3 0 .57-.128.8-.384.25-.256.49-.672.74-1.248l.16-.384-3.46-7.2h1.54l2.11 4.576c.04.075.19.437.43 1.088.1-.352.21-.72.34-1.104l1.66-4.56zm8.17 5.408l.4 1.008c-.69.63-1.59.944-2.7.944-1.18 0-2.11-.341-2.8-1.024-.71-.683-1.06-1.595-1.06-2.736 0-1.077.33-1.973.99-2.688.65-.715 1.56-1.072 2.72-1.072.96 0 1.76.31 2.39.928.64.608.96 1.397.96 2.368 0 .31-.03.597-.08.864h-5.54c.05.672.31 1.2.75 1.584.46.384 1.05.576 1.76.576.94 0 1.68-.25 2.21-.752zm-2.51-4.368c-.63 0-1.15.176-1.57.528-.4.352-.64.816-.72 1.392h4.37c-.03-.597-.24-1.067-.61-1.408-.36-.341-.85-.512-1.47-.512zm6.42 6.16h-1.28V8.8h1.17l2.77 3.568 2.62-3.568h1.14V16h-1.28v-5.248l-2.5 3.344h-.04l-2.6-3.344V16zm11.06 0h-2.32V8.8h1.28v2.16h1.18c.98 0 1.7.224 2.16.672.46.437.69 1.04.69 1.808 0 .725-.24 1.333-.72 1.824-.46.49-1.21.736-2.27.736zm5.65 0h-1.28V8.8h1.28V16zm-5.75-3.84h-.94v2.64h.93c.61 0 1.05-.107 1.33-.32.27-.213.41-.544.41-.992 0-.885-.57-1.328-1.73-1.328zm13.73 2.048l.4 1.008c-.7.63-1.6.944-2.71.944-1.17 0-2.11-.341-2.8-1.024-.7-.683-1.05-1.595-1.05-2.736 0-1.077.33-1.973.99-2.688.65-.715 1.55-1.072 2.72-1.072.96 0 1.75.31 2.38.928.64.608.96 1.397.96 2.368 0 .31-.03.597-.08.864h-5.53c.05.672.3 1.2.75 1.584.46.384 1.04.576 1.76.576.94 0 1.67-.25 2.21-.752zm-2.52-4.368c-.63 0-1.15.176-1.56.528-.41.352-.65.816-.72 1.392h4.36c-.03-.597-.23-1.067-.6-1.408-.37-.341-.86-.512-1.48-.512z" fill="#002E5E"/><circle cx="969" cy="11" r="6" fill="#002E5E"/></svg>